<svg xmlns="http://www.w3.org/2000/svg" width="37.895" height="61.802" viewBox="0 0 37.895 61.802">
  <path d="M-5618.933-3393.116a1.017,1.017,0,0,1-1.112-.889c0-.444-.222-1.111-.222-1.555a17.255,17.255,0,0,1-.444-3.556c0-.888,0-2.444-1.333-3.111a3.533,3.533,0,0,1-2-2,3.052,3.052,0,0,1,.223-2.444c1.111-1.777.444-2.667-.889-4.221a3.013,3.013,0,0,1-1.333-2.444c-.223-.667-.444-1.777-2.667-2.444-4.666-1.333-8.443-3.556-12.887-6.667-8.667-6.444-10.444-16.22-4.444-24.442,5.111-7.333,13.332-8.221,19.775-8,5.111,0,11.333,2.444,13.555,9.778a18.463,18.463,0,0,1-.444,13.332c-2,4.665-5.111,8.666-7.777,12a54.239,54.239,0,0,1-3.111,4.444,5.639,5.639,0,0,1,.444,1.555c0,.446.223.667.667,1.112,1.333,1.333,3.111,3.555,1.111,6.888v.444c0,.223.223.444.667.667a4.648,4.648,0,0,1,2.667,5.333,17.5,17.5,0,0,0,.444,3.111c0,.667.223,1.111.223,1.777a.979.979,0,0,1-.888,1.333Zm-25.331-52.439c-5.333,7.332-3.777,15.553,4,21.331a46.458,46.458,0,0,0,12.22,6.444,6.929,6.929,0,0,1,2.223,1.111c.888-1.333,2-2.667,2.888-4a59.713,59.713,0,0,0,7.777-12.22,16.587,16.587,0,0,0,.444-11.778c-2.444-7.555-9.555-8.222-11.555-8.222C-5635.375-3452.89-5640.709-3450.667-5644.264-3445.556Zm10.22,19.108a9.838,9.838,0,0,0-2.443-1.777c-.889-.667-1.779-1.111-2.667-1.777a1.1,1.1,0,0,1-.223-1.556,1.1,1.1,0,0,1,1.555-.221,23.2,23.2,0,0,0,2.445,1.777,18.576,18.576,0,0,1,2.667,1.777,1.1,1.1,0,0,1,.222,1.556,1.156,1.156,0,0,1-.888.444C-5633.6-3426.225-5633.821-3426.448-5634.043-3426.448Z" transform="translate(5649.565 3454.919)" />
</svg>
