<svg xmlns="http://www.w3.org/2000/svg" width="73.014" height="72.366" viewBox="0 0 73.014 72.366">
  <path d="M-5022.438-3369.74c-3.99-4.336-7.633-9.02-11.969-13.1-2.78-2.616-5.791-6.08-3.439-9.592a.963.963,0,0,1,.229-.642c3.643-3.99,7.979-7.2,11.448-11.275a118.551,118.551,0,0,1,10.668-11.188c6.072-5.551,12.923-10.841,18.474-17a.866.866,0,0,1,1.011-.189c4.408-2.369,8.385,2.859,11.218,6.086,2.515,2.775,5.117,5.2,7.805,7.805,2.863,2.863,5.465,6.331,8.587,8.934,1.214,1.041,3.556,2.863,2.429,4.77-.868,1.474-2.6,2.6-3.729,3.9-1.042,1.128-1.909,2.342-2.95,3.47-6.417,6.938-13.617,13.269-20.294,19.948-3.642,3.642-7.2,7.458-10.841,11.1-1.908,1.995-4.249,4.511-6.852,5.551a2.857,2.857,0,0,1-1.074.2C-5015.555-3360.954-5020.621-3367.763-5022.438-3369.74Zm-6.938-10.928c3.122,3.99,6.591,7.633,9.973,11.363,2.168,2.341,4.164,4.51,7.112,5.81,2.168.954,4.684-2.168,6.158-3.642,4.771-4.684,9.368-9.627,14.137-14.224,4.945-4.944,9.975-9.887,15-14.745,2.082-2.081,3.9-4.336,5.9-6.5,2.168-2.342,4.163-3.3,1.3-5.9-4.336-3.817-8.414-8.326-12.4-12.4-1-1.036-2.562-3.182-4.357-5.26a1.012,1.012,0,0,1-.24.663c-6.331,7.458-14.4,13.184-20.9,20.469-7.2,8.13-14.811,15.764-22.513,23.467A8.63,8.63,0,0,1-5029.377-3380.669Zm-2.29-2.22c7.724-7.731,15.279-15.468,22.584-23.538,6.5-7.285,14.483-13.1,20.9-20.469a.871.871,0,0,1,.7-.32c-2.817-3.05-6.048-5.485-8.589-3.237a.923.923,0,0,1-.4.215c-5.318,5.718-11.793,10.983-17.643,16.091-4.336,3.817-7.805,8.152-11.622,12.4-3.168,3.419-6.819,6.277-10.024,9.653a1.05,1.05,0,0,1-.209.408c-1.614,1.862-.642,3.862,1.033,5.727,13.01-15.74,28.525-29.387,42.938-43.716.868-.866,2.255.521,1.388,1.388-14.414,14.329-29.932,27.979-42.943,43.72C-5032.926-3383.98-5032.275-3383.418-5031.667-3382.889Zm42.064-12.886c-1.062-.334-2.043-1.648-2.653-2.326a29.015,29.015,0,0,1-2.512-3.317.944.944,0,0,1-.7-1.626,106.414,106.414,0,0,0,11.709-10.843.889.889,0,0,1,.865-.258.822.822,0,0,1,.7.085,19.626,19.626,0,0,1,5.985,6.245.9.9,0,0,1-.783,1.4,1.129,1.129,0,0,1-.171.246c-3.383,3.9-6.766,7.98-11.016,11.016a.883.883,0,0,1-.495.161A1.042,1.042,0,0,1-4989.6-3395.775Zm1.234-1.723c3.756-2.8,6.748-6.506,9.817-10.058a1.1,1.1,0,0,1,.133-.126,17.409,17.409,0,0,0-4.339-4.4,106.83,106.83,0,0,1-10.361,9.658,21.278,21.278,0,0,0,1.9,2.589c.52.521,1.04,1.128,1.561,1.648a2.321,2.321,0,0,0,.52.434c.042.021.077.037.1.049a.9.9,0,0,1,.1,0A.845.845,0,0,1-4988.369-3397.5Zm-.851-.171.072-.018A.474.474,0,0,0-4989.22-3397.668Zm.25-.016-.019,0C-4988.928-3397.665-4988.93-3397.674-4988.97-3397.684Z" transform="translate(5038.692 3433.319)" />
</svg>
