<svg xmlns="http://www.w3.org/2000/svg" width="53.792" height="36.088" viewBox="0 0 53.792 36.088">
  <path d="M-5912.466-3427.972c-9.654-.192-19.309-.385-28.963.037a.942.942,0,0,1-.749-1.46c0-10.83,0-21.661.125-32.491a1.051,1.051,0,0,1,.1-.4.68.68,0,0,1,.836-.529h0a1.024,1.024,0,0,1,.309.034c8.487.917,16.8-.847,25.227-1.033,8.08-.115,16.161.145,24.241.431a.86.86,0,0,1,1.188.042l.737.026a.98.98,0,0,1,.781,1.44.988.988,0,0,1,.029.241c0,5.67,0,11.339-.375,16.945-.3,4.867-1.739,10.21-.818,15.042a.944.944,0,0,1-.241,1.839q-3.1.056-6.207.053C-5901.649-3427.758-5907.058-3427.865-5912.466-3427.972Zm.014-1.869c6.47.129,12.94.257,19.412.2-2.784-3.043-5.724-6.066-8.769-8.824-2.3-2.081-4.913-3.552-7.369-5.375-1.045.994-2.083,2-3.1,3.009-1.245,1.245-3.3,2.553-4.049,4.173a.846.846,0,0,1-1.536-.068,1.023,1.023,0,0,1-.4-.305q-2.1-2.767-4.316-5.452c-4.927,4.133-9.55,8.732-14.774,12.534,2.893-.078,5.786-.109,8.679-.109C-5923.263-3430.056-5917.857-3429.948-5912.452-3429.841Zm-27.856-.009h.023a.936.936,0,0,1,.414-.639c5.845-3.9,10.739-8.969,16.115-13.413a138.934,138.934,0,0,0-16.442-16.592C-5940.307-3450.28-5940.309-3440.064-5940.309-3429.85Zm40.556-9.236c2.647,2.647,5.346,5.245,7.912,8.02-.3-4.091.671-8.281.934-12.381.434-6.013.436-12.027.436-18.041l-.138-.005c-4.709,4.737-9.694,9.3-14.562,13.873-.873.828-1.755,1.655-2.636,2.485C-5905.1-3443.087-5902.193-3441.526-5899.753-3439.086Zm-17.439.4a41.245,41.245,0,0,1,3.235-3.013q1.824-1.771,3.695-3.543a1.058,1.058,0,0,1,.726-.688q1.121-1.062,2.246-2.124c4.708-4.486,9.563-8.924,14.173-13.53-7.487-.284-14.973-.576-22.459-.361-7.325.266-14.6,1.589-21.912,1.29a143.34,143.34,0,0,1,15.348,15.811.975.975,0,0,1,.889,1.068Q-5919.178-3441.269-5917.192-3438.689Z" transform="translate(5942.317 3463.846)"/>
</svg>
