<svg xmlns="http://www.w3.org/2000/svg" width="54.542" height="53.338" viewBox="0 0 54.542 53.338">
  <path d="M-1592.732-4699.316a.482.482,0,0,1-.194-.027c-.222-.056-.416-.14-.611-.194-.333-.111-.666-.278-1-.416-.527-.25-1.054-.5-1.554-.778-1.11-.582-2.22-1.138-3.3-1.72-1.11-.583-2.22-1.222-3.3-1.888-1.082-.638-2.109-1.331-3.135-2.025-1.138-.776-2.22-1.582-3.274-2.414a42.709,42.709,0,0,1-5.467-5.051,22.016,22.016,0,0,1-2.331-2.969c-.389-.556-.75-1.083-1.083-1.665a6.931,6.931,0,0,1-.444-.778c-.14-.305-.305-.583-.444-.887a4.358,4.358,0,0,1-.278-.639l-.25-.582c-.082-.25-.193-.527-.277-.805a15.853,15.853,0,0,1-.5-1.638c-.167-.666-.305-1.3-.444-1.97s-.222-1.36-.305-2.026a24.822,24.822,0,0,1-.029-3.8c.056-.694.167-1.387.278-2.081.083-.583.222-1.166.361-1.749a18.954,18.954,0,0,1,1.3-3.635,17.349,17.349,0,0,1,1.915-3.219c.388-.582.8-1.166,1.249-1.721.388-.5.776-1,1.22-1.471.223-.222.416-.443.639-.666.249-.222.471-.443.722-.667.333-.3.72-.582,1.082-.86.249-.193.5-.36.749-.527.25-.138.5-.305.749-.444.361-.167.694-.361,1.056-.5.277-.111.555-.25.832-.333a12.763,12.763,0,0,1,2.3-.583,11.249,11.249,0,0,1,1.692-.138c.194,0,.389.027.583.027q.832.041,1.665.167a10.977,10.977,0,0,1,4.745,2.025,13.128,13.128,0,0,1,3.386,3.608c.278.473.583.944.833,1.443,0-.027.027-.056.027-.083.25-.611.527-1.22.833-1.8.278-.527.556-1.055.86-1.554.194-.305.389-.583.583-.889.222-.305.472-.582.694-.887a7.061,7.061,0,0,1,1.193-1.221,10.43,10.43,0,0,1,1.527-1.138c.333-.194.666-.36,1.027-.555a7.089,7.089,0,0,1,.805-.361,10.813,10.813,0,0,1,2.387-.749,15.353,15.353,0,0,1,2.5-.278h.388a11.187,11.187,0,0,1,1.665.14,10.608,10.608,0,0,1,2.248.555,13.954,13.954,0,0,1,2.5,1.249,13.344,13.344,0,0,1,2.11,1.61,13.039,13.039,0,0,1,2.636,3.5c.305.555.611,1.167.887,1.749.194.389.334.805.5,1.221a6.922,6.922,0,0,1,.278.8,10.761,10.761,0,0,1,.471,1.61,37.389,37.389,0,0,1,.667,4c.138,1.22.278,2.469.305,3.717,0,1.278.055,2.554.027,3.857a22.542,22.542,0,0,1-.527,3.858,25.919,25.919,0,0,1-1.165,3.5c-.472,1.222-1,2.443-1.582,3.637-.278.555-.583,1.109-.889,1.665-.305.526-.638,1-.971,1.5a20.185,20.185,0,0,1-2.5,3.025c-1.748,1.72-3.608,3.385-5.467,4.995a35.069,35.069,0,0,1-3.025,2.332c-.972.666-2,1.22-2.97,1.887a17.065,17.065,0,0,1-1.5.943c-.5.277-1.054.555-1.582.805-.556.25-1.138.471-1.694.693a6.931,6.931,0,0,1-.805.306,2.57,2.57,0,0,1-.915.194A1.13,1.13,0,0,1-1592.732-4699.316Zm-13.348-48.536a10.93,10.93,0,0,0-1.665.388c-.222.083-.472.167-.694.25-.167.055-.305.138-.471.194-.278.138-.583.277-.861.444a12.781,12.781,0,0,0-1.3.833,17.628,17.628,0,0,0-1.97,1.831c-.416.472-.833.972-1.221,1.471-.305.417-.638.861-.943,1.3-.25.389-.527.778-.749,1.194-.278.5-.556,1-.805,1.5-.222.444-.416.86-.611,1.3-.138.334-.249.694-.361,1.027-.111.417-.249.861-.36,1.3a21.882,21.882,0,0,0-.444,2.276c-.056.389-.083.776-.111,1.165-.029.473-.056.944-.056,1.416v.749c.027.278.027.556.056.833.027.305.082.638.111.971.111.527.194,1.083.305,1.61.111.5.222,1,.36,1.5.194.582.361,1.137.556,1.72.138.444.333.86.5,1.276.222.444.416.86.667,1.277.249.444.527.888.8,1.3.5.776,1.056,1.527,1.61,2.276.527.61,1.054,1.221,1.61,1.8.582.611,1.193,1.194,1.8,1.776,1.11,1.027,2.276,1.97,3.468,2.915.25.193.527.415.805.609,1.054.749,2.109,1.443,3.163,2.137,1.027.666,2.081,1.333,3.164,1.943s2.22,1.193,3.33,1.776c1.054.527,2.081,1.082,3.163,1.581.305.111.611.222.916.306h.444a.784.784,0,0,1,.25.027c.167-.055.333-.138.5-.194.305-.111.582-.25.887-.36a16.852,16.852,0,0,0,2-.971,22.019,22.019,0,0,0,1.887-1.194c.638-.417,1.332-.805,1.97-1.222.611-.416,1.22-.833,1.8-1.276.749-.555,1.443-1.166,2.137-1.776s1.387-1.222,2.081-1.859c.722-.638,1.415-1.276,2.081-1.943.36-.36.749-.694,1.082-1.082.305-.361.583-.694.889-1.054a34.157,34.157,0,0,0,1.942-2.97c.556-1,1.027-2.081,1.5-3.135.416-1,.805-2.025,1.165-3.052a14,14,0,0,0,.416-1.444c.056-.277.111-.527.167-.8.055-.25.082-.5.138-.749.083-.778.138-1.527.167-2.276,0-.778,0-1.582-.056-2.414-.055-1.61-.194-3.248-.36-4.856-.056-.556-.167-1.111-.25-1.665s-.222-1.11-.333-1.665c-.056-.278-.138-.556-.222-.833s-.167-.527-.25-.778a14.353,14.353,0,0,0-.527-1.415l-.666-1.332a18.8,18.8,0,0,0-1.387-2.249,11.045,11.045,0,0,0-1.8-1.8,13.99,13.99,0,0,0-2.636-1.554,9.326,9.326,0,0,0-2.276-.639,8.521,8.521,0,0,0-1.443-.083c-.249,0-.471.028-.722.028-.333,0-.638.055-.971.083a11.919,11.919,0,0,0-2.415.666c-.249.111-.471.222-.72.333a14.246,14.246,0,0,0-1.638,1c-.361.305-.722.638-1.054.971a10.7,10.7,0,0,0-.722.861c-.25.36-.5.693-.722,1.082-.222.36-.445.722-.638,1.111-.361.666-.667,1.387-.972,2.081a7.9,7.9,0,0,0-.527,1.554.681.681,0,0,0,0,.333,1.01,1.01,0,0,1-.333.805,1.07,1.07,0,0,1-.805.333,1.131,1.131,0,0,1-.833-.333.219.219,0,0,1-.111-.111.954.954,0,0,1-.583-.5c-.388-.776-.72-1.582-1.165-2.359-.222-.36-.444-.749-.693-1.109a10.063,10.063,0,0,0-.639-.889c-.222-.222-.388-.443-.609-.667-.361-.333-.694-.666-1.056-.971a11.415,11.415,0,0,0-2.247-1.333,9.72,9.72,0,0,0-2-.555,15.7,15.7,0,0,0-1.781-.116A9.6,9.6,0,0,0-1606.08-4747.852Zm-8.381,16.207a1.193,1.193,0,0,1,1.193-1.194,1.194,1.194,0,0,1,1.194,1.194,1.193,1.193,0,0,1-1.194,1.192A1.193,1.193,0,0,1-1614.461-4731.645Zm.194-4a5.1,5.1,0,0,1,.083-1.138,3.9,3.9,0,0,1,.36-1.138c.14-.305.278-.611.444-.916a11.37,11.37,0,0,1,1.361-1.915,14.38,14.38,0,0,1,1.776-1.665,14.08,14.08,0,0,1,2.025-1.332,1.384,1.384,0,0,1,.583-.14,1.221,1.221,0,0,1,1.027.611,1.17,1.17,0,0,1-.416,1.582,13.761,13.761,0,0,0-1.888,1.221,8.923,8.923,0,0,0-.915.833q-.376.376-.75.833a14.2,14.2,0,0,0-1.165,1.97c-.055.194-.111.389-.166.583a4.367,4.367,0,0,0-.029.61,1.191,1.191,0,0,1-1.165,1.166A1.173,1.173,0,0,1-1614.266-4735.642Z" transform="translate(1621.014 4752.432)" />
</svg>
