<svg id="Group_1312" data-name="Group 1312" xmlns="http://www.w3.org/2000/svg" width="53.26" height="73.727" viewBox="0 0 53.26 73.727">
  <g id="Group_1311" data-name="Group 1311" transform="translate(0 0)">
    <path id="Path_468" data-name="Path 468" d="M30.336,2.1H27.673c-.092,0-.092,0-.275.092-.092,0-.092,0-.275.092-.092,0-.184,0-.184.092-.092,0-.184.092-.275.092-.184.092-.184.092-.275.092-.184,0-.184,0-.275.092-.092,0-.184.092-.275.092a.552.552,0,0,0-.367.092.172.172,0,0,0-.275,0c-.092,0-.184.092-.367.092-.092,0-.184.092-.367.092-.092,0-.184.092-.275.092s-.275.092-.367.092-.184.092-.367.092c-.092,0-.275.092-.367.092s-.184.092-.275.092a.552.552,0,0,1-.367.092.706.706,0,0,1-.275.184c-.092,0-.275.092-.367.092s-.184.092-.367.092l-.367.184a.7.7,0,0,0-.367.184c-.092.092-.275.092-.367.184-.184.092-.275.184-.459.184-.092.092-.184.092-.367.184a2.007,2.007,0,0,1-.459.275c-.184.092-.275.184-.459.275-.092.092-.275.184-.367.275s-.275.184-.367.275c-.184.092-.275.184-.459.275a2.007,2.007,0,0,1-.459.275c-.092.092-.275.184-.367.275a1.268,1.268,0,0,0-.367.275.963.963,0,0,1-.367.275c-.092.092-.275.184-.367.367-.184.092-.275.275-.459.367,0,.092-.092.184-.275.184l-.367.367-.367.367c-.092.092-.184.275-.275.367a1.268,1.268,0,0,0-.275.367c-.092.092-.184.275-.275.367s-.184.275-.367.459A1.612,1.612,0,0,1,12.43,11a1.268,1.268,0,0,1-.275.367,2.007,2.007,0,0,0-.275.459,1.612,1.612,0,0,1-.367.459.917.917,0,0,1-.367.459c-.092.184-.184.275-.275.459l-.275.551-.275.551c-.092.184-.184.275-.275.459l-.275.551a1.305,1.305,0,0,0-.184.551,1.305,1.305,0,0,0-.184.551,1.305,1.305,0,0,0-.184.551l-.184.551c-.092.184-.092.367-.184.551a.7.7,0,0,0-.184.459l-.184.551c-.092.184-.092.367-.184.551a1.305,1.305,0,0,1-.184.551,1.165,1.165,0,0,0-.092.551c0,.184-.092.367-.092.551s-.092.367-.092.643c-.092.092-.092.275-.184.459,0,.184-.092.367-.092.551s-.092.459-.092.643c0,.275-.092.459-.092.643s-.092.367-.092.551a2.022,2.022,0,0,1-.092.735,2.022,2.022,0,0,1-.092.735,1.362,1.362,0,0,1-.092.643v4.5a1.563,1.563,0,0,0,.092.643c0,.275.092.459.092.643s.092.367.092.551.092.367.092.643a1.305,1.305,0,0,0,.184.551c.092.184.092.367.184.551s.092.367.184.551.092.367.184.459c.092.184.092.275.184.459s.184.275.184.459c.092.184.184.275.275.459s.184.275.275.459.184.275.275.459.184.275.275.459.184.275.275.459a2.946,2.946,0,0,1,.275.459c.092.184.184.275.275.459s.184.275.275.459a1.612,1.612,0,0,0,.367.459,2,2,0,0,0,.367.459c.092.092.184.275.367.459.092.184.275.275.367.459a2,2,0,0,0,.367.459c.092.184.275.275.367.459a2,2,0,0,1,.367.459l.367.367.367.367c.184.092.275.275.459.367s.275.275.459.367.275.275.459.367.275.184.459.275.275.184.459.275.275.184.459.275l.551.275.551.275.551.275a1.305,1.305,0,0,0,.551.184,1.305,1.305,0,0,0,.551.184,2.357,2.357,0,0,0,.459.184c.184.092.459.184.643.275s.459.184.643.275a1.371,1.371,0,0,1,.643.275c.184.092.367.092.551.184.275.092.459.092.551.184.184,0,.367.092.551.092s.367.092.551.092.367.092.643.092h4.224a1.365,1.365,0,0,0,.551-.092c.275,0,.459-.092.643-.092a1.305,1.305,0,0,0,.551-.184,5.854,5.854,0,0,1,.643-.184,1.305,1.305,0,0,1,.551-.184,4.477,4.477,0,0,1,.643-.275c.184-.092.459-.184.643-.275l.551-.275a1.552,1.552,0,0,1,.551-.275,5.267,5.267,0,0,0,.643-.367,5.267,5.267,0,0,0,.643-.367l.551-.275a1.921,1.921,0,0,0,.551-.367c.184-.092.367-.275.551-.367a1.612,1.612,0,0,0,.459-.367c.184-.092.367-.275.551-.367s.275-.275.459-.367l.459-.459c.184-.184.275-.367.459-.551s.275-.367.459-.551a2.435,2.435,0,0,1,.459-.551,2.435,2.435,0,0,0,.459-.551c.184-.184.275-.367.459-.551a1.921,1.921,0,0,0,.367-.551c.092-.184.275-.367.367-.551.184-.184.275-.367.367-.459a2,2,0,0,0,.367-.459,1.612,1.612,0,0,1,.367-.459c.092-.092.184-.275.275-.367.092-.184.184-.275.275-.459s.184-.275.275-.459a1.551,1.551,0,0,0,.184-.459c.092-.184.092-.275.184-.459s.092-.367.184-.551a1,1,0,0,0,.092-.459c0-.184.092-.367.092-.551s.092-.275.092-.459.092-.367.092-.551a1.165,1.165,0,0,1,.092-.551V26.706a4.506,4.506,0,0,0-.092-1.01,4.471,4.471,0,0,0-.092-1.1,3.767,3.767,0,0,0-.092-1.01,4.118,4.118,0,0,0-.092-1.01c0-.367-.092-.643-.092-.918s-.092-.551-.092-.826-.092-.459-.092-.735a1.793,1.793,0,0,1-.092-.643,2.336,2.336,0,0,0-.184-.643c-.092-.184-.092-.367-.184-.551s-.092-.367-.184-.551a1.305,1.305,0,0,1-.184-.551l-.275-.551-.275-.551c-.092-.184-.092-.275-.184-.459l-.275-.551c-.092-.184-.184-.275-.184-.459-.092-.184-.184-.275-.275-.459S42,13.85,42,13.666l-.184-.367c-.092-.092-.092-.184-.184-.367a1.268,1.268,0,0,0-.275-.367c-.092-.092-.184-.275-.275-.367a1.268,1.268,0,0,0-.275-.367c-.092-.092-.092-.184-.184-.275a1.268,1.268,0,0,0-.275-.367,1.268,1.268,0,0,1-.275-.367c-.092-.184-.184-.275-.275-.459a1.268,1.268,0,0,0-.275-.367.963.963,0,0,0-.275-.367c-.092-.184-.184-.275-.275-.459.092-.184,0-.275,0-.367-.092-.092-.092-.184-.184-.275s-.184-.275-.275-.367-.092-.184-.184-.275-.184-.184-.184-.275l-.275-.275c-.092-.092-.184-.184-.275-.184-.092-.092-.184-.092-.275-.184s-.184-.092-.275-.184-.184-.184-.275-.184c-.092-.092-.184-.092-.184-.184-.092-.092-.184-.184-.275-.184-.092-.092-.184-.184-.275-.184l-.184-.184c-.092-.092-.184-.184-.275-.184l-.184-.184c-.092-.275-.092-.275-.184-.367a.321.321,0,0,0-.184-.092c-.092-.092-.184-.092-.184-.184l-.092-.092-.184-.184-.092-.092c-.092,0-.184-.092-.275-.184s-.184-.092-.275-.184-.184-.092-.275-.184-.184-.092-.275-.184-.092-.092-.275-.092c-.092.092-.184,0-.275,0-.092-.092-.184-.092-.275-.184-.092,0-.092-.092-.184-.092-.092-.092-.092-.092-.184-.092-.092-.092-.092-.092-.184-.092-.092-.092-.184-.092-.275-.184s-.184-.092-.184-.184c-.184-.092-.184-.092-.275-.092s-.184-.092-.275-.092a1.559,1.559,0,0,1-.551-.551ZM31.9.718c.184.092.184.092.275.092A.321.321,0,0,1,32.357.9c.092.092.184.092.367.184a.09.09,0,0,1,.092.092.706.706,0,0,1,.275.184c.092.092.092.092.184.092a.321.321,0,0,1,.184.092c.092,0,.092.092.184.092s.092.092.184.092c.092.092.092.092.275.092.092.092.184.092.275.184s.184.092.367.184c.092.092.275.184.367.275s.184.092.275.184.184.092.275.184l.184.184c.092.092.184.092.184.184a.321.321,0,0,0,.184.092c.092.092.184.092.275.184l.184.184.184.184.367.367.184.184.184.184c.092.092.184.092.184.184.092.092.184.184.275.184.092.092.184.092.275.184s.184.184.275.184a1.268,1.268,0,0,1,.367.275l.275.275.275.275.367.367c.092.092.184.275.275.367s.184.275.275.367a1.268,1.268,0,0,0,.275.367,2.007,2.007,0,0,1,.275.459,1.268,1.268,0,0,0,.275.367.963.963,0,0,0,.275.367c.092.092.184.275.275.367s.184.275.275.367.184.275.275.367a1.268,1.268,0,0,1,.275.367c.092.184.184.275.275.459.092.092.092.184.184.367s.184.275.275.459a2.007,2.007,0,0,1,.275.459c.092.184.184.275.275.459l.184.367c.092.184.184.275.275.459s.184.275.184.459l.275.551.275.551.275.551.275.551c.092.184.184.459.275.643l.275.551c.092.184.184.459.275.643a1.73,1.73,0,0,1,.184.735,5.852,5.852,0,0,0,.184.643c.092.184.092.459.184.735a2.542,2.542,0,0,1,.092.826c0,.275.092.551.092.826s.092.643.092,1.01.092.735.092,1.01a3.767,3.767,0,0,0,.092,1.01,4.471,4.471,0,0,0,.092,1.1,3.443,3.443,0,0,0,.092,1.01V33.96a1.793,1.793,0,0,1-.092.643c0,.184-.092.367-.092.643,0,.184-.092.367-.092.643,0,.184-.092.367-.092.551a5.852,5.852,0,0,0-.184.643,5.853,5.853,0,0,0-.184.643,1.305,1.305,0,0,0-.184.551l-.275.551c-.092.184-.184.459-.275.643a2.007,2.007,0,0,1-.275.459,1.921,1.921,0,0,1-.367.551,2,2,0,0,1-.367.459,2,2,0,0,1-.367.459c-.092.184-.275.275-.367.459a1.921,1.921,0,0,0-.367.551c-.092.184-.275.367-.367.551-.184.184-.275.367-.459.551a2.435,2.435,0,0,1-.459.551,2.435,2.435,0,0,0-.459.551c-.184.184-.275.367-.459.551a3.994,3.994,0,0,0-.551.643l-.551.551c-.184.184-.367.275-.551.459s-.367.275-.551.459c-.184.092-.367.275-.551.367a3.993,3.993,0,0,1-.643.367c-.184.092-.367.275-.551.367a1.921,1.921,0,0,0-.551.367c-.184.092-.459.275-.643.367a5.267,5.267,0,0,0-.643.367,1.552,1.552,0,0,1-.551.275,4.477,4.477,0,0,1-.643.275,5.453,5.453,0,0,1-.735.367,4.476,4.476,0,0,0-.643.275,6.327,6.327,0,0,1-.735.275,2.161,2.161,0,0,1-.735.184c-.275.092-.459.092-.735.184-.184,0-.459.092-.735.092s-.551.092-.735.092H25.929a1.563,1.563,0,0,1-.643-.092,1.563,1.563,0,0,1-.643-.092c-.275,0-.459-.092-.735-.092a1.327,1.327,0,0,1-.643-.184c-.184-.092-.459-.092-.735-.184s-.459-.184-.735-.275a3.333,3.333,0,0,1-.643-.275,6.327,6.327,0,0,0-.735-.275,4.477,4.477,0,0,1-.643-.275,1.552,1.552,0,0,1-.551-.275,1.305,1.305,0,0,0-.551-.184l-.551-.275-.551-.275-.551-.275-.551-.275-.551-.275a1.921,1.921,0,0,1-.551-.367c-.184-.092-.367-.275-.551-.367a2,2,0,0,1-.459-.367,2,2,0,0,1-.459-.367,1.107,1.107,0,0,1-.459-.459c-.184-.184-.367-.275-.459-.459l-.459-.459-.459-.459a1.612,1.612,0,0,1-.367-.459,2,2,0,0,1-.367-.459c-.184-.184-.275-.367-.459-.459-.092-.184-.275-.275-.367-.459-.918-.184-1.01-.367-1.194-.551a1.921,1.921,0,0,1-.367-.551,1.612,1.612,0,0,0-.367-.459.917.917,0,0,0-.367-.459A2.946,2.946,0,0,1,7.93,40.3a2.007,2.007,0,0,0-.275-.459c-.092-.184-.184-.275-.275-.459S7.2,39.1,7.1,38.919a2.007,2.007,0,0,0-.275-.459A2.007,2.007,0,0,0,6.553,38l-.275-.551L6,36.9a1.305,1.305,0,0,1-.184-.551c-.092-.184-.092-.367-.184-.551a5.852,5.852,0,0,1-.184-.643c-.092-.184-.092-.459-.184-.643s-.092-.459-.184-.643c0-.275-.092-.459-.092-.643s-.092-.459-.092-.643a5.735,5.735,0,0,0,.092-1.1V26.889a1.563,1.563,0,0,1,.092-.643,1.79,1.79,0,0,1,.092-.735,2.022,2.022,0,0,1,.092-.735c0-.275.092-.459.092-.643s.092-.367.092-.643.092-.459.092-.643.092-.459.092-.643.092-.367.092-.643c0-.184.092-.459.092-.643s.092-.367.092-.551a2.336,2.336,0,0,1,.184-.643c.092-.184.092-.367.184-.551s.092-.367.184-.551l.184-.551a5.852,5.852,0,0,0,.184-.643c.092-.184.092-.367.184-.551a1.371,1.371,0,0,1,.275-.643,1.327,1.327,0,0,0,.184-.643,1.305,1.305,0,0,0,.184-.551l.275-.551a4.477,4.477,0,0,0,.275-.643l.275-.551.275-.551c.092-.184.275-.459.367-.643l.275-.551A1.921,1.921,0,0,1,9.767,11c.092-.184.275-.367.367-.551a1.612,1.612,0,0,1,.367-.459,1.612,1.612,0,0,1,.367-.459c.092-.184.275-.275.367-.459a1.612,1.612,0,0,1,.367-.459c.092-.092.184-.275.367-.459.092-.184.275-.275.367-.367s.184-.275.367-.367l.459-.459.367-.367c.092-.092.275-.184.367-.367.092-.092.275-.184.367-.367.184-.092.275-.275.459-.367a.963.963,0,0,1,.367-.275c.092-.092.275-.184.367-.275.184-.092.275-.275.459-.367.092.092.275,0,.367-.092.184-.092.275-.184.459-.275s.275-.184.459-.275.275-.184.459-.275.275-.184.459-.275.275-.184.459-.275.275-.184.459-.184c.092-.092.275-.092.367-.184.184-.092.275-.184.459-.184.184-.092.275-.092.459-.184l.367-.184c.184-.092.275-.092.459-.184.092,0,.275-.092.367-.092a.552.552,0,0,1,.367-.092.552.552,0,0,1,.367-.092c.092,0,.275-.092.367-.092s.275-.092.367-.092c.184,0,.275-.092.367-.092s.184-.092.275-.092.275-.092.367-.092c.092-.275.275-.367.367-.367s.184-.092.275-.092.184-.092.367-.092a.552.552,0,0,0,.367-.092c.092,0,.184-.092.275-.092.184,0,.184,0,.275-.092.184,0,.184,0,.275-.092.092,0,.184-.092.275-.092s.184-.092.275-.092.092,0,.275-.092c.092,0,.092,0,.184-.092.092,0,.184-.092.275-.092A.694.694,0,0,0,27.857-.2h2.3a1.129,1.129,0,0,1,1.01.643A3.78,3.78,0,0,0,31.9.718Z" transform="translate(-0.4 0.2)"/>
    <path id="Path_469" data-name="Path 469" d="M18.182,54.1v.184c.092.275.092.275.643.643.826,0,.826,0,1.01-.275.092-.184.092-.184.184-.184v.092a.918.918,0,0,1-1.194.735,1.14,1.14,0,0,1-.735-.551v-.551c.092,0,.092,0,.092-.092ZM18,54.1c.092-.184.092-.367.184-.551a.706.706,0,0,0,.184-.275c.275-.275.275-.275,1.1-.275.551.367.551.367.643.643.092.184.092.184.092.275v5.051a.694.694,0,0,1-.092.367c0,.092-.092.184-.092.367,0,.092-.092.184-.092.275s-.092.184-.184.367c-.092.092-.092.184-.184.275l-.275.275c-.092.092-.092.184-.184.184-.092.092-.184.184-.275.184-.092.092-.184.092-.275.184a.477.477,0,0,1-.367.184c-.092.092-.184.092-.367.184-.092.092-.184.092-.367.184s-.275.092-.459.184-.184.092-.275.092-.092,0-.184.092-.092.092-.275.092c-.092,0-.092.092-.184.092s-.184.092-.367.092a.552.552,0,0,1-.367.092.321.321,0,0,0-.184.092c-.092,0-.184.092-.275.092s-.092,0-.184.092c-.092,0-.092,0-.275.092-.092,0-.184.092-.275.092s-.184.092-.367.092-.184,0-.275.092c-.092,0-.184.092-.275.092a.552.552,0,0,1-.367.092c-.184.092-.184.092-.275.092a.552.552,0,0,1-.367.092.343.343,0,0,1-.367.275c-.092,0-.275.092-.367.092a.552.552,0,0,1-.367.092c-.092,0-.275.092-.367.092s-.184.092-.275.092-.275.092-.367.092a.552.552,0,0,0-.367.092H5.418a.552.552,0,0,0-.367.092.337.337,0,0,0-.275.092c-.092,0-.184.092-.275.092s-.184.092-.275.092-.184.092-.275.092-.092.092-.184.092-.092.092-.184.092-.092.092-.184.184l-.184.184a.284.284,0,0,0-.092.184c0,.092-.092.092-.092.184a.284.284,0,0,1-.092.184c0,.092-.092.092-.092.184a.688.688,0,0,1-.092.459.284.284,0,0,1-.092.184c0,.092,0,.092-.092.275,0,.092,0,.092-.092.275,0,.092,0,.184-.092.184,0,.092-.092.184-.092.275v.184c0,.092,0,.092-.092.275v.184c0,.092,0,.092-.092.275V74.3a.965.965,0,0,1,0,1.1L2.02,75.5a1.064,1.064,0,0,1-1.928-.184A1.616,1.616,0,0,1,0,74.763V68.7a.694.694,0,0,1,.092-.367V68.06a.337.337,0,0,1,.092-.275c0-.092,0-.092.092-.275,0-.092.092-.184.092-.275s0-.184.092-.184c0-.092.092-.184.092-.275s0-.092.092-.275c0-.092,0-.092.092-.275,0-.092.092-.184.092-.367.092,0,.092,0,.092-.092s.092-.184.092-.275.092-.184.092-.275a.321.321,0,0,1,.092-.184c.092-.092.092-.184.184-.275a.717.717,0,0,1,.367-.367l.367-.367c.092-.092.275-.184.367-.275.184-.092.275-.184.459-.184.092-.092.275-.092.367-.184a3.019,3.019,0,0,1,.551-.275c.092,0,.275-.092.367-.092.184,0,.275-.092.459-.092a.552.552,0,0,0,.367-.092H9.275a.337.337,0,0,0,.275-.092.337.337,0,0,0,.275-.092c.092,0,.184-.092.367-.092a.337.337,0,0,0,.275-.092.552.552,0,0,0,.367-.092c.092,0,.275-.092.367-.092s.184-.092.367-.092c.184-.092.184-.092.275-.092A.552.552,0,0,1,12.213,62a.552.552,0,0,1,.367-.092c.092,0,.275-.092.367-.092.184-.092.184-.092.275-.092s.184-.092.275-.092a.321.321,0,0,0,.184-.092c.092-.092.092-.092.275-.092.092,0,.092,0,.275-.092.092,0,.092,0,.184-.092.092,0,.184-.092.275-.092.092-.092.092-.092.367-.092a.453.453,0,0,1,.275-.092c.092,0,.184-.092.275-.092s.092,0,.184-.092c.092,0,.184-.092.275-.092s.092,0,.275-.092c.092,0,.184-.092.367-.092.092-.092.184-.092.367-.184.092,0,.184-.092.275-.092s.092-.092.184-.092.092-.092.184-.092l.092-.092.092-.092L18,59.8a.09.09,0,0,1,.092-.092v-.092c0-.092,0-.092.092-.184V55.112A2.828,2.828,0,0,1,18,54.1ZM2.02,74.671Z" transform="translate(0 -4.148)"/>
    <path id="Path_470" data-name="Path 470" d="M54.082,76.51Zm2.112.275v.275c0,.184,0,.184-.551.643-.826.092-.826.092-1.194-.275-.184-.275-.184-.275-.184-.367,0-.184,0-.184-.092-.275v-5.51a34951.89,34951.89,0,0,0-.184-.551c0-.092-.092-.184-.092-.275,0-.184,0-.184-.092-.275,0-.092-.092-.184-.092-.275s-.092-.184-.092-.275-.092-.184-.092-.275,0-.092-.092-.275c0-.092-.092-.184-.092-.367-.092-.092-.092-.092-.092-.275-.092-.184-.092-.184-.092-.275a.552.552,0,0,1-.092-.367c-.551.092-.551.092-.643-.092,0-.092-.092-.184-.092-.275s-.092-.184-.092-.275c-.092-.184-.092-.184-.092-.275s-.092-.184-.092-.275a.7.7,0,0,0-.184-.367c0-.092-.092-.184-.092-.367,0-.092-.092-.184-.092-.275-.092-.092-.092-.184-.184-.275a.321.321,0,0,0-.092-.184c-.092-.092-.092-.184-.184-.275,0-.092-.092-.092-.092-.184s-.092-.092-.092-.184l-.092-.092-.184-.184c-.092-.092-.184-.092-.275-.184l-.367-.184a.284.284,0,0,0-.184-.092c-.092,0-.184-.092-.275-.184a.337.337,0,0,0-.275-.092c-.092,0-.184-.092-.367-.184a.337.337,0,0,0-.275-.092c-.092-.092-.092-.092-.275-.092a.337.337,0,0,0-.275-.092c-.092,0-.184-.092-.275-.092s-.184-.092-.275-.092-.092,0-.275-.092H41.042a.828.828,0,0,1-.459-.092h-.735c-.184,0-.275,0-.367-.092-.092,0-.092,0-.275-.092-.184,0-.275-.092-.459-.092-.092,0-.275-.092-.367-.092s-.184-.092-.275-.092c-.092-.918-.276-.918-.367-1.01s-.184-.092-.275-.184-.184-.092-.275-.184l-.275-.275-.275-.275c-.092-.092-.092-.184-.184-.275s-.092-.275-.184-.367c0-.092-.092-.184-.092-.367,0-.092-.092-.184-.092-.275s-.092-.184-.092-.367v-.275a.688.688,0,0,0-.092-.459V54.38a.828.828,0,0,1,.092-.459,1.089,1.089,0,0,1,1.469-.826,1.134,1.134,0,0,1,.826,1.286l-.275.551v2.938c0,.184,0,.184.092.275v.184c0,.092,0,.184.092.184,0,.092,0,.092.092.184v.092a.09.09,0,0,0,.092.092l.092.092.092.092.092.092a6251.956,6251.956,0,0,1,.184.184.321.321,0,0,1,.184.092c.092,0,.184.092.275.092s.184.092.275.092c.184,0,.184,0,.275.092h.643a.694.694,0,0,1,.367.092.552.552,0,0,1,.367.092h5.6a.337.337,0,0,1,.275.092h.275c.092,0,.184.092.367.092.092,0,.092,0,.275.092.092,0,.275.092.367.092a.694.694,0,0,0,.367.092c.092,0,.184.092.367.092.184.092.184.092.275.092s.184.092.367.184a.337.337,0,0,0,.275.092c.092,0,.184.092.367.184.092.092.184.092.275.184s.184.092.367.184a.706.706,0,0,1,.275.184c.092.092.275.184.367.275s.275.184.367.275.275.184.367.367c.092.092.184.275.275.367s.184.275.275.367.092.184.184.275.092.275.184.367.092.184.184.275.092.275.184.367.092.275.184.367.092.275.184.367a.453.453,0,0,1,.092.275c0,.092,0,.092.092.275,0,.092.092.184.092.275s.092.184.092.275a77471.248,77471.248,0,0,0,.184.735c.092.184.092.184.092.275.092.184.092.184.092.275s.092.184.092.275c.092.184.092.184.092.275s.092.092.092.184.092.184.092.275.092.184.092.275c0,.184,0,.184.092.275,0,.092.092.275.092.367s.092.275.092.367a77467.745,77467.745,0,0,1,.184.735v4.775A2.858,2.858,0,0,1,56.194,76.786Z" transform="translate(-2.934 -4.15)"/>
    <path id="Path_471" data-name="Path 471" d="M38.863,17.617Zm-.275.643c-.092.092-.092.275-.184.367-.092.184-.092.275-.184.367a1.612,1.612,0,0,1-.367.459A1.541,1.541,0,0,1,36.567,20a2.681,2.681,0,0,1-.826-.184c-.184-.092-.275-.184-.459-.275a1.268,1.268,0,0,0-.367-.275l-.275-.275c-.092-.092-.184-.275-.275-.367a1.268,1.268,0,0,1-.275-.367.706.706,0,0,1-.184-.275,2.007,2.007,0,0,1-.275-.459c-.092-.092-.092-.184-.184-.275s-.092-.184-.184-.184l-.184-.184c-.092-.092-.184-.092-.184-.184-.092-.092-.092-.092-.184-.092a.321.321,0,0,1-.184-.092c-.092,0-.092,0-.184-.092h-1.01c-.092.092-.092.092-.184.092s-.092.092-.184.092c-.092.092-.184.092-.275.184a.706.706,0,0,1-.275.184c-.092.092-.275.184-.367.275a1.533,1.533,0,0,1-1.653-.092,2.435,2.435,0,0,1-.459-.551c0-.092-.092-.184-.184-.275s-.092-.184-.184-.275-.092-.184-.184-.367l-.184-.367c-.092-.092-.092-.275-.184-.367s-.092-.275-.184-.459-.184-.275-.184-.459a.694.694,0,0,1-.092-.367c0-.092-.092-.184-.184-.367a.694.694,0,0,1-.092-.367c0-.092-.092-.092-.092-.275-.092-.092-.092-.184-.184-.275a.09.09,0,0,0-.092-.092l-.092-.092a.09.09,0,0,1-.092-.092c-.092,0-.092-.092-.184-.092h-.735a.337.337,0,0,0-.275.092.337.337,0,0,0-.275.092c-.092,0-.184.092-.367.092-.092.092-.275.092-.367.184s-.275.092-.367.184c-.184.092-.275.184-.459.184-.184.092-.275.092-.459.184s-.367.092-.551.184c-.184,0-.367.092-.551.092h-.459a.828.828,0,0,1-.459-.092c-.184,0-.275-.092-.459-.092-.092,0-.275-.092-.367-.092-.092-.092-.275-.092-.367-.184a1.268,1.268,0,0,1-.367-.275c-.092-.092-.275-.184-.367-.367a1.268,1.268,0,0,1-.275-.367c-.092-.092-.184-.275-.275-.367s-.092-.184-.184-.367c-.092-.092-.092-.275-.184-.367s-.092-.275-.184-.367a1.165,1.165,0,0,1-.092-.551V9.353a1.365,1.365,0,0,1,.092-.551,1.384,1.384,0,0,1,1.377-1.1,1.2,1.2,0,0,1,1.1,1.377V9.72c0,.092,0,.092.092.184,0,.092.092.092.092.184s.092.184.092.275.092.092.092.184a.09.09,0,0,0,.092.092l.092.092.092.092c.092,0,.092.092.184.092s.092.092.184.092h.826c.092,0,.184-.092.275-.092.092-.092.275-.092.367-.184.184-.092.275-.184.459-.184.184-.092.275-.092.459-.184s.367-.092.551-.184a1,1,0,0,1,.459-.092c.184,0,.275-.092.459-.092h1.469a1.165,1.165,0,0,1,.551.092c.184,0,.275.092.367.092.184.092.275.092.459.184a1.268,1.268,0,0,1,.367.275c.092.092.275.184.367.367.092.092.184.275.367.459.092.184.184.275.275.459s.184.275.184.459c0,.092.092.184.092.367a.694.694,0,0,1,.092.367c0,.092.092.184.092.275.092.092.092.275.184.367s.092.275.184.367.092.275.184.367a.284.284,0,0,1,.092.184l.184-.184.551-.275c.184-.092.367-.092.551-.184h1.1a1.165,1.165,0,0,1,.551.092c.184,0,.275.092.459.092.184.092.275.092.459.184.092.092.275.092.367.184s.275.184.367.275a1.268,1.268,0,0,0,.367.275c.092.092.275.184.367.367.092.092.184.275.367.367.092.184.184.275.275.459a.7.7,0,0,1,.184.367.706.706,0,0,0,.184.275.321.321,0,0,1,.092.184.321.321,0,0,1,.092-.184c.092-.092.092-.275.184-.367a1.268,1.268,0,0,1,.275-.367,1.647,1.647,0,0,1,.643-.459,1.951,1.951,0,0,1,1.653,0c.184.092.275.184.459.275.092.092.184.184.275.184.092.092.184.092.275.184l.275.275.275.275.275.275.275.275.275.275c.092.092.184.184.275.184.092.092.184.184.275.184l.275.275a.706.706,0,0,0,.275.184c.092.092.184.092.184.184l.275.275.275.275.275.275c.092.092.092.184.184.184a.321.321,0,0,1,.092.184c.092,0,.092.092.184.092.092.092.184.092.275.184a.09.09,0,0,1,.092.092,1.249,1.249,0,0,1,1.377,0,1.2,1.2,0,0,1,.367,1.653l-.092.092a1.391,1.391,0,0,1-1.01.643c-.184,0-.367.092-.551,0-.184,0-.275,0-.367-.092a1.305,1.305,0,0,1-.551-.184c-.184-.092-.275-.184-.459-.275-.092-.092-.275-.184-.367-.275l-.184-.184c-.092-.092-.275-.184-.367-.275a1.268,1.268,0,0,1-.275-.367c-.092-.092-.184-.184-.184-.275s-.092-.092-.092-.184l-.184-.184c-.092-.092-.184-.184-.275-.184-.092-.092-.184-.184-.275-.184l-.184-.184c-.092-.092-.184-.092-.275-.184l-.275-.275-.275-.275L39.69,18.9l-.275-.275-.275-.275-.184-.184c-.276.092-.276,0-.367.092Zm6.061,2.02Zm-7.714-2.663Zm-6.52-2.112Z" transform="translate(-1.397 -0.446)"/>
    <path id="Path_472" data-name="Path 472" d="M19.5,9.766Zm.092,1.1a1.082,1.082,0,0,1-1.561.275,1.634,1.634,0,0,1-.735-1.01V7.286a1.793,1.793,0,0,1,.092-.643c0-.092.092-.184.092-.367,0-.092,0-.184.092-.184,0-.092.092-.184.092-.367V5.633a1.052,1.052,0,0,1,1.469-.643,1.15,1.15,0,0,1,.643,1.469l-.092.092v.092c0,.092-.092.184-.092.275a.337.337,0,0,1-.092.275V9.306A1.4,1.4,0,0,1,19.6,10.868Z" transform="translate(-1.414 -0.215)"/>
    <path id="Path_473" data-name="Path 473" d="M6.009,22.457a1.48,1.48,0,0,1-.643-.367c-.826-.826-.184-1.745.643-2.02.092,0,.092-.092.184-.092a.706.706,0,0,1,.275-.184.706.706,0,0,1,.275-.184c.092,0,.184-.092.275-.184s.184-.092.275-.184l.184-.184c.092,0,.092-.092.184-.092-.184,0-.092-.092,0-.092l.275-.275a2.3,2.3,0,0,1,.643-.367,1.563,1.563,0,0,1,.643-.092h.551c.092,0,.092-.092.184-.092s.092-.092.184-.092l.092-.092.092-.092a.321.321,0,0,0,.092-.184c.092-.092.092-.184.184-.184l.184-.184c.092-.092.092-.184.184-.275s.092-.184.184-.275.092-.184.184-.275c0-.092.092-.184.092-.275s.092-.184.092-.275.092-.184.092-.275a.337.337,0,0,1,.092-.275v-.184a1.422,1.422,0,0,1,.918-1.1,2.022,2.022,0,0,1,.735-.092h.092l.092-.092.184-.184.184-.184c0-.092.092-.092.092-.184a.321.321,0,0,1,.092-.184c0-.092.092-.184.092-.275s.092-.184.092-.275.092-.275.092-.367.092-.275.092-.367.092-.275.092-.367a.337.337,0,0,1,.092-.275.688.688,0,0,1,.092-.459.552.552,0,0,1,.092-.367v-.275a1,1,0,0,1,.092-.459,3.977,3.977,0,0,1,.092-.459c0-.184.092-.275.092-.459a.552.552,0,0,1,.092-.367V7.765a1.165,1.165,0,0,1,.092-.551V7.122A1.277,1.277,0,0,1,16.844,6.3a1.179,1.179,0,0,1,.826,1.469V8.5a.828.828,0,0,1-.092.459c0,.184-.092.275-.092.459s-.092.367-.092.551-.092.275-.092.367v.275a.552.552,0,0,1-.092.367.688.688,0,0,1-.092.459c0,.184-.092.275-.092.367s-.092.184-.092.367-.092.367-.092.551c-.092.184-.092.275-.184.459s-.092.367-.184.459c-.092.184-.184.275-.184.459a.7.7,0,0,0-.184.367c-.092.092-.184.275-.275.367l-.275.275-.275.275-.275.275a2.007,2.007,0,0,1-.459.275,1.305,1.305,0,0,1-.551.184c0,.092-.092.184-.092.275a.7.7,0,0,1-.184.367c-.092.092-.092.275-.184.367s-.092.275-.184.367c-.092.184-.184.275-.184.367a.7.7,0,0,0-.184.367c-.092.092-.184.275-.275.367l-.275.275a1.268,1.268,0,0,0-.275.367l-.275.275a1.268,1.268,0,0,1-.367.275c-.092.092-.184.092-.275.184s-.184.092-.275.184c-.184.092-.275.092-.459.184a1.165,1.165,0,0,1-.551.092H9.5l-.184.184-.275.275c-.092.092-.275.184-.367.275a.477.477,0,0,1-.367.184q-.138.275-.275.275a.706.706,0,0,1-.275.184A.706.706,0,0,1,7.478,22,1.265,1.265,0,0,1,6.009,22.457ZM9.59,20.345Zm3.857-6.612Zm-6.52,6.52Z" transform="translate(-0.407 -0.327)"/>
    <path id="Path_474" data-name="Path 474" d="M31,34.315Zm0-.643v-.551a.337.337,0,0,0-.092-.275c0-.184,0-.184-.092-.275a.552.552,0,0,0-.092-.367c0-.184-.092-.275-.092-.459s-.092-.275-.092-.367V22.745a.552.552,0,0,0-.092-.367v-.918a1.521,1.521,0,0,1,.459-1.1,1.092,1.092,0,0,1,1.653-.184,1.25,1.25,0,0,1,.275,1.561v9a.337.337,0,0,0,.092.275c0,.184.092.275.092.459a.552.552,0,0,0,.092.367c0,.184,0,.184.092.275a.337.337,0,0,0,.092.275.552.552,0,0,0,.092.367.552.552,0,0,0,.092.367v1.1a1.481,1.481,0,0,1-.275.826,2.434,2.434,0,0,1-.459.551,1.921,1.921,0,0,1-.551.367.828.828,0,0,1-.459.092H28.424c-.184,0-.275,0-.367.092H26.679a1.287,1.287,0,0,1-1.286-1.745v-.092a1.165,1.165,0,0,1,1.469-.735c.092,0,.092.092.184.092h.367a.694.694,0,0,0,.367-.092.694.694,0,0,0,.367-.092.828.828,0,0,0,.459-.092h2.755C31,33.764,31,33.764,31,33.673Z" transform="translate(-2.069 -1.441)"/>
    <path id="Path_475" data-name="Path 475" d="M14,23.918a.918.918,0,1,1,.918.918A.868.868,0,0,1,14,23.918Zm.092,0a.826.826,0,1,0,.826-.826A.823.823,0,0,0,14.092,23.918Z" transform="translate(-1.144 -1.696)"/>
    <path id="Path_477" data-name="Path 477" d="M40.107,24.838Zm.092,0Zm-1.01,1.194a2.146,2.146,0,0,1-.643-.643c-.092-.184-.184-.275-.275-.459s-.184-.459-.275-.643a1.3,1.3,0,0,1,.092-1.01,1.848,1.848,0,0,1,.826-1.01,6.326,6.326,0,0,1,.735-.275c.184,0,.367-.092.551-.092a1.79,1.79,0,0,1,.735.092,3.722,3.722,0,0,1,.826.459,1.647,1.647,0,0,1,.459.643c.092.275.184.459.275.735a1.976,1.976,0,0,1,0,.735,1.926,1.926,0,0,1-.367,1.01l-.551.551a3.262,3.262,0,0,1-.826.367,1.757,1.757,0,0,1-1.377-.367H39.28Z" transform="translate(-3.1 -1.606)"/>
    <path id="Path_478" data-name="Path 478" d="M15.107,24.838Zm.092,0Zm-1.01,1.194a2.145,2.145,0,0,1-.643-.643c-.092-.184-.184-.275-.275-.459s-.184-.459-.275-.643a1.3,1.3,0,0,1,.092-1.01,1.848,1.848,0,0,1,.826-1.01,6.326,6.326,0,0,1,.735-.275c.184,0,.367-.092.551-.092a1.79,1.79,0,0,1,.735.092,3.722,3.722,0,0,1,.826.459,1.647,1.647,0,0,1,.459.643c.092.275.184.459.275.735a1.976,1.976,0,0,1,0,.735,1.926,1.926,0,0,1-.367,1.01l-.551.551a3.262,3.262,0,0,1-.826.367,1.757,1.757,0,0,1-1.377-.367H14.28Z" transform="translate(-1.057 -1.606)"/>
    <path id="Path_479" data-name="Path 479" d="M33.936,21.04a1.065,1.065,0,0,1-1.653-.367,1.812,1.812,0,0,1,.367-2.112A3.5,3.5,0,0,0,33.2,18.1c.092-.092.275-.092.367-.184s.275-.092.459-.184a.552.552,0,0,1,.367-.092c.092,0,.184-.092.367-.092.092,0,.184-.092.275-.092a.552.552,0,0,1,.367-.092c.092,0,.275-.092.367-.092.184,0,.275-.092.367-.092a.552.552,0,0,0,.367-.092A1,1,0,0,0,36.966,17h2.571a.552.552,0,0,1,.367.092c.184,0,.275.092.367.092a.552.552,0,0,1,.367.092c.092,0,.275.092.367.092.184,0,.184,0,.275.092.092,0,.184.092.275.092.184,0,.184,0,.275.092.184,0,.184,0,.275.092.184,0,.184,0,.275.092.092,0,.275.092.367.092.184.092.275.092.459.184.092.092.275.092.367.184a.453.453,0,0,0,.275.092c.092,0,.184.092.367.184a.321.321,0,0,1,.184.092c.092,0,.184.092.367.184l.092.092a1.543,1.543,0,0,1,.643,1.928,1.174,1.174,0,0,1-1.561.826l-.092-.092a.321.321,0,0,1-.184-.092c-.092-.092-.184-.092-.367-.184a.321.321,0,0,1-.184-.092c-.092,0-.184-.092-.275-.092s-.184-.092-.367-.092a.7.7,0,0,1-.367-.184.925.925,0,0,1-.275-.092c-.092,0-.092,0-.275-.092-.092,0-.092,0-.275-.092-.184,0-.184,0-.275-.092-.092,0-.184-.092-.275-.092-.184,0-.184,0-.275-.092a.694.694,0,0,1-.367-.092.552.552,0,0,1-.367-.092.337.337,0,0,1-.275-.092.694.694,0,0,1-.367-.092H36.966a.552.552,0,0,0-.367.092.337.337,0,0,0-.275.092.694.694,0,0,0-.367.092c-.092,0-.275.092-.367.092-.184,0-.184,0-.275.092-.092,0-.184.092-.275.092a.321.321,0,0,0-.184.092.552.552,0,0,1-.367.092.552.552,0,0,1-.367.092c-.092,0-.092.092-.184.092C34.12,20.857,34.028,20.949,33.936,21.04Z" transform="translate(-2.623 -1.206)"/>
    <path id="Path_480" data-name="Path 480" d="M22.928,44.571a1.41,1.41,0,0,1-1.745-.367.88.88,0,0,1,.459-1.377,2.918,2.918,0,0,1,.826-.275.552.552,0,0,0,.367-.092,3.977,3.977,0,0,1,.459-.092c.184,0,.275-.092.459-.092s.367-.092.551-.092.275,0,.367-.092h.275A1,1,0,0,0,25.407,42h6.244a.828.828,0,0,1,.459.092h1.653c.643.092,1.194.643,1.01,1.194a1.237,1.237,0,0,1-1.469.826H24.673a.828.828,0,0,0-.459.092c-.184,0-.275,0-.367.092a.337.337,0,0,0-.275.092.552.552,0,0,0-.367.092C23.02,44.571,23.02,44.571,22.928,44.571Z" transform="translate(-1.716 -3.249)"/>
    <path id="Path_481" data-name="Path 481" d="M23.563,44.83c.092.092.092.092.184.092s.184.092.275.092l.367.184.367.184c.092,0,.184.092.275.092s.184.092.275.092.184.092.275.092h2.479a1,1,0,0,0,.459-.092h.367a.552.552,0,0,0,.367-.092.337.337,0,0,0,.275-.092c.092,0,.184-.092.275-.092s.184-.092.275-.092.184-.092.275-.092.184-.092.275-.184.184-.092.275-.184a.706.706,0,0,0,.275-.184c.092-.092.184-.092.275-.184s.184-.092.275-.184.184-.092.275-.184.092-.092.184-.092l.092-.092.092-.092h0l.092-.092a1.143,1.143,0,0,1,1.653-.551,1.532,1.532,0,0,1,.551,1.837l-.092.092a2.007,2.007,0,0,1-.275.459c-.092.092-.184.275-.275.367l-.275.275a1.268,1.268,0,0,1-.367.275c-.092.092-.184.092-.275.184s-.184.092-.275.184-.184.092-.275.184a.706.706,0,0,0-.275.184.7.7,0,0,1-.367.184.7.7,0,0,1-.367.184.7.7,0,0,1-.459.184c-.184.092-.275.092-.459.184a.828.828,0,0,1-.459.092c-.184,0-.275.092-.459.092a.828.828,0,0,0-.459.092.828.828,0,0,0-.459.092,1,1,0,0,0-.459.092H25.767a.552.552,0,0,1-.367-.092c-.184,0-.275-.092-.459-.092s-.275-.092-.459-.092a.7.7,0,0,1-.367-.184c-.092-.092-.275-.092-.367-.184l-.367-.184a.706.706,0,0,1-.275-.184c-.092-.092-.184-.092-.367-.184-.092-.092-.092-.092-.275-.092-.092-.092-.275-.184-.367-.275a2.662,2.662,0,0,1-.826-.826l-.275-.551a2.1,2.1,0,0,1,.184-1.653,1.065,1.065,0,0,1,1.653-.367,2.035,2.035,0,0,1,.735,1.469Z" transform="translate(-1.708 -3.324)"/>
    <path id="Path_482" data-name="Path 482" d="M34.239,59.194Zm-.092.092A1.237,1.237,0,0,1,35.341,58a1.2,1.2,0,0,1,1.1,1.377v.184a1.73,1.73,0,0,1-.184.735c-.092.092-.092.184-.184.367-.092.092-.092.092-.092.184s-.092.184-.184.275-.092.275-.184.367-.092.184-.184.275-.092.184-.184.275l-.275.275-.184.184c0,.092-.092.092-.184.184l-.184.184c-.092.092-.184.092-.275.184s-.184.184-.275.184l-.275.275a1.321,1.321,0,0,1-.275.184c-.092.092-.092.092-.184.092-.092.092-.184.092-.275.184s-.184.092-.275.184a.337.337,0,0,1-.275.092c-.092,0-.184.092-.275.092-.092.092-.092.092-.275.092-.092,0-.184.092-.275.184s-.275.092-.367.184c-.092,0-.184.092-.275.092s-.275.092-.367.092-.184.092-.367.092a.552.552,0,0,0-.367.092H28.087a.828.828,0,0,1-.459-.092.552.552,0,0,1-.367-.092.694.694,0,0,1-.367-.092.337.337,0,0,1-.275-.092h-.275a.552.552,0,0,1-.367-.092c-.184,0-.184,0-.275-.092-.184,0-.184,0-.275-.092a.694.694,0,0,1-.367-.092c-.184,0-.184,0-.275-.092-.092,0-.275-.092-.367-.092s-.275-.092-.367-.092a.7.7,0,0,1-.367-.184c-.092-.092-.275-.092-.367-.184s-.275-.092-.367-.184a.477.477,0,0,0-.367-.184.706.706,0,0,0-.275-.184l-.275-.275-.275-.275-.275-.275-.275-.275c-.092-.092-.184-.184-.184-.275a1.267,1.267,0,0,1-.275-.367c-.092-.092-.092-.184-.184-.275s-.092-.184-.184-.275c-.092-.275-.184-.459-.275-.735a1.316,1.316,0,0,1,1.377-1.653,1.237,1.237,0,0,1,1.194,1.286v.184c0,.092.092.092.092.184l.184.184c0,.092.092.092.184.184l.184.184.184.184c.092.092.092.092.184.092a.706.706,0,0,0,.275.184c.092.092.184.092.184.184a9885.518,9885.518,0,0,1,.367.184.321.321,0,0,1,.184.092c.092,0,.184.092.275.092s.184,0,.184.092c.184,0,.184,0,.275.092a.337.337,0,0,1,.275.092c.184,0,.184,0,.275.092a.552.552,0,0,1,.367.092h.275a.552.552,0,0,1,.367.092c.092,0,.275.092.367.092a.337.337,0,0,1,.275.092.337.337,0,0,1,.275.092h1.745a.337.337,0,0,0,.275-.092c.092,0,.092,0,.184-.092.092,0,.184-.092.275-.092s.092-.092.184-.092.184-.092.275-.092c.092-.092.092-.092.275-.092.092-.092.184-.092.275-.184a12356.923,12356.923,0,0,0,.367-.184c.092,0,.092-.092.184-.092.092-.092.092-.092.184-.092a.321.321,0,0,1,.184-.092c.092-.092.184-.092.275-.184s.184-.092.184-.184l.184-.184.184-.184.184-.184L33.5,60.3,33.6,60.2c0-.092.092-.092.184-.184s.092-.092.092-.184l.092-.092c0-.092.092-.092.092-.184s0-.092.092-.275Z" transform="translate(-1.64 -4.556)"/>
    <path id="Path_484" data-name="Path 484" d="M12.029,78.9a1.647,1.647,0,0,1-.643.459,1.309,1.309,0,0,1-1.745-.918c0-.184-.092-.275-.092-.459v-2.2a.552.552,0,0,0-.092-.367.552.552,0,0,0-.092-.367c0-.092-.092-.275-.092-.367,0-.184,0-.184-.092-.275,0-.184,0-.184-.092-.275A.337.337,0,0,0,9,73.845v-.275a1.272,1.272,0,0,1,.918-1.377,2.282,2.282,0,0,1,.735-.092,1.793,1.793,0,0,1,.643.092c.092,0,.184.092.367.092a.552.552,0,0,0,.367.092.337.337,0,0,1,.275.092.337.337,0,0,1,.275.092.552.552,0,0,1,.367.092c.184,0,.275.092.459.092a1,1,0,0,1,.459.092c.184,0,.367.092.551.092s.275.092.459.092.275.092.459.092h1.653c.184,0,.275,0,.367-.092a.828.828,0,0,0,.459-.092h2.479a1.165,1.165,0,0,1,.551.092c.184.092.367.092.459.184a1.3,1.3,0,0,1,.735.826c0,.092.092.184.092.367,0,.092.092.184.092.275s.092.184.092.275,0,.092.092.184c0,.092.092.184.092.275s0,.092.092.275a.552.552,0,0,0,.092.367v1.469a.337.337,0,0,0,.092.275v.092a1.152,1.152,0,0,1-1.1,1.286,1.289,1.289,0,0,1-1.469-.918v-.275a.337.337,0,0,0-.092-.275V76.14c0-.184,0-.184-.092-.275,0-.092,0-.092-.092-.184,0-.092,0-.092-.092-.275,0-.092,0-.092-.092-.184V75.13H18.182a.552.552,0,0,0-.367.092.828.828,0,0,0-.459.092H15.61a1.793,1.793,0,0,1-.643-.092c-.184,0-.367-.092-.551-.092s-.367-.092-.551-.092-.275-.092-.459-.092a1,1,0,0,1-.459-.092.552.552,0,0,1-.367-.092c-.184,0-.275-.092-.459-.092h-.184c0,.092.092.275.092.367a.552.552,0,0,0,.092.367.828.828,0,0,0,.092.459v1.653A1.031,1.031,0,0,1,12.029,78.9ZM10.56,74.3Zm-.459,3.03Z" transform="translate(-0.734 -5.708)"/>
    <path id="Path_485" data-name="Path 485" d="M2.847,29.724Zm.367-.551H3.4a1.429,1.429,0,0,1,1.561,1.01,1.254,1.254,0,0,1-1.1,1.469H3.673c-.092,0-.184.092-.275.092a1.221,1.221,0,0,1-.735.275H2.02a3.262,3.262,0,0,1-.826-.367L.643,31.1.367,30.55c-.092-.184-.092-.367-.184-.459,0-.092-.092-.275-.092-.367A1,1,0,0,0,0,29.265v-4.5c0-.184.092-.367.092-.551s.092-.367.092-.551.092-.275.184-.459c.092-.092.092-.275.184-.367s.092-.275.184-.367A1.268,1.268,0,0,1,1.01,22.1c.092-.184.275-.275.367-.459a1.612,1.612,0,0,1,.459-.367A6.327,6.327,0,0,1,2.571,21h1.1a.688.688,0,0,1,.459.092c.184,0,.275.092.459.184.092.092.275.092.367.184.184.092.275.184.459.275s.275.275.367.367a1.921,1.921,0,0,1,.367.551A1.312,1.312,0,0,1,5.693,24.4a1.287,1.287,0,0,1-1.745-.459c0-.184-.092-.184-.092-.184a.09.09,0,0,1-.092-.092.09.09,0,0,1-.092-.092H3.214l-.092.092a.321.321,0,0,1-.092.184.321.321,0,0,1-.092.184c0,.092-.092.184-.092.275a.694.694,0,0,0-.092.367.552.552,0,0,1-.092.367v4.316A3.828,3.828,0,0,0,3.214,29.173Zm0-5.6Z" transform="translate(0 -1.533)"/>
    <path id="Path_486" data-name="Path 486" d="M51.479,24.967c-.184.735-.735,1.194-1.377,1.01A1.5,1.5,0,0,1,49,24.6a2.542,2.542,0,0,1,.092-.826.7.7,0,0,1,.184-.459c.092-.092.092-.184.184-.367.092-.092.092-.184.184-.275s.092-.184.184-.367c.092-.092.092-.184.184-.275s.092-.184.184-.275.092-.184.184-.275l.275-.275.275-.275.275-.275c.092-.092.275-.184.367-.275s.275-.092.459-.184a1.165,1.165,0,0,1,.551-.092h.459c.184,0,.459,0,.551.092.184.092.275.092.459.184a1.268,1.268,0,0,1,.367.275c.092.092.275.184.367.367.092.092.184.275.367.367a1.268,1.268,0,0,0,.275.367,2.007,2.007,0,0,1,.275.459,4.477,4.477,0,0,1,.275.643,1.305,1.305,0,0,1,.184.551c0,.092.092.184.092.275s.092.275.092.367a.552.552,0,0,0,.092.367v2.938a.688.688,0,0,1-.092.459c0,.184-.092.275-.092.459s-.092.275-.092.459a.477.477,0,0,1-.184.367c-.092.184-.092.275-.184.459s-.184.275-.275.459c-.092.092-.184.275-.275.367-.092.184-.275.275-.367.459-.184.092-.275.275-.459.367s-.275.184-.459.275-.275.092-.459.184a.828.828,0,0,1-.459.092c-.092,0-.275.092-.367.092s-.275.092-.367.092h-.918a1.73,1.73,0,0,1-.735-.184,1.619,1.619,0,0,1-.735-1.377V30.2a1.255,1.255,0,0,1,1.1-1.377,1.164,1.164,0,0,1,.826.367h.184a46600.923,46600.923,0,0,1,.551-.184.337.337,0,0,0,.275-.092c.092,0,.184-.092.275-.092a.321.321,0,0,0,.184-.092c.092,0,.092-.092.184-.092a.09.09,0,0,0,.092-.092l.184-.184c0-.092.092-.092.092-.184s.092-.092.092-.184a.321.321,0,0,1,.092-.184c0-.092,0-.092.092-.184a.337.337,0,0,1,.092-.275V24.416a.337.337,0,0,0-.092-.275.711.711,0,0,0-.092-.275c-.092-.092-.092-.275-.184-.367a.337.337,0,0,1-.092-.275.321.321,0,0,1-.092-.184c-.092-.092-.092-.184-.184-.184l-.184-.184-.092-.092h-.367l-.092.092a.09.09,0,0,0-.092.092.321.321,0,0,0-.092.184l-.184.184c-.092.092-.092.184-.184.184,0,.092-.092.092-.092.184a.321.321,0,0,1-.092.184c0,.092-.092.092-.092.184a.09.09,0,0,1-.092.092A3.433,3.433,0,0,0,51.479,24.967Zm.551,5.326Z" transform="translate(-4.004 -1.459)"/>
  </g>
</svg>
