<svg id="Group_1264" data-name="Group 1264" xmlns="http://www.w3.org/2000/svg" width="89.769" height="58.973" viewBox="0 0 89.769 58.973">
  <path id="Path_426" data-name="Path 426" d="M87.432,31.858a2.216,2.216,0,0,0,.712-.916,2.349,2.349,0,0,0-1.12-3.155c1.527-1.934,3.461-4.886,2.443-7.023A3.225,3.225,0,0,0,85.7,19.135a10.443,10.443,0,0,0-.509-6.107,2.357,2.357,0,0,0-.2-1.629c-.916-1.73-3.97-2.036-5.6-2.443-6.819-1.934-13.639-3.766-20.458-5.7C52.52,1.526,45.9-.407,39.187.1,33.792.509,28.6,2.646,23.919,5.394A73.55,73.55,0,0,0,9.975,15.878h0C8.041,17.71,7.023,23.817,7.227,26.463c-.1,0-.1.1-.2.1C4.886,28.194.407,27.685,0,31.349c-.1,1.323.2,3.97,1.425,4.886a4.31,4.31,0,0,0,2.545.2c1.018-.1,1.323-.407,2.137.407.611.611.305.814.611,1.323a3.171,3.171,0,0,0,2.036,1.425v.1c.2,4.071.407,11.094,4.987,12.825,3.461,1.323,7.736,1.018,11.4,1.425,4.784.611,9.568,1.425,14.25,2.443,3.97.916,7.837,2.239,11.909,2.545A29.653,29.653,0,0,0,62.8,57.1c6.921-2.137,11.6-7.634,17.71-11.2C83.768,44.072,92.521,35.827,87.432,31.858ZM10.891,17l.305-.305c.814-.712,1.73-1.425,2.646-2.137,2.036-1.73,4.173-3.359,6.311-4.987C29.009,3.155,38.373.1,49.263,2.239c5.9,1.221,11.705,3.053,17.4,4.58,3.053.814,6.107,1.73,9.16,2.545,1.323.407,2.748.712,4.071,1.12,2.036.509,5.089,1.323,2.748,4.071A137.512,137.512,0,0,1,71.554,25.242C67.686,28.5,63.309,32.469,58.22,33.69c-5.191,1.221-11.4-1.323-16.387-2.545-5.293-1.323-10.687-2.646-15.98-4.071L18.22,24.937c-2.545-.712-5.8-1.425-7.532-3.664C9.364,19.44,9.772,18.117,10.891,17Zm-1.73,4.377a8.6,8.6,0,0,0,3.155,2.85,41.027,41.027,0,0,0,7.532,2.545c3.562,1.018,7.125,2.036,10.789,2.952,6.819,1.73,13.639,3.461,20.458,5.089,6.412,1.425,11.2-.509,16.285-4.377A123.18,123.18,0,0,0,83.564,15.674l.1-.1c.2-.2.407-.509.611-.712,1.018,4.173-1.425,7.634-4.58,10.382-2.952,2.545-5.8,4.987-8.753,7.532-2.85,2.443-5.8,4.987-9.262,6.514-4.173,1.934-8.753,1.832-13.232,1.018a228.373,228.373,0,0,1-23.308-5.6c-3.868-1.12-7.736-2.239-11.6-3.562-2.748-.916-4.58-1.934-4.682-5.191A13.927,13.927,0,0,1,9.161,21.374Zm.407,17a2.57,2.57,0,0,1-1.629-1.425c-.509-1.018-.305-1.73-1.73-2.036-2.341-.509-3.461,1.323-4.58-1.73-1.425-4.173,3.257-3.766,5.7-5.293a7.347,7.347,0,0,0,.916,2.036,7.5,7.5,0,0,0,3.766,2.239c2.341.814,4.682,1.527,7.023,2.239,9.873,2.952,20.153,6.209,30.433,7.532a24.182,24.182,0,0,0,12.316-1.221c3.868-1.73,7.125-4.478,10.382-7.227,3.664-3.155,8.143-6.107,11.3-9.771a9.878,9.878,0,0,0,1.629-2.85c1.527-.916,2.545-.305,3.054,2.036a15.66,15.66,0,0,1-.814,1.934,22.423,22.423,0,0,1-2.137,3.257.691.691,0,0,0,.712,1.12c.407,1.629,0,2.545-1.221,2.646-.509.1-1.018.1-1.425.2a6.655,6.655,0,0,0-2.341.611,4.794,4.794,0,0,0-2.137,2.341c-.814,1.73-.916,3.359-2.85,4.173-1.425.611-2.952.407-4.377.611-2.239.305-3.155.916-4.071,2.952-1.832,3.766-4.071,1.934-6.819,1.12a12.573,12.573,0,0,0-4.377-.407A15.062,15.062,0,0,0,51.6,45.09a6.347,6.347,0,0,1-3.359.305c-.305,0-.611-.1-1.018-.1-1.934.1-2.85,2.137-4.886.407-1.018-.814-1.527-2.036-2.646-2.748-2.239-1.425-4.478-.1-5.9,1.832-.407.509-.712,1.221-1.12,1.832h0a.772.772,0,0,0-.2.407,4.694,4.694,0,0,1-1.73,1.73c-3.766,1.73-2.952-1.832-2.85-2.952.1-1.323.305-2.646.407-3.97.1-.509-.611-.814-1.018-.611-1.221.814-3.155-.305-3.97-1.12-.407-.305-.712-.712-1.12-1.018a11.007,11.007,0,0,0-1.832-1.12,10.952,10.952,0,0,0-4.071,0c-1.527.1-3.053.305-4.58.407-.509,0-1.221.2-1.73.2C9.873,38.372,9.772,38.474,9.568,38.372Zm72.571.2c-1.323,1.221-2.646,2.545-3.97,3.766-2.646,2.341-6.514,4.377-9.873,2.137.509-1.12.509-2.443,1.629-3.053,1.323-.814,3.257-.509,4.682-.712a5.288,5.288,0,0,0,4.784-3.461c.712-1.629.916-2.952,2.646-3.868a14.721,14.721,0,0,1,3.053-.509,5.738,5.738,0,0,0,1.221-.407v.2C86.618,35.217,83.768,37.049,82.139,38.576Zm-18.728,7.43a28.965,28.965,0,0,1-10.585,2.646,49.916,49.916,0,0,1-9.568-.814v-.2a2.818,2.818,0,0,0,1.323.1c.509-.1.916-.407,1.425-.509a3.725,3.725,0,0,1,2.341-.407c.305.1.509.407.814.509,1.629.2,1.934-.2,3.257-1.018a9.774,9.774,0,0,1,7.125-1.323A31.2,31.2,0,0,1,63.411,46.006ZM42.342,47.227c-2.545.814-5.7.2-8.244-.712,1.221-1.934,2.646-4.173,5.293-2.443,1.018.712,1.629,2.036,2.545,2.85A1.405,1.405,0,0,1,42.342,47.227ZM10.077,39.8h0a30.393,30.393,0,0,0,5.6-.611c.611-.1,1.221-.1,1.832-.2,2.443-.1,3.359.611,5.089,2.036,1.221,1.018,2.646,1.934,4.173,1.527A31.164,31.164,0,0,0,26.26,45.8h-.1c-3.257-.407-6.819-.305-9.975-1.221-1.73-.509-4.987-2.646-5.7-4.377,0-.2-.2-.305-.407-.407Zm15.776,7.43a.763.763,0,0,0,.509-.1,3.23,3.23,0,0,0,1.323,2.646c1.934,1.425,4.173,0,5.5-1.629.1-.1.2-.2.2-.305a19.057,19.057,0,0,0,7.939,1.12h.1c4.071.611,8.041,1.323,12.112,1.018a32.876,32.876,0,0,0,12.723-3.766h.1a5.455,5.455,0,0,0,1.12-.509h0c3.257,2.239,7.532,1.12,10.382-1.12,2.443-1.934,4.58-4.173,6.819-6.311,1.221-1.221,2.545-2.341,2.952-3.868.814,3.257-5.5,9.059-7.328,10.178a84.771,84.771,0,0,0-7.939,5.5C65.854,55.472,57.3,58.932,48.653,57.3c-8.244-1.527-16.082-3.868-24.428-4.784-3.562-.407-10.077.407-12.112-3.155a17.8,17.8,0,0,1-1.73-6.921A15.309,15.309,0,0,0,14.759,45.6" transform="translate(0.018 -0.019)"/>
</svg>
