<svg id="Group_1297" data-name="Group 1297" xmlns="http://www.w3.org/2000/svg" width="67.729" height="69.676" viewBox="0 0 67.729 69.676">
  <path id="Path_444" data-name="Path 444" d="M57.132,1.588a1.076,1.076,0,0,0-.857,1.237c.1.286.19.571.476.666,3.332,2.094,6.378,2.189,7.52,6.568.952,3.712.666,8.282.476,12.089-.19,4.855-.762,9.709-1.428,14.564a35.2,35.2,0,0,1-.666,5.426c-1.047,4.284-2.761,5.807-6.663,6.854a1.034,1.034,0,0,0-1.142.666,27.975,27.975,0,0,0-1.523,10.471,34.38,34.38,0,0,0-2.094-4.188C49.041,52.8,45.9,48.8,42.282,47.185s-9.138-.476-13.041-.286c-4.855.19-10.185,0-14.85,1.523-.286.1-.19.476.1.571,4.664,1.237,9.9.857,14.755.857,3.9,0,9.329-1.142,12.66,1.142,2.761,1.809,5.236,5.14,6.949,7.9C51.04,62.32,51.8,67.175,55.514,69.46c1.237.762,3.427-.1,2.951-1.809-1.428-5.711-1.428-11.328-1.333-17.134,3.427-.19,6.283-1.428,7.806-4.95C67.413,39.474,67.7,31.574,68.079,25.1,68.65,17.39,69.983-.887,57.132,1.588Z" transform="translate(-0.688 -0.063)"/>
  <path id="Path_445" data-name="Path 445" d="M10.947,29.985C8.567,32.27,6,34.554,3.808,37.029V31.794a126.3,126.3,0,0,1,10.376-9.8c.476-.381,0-1.333-.571-.857a84.015,84.015,0,0,0-9.8,8.662v-6a45.452,45.452,0,0,1,7.044-7.139c.476-.381-.1-1.142-.571-.762A53.25,53.25,0,0,0,3.808,21.7V17.42c1.523-1.523,3.141-3.046,4.855-4.474.381-.286-.1-.857-.476-.666A51.877,51.877,0,0,0,3.713,15.8V14.183a15.452,15.452,0,0,0-.1-2A1.671,1.671,0,0,1,4,11.708c.762-.762,1.523-1.428,2.285-2.189a.425.425,0,0,0,0-.476.29.29,0,0,0-.381,0,8.453,8.453,0,0,0-2.094,1.523,16.851,16.851,0,0,1,.1-2.189c.476-3.712,2.951-3.712,6-4.284,13.232-2.57,27.034,3.141,39.98-.476,1.428-.381.762-2.285-.476-2.285C39.124,1.237,28.938,0,18.658,0,13.8,0,2-.286.571,5.711c-1.142,4.664-.19,10.947-.286,15.8C.191,26.749.1,31.984.1,37.22c0,6.473,1.618,11.994,9.043,11.518.857-.1.857-1.142.19-1.523a9.269,9.269,0,0,1-2.285-1.428,5.5,5.5,0,0,1,1.9-1.713c.476-.286,0-1.047-.381-.762a7.245,7.245,0,0,0-2.475,1.713,5.231,5.231,0,0,0-.666-.857A38.676,38.676,0,0,0,9.8,38.933a.515.515,0,1,0-.857-.571c-1.333,1.523-2.761,3.046-4.284,4.474a13.014,13.014,0,0,1-.857-3.808c2.665-2.665,5.14-5.616,7.806-8.377C12.185,30.271,11.423,29.509,10.947,29.985Z" transform="translate(-0.004 0.002)"/>
</svg>
