<svg id="Group_1298" data-name="Group 1298" xmlns="http://www.w3.org/2000/svg" width="66.676" height="61.581" viewBox="0 0 66.676 61.581">
  <path id="Path_446" data-name="Path 446" d="M34.893,23.416A32.14,32.14,0,0,1,3.12,1.01C2.478-1.011-.645.275.09,2.3,5.049,17.63,19.282,27.272,35.352,26.721,37.464,26.629,37,23.416,34.893,23.416Z" transform="translate(0.021 0.007)"/>
  <path id="Path_447" data-name="Path 447" d="M36.356,43.655A25.079,25.079,0,0,0,6.7,63.306c-.459,2.112,2.847,2.479,3.306.459a21.7,21.7,0,0,1,25.9-16.8C38.009,47.42,38.469,44.114,36.356,43.655Z" transform="translate(-0.524 -3.519)"/>
  <path id="Path_448" data-name="Path 448" d="M39.787,24.555C38.5,19.872,37.216,15.188,36.022,10.6c-.643-2.3-3.673-.826-3.03,1.377,1.286,4.683,2.479,9.366,3.765,14.05C37.308,28.32,40.338,26.851,39.787,24.555Z" transform="translate(-2.67 -0.765)"/>
  <path id="Path_449" data-name="Path 449" d="M42.823,58.6c-.643-4.04-1.377-8.081-2.02-12.121-.367-2.112-3.673-1.653-3.306.459.643,4.04,1.377,8.081,2.02,12.121C39.885,61.078,43.191,60.711,42.823,58.6Z" transform="translate(-3.043 -3.679)"/>
  <path id="Path_450" data-name="Path 450" d="M68.623,30.892A256.788,256.788,0,0,1,35.565,8.67c-1.653-1.286-3.673,1.377-2.02,2.663A266.609,266.609,0,0,0,66.6,33.555C68.44,34.565,70.46,31.994,68.623,30.892Z" transform="translate(-2.672 -0.674)"/>
  <path id="Path_451" data-name="Path 451" d="M66.613,32.862C57.889,40.667,49.074,48.381,40.35,56.186c-1.561,1.377.459,4.04,2.02,2.663,8.724-7.805,17.447-15.611,26.263-23.416C70.194,34.056,68.174,31.393,66.613,32.862Z" transform="translate(-3.232 -2.644)"/>
</svg>
