<svg id="Group_1309" data-name="Group 1309" xmlns="http://www.w3.org/2000/svg" width="60.145" height="82.394" viewBox="0 0 60.145 82.394">
  <g id="Group_1299" data-name="Group 1299" transform="translate(13.839 5.259)">
    <path id="Path_454" data-name="Path 454" d="M32.269,18.472A7.422,7.422,0,0,1,30.8,18.38c-1.561-.092-3.214-.092-4.959-.092a39.446,39.446,0,0,1-8.173-.551l-2.02-.459a.828.828,0,0,1-.551-.551.714.714,0,0,1,.184-.735,15.978,15.978,0,0,0,2.2-4.132,18.438,18.438,0,0,1,3.122-5.326.794.794,0,0,1,.551-.275c.184,0,14.325-.459,20.018-.459a.936.936,0,0,1,.735.459l.735,1.377v.092a29.2,29.2,0,0,1,.918,3.03,19.9,19.9,0,0,0,2.2,5.785.719.719,0,0,1,.092.735.691.691,0,0,1-.643.459l-2.755.459h-.275a25.626,25.626,0,0,0-5.234.092C35.3,18.38,33.646,18.472,32.269,18.472Zm-15.06-2.479.918.184a35.957,35.957,0,0,0,7.805.551,46.423,46.423,0,0,1,5.051.184,43.128,43.128,0,0,0,5.785-.184,28.43,28.43,0,0,1,5.51-.092l1.469-.275a23.5,23.5,0,0,1-1.837-5.234c-.275-1.01-.551-1.928-.826-2.847l-.459-.918c-5.51.092-16.988.459-19.192.459a20.367,20.367,0,0,0-2.571,4.591A21.318,21.318,0,0,1,17.209,15.993Z" transform="translate(-15.061 -5.8)"/>
  </g>
  <g id="Group_1300" data-name="Group 1300" transform="translate(24.062 0)">
    <path id="Path_455" data-name="Path 455" d="M36.76,6.709h-.184a.792.792,0,0,1-.551-1.01,2.77,2.77,0,0,0-.918-3.03,5.591,5.591,0,0,0-5.51-.551,3.225,3.225,0,0,0-1.837,3.306.782.782,0,1,1-1.561.092A4.812,4.812,0,0,1,28.954.741a6.935,6.935,0,0,1,7.163.735,4.185,4.185,0,0,1,1.469,4.683A1.055,1.055,0,0,1,36.76,6.709Z" transform="translate(-26.194 -0.073)"/>
  </g>
  <g id="Group_1301" data-name="Group 1301" transform="translate(0 7.23)">
    <path id="Path_456" data-name="Path 456" d="M7.07,83.111c-2.663,0-4.775-.643-5.877-1.837a3.459,3.459,0,0,1-1.01-2.755c0-.275.367-35.078.459-51.424,0-1.928-.092-3.949-.275-5.785C.275,19.75.183,18.189.183,16.627L0,13.964A5.057,5.057,0,0,1,1.744,9.832,8.983,8.983,0,0,1,8.447,8H18.457a.826.826,0,0,1,0,1.653H8.264a6.893,6.893,0,0,0-5.51,1.469A3.554,3.554,0,0,0,1.56,13.964l.184,2.755c0,1.561.092,3.122.184,4.683.092,1.928.275,3.949.275,5.877,0,16.162-.367,51.056-.367,51.332a1.608,1.608,0,0,0,.551,1.561c.918,1.01,3.122,1.469,5.693,1.286h5.6c7.989,0,22.59,0,29.936-.275,2.388-.092,10.468-.643,10.56-.643h.092c2.112.184,3.214-1.928,3.489-2.571.092-1.653.551-16.345.367-22.681-.092-3.306.092-6.612.184-9.826a93.329,93.329,0,0,0-.092-14.325c-.367-3.214-.184-13.407-.184-13.866.092-2.847-.367-4.775-1.469-5.877a4.949,4.949,0,0,0-3.673-1.286l-2.02.184a41.71,41.71,0,0,1-10.1-.275.793.793,0,1,1,.275-1.561,42.442,42.442,0,0,0,9.642.184l2.02-.184H52.8a6.506,6.506,0,0,1,4.867,1.837c1.377,1.469,2.02,3.673,1.928,7.071,0,.092-.184,10.56.184,13.682a85.175,85.175,0,0,1,.092,14.509c-.184,3.214-.275,6.428-.184,9.734.184,6.7-.367,22.773-.367,22.865a.337.337,0,0,1-.092.275c-.735,1.928-2.479,3.949-5.142,3.765-.826.092-8.265.643-10.56.643-10.56.275-35.354.275-35.537.275Z" transform="translate(0.009 -7.947)"/>
  </g>
  <g id="Group_1302" data-name="Group 1302" transform="translate(7.111 11.411)">
    <path id="Path_457" data-name="Path 457" d="M28.64,73.749c-9.826,0-19.927-.184-20.11-.184a.828.828,0,0,1-.735-1.1,16.045,16.045,0,0,0,.092-5.234,26.391,26.391,0,0,1-.092-3.765l.275-4.683c.184-2.571.367-5.234.367-7.805.092-4.224-.092-8.54-.275-12.672-.184-4.224-.367-8.632-.184-13.04a49.782,49.782,0,0,0-.092-5.234c-.092-2.02-.184-4.04-.092-6.061a.8.8,0,0,1,.551-.735l1.377-.459h.184c1.469-.092,4.316-.275,7.346-.275a.906.906,0,0,1,.918.826.823.823,0,0,1-.826.826h-.092c-2.847,0-5.6.092-7.071.184l-.735.275a51.98,51.98,0,0,0,.092,5.326,52.877,52.877,0,0,1,.092,5.418c-.092,4.316.092,8.632.275,12.948.184,4.224.367,8.54.275,12.764-.092,2.663-.275,5.326-.367,7.9l-.275,4.683a24.183,24.183,0,0,0,.092,3.581A29.37,29.37,0,0,1,9.723,72.1c4.408.092,22.773.275,32.14,0a24.258,24.258,0,0,0,2.663-.184,28.107,28.107,0,0,1,6.8.092h.826c.918-8.54.551-17.447.092-26.079-.184-5.051-.459-10.285-.459-15.335,0-1.469.092-2.938.092-4.316a57.7,57.7,0,0,0-.092-8.907L51.6,14.7a20.036,20.036,0,0,0-3.581-.184,19.059,19.059,0,0,1-4.867-.367.785.785,0,1,1,.551-1.469,12.629,12.629,0,0,0,4.316.275c2.571,0,4.224,0,4.959.826a.7.7,0,0,1,.184.459l.184,2.938a50.192,50.192,0,0,1,.092,9.091c-.092,1.377-.092,2.847-.092,4.316,0,5.051.184,10.285.459,15.243.367,8.907.826,18.182-.184,27.089a.883.883,0,0,1-.826.735H50.954a21.4,21.4,0,0,0-6.428-.092c-.918.092-1.837.092-2.755.184Z" transform="translate(-7.734 -12.5)"/>
  </g>
  <g id="Group_1303" data-name="Group 1303" transform="translate(21.56 22.247)">
    <path id="Path_458" data-name="Path 458" d="M39.476,42.39h0l-14.968-.459a.834.834,0,0,1-.643-.275.874.874,0,0,1-.184-.643c.459-2.02.184-5.234,0-8.356a34,34,0,0,1,0-7.53.779.779,0,0,1,.735-.643s3.489-.184,6.979-.184c6.336,0,7.53.551,7.9.735a.691.691,0,0,1,.459.643c.092.459,1.377,11.662.459,16.07A.651.651,0,0,1,39.476,42.39Zm-14.05-2.02,13.315.367c.551-4.04-.275-12.3-.551-14.417a31.662,31.662,0,0,0-6.8-.459c-2.571,0-5.051.092-6.244.092a53.279,53.279,0,0,0,.092,6.52A38.875,38.875,0,0,1,25.426,40.37Z" transform="translate(-23.469 -24.3)"/>
  </g>
  <g id="Group_1304" data-name="Group 1304" transform="translate(28.843 27.297)">
    <path id="Path_459" data-name="Path 459" d="M32.5,38.983h-.184a.8.8,0,0,1-.643-.918,14.408,14.408,0,0,0-.092-4.408c-.092-1.01-.184-2.02-.184-3.03a.826.826,0,1,1,1.653,0c0,.918.092,1.928.184,2.847a14.388,14.388,0,0,1,0,4.867A.71.71,0,0,1,32.5,38.983Z" transform="translate(-31.4 -29.8)"/>
  </g>
  <g id="Group_1305" data-name="Group 1305" transform="translate(25.466 30.716)">
    <path id="Path_460" data-name="Path 460" d="M30.916,35.522a6.517,6.517,0,0,1-2.663-.459.785.785,0,1,1,.551-1.469,10.519,10.519,0,0,0,4.5.184,17.3,17.3,0,0,1,3.122-.184.7.7,0,0,1,.735.826.75.75,0,0,1-.826.735h0c-1.01,0-2.02.092-2.938.184A22.517,22.517,0,0,1,30.916,35.522Z" transform="translate(-27.723 -33.523)"/>
  </g>
  <g id="Group_1306" data-name="Group 1306" transform="translate(15.785 47.91)">
    <path id="Path_461" data-name="Path 461" d="M23.994,54.316a35.9,35.9,0,0,1-6.152-.367.8.8,0,0,1-.643-.918.884.884,0,0,1,.918-.643c2.755.643,10.1.275,15.886.092,4.775-.184,8.448-.367,9.826-.092a.793.793,0,1,1-.275,1.561,83.03,83.03,0,0,0-9.458.092C30.789,54.132,27.116,54.316,23.994,54.316Z" transform="translate(-17.181 -52.247)"/>
  </g>
  <g id="Group_1307" data-name="Group 1307" transform="translate(16.336 54.828)">
    <path id="Path_462" data-name="Path 462" d="M28.175,62.186a47.465,47.465,0,0,1-9.734-.826.793.793,0,0,1,.275-1.561c4.959,1.01,10.744.826,16.254.643,2.938-.092,5.693-.184,8.356-.184a.826.826,0,1,1,0,1.653c-2.663-.092-5.418,0-8.265.184C32.766,62.094,30.471,62.186,28.175,62.186Z" transform="translate(-17.781 -59.781)"/>
  </g>
  <g id="Group_1308" data-name="Group 1308" transform="translate(15.803 61.546)">
    <path id="Path_463" data-name="Path 463" d="M43.738,69.3h-.092c-4.959-.826-11.387-.643-17.631-.367-2.847.092-5.51.184-7.989.184a.826.826,0,0,1,0-1.653h.184c2.388,0,4.959-.092,7.714-.184,6.244-.184,12.764-.459,17.906.459a.757.757,0,0,1,.643.918A.71.71,0,0,1,43.738,69.3Z" transform="translate(-17.2 -67.097)"/>
  </g>
</svg>
