<svg xmlns="http://www.w3.org/2000/svg" width="72.235" height="72.17" viewBox="0 0 72.235 72.17">
  <path id="Path_453" data-name="Path 453" d="M0,56.461V55.318c.076-1.524.076-3.048.3-4.572.838-4.953.457-9.982.3-15.011-.076-2.362,0-4.724,0-7.01,0-2.972.152-5.943.076-8.915a22.88,22.88,0,0,0-.61-3.886V13.1a9.782,9.782,0,0,1,1.981-1.3c5.105-1.829,10.21-3.657,15.392-5.258,7.01-2.134,14.1-3.886,21.183-5.867C40.308.228,42.061-.382,43.813.3c3.886,1.524,7.7,3.124,11.506,4.877,4.953,2.286,9.829,4.648,14.782,7.01a3.029,3.029,0,0,1,1.829,2.9c0,1.829,0,3.734.076,5.562.076,1.448.152,2.819.229,4.267v8.915a11.56,11.56,0,0,0-.229,1.6c-.3,4.877-.61,9.829-.838,14.706a11.634,11.634,0,0,0,0,2.819c.381,2.21.076,3.048-2.057,3.886-3.962,1.6-7.925,3.124-11.887,4.648-3.2,1.3-6.4,2.515-9.6,3.81S41.3,67.967,38.1,69.262c-1.9.762-3.81,1.524-5.791,2.134a12.169,12.169,0,0,1-3.962.762,10.083,10.083,0,0,1-2.972-1.3c-1.981-.991-3.962-1.981-5.867-2.972-1.372-.686-2.743-1.448-4.115-2.21-3.124-1.753-6.1-3.734-9.3-5.258A28.842,28.842,0,0,1,0,56.461ZM31.7,69.034c2.438-.838,4.953-1.6,7.391-2.515,4.648-1.753,9.3-3.657,13.944-5.41a20.226,20.226,0,0,0,2.286-.838C59.51,58.138,63.777,56,67.892,53.718a3.619,3.619,0,0,0,1.524-2.134c.3-2.286.3-4.572.457-7.086-1.6.533-2.819.838-3.962,1.3-2.438.991-4.8,2.057-7.239,3.048-.838.381-1.448.3-1.676-.686L54.938,41.3c-.229-.762-.457-1.524-.61-2.286a3.1,3.1,0,0,1,2.21-3.505c2.362-.762,4.724-1.448,7.01-2.362A59.687,59.687,0,0,0,69.492,30.4a1.658,1.658,0,0,0,.533-1.219c.152-2.438.152-4.877.229-7.391a18.508,18.508,0,0,0-.3-2.286c-2.515.914-4.877,1.829-7.239,2.667-6.02,2.134-11.963,4.343-17.983,6.4-3.505,1.219-7.086,2.134-10.668,3.276a1.953,1.953,0,0,0-1.6,2.134c-.076,3.734-.229,7.391-.381,11.125a15.889,15.889,0,0,1,0,1.9c-.229,1.9-.457,3.734-.686,5.639a18.538,18.538,0,0,0-.229,2.9c-.076,2.286.076,4.572-.152,6.782C30.708,64.462,30.4,66.6,31.7,69.034ZM2.591,55.242c2.438,1.3,4.953,2.515,7.391,3.886,2.515,1.448,4.953,3.2,7.544,4.648,2.9,1.6,5.943,3.048,8.915,4.572.762.381,1.448.762,2.438,1.219.229-1.676.457-3.2.533-4.724.076-2.591,0-5.181.076-7.772.152-2.972.533-6.02.686-8.991.229-4.572.381-9.22.457-13.792a2.153,2.153,0,0,0-.991-1.372c-2.21-1.372-4.419-2.667-6.705-3.962-2.21-1.3-4.5-2.515-6.705-3.734-1.829-.991-3.657-1.9-5.486-2.972-2.21-1.3-4.343-2.743-6.553-4.115a2.9,2.9,0,0,0-.762-.229C3.657,30.326,3.581,42.822,2.591,55.242Zm14.173-33.6a13.321,13.321,0,0,0,1.372.838c3.505,2.057,7.086,4.038,10.591,6.1,1.3.762,2.286,1.6,4.191.838,4.648-1.829,9.525-3.048,14.173-4.724,7.163-2.515,14.249-5.258,21.411-7.925a1.669,1.669,0,0,0,.914-.991,1.231,1.231,0,0,0-.686-1.067c-1.143-.61-2.286-1.143-3.429-1.676-3.124-1.448-6.248-2.9-9.3-4.343a1.752,1.752,0,0,0-1.067-.152,42.784,42.784,0,0,0-4.5.991c-3.353,1.143-6.629,2.362-9.906,3.581-4.115,1.6-8.229,3.276-12.42,4.8-1.6.61-3.2,1.067-4.724,1.6C21.259,20.268,19.278,20.877,16.763,21.639Zm36.5-14.02A17.622,17.622,0,0,0,50.9,6.4c-1.753-.838-3.429-1.676-5.258-2.362a11.742,11.742,0,0,0-4.5-.838,52.831,52.831,0,0,0-5.715,1.524c-2.819.762-5.715,1.372-8.61,1.981a24.386,24.386,0,0,0-2.515.533c-2.9.991-5.791,2.057-8.686,3.048-1.067.381-2.21.61-3.353.914q-2.172.686-4.343,1.6a38.254,38.254,0,0,0-3.581,1.753c.533.381.61.457.762.457a24.5,24.5,0,0,1,7.772,4.343c.914.762,1.9,1.676,3.2.61.152-.152.457-.076.686-.152,3.734-.991,7.544-1.9,11.277-3.048,3.124-.991,6.1-2.286,9.144-3.429C42.442,11.429,47.776,9.524,53.262,7.619ZM70.254,32.688c-.152-.152-.381-.229-.533-.381-1.676.686-3.276,1.448-5.029,2.057-2.515.914-5.029,1.753-7.544,2.667a1.645,1.645,0,0,0-.686,1.067c.61,2.591,1.372,5.105,2.057,7.7a1.236,1.236,0,0,0,.838.686,12.811,12.811,0,0,0,2.438-.686c2.515-1.143,5.105-2.286,7.62-3.505a1.658,1.658,0,0,0,.533-1.219c.076-1.524,0-2.972.076-4.5Z" transform="translate(0 0.004)"/>
</svg>
