<svg id="Group_1295" data-name="Group 1295" xmlns="http://www.w3.org/2000/svg" width="65.396" height="74.656" viewBox="0 0 65.396 74.656">
  <g id="Group_1271" data-name="Group 1271" transform="translate(35.68 43.618)">
    <g id="Group_1266" data-name="Group 1266">
      <g id="Group_1265" data-name="Group 1265">
        <path id="Path_427" data-name="Path 427" d="M39.139,52.275h-.367v-.092a.321.321,0,0,0-.184-.092h0A.09.09,0,0,1,38.68,52a.284.284,0,0,0,.184-.092h0a.09.09,0,0,1-.092-.092c0-.092.092-.184.092-.275,0,0,.092-.092,0-.092-.184-.092-.092-.092,0-.184l.184-.092c0-.092,0-.092-.092-.184V50.9s.092-.092,0-.092-.184-.092-.275-.092h0a.321.321,0,0,1,.092-.184.09.09,0,0,1-.092-.092v-.092s0-.092-.184-.092c-.092,0,0-.092,0-.092.092-.092.092-.184.184-.367l-.092-.092h0c.184-.092.092-.092,0-.184-.184-.092,0-.184,0-.275s.092-.092.184-.184l.184-.092a.09.09,0,0,0,.092-.092v-.092c0-.092-.092-.092-.092-.184h-.184c.092,0,0-.092-.092-.092h.092c-.092,0,.184-.092.092-.184s0-.092.092-.184c0-.092.092-.092.092-.184s-.092-.092-.092-.184.092-.184.092-.275h1.377l-.092.092h.092c-.275,0-.184.092-.092.092a.925.925,0,0,1,.275.092l-.092.092c-.092,0,0,.092,0,.092,0,.092,0,.092-.092.184h-.184s-.092.092.092.092,0,.092.184.092c.275.092.092.092.092.184s.184.092.092.184-.275.092-.459.184a.09.09,0,0,1,.092.092h.092c-.275,0-.092.092-.184.092s-.184.092,0,.092c.184.092.092.092.184.184.092,0-.092.092-.092.092l.092.092a.09.09,0,0,0-.092.092h0c.184.092.092.092.092.184,0,0-.092.092,0,.092.092.092.184.092.275.184v.092a.321.321,0,0,0,.184.092h.092c-.275,0-.184.092-.092.092h.092c.092.092.184.092.367.184h0c0,.092,0,.092-.092.184v.092h.092V50.9h-.092a.09.09,0,0,1-.092.092.284.284,0,0,0-.184.092c-.092,0-.184.092-.367.092H40.7c.092,0,.092,0,0,.092a.321.321,0,0,0-.184.092.284.284,0,0,0-.184.092h0c.275,0,0,.092-.092.092a.337.337,0,0,0-.275.092c-.092.092-.092.092-.092.184a.925.925,0,0,1-.275.092C39.323,52.275,39.231,52.275,39.139,52.275Z" transform="translate(-38.456 -47.5)"/>
      </g>
    </g>
    <g id="Group_1268" data-name="Group 1268" transform="translate(0 12.305)">
      <g id="Group_1267" data-name="Group 1267">
        <path id="Path_428" data-name="Path 428" d="M39.139,67.787h-.367V67.7a.321.321,0,0,0-.184-.092h0c0-.092,0-.092.092-.184a.321.321,0,0,1,.184-.092v-.092l-.092-.092a3.977,3.977,0,0,1,.092-.459s.092-.092,0-.092c-.184-.092-.092-.184,0-.275l.184-.092c0-.092,0-.184-.092-.184v-.184s.092-.092,0-.092c-.092-.092-.184-.092-.275-.184h0c0-.092.092-.184.092-.367l-.092-.092v-.092c0-.092,0-.092-.184-.184-.092-.092,0-.092,0-.184.092-.184.092-.367.184-.551l-.092-.092h0c.184-.092.092-.184,0-.275-.184-.092,0-.275,0-.367s.092-.184.184-.275c0-.092.184-.092.184-.184.092-.092.092-.092.092-.184v-.092c0-.092-.092-.184-.092-.275a.09.09,0,0,1-.092-.092h-.092c.092-.092,0-.092-.092-.184h.092c-.092-.092.184-.184.092-.184,0-.092,0-.184.092-.184a.321.321,0,0,1,.092-.184c0-.092-.092-.184-.092-.275s.092-.275.092-.367h.918c.367,0,.459,0,.459.092s-.092.092-.092.184l.092.092h0c-.275.092-.184.092-.092.184s.275.092.275.184a.09.09,0,0,1-.092.092c-.092.092,0,.092,0,.184a.337.337,0,0,1-.092.275h-.184c0,.092-.092.092.092.184s0,.092.184.184c.275.092.092.184.092.275s.184.184.092.275-.275.184-.459.367l.092.092h.092c-.275.092-.092.092-.184.184s-.184.092,0,.184.092.184.184.275-.092.092-.092.184.092.092.092.184l-.092.092h0c.184.092.092.184.092.184,0,.092-.092.092,0,.184l.275.275V65.4c0,.092.092.092.184.184h.092c-.275,0-.184.092-.092.092a.09.09,0,0,1,.092.092.477.477,0,0,0,.367.184h0a.337.337,0,0,1-.092.275v.092h.092v.092a.09.09,0,0,0-.092.092c0,.092,0,.092-.092.184a.321.321,0,0,1-.184.092c-.092.092-.184.092-.367.184H40.7c.092,0,.092.092,0,.092-.092.092-.184.092-.184.184a.321.321,0,0,1-.184.092h0c.275,0,0,.092-.092.092s-.184.092-.275.092a.337.337,0,0,0-.092.275.925.925,0,0,1-.275.092A1.229,1.229,0,0,0,39.139,67.787Z" transform="translate(-38.456 -60.9)"/>
      </g>
    </g>
    <g id="Group_1270" data-name="Group 1270" transform="translate(0 26.171)">
      <g id="Group_1269" data-name="Group 1269">
        <path id="Path_429" data-name="Path 429" d="M39.139,80.775h-.367v-.092a.321.321,0,0,0-.184-.092h0a.09.09,0,0,1,.092-.092.284.284,0,0,0,.184-.092h0a.09.09,0,0,1-.092-.092c0-.092.092-.184.092-.275,0,0,.092-.092,0-.092-.184-.092-.092-.092,0-.184l.184-.092c0-.092,0-.092-.092-.184V79.4s.092-.092,0-.092-.184-.092-.275-.092h0a.321.321,0,0,1,.092-.184.09.09,0,0,1-.092-.092v-.092s0-.092-.184-.092c-.092,0,0-.092,0-.092.092-.092.092-.184.184-.367l-.092-.092h0c.184-.092.092-.092,0-.184-.184-.092,0-.184,0-.275s.092-.092.184-.184l.184-.092a.09.09,0,0,0,.092-.092v-.092c0-.092-.092-.092-.092-.184h-.184c.092,0,0-.092-.092-.092h.092c-.092-.092.184-.092.092-.184s0-.092.092-.184c0-.092.092-.092.092-.184s-.092-.092-.092-.184.092-.184.092-.275h1.377l-.092.092a.09.09,0,0,1,.092.092h0c-.275,0-.184.092-.092.092a.925.925,0,0,1,.275.092l-.092.092c-.092,0,0,.092,0,.092,0,.092,0,.092-.092.184h-.184s-.092.092.092.092,0,.092.184.092c.275.092.092.092.092.184s.184.092.092.184-.275.092-.459.184a.09.09,0,0,1,.092.092h.092c-.275,0-.092.092-.184.092s-.184.092,0,.092c.184.092.092.092.184.184.092,0-.092.092-.092.092l.092.092a.09.09,0,0,0-.092.092h0c.184.092.092.092.092.184,0,0-.092.092,0,.092.092.092.184.092.275.184v.092a.321.321,0,0,0,.184.092h.092c-.275,0-.184.092-.092.092h.092c.092.092.184.092.367.184h0c0,.092,0,.092-.092.184V79.4h.092v.092h-.092a.09.09,0,0,1-.092.092.284.284,0,0,0-.184.092c-.092,0-.184.092-.367.092H40.7c.092,0,.092,0,0,.092a.321.321,0,0,0-.184.092.284.284,0,0,0-.184.092h0c.275,0,0,.092-.092.092a.337.337,0,0,0-.275.092c-.092.092-.092.092-.092.184a.925.925,0,0,1-.275.092C39.323,80.775,39.231,80.775,39.139,80.775Z" transform="translate(-38.456 -76)"/>
      </g>
    </g>
  </g>
  <g id="Group_1278" data-name="Group 1278" transform="translate(43.118 43.618)">
    <g id="Group_1273" data-name="Group 1273">
      <g id="Group_1272" data-name="Group 1272">
        <path id="Path_430" data-name="Path 430" d="M47.239,52.275h-.367v-.092a.321.321,0,0,0-.184-.092h0A.09.09,0,0,1,46.78,52a.284.284,0,0,0,.184-.092h0a.09.09,0,0,1-.092-.092c0-.092.092-.184.092-.275,0,0,.092-.092,0-.092-.184-.092-.092-.092,0-.184l.184-.092c0-.092,0-.092-.092-.184V50.9s.092-.092,0-.092-.184-.092-.275-.092h0a.321.321,0,0,1,.092-.184.09.09,0,0,1-.092-.092v-.092s0-.092-.184-.092c-.092,0,0-.092,0-.092.092-.092.092-.184.184-.367l-.092-.092h0c.184-.092.092-.092,0-.184-.184-.092,0-.184,0-.275s.092-.092.184-.184l.184-.092a.09.09,0,0,0,.092-.092v-.092c0-.092-.092-.092-.092-.184h-.184c.092,0,0-.092-.092-.092h.092c-.092,0,.184-.092.092-.184,0-.092,0-.092.092-.184,0-.092.092-.092.092-.184s-.092-.092-.092-.184.092-.184.092-.275h1.377l-.092.092h.092c-.275,0-.184.092-.092.092a.925.925,0,0,1,.275.092l-.092.092c-.092,0,0,.092,0,.092,0,.092,0,.092-.092.184h-.184s-.092.092.092.092,0,.092.184.092c.275.092.092.092.092.184s.184.092.092.184-.275.092-.459.184a.09.09,0,0,1,.092.092h.092c-.275,0-.092.092-.184.092s-.184.092,0,.092c.184.092.092.092.184.184.092,0-.092.092-.092.092l.092.092a.09.09,0,0,0-.092.092h0c.184.092.092.092.092.184,0,0-.092.092,0,.092.092.092.184.092.275.184v.092a.321.321,0,0,0,.184.092h.092c-.459.459-.367.459-.275.459h.092c.092.092.184.092.367.184h0c0,.092,0,.092-.092.184v.092h.092v.092h-.092a.09.09,0,0,1-.092.092.284.284,0,0,0-.184.092c-.092,0-.184.092-.367.092h.092c.092,0,.092,0,0,.092a.321.321,0,0,0-.184.092.284.284,0,0,0-.184.092h0c.275,0,0,.092-.092.092a.337.337,0,0,0-.275.092c-.092.092-.092.092-.092.184a.925.925,0,0,1-.275.092Z" transform="translate(-46.556 -47.5)"/>
      </g>
    </g>
    <g id="Group_1275" data-name="Group 1275" transform="translate(0 12.305)">
      <g id="Group_1274" data-name="Group 1274">
        <path id="Path_431" data-name="Path 431" d="M47.239,67.787h-.367V67.7a.321.321,0,0,0-.184-.092h0c0-.092,0-.092.092-.184a.321.321,0,0,1,.184-.092v-.092l-.092-.092a3.977,3.977,0,0,1,.092-.459s.092-.092,0-.092c-.184-.092-.092-.184,0-.275l.184-.092c0-.092,0-.184-.092-.184v-.184s.092-.092,0-.092c-.092-.092-.184-.092-.275-.184h0c0-.092.092-.184.092-.367l-.092-.092v-.092c0-.092,0-.092-.184-.184-.092-.092,0-.092,0-.184.092-.184.092-.367.184-.551l-.092-.092h0c.184-.092.092-.184,0-.275-.184-.092,0-.275,0-.367s.092-.184.184-.275c0-.092.184-.092.184-.184.092-.092.092-.092.092-.184v-.092c0-.092-.092-.184-.092-.275a.09.09,0,0,1-.092-.092h-.092c.092-.092,0-.092-.092-.184h.092c-.092-.092.184-.184.092-.184,0-.092,0-.184.092-.184a.321.321,0,0,1,.092-.184c0-.092-.092-.184-.092-.275s.092-.275.092-.367h.918c.367,0,.459,0,.459.092s-.092.092-.092.184l.092.092h0c-.275.092-.184.092-.092.184s.275.092.275.184a.09.09,0,0,1-.092.092c-.092.092,0,.092,0,.184a.337.337,0,0,1-.092.275h-.184c0,.092-.092.092.092.184s0,.092.184.184c.275.092.092.184.092.275s.184.184.092.275-.275.184-.459.367l.092.092h.092c-.275.092-.092.092-.184.184s-.184.092,0,.184.092.184.184.275-.092.092-.092.184.092.092.092.184l-.092.092h0c.184.092.092.184.092.184,0,.092-.092.092,0,.184l.275.275V65.4c0,.092.092.092.184.184h.092c-.275,0-.184.092-.092.092a.09.09,0,0,1,.092.092.477.477,0,0,0,.367.184h0a.337.337,0,0,1-.092.275v.092h.092v.092a.09.09,0,0,0-.092.092c0,.092,0,.092-.092.184a.321.321,0,0,1-.184.092c-.092.092-.184.092-.367.184H48.8c.092,0,.092.092,0,.092-.092.092-.184.092-.184.184a.321.321,0,0,1-.184.092h0c.275,0,0,.092-.092.092s-.184.092-.275.092a.337.337,0,0,0-.092.275.925.925,0,0,1-.275.092A1.229,1.229,0,0,0,47.239,67.787Z" transform="translate(-46.556 -60.9)"/>
      </g>
    </g>
    <g id="Group_1277" data-name="Group 1277" transform="translate(0 26.171)">
      <g id="Group_1276" data-name="Group 1276">
        <path id="Path_432" data-name="Path 432" d="M47.239,80.775h-.367v-.092a.321.321,0,0,0-.184-.092h0a.09.09,0,0,1,.092-.092.284.284,0,0,0,.184-.092h0a.09.09,0,0,1-.092-.092c0-.092.092-.184.092-.275,0,0,.092-.092,0-.092-.184-.092-.092-.092,0-.184l.184-.092c0-.092,0-.092-.092-.184V79.4s.092-.092,0-.092-.184-.092-.275-.092h0a.321.321,0,0,1,.092-.184.09.09,0,0,1-.092-.092v-.092s0-.092-.184-.092c-.092,0,0-.092,0-.092.092-.092.092-.184.184-.367l-.092-.092h0c.184-.092.092-.092,0-.184-.184-.092,0-.184,0-.275s.092-.092.184-.184l.184-.092a.09.09,0,0,0,.092-.092v-.092c0-.092-.092-.092-.092-.184h-.184c.092,0,0-.092-.092-.092h.092c-.092-.092.184-.092.092-.184,0-.092,0-.092.092-.184,0-.092.092-.092.092-.184s-.092-.092-.092-.184.092-.184.092-.275h1.377l-.092.092a.09.09,0,0,1,.092.092h0c-.275,0-.184.092-.092.092a.925.925,0,0,1,.275.092l-.092.092c-.092,0,0,.092,0,.092,0,.092,0,.092-.092.184h-.184s-.092.092.092.092,0,.092.184.092c.275.092.092.092.092.184s.184.092.092.184-.275.092-.459.184a.09.09,0,0,1,.092.092h.092c-.275,0-.092.092-.184.092s-.184.092,0,.092c.184.092.092.092.184.184.092,0-.092.092-.092.092l.092.092a.09.09,0,0,0-.092.092h0c.184.092.092.092.092.184,0,0-.092.092,0,.092.092.092.184.092.275.184v.092a.321.321,0,0,0,.184.092h.092c-.275,0-.184.092-.092.092h.092c.092.092.184.092.367.184h0c0,.092,0,.092-.092.184V79.4h.092v.092h-.092a.09.09,0,0,1-.092.092.284.284,0,0,0-.184.092c-.092,0-.184.092-.367.092H48.8c.092,0,.092,0,0,.092a.321.321,0,0,0-.184.092.284.284,0,0,0-.184.092h0c.275,0,0,.092-.092.092a.337.337,0,0,0-.275.092c-.092.092-.092.092-.092.184a.925.925,0,0,1-.275.092C47.423,80.775,47.331,80.775,47.239,80.775Z" transform="translate(-46.556 -76)"/>
      </g>
    </g>
  </g>
  <g id="Group_1285" data-name="Group 1285" transform="translate(50.464 43.618)">
    <g id="Group_1280" data-name="Group 1280">
      <g id="Group_1279" data-name="Group 1279">
        <path id="Path_433" data-name="Path 433" d="M55.331,52.275h-.367v-.092a.321.321,0,0,0-.184-.092h0A.09.09,0,0,1,54.872,52a.284.284,0,0,0,.184-.092h0a.09.09,0,0,1-.092-.092c0-.092.092-.184.092-.275,0,0,.092-.092,0-.092-.184-.092-.092-.092-.092-.184l.184-.092c0-.092,0-.092-.092-.184V50.9s.092-.092,0-.092-.184-.092-.275-.092h0a.321.321,0,0,1,.092-.184.09.09,0,0,1-.092-.092v-.092s0-.092-.184-.092c-.092,0,0-.092,0-.092.092-.092.092-.184.184-.367l-.092-.092h0c.184-.092.092-.092,0-.184-.184-.092,0-.184,0-.275s.092-.092.184-.184l.184-.092a.09.09,0,0,0,.092-.092v-.092c0-.092-.092-.092-.092-.184h-.184c.092,0,0-.092-.092-.092h.092c-.092,0,.184-.092.092-.184,0-.092,0-.092.092-.184,0-.092.092-.092.092-.184s-.092-.092-.092-.184.092-.184.092-.275h1.377l-.092.092h.092c-.275,0-.184.092-.092.092a.925.925,0,0,1,.275.092l-.092.092c-.092,0,0,.092,0,.092,0,.092,0,.092-.092.184h-.184s-.092.092.092.092,0,.092.184.092c.275.092.092.092.092.184s.184.092.092.184-.275.092-.459.184a.09.09,0,0,1,.092.092h.092c-.275,0-.092.092-.184.092s-.184.092,0,.092c.184.092.092.092.184.184.092,0-.092.092-.092.092l.092.092a.09.09,0,0,0-.092.092h0c.184.092.092.092.092.184,0,0-.092.092,0,.092.092.092.184.092.275.184v.092a.321.321,0,0,0,.184.092h.092c-.367.459-.275.459-.184.459h.092c.092.092.184.092.367.184h0c0,.092,0,.092-.092.184v.092h.092v.092h-.092a.09.09,0,0,1-.092.092.284.284,0,0,0-.184.092c-.092,0-.184.092-.367.092h.092c.092,0,.092,0,0,.092a.321.321,0,0,0-.184.092.284.284,0,0,0-.184.092h0c.275,0,0,.092-.092.092a.337.337,0,0,0-.275.092c-.092.092-.092.092-.092.184a.925.925,0,0,1-.275.092Z" transform="translate(-54.556 -47.5)"/>
      </g>
    </g>
    <g id="Group_1282" data-name="Group 1282" transform="translate(0 12.121)">
      <g id="Group_1281" data-name="Group 1281">
        <path id="Path_434" data-name="Path 434" d="M55.331,67.771h-.367v-.092a.321.321,0,0,0-.184-.092h0c0-.092,0-.092.092-.184a.321.321,0,0,1,.184-.092V67.22l-.092-.092a3.977,3.977,0,0,1,.092-.459s.092-.092,0-.092c-.184-.092-.092-.184-.092-.275l.184-.092c0-.092,0-.184-.092-.184v-.184s.092-.092,0-.092c-.092-.092-.184-.092-.275-.184h0c0-.092.092-.184.092-.367l-.092-.092v-.092c0-.092,0-.092-.184-.184-.092-.092,0-.092,0-.184.092-.184.092-.367.184-.551l-.092-.092h0c.184-.092.092-.184,0-.275-.184-.092,0-.275,0-.367s.092-.184.184-.275c0-.092.184-.092.184-.184.092-.092.092-.092.092-.184v-.092c0-.092-.092-.184-.092-.275a.09.09,0,0,1-.092-.092h-.092c.092-.092,0-.092-.092-.184h.092c-.184-.184.092-.276.092-.367s0-.184.092-.184a.321.321,0,0,1,.092-.184c0-.092-.092-.184-.092-.275s.092-.275.092-.367h.918c.367,0,.459,0,.459.092s-.092.092-.092.184l.092.092h0c-.275.092-.184.092-.092.184s.275.092.275.184a.09.09,0,0,1-.092.092c-.092.092,0,.092,0,.184a.337.337,0,0,1-.092.275h-.184c0,.092-.092.092.092.184s0,.092.184.184c.275.092.092.184.092.275s.184.184.092.275-.275.184-.459.367l.092.092h.092c-.275.092-.092.092-.184.184s-.184.092,0,.184.092.184.184.275-.092.092-.092.184.092.092.092.184l-.092.092h0c.184.092.092.184.092.184,0,.092-.092.092,0,.184l.275.275V65.2c0,.092.092.092.184.184h.092c-.275,0-.184.092-.092.092a.09.09,0,0,1,.092.092.477.477,0,0,0,.367.184h0a.337.337,0,0,1-.092.275v.092h.092v.092a.09.09,0,0,0-.092.092c0,.092,0,.092-.092.184a.321.321,0,0,1-.184.092c-.092.092-.184.092-.367.184H56.8c.092,0,.092.092,0,.092-.092.092-.184.092-.184.184a.321.321,0,0,1-.184.092h0c.275,0,0,.092-.092.092s-.184.092-.275.092c-.184.092-.184.184-.275.276a.925.925,0,0,1-.275.092C55.515,67.771,55.423,67.771,55.331,67.771Z" transform="translate(-54.556 -60.7)"/>
      </g>
    </g>
    <g id="Group_1284" data-name="Group 1284" transform="translate(0 26.171)">
      <g id="Group_1283" data-name="Group 1283">
        <path id="Path_435" data-name="Path 435" d="M55.331,80.775h-.367v-.092a.321.321,0,0,0-.184-.092h0a.09.09,0,0,1,.092-.092.284.284,0,0,0,.184-.092h0a.09.09,0,0,1-.092-.092c0-.092.092-.184.092-.275,0,0,.092-.092,0-.092-.184-.092-.092-.092-.092-.184l.184-.092c0-.092,0-.092-.092-.184V79.4s.092-.092,0-.092-.184-.092-.275-.092h0a.321.321,0,0,1,.092-.184.09.09,0,0,1-.092-.092v-.092s0-.092-.184-.092c-.092,0,0-.092,0-.092.092-.092.092-.184.184-.367l-.092-.092h0c.184-.092.092-.092,0-.184-.184-.092,0-.184,0-.275s.092-.092.184-.184l.184-.092a.09.09,0,0,0,.092-.092v-.092c0-.092-.092-.092-.092-.184h-.184c.092,0,0-.092-.092-.092h.092c-.092-.092.184-.092.092-.184,0-.092,0-.092.092-.184,0-.092.092-.092.092-.184s-.092-.092-.092-.184.092-.184.092-.275h1.377l-.092.092a.09.09,0,0,1,.092.092h0c-.275,0-.184.092-.092.092a.925.925,0,0,1,.275.092l-.092.092c-.092,0,0,.092,0,.092,0,.092,0,.092-.092.184h-.184s-.092.092.092.092,0,.092.184.092c.275.092.092.092.092.184s.184.092.092.184-.275.092-.459.184a.09.09,0,0,1,.092.092h.092c-.275,0-.092.092-.184.092s-.184.092,0,.092c.184.092.092.092.184.184.092,0-.092.092-.092.092l.092.092a.09.09,0,0,0-.092.092h0c.184.092.092.092.092.184,0,0-.092.092,0,.092.092.092.184.092.275.184v.092a.321.321,0,0,0,.184.092h.092c-.275,0-.184.092-.092.092h.092c.092.092.184.092.367.184h0c0,.092,0,.092-.092.184V79.4h.092v.092h-.092a.09.09,0,0,1-.092.092.284.284,0,0,0-.184.092c-.092,0-.184.092-.367.092H56.8c.092,0,.092,0,0,.092a.321.321,0,0,0-.184.092.284.284,0,0,0-.184.092h0c.275,0,0,.092-.092.092a.337.337,0,0,0-.275.092c-.184.367-.184.459-.275.551a.925.925,0,0,1-.275.092C55.515,80.775,55.423,80.775,55.331,80.775Z" transform="translate(-54.556 -76)"/>
      </g>
    </g>
  </g>
  <g id="Group_1292" data-name="Group 1292" transform="translate(57.903 43.618)">
    <g id="Group_1287" data-name="Group 1287">
      <g id="Group_1286" data-name="Group 1286">
        <path id="Path_436" data-name="Path 436" d="M63.431,52.275h-.367v-.092a.321.321,0,0,0-.184-.092h0A.09.09,0,0,1,62.972,52a.284.284,0,0,0,.184-.092h0a.09.09,0,0,1-.092-.092c0-.092.092-.184.092-.275,0,0,.092-.092,0-.092-.184-.092-.092-.092-.092-.184l.184-.092c0-.092,0-.092-.092-.184V50.9s.092-.092,0-.092-.184-.092-.275-.092h0a.321.321,0,0,1,.092-.184.09.09,0,0,1-.092-.092v-.092s0-.092-.184-.092c-.092,0,0-.092,0-.092.092-.092.092-.184.184-.367l-.092-.092h0c.184-.092.092-.092,0-.184-.184-.092,0-.184,0-.275s.092-.092.184-.184l.184-.092a.09.09,0,0,0,.092-.092v-.092c0-.092-.092-.092-.092-.184h-.184c.092,0,0-.092-.092-.092h.092c-.092,0,.184-.092.092-.184s0-.092.092-.184c0-.092.092-.092.092-.184s-.092-.092-.092-.184.092-.184.092-.275h1.377l-.092.092h.092c-.275,0-.184.092-.092.092a.925.925,0,0,1,.275.092l-.092.092c-.092,0,0,.092,0,.092,0,.092,0,.092-.092.184h-.184s-.092.092.092.092,0,.092.184.092c.275.092.092.092.092.184s.184.092.092.184-.275.092-.459.184a.09.09,0,0,1,.092.092h.092c-.275,0-.092.092-.184.092s-.184.092,0,.092c.184.092.092.092.184.184.092,0-.092.092-.092.092l.092.092a.09.09,0,0,0-.092.092h0c.184.092.092.092.092.184,0,0-.092.092,0,.092.092.092.184.092.275.184v.092a.321.321,0,0,0,.184.092h.092c-.367.459-.275.459-.184.459h.092c.092.092.184.092.367.184h0c0,.092,0,.092-.092.184v.092h.092v.092h-.092a.09.09,0,0,1-.092.092.284.284,0,0,0-.184.092c-.092,0-.184.092-.367.092h.092c.092,0,.092,0,0,.092a.321.321,0,0,0-.184.092.284.284,0,0,0-.184.092h0c.275,0,0,.092-.092.092a.337.337,0,0,0-.275.092c-.092.092-.092.092-.092.184a.925.925,0,0,1-.275.092Z" transform="translate(-62.656 -47.5)"/>
      </g>
    </g>
    <g id="Group_1289" data-name="Group 1289" transform="translate(0 12.305)">
      <g id="Group_1288" data-name="Group 1288">
        <path id="Path_437" data-name="Path 437" d="M63.431,67.787h-.367V67.7a.321.321,0,0,0-.184-.092h0c0-.092,0-.092.092-.184a.321.321,0,0,1,.184-.092v-.092l-.092-.092a3.977,3.977,0,0,1,.092-.459s.092-.092,0-.092c-.184-.092-.092-.184-.092-.275l.184-.092c0-.092,0-.184-.092-.184v-.184s.092-.092,0-.092c-.092-.092-.184-.092-.275-.184h0c0-.092.092-.184.092-.367l-.092-.092v-.092c0-.092,0-.092-.184-.184-.092-.092,0-.092,0-.184.092-.184.092-.367.184-.551l-.092-.092h0c.184-.092.092-.184,0-.275-.184-.092,0-.275,0-.367s.092-.184.184-.275c0-.092.184-.092.184-.184.092-.092.092-.092.092-.184v-.092c0-.092-.092-.184-.092-.275a.09.09,0,0,1-.092-.092h-.092c.092-.092,0-.092-.092-.184h.092c-.092-.092.184-.184.092-.184,0-.092,0-.184.092-.184a.321.321,0,0,1,.092-.184c0-.092-.092-.184-.092-.275s.092-.275.092-.367h.918c.367,0,.459,0,.459.092s-.092.092-.092.184l.092.092h0c-.275.092-.184.092-.092.184s.275.092.275.184a.09.09,0,0,1-.092.092c-.092.092,0,.092,0,.184a.337.337,0,0,1-.092.275h-.184c0,.092-.092.092.092.184s0,.092.184.184c.275.092.092.184.092.275s.184.184.092.275-.275.184-.459.367l.092.092h.092c-.275.092-.092.092-.184.184s-.184.092,0,.184.092.184.184.275-.092.092-.092.184.092.092.092.184l-.092.092h0c.184.092.092.184.092.184,0,.092-.092.092,0,.184l.275.275V65.4c0,.092.092.092.184.184h.092c-.275,0-.184.092-.092.092a.09.09,0,0,1,.092.092.477.477,0,0,0,.367.184h0a.337.337,0,0,1-.092.275v.092h.092v.092a.09.09,0,0,0-.092.092c0,.092,0,.092-.092.184a.321.321,0,0,1-.184.092c-.092.092-.184.092-.367.184H64.9c.092,0,.092.092,0,.092-.092.092-.184.092-.184.184a.321.321,0,0,1-.184.092h0c.275,0,0,.092-.092.092s-.184.092-.275.092a.337.337,0,0,0-.092.275.925.925,0,0,1-.275.092A.694.694,0,0,0,63.431,67.787Z" transform="translate(-62.656 -60.9)"/>
      </g>
    </g>
    <g id="Group_1291" data-name="Group 1291" transform="translate(0 26.171)">
      <g id="Group_1290" data-name="Group 1290">
        <path id="Path_438" data-name="Path 438" d="M63.431,80.775h-.367v-.092a.321.321,0,0,0-.184-.092h0a.09.09,0,0,1,.092-.092.284.284,0,0,0,.184-.092h0a.09.09,0,0,1-.092-.092c0-.092.092-.184.092-.275,0,0,.092-.092,0-.092-.184-.092-.092-.092-.092-.184l.184-.092c0-.092,0-.092-.092-.184V79.4s.092-.092,0-.092-.184-.092-.275-.092h0a.321.321,0,0,1,.092-.184.09.09,0,0,1-.092-.092v-.092s0-.092-.184-.092c-.092,0,0-.092,0-.092.092-.092.092-.184.184-.367l-.092-.092h0c.184-.092.092-.092,0-.184-.184-.092,0-.184,0-.275s.092-.092.184-.184l.184-.092a.09.09,0,0,0,.092-.092v-.092c0-.092-.092-.092-.092-.184h-.184c.092,0,0-.092-.092-.092h.092c-.092-.092.184-.092.092-.184s0-.092.092-.184c0-.092.092-.092.092-.184s-.092-.092-.092-.184.092-.184.092-.275h1.377l-.092.092a.09.09,0,0,1,.092.092h0c-.275,0-.184.092-.092.092a.925.925,0,0,1,.275.092l-.092.092c-.092,0,0,.092,0,.092,0,.092,0,.092-.092.184h-.184s-.092.092.092.092,0,.092.184.092c.275.092.092.092.092.184s.184.092.092.184-.275.092-.459.184a.09.09,0,0,1,.092.092h.092c-.275,0-.092.092-.184.092s-.184.092,0,.092c.184.092.092.092.184.184.092,0-.092.092-.092.092l.092.092a.09.09,0,0,0-.092.092h0c.184.092.092.092.092.184,0,0-.092.092,0,.092.092.092.184.092.275.184v.092a.321.321,0,0,0,.184.092h.092c-.275,0-.184.092-.092.092h.092c.092.092.184.092.367.184h0c0,.092,0,.092-.092.184V79.4h.092v.092h-.092a.09.09,0,0,1-.092.092.284.284,0,0,0-.184.092c-.092,0-.184.092-.367.092H64.9c.092,0,.092,0,0,.092a.321.321,0,0,0-.184.092.284.284,0,0,0-.184.092h0c.275,0,0,.092-.092.092a.337.337,0,0,0-.275.092c-.092.092-.092.092-.092.184a.925.925,0,0,1-.275.092C63.615,80.775,63.523,80.775,63.431,80.775Z" transform="translate(-62.656 -76)"/>
      </g>
    </g>
  </g>
  <g id="Group_1294" data-name="Group 1294" transform="translate(0)">
    <g id="Group_1293" data-name="Group 1293">
      <path id="Path_439" data-name="Path 439" d="M-.033.551A1.541,1.541,0,0,1,1.161.184H3.273C4.283.092,5.385.092,6.4,0h.918C8.875,0,10.436,0,12,.092a22.515,22.515,0,0,1,2.479.184h1.745c.735,0,1.469-.092,2.2-.092L31.648.275a9.444,9.444,0,0,1,1.561.092A8.4,8.4,0,0,1,34.77.459a15.037,15.037,0,0,1,6.52,2.02,6.158,6.158,0,0,1,1.286.826,13.5,13.5,0,0,1,1.194.918,20.49,20.49,0,0,1,4.408,4.5A22.239,22.239,0,0,1,50.84,14.05c.184.551.275,1.1.459,1.745a13.6,13.6,0,0,1,.275,1.745,7.088,7.088,0,0,1,.184,1.377,7.088,7.088,0,0,0,.184,1.377v1.1h.551c.092,0,0,0,.184.092l.275.092a16.761,16.761,0,0,1,7.714,5.326,3.6,3.6,0,0,1,.735.918,3.6,3.6,0,0,1,.735.918,14.189,14.189,0,0,1,1.1,2.02,20.857,20.857,0,0,1,1.469,4.224,4.609,4.609,0,0,1,.184,1.1c0,.184.092.367.092.643V39.3c0,.184.092.459-.184.367H62.686l-14.05-.184c-1.01,0-2.02.092-2.938.092h-.275a48.629,48.629,0,0,0-6.336,0c-1.653.092-3.306.092-5.051.092h-4.5c-.092,0-.092,0-.092-.092v-1.1l.092-1.194v-.551l.092-.367a19,19,0,0,1,.918-3.949,16.791,16.791,0,0,1,1.928-3.581,16.465,16.465,0,0,1,3.489-3.673A18.982,18.982,0,0,1,40.1,22.681c.551-.275,1.1-.459,1.561-.643.184-.092.275-.092.459-.184l.184-.092h.092V20.569c0-.551-.092-1.01-.092-1.561a15.438,15.438,0,0,0-.826-2.938,7.66,7.66,0,0,0-.735-1.1,1.921,1.921,0,0,1-.367-.551,8.159,8.159,0,0,0-3.489-3.122c-.184-.092-.275-.184-.459-.275s-.367-.275-.551-.367a25.331,25.331,0,0,0-2.479-.735,6.2,6.2,0,0,0-1.286-.184,7.836,7.836,0,0,0-1.469,0c-1.928,0-3.949,0-5.877-.092-1.928,0-3.949-.092-5.877-.092-2.663,0-5.326.092-7.989.092C7.314,9.642,3.732,9.55.059,9.55A.688.688,0,0,1-.4,9.458c.551-.184.367-.367.367-.551a.7.7,0,0,1,.184-.459A2.937,2.937,0,0,1,1.9,7.989l5.234.092c.643,0,1.286-.092,1.928-.092h.551a21.576,21.576,0,0,0,4.867.092c1.837-.092,3.673-.275,5.51-.275a24.061,24.061,0,0,1,2.571.092c1.286.092,2.571,0,3.857,0h6.8c.367,0,.643.092,1.01.092.367.092.735.275,1.1.367a15.823,15.823,0,0,1,4.04,1.745,11.9,11.9,0,0,1,3.122,2.938,11.445,11.445,0,0,1,2.2,7.622v1.286c0,.184.092.551,0,.735l-.643.367c-.367.092-.918.275-1.194.367l-.826.367A12.98,12.98,0,0,0,38.9,25.528a16.947,16.947,0,0,0-5.6,6.061,6.376,6.376,0,0,0-.459,1.194c-.092.459-.184.826-.275,1.286a1.165,1.165,0,0,1-.092.551,4.546,4.546,0,0,0-.367,1.194,5.5,5.5,0,0,0-.184,1.1v.826h.918a28.712,28.712,0,0,0,4.867,0c2.571-.184,5.234-.092,7.805-.184,1.377-.092,2.755.092,4.132.092l3.857-.092c.826,0,1.561.092,2.388.092.275,0,.551.092.735,0,1.928-.184,3.949-.092,5.877-.092h.735c.184,0,.551.092.459-.184v-.643c0-.184-.092-.551-.092-.918a14.611,14.611,0,0,0-2.388-5.785,6.518,6.518,0,0,0-.918-1.286,6.323,6.323,0,0,0-1.01-1.194A14.469,14.469,0,0,0,55.431,24.7a5.852,5.852,0,0,0-.643-.184c-.184-.092-.367-.092-.459-.184a2,2,0,0,0-.735-.459,3.262,3.262,0,0,1-.826-.367c-.184-.092-.275-.092-.459-.184l-.643-.184-1.377-.275c0-.735-.092-1.469-.092-2.3a17.7,17.7,0,0,0-1.01-5.418l-.275-.826A18.049,18.049,0,0,0,45.33,8.173,14.856,14.856,0,0,0,43.586,6.52a5.126,5.126,0,0,1-.735-.459,19.664,19.664,0,0,0-1.745-1.194A6.85,6.85,0,0,0,40,4.224a20.442,20.442,0,0,0-3.949-1.469A13.482,13.482,0,0,0,33.393,2.3a19.39,19.39,0,0,0-2.388-.184l-2.388-.275a1.79,1.79,0,0,0-.735.092,12.033,12.033,0,0,1-2.571,0c-1.561-.092-2.938-.092-4.408-.184-.826-.092-1.745-.092-2.571-.184a2.5,2.5,0,0,0-.826,0,8.414,8.414,0,0,1-3.03-.092c-.918-.092-1.745-.184-2.663-.275L3.273,1.1C2.263,1.01,1.345.918.335.826A1.268,1.268,0,0,0-.033.551Z" transform="translate(0.4)"/>
    </g>
  </g>
</svg>
