<svg id="Group_1313" data-name="Group 1313" xmlns="http://www.w3.org/2000/svg" width="86.106" height="50.348" viewBox="0 0 86.106 50.348">
  <path id="Path_487" data-name="Path 487" d="M11.829,42.408c-.622-1.778.178-3.023,1.067-4.356.356-.533.8-1.067,1.156-1.6.444-.622.089-1.156-.267-1.6-.444-.444-.978,0-1.245.356a7.433,7.433,0,0,0-1.689,3.2,1.426,1.426,0,0,1-1.245,1.333c-.622.089-.978-.533-1.422-.889-.622-.622-.178-1.245.178-1.778.622-.8,1.422-1.511,2.045-2.222.8-.889.8-1.689,0-2.222a1.6,1.6,0,0,0-2.222.622,29.424,29.424,0,0,0-1.333,2.934c-.178.533-.444.978-1.067.8S4.45,36.9,4.006,36.274c-.267-.533.089-.978.444-1.333.8-.889,1.511-1.778,2.311-2.667.356-.444.622-.889.356-1.422-.178-.533-.711-.356-1.156-.356-.622,0-.889.178-.978.889-.089,1.156-.978,1.956-1.422,2.934a2.134,2.134,0,0,1-1.333.978c-.622.178-1.245.622-1.867,0s-.178-1.333.178-1.778a34.728,34.728,0,0,1,2.667-3.645c.444-.444.8-.889.533-1.511-.533-1.067.089-1.778.444-2.578,1.422-3.111,3.912-5.334,6.49-7.467a14.441,14.441,0,0,1,3.912-2.4c1.956-.711,3.467-2.222,5.512-3.111a37.093,37.093,0,0,1-3.2-3.289c-1.511-2.222-1.333-4.445-.622-6.667C16.9,1.071,19.563-.263,21.43.093a.462.462,0,0,1,.356.178c2.222,2.045,5.245,2.667,7.823,4.089a13.894,13.894,0,0,0,9.068,1.156c5.334-.889,10.668-1.867,16.09-2.222A98.175,98.175,0,0,0,68.1,1.426c2.222-.444,2.578-.356,3.467,1.867,1.511,3.823,1.956,7.645.089,11.557a3.158,3.158,0,0,1-.356.8c-.533.889-.178,1.245.622,1.6a37.281,37.281,0,0,1,7.29,4.267,14.629,14.629,0,0,1,4.623,4.712c.178.356.533.8.444.978-1.156,2.045.533,3.2,1.422,4.534a2,2,0,0,1-.533,3.023c-.978.622-1.333.267-1.689-.889-.356-1.333-.889-2.578-1.333-3.823a.728.728,0,0,0-.889-.356c-1.156.178-.889,1.333-1.511,1.956-.444.444-.089.711.267,1.067,1.156,1.067,1.333,2.667,2.134,4,.533.889-.444,1.067-.889,1.422s-.978.089-1.333-.356a6.881,6.881,0,0,1-.622-1.422,26.9,26.9,0,0,0-1.067-2.845c-.533-1.333-.889-1.511-2.045-1.067s-1.422.889-.978,2.134a13.254,13.254,0,0,0,2.045,3.823c.8.978.178,3.2-.889,3.734-.622.267-1.867-.533-2.045-1.422-.444-1.6-.889-3.2-1.333-4.889-.178-.533-.356-1.067-.978-.978a1.16,1.16,0,0,0-1.067,1.156,2.825,2.825,0,0,0,.178,1.245c.444,1.422.978,2.845,1.422,4.267a7.259,7.259,0,0,1-.533,2.4.687.687,0,0,1-1.067-.267,14.231,14.231,0,0,1-1.067-3.289,4.771,4.771,0,0,0-1.511-2.578c-.711-.533-1.333-.267-1.333.622.089.889-.178,1.778.267,2.578a9.416,9.416,0,0,1,.8,3.2c.089.8.622,1.6-.889,1.511-.533,0-.533.533-.444.978,0,.444-.178.711-.622.711a.779.779,0,0,1-.8-.622,7.1,7.1,0,0,1-.445-2.311c-.089-1.245-.356-2.4-.533-3.645a.94.94,0,0,0-.533-.622.653.653,0,0,0-.711.356,3.465,3.465,0,0,0-.711,3.2,13.653,13.653,0,0,0,.978,2.667c.711,1.067.978,1.867-.267,2.667-.533.356-.444,1.6-1.511,1.245-.8-.267-.711-1.156-.711-1.867-.267-2.578-.444-5.156-1.6-7.556a29.62,29.62,0,0,0-5.156-7.912c-1.689-1.778-3.467-3.556-5.245-5.156-3.2-2.934-7.2-4.178-11.023-5.867-1.156-.533-2.045.356-2.845,1.156A19.17,19.17,0,0,0,29.164,34.23a5.582,5.582,0,0,0-.267,1.689A5.018,5.018,0,0,1,26.141,40.9c-1.422.889-1.6,2.045-1.956,3.289-.089.444.089,1.156-.444,1.333a5.273,5.273,0,0,1-2.045.444.805.805,0,0,1-.8-1.067,5.414,5.414,0,0,1,1.156-2.756,1.739,1.739,0,0,0,.178-2.222c-.444-.711-1.156-.444-1.778-.444a1.145,1.145,0,0,0-1.245,1.156c-.089.533-.178,1.156-.267,1.689-.089.8-.267,1.778-1.333,1.956-.533.089-1.156.356-1.689-.089a4.159,4.159,0,0,1,0-2.934c.444-.622.978-1.245,1.422-1.867a1.624,1.624,0,0,0,.533-1.333c-.089-.622-.267-1.156-.978-1.333a1.233,1.233,0,0,0-1.689.622,6.851,6.851,0,0,0-.978,2.4C14.407,41.7,13.429,42.408,11.829,42.408ZM62.5,13.961h0c1.867,1.245,4.178,1.333,6.223,2.311.622.267.8-.267,1.067-.711,2.311-3.645,2.134-7.379.533-11.2a1.091,1.091,0,0,0-1.511-.711c-1.6.267-3.111.356-4.712.622-6.134.8-12.446.8-18.58,1.778a19.848,19.848,0,0,0-5.778,1.245c1.6,1.156,3.467,1.156,4.978,1.867a2.454,2.454,0,0,0,2.222-.089C50.233,7.56,53.878,7.027,57.434,6.4a38.7,38.7,0,0,1,5.6-.889c.711-.089,1.422-.356,1.778.8A74.027,74.027,0,0,0,53.878,8.271c-1.867.533-4.089.356-5.6,1.956C52.989,11.65,57.789,12.805,62.5,13.961ZM47.388,20.095c0,.356.267.444.444.622a73.806,73.806,0,0,1,15.2,15.024A2.443,2.443,0,0,0,66.057,36.9c.889-.267,1.6-.444,1.956-1.333s-.444-1.333-.889-1.778A75.709,75.709,0,0,0,55.478,24.1c-1.333-.889-2.578-2.045-4.445-2.222a.449.449,0,0,1-.444-.622c.089-.356.444-.356.711-.356a4.082,4.082,0,0,1,2.489.711,67.1,67.1,0,0,1,8.268,5.956,83.5,83.5,0,0,1,6.312,6.223,1.794,1.794,0,0,0,1.689.622A2.921,2.921,0,0,0,72.546,32.9c.533-.978,1.156-1.689,2.4-1.333a1.271,1.271,0,0,0,1.511-.622,4.873,4.873,0,0,1,3.556-2.134c1.067-.178,1.778-2.311,1.156-2.934a34.144,34.144,0,0,0-7.823-6.045,60.513,60.513,0,0,0-7.912-3.023,28.388,28.388,0,0,0-5.245-1.867c-4.712-.889-9.245-2.4-13.779-3.734-4.623-1.333-9.156-2.756-13.69-4.089C30.053,6.316,27.3,5.6,24.9,4a16.088,16.088,0,0,0-3.556-1.6c-1.689-.622-2.311-.267-3.023,1.333a3.312,3.312,0,0,0-.178,2.756c.978,2.578,2.311,4.889,4.889,6.312s5.6,2.045,8.09,3.734c3.111,2.222,6.667,3.467,10.045,4.978,2.489,1.156,5.245,1.956,7.29,3.734,4.445,3.823,9.156,7.29,11.646,12.89a2.114,2.114,0,0,0,2.845,1.067,1.163,1.163,0,0,0,.444-2.045l-4-4.267A67.673,67.673,0,0,0,48.633,22.851c-2.311-1.6-4.267-3.912-7.379-4.089-.267,0-.622-.356-.444-.622.533-1.156-.444-1.156-1.067-1.422a79.62,79.62,0,0,1-8.712-4.356c-.533-.267-1.333-.533-1.422-1.511,2.489.444,4.356,1.956,6.312,3.023,2.134,1.156,4.445,1.778,6.578,2.756,2.045.978,4.356,1.422,6.134,2.934C48.366,20.361,47.744,19.561,47.388,20.095ZM14.229,34.141a2.82,2.82,0,0,1,3.734.889c.622.711,1.422,1.689,2.756,1.511.356-.089.711.356,1.067.711a3.859,3.859,0,0,0,4,1.156,1.526,1.526,0,0,0,1.422-1.245c.178-1.333.711-2.667.978-4a21.753,21.753,0,0,1,5.956-10.934c.356-.356.889-.711.8-1.511a37.824,37.824,0,0,1-4.8-2.845,26.868,26.868,0,0,0-5.156-2.311,15.362,15.362,0,0,1-2.667-1.422.967.967,0,0,0-1.333,0c-2.4,1.422-4.623,3.2-7.29,4.178a3.532,3.532,0,0,0-1.6,1.422c-.267.356-.444.8-.889.889-1.867.8-2.934,2.311-4.089,3.823-.622.8-1.422,1.956-.8,2.489.978.8.889,2.667,2.756,2.578.889,0,1.6.444,1.422,1.422-.178,1.067.267,1.156,1.067.978a2.529,2.529,0,0,1,2.934.889,44.269,44.269,0,0,1,9.868-11.2,3.912,3.912,0,0,1,3.823-.978C22.052,23.473,18.585,28.807,14.229,34.141Z" transform="translate(-0.05 -0.035)"/>
  <path id="Path_488" data-name="Path 488" d="M78.856,31.279A8.657,8.657,0,0,1,74.589,28.7a99.355,99.355,0,0,0-14.757-9.512,8.754,8.754,0,0,0-3.023-1.067c-.356,0-.8-.089-.711-.622a.821.821,0,0,1,.889-.8,5.031,5.031,0,0,1,2.222.711,86.861,86.861,0,0,1,8.356,4.712c3.734,2.489,7.2,5.334,10.846,7.912A2.035,2.035,0,0,1,78.856,31.279Z" transform="translate(-6.271 -1.885)"/>
  <path id="Path_489" data-name="Path 489" d="M59.2,20.728a2.984,2.984,0,0,1-2.311-.444c-2.667-1.156-5.334-2.134-8.09-3.111a72.5,72.5,0,0,1-10.045-4.534c-.178-.089-.356-.267-.533-.356-.533-.356-.889-.889-.356-1.422s1.067-.356,1.422.267c.622,1.067,1.778,1.422,2.756,1.956A80.614,80.614,0,0,0,52.8,17.528,35.86,35.86,0,0,1,59.2,20.728Z" transform="translate(-4.219 -1.202)"/>
  <path id="Path_490" data-name="Path 490" d="M72.5,22.474c.622-.444,1.156-.089,1.6.178,3.911,2.845,8.445,4.712,12.535,7.29C84.235,30.119,74.545,24.874,72.5,22.474Z" transform="translate(-8.093 -2.503)"/>
  <path id="Path_491" data-name="Path 491" d="M12.276,31.357c-.533-1.156.178-1.956.711-2.667a32.945,32.945,0,0,1,8-8.09,17.7,17.7,0,0,1,3.467-2.222c.356-.178.889-.356,1.067.178.178.356-.089.711-.444.889l-1.333.8A23.7,23.7,0,0,0,12.721,31.09C12.81,31.179,12.632,31.268,12.276,31.357Z" transform="translate(-1.386 -2.052)"/>
  <path id="Path_492" data-name="Path 492" d="M76.053,8.2c.356,0,.8,0,.978.356a.954.954,0,0,1-.089.978c-.267.356-.622.267-.978.089a2.785,2.785,0,0,0-1.689-.178c-3.556.711-7.2.8-10.4,2.667-.089.089-.267.089-.444.178-.444.089-1.067.444-1.333-.267-.178-.711.444-.8.889-.978C67.163,9.356,71.608,8.822,76.053,8.2Z" transform="translate(-6.935 -0.942)"/>
  <path id="Path_493" data-name="Path 493" d="M70.242,15.478c-.711-1.156-.622-1.333.356-1.6a7.647,7.647,0,0,1,1.422-.089V13.7c.178.711-.267.889-.711,1.067s-.889.267-1.067.711Z" transform="translate(-7.791 -1.552)"/>
  <path id="Path_494" data-name="Path 494" d="M72.3,13.751a3.282,3.282,0,0,1,2.667-.178c-1.156.356-1.867.978-2.667.178Z" transform="translate(-8.071 -1.515)"/>
</svg>
