<svg xmlns="http://www.w3.org/2000/svg" width="49.562" height="64.392" viewBox="0 0 49.562 64.392">
  <path id="Path_452" data-name="Path 452" d="M26.537,21.757h7.317l.2.1.2.1.2.1.2.1.2.1.2.1.2.1.2.1.2.1.2.1.2.1.2.1.2.1.2.1.2.1.2.1.2.1.293.1.585-.1.293.1.293.1.293.1.293.1.293.2.293.2.2.2.2.2.2.2.2.2.2.2.2.2.2.2.2.2.2.2.2.2.2.2.2.2.2.2.2.2.2.2.2.2.2.2.2.2.2.2.2.2.2.2.2.2.2.2.2.2.2.2.2.2.2.2.2.2.2.2.2.2.2.2.2.2.2.2.2.2.1.2.1.2.1.2.1.2.1.2.1.2.1.2.1.2.1.2.1.2.1.2.1.2.1.2.1.2.1.2.1.2.1.2.1.2.1.2.1.2.1.2.1.2.1.2.1.2.1.2.1.2.1.293.1.293.1.293.1.293.1.293.1.293v9.073l-.1.293-.1.293-.2-.488-.1.293-.1.293-.1.293-.1.293-.1.293.1.1v.293l-.1.293-.1.293-.1.293-.1.2-.1.293-.1.293-.1.293-.1.293-.1.293-.1.2-.1.293-.1.293-.1.293-.2.585-.1.293-.293.585-.1.293-.1.293-.293.293-.2.293-.2.293-.1.39-.1.2V56l-.1.2-.1.2-.1.2-.1.2-.1.1h0l-.1.2-.2.293-.1.2-.1.1-.1.2-.2.293-.2.293-.1.1-.1.2-.1.2-.2.1-.1.2-.1.2-.1.1-.1.2-.1.2-.1.2-.1.1h-.293l-.1.1-.2.2-.1.1-.1.1-.2.1-.2.1-.1.293-.2.1-.2.2-.2.1-.2.1-.2.1v.1l-.1.1-.293.2-.1.1-.293.1-.1.1h-.2l-.293.1-.1.1-.1.1-.1.1-.1.1h-.2l-.1.1-.1.1-.1.1-.293.1-.1.1-.293-.1-.1.1h-.39l-.488.2h-4.2l-.683.781H28.1l-.293-.1-.293-.1-.293-.1-.293-.1-.293-.1-.293-.2h-.488l-.488-.2h-.585l-.39-.39-.1-.1-.1-.1-.1-.1-.1-.1-.1-.1-.1-.1-.1.1-.39.2-.39.2-.2.1-.2.293-.2.1h-.2l-.2.1-.2.1-.2.1-.2.1h-.2l-.293.1H14.732l-.2-.1-.2-.1-.2-.1-.2-.1-.2-.1-.2-.1-.2-.1.585.1h-.1l-.2-.1-.2-.1-.2-.1-.2-.1-.2-.1-.2-.1-.2-.1-.2-.1-.2-.1-.39-.2v.2l-.2-.1-.2-.1-.2-.1-.293-.2-.1-.1-.2-.1-.2-.1-.2-.1-.2-.1-.1-.1-.1-.1-.2-.1-.293-.2-.2-.1-.2-.1-.1-.1h0l-.2-.1-.1-.2-.2-.1-.2-.1-.2-.1-.1-.1V60l-.1-.1-.293-.2-.2-.2-.1-.1-.1-.1-.1-.1-.1-.1-.1-.1-.1-.1-.39-.39-.1-.1-.1-.1-.2-.2-.1-.1-.1-.1-.1-.1-.1-.1-.1-.1-.1-.1-.1-.1-.2-.293-.488-.585-.1-.2-.1-.2L4.2,56l-.1-.2-.1-.2-.1.1-.1-.2-.1-.2h0l-.1-.1-.1-.2-.1-.2-.1-.2-.1-.2-.1-.2h-.2l-.1-.2-.1-.2-.1-.2-.1-.2-.1-.2-.1-.2-.1-.2-.1-.2-.1-.2-.1-.2v.1l-.1-.2-.1-.2-.1-.2v-.1l-.1-.2-.1-.2-.1-.2-.1-.2-.1-.2-.1-.2-.1-.2-.1-.2.1-.1v-.2l-.1-.2-.1-.2-.1-.2-.1-.2-.1-.2.1-.1-.1-.2-.1-.2-.1-.2V44.879H0V41.757l.1-.39v-.2l.1-.39V39.611l.1-.39v-.39l.1-.2.1-.2.1-.2.1-.2.293-.2.1-.2.1-.2.1-.2v-.2l.1-.2.1-.2.1-.2.1-.2.1-.2.1-.39.1-.2.1-.2-.1-.1.1-.2.1-.2.1-.2.1-.2.1-.293.1-.2.2-.39.1-.2.1-.2v-.1l.1-.2.1-.2.1-.2.1-.2.1-.1.1-.2.2-.293.1-.2.1-.1.2-.2.1-.2.1-.2.2-.293.1-.2.1-.1.1-.2.1-.2.1-.2.1-.2.1-.2.1-.2.1-.1.1-.1.1-.1h.293l.1-.1.1-.1.1-.1.1-.1.1-.1.488-.488.1-.1.1-.1.1-.1.2-.2.1-.1.1-.1.1-.1.1-.1.1-.1.1-.1.1-.1.1-.1.488-.2.2-.1.1-.1.1-.1.1-.1.1-.1.1-.1.1-.1.1-.1.1-.1.1-.1.1-.1.1-.1.1-.1.1-.1.1-.1.1-.1.1-.1.1-.1.1-.1.1-.1h.293l.293-.1h.39l.293-.1.293-.1h3.512l-.1-.2-.1-.2v-.2l-.1-.2-.1-.2-.1-.2-.1-.2,1.659-.293-.1-.2h0l-.1-.2-.1-.2-.1-.2-.1-.2-.1-.2-.1-.2v-.1l-.1-.2-.1-.293-.1-.2-.1-.2-.1-.2-.1-.2-.1-.2-.1-.2-.1-.2-.1-.2-.2-.39-.1-.2-.2-.2v-.1l-.1-.2-.1-.2-.2-.1-.1-.2-.1-.2-.1-.2-.1-.2-.293-.2-.1-.2-.1-.2-.1-.2-.1-.2-.1-.2-.1-.2-.1-.2-.1-.2-.1-.2-.1-.2-.1-.1-.1-.1-.1-.2-.585.2-.488-.488-.293-.293-.1-.1-.1-.2-.1-.1-.1-.1-.1-.1-.1-.1-.1-.1-.1-.1-.39-.293-.1-.1-.1-.1-.1-.1-.1-.1-.1-.1h-.1l-.1-.1-.1-.1h-.1l-.1-.1H8.39l-.1-.1H8l-.1-.1H7.122l-.1-.1-.1-.1H6.634l.293-.585h-.2l-.1-.1H6.049l-.1-.1h0l-.1-.1v-.293l-.1-.1-.1-.2-.1-.2-.1-.293V8.781l.1-.293.1-.2.2-.2.1-.1.1-.1.1-.1h.1l.1-.1.1-.1H8.293l.1.1.2.1h.39l.2.1h.2l.1.1.1.1.2.39.1.1.1.1.1.1h.2l.2.1.1.1.1.1h.1l.2.1.2.1.1.1.1.1.2.1.2.1.2.1.2.1.2.1.2.1.2.1.2.1.2.1.2.1.293.293.1.1.293.293.488.585.2.2.2.2.1.1.1.1.2.2.2.2.2.2.2.2.2.2.2.2.2.2.2.2.2.2.2.2.2.2.2.2.2.2.2.2.2.2.1.2.1.2.1.2v.1l.1.2.1.2.1.2.293.488.1.293.1.293.1.293.1.293.1.293.1.293.1.1v-.488h0l.1-.293.1-.293.1-.293.1-.293.1-.293.1-.293.1-.293.1-.293.1-.293.1-.293.1-.293.1-.293.1-.293.1-.293v-.2l.1-.293.1-.293.1-.293.1-.293.1-.293.1-.293.1-.293.1-.293.1-.293.1-.293.1-.293.1-.293.1-.293.1-.293.1-.293.1-.293.1-.293.1-.293.1-.293.1-.293-.39.878.1-.293.1-.293.1-.2.1-.2.293-.293.1-.2.2-.293.1-.2.2-.293.1-.2.1-.1v-.1l.1-.2.1-.2.2-.2.1-.2.1-.2.1-.2.1-.2.1-.2h.39l.1-.2.1-.2.1-.2.1-.2.1-.2.1-.2.1-.2.2-.2.2-.2.2-.2.2-.2.2.2.2-.2.1-.1.2-.2.2-.2.2-.2.2-.2v.1l.1-.1.2-.1.2-.2.2-.2.2-.2.39-.293.1-.1.1-.1.1-.1.1-.1.1-.1H30.83L31.806,0h.781l.39.1.1.1.1.1v.1l.1.1.1.1.1.1.1.1.1.1-.1.1V9.269l-.1.293-.1.293-.1.293-.1.293-.1.293-.1.293-.1.293-.1.293-.1.293-.1.293.585-.488v.2h0l-.1.2-.1.293-.1.293-.1.293-.1.293-.1.293-.1.293-.1.293-.2.1-.1.293-.1.293-.1.293-.1.2-.1.2-.1.2-.1.2-.293.293-.1.2-.1.2-.1.2-.1.2-.1.2-.293.39-.2.2-.2.2-.2.2-.2.2-.2.2-.2.2-.2.2-.2.2-.2.2-.2.2-.2.2-.2.2.2.293-.2.2-.2.2-.2.2-.2.2-.1.1-.1.1-.1.1-.1.1-.1.1h-.2l-.1.1-.1.1ZM30.83,3.024h0l-.293.2-.2.2-.2.2-.2.1-.2.2-.1.1-.1.1-.1.1-.1.1-.1.1-.1.1-.1.1-.1.1-.2.2-.1.1-.293.293-.1.1-.1.1-.1.1-.293.293-.293.293-.1.1-.1.2-.1.2-.1.2h-.2l-.2.293-.1.2-.1.2-.2.1-.2.293V8l-.1.1-.1.2-.1.2-.1.2-.1.1-.1.2-.2.2-.1.2-.1.2-.1.2-.1.2-.1.2-.1.2-.293.39-.1.2-.1.2L24,11.708l-.1.2-.1.2-.1.2-.2.39-.1.2-.2.488-.2.293-.1.293-.1.293-.1.293-.1.1-.1.293-.1.293-.1.293v.1l-.1.1-.1.293-.1.293-.1.293-.1.293-.1.293-.1.293-.1.293-.1.293h0l-.1.293v.2l-.1.293-.1.293-.1.293h0l-.1.293-.1.293-.1.293-.1.293-.1.293-.1.293-.1.293h.293l-.1.293v.585h0l.1-.1.1-.1.2-.2.2-.2.1-.1.2-.1.2-.1.2-.1.2-.1.2-.1.1-.1h0l.2-.1.2-.1.2-.1.683-.39.2-.1.2-.1.2-.1.2-.1.2-.1.2-.1.2-.1.1-.1.1-.1.1-.1.1-.1.1-.1.1-.1.1-.1.1-.1.1-.1.1-.1.1-.1.1-.1.1-.1.1-.1.1-.2.1-.2.1-.2.1-.1v-.1l.1-.2.1-.2.1-.2.1-.2.1-.2h.1l.1-.2.1-.2.1-.2.1-.2.1-.2.1-.2.1-.2.1-.2.1-.2.1-.2.1-.2.1-.2.1-.2.1-.2.1-.2.1-.2.1-.2.1-.2.1-.2.1-.2.1-.2.1-.2.1-.2.1-.2.1-.2.1-.2.1-.2h0l.293-.585.1-.2.1-.2.1-.2.1-.2.1-.2.1-.2.1-.2V3.512l-.1-.488ZM8.683,8.1ZM24.2,62.538Zm4.781-36.879h5.951l.1.1.1.1.1.1.1.1.1.1.1.1.1.1.1.1.1.1.1.1.2.1.2.1.2.1.2.1.2.1.2.1.2.1.2.1.2.1.2.1.2.1.2.1.2.1.2.1.2.1.2.1.2.1.2.1.2.1.2.1.2.1.2.1.2.1.2.1.2.1.293.293.2.2.2.2.2.2.1.2.1.2.1.2.1.2.1.2.1.2.1.2.1.2.1.2.1.2.1.2.1.2.1.878.1.2.1.2.1.2.1.2.1.2.1.2.1.2.1.2.1.2.1.2.1.2.1.2.1.2.1.2.1.2.1.2.1.2.1.2.1.2.1.2.1.2.1.2.1.2.1.2.1.2.1.2V45.66l-.1.2-.488.78v.2l-.1.2-.1.2-.1.2-.1.2-.1.2-.1.2-.1.2-.1.2-.1.2-.1.2-.1.2-.1.2.2.683-.1.2-.1.2-.1.293-.39.878-.1.293-.2.585-.1.293-.1.293-.1.293-.1.293-.1.293-.1.1-.1.1-.1.1-.2.293-.1.1-.1.2-.1.1h0l-.2.293-.1.1-.1.1-.1.1v.293l-.1.1-.1.2V56l-.1.1-.1.1-.1.1-.2.293-.1.1-.1.1-.1.1-.1.1-.1.1v.2l-.2.2-.1.1h-.1l-.2.2-.1.1-.1.1-.1.1-.1.1h0l-.1.1-.1.1-.1.1-.1.1-.1.1-.1-.1-.1.1-.1.1-.1.1-.1-.1-.1.1H36.879l-.2.1h-.39l-.2.1-.2.1h-.1l-.2.1H28.976l-.2-.1H28l-.2-.1h-.488l-.2-.1h-.39l-.2-.1h-.2l-.2-.1-.293-.1H24.391l-1.951.488-.2.1-.2.1-.2.2-.39.2-.293.2-.293.1H19.708l-.2.488H14.244l.39-.585-.2-.1-.2-.1-.2-.1-.2-.1-.2-.1-.2-.1.1.2h-.1l-.1-.1-.1-.1-.1-.1-.1-.1h-.39l-.1-.1-.1-.1-.1-.1-.1-.1-.1-.1-.1-.1-.39.1-.1-.1h-.1l-.293-.2-.1-.1-.293-.2-.1-.1h0l-.1-.1-.1-.1-.1-.1-.1-.1-.293-.2H9.756l-.1-.1-.1-.1-.1-.1-.1-.1-.1-.1-.2-.2-.2-.1-.1-.1-.1-.1-.1-.1-.1-.1-.1-.1-.1-.1-.1-.1-.1-.1-.293-.293-.1-.1-.1-.1-.1-.1-.1-.1-.1-.1-.2-.2-.1-.2-.1-.1-.1-.2-.1-.1-.1-.1-.1-.1-.1-.1-.1-.1-.1-.1h0l-.1-.1-.1-.1-.1-.1-.2-.293-.2-.293-.1-.1-.1-.1-.1-.1-.1-.1-.1-.1-.2-.293v-.878l-.1-.2-.1-.2v-.1l-.1-.2-.1-.2-.1-.2-.1-.2-.1-.2-.1-.2-.1-.2-.1-.2-.1-.2-.1-.2.2.1-.1-.293-.1-.2-.1-.2-.1-.2v-.39l-.1-.293-.1-.2v-.293l-.1-.293V41.172l.1-.293.1-.293V39.416l.1-.293v-.39l.39.2.1-.2.1-.2.1-.2.1-.2v-.2l.1-.2.1-.293.1-.2.1-.2h-.2l.1-.2.1-.2.1-.2.1-.2h0v-.2l.1-.2.1-.2.1-.2.1-.2.1-.2h0l.1-.2.1-.2.1-.2.1-.2.1-.2v.1l.1-.2.1-.2.1-.2.1-.2.1-.1.1-.1v-.1l.1-.1.2-.293.1-.1.2-.293.1-.2.1-.1.1-.1.1-.1.1-.1.1-.1.2-.39.1-.1.1-.1.1-.1.1-.1.1-.1.1-.1.1-.1.1-.1.1-.1.1-.293.1-.1.1-.1.1-.1.1-.1.1-.1.1-.1.1-.1.1-.1.1-.1.1-.1.1-.1.1-.1.1-.1.1-.1.1-.1.1-.1h.39l.2-.1H11.9l.2-.1h.976l.2-.1h6.244l.2.1.2.1H20l1.268.293h.683l.2-.1h.683l.2-.1.2-.1.2-.1.2-.1.2-.1.2-.1.2-.1.2-.1.585-.293.293-.1.1-.1.1-.1.1-.1.1-.1h3.415Z" fill-rule="evenodd"/>
</svg>
