<svg id="Group_1310" data-name="Group 1310" xmlns="http://www.w3.org/2000/svg" width="89.686" height="71.474" viewBox="0 0 89.686 71.474">
  <path id="Path_464" data-name="Path 464" d="M247.1,8.6Z" transform="translate(-185.157 -6.441)"/>
  <path id="Path_465" data-name="Path 465" d="M333.726,92.1c-.1.125-.226.276-.326.4Z" transform="translate(-249.824 -69.01)"/>
  <path id="Path_466" data-name="Path 466" d="M89.609,16.385c-.2-.577-2.557-1.73-3.058-2.081-2.231-1.629-4.362-3.359-6.467-5.164A92.341,92.341,0,0,0,69.455.768c-1.379-.877-2.131-.827-3.76-.727-2.707.175-5.415.526-8.122.652C55.117.818,52.785.467,50.354.367c-2.281-.075-4.462.276-6.793.05A75.169,75.169,0,0,0,27.994.668a65.4,65.4,0,0,1-7.671.577,12.361,12.361,0,0,0-2.507-.2c-1.028.276-.978,1.053-1.755,1.7-3.108,2.682-5.54,5.866-8.272,8.924-1.629,1.83-3.234,3.71-5.013,5.389C2,17.814.245,18.741.019,19.869c-.351,1.579,2.808,4.111,3.76,5.339.9,1.178,1.8,2.406,2.657,3.635A14.581,14.581,0,0,0,8.116,31.35c1.529,1.454,3.434-.978,4.688-1.93a44.9,44.9,0,0,1,5.565-3.961c0,5.44.175,10.9.226,16.344,0,1.78.276,3.459.226,5.239-.1,2.782,0,5.59.125,8.372.175,4.261-.1,8.548.1,12.784.05,1.178-.175,2.457,1.078,2.958a14.812,14.812,0,0,0,3.835.276,38.616,38.616,0,0,0,4.813-.175c5.389-.376,10.779-.852,16.168-1.078,2.757-.125,5.49,0,8.247.05,2.281.025,4.537-.276,6.818-.226,2.632.075,5.314.05,7.921.376,1.7.2,2.908.326,3.083-1.7.175-2.005-.376-4.211-.451-6.217-.125-2.607-.251-5.189-.526-7.8-.577-5.389-.1-10.879-.551-16.294-.5-5.74.251-11.456.025-17.2,2.181,2.331,4.963,3.81,7.5,5.69,1.83,1.379,3.133,4.161,4.913,1.153,1.429-2.406,3.384-4.462,4.863-6.818C87.5,19.994,90.135,18.039,89.609,16.385ZM40.026,1.395c1.654.075,3.259.526,4.913.6a13.9,13.9,0,0,0,2.281.1c0,.777.6,2.933.1,3.61-.476.627-3.76.426-4.688.451-.927.05-2.682.476-3.108-.3C39.1,5,40.126,2.472,40.026,1.395Zm-13.912.953c.226-.3,2.256-.276,2.682-.326,1.654-.2,3.334-.476,4.988-.551,1.629-.075,3.284.276,4.888,0C38.4,2.8,37.294,6.082,38.547,7.185c1,.9,3.936.5,5.139.451,1.354-.05,4.211.2,4.963-1.153.627-1.128.175-3.284.075-4.537,4.537-.075,9,.05,13.536-.276-.9,2.632-1.228,5.214-2.732,7.645a19.045,19.045,0,0,1-5.765,5.816,23.264,23.264,0,0,1-17,3.434c-5.515-1.128-8.648-4.662-10.052-9.977a17.556,17.556,0,0,1-.526-4.261A7.577,7.577,0,0,1,26.114,2.347ZM69.4,67.371c0,1.68.175,1.8-1.654,1.7A107.171,107.171,0,0,0,56.4,68.8c-7.671.451-15.291.025-22.987.652a68.462,68.462,0,0,1-10.854.526c-.451-.025-1.88.125-2.156-.2-.3-.376-.05-2.256-.05-2.808V63.762C20.424,56.141,19.822,48.6,19.8,41c0-3.66.251-7.295.075-10.954-.15-2.657-.351-5.314-.426-7.971-.025-1.429.3-2.908.276-4.362-.025-1.955-.226-3.91-.276-5.866a43.761,43.761,0,0,1,.175-4.437c.075-.978.451-3.284-.276-4.086-.953-1.028-1.078.4-1.1,1.078-.025,1.629.175,3.334.2,4.988.075,3.76,0,7.52-.05,11.305a10.708,10.708,0,0,1-.025,2.833c-.226.677-.852.9-1.5,1.3-1.379.877-2.707,1.855-4.036,2.782-1,.7-1.88,1.654-2.908,2.281-.4.226-.5.5-.852.376-.426-.15-.9-1.479-1.128-1.8-1.028-1.529-2.281-2.858-3.384-4.337-.752-1-2.507-2.356-2.833-3.534-.2-.752.075-.727.777-1.354.727-.652,1.454-1.3,2.156-1.98a55.332,55.332,0,0,0,4.111-4.286c2.131-2.532,4.011-5.289,6.467-7.52.551-.5,1.228-.9,1.755-1.429.326-.3.752-1.2,1.128-1.379.627-.3,2.106,0,2.883,0,1.178,0,2.356-.075,3.534-.175-.326,3.71.226,8.5,2.457,11.581a15.448,15.448,0,0,0,8.723,5.615A23.9,23.9,0,0,0,56.646,14.73,21.006,21.006,0,0,0,63.138,4c.175-.727.2-2.206.652-2.482a19.317,19.317,0,0,1,2.833-.15c.3-.025.777-.2,1.028-.05.326.226.1,3.986.1,4.412.2,9.325,0,18.625.05,27.95.025,4.688.226,9.5.526,14.188.326,5.114.251,10.177.852,15.266A30.393,30.393,0,0,1,69.4,67.371ZM83.894,23.078c-.6.8-1.429,1.78-2.106,2.632-.376.476-.677.978-1,1.479-.526.8-.276.752-1,.577-.827-.226-1.905-1.7-2.607-2.231-1.554-1.178-3.158-2.281-4.738-3.409a11.761,11.761,0,0,1-2.682-2.281c-.9-1.329-.376-3.986-.3-5.64a92.029,92.029,0,0,0-.2-11.756c4.688,2.933,8.473,6.568,12.709,10.077,1.053.877,2.206,1.654,3.309,2.457.551.4,2.131,1.178,2.432,1.78C88.255,17.989,84.8,21.9,83.894,23.078Z" transform="translate(0.008 0.012)"/>
  <path id="Path_467" data-name="Path 467" d="M325.3,96.207l2.005-2.507C326.679,94.5,325.876,95.38,325.3,96.207Z" transform="translate(-243.755 -70.209)"/>
</svg>
