<svg id="Group_1296" data-name="Group 1296" xmlns="http://www.w3.org/2000/svg" width="87.966" height="69.898" viewBox="0 0 87.966 69.898">
  <path id="Path_440" data-name="Path 440" d="M12.337.187C14.02.094,15.7,0,17.48,0c5.892.094,11.69.281,17.582.374,2.057,0,4.021-.094,6.079,0,2.432,0,4.863.187,7.2.281C53.673.748,59.1.748,64.427.748c3.086,0,6.172-.094,9.259-.094a10.305,10.305,0,0,1,1.683.187,2.333,2.333,0,0,1,1.87,2.432c.094,3.647.187,7.2.281,10.848.094,5.331.187,10.755.281,16.085.094,5.237.281,10.568.468,15.8a25.511,25.511,0,0,0,.281,3.834,9.691,9.691,0,0,0,1.4,2.993c1.59,2.712,3.086,5.518,4.863,8.136a30.81,30.81,0,0,1,2.712,4.863c.655,1.4.281,2.244-1.029,2.712a13.765,13.765,0,0,1-4.77.748c-5.424,0-10.848-.281-16.366,0-1.59.094-3.273,0-4.957,0H34.782c-2.338,0-4.77,0-7.108.094-4.77.094-9.446.374-14.122.468-2.432.094-4.77,0-7.2-.094-1.4,0-2.806-.094-4.208-.187a4.132,4.132,0,0,1-1.5-.561c-.842-.561-.935-.935-.561-1.87q1.263-2.806,2.806-5.611C3.92,59.572,5.136,57.7,6.164,55.645c.842-1.683,1.59-3.46,2.338-5.144a5.775,5.775,0,0,0,.374-3.086,27.142,27.142,0,0,1-.187-4.77c-.094-4.115,0-8.23-.094-12.345-.187-5.331-.468-10.848-.655-16.273-.187-3.086-.281-6.266-.374-9.352a25.391,25.391,0,0,1,.094-2.619,1.789,1.789,0,0,1,1.4-1.5C10.092.374,11.214.187,12.243,0ZM86.311,66.773c-.561-1.029-.935-1.964-1.4-2.806C82.57,59.946,80.139,56.019,77.8,52a1.847,1.847,0,0,0-1.683-1.122c-1.964,0-3.928-.094-5.892-.094-6.827-.094-13.747-.187-20.574-.187-8.323,0-16.647-.094-24.97-.094-2.9,0-5.8-.094-8.7-.094-1.964,0-3.834.094-5.7.094-1.59,3.086-3.086,6.172-4.676,9.071-.935,1.683-1.964,3.367-2.806,5.05a7.319,7.319,0,0,0-1.216,3.46c.655.094,1.216.187,1.777.281,1.777,0,3.46-.094,5.144-.094,6.546,0,13.093-.094,19.733-.094h13.28c3.367,0,6.64-.094,10.007-.094H63.4c2.806,0,5.7-.094,8.51-.187h2.619c2.338-.094,4.676-.281,7.108-.187,1.216-.094,2.432-.187,3.741-.374C85.657,67.335,85.937,67.054,86.311,66.773ZM77.24,49a6.315,6.315,0,0,1-.187-1.309c0-2.432.094-4.863.094-7.388-.094-3.928-.187-7.949-.374-11.877-.187-5.424-.374-10.942-.561-16.366-.094-2.806-.281-5.7-.374-8.51,0-.748-.374-1.029-1.122-1.029H72.938c-2.338-.187-4.582-.374-6.921-.468-2.244-.094-4.4.094-6.64.094-3.928-.094-7.949-.281-11.971-.281H43.572c.561.655.935,1.122.281,1.777a1.7,1.7,0,0,1-1.964.468c-.748-.374-.748-1.029-.468-1.683l1.216-.468a2.49,2.49,0,0,0-1.122-.281c-3.086,0-6.079-.094-9.165-.094-2.525,0-5.05-.094-7.575-.187s-5.05.187-7.575.094a44.017,44.017,0,0,0-6.079.187,3.044,3.044,0,0,0-1.309.374A2.229,2.229,0,0,0,9.25,3.086c-.094,1.59,0,3.18,0,4.77,0,3.18.094,6.266.187,9.446.094,3.834.281,7.669.374,11.6.187,5.892.281,11.784.468,17.675,0,.842.187,1.683.187,2.619,1.4,0,2.619.094,3.834.094h8.6c7.762.094,15.431.094,23.193.187,3.834,0,7.669.187,11.5.094,5.892,0,11.784-.187,17.675-.281C75.837,49.192,76.585,49.1,77.24,49Z" transform="translate(0.124)"/>
  <path id="Path_441" data-name="Path 441" d="M77.177,65.626c-2.525-.094-5.237-.187-7.856-.187-7.388.187-14.87-.187-22.258-.187H32.194c-5.985,0-12.064.094-18.049.094-1.683,0-3.46.094-5.144.187-1.216.094-1.777-.655-1.216-1.683a11.435,11.435,0,0,1,1.122-1.777c.561-.935,1.029-1.87,1.59-2.9.374-.748.748-1.5,1.216-2.244a1.352,1.352,0,0,1,.935-.655c2.619-.094,5.331-.094,7.949-.094,3.367,0,6.64.094,10.007.094H58.847c3.647,0,7.295,0,10.942-.094,2.151,0,4.3-.187,6.453-.281.468,0,1.029.094,1.122.748.374,2.525,1.777,4.582,2.993,6.733.281.374.468.842.748,1.309.281.842,0,1.122-.842,1.122C79.141,65.813,78.206,65.72,77.177,65.626ZM53.8,62.353,33.69,62.54a2.589,2.589,0,0,0-.094.842c0,.281.094.561.094.935H53.984ZM15.828,64.317l4.582.094c-.094-.748-.187-1.309-.281-1.87l-4.863-.094c.187.748.374,1.309.561,1.87Zm16.366-1.59-4.77-.187c-.094.374-.094.748-.187,1.216a.723.723,0,0,0,.655.748h4.489Zm23.661,1.5,4.582.094-.094-1.777-4.77-.094Zm-34.322.187,4.582.094c-.187-.748-.281-1.309-.374-1.87l-4.115-.094a12.534,12.534,0,0,0-.094,1.87ZM61.84,62.446c-.094,1.4,0,1.87.561,1.87,1.4.094,2.712,0,4.3,0l-.374-1.777Zm6.172,1.683,4.863.094-.187-1.59-4.676-.094ZM13.77,64.41V62.54a19.568,19.568,0,0,1-2.432-.094,1.87,1.87,0,0,0-2.057,1.59h0A24.243,24.243,0,0,0,13.77,64.41Zm28.991-2.9-.187-1.122L37.15,60.3c-.187.748-.094,1.309.748,1.309C39.488,61.511,41.078,61.511,42.761,61.511Zm3.928-2.244c.187-1.777.094-1.964-1.4-1.87-.655,0-1.309.094-1.964.094-.187,1.59-.094,1.683,1.309,1.777Zm27.682,5.05,4.115-.187c0-.748-.094-1.4-.748-1.5-1.122-.094-2.244-.094-3.367-.094Zm-50.782-2.9c.094-.748,0-1.216-.748-1.216-1.309,0-2.712.094-4.021.094-.187,0-.374.281-.561.468.187.187.374.468.561.468,1.59.094,3.18.187,4.77.187Zm-13,.094c2.151-.094,4.115-.094,5.985-.187.468,0,.374-.561.187-.842-3.273-.374-5.144-.094-6.172,1.029Zm25.157-.094c.187-.842,0-1.309-.842-1.309-.935,0-1.964-.094-2.9-.094-1.029,0-1.029.094-.748,1.216ZM24.993,60.2c-.281.842,0,1.216.748,1.216,1.029,0,2.151.094,3.18.094.842,0,.842-.094.655-1.216Zm30.114,1.216c0-.655-.094-1.122-.748-1.122-1.122,0-2.338-.094-3.46-.094q-1.122,0-.561,1.122Zm12.532-.187c.281-.842.094-1.216-.748-1.216-1.029,0-2.151.094-3.18.094-.561,0-1.029,0-1.029.748,0,.655.561.561.935.561C64.926,61.324,66.235,61.324,67.638,61.231Zm-18.891.187c-.094-1.122-.094-1.216-.842-1.216-1.216,0-2.432.094-3.741.187l-.094.935Zm7.575-2.244,3.273.094c0-1.59-.187-1.777-1.5-1.777-.561,0-1.122.094-1.683.094,0,.187-.094.468-.094.655a1.585,1.585,0,0,0,0,.935Zm-37.969-1.4c-.094-.094-.281-.094-.468-.187H16.3c-1.4,0-1.59.281-.935,1.683l2.993-.094Zm23.754,1.4c-.187-1.87-.842-2.244-3.086-1.5l.281,1.4Zm19.265,2.244-.094-1.029c-1.5,0-2.806-.094-4.115-.094-.748,0-.655.468-.468,1.029ZM51.085,57.583h-2.9v1.5l3.367.094Zm21.79,2.525c-1.122,0-2.057-.094-2.993-.094-.748,0-1.029.281-.748,1.122l3.834.094ZM22.655,59.08c-.094-1.777-.374-1.87-2.993-1.5v1.59Zm46.2-.094,3.647.094c-.187-1.309-.187-1.309-1.216-1.4H69.134Zm-8.043.281,3.18-.187-.468-1.4L60.9,57.583ZM35.093,57.4v1.59l2.806.094-.187-1.59ZM27.518,59.08l2.525.094-.281-1.59-2.338-.094Zm-1.4-1.59c-2.057-.374-2.432-.187-2.244,1.4l2.432.094c-.094-.561-.094-1.029-.187-1.5Zm39,1.59H66.7c1.122,0,1.216-.187.748-1.5l-2.525-.094Zm-33.854.187,2.619-.094-.561-1.59-2.151-.094Zm21.51-.094,2.712.094-.842-1.683-1.87.094Zm-38.811-1.5c-1.4-.094-1.4-.094-1.777,1.4h1.777Zm63.407,3.367a2.735,2.735,0,0,0-2.432-.842c-.374,0-.655.468-.561,1.029h1.59A11.731,11.731,0,0,0,77.364,61.044ZM76.055,58.8c-.935-1.122-1.4-1.4-1.964-1.122-.468.281-.468.655-.094,1.122Z" transform="translate(-0.375 -3.622)"/>
  <path id="Path_442" data-name="Path 442" d="M32.2,71.5c.374-1.122.561-2.057.935-2.9.281-.655.935-.748,1.59-.748,1.87-.094,3.741-.094,5.611-.187,3.554-.187,7.108-.374,10.661-.468,1.964-.094,3.928.094,5.892.187a.843.843,0,0,1,.468.094c1.029.374,1.309,1.4,1.964,2.057a4.6,4.6,0,0,1,.561,1.59c-2.057.094-3.834.094-5.7.187H51.839l-13,.281c-1.4,0-2.806.187-4.115.187A11.608,11.608,0,0,1,32.2,71.5Zm1.964-1.964.094.374c7.669.281,15.337-.094,23.1-.094-.748-.935-.748-.935-1.309-1.029-1.029,0-2.151-.094-3.18-.094-1.87,0-3.647.187-5.518.094-4.021-.281-7.949.281-11.971.374C35.006,69.256,34.632,69.443,34.164,69.536Z" transform="translate(-1.971 -4.353)"/>
  <path id="Path_443" data-name="Path 443" d="M11.861,4.5a27.236,27.236,0,0,1,2.9.094c1.122,0,2.244.094,3.367.094,2.993.094,6.079.094,9.071.187,2.432,0,4.863-.094,7.2,0,9.633.094,19.172.281,28.711.374,2.806,0,5.7,0,8.51-.094a1.186,1.186,0,0,1,.561.094c1.216.094,1.4.187,1.5,1.5a4.553,4.553,0,0,0,.094,1.122c.187,5.892.468,11.784.655,17.675.187,5.144.187,10.194.374,15.337a33.391,33.391,0,0,0,.374,4.3c.187,1.309.094,1.5-1.122,1.4-3.18-.094-6.266-.187-9.446-.187C57.78,46.3,50.859,46.3,44.032,46.3c-5.331,0-10.755-.094-16.085-.094H15.321a7.219,7.219,0,0,0-1.4.187,1.126,1.126,0,0,1-1.4-.935,8.374,8.374,0,0,1-.187-2.151v-5.7c-.094-4.582-.187-9.071-.374-13.654-.094-3.086-.187-6.079-.281-9.165-.094-2.993-.187-6.079-.374-9.071A1.855,1.855,0,0,1,11.861,4.5Zm2.151,40.307a3.182,3.182,0,0,0,.935.094c6.266.094,12.438.094,18.7.187l27.963.281c3.554,0,7.108,0,10.755-.094,1.122,0,1.309-.187,1.309-1.216-.094-4.582-.094-9.071-.187-13.654-.094-5.331-.281-10.661-.468-15.9-.094-2.151-.187-4.3-.281-6.546-.094-1.029-.281-1.216-1.4-1.216-1.87-.094-3.741-.094-5.611-.094-3.647-.094-7.295-.281-11.035-.281L34.119,6.09c-6.733-.187-13.467-.374-20.107-.468a2.731,2.731,0,0,0-.842.187C12.7,7.773,13.638,42.376,14.012,44.807Z" transform="translate(-0.617 -0.292)"/>
</svg>
