<svg clip-rule="evenodd" fill-rule="evenodd" stroke-linejoin="round" stroke-miterlimit="2" viewBox="0 0 39 31" xmlns="http://www.w3.org/2000/svg"><path d="m38.1 3.7c-1.4.6-2.9 1-4.5 1.2 1.6-1 2.9-2.5 3.4-4.3-1.5.9-3.2 1.6-5 1.9-3-3.1-7.9-3.3-11.1-.3-2 1.9-2.9 4.8-2.3 7.5-6.1-.4-12-3.4-15.9-8.3-2.1 3.6-1.1 8.2 2.4 10.5-1.2 0-2.5-.4-3.5-1v.1c0 3.7 2.6 6.9 6.3 7.7-.7.2-1.4.3-2.1.3-.5 0-1 0-1.5-.1 1 3.2 4 5.4 7.3 5.4-2.8 2.2-6.2 3.4-9.7 3.4-.6 0-1.2 0-1.9-.1 3.6 2.1 7.7 3.4 12 3.4 14.4 0 22.2-11.9 22.2-22.2v-1c1.5-1.2 2.9-2.6 3.9-4.1z" fill="#000000"/></svg>