<svg xmlns="http://www.w3.org/2000/svg">
  <path id="Path_421" data-name="Path 421" d="M9.85,177.46c-1.723-5.313-3.446-10.626-5.169-16.01-1.651-11.99-5.169-24.841-2.3-34.533-3.231-9.19-2.872-22.256-.359-30.441.5-1.508,2.3-2.728,2.728-4.236.359-1.436-.79-2.441-.574-3.877.862-5.241,5.528-13.713,7.538-18.738,1.005-2.585,2.369-6.677,5.169-9.118-1.077-1.723.5-2.154-.574-3.877,11.7-10.338,16.441-24.195,34.82-31.015,1.938.933,4.451.574,6.1,2.082,10.554-3.231,17.446-9.549,26.708-11.99a9.86,9.86,0,0,0,1.867-2.656c33.887-14.359,66.7-16.585,93.046-8.328,1.651,3.087,4.954,2.944,8.328,2.728,1.938,3.733,8.113,3.59,8.041,8.041-6.677-4.81-10.267-4.954-18.092-8.687-.287,1.938-7.323-2.441-7.179-2.728-5.456,1.149-12.277,0-14.287-2.226-4.738.431-8.472,1.795-10.123-.287-.933.359-2.226.072-2.082,1.005-6.677-2.944-15.508,3.374-20.174.574-1.149,3.231-8.974.215-12.133,4.451-3.374-1.221-8.041,3.805-12.708,2.728-1.723,1.005,1.005,1.149.79,2.441-2.369-2.226-8.041,1.005-10.482,1.795,3.015,1.651,2.154,4.236,5.1,6.749-.359.718-1.579.933-1.436,1.795-.144,2.226,2.154-.144,2.01,2.082,2.728-1.364,3.877-1.579,4.882.431.5-.574.144-1.651,1.436-1.795.072.5-.431.79-.215,1.436,10.051-2.656,16.154-.287,24.985-2.656-1.795,1.867.646,1.867.646-.215,1.436,1.005,4.236,2.01,4.092.072,4.164.933,8.759,2.513,13.282-.862,4.595,5.313,13.569-3.374,17.087,4.667,1.651-3.518,3.3.431,5.528-1.795a3.189,3.189,0,0,0,0,2.01c4.092-.933,9.262,5.672,12.779,6.031,2.441,4.81,4.02,6.1,6.462,7.395.072,1.005-1.221-.215-1.005,1.005.574,2.154,2.226-.79,1.436,2.226.79,1.292.718-1.077,2.01,0,1.723-.359-1.723-3.231,1.077-3.087,2.154.431-.646,6.174-.862,3.662,2.082,5.6,8.687,8.9,12.349,15.005-.5.072-.79-.431-1.436-.215,5.1,4.738,6.39,8.185,10.267,12.995.574-.215.215-.933.215-1.436,1.508-.144.862,3.662-.646,2.226.359.5,2.226,2.728,2.226.646,4.523,8.544,6.031,26.42,14.646,30.585.431,4.738,1.364,12.277-.933,13.856.933.862,1.077,3.3,2.872,2.513.144,2.3.431,4.667-2.3,5.528,3.877,3.733.144,8.615,2.728,12.708-4.451-4.523-.431,5.241-1.077,9.19-.359,2.226-1.938,1.579-1.651,3.231.287,1.938,2.944,2.585,2.01,4.092-2.441,1.005-.144-.862-1.436-2.226-3.159.718,1.436,5.026-2.3,3.446.144.79,1.795,5.6-.862,5.744,4.021,1.364.5,6.462,5.887,5.6-2.585.144,4.595-5.169,2.3-7.538,3.087-.215.718-1.651,4.092-2.01-4.738,14-10.985,27.21-22.4,37.764.933-2.369,3.015-6.462,5.385-6.462-.646-1.579-1.938-1.579.646-2.226-.215-.574-.933-.215-1.436-.215,1.149-.359,2.441-2.226,3.518-1.795,2.082-4.38,5.528-8.113,6.677-12.995-.79-.431-1.651-.862-2.441-1.221,2.082,1.938-2.3,3.231-4.954,1.579.072,1.867,1.364,1.292,1.579,2.872-3.3,2.585-5.959,5.456-5.6,9.979a16.238,16.238,0,0,0-7.036,11.774c-4.451,1.508-1.005,3.662-5.385,4.451,2.656,2.585-2.944,5.241.144,4.667.287,1.508-2.3.718-2.656.144-8.185,9.19-21.179,25.774-36.4,28.072-.431.79-.862,1.651-1.221,2.441-6.031-.646-16.369,7.826-21.036,2.082-1.723,1.005,1.005,1.149.79,2.441-.072.359-4.451-3.446-4.021-4.092a18.54,18.54,0,0,1-1.867.574c-.646.862.574.933-.646,2.226-1.579,1.077-1.867-.359-3.3.359-.215-1.938,1.508.144,2.441-.79-3.877-3.015-7.9.79-11.272,2.944-.933-2.513,3.662-2.226,1.651-5.313-1.005-1.723-1.149,1.005-2.441.79-.359-.287.431-1.795,1.221-2.441-1.651-2.3-2.3,2.513-4.667.144-1.292.215.718,1.723,1.221,1.651.072,2.01-1.364-1.149-2.656.144.287,1.364,1.149,1.795,2.441,1.221.287,1.508-1.221,1.938-2.226,1.436-.144,2.872,3.374-1.221,3.231,1.651-2.872.215-1.364,2.728-3.733,3.231.646-3.518-2.513-7.179-3.59-6.964-.287-.79-3.733.359-2.3,3.446,1.579-.359,1.077-1.867,1.867-2.656,1.149.5,2.154,1.867,1.579,2.872-2.154-2.441-1.938,2.369-4.092-.072-1.22,1.364-.431,2.441.574,3.877,1.364-3.087,4.308,0,6.749-.144,1.508-.072,4.595-2.082,7.826-3.159-3.374,1.149,3.159.215,3.518-1.795.072,1.723-.431,3.231-2.872,3.662.431.79,1.723,0,2.656-.144,1.867-.718-.287-3.59,2.082-4.092,1.579,3.231-2.01,3.805-2.082,6.1.215,1.292,1.723-.718,1.651-1.221,1.579-.431.862,2.01.79,2.441.574-1.005.862-.574,1.867-.574.072.718-1.077.79-.862,1.651,2.872-.933.574-2.154.072-4.092.215,2.01,3.231-.287,4.882.431.5.215-3.59,2.585,1.436,2.226,2.082-.144,4.738-1.723,5.528-1.795.718-.072,1.723,1.436,1.795,1.436,6.749-.862,13.928-6.318,20.677-5.313-1.292-2.728,8.256-3.59,13.928-7.251,2.656-1.651,3.159-4.738,6.174-4.02-.215-3.087,11.415-5.815,12.349-8.041,1.795-4.164,7.682-4.236,10.267-6.031.287-.646-1.149-3.59,1.292-4.451.79,1.221-.862,1.221-.646,2.226,1.364,1.149.862-2.944,3.877-2.585.144-1.436-3.518-.215-1.795-1.436,1.292.718,5.528-2.8,5.169-7.108,1.938-.072,1.005.718,1.436,2.226,1.077-.359.646-4.021,2.656-2.226.359-2.513,1.723-5.672,4.308-5.456-.79-.431-1.651-.862-2.441-1.221,2.728-.718,2.585-1.005,5.313-2.369-.359-.646-.718-.144-.646.215-1.436.431-.287-1.723.862-1.651-.072-1.867-1.364-1.292-1.579-2.872,1.005.359,1.723,1.292,3.087,1.077,1.364-.646,1.579-7.251,2.3-3.446.718-.5.646-1.364,1.436-1.795a1.732,1.732,0,0,0-1.795-1.436c1.651,0,4.451-3.231,3.733-7.323,2.728,2.8.933-2.728,3.662-1.221-.718-.359-.933-1.579-1.795-1.436,4.595-2.728,2.226-8.328,7.467-10.554-.215-.862-.431-1.795-1.221-1.651-.072-.933,1.077-.431,1.436.215.862-4.451,6.031-13.569,4.667-19.169,3.015-3.518,2.082-5.887,1.938-10.841,2.728,1.364,1.795-12.133-2.082-16.944-.718,1.149-2.226,1.579-1.436-.215-.718,1.723-3.805,4.882-1.292,6.533-3.662,7.754-.072,26.277-6.462,32.595.215-3.518,2.8-7.108,3.59-11.99,1.292-8.041-.718-18.954.431-23.908.862-3.662,5.241-7.826,8.4-3.374,4.738,6.533-.431,16.226,1.651,21.9-3.3,16.656-10.41,31.3-17.015,46.236-11.056,13.426-19.241,30.441-35.108,40.492-2.8,1.795-6.462,2.01-9.62,3.805-8.472,4.738-13.785,12.062-25.487,15.723-1.22.431-2.441.79-3.662,1.221-10.267,2.226-20.246,5.744-30.513,6.462-13.569.933-31.087,4.236-37.333-8.328-11.846-2.513-24.195-5.241-35.251-10.338-4.021-1.867-6.677-5.026-10.338-6.821-3.805-1.938-8.041-1.867-11.631-4.379C27.3,210.414,20.332,193.9,9.85,177.46ZM214.034,84.414c-5.887-15.795-17.805-23.979-25.415-34.533-3.159-4.451-7.969-6.605-9.908-13.785-4.092-3.949-9.692-5.169-13.785-9.118-8.759-.79-19.959-2.944-31.877-1.938-6.892.574-13.641,0-20.246.431-3.877.215-7.754,2.082-12.062,2.513-16.8,1.867-32.092.646-38.123,14.359-1.221,1.867.718,3.446.144,4.667-2.872,1.579-3.231-1.077-5.1,1.005-1.005,4.379-4.738,5.528-7.467,8.544-16.585,18.379-19.815,42.79-30.01,64.687C13.871,106.527,19.4,93.46,21.624,81.4c-8.544,2.082-7.682,10.267-10.41,18.308-1.436,4.308-4.092,10.267-3.805,13.426.287,3.805,2.944,8.615,3.518,13.138.79,5.887.287,12.636,1.436,19.241,2.082,11.774,8.185,29.005,12.492,40.779,5.6,15.22,18.308,19.241,27.569,26.42,1.149.862,2.656,4.523,4.882,2.513-.5-4.738-11.846-10.195-7.179-16.01,1.579,1.579,4.236,1.077,4.882,4.523,15.579,5.672,29.077,15.436,43.938,22.472,13.569,2.585,26.492,6.39,40.564,7.969,2.369,2.369,5.6,3.087,8.328,4.81,14.072-4.595,28-10.769,38.985-18.02.933-5.385,4.738-9.19,10.338-12.133,20.39-25.99,29.723-57.651,26.061-95.99,1.508-2.01,1.58-4.667,1.723-7.323C216.834,101.932,217.48,93.532,214.034,84.414ZM22.7,74.219c-.287-.431-.431-1.221-1.005-1.005.287,1.436.862,2.3,2.01,2.082,0-.5.287-.862,1.005-1.005C24.5,70.845,20.4,67.4,20.045,70.342,21.84,69.265,23.778,73,22.7,74.219Zm6.246,4.738c-2.01.072,1.723-1.077-.144-2.656-1.867.79-1.867,2.513-2.872,3.662C27.153,78.67,29.019,80.968,28.947,78.957Zm1.508-5.887c-.215-1.651,2.3-4.451-.79-4.523a1.792,1.792,0,0,1-.646,2.226c-2.369-1.221-.144-2.728.072-4.092-2.3.574-3.231,4.451-1.651,5.313C27.727,69.84,29.163,73.788,30.455,73.07Zm-1.364-8.4c-.79-2.3-1.221-1.508-1.221-3.662-1.579,1.077-1.867-.359-3.3.359C25.717,63.306,26.363,66.034,29.091,64.67Zm6.821-4.236a.655.655,0,0,1-1.221.431c.072-1.938,2.656-.646,3.662-1.221-.431-1.149.072-1.436,1.005-1.005-.215-1.579-1.579-1.005-1.579-2.872,1.723.431,1.579.933,3.3-.359-.5-1.651-1.077-3.3-1.579-4.954.646-.718,4.164-2.585,1.651-3.231-1.221,1.579-2.8,3.015-3.949,4.667,0,1.508,3.446,1.077,1.579,2.872-1.508.287-1.292-2.8-3.231-1.651,1.795,1.795.933,4.308-.072,6.1-1.149,0-.862-2.944-2.226-2.656-.072,2.154,1.292,5.1-1.508,5.887-.215-.646-.718-.574-1.005-1.005.718-.359,1.795-.431,1.651-1.221-1.508,1.005-1.651-.79-2.872-.431-.215,5.6,5.026,3.518,6.533,3.3C33.47,62.516,38.353,61.368,35.911,60.434ZM90.4,23.173c1.579-.359,1.651-1.579,1.867-2.656-1.795.431-2.3-1.436-3.877-1.436C88.968,22.24,92.27,20.158,90.4,23.173Z" transform="translate(-0.05 0.059)" fill="#c1baac" fill-rule="evenodd" opacity="0.275"/>
</svg>
