<svg xmlns="http://www.w3.org/2000/svg">
  <path id="Path_407" data-name="Path 407" d="M907.617,165.8c0,.18-.434.18-.868.18a2.606,2.606,0,0,1-.868-.18c0-.18.434-.18.868-.18S907.617,165.619,907.617,165.8ZM440.99,161.65c-.434.18.434.361,1.736.361,1.736,0,1.736-.18.868-.361A4.217,4.217,0,0,0,440.99,161.65Zm582.959-.541c2.17,0,1.3-.541-.868-.541-2.6,0-4.775.18-4.775.541C1018.306,161.29,1019.174,161.29,1023.949,161.109Zm-119.8,4.51a2.6,2.6,0,0,0-.868.18c0,.18,0,.18.434.18a2.6,2.6,0,0,0,.868-.18C904.579,165.619,904.145,165.619,904.145,165.619Zm113.293-4.51c0-.18-.434-.18-1.3-.18a3.708,3.708,0,0,0-1.3.18c0,.18.868.18,1.3.18S1017,161.109,1017.438,161.109Zm-550.837.722c-.868.361.434.541,2.6.361,2.17,0,3.038-.18,1.3-.541A9.143,9.143,0,0,0,466.6,161.831Zm394.137,3.247c-2.6,0-3.038.18-2.17.722a3.931,3.931,0,0,0,3.473-.18C862.908,165.078,862.908,165.078,860.738,165.078Zm35.594.722a21.752,21.752,0,0,0-2.6.18c0,.18.868.18,2.17.18s2.17-.18,2.6-.18A11.759,11.759,0,0,0,896.332,165.8Zm-140.639-.18c0,.18.434.18,1.3.18a9.786,9.786,0,0,0,1.736-.18c0-.18-.434-.18-1.3-.18C756.56,165.259,755.692,165.439,755.692,165.619Zm-343.351-3.789c-.434.18.434.361,1.736.361,1.736,0,1.736-.18.868-.361A6.238,6.238,0,0,0,412.341,161.831Zm586,3.969c-.434,0-.434.18-.868.361,0,.18,0,.18.434.18C998.773,166.161,999.207,165.8,998.338,165.8Zm31.687-5.232a17.208,17.208,0,0,0-3.039.18c.434.361,3.907.361,5.209,0C1032.63,160.568,1032.2,160.568,1030.026,160.568Zm-46.88,5.412s0,.18.868.18.868,0,.434-.18A1.634,1.634,0,0,0,983.146,165.98Zm-22.138-.361c-.434,0-.434.18-.434.18,0,.18.434.18.434.18.434,0,.434-.18.434-.18C961.442,165.619,961.008,165.619,961.008,165.619Zm17.8.541a5.706,5.706,0,0,0,3.473,0c0-.18,0-.361-.434-.361C980.542,165.619,978.371,165.8,978.805,166.161Zm97.666-1.263c-.434-.18-68.583-.18-68.583,0s.434.18.434.18a3.257,3.257,0,0,1,1.3.18,5.7,5.7,0,0,1,1.736.18c.868,0,1.3.18.868.361,0,.18-.434.541,0,.541.434.18,4.341.361,4.341,0l-1.736-.361c-.868-.18-1.736-.361-1.736-.541s37.764-.18,42.973,0c.868,0,3.472,0,5.643-.18,2.17,0,6.077-.18,8.681-.18C1075.6,165.259,1076.905,165.078,1076.471,164.9Zm-32.555,2.165c-.868.18.868.722,3.473.722a10.655,10.655,0,0,0,4.341-.722C1052.163,166.7,1045.652,166.7,1043.916,167.063Zm-20.4-.9c-.868,0-.868.18-.868.18,0,.18.868.18,1.3.18a2.607,2.607,0,0,0,.868-.18C1024.817,166.161,1024.383,166.161,1023.515,166.161Zm5.209,0s0,.18.868.18.868,0,.434-.18Zm259.141.18a2.606,2.606,0,0,0-.868.18c0,.18,0,.18.434.18a2.61,2.61,0,0,0,.868-.18C1288.732,166.521,1288.3,166.341,1287.864,166.341Zm-95.5-7.4-.434-.18c-.434,0-.434.18-.434.18,0,.18.434.18.434.18Zm-27.78.541c.868-.18.434-.18-.869-.18a9.789,9.789,0,0,0-1.736.18C1161.983,159.846,1163.286,159.846,1164.588,159.485Zm59.468,7.577c-.434,0-.434.18-.434.18,0,.18.434.18.434.18.434,0,.434-.18.434-.18C1224.49,167.063,1224.056,167.063,1224.056,167.063Zm-64.677-7.577c0-.18,0-.18-.434-.18s-.868.18-1.3.18c0,.18,0,.18.434.18C1158.511,159.846,1159.379,159.666,1159.379,159.485Zm62.506-.722c0-.18-.434-.18-.868-.18s-.868.18-1.3.18c0,.18,0,.18.868.18C1221.451,159.125,1221.885,158.944,1221.885,158.764Zm-97.666,1.082h-1.3q0,.271,1.3,0Zm118.936,7.036c-5.643,0-7.379.18-6.945.361s4.775.18,8.681.18C1247.5,167.243,1246.194,166.882,1243.155,166.882Zm-93.76-7.036c0-.18-.868-.18-1.736-.18s-1.736.18-1.3.18c0,.18.868.18,1.736.18A3.706,3.706,0,0,0,1149.4,159.846Zm-19.1-.361c-.434-.361-3.038-.361-4.341.18-1.3.361-1.3.361.434.18.868,0,2.171-.18,3.039-.18C1130.3,159.846,1130.73,159.666,1130.3,159.485Zm6.077.361c0-.18-.434-.18-1.3-.18-1.3,0-1.3,0-.434.18S1136.373,160.027,1136.373,159.846Zm7.813,0c0-.18-.868-.18-1.736-.18a3.706,3.706,0,0,0-1.3.18c0,.18.868.18,1.736.18C1144.187,160.027,1144.62,160.027,1144.187,159.846Zm128.051,6.856c-5.209.18-5.642.18-3.038.361a44.239,44.239,0,0,0,6.945,0c.434,0,.434-.18.434-.361A27.816,27.816,0,0,0,1272.238,166.7Zm29.083-.361a21.76,21.76,0,0,0-2.6.18c0,.361,3.039.361,4.341,0C1303.925,166.341,1303.491,166.341,1301.321,166.341Zm6.945-.18a3.7,3.7,0,0,0-1.3.18c0,.18.868.18,1.3.18a3.71,3.71,0,0,0,1.3-.18C1309.568,166.161,1309.134,166.161,1308.266,166.161Zm16.061,0s0,.18.868.18.868,0,.434-.18Zm24.742-.361a7.22,7.22,0,0,0-2.171-.18c-.868,0-3.038.722-2.17.9a28.59,28.59,0,0,0,3.906-.361C1349.5,166.161,1349.937,165.98,1349.069,165.8Zm-12.154,0c-.868,0-.868.18-.868.18,0,.18.868.18,1.3.18a2.606,2.606,0,0,0,.868-.18A3.707,3.707,0,0,0,1336.914,165.8ZM401.49,161.831c-.434.18.434.361,1.736.361,1.736,0,1.736-.18.868-.361A6.238,6.238,0,0,0,401.49,161.831Zm854.253,5.051a2.605,2.605,0,0,0,.868.18c.434,0,.868-.18.434-.18C1257.046,166.521,1255.743,166.7,1255.743,166.882Zm39.935-.541a2.609,2.609,0,0,0-.868.18c0,.18,0,.18.434.18a2.606,2.606,0,0,0,.868-.18C1296.546,166.521,1296.112,166.341,1295.678,166.341Zm-174.5-6.495c0-.18-7.379-.541-6.945.18C1114.67,160.568,1121.615,160.027,1121.181,159.846Zm-53.825.722c0-.18-.434-.18-.434-.18a2.6,2.6,0,0,0-.868.18c0,.18,0,.18.434.18S1067.356,160.748,1067.356,160.568Zm183.178,6.495c-.868.18-.868.18-.434.361,1.3.361,4.775.361,4.775,0S1251.836,166.7,1250.534,167.063Zm40.8-.361s0,.18.868.18.868,0,.434-.18Q1291.337,166.431,1291.337,166.7Zm-146.716.361c-.434,0-.434.18-.434.18,0,.18.434.18.434.18.434,0,.434-.18.434-.18C1145.055,167.063,1145.055,167.063,1144.62,167.063Zm-6.511.361a2.607,2.607,0,0,0,.868.18c.434,0,.868-.18.434-.18C1138.978,167.063,1138.11,167.243,1138.11,167.424Zm9.116-.361a2.607,2.607,0,0,0-.868.18c0,.18.434.18.868.18a2.6,2.6,0,0,0,.868-.18A2.607,2.607,0,0,0,1147.225,167.063Zm-30.385.361c0,.361.434.361,1.736,0,.868-.18.434-.18-.434-.18C1117.274,167.063,1116.84,167.243,1116.84,167.424Zm42.1.18c0,.18,21.27.722,23.006-.18s-14.759,0-18.231,0C1161.549,167.424,1158.945,167.424,1158.945,167.6Zm-1.736-.18c-1.3,0-1.736.18-.868.541.434.18,2.17,0,2.17-.361C1158.511,167.424,1158.077,167.424,1157.209,167.424Zm-103.309-.361s0,.18.868.18.868,0,.434-.18Q1053.9,166.792,1053.9,167.063Zm23.44-6.675c.868-.18.868-.18-1.736-.18-.434,0-.434.18-.868.18A5.952,5.952,0,0,0,1077.339,160.387Zm-19.533,6.856a35.86,35.86,0,0,0,6.511.361c5.643,0,13.89-.361,14.324-.541.868-.18,0-.18-2.171-.18S1056.5,167.063,1057.806,167.243Zm33.423,0c0,.18.434.361.434.18.434,0,.434-.18.434-.361C1091.664,166.7,1091.23,166.7,1091.23,167.243Zm-3.473-.18a5.7,5.7,0,0,0-1.736.18c-.434.18,0,.18,1.3.18C1088.191,167.243,1088.625,167.243,1087.757,167.063Zm3.907-7.036c-.434-.361-.868-.361-.868.18,0,.18.434.361.434.18C1091.664,160.387,1092.1,160.207,1091.664,160.027Zm-3.907.18h0Zm128.485,4.33H1095.136c-13.456,0-14.324,0-15.626.18-2.6.361,1.3.541,13.022.541,6.945,0,12.588,0,13.022.18a10.338,10.338,0,0,0,3.473,0c2.17-.18,58.166-.18,64.677-.18.868,0,5.643,0,10.418-.18,4.775,0,14.758-.18,22.138-.18,8.247,0,13.89-.18,13.89-.18S1218.413,164.537,1216.243,164.537Zm-103.743-4.51c0-.18-.868-.18-1.3-.18q-1.953,0-1.3.541A5.541,5.541,0,0,0,1112.5,160.027Zm-15.193,0c-.434-.18-1.3-.18-1.3.18a2.605,2.605,0,0,0,.868.18C1097.307,160.387,1097.307,160.207,1097.307,160.027Zm7.379,0c0-.18-.434-.18-.434-.18-.434,0-.434.18-.434.18,0,.18.434.18.434.18C1104.252,160.387,1104.686,160.207,1104.686,160.027Zm90.721,7.216c-.434.18-1.736.541-.434.722a35,35,0,0,0,7.813-.361A44.91,44.91,0,0,0,1195.407,167.243Zm22.572-.18c-.434,0-.434.18-.434.18,0,.18.434.18.868.18s.868-.18.434-.18A2.606,2.606,0,0,1,1217.979,167.063Zm-32.99.541c0,.18.434.18,1.3.18.435,0,1.3-.18,1.736-.18,0-.18-.434-.18-1.3-.18S1184.989,167.424,1184.989,167.6Zm28.215,0c0,.18,0,.361,1.3.18.868,0,1.3-.18,1.3-.361C1215.374,167.063,1213.2,167.243,1213.2,167.6Zm-4.341-.541a2.607,2.607,0,0,0-.868.18c0,.18.434.18.868.18a2.606,2.606,0,0,0,.869-.18S1209.732,167.063,1208.863,167.063ZM1149.829,5.775c3.473-.18,3.473-.361,2.6-.722s-5.643,0-5.643.361C1147.225,5.956,1147.659,5.956,1149.829,5.775ZM901.54,3.43c3.473,0,8.682,0,11.72.18,6.077.361,19.1.361,61.638.722,15.627,0,28.649.18,28.649.18a76.874,76.874,0,0,0,9.115-.18c1.3-.361,0-.9-2.17-.722H972.728c-1.3,0-11.286-.18-23.006-.18-11.286-.18-23.874-.18-27.347-.361-22.138-.361-29.083-.361-27.781.361C895.463,3.43,898.5,3.61,901.54,3.43ZM972.294,6.5c0,.18.434.18,1.3.18s.868-.18.868-.18c0-.18-.868-.18-1.3-.18S972.294,6.316,972.294,6.5Zm-31.253-.722c-2.17,0-3.907-.18-4.341-.18a10.7,10.7,0,0,0-2.6-.18c-1.3,0-3.038-.18-3.906-.18-1.736-.18-2.17-.18-2.17.18s-.868.541-2.17.361a8.947,8.947,0,0,1-2.6-.18c-.868-.18-22.138,0-23.006.18-.434,0-.434.18,0,.361s6.077.361,18.231.361c9.55,0,23.44.18,30.385.361s13.456.18,14.324.18,2.6-.18,3.473-.18c3.038,0,2.17-.361-1.3-.541C961.876,5.956,946.684,5.595,941.041,5.775Zm29.083.541-.434.18c0,.18.434.18.434.18.434,0,.434-.18.434-.18C970.558,6.316,970.124,6.316,970.124,6.316Zm-77.265-.9a20.74,20.74,0,0,1-4.775,0,49.359,49.359,0,0,0-6.511-.361c-5.643-.18-27.347-.18-27.781,0-.868.361,1.736.541,14.324.541,13.456,0,22.572.18,23.006.361s6.511.18,6.945-.18c0-.18,0-.361-.434-.541C896.332,5.234,895.463,5.234,892.859,5.414ZM520.425,1.265c.434-.361,0-.541-1.3-.361-.434,0-.868.18-.434.361A1.528,1.528,0,0,0,520.425,1.265Zm531.738,3.428a14.071,14.071,0,0,0,3.907,0c.868,0,2.17-.18,2.6-.18a2.605,2.605,0,0,0,.868-.18c0-.18-1.3-.18-3.472-.18h-4.341c-.434,0-1.3,0-1.3.18Zm13.456.18h2.17c.868,0,1.736-.18,2.6-.18a3.706,3.706,0,0,0,1.3-.18c0-.361-5.643-.361-6.511,0,0,.18,0,.361.434.361Zm9.115-.361c.868,0,.868-.18,0,0,0-.18-.434-.18-.868-.18A2.605,2.605,0,0,0,1074.735,4.512Zm-56.429-.18c0,.18.868.361,3.472.541h5.643c1.3,0,6.077-.18,10.852-.18,10.417-.18,13.022-.541,5.209-.722-3.907-.18-23.874,0-25.176.18Zm-2.6-.18c.434,0,.434-.18.434-.361s-.434-.361-.434-.18c-.434.18-.434.18-.434.361S1015.7,4.152,1015.7,4.152Zm45.577.541c.868-.18.868-.361-.434-.361-.434,0-.868.18-.434.18C1060.411,4.693,1060.845,4.693,1061.279,4.693Zm-727.5-3.247c0-.18-.434-.18-.868-.18s-.868.18-.434.18c0,.18.434.18.868.18C333.34,1.806,333.774,1.626,333.774,1.445ZM87.656,24.538a22.119,22.119,0,0,0,3.473,0c2.17,0,1.736-.722.434-1.082-1.736-.361-6.077,0-4.775.361C87.222,23.816,86.787,24.358,87.656,24.538Zm-10.852.18c1.736,0,2.6-.722,1.736-.9a11.208,11.208,0,0,0-3.473,0C74.2,24,74.633,24.718,76.8,24.718Zm6.511-.361a2.537,2.537,0,0,0,.868-.18c1.3-.18,1.3-.541-.434-.541s-2.6.361-1.3.541A2.605,2.605,0,0,1,83.315,24.358Zm-20.4-.18c6.945.361,7.813.18,7.379-.18-1.3-.722-15.193-1.443-18.231-.9-1.736.361-3.038,1.443,2.17,1.624C56.836,24.718,61.611,24,62.913,24.177Zm11.72,16.417c0-.361-4.775-.541-6.077,0-.868.361,1.3.9,1.736.9A24.671,24.671,0,0,0,74.633,40.595Zm100.7-35.541h7.813c3.039,0,9.116,0,13.89-.18,4.775,0,9.984-.18,11.72-.18,4.341,0,6.511-.18,6.077-.361,0-.361-1.736-.361-6.077-.18-2.17,0-5.209.18-6.945,0H185.756c-13.89-.361-17.363-1.624-20.4-.18s4.775.722,4.775.722A25.313,25.313,0,0,0,175.338,5.054Zm26.044.9c0,.18.434.18.434.18.434,0,.434-.18.434-.18,0-.18-.434-.18-.434-.18ZM98.073,26.342c0,.361,2.17.361,4.341,0,1.3-.18.868-1.082-1.3-1.082A4.173,4.173,0,0,0,98.073,26.342Zm2.17-2.526c1.3-.361.434-.541-2.17-.361-1.736.18-2.17.18-1.736.361A7.185,7.185,0,0,0,100.244,23.816ZM116.3,11.368c.868,0,2.17-1.263,3.038-1.263.868-.18.868-.361-.868-.361-1.3,0-2.6.18-3.039.18C114.568,10.285,115,11.368,116.3,11.368ZM34.7,45.826c1.736-.18,4.775.361,6.077.18s1.736-.9,1.736-1.082c-.434-.361-13.89-1.8-10.418,1.082C32.094,46.187,33.4,46.007,34.7,45.826ZM1091.23,5.054c.434.18,2.6-.361,3.473-.361,1.3,0,1.3,0,.434-.18a8.827,8.827,0,0,0-2.17-.18C1091.664,4.332,1090.8,4.873,1091.23,5.054ZM1282.655,6.5a3.7,3.7,0,0,0,1.3-.18c0-.18-.434-.18-.868-.18s-.868.18-1.3.18S1281.788,6.5,1282.655,6.5Zm-39.066,0c-.434-.18-1.3-.18-1.3.18a2.607,2.607,0,0,0,.868.18C1243.589,6.677,1243.589,6.677,1243.589,6.5ZM1192.8,6.136a6.875,6.875,0,0,0-3.907-.361c-.434.18-.434.361-.434.541C1188.9,6.677,1193.237,6.5,1192.8,6.136Zm19.1.18c.434-.18,0-.361-2.17-.361h-5.209c-2.6,0-5.209.361-4.775.541S1211.034,6.5,1211.9,6.316Zm524.359,26.16h-2.17c-.434,0,0,.722,1.3.722C1736.261,33.2,1736.695,32.476,1736.261,32.476Zm11.72,30.309c1.736-.541,1.736-.9-.868-.9q-1.954,0-1.3.541A2.748,2.748,0,0,0,1747.98,62.785Zm3.907,25.618c0-.18,0-.361-.434-.361-1.3-.18-1.736,0-1.3.361A2.851,2.851,0,0,0,1751.887,88.4Zm-23.005-34.1c-1.3.361-1.3.361.868.361a12.034,12.034,0,0,0,3.472-.361C1734.09,53.765,1731.486,53.765,1728.881,54.306Zm6.511-.18c.434.361,5.209.18,5.209-.18a4.429,4.429,0,0,0-2.171-.541C1736.695,53.584,1734.958,53.945,1735.392,54.125ZM1186.726,5.956c.434-.361-1.3-.541-2.6-.361a2.76,2.76,0,0,1-1.736,0,1.634,1.634,0,0,0-1.3,0c-.434.18-.434.18,0,.361C1181.951,6.316,1186.292,6.316,1186.726,5.956Zm41.236.361a37.676,37.676,0,0,0,6.511,0c.434-.18-.434-.18-1.736-.18a25.324,25.324,0,0,1-3.906-.18C1226.66,5.595,1226.226,6.136,1227.962,6.316ZM1098.175,5.234c1.3,0,1.3-.541-.434-.722-.434,0-.868,0-.868.361C1096.873,5.054,1097.307,5.234,1098.175,5.234ZM1092.1,6.316a2.606,2.606,0,0,0,.868-.18c0-.18-.434-.18-.434-.18a2.605,2.605,0,0,0-.868.18S1091.664,6.316,1092.1,6.316Zm14.324-.722c.868-.18.868-.18,0-.18a14.766,14.766,0,0,1-2.171-.361c-.868-.361-1.3-.361-1.3.18C1103.384,5.775,1104.686,5.956,1106.422,5.595Zm-17.8-.722c0-.18.868-.18.868,0,.434.18.434,0,.434-.18-.868-.541-5.643-.361-5.643,0S1088.191,5.234,1088.625,4.873Zm-7.813.18c1.3,0,3.039-.361,2.6-.541a10.068,10.068,0,0,0-3.473.361A2.606,2.606,0,0,0,1080.812,5.054ZM1173.7,6.136c3.039.18,3.907.18,4.341-.361,0-.18,0-.361-1.3-.361a12.658,12.658,0,0,1-2.6-.18,4.325,4.325,0,0,0-2.17,0C1170.665,5.595,1171.1,5.956,1173.7,6.136Zm-62.94-.9c0-.361-1.736-.9-2.6-.722s-.868.18-.434.541C1108.593,5.595,1110.763,5.595,1110.763,5.234Zm50.352.541a9.79,9.79,0,0,0,1.736-.18c0-.18-.869-.18-1.736-.18a9.784,9.784,0,0,0-1.736.18C1158.945,5.595,1159.813,5.775,1161.115,5.775ZM1351.673,165.98c-.434,0,0,.722,1.3.722s1.736-.722,1.3-.722A6.238,6.238,0,0,0,1351.673,165.98ZM1123.351,5.775a8.213,8.213,0,0,0,3.039,0c1.3,0,3.038-.18,3.906-.18s.868,0,.434-.18a24.989,24.989,0,0,0-5.209-.361c-2.6,0-4.775-.18-4.775-.18a5.694,5.694,0,0,0-1.737.18,6.379,6.379,0,0,1-2.6.18c-1.3-.361-4.341-.18-3.907.18,0,.18,2.6.18,5.209.18C1120.747,5.595,1122.917,5.775,1123.351,5.775Zm21.7-.18c.434-.361,0-.361-2.17-.361-2.6,0-3.039.18-3.039.541S1144.62,5.956,1145.055,5.595ZM247.394,161.47c0,.18,0,.18.434.18a2.605,2.605,0,0,0,.868-.18c0-.18,0-.18-.434-.18A2.606,2.606,0,0,1,247.394,161.47Zm-70.32,2.165c-.434,0-.434.18-.434.18,0,.18.434.18.434.18.434,0,.434-.18.434-.18S177.508,163.635,177.074,163.635Zm108.952-1.443c-.434,0-.434.18-.434.18l.434.18c.434,0,.434-.18.434-.18C286.461,162.192,286.461,162.011,286.027,162.192Zm-129.353.18c-.868.18-.434.18.434.18a3.708,3.708,0,0,0,1.3-.18C158.409,162.011,157.541,162.011,156.673,162.372Zm5.209,1.443c-2.17.9,9.984.18,11.286.18s1.736,0,.868-.18C174.036,163.815,164.486,162.733,161.882,163.815Zm48.616-2.706c-.434,0-.434.18-.434.18,0,.18.434.18.434.18.434,0,.434-.18.434-.18C211.366,161.109,210.932,161.109,210.5,161.109Zm164.947-.541a3.708,3.708,0,0,0-1.3.18c0,.18.434.18,1.3.18a3.708,3.708,0,0,0,1.3-.18A3.708,3.708,0,0,0,375.445,160.568Zm-160.607.541c-.868,0-1.736.18-1.736.361s.434.541,3.039.541c4.341,0,12.588-.722,13.456-1.082S216.141,161.109,214.839,161.109Zm-64.677,2.165c-1.736,0-3.038.18-3.038.361s3.473.361,6.511.361,6.511-.361,6.511-.541C160.146,163.454,153.635,163.274,150.162,163.274Zm-17.8,2.887c0,.361,3.473.361,5.209,0,.868-.18.434-.18-2.17-.18C133.667,165.8,132.365,165.98,132.365,166.161Zm-3.039-2.887c0,.18-.434.541,2.6.541,5.643,0,9.984-.361,6.077-.722C133.667,163.094,129.326,163.094,129.326,163.274Zm16.061,2.706s0,.18.868.18.868,0,.434-.18Q145.387,165.71,145.387,165.98Zm0-2.526h-3.473c-.868,0-.868.722.868.722C144.953,164,146.255,163.454,145.387,163.454Zm187.953.18s0,.18.868.18.868,0,.434-.18ZM132.8,169.408a2.761,2.761,0,0,0,2.17,0c.868-.18.868-.18.434-.361C134.535,168.867,132.365,169.047,132.8,169.408Zm204.448-5.773c-1.3.18-.434.361,2.6.361,2.6,0,3.907-.18,2.6-.361A12.667,12.667,0,0,0,337.247,163.635Zm3.038-1.624c-.868.18-.434.18.868.18.868,0,1.736-.18,2.17-.18C343.758,161.65,341.588,161.65,340.285,162.011Zm5.643,1.8c-.868.18-.868.361.868.361,1.3,0,1.736,0,1.3-.18A3.032,3.032,0,0,0,345.928,163.815Zm7.379-1.624a3.708,3.708,0,0,0,1.3.18c.868,0,.868-.18.868-.18A2.942,2.942,0,0,0,353.308,162.192Zm-72.49,1.8c.434-.18-.868-.541-2.6-.541-1.3,0-1.736.361-.434.541A8.212,8.212,0,0,0,280.818,164Zm15.627-.541c.434-.18-2.17-.18-6.511-.18-7.379,0-10.852.9-4.775,1.082A81.361,81.361,0,0,0,296.444,163.454Zm-25.176-.722s-1.736,1.263,1.3,1.082.434-1.082,0-1.082Zm41.237.722a30.4,30.4,0,0,0,6.945.18c0-.18-1.3-.18-3.907-.18A10.09,10.09,0,0,0,312.5,163.454Zm-10.852-.18c-3.473.18-3.473.18-1.736.361,1.3,0,3.038.18,4.341.18H308.6c.868,0,2.17-.18,2.17-.361C310.768,163.094,306.862,162.913,301.653,163.274Zm21.7.361c0,.18,1.3.18,2.6.18,2.17,0,2.17,0,1.3-.18C325.527,163.274,323.357,163.274,323.357,163.635ZM52.5,102.3c-2.6-.722-14.758.722-15.193,1.082v.541a4.041,4.041,0,0,0,2.17,0,46.5,46.5,0,0,1,5.643-.18C49.023,103.558,55.1,102.836,52.5,102.3ZM42.512,113.3c0,.18.434.18.434.18.434,0,.434-.18.434-.18,0-.18-.434-.18-.434-.18C42.512,113.12,42.512,113.12,42.512,113.3Zm-14.324-7.758c1.736-.722,0-1.443-1.3-1.443s-3.907.722-3.907,1.263S26.451,106.264,28.188,105.543Zm4.775-1.263c.434.361,2.17,0,2.17-.361,0-.18-.434-.18-.868-.18s-.868.18-1.3.18S32.528,104.1,32.963,104.28Zm-2.6-9.021c-1.736.18-2.6.541-2.17.9a7.927,7.927,0,0,0,3.473-.18C35.133,95.259,34.265,94.9,30.358,95.259Zm.868,9.2c.434,0,.434-.18.434-.18,0-.18-.434-.18-.434-.18-.434,0-.434.18-.434.18C30.792,104.46,31.226,104.46,31.226,104.46Zm0-13.531q.651-.541-1.3-.541a6.128,6.128,0,0,0-3.039.541q-.651.541,1.3.541A6.128,6.128,0,0,0,31.226,90.929ZM64.216,52.141c-.434,0-.434.722.868.722s2.17-.722,1.736-.722A6.238,6.238,0,0,0,64.216,52.141Zm-23.44,4.871c-1.736.361,0,1.624.868,1.263s6.945-.722,17.363-1.263a40.656,40.656,0,0,0,5.209-.541V56.11C58.573,56.11,43.814,56.471,40.776,57.012Zm5.643,3.608c-.868,0-2.6-.18-3.907.9-1.3,1.263,3.907.9,3.907.9h3.038c.434,0,2.17-.18,3.473-.361a31.6,31.6,0,0,1,6.077-.18c2.17,0,3.473,0,3.473-.18C62.045,61.161,47.287,60.62,46.419,60.62Zm1.3,26.881q.651-.541-2.6-.541c-1.736,0-3.907.18-4.341.541s.434.541,2.6.541C45.117,88.043,47.287,87.862,47.721,87.5ZM36.869,94.357q0,1.082,3.907,0c1.736-.361,1.3-.541-.868-.541C38.171,93.816,36.869,94,36.869,94.357ZM59.441,164a2.605,2.605,0,0,0,.868.18c.434,0,.868-.18.434-.18C60.309,163.635,59.441,163.635,59.441,164ZM23.847,138.919c-.868,0-1.3.361-.434.541.434.18,1.3,0,1.3-.361A2.6,2.6,0,0,0,23.847,138.919Zm83.776,33.2a2.605,2.605,0,0,1-.868-.18c0-.18-.434-.18-.868-.18-1.3,0-3.473.9-2.17,1.263s4.775-.18,4.775-.541S108.057,172.114,107.623,172.114Zm-8.247-7.577c-1.736.361-2.17.541-3.473.18-1.736-.361-2.17-.18-.868.9.868,1.082,2.6,1.624,4.775.9l1.3-.9-1.736.18c-1.736.18-3.039-.361-1.3-.541,3.907-.541,5.209-.9,4.341-1.082A11.647,11.647,0,0,0,99.376,164.537Zm-10.418,4.149c-.868,0-2.17,0-2.17-.18-.434-.361-2.17-.361-2.17,0,0,.18-3.038.722-.434,1.443C86.353,170.671,89.826,168.686,88.958,168.686Zm39.5.541c-3.907,0-18.665,1.263-19.967,1.624s-.434,1.082,4.341.722c9.55-.722,15.192-1.985,16.929-1.985a11.759,11.759,0,0,0,2.17-.18C131.931,169.228,130.195,169.228,128.458,169.228Zm-37.764-3.067c-1.736.18-3.473.541-3.473.541-.434.361,1.3,1.082,4.341.541C95.469,166.882,95.035,165.8,90.694,166.161ZM62.045,164c0,.18.434.18,1.3.18s.868-.18.868-.18c0-.18-.868-.18-1.3-.18A2.605,2.605,0,0,0,62.045,164Zm-37.33-24.175s0,.18.868.18.868,0,.434-.18A1.634,1.634,0,0,0,24.715,139.821Zm14.758,9.562a1.678,1.678,0,0,0,1.3.18c.434,0,.434-.18-.434-.361C39.04,148.841,38.605,149.022,39.474,149.382Zm19.533,15.7c.434.18-1.3.541,2.17.9a43.067,43.067,0,0,0,9.55-.9c1.3-.541-9.55-.18-9.55-.18C59.007,164.717,57.7,164.9,59.007,165.078Zm69.017-1.8c.434-.18-8.247-.18-9.116.18-.434.18.868.722,3.907.541A44.508,44.508,0,0,0,128.024,163.274Zm1126.416-5.052c0-.18,0-.18-.434-.18a2.6,2.6,0,0,0-.868.18c0,.18.434.18.434.18C1253.573,158.583,1254.007,158.4,1254.44,158.223Zm-329.46,2.345c0,.18,0,.18.434.18a2.6,2.6,0,0,0,.868-.18c0-.18-.434-.18-.434-.18C925.414,160.387,924.98,160.387,924.98,160.568Zm-65.545,1.985c.868-.18.868-.18,0-.18a9.1,9.1,0,0,0-1.3.18C857.265,162.913,858.133,162.913,859.435,162.552Zm-229.19-9.021c0-.18,0-.361-.434-.361-.868-.18-3.039,0-3.039.361A5.706,5.706,0,0,0,630.245,153.532ZM65.518,152.089c-.434-.361-.434-.361-1.736,0-.434.18-.868.541-.434.722.868.541,11.286.18,14.324-.541C80.71,151.187,65.952,152.449,65.518,152.089Zm-9.984,3.969h-1.3q0,.271,1.3,0C55.968,156.238,56.4,156.238,55.534,156.058Zm16.061-6.495c.868,0,3.038-.18,4.341-.361,3.473-.18,2.6-.541-.868-.361-4.775.18-6.077.361-5.643.541C69.425,149.743,70.293,149.743,71.595,149.563Zm535.21,3.247a4,4,0,0,0-2.17.18c-.868.361-.868.361,1.3.361C608.542,153.532,608.976,153.171,606.805,152.81Zm3.473,2.526h7.813q1.953,0-1.3-.541a54.55,54.55,0,0,0-10.852-.18C602.465,154.975,604.2,155.336,610.278,155.336Zm-10.418-1.985c0,.18.868.18,2.17.18s1.736,0,.868-.18C601.6,152.991,599.86,152.991,599.86,153.351Zm16.929,0c0-.18-.434-.18-.434-.18-.434,0-.434.18-.434.18,0,.18.434.18.434.18Zm271.295,7.4c0,.18.434.18.434.18a2.6,2.6,0,0,0,.868-.18c0-.18,0-.18-.434-.18A2.6,2.6,0,0,0,888.084,160.748ZM56.4,75.594c-3.473,1.443,8.681,1.082,11.72.361s-9.115-.361-9.115-.361A5.951,5.951,0,0,0,56.4,75.594ZM52.93,78.12c.868-.361,1.736-.9,1.3-.9-.434-.18-7.813-.541-3.907,1.624C50.759,79.022,51.194,78.842,52.93,78.12Zm1330,87.5a3.707,3.707,0,0,0-1.3.18c0,.18.434.18,1.3.18a3.706,3.706,0,0,0,1.3-.18C1384.228,165.619,1383.36,165.619,1382.926,165.619ZM60.743,77.759c-.434,0-.868.361-.868.541,0,.361,0,.361,1.3,0C62.479,77.759,62.045,77.4,60.743,77.759ZM49.023,95.8c0-.361-.434-.541-.868-.541-1.3,0-1.736.361-.868.722S49.023,96.342,49.023,95.8ZM52.5,94.357c-.868,0-2.17.18-2.6.18a2.605,2.605,0,0,0-.868.18c.434.361,3.473,0,4.341-.361C53.8,94.177,53.8,94.177,52.5,94.357Zm5.643-.18c0-.18-.434-.18-.434-.18-.434,0-.434.18-.434.18l.434.18C57.7,94.537,58.139,94.357,58.139,94.177Zm15.193.18h-1.3a2.406,2.406,0,0,0,1.3,0Zm696.251,60.8.434.18c.434,0,.434-.18.434-.18,0-.18-.434-.18-.434-.18Zm34.726-.18c0,.18-1.736.18-3.039.18-2.17,0-2.6,0-2.6.18s1.736.361,4.775.361c2.6,0,4.775.18,4.775.18.434.18.868.18.868-.18S805.176,154.795,804.308,154.975Zm13.022.361-.434.18c0,.18.434.18.434.18.434,0,.434-.18.434-.18C817.764,155.336,817.33,155.336,817.33,155.336ZM77.672,61.522c2.17-1.263-3.907-.541-4.341-.361s-11.72-.361-5.643,1.082C67.688,62.063,75.5,62.6,77.672,61.522Zm677.152,93.814c0,.18.434.18,1.3.18,1.736,0,3.038-.541,2.17-.9C757.428,154.434,754.824,154.975,754.824,155.336Zm-11.72-1.082c-5.209-.18-9.55.18-7.813.541,1.3.361,16.061.18,17.363-.18,1.3-.18.868-.361-1.736-.361C749.615,154.434,746.143,154.254,743.1,154.254Zm77.7,1.082c-.868,0-1.3.18-1.736.18-.434.18,1.3.18,3.473.18a20.488,20.488,0,0,0,3.473-.18c0-.18-.868-.18-1.3-.18a6.656,6.656,0,0,1-2.17-.541c-1.3-.541-2.6-.361-1.736.361C821.671,155.156,821.237,155.336,820.8,155.336Zm36.462-.722c-1.3.18-1.3.361-.868.541,1.736.541,4.341,0,3.039-.541C859,154.254,858.133,154.434,857.265,154.614Zm-6.077.361c0,.18.434.361.868.361,1.3-.18,1.3-.722.434-.722C851.622,154.434,851.188,154.614,851.188,154.975Zm-228.322-1.443c.434-.361-.868-.541-2.17-.361s-1.3.18,0,.361C622.432,153.893,622.866,153.893,622.866,153.532Zm206.184,1.263c0,.18.434.18.868.18a2.605,2.605,0,0,0,.868-.18c0-.18-.434-.18-.868-.18C829.484,154.434,829.05,154.614,829.05,154.795Zm7.813.18c0,.18.868.18,1.736.18,1.736,0,2.6-.361.868-.541A4.677,4.677,0,0,0,836.864,154.975Zm30.385,1.082c0,.18.434.18,1.3.18.434,0,1.3-.18,1.736-.18,0-.18-.434-.18-1.3-.18C867.683,155.7,867.249,155.877,867.249,156.058ZM658.026,155.7c.868,0,1.736-.18,2.17-.18.434-.18-.434-.18-1.736-.18a11.761,11.761,0,0,0-2.17.18C655.856,155.7,656.724,155.7,658.026,155.7Zm-30.819-.18c.434,0,.434,0,.434-.18,0-.361-2.6-.541-4.775-.361-1.3.18-1.3.18.868.361C625.471,155.336,626.773,155.516,627.207,155.516Zm8.247-1.624c4.341.18,6.511,0,6.511-.18s-.868-.18-2.17-.361a19.754,19.754,0,0,1-3.473-.18c-2.17,0-3.039,0-3.039.18C633.284,153.712,634.152,153.712,635.454,153.893Zm32.121,1.8s0,.18.868.18.868,0,.434-.18A1.634,1.634,0,0,0,667.576,155.7Zm-20.835-2.345c-.434,0-.868.18-.434.361.434.361,9.55.361,9.984,0C656.724,153.532,648.042,153.171,646.74,153.351Zm-14.324,2.165a25.328,25.328,0,0,0,3.907.18h6.511a28,28,0,0,0,3.473-.18c0-.18-2.6-.18-5.209-.18a51.049,51.049,0,0,1-6.511-.18,4.325,4.325,0,0,0-2.171,0C631.114,155.156,631.114,155.336,632.416,155.516Zm38.2-1.8c-2.17.18,4.775.541,17.363.722,5.643,0,17.363.18,25.61.361,8.247,0,15.193.18,15.193.18a20.052,20.052,0,0,0,2.17.18c1.736,0,3.473-.541,2.17-.9C733.12,153.712,673.219,153.532,670.614,153.712Zm-18.665,1.8c0,.18.434.18.868.18a2.606,2.606,0,0,0,.868-.18c0-.18-.434-.18-.868-.18S651.949,155.336,651.949,155.516Zm10.418-1.8c-1.736-.361-4.775-.361-4.775.18,0,.18,1.3.18,3.038.18C664.1,154.073,664.1,154.073,662.367,153.712ZM1660.3,40.955c0,.18,0,.18.434.18a2.6,2.6,0,0,0,.868-.18c0-.18-.434-.18-.434-.18C1660.732,40.595,1660.3,40.775,1660.3,40.955Zm13.022-3.608c-.434.18,1.3.722,2.6.541a7.22,7.22,0,0,1,2.171.18c.868.361,13.456,1.443,16.494.361C1698.062,37.167,1673.754,37.167,1673.32,37.347Zm-9.984-.361a8,8,0,0,0,1.3.361c1.736.361,7.379.361,6.945,0A66.476,66.476,0,0,0,1663.336,36.986Zm-17.8,1.263c3.907-.18,4.775-.722,1.736-.722s-4.341.18-4.341.541S1643.8,38.43,1645.54,38.249Zm5.209-.541c-.868.18-.434.18.434.18a25.55,25.55,0,0,0,5.643-.541,25.746,25.746,0,0,0-5.643-.722c-.868,0-.868,0-.434.361C1651.617,37.347,1651.617,37.528,1650.748,37.708Zm46.012,9.562c-.434.18.434.361,1.736.361,1.736,0,1.736-.18.868-.361A6.239,6.239,0,0,0,1696.76,47.27Zm-6.077.18c0,.361,1.3.361,2.6.18a7.817,7.817,0,0,0,2.6-.541,4.266,4.266,0,0,0-2.6-.722C1691.551,46.548,1690.683,47.27,1690.683,47.45Zm29.517,2.165c-.435.18-.435.541,0,.722.868.722,3.472.722,3.472,0A4.488,4.488,0,0,0,1720.2,49.615Zm-94.628-29.407s0,.18.868.18.868,0,.434-.18S1625.572,20.028,1625.572,20.208Zm19.533,16.057a24.259,24.259,0,0,0-5.209,0,5.7,5.7,0,0,0,2.6.361c1.3,0,2.6.18,3.038.18C1646.408,36.986,1645.974,36.445,1645.106,36.265Zm99.836,24.9c0-.18-.434-.18-.868-.18s-.868.18-1.3.18c0,.18,0,.18.868.18S1744.942,61.342,1744.942,61.161Zm7.813,29.587c-1.736,0-6.945.541-5.643,1.443.868.9,8.681,0,9.116-.361C1756.662,91.831,1754.492,90.749,1752.755,90.749Zm-15.192-25.438c-2.171.541-2.171.541,1.3.541,3.038,0,3.472-.18,2.6-.541Q1740.168,64.5,1737.563,65.311Zm5.643,34.1q-1.3,0-1.3.541t1.3.541q1.3,0,1.3-.541C1744.508,99.769,1744.074,99.409,1743.206,99.409ZM1611.682,36.626v.361c.434.361,8.681.361,8.681,0A66.464,66.464,0,0,0,1611.682,36.626Zm11.72-22.01c1.736.18,2.17,0,1.736-.361a7.216,7.216,0,0,0-2.17-.18C1620.8,14.074,1621.231,14.435,1623.4,14.615ZM1731.92,73.971c-.434-.361-3.038-.18-3.038.18a9.787,9.787,0,0,0,1.736.18C1731.92,74.331,1732.354,74.151,1731.92,73.971Zm-6.945-5.593c-.434.18-.434.18.434.361a29.1,29.1,0,0,0,5.643,0C1731.486,68.558,1725.843,68.2,1724.975,68.378Zm11.286.361c0,.18.868.18,1.736.18s.868-.18.868-.18c0-.18-.868-.18-1.736-.18A2.606,2.606,0,0,0,1736.261,68.739ZM79.408,58.094h-1.3c-.434,0-7.379.18-4.341.9A10.505,10.505,0,0,0,79.408,58.094ZM1731.92,68.739c0,.18.868.18,1.736.18a9.1,9.1,0,0,0,1.3-.18c0-.18-.868-.18-1.736-.18A3.709,3.709,0,0,0,1731.92,68.739ZM98.073,31.574q-2.6-.541-2.6,0c0,.18-2.17.9,1.736.9C101.112,32.656,98.941,31.754,98.073,31.574Zm9.116,15.7h-1.3q0,.271,1.3,0ZM91.562,52.321h-1.3q-.651.271,1.3,0C91.562,52.5,92,52.321,91.562,52.321ZM101.98,30.672h-1.736c-.434,0-.434.9.434.9C101.98,31.574,102.848,30.672,101.98,30.672Zm725.334-25.8a5.966,5.966,0,0,0,1.736.361c.868,0,1.3-.18,1.3-.361s-.868-.361-1.736-.361S826.88,4.693,827.314,4.873ZM78.974,48.352a11.208,11.208,0,0,0,3.473,0c0-.18-.434-.361-1.3-.361C78.974,47.811,78.106,47.991,78.974,48.352Zm6.511,13.531c-2.6-.18-4.341.18-1.736.361,14.324,1.082,9.116-1.082,5.643-1.082-1.736,0-2.17,0-1.736.361C87.656,62.063,87.656,62.063,85.485,61.883ZM81.145,45.646c0-.18-.868-.18-.868-.18l-.434.18c0,.18.434.18.868.18C81.579,46.007,81.579,45.826,81.145,45.646Zm-3.473,7.4c-.434.541.434.541,3.907-.18,0,0,5.209.361,6.077-.18,1.3-.541-7.379-.18-7.379-.18C78.54,52.5,78.106,52.682,77.672,53.043Zm1571.34-30.489c-.434.18-.434.361.868.361s1.3,0,.868-.361A2.76,2.76,0,0,0,1649.012,22.553ZM819.067,4.152c-.868.18,0,.9,1.736.9s2.6-.9,1.736-.9A11.208,11.208,0,0,0,819.067,4.152Zm813.451,9.562c0,.18.434.18,1.3.18s1.736-.18,1.3-.18c0-.18-.868-.18-1.3-.18A9.1,9.1,0,0,0,1632.518,13.713Zm26.912,2.345c0-.361-5.209-.9-9.115-.541-1.736,0-2.6.722-2.6.9.434.18,3.038.18,10.418,0C1658.562,16.239,1659.43,16.239,1659.43,16.059Zm-18.665.18c0,.18.869.18,1.3.18s2.17.541,3.472-.18c1.3-.9-3.039-.18-3.906-.18S1640.331,16.239,1640.764,16.239Zm33.424-.9a26.05,26.05,0,0,0-6.077.361c-.868.18-.434.18.868.18C1671.584,15.878,1674.189,15.517,1674.189,15.337ZM741.368,4.332c-2.6.361-2.6.361,6.511.361h9.116c1.3,0,2.17-.18,1.736-.361,0-.361,0-.361-5.643-.361C745.275,3.791,743.1,3.971,741.368,4.332Zm71.622.361c0,.18.434.361.868.361s.868-.18.868-.361-.434-.361-.868-.361S812.99,4.512,812.99,4.693Zm854.688,19.124c.434,0,.434-.18.434-.18,0-.18-.434-.18-.434-.18-.434,0-.434.18-.434.18S1667.243,23.816,1667.677,23.816Zm-6.945-7.938c0,.18,1.736.18,3.472.18a24.567,24.567,0,0,0,3.039-.18c0-.18-1.3-.18-3.473-.18C1661.6,15.517,1660.3,15.7,1660.732,15.878ZM73.765,75.414c-3.039,0-5.209.18-5.209.18,0,.361,7.813.361,9.116,0C78.54,75.414,77.238,75.414,73.765,75.414Zm1337.376,85.334a5.659,5.659,0,0,1-3.473,0c-1.3-.361-1.736-.361-2.6.18a5.964,5.964,0,0,1-1.736.361,10.757,10.757,0,0,0-2.17.18s-4.341-.18-4.775.361c0,.541,4.775.18,4.775.18a17.094,17.094,0,0,0,3.038,0c.868,0,2.6-.18,4.775-.18,3.039,0,3.472,0,3.472-.361s.434-.541,1.737-.541c.868,0,1.736-.18,1.736-.361A8.712,8.712,0,0,0,1411.141,160.748Zm-31.687.722c0,.18,1.3.541,6.945.18,1.3,0,10.418-.361,10.852-.541.868-.361-7.38-.541-9.116-.361a33.794,33.794,0,0,1-6.077,0c-.868-.18-1.3-.18-.868,0s0,.361-.434.361C1379.888,161.109,1379.454,161.29,1379.454,161.47Zm33.857,0,1.3.18a10.338,10.338,0,0,0,3.472,0c0-.361-2.17-.541-3.472-.361Zm-87.682.9c0,.18.868.18,1.3.18a2.607,2.607,0,0,0,.868-.18c0-.18-.434-.18-1.3-.18C1326.063,162.011,1325.629,162.192,1325.629,162.372Zm105.045-1.443c0,.361-3.038.541-3.907.18a32.327,32.327,0,0,0-6.945-.361c0,.18,0,.361-.434.722s0,.361,1.3.541c2.6.18,19.533,0,19.967-.18a9.683,9.683,0,0,0-3.907-1.263c-1.736,0-3.907.18-4.775.18C1431.108,160.568,1430.674,160.748,1430.674,160.929Zm-56,.541c0-.18-.434-.18-.868-.18s-.434.18-.434.18c0,.18.434.18.868.18C1374.679,161.831,1375.113,161.65,1374.679,161.47Zm-34.292.9c2.17,0,2.17,0,.868-.361a6.379,6.379,0,0,0-2.6-.18c-.868,0-2.171.18-3.907.18-3.038,0-5.209.18-4.775.541a17.5,17.5,0,0,0,3.907.18A55.328,55.328,0,0,1,1340.387,162.372Zm16.061-.361c0-.18,0-.361-.434-.361a8.859,8.859,0,0,0-3.472.361C1352.541,162.372,1356.013,162.372,1356.448,162.011Zm77.7-5.232c.434-.361-1.3-.541-2.17-.361-.434.18-.434.18,0,.361A2.268,2.268,0,0,0,1434.146,156.779Zm-63.374,4.871c-.434-.18-7.813-.722-10.418.18s6.945,0,7.813,0C1369.9,162.011,1371.206,161.831,1370.772,161.65Zm8.247-.541c0-.18-.868-.18-1.3-.18s-.868.18-1.3.18c0,.18.434.18,1.3.18A3.708,3.708,0,0,0,1379.02,161.109Zm122.408-1.8c.868-.18,0-.9-1.3-.9-.868,0-1.736.18-2.17.18C1497.521,158.944,1500.126,159.666,1501.428,159.305Zm-8.681-1.263a6.24,6.24,0,0,1-2.6,0c-1.3-.18-9.983.18-9.549.541a21.366,21.366,0,0,0,3.907.361c4.341,0,9.984-.18,10.418-.18s.868-.541,1.3-.722C1497.087,158.042,1494.917,157.681,1492.746,158.042Zm23.874.541c0-.18-1.736-.18-3.039-.18-2.17,0-10.417-.361-9.983.722S1517.054,158.944,1516.62,158.583Zm-33.857,2.165c-.869.18-.869.18,0,.361a4.323,4.323,0,0,0,2.17,0c1.3-.18,1.3-.361,0-.361A4.323,4.323,0,0,0,1482.763,160.748Zm49.484-3.969c-.434.18,0,1.263,1.3,1.263,5.209.18,1.3-1.082.434-1.263Zm-56.429,1.443a3.707,3.707,0,0,0-1.3.18c0,.18.868.18,1.3.18a3.705,3.705,0,0,0,1.3-.18A3.7,3.7,0,0,0,1475.818,158.223Zm-31.687,2.345c-1.3,0-1.3.541-.434.9s2.17.361,1.3,0c-.434-.18,9.116.361,10.417-.541S1445,160.568,1444.13,160.568Zm26.478.722a13.319,13.319,0,0,0-6.077.18c-.868.361.868.722,3.906.722C1472.345,162.011,1473.213,161.65,1470.609,161.29Zm2.6-2.706c0-.18-.868-.18-1.3-.18a9.1,9.1,0,0,0-1.3.18c0,.18.434.18,1.3.18S1473.647,158.764,1473.213,158.583Zm2.6,2.526c0,.18.434.18.434.18a2.6,2.6,0,0,0,.868-.18c0-.18,0-.18-.434-.18C1476.252,160.748,1475.818,160.929,1475.818,161.109Zm-150.189-3.789c-1.736,0-2.6,0-2.6.361,0,.18.868.361,2.6.361C1329.535,158.042,1329.1,157.5,1325.629,157.321Zm324.686,5.412c-.868.18-.868.18.434.18a9.782,9.782,0,0,0,1.736-.18C1652.485,162.552,1652.051,162.552,1650.314,162.733Zm-4.341.361s0,.18.868.18.868,0,.434-.18Zm10.852-.722a11.763,11.763,0,0,0,2.171.18,10.676,10.676,0,0,0,3.039-.361C1662.034,161.831,1657.693,162.011,1656.825,162.372Zm-98.1,4.871c3.473.18,14.324,0,15.626-.18.868-.18-1.736-1.082-8.681-1.082C1556.555,165.98,1553.516,167.063,1558.725,167.243Zm65.11-2.706c-.434.18,1.3.18,3.907.18,2.17,0,4.34-.18,4.34-.541C1631.649,163.635,1625.138,164,1623.836,164.537ZM1409.4,165.619c-.434,0,0,.541.868.541s1.3-.541.869-.541ZM1549.61,166.7a21.753,21.753,0,0,0-2.6.18c0,.9,4.341.18,4.775,0S1551.346,166.7,1549.61,166.7Zm118.5-5.412a10.7,10.7,0,0,0-2.6.18c-.434.18,0,.361,1.736.18C1668.979,161.65,1669.413,161.47,1668.111,161.29Zm-34.726,2.887c-.434.18,3.907.18,6.945-.18s4.775-.722,3.039-.722C1640.331,163.274,1635.556,163.274,1633.386,164.176Zm39.935-3.428a4.794,4.794,0,0,0-2.6.541c0,.18.868.18,2.17.18C1675.925,161.29,1676.359,160.748,1673.32,160.748ZM1305.227,157.5c.434-.541.434-.722,0-.9-.868-.18-16.061.361-15.627.9C1290.035,158.223,1304.793,158.223,1305.227,157.5Zm-27.781.722a28.874,28.874,0,0,1,5.209.18c3.907-.18,4.341-.541,3.039-1.082a23.358,23.358,0,0,0-6.077.18,14.65,14.65,0,0,1-3.473.361c-1.3,0-2.17.18-1.736.361Zm45.143,4.149c0-.18-.434-.18-.868-.18s-.869.18-1.3.18c0,.18,0,.18.869.18A9.1,9.1,0,0,0,1322.59,162.372Zm-6.511.18c2.17,0,2.6-.361.868-.541s-4.341.18-4.775.541c0,.18,0,.361.868.18A12.792,12.792,0,0,1,1316.079,162.552Zm-74.227-4.33a9.782,9.782,0,0,0-1.736.18c0,.18.434.18,1.3.18a9.785,9.785,0,0,0,1.736-.18A3.708,3.708,0,0,0,1241.852,158.223Zm24.743.18q3.255-.271,1.3-.541c-1.3-.18-2.6,0-2.6.361C1264.859,158.4,1265.727,158.4,1266.6,158.4Zm411.5-.361c-1.3.18-2.6.541-2.6.9s-.868.361-2.17.361a33.447,33.447,0,0,0-5.209.541c-2.17.18-6.077.541-9.116.541a75.7,75.7,0,0,0-8.248.541c-5.643.722-35.594,1.985-51.22,2.345-5.643,0-10.852.18-12.154.18s-5.643.18-9.55.18c-4.341.18-7.813.361-8.248.361a5.951,5.951,0,0,1-2.6,0c-1.736-.18-19.533-.18-26.912,0a32.571,32.571,0,0,0-5.209.361c-.868.18-5.209.361-9.984.541-8.682.18-9.115.18-15.193.18h-19.1c-2.171,0-6.511,0-9.55.18-7.379.18-24.308.18-29.517,0-13.022-.361-15.192-.361-15.626,0s-.868.361-1.736.18a16.648,16.648,0,0,0-4.775-.18c-3.473.18-12.588.18-13.89.18-1.736.18,0-.541-8.247-.361-6.077,0-8.248.18-9.116.541s-3.907.541-3.473.18c0-.541,0-.541-.868-.361s-.868.18-1.3,0-6.077-.361-24.742-.18c-13.456,0-24.742.18-25.176.18-.868,0-.868.18-.868.361.434.361,0,.361-1.3.361-1.736,0-1.736,0-.434-.361.868-.361.868-.361-.434-.541h-26.044c-21.27.18-59.034.18-68.583,0h-14.759c-6.077,0-9.115,0-9.115-.18,0-.361,0-.361,3.038-.361,2.6-.18,16.061-.18,18.665,0,1.3,0,4.341,0,6.511-.18s15.192-.18,29.517-.361c32.555-.18,70.319-.541,88.984-.722,16.061-.18,37.33-.361,42.1-.361h6.077c.868,0,5.643,0,10.852-.18,5.209,0,11.286-.18,13.456-.18s5.643,0,7.813.18a24.081,24.081,0,0,0,6.511-.18c4.341-.541,7.379-.722,8.682-.361a46.865,46.865,0,0,0,9.115.541c.434,0,.868-.361,1.3-.541.434-.361.868-.541,5.208-.541,5.209,0,6.945,0,8.247-.361,1.3-.18,12.588-.722,22.138-.722,4.775,0,11.286-.18,14.759-.18,7.813-.18,20.835-.18,21.269-.18a10.762,10.762,0,0,0,2.171-.18,4,4,0,0,1,2.17.18c.868.18,1.3.18,1.736-.18.868-.541,1.736-.541,10.417-.541.868,0,1.736-.18,2.6-.18a16.171,16.171,0,0,1,3.907-.361c1.3-.18,3.906-.361,5.643-.541a93,93,0,0,1,11.286-.361,19.759,19.759,0,0,0,3.473-.18c2.17-.361.868.541-1.3.9-1.736.361-1.736.361-.434.541a6.239,6.239,0,0,0,2.6,0,30.653,30.653,0,0,1,4.775-.361c1.736-.18,3.472-.361,3.907-.361a2.852,2.852,0,0,1,1.736,0,31.5,31.5,0,0,0,9.116-.361c1.3-.18,8.247-1.624,4.341-1.443h-2.6c-3.907.18-8.681.18-11.72.18-3.907,0-11.286,0-16.061.18-7.813.18-26.479.361-36.9.361-2.171,0-5.209.18-7.38.18a6.872,6.872,0,0,1-3.038-.722c.434-.18,11.286-.18,25.176-.361,20.4-.18,25.176-.18,28.649-.541s4.341-.361,4.775-.18,1.736.361,5.643.18h8.248c2.6,0,26.478-1.082,28.649-1.263.434,0,3.038-.18,6.077-.361s5.643-.361,6.511-.361c.868-.18,1.3,0,1.3.18s-.434.361-1.3.361-1.3.361-1.3.541.868.361,4.341.18h4.341c0,.361-3.906,1.263-9.116,1.263-5.642,0-29.082,1.082-31.687,1.624q-1.3.271-1.3.541c0,.361,1.736.541,7.813.361,3.038-.18,10.852-.361,17.363-.541s12.154-.361,13.456-.541c.868,0,3.039-.18,4.775-.361,1.736,0,3.039-.18,3.039-.361,0-.361,4.341-.541,5.209-.18a18.7,18.7,0,0,0,4.775,0c5.643-.361,6.077-.361,6.077.18,0,.361.434.541,1.736.361C1681.134,157.14,1680.7,157.5,1678.1,158.042Zm-54.259-1.263c.868,0,1.3-.361.868-.361h-1.736C1622.534,156.418,1622.968,156.779,1623.836,156.779Zm-362.45,1.624a9.1,9.1,0,0,0-1.3-.18c-.868,0-1.3,0-1.3.18s.868.18,1.3.18S1261.386,158.583,1261.386,158.4Zm-347.691-2.526c-4.341-.18-13.022,0-14.324.18s-.868.18,2.17.361c6.511.18,14.324.18,13.89,0A2.4,2.4,0,0,0,913.694,155.877Zm151.057-1.082c0,.18.434.18.868.18a2.6,2.6,0,0,0,.868-.18,2.6,2.6,0,0,0-.868-.18C1065.186,154.614,1064.751,154.614,1064.751,154.795Zm-3.038,0c-.434,0,0,.18.868.18s1.3,0,.868-.18Zm-33.424-.9c-.434,0-.434.18-.434.361s.434.18.868.18.434-.18.434-.361S1028.724,153.893,1028.289,153.893Zm10.418.18c0,.18.434.18.868.18a2.6,2.6,0,0,0,.868-.18c0-.18-.434-.18-.868-.18C1039.141,153.712,1038.707,153.893,1038.707,154.073Zm305.152,7.938c0,.722,6.945-.18,7.813-.18s.868,0,.434-.18C1351.239,161.65,1343.86,161.29,1343.86,162.011ZM1052.6,154.795a4.325,4.325,0,0,0,2.17,0c1.3-.18.868-.361-1.3-.361C1051.729,154.614,1051.295,154.614,1052.6,154.795Zm483.99-1.443c0,.18,0,.18.434.18s.868-.18,1.3-.18c0-.18,0-.18-.434-.18A1.677,1.677,0,0,0,1536.588,153.351Zm197.069-57.19c-.434.361,3.039.9,5.643.722,6.077-.541,4.341-1.263-.868-1.263C1736.261,95.62,1734.09,95.8,1733.656,96.161Zm11.72,0c2.6.722,2.17.722,3.473,0,.434-.361-.434-.541-2.17-.541C1743.64,95.62,1743.64,95.8,1745.376,96.161Zm-205.75,56.649c0,.18.434.18,1.3.18a9.785,9.785,0,0,0,1.736-.18c0-.18-.434-.18-1.3-.18A2.522,2.522,0,0,0,1539.626,152.81Zm154.529-3.969c0,.722,12.154-.361,13.022-.541.434-.18-.868-.722-.868-.722C1705.875,147.4,1694.156,148.12,1694.156,148.841Zm-803.9,7.036c-3.039,0-5.209.18-5.209.18s1.736.18,3.907.361c5.643.18,5.643.18,6.077-.18S894.6,155.7,890.255,155.877Zm27.346-2.165c0-.18-.868-.18-1.736-.18a9.1,9.1,0,0,0-1.3.18c0,.18.868.18,1.736.18C917.167,154.073,917.6,153.893,917.6,153.712Zm107.216.541c0,.18.434.18.434.18.434,0,.434-.18.434-.18,0-.18-.434-.18-.434-.18S1024.817,154.073,1024.817,154.254Zm-147.15,2.165H880.7c1.3,0,2.6-.18,3.039-.18,1.736,0-1.3-.361-3.907-.541C876.8,155.7,875.93,156.058,877.666,156.418Zm30.385-2.706c0-.18-.434-.18-.434-.18-.434,0-.434.18-.434.18l.434.18C908.052,154.073,908.052,153.893,908.052,153.712Zm-34.726,2.345c1.3.361,1.3.361.868,0,0-.18-.868-.18-1.3-.18C872.457,155.7,872.457,155.877,873.326,156.058Zm113.727-1.624s0,.18.868.18.868,0,.434-.18Q987.053,154.163,987.052,154.434Zm29.517-.541a19.575,19.575,0,0,1-4.775,0c-2.17-.541-16.06.18-15.192.722.434.18,13.022.18,21.27-.18,4.341-.18,5.209-.18,4.775-.541C1022.646,153.532,1022.212,153.532,1016.569,153.893Zm-39.935.541c0,.361.868.541,1.3.18,0-.18,0-.361-.434-.361C977.069,154.073,976.635,154.254,976.635,154.434Zm379.378-5.412-.434.18c0,.18.434.18.434.18.434,0,.434-.18.434-.18C1356.448,149.022,1356.013,149.022,1356.013,149.022Zm381.55-29.046c-2.6,0-6.945.361-5.209.9,2.6.722,8.248.361,8.248-.361C1740.6,120.156,1739.3,119.975,1737.563,119.975Zm-46.012,29.046c0-.18-.868-.361-2.171-.361a5.694,5.694,0,0,0-2.6.361c-.434.18.434.361,2.17.361A5.7,5.7,0,0,0,1691.551,149.022Zm-10.418,11.185c-3.472.361-4.341.361-4.341.722,0,.18,3.473.18,7.379-.18a36.469,36.469,0,0,1,3.906-.361,5.968,5.968,0,0,0,1.736-.361C1690.249,159.846,1685.04,160.027,1681.134,160.207Zm-1578.72-9.381c0,.18.868.18,3.038.18,4.341-.18,4.341-.361.434-.361C103.716,150.465,102.414,150.645,102.414,150.826Zm1566.131,3.608q0-.541-1.3-.541a3.706,3.706,0,0,0-2.17.541q-.651.541,1.3.541C1667.677,155.156,1668.545,154.795,1668.545,154.434Zm7.379,1.443c2.171,0,3.472-.18,3.472-.361,0-.541-10.852-.18-12.154.361-.868.361-.434.361,2.17.18C1671.15,155.877,1673.754,155.877,1675.925,155.877Zm-13.022-.541c1.3-.18.868-.722-1.736-.722a8.148,8.148,0,0,0-3.473.541C1657.26,155.336,1660.732,155.516,1662.9,155.336Zm-57.3,2.526a22.838,22.838,0,0,0-4.775.18,11.764,11.764,0,0,0,2.171.18Zm-381.549-8.3c0,.541.434.722,1.737.18.868-.361.868-.722-.434-.722S1224.056,149.2,1224.056,149.563ZM1673.32,25.981c.434.18,13.022-.361,14.758-.541a2.4,2.4,0,0,1,1.3,0c0,.361,2.6,1.443-.434,1.624-3.907.18-12.154,0-12.154.361s1.736.541,7.379.9c11.286.9,13.89,1.082,14.758,1.263a8.95,8.95,0,0,0,2.6.18,79.642,79.642,0,0,1,11.72,1.263c1.3.18,21.27-1.263,19.1,1.443-.434.541-.868.361-4.775.18-6.077-.361-29.083-.361-30.385,0a12.652,12.652,0,0,1-2.6.18c-.868,0-1.3,0-1.3.18s-.868.361-4.341.361c-2.6,0-5.209.18-6.077.18a10.756,10.756,0,0,1-2.17.18,5.967,5.967,0,0,0-1.736.361c-2.17.722-.868.9,6.511,1.082,14.324.361,27.346-.541,32.121.18,4.775.541,2.17,1.263,2.17,1.263l-3.038.18a29.483,29.483,0,0,1-5.643,0c-1.3-.18-8.248-.361-14.759-.361-6.945-.18-16.061-.361-20.835-.541s-10.852-.361-13.456-.361-6.945-.18-9.55-.18c-6.945-.18-18.231-.18-23.44,0-2.6.18-8.247.18-12.154.18a64.767,64.767,0,0,0-7.813.18c-.868.361-.434.722.868.541.434,0,.868,0,.868.18,0,.361-2.6.541-5.643.361a28.786,28.786,0,0,0-3.473.18c-2.6.18-2.6.18-1.3.541s7.38.361,26.044.541h10.418l.434.541c.434.541.868.541,1.736.541,3.473-.18,9.984-.722,14.324-.722,3.473,0,5.643.541,5.643.722a5.7,5.7,0,0,1-2.6.361c-1.3,0-4.775,0-6.945.18-2.6,0-4.341,0-4.341-.18,0-.361-1.736-.18-3.473.18l-1.3.361,2.171.18c.868,0,3.038.18,3.907.18,2.17,0,2.6.18,2.17.541-.434.18-2.6.361-11.72.18-6.511,0-13.89-.18-16.928-.361-2.6-.18-6.077-.18-7.379-.18h-3.906c-1.3,0-1.736.18-2.171.541s-.868.541-7.379.541c-4.775,0-6.945.18-7.38.361,0,.18,1.3.361,5.209.361a47.212,47.212,0,0,1,6.945.361c3.907.9,11.72,1.263,24.742,1.624,10.852.18,21.269.541,22.138.9a55.474,55.474,0,0,0,6.945.18,74.438,74.438,0,0,1,7.813.18,9.718,9.718,0,0,0,1.736.18,1.677,1.677,0,0,1,1.3.18c.868.361,15.193,0,18.231-.18,2.17-.18,3.473,1.082,1.3,1.263-1.3.18-14.758.541-19.1.722-.868,0-.868.18-.434.18.434.18,2.6.18,5.209.361,2.6,0,5.209.18,5.209.361a8.545,8.545,0,0,0,3.039.361,21.675,21.675,0,0,1,3.906.541c.869.18,3.473.361,6.511.541,2.6,0,18.665-.361,23.006-.361a24.673,24.673,0,0,1,4.341.9c.434.361-5.209.541-15.192.722-7.813.18-9.55.18-9.55.722s2.6.9,9.984,1.082a60.365,60.365,0,0,1,9.984.541c1.736.18,4.34.361,6.945.361s4.34.18,4.34.18c0,.18-.434.18-.868.18a15.567,15.567,0,0,1-2.17.541,64.307,64.307,0,0,0-6.945-.18c-5.209.18-6.945.541-5.209.9.868.18.868.361-2.6.541-2.17.18-3.473.361-15.193.541-9.55.18-9.984.18-11.72.9l-1.736.722s3.906,0,8.247.18c5.643,0,8.681.18,9.984.541a37.345,37.345,0,0,0,5.209.361,51.173,51.173,0,0,1,5.643.361,7.733,7.733,0,0,0,3.039,0c.868-.361,2.171-.361,2.171,0,0,.18-.434.361-1.3.361-1.3.18-.868.18.868.361,1.3.18,5.209.18,8.248.18,6.077,0,6.945,0,6.945.722,0,.361.868.361,5.643.361,10.851,0,10.417,1.8-3.473,2.165-4.775.18-11.286-.541-13.022.18-1.3.541-.435,1.263,1.736,1.624a26.31,26.31,0,0,1,2.6.541,10.673,10.673,0,0,0,3.038.361c2.17,0,2.6.361.868.722a25.927,25.927,0,0,0-3.907.722c-1.736.361-4.34.9-6.077,1.082-6.077,1.082-10.418,2.165-10.852,2.526a.685.685,0,0,0,.434.722c.434.361,2.17.361,6.945.18a63.755,63.755,0,0,0,7.813-.361c.868-.18,1.3-.18,1.3.18s1.3.722,3.906.9a9.585,9.585,0,0,1,2.6.361c.434.18,0,.361-1.736.361-2.6,0-3.039,0-2.171.722a1.678,1.678,0,0,1,.868.9c.434.361,7.813,0,9.55,0,3.039-.361,11.286-1.082,9.984.541-1.736,1.624-7.813.722-8.681.722-1.3,0-1.3,0-.434-.18.434-.18.868-.361.434-.361a9.733,9.733,0,0,0-4.341.722c-2.6.9-1.736,1.263,2.171,1.082a13.978,13.978,0,0,1,3.039,0c0,.361-.434,1.263-5.643,1.443-4.774.18-5.642-.722-6.945,0-.868.361-1.3.9-1.3,1.443,0,.361,0,.9-.434,1.082-.868.541-.434,1.082.868,1.082,1.736,0,16.061-.722,13.89.541s-12.588.18-13.89.18c-3.907-.361-5.209,1.263-2.171,2.526l1.736.722L1738,86.96l.868.722c.868.722.434,1.263-1.736,1.443-1.3.18-1.737.722-1.3,1.263a23.087,23.087,0,0,0,6.511,1.443c1.736,0,3.472,1.082,1.3,1.263-3.473.361-12.154.18-16.061.361-4.341.18-5.209.722-3.472,1.985,1.3.9,2.6,1.082,5.209,1.082q1.3,0,1.3.541c0,.722,1.3,1.082,3.472.9.868-.18,1.736,0,1.736.18s-.868.361-1.3.361c-1.737.18-1.737.18-.868,1.263.434.541,1.3.722,2.6.722,2.6,0,3.038,0,3.472.361,0,.18-1.736.361-4.775.361-5.209,0-6.511.361-6.511,1.082s2.171,1.082,6.511,1.082c3.473,0,4.341.18,4.775.361,0,.18.868.361,1.3.361a9.106,9.106,0,0,1,2.171.361c.868.361.868.361-3.907.361s-8.247.361-8.247.722c0,0-2.171,1.624-1.737,2.165,3.907,3.067,16.929.18,16.061,2.345s-10.851,1.263-13.022,1.263a9.774,9.774,0,0,1-1.736-.18c0-.541-3.907-.361-5.209.18a4.824,4.824,0,0,1-2.17.541,19.039,19.039,0,0,0-2.6.361c-1.736.361-1.736.541-1.736,1.8-.434,1.8.434,2.165,4.341,1.985h3.039c0,.18,0,.722-.869,1.082-1.3.9-1.3,1.082-1.3,1.624,0,.18-.434.361-1.3.361-1.736.18-3.473,1.443-2.6,1.8,1.3.541.868.722-1.3.722-2.6,0-4.341.361-4.341.9,0,.361.434.361,3.038.18,4.341-.18,3.473,1.443-.868,1.8-3.039.18-9.55.361-7.813.361.434,0,.434.18,0,.361a3.465,3.465,0,0,0-1.3,1.443c-.868.9-.868,1.263,0,1.8s1.3.722,3.473.722c3.038,0,3.906.722,1.736,1.082-.868.18-1.736,0-2.17.361,0,.361-.868.9-1.3,1.082s-.868.722-.434,1.082c.434.541,0,.722-1.736.9s-2.171.541-2.6,1.082c0,.541-.868.9-1.736,1.082-2.17.361-3.039,1.263-2.6,2.165.434.722.868.9,2.17.9s1.736,0,1.736-.18.434-.18.434-.18c.434,0,8.681-1.082,8.681.361s-8.248,1.263-9.55,1.263c-3.039.18-4.775.18-4.775,1.443s.434,1.263-7.813,1.8c-1.736.18-3.906.361-4.34.722-.869.361-3.039.541-8.248.722-3.906.18-8.681.361-10.417.541-3.473.361-3.473.361-3.473,1.443,0,.9-.434,1.082-2.171,1.263a37.344,37.344,0,0,1-5.209.361,19.5,19.5,0,0,0-3.907.541c-.434.361-1.3.361-3.038.18-1.3,0-4.341,0-6.077.18a24.746,24.746,0,0,1-5.209,0,7.558,7.558,0,0,0-3.473.18c-.868.18-3.038.361-4.775.541-1.736,0-17.8.722-18.231.9a10.7,10.7,0,0,1-2.6.18,25.325,25.325,0,0,0-3.906.18,32.574,32.574,0,0,1-5.209.361c-2.171,0-6.945.18-10.418.18a55.472,55.472,0,0,1-6.945-.18c0-.18-3.038-.18-6.511,0-6.077.18-10.852.18-32.99.18-13.89,0-14.758,0-16.495.361a7.292,7.292,0,0,1-1.736.18s-5.643-.18-12.154-.18-13.456-.18-15.192-.361-7.38-.18-13.89,0c-10.418.18-13.022.18-17.8.18-1.3,0-9.55,0-19.1.18-9.116,0-31.687.18-50.352.361-18.231,0-35.16.18-37.33.18-4.775.18-46.88.18-54.693.18a68.928,68.928,0,0,0-6.945.18,17.475,17.475,0,0,1-4.341,0,46.219,46.219,0,0,0-5.209-.18c-1.3,0-4.341.18-6.511.18s-3.906.18-4.341.18a1.677,1.677,0,0,1-1.3-.18,1.174,1.174,0,0,0-1.3-.18,48.3,48.3,0,0,1-6.077.541c-4.775.18-6.077.18-6.945-.18-1.3-.361-1.736-.361-2.17-.18a5.694,5.694,0,0,1-1.736.18,5.692,5.692,0,0,0-1.736-.18c-2.171.18-20.4.18-20.4,0s-.868-.18-1.3,0a79.762,79.762,0,0,1-8.247.18c-11.72-.18-28.649,0-29.951.18a46.176,46.176,0,0,1-9.984,0,7.932,7.932,0,0,0-3.473-.18,55.477,55.477,0,0,1-6.946.18c-4.775,0-6.077,0-6.511.361a1.527,1.527,0,0,1-1.736,0c-.868-.361-1.736-.541-8.248-.361-16.495,0-16.06,0-16.495.541a1.678,1.678,0,0,1-1.3.18c-.868-.18-30.385-.541-44.709-.361h-13.456c-1.736.18-9.115.18-14.758.18h-30.819c-3.038,0-7.379,0-8.682-.18-.868-.18-7.813-.18-15.627-.18H974.031c-.868,0-9.984,0-20.4.18-23.006.18-50.352.18-85.078,0-14.324,0-26.913-.18-27.346-.18H814.727c-3.473,0-8.247-.18-10.418-.18-5.643-.361-46.012-.541-49.918-.18a29.389,29.389,0,0,1-5.643,0c-3.038-.361-55.561-.541-66.413-.18a55,55,0,0,1-8.247,0,11.112,11.112,0,0,0-3.473,0,5.952,5.952,0,0,1-2.6,0c-.434-.18-14.758-.18-19.533,0h-49.05v1.082h-9.115c-4.775,0-9.55.18-9.984.18a5.6,5.6,0,0,1-1.736,0c-.434-.18-6.511-.361-14.758-.361-7.813,0-16.929-.18-20.835-.361-5.643-.18-7.379-.18-8.247.18-1.736.361-.868.9,1.736,1.263a5.643,5.643,0,0,1,2.17.722c.434.722,3.907.541,3.473-.18,0-.361.434-.361,3.038-.361a20.973,20.973,0,0,0,4.341-.361,6.109,6.109,0,0,1,3.038.18c1.3.361,2.6.361,5.643.18a23.573,23.573,0,0,1,5.209,0,15.6,15.6,0,0,0,4.341.18,9.458,9.458,0,0,1,2.6,0c0,.361-1.736.541-4.775.541-4.341,0-3.473.18,1.736.361,3.907.18,4.341.18,4.775-.361.434-.722,1.736-.722,3.473,0,1.3.361,1.3.541.868.18s0-.361,4.775-.541c19.1-.18,23.874,0,22.572.722-.868.361,0,.541,1.736.361.434,0,2.6,0,4.775.18,3.907.18,16.061.361,38.2.541,3.907,0,7.379,0,8.247-.18a6.379,6.379,0,0,1,2.6.18,5.511,5.511,0,0,0,3.038.18c1.736-.18,9.115-.18,20.4,0,3.473,0,7.379,0,8.247-.18a4.044,4.044,0,0,1,2.6.18,4.422,4.422,0,0,0,3.039.18,24.561,24.561,0,0,1,3.038-.18c1.736,0,2.6,0,2.6.361s.434.541,2.6,0c.868-.18,3.906-.361,10.418-.18h14.324c5.209,0,5.643,0,6.511.722a1.491,1.491,0,0,0,2.17.18,7.27,7.27,0,0,1,5.209-.722c1.3.361,3.039.361,6.945.18,6.945-.18,6.945-.18,12.588,0a108.471,108.471,0,0,0,10.852,0c8.247-.361,9.984-.18,11.286,0a10.7,10.7,0,0,0,2.6.18c.868,0,4.775-.18,8.681-.18,4.775,0,6.511,0,7.379.18a3.224,3.224,0,0,0,2.6,0c.434-.361,6.511-.541,8.682,0a47.263,47.263,0,0,0,8.681.18c.868-.361,12.154-.541,13.022-.18a19.573,19.573,0,0,0,4.775,0c5.209-.18,7.379-.18,7.379.361s1.736.722,2.17.18c.434-.361.868-.361,2.6-.18h2.6c.434-.361,9.549-.361,10.852,0a2.759,2.759,0,0,0,1.736,0c.868-.18,24.308-.18,26.044,0a10.758,10.758,0,0,0,2.17-.18,10.759,10.759,0,0,1,2.17-.18,5.692,5.692,0,0,0,1.736-.18,6.239,6.239,0,0,1,2.6,0,25.331,25.331,0,0,0,3.907.18c3.907-.18,16.061-.361,16.495-.18,0,.18,3.038.18,6.945,0,3.907,0,7.379-.18,8.682-.18,7.379,0,9.549,0,10.418-.361.434-.361.868-.361.868.18.434.722,3.038.722,3.038,0,0-.361.434-.541,3.907-.541a32.565,32.565,0,0,1,5.209.361,3.032,3.032,0,0,0,2.17-.18,3.046,3.046,0,0,1,3.038,0c.434.361,1.736.361,6.945.361,4.341,0,6.511-.18,6.945-.361.868-.361,2.6-.361,2.6,0,0,.541,1.3.361,2.6,0a4.873,4.873,0,0,1,3.907,0,7.211,7.211,0,0,0,3.473.18c2.6-.18,19.533-.361,32.121-.361,8.248,0,9.55,0,9.984-.361s.868-.361,2.171-.18a19.033,19.033,0,0,0,2.6.361c3.038,0,43.841-.361,53.391-.361,5.643,0,15.627-.18,22.138-.18,8.682,0,12.154-.18,12.154-.361.434-.361,4.775-.361,5.209,0a1.634,1.634,0,0,0,1.3,0,2.853,2.853,0,0,1,1.736,0,90.88,90.88,0,0,0,9.116.18c6.077,0,8.247,0,8.247-.361s.868-.361,1.736,0c.434.18,2.17.18,3.907.361,5.643,0,28.649-.361,29.951-.541a4,4,0,0,1,2.171.18,2.9,2.9,0,0,0,1.736.18c.434,0,3.907-.18,7.38-.18s8.681,0,11.286-.18a68.822,68.822,0,0,1,8.682,0c2.6.18,3.906.18,4.34-.18a7.261,7.261,0,0,1,3.039-.18,41.5,41.5,0,0,0,8.681-.18,31.6,31.6,0,0,1,4.341-.18c3.039.18,25.176.18,33.424,0,3.473,0,12.588-.18,20.835-.18s16.495-.18,18.231-.18c2.17,0,9.116-.18,16.061-.18s13.022-.18,13.456-.361c.868-.18,31.253-.361,37.765-.361h8.681c5.209,0,8.247,0,11.72-.18a23.577,23.577,0,0,1,5.209,0,19.574,19.574,0,0,0,4.775,0c3.039-.18,3.473-.18,4.341.18s2.17.361,9.984.18c.434,0,1.3.18,2.6.18a6.237,6.237,0,0,0,2.6,0,4.326,4.326,0,0,1,2.171,0,35.275,35.275,0,0,0,7.379-.18,44.64,44.64,0,0,1,6.511-.18c.868.18,12.154.361,16.928.361h19.1c2.17,0,4.775,0,6.511-.18,2.17-.18,3.039-.18,3.039.18s2.6.541,9.984.722h6.511c1.3,0,10.852-.18,15.193-.361,10.418-.361,11.72-.361,12.588-.18.868.361,5.643.18,14.758-.18a62.032,62.032,0,0,1,8.247,0,59.154,59.154,0,0,0,6.077-.18,7.73,7.73,0,0,1,3.038,0c.434.18,3.473.18,9.55-.18,4.775-.18,9.984-.361,11.72-.18,1.736,0,6.511,0,11.286-.18a95.4,95.4,0,0,1,9.55-.18,10.707,10.707,0,0,0,2.6-.18c.868-.18,3.906-.361,6.511-.541,3.039-.18,6.945-.18,9.116-.361,3.038-.18,3.472-.18,3.038.18a29.172,29.172,0,0,1-3.038.361c-2.171,0-3.039.361-1.736.541s16.929-.541,23.006-1.082c3.039-.361,6.511-.541,7.379-.541s5.643-.361,10.418-.9c8.681-.9,16.495-1.263,16.495-.9,0,.541-1.736.722-6.511,1.082-3.038.18-6.077.361-7.379.541-2.6.18-9.115.722-22.138,1.624-6.077.361-8.681.722-15.626,1.624-1.3.18-4.775.18-8.247.18-6.945,0-22.572.18-23.874.361-.434,0-4.341.18-8.247.18s-10.418.18-13.89.361c-6.945.361-53.825.361-83.776.18-13.89-.18-15.192-.18-13.456.18s.434.361-12.154.18c-7.813,0-16.061-.18-18.231-.18s-10.852-.18-19.1-.18c-8.247-.18-16.495-.18-18.231-.361-2.17,0-8.247-.18-14.324-.361-8.248-.18-10.852-.18-11.72.18a2.76,2.76,0,0,1-1.736,0,1.633,1.633,0,0,0-1.3,0c-.868.361-3.906.361-3.906,0,0-.18-.434-.18-1.3-.18s-.868,0-.434.18c2.6.361-.434.541-11.286.541-22.138,0-31.253.361-32.556.722a2.9,2.9,0,0,1-1.736-.18c-.868-.361-.868-.361,0-.541a8.544,8.544,0,0,1,2.17,0c.434,0,1.3,0,1.3-.18.434-.18-.868-.18-4.34-.18-2.6,0-5.209.18-5.209.18-1.736.361-3.472.361-3.907,0-.434-.541-2.17-.541-4.341.18a5.225,5.225,0,0,1-2.6.361c-.434,0-.434-.18,0-.18a2.607,2.607,0,0,0,.868-.18c0-.361-2.6-.361-4.775.361-2.17.541-2.6.541-3.039.18s-1.736-.361-3.906-.361a15.058,15.058,0,0,0-3.472.18c-.434.18-27.347.361-44.275.361-5.209,0-9.115,0-9.115.18s-2.17.18-4.775.18c-5.643,0-59.034.361-61.639.361-.868,0-2.6-.18-3.038-.18a8.5,8.5,0,0,0-3.039,0c-2.17.541-15.192.541-17.363.18a2.852,2.852,0,0,0-1.736,0c-.434.18-5.209.361-12.154.18-.868,0-5.643,0-10.418.18-8.681.18-12.588.18-28.215,0a74.664,74.664,0,0,0-8.247.18,22.772,22.772,0,0,1-4.341.18,22.77,22.77,0,0,0-4.341.18c-.868.18-20.4.361-20.835.18s-6.945-.18-13.89-.361c-14.324,0-20.835,0-22.138.361a87.911,87.911,0,0,1-14.324.18,19.078,19.078,0,0,0-4.775.18,6.334,6.334,0,0,1-2.6,0,31.505,31.505,0,0,0-8.247,0c-.868.361-6.511.361-7.379.18-.868-.361-9.984-.361-11.286,0a7.994,7.994,0,0,1-3.039.18c-3.038-.361-16.061-.18-16.929,0-.434.361-6.945.361-23.44.18H927.151c-2.17,0-10.418,0-18.231.18-14.758.18-27.781.18-60.336.18-30.819-.18-41.671-.18-58.6,0-6.945,0-29.517-.18-34.726-.361a25.741,25.741,0,0,0-4.775.18c-.434.18-.868.18-2.6,0-2.6-.361-11.72,0-11.72.361,0,.18,3.473.361,7.813.361,4.341.18,8.247.18,8.681.18s.868.361.868.541c.434.722,2.6.9,16.495,1.082,6.077,0,14.758.18,19.1.361s9.115.18,9.984.18a9.591,9.591,0,0,1,2.6.361c.868.361,1.736.361,6.945.361,3.472,0,8.247,0,10.418.18,3.907.18,4.775.18,6.077-.18,1.736-.361,11.286-.541,11.286-.18a5.694,5.694,0,0,0,2.6.361,12.47,12.47,0,0,0,3.907-.18c1.3-.361,2.17-.361,4.775-.18,1.736.18,4.341.18,5.643.361,1.3,0,4.775.18,8.247.361,8.681.361,19.1.541,30.385.541,10.418,0,32.555.18,37.33.361a28.61,28.61,0,0,0,5.643,0c.868-.18,9.116-.18,19.1,0,9.55,0,26.044.18,36.462.18,21.7.18,19.967,0,19.1.361a7.22,7.22,0,0,1-2.171.18,7.218,7.218,0,0,0-2.17.18c0,.18-1.736.18-3.907.18-3.473-.18-6.077.18-3.907.361a2.127,2.127,0,0,1,1.3.361c0,.18-.434.18-1.736.18a14.928,14.928,0,0,0-2.6-.18,3.531,3.531,0,0,1-1.3-.361c0-.18-.434-.361-.868-.361s-.434.18-.434.18c.868.541-.868.541-1.736.18-1.3-.722-10.418-.9-11.72-.361a4.642,4.642,0,0,1-3.473.18c-.434-.18-3.473-.361-10.418-.361-5.209,0-9.984-.18-10.418-.18a4.325,4.325,0,0,0-2.17,0c-.868,0-3.907.18-7.379.18-6.077,0-6.945.18-6.945.541,0,.18-.868.361-1.736.361-1.736.18-2.17-.18-.434-.541.868-.361.434-.361-4.775-.361-3.038,0-13.456,0-23.006-.18H887.651a8.212,8.212,0,0,1-3.039,0c-.434-.18-6.077-.361-12.588-.361-17.363-.18-20.4-.18-26.478,0a46.861,46.861,0,0,1-7.379,0,11.735,11.735,0,0,0-4.341.18c-1.736.361-3.038.361-6.511.18-5.209-.361-16.061-.361-17.363,0s-4.34,0-3.907-.361c.434-.541-6.511-.9-7.379-.361,0,.18-1.3.18-2.6.18s-2.17-.18-2.6-.18c-.434-.361-4.341-.361-5.209,0a2.76,2.76,0,0,1-1.736,0,37.9,37.9,0,0,0-7.379-.18c-3.472,0-6.511,0-6.511-.18s-1.3,0-2.17.18c-1.736.361-2.17.361-6.511-.18a113.663,113.663,0,0,0-11.72-.361c-8.247.18-14.758.18-20.835,0-10.852-.361-12.588-.361-14.758,0-2.6.541-3.907.541-5.209,0-.868-.361-1.3-.361-3.038-.18-2.17.361-4.775.361-4.775,0,0-.18-3.039-.18-6.945-.18-11.286,0-23.874-.18-26.913-.361a8.793,8.793,0,0,0-3.473.18,10.7,10.7,0,0,1-2.6.18,42.663,42.663,0,0,0-4.341.18,13.706,13.706,0,0,1-4.775-.18c-2.17-.361-4.775-.361-9.984,0a3.872,3.872,0,0,1-1.736,0c.434-.18-1.3-.361-4.341-.361a9.786,9.786,0,0,0-1.736.18c0,.18-.434.18-.868,0a76.636,76.636,0,0,0-9.984-.361c-5.209,0-9.116-.18-9.55-.18a155.208,155.208,0,0,0-15.626.18,7.22,7.22,0,0,1-2.17-.18c-.868-.361-3.906-.361-13.456-.361-6.077,0-9.549,0-26.044-.541-11.286-.361-17.363-.361-19.1,0a33.481,33.481,0,0,1-5.643-.18c-2.6-.18-5.209-.361-5.209-.18-.434.18-15.193.18-21.7,0-19.1-.541-50.786-.722-52.089-.541a41.649,41.649,0,0,1-6.511.18c0-.18-3.473-.361-7.813-.361-6.511,0-17.363.18-19.1.361-1.3.18-1.736,0-1.736-.18s.434-.361.868-.361c.868,0,.434,0-.434-.18a4,4,0,0,0-2.17.18,5.659,5.659,0,0,1-3.473,0c-1.3-.361-10.852-.361-13.89,0a8.544,8.544,0,0,1-2.17,0c-.434-.361-4.775-.722-4.775-.361,0,.18-1.3.18-3.473,0H386.3a2.852,2.852,0,0,1-1.736,0c-.434,0-.868,0-.868.18s-.434.18-1.3.18-1.3-.18-.868-.361c.434-.361.434-.361-7.813-.361a29.635,29.635,0,0,0-6.077.361c-.868.361-4.341.541-4.775.18,0-.18.434-.361,1.3-.361s0-.18-2.17-.18-5.643,0-7.813.18a22.7,22.7,0,0,1-5.209,0,39.845,39.845,0,0,0-6.945,0c-6.945.18-13.022.541-14.324.541-3.039,0-3.039-.722-2.17-.722.868-.18,4.341-.18,7.813-.18,0,0,5.643-.361,6.511-.9s-2.17-.541-5.643-.541c-10.418,0-32.121,1.263-39.066,1.263-3.907,0-4.775.18-4.775.361s-.434.361-.434.361c-.434,0-.434-.18-.434-.361,0-.361-.434-.9-4.775-.361a19.536,19.536,0,0,1-4.341.18c-.434-.18-.868-.18,0-.18a2.605,2.605,0,0,0,.868-.18c0-.361-6.077-.18-6.945,0a1.634,1.634,0,0,1-1.3,0,8.211,8.211,0,0,0-3.038,0,29.388,29.388,0,0,1-5.643,0,24.089,24.089,0,0,0-5.209.18c-2.17.361-6.945.541-7.379.18-.434-.18.868-.18,2.6-.18,2.17,0,3.038,0,2.6-.361a17.5,17.5,0,0,0-3.907-.18c-2.17.18-4.775.18-5.643.18h-7.813c-7.813,0-17.363.18-18.665.541a59.83,59.83,0,0,1-6.945.18c-3.473,0-6.077,0-6.077.18s.434.361.868.541c.868.361.868.541-.434.541a9.785,9.785,0,0,1-1.736-.18,1.634,1.634,0,0,0-1.3,0c-.868.18-2.17.18-6.511,0-4.341-.361-5.643-.361-6.511,0-1.3.361-6.945.18-6.945-.18,0-.18-9.116-.18-19.967-.18-15.627,0-19.967,0-20.835.361a16.172,16.172,0,0,1-3.907.361c-5.209,0-18.665.541-23.006,1.082-2.6.18-6.077.541-7.813.541s-3.907.18-4.341.18c-1.3.18-4.341.541-9.116.722-1.736,0-3.039.18-3.039.361s-.434.18-.868.18a22.868,22.868,0,0,0-3.473.722c-1.736.361-3.473.722-3.907.722s-1.3.18-1.3.541c-.434.722-.868.541-1.736-.18s-.868-.722.434-1.082a29.8,29.8,0,0,1,3.473-.541c3.473-.18,4.341-.722,3.473-1.624a3.589,3.589,0,0,0-1.736-.722c-1.3-.18-1.736-.722-.434-.9.868-.361.434-.9-.434-.9a3.708,3.708,0,0,1-1.3-.18c0-.18.868-.18,2.17-.18a8.948,8.948,0,0,0,2.6-.18c0-.18,0-.361-1.3-.18-.868,0-6.077.18-11.286.18-5.643,0-10.852.18-12.154.361-3.039.361-3.473.361-3.473-.18q0-.271,2.6-.541c1.3,0,4.775-.18,6.945-.361,2.6-.18,7.813-.18,11.72-.18,7.379.18,9.116,0,4.775-.722a69.681,69.681,0,0,0-7.813-.361c-11.72.18-20.835,1.082-25.61,1.082a10.208,10.208,0,0,1-4.341-.9c-.868-.361,2.17-.541,10.418-.722,5.209,0,11.72-.18,14.758-.18s6.511-.18,7.813-.18c2.17,0,5.209-.9,5.209-1.443s-12.588-.722-22.572-.9c-6.511,0-9.55.722-10.418,1.082-1.736.361-5.209-.722-3.473-1.263a23.515,23.515,0,0,1,8.247-.722c1.736.18,8.247.18,15.192.18L92,153.171a14.675,14.675,0,0,0,3.907-1.263c0-.361-3.039-.541-4.775-.361a6.238,6.238,0,0,1-2.6,0c-.868-.18-.434-.361.434-.722,2.17-.722.868-1.082-3.039-.722q-7.162.541-7.813,0c0-.18,1.3-.361,3.473-.541,3.039-.361,3.907-.361,3.907-.9q0-1.353-7.813-.541a58.291,58.291,0,0,0-6.077.722,16.721,16.721,0,0,1-3.473.541c-1.3.18-14.758,1.985-15.627,2.165-1.3.361-2.6.18-2.6-.361,0-.18.868-1.443,3.039-1.443,3.038,0,12.588-1.082,14.758-1.443,1.3-.18,1.3-.18.434-.361-1.736,0-.434-.541,1.3-.541.868,0,1.736-.18,2.17-.18.868-.541-1.736-.541-4.775-.18s-9.55.9-13.022.9c-1.736,0-3.473-.722-3.907-1.624a2.534,2.534,0,0,0-1.736-.9c-1.3-.18-1.3-.361-1.3-.722.434-.541,0-.541-2.6-.361a10.42,10.42,0,0,1-3.907-.18c-.868-.361-.868-.361,1.736-.361h3.907c1.3,0,2.6-.541,2.6-1.443,0-.541-.434-.722-2.6-.18-1.3.18-1.3.361-.868.541s.434.361-.434.361-1.3-.18-.868-.18c.434-.361-2.17,0-4.775.361a14.913,14.913,0,0,1-4.775.18c-.434-.361,1.3-.722,4.341-1.082a14.733,14.733,0,0,0,3.473-.722c-4.776.18-3.908-.18-3.474-.18.868-.18.868-.9,0-.9a2.605,2.605,0,0,0-.868.18c-.434.361-1.3,0-1.3-.361,0-.18.868-.361,2.6-.361a10.715,10.715,0,0,0,3.907-.541,9.558,9.558,0,0,1,2.17-.541c1.3-.18,2.17-1.263.434-1.263-.434,0-.868.18-.868.361,0,.541-1.3.722-5.643,1.082a28.816,28.816,0,0,0-4.341.722c-1.3.541-3.038.722-3.473.361,0-.18-3.039,1.082-4.341-.18-.868-1.263,3.039-.9,3.039-.9,1.736-.361,4.341-.541,5.643-.722,2.6-.361,3.473-.722,1.3-.541s-2.17-.361,0-.722c.868-.18,1.736-.361,1.736-.541-.434-.541-3.473-.541-8.247,0-2.6.18-4.341.361-4.775.361q-1.3-.541,3.907-1.082c3.039-.361,4.775-.9,3.039-.9-1.3,0-.434-.361.434-.541,2.17-.18,1.736-.722-.434-.9a14.212,14.212,0,0,0-3.907.18c-2.17.541-3.907.541-3.907.18a35.846,35.846,0,0,1,6.945-1.082c1.3,0,1.736-.361.868-.541-.868-.361-8.681.361-10.418.9a7.65,7.65,0,0,1-2.6.361c-.434-.18,0-.361,1.3-.722s1.736-.541,1.3-.9.434-.361,3.473-.361c4.341,0,5.643-.361,5.209-1.263,0-.361,0-.722.434-.9s0-.541-.434-.722c-.868-.361-.868-.361,0-.541,1.3-.18,4.775-1.8,4.775-2.165,0-.541-3.039-.361-9.984.541-4.775.722-5.643.722-7.379.541s-2.17-.18-3.038.18c-1.3.541-2.17.361-1.3-.361.434-.18.434-.722,0-1.263q-.651-1.624-3.907.541a9.031,9.031,0,0,1-3.473,1.263c-.868.18-8.681-1.8-6.077-3.428,1.736-1.082,9.984-.9,10.418-1.082,1.736-.541,14.758-1.263,17.363-1.443,2.17-.18,5.643-1.082,4.775-1.263l-3.473.361c-3.038.541-4.775-.361-3.907-.9.434-.361,5.643-.722,8.681-.722,2.17,0,4.341-.361,4.341-.722a2.776,2.776,0,0,0-2.17-.9c-3.039.18-24.308,3.247-22.572.9.434-.361,2.17-.722,6.077-1.082q3.256-.271,2.6-.541c-.434-.18.868-.361,4.341-.541a118.149,118.149,0,0,0,13.022-.722,28.817,28.817,0,0,0,4.341-.722,6.431,6.431,0,0,1,1.736-.541,3.531,3.531,0,0,0,1.3-.361c.434-.361.434-.361-.868-.361-.868,0-1.736-.18-1.736-.361s.868-.18,2.6-.18a6.25,6.25,0,0,0,3.907-.541c1.3-.541-3.907-1.624-4.775-1.624-.434,0-.868-.18-.868-.361.434-.361-.434-.361-1.3,0a1.634,1.634,0,0,1-1.3,0c-.434-.18-1.3-1.082,0-1.263.868-.18,12.154-1.263,16.495-1.8,5.643-.722,6.077-1.624,1.3-1.624-2.6,0-5.209-.361-4.775-.722a7.816,7.816,0,0,1,2.6-.541c1.3-.18,2.17-.541,2.17-.722s.434-.541,1.3-.9,1.3-.9,1.3-1.443V100.13h-2.17a5.7,5.7,0,0,1-2.6-.361c0-.18-2.17-.361-5.643-.361-5.643,0-6.945-.18-4.341-.722q1.3-.271,1.3-.541c-.434-.361-4.341,0-8.247.541-2.17.9-2.17.9-2.17.541s2.6-1.263,5.209-1.8c1.3-.18,6.511-.722,14.324-1.263.868,0,3.039-.18,4.341-.361s5.209-.361,8.681-.722a60.849,60.849,0,0,0,8.681-.9,17.32,17.32,0,0,1,3.907-.541c.434,0,0-.18-.868-.18a25.364,25.364,0,0,0-3.473-.18c-.868,0-3.473.18-6.511.18-4.775.18-5.209.18-6.511.722s-1.736.722-4.341.541q-4.558,0-3.907-1.082c.434-.361-3.039-.541-9.55,0-2.6.18-4.775.18-5.209.18-.434-.18.868-.9,2.17-.9a8.778,8.778,0,0,0,2.6-.541,47.235,47.235,0,0,1,6.077-.9c2.6-.361,21.27-1.263,26.478-1.443,3.038,0,2.17-1.082,2.17-1.263,0-.361-14.324,0-17.363.541-3.038.361-6.945.361-6.945,0,0-.18.868-.18,2.17-.361,2.6,0,3.038-.361,1.3-.9a10.715,10.715,0,0,0-3.907-.541,21.751,21.751,0,0,1-2.6-.18c0-.361,2.17-1.082,3.907-1.263a14.764,14.764,0,0,1,2.17-.361c.434-.361-5.209-.18-11.72.361-3.039.18-4.775.18-5.643.18-2.17-.361-1.736-.9.434-.9,1.736,0,3.039-.722,1.3-.722-1.3,0-1.736-.541-.868-.9a5.292,5.292,0,0,0,1.736-1.263c.868-1.082.868-1.082,5.209-1.443,2.17-.18,5.643-.541,6.945-.722a7.731,7.731,0,0,1,3.039,0c0,.18.868.18,1.3.18s9.55-.18,19.967-.18c11.72,0,19.533-.18,20.4-.361,2.6-.361.868-.722-4.341-.722a28.874,28.874,0,0,1-5.209-.18c-.434-.18-.434-.361-.434-.361s1.3,0,3.039-.18a27.358,27.358,0,0,0,4.775-.541c2.17-.541,2.17-.541.434-.722-.868,0-6.945-.18-13.022-.18-6.511,0-12.154-.18-12.588-.361-1.3-.361-1.3-.361,6.945-.361,3.473,0,7.813-.18,9.55-.361,2.17-.18,7.379-.361,12.588-.361H115v-.722c.434-2.165-9.55-.9-13.456-.9-3.038,0-6.077.18-6.945.18a5.821,5.821,0,0,1-2.6-.18,7.219,7.219,0,0,0-2.17-.18,4.431,4.431,0,0,1-1.736-.18,7.219,7.219,0,0,0-2.17-.18,22.4,22.4,0,0,1-3.473-.18c-.868-.18-6.077,0-11.286.18s-11.286.361-13.022.361c-3.039,0-3.039,0-3.039-.722s-3.473.541-10.852,1.082c-3.473.361-3.473-1.082-3.039-1.624,0-.18,1.3-.18,2.17-.18,4.775.18,14.324-1.263,15.627-2.165s.434-.9-4.341-1.082c-4.341-.18-5.643.722-11.72,1.624-1.3.18-3.039-.722-3.473-.722-.868,0-.434-.722,0-.722a35.023,35.023,0,0,0,4.341-.361c1.736-.18,6.077-.361,9.55-.361h6.511l1.736-.9c3.038-1.443-10.852-.722-11.72-.541a1.241,1.241,0,0,1-.868,0c0-.18-2.6-1.985,6.945-1.985,7.379,0,12.154.541,14.324.361,2.6-.361,10.418-.541,24.308-.722,5.209,0,9.984-.18,11.286-.361,3.039-.361,3.907-1.263,3.039-2.526l-6.511-.9H89.392c-5.643,0-7.379.18-7.813.361-.434.541-2.6.361-2.6-.18s3.038-1.443,14.758-1.624c8.681,0,17.363-1.082,16.495-1.443,0,0-3.907-.18-8.681-.18-6.945,0-8.681,0-10.418-.541-3.039-.541-6.511-.722-6.511-.18,0,.361-1.3,1.263-3.473,1.263-1.3,0-.868-.722.434-1.082a3.173,3.173,0,0,0,1.3-.541c-.434-.18-5.643-.722-10.852-1.082-1.3-.18-1.736-.18-1.736-.541,0-.18,0-.541-.434-.541s-.434-.361-.434-.541c.434-.361.868-.361,6.077-.361H85.919a25.978,25.978,0,0,1,5.643,0c.868.361,25.61.361,25.61.18s-.434-.18-.434-.18c-.434,0-.434-.18-.434-.18,0-.18.434-.18.434-.18.868.18,3.039-.18,3.039-.541,0-.722-2.17-.9-8.247-.722s-9.116-.18-4.341-.541c2.6-.18,2.6-.18,1.3-.541s-3.907-.361-9.55,0c-2.17.18-2.17.18-.868-.18s.868-.361-4.341-.541c-3.039-.18-6.077-.361-6.945-.541s-2.6-.361-3.473-.541c-2.6-.18-1.736-.722,1.3-.541a17.329,17.329,0,0,0,3.473-.18c1.736-.361,19.1-.361,22.138,0a21.129,21.129,0,0,0,4.775,0c1.3-.18,4.775-.361,8.247-.541,10.418-.361,12.154-.541,15.193-1.082s3.907-.9,2.6-.9-19.1-.18-21.7-.18h-5.209c-5.209,0-26.044.541-26.912.722a2.4,2.4,0,0,1-2.17-.361c-.434-.361-.868-.722-.868-1.082.434-.722,0-.722-14.758-.722-13.89,0-21.27.361-23.44.9a4.473,4.473,0,0,1-2.6.18c-1.3-.541-.868-.9.868-1.082.868,0,2.6-.361,3.907-.361,1.3-.18,8.681-.361,19.1-.361,27.781,0,48.182-.361,50.352-.9.868-.18,3.039-.361,5.209-.541,10.418-.9,10.418-1.263-.434-1.263-6.077,0-9.116-.18-11.286-.361a29.53,29.53,0,0,0-5.643-.18c-1.736,0-6.945.18-12.154.361-8.681.18-18.665.361-16.929-.9s6.511,0,6.511,0c10.852,0,11.72,0,11.286-.541-.434-.18,0-.361.868-.18a31.627,31.627,0,0,0,3.907-.18c1.3-.18,5.209-.361,8.681-.361a42.723,42.723,0,0,0,6.945-.361,17.908,17.908,0,0,1,4.341-.361,30.648,30.648,0,0,0,4.775-.361c1.3-.361,1.3-.361-.868-.541a24.113,24.113,0,0,0-3.039-.361,3.259,3.259,0,0,1-1.736-.541c-.434-.361-1.3-.541-3.039-.541-3.907,0-7.813-.361-7.813-.541s.434-.361,1.3-.361c.434,0,2.17-.18,3.473-.361,2.17-.18,2.17-.18,1.736-1.263-.868-1.624-2.17-1.985-4.341-2.165,0,0-8.247,1.082-7.813,0,.434-.9,7.813-.541,7.813-.541.868,0,1.736-1.082,1.3-1.263,0-.18-4.775-.18-11.72-.361-9.55,0-12.154,0-15.193.361-3.907.541-6.945.361-8.247-.18-.434-.361-.434-.361.434-.722.434-.18.868-.541.868-.722,0-.722,1.3-2.345,9.116-2.345,6.077,0,9.55,1.443,7.813,1.624-1.3.18-4.341.18-5.643.18-1.736,0-3.473.18-3.473.18-.434.361,20.835.18,21.7-.18q.651-.271,0-.541a1.5,1.5,0,0,1-.868-1.263,3.993,3.993,0,0,0-.868-1.985c-.434-.541-.868-1.082-.434-1.263,0-.18-.434-.541-1.736-.722-2.17-.361-14.758,0-11.72-1.624s14.324-.18,15.193-.541a6.1,6.1,0,0,0,1.736-1.443c0-.361.434-.9.434-1.082a17.645,17.645,0,0,1,4.775-2.706c2.6-.9-8.247.18-12.154-.722s-.434-1.082.434-1.082c1.736,0,16.929-.541,16.495-.9,0-.18,0-.361.434-.361a.867.867,0,0,0,.868-.722c0-.541,2.17,0,3.907-.18.868-.18,1.3-.18,1.3-.361a20.644,20.644,0,0,1,6.945-2.345c1.736-.361,4.775.361,23.874,0,8.681-.18,15.193-.361,17.363-.722,1.736-.18,6.945-.541,12.154-.541,7.379-.18,11.72-.361,13.022-.9l.868.361c.868.361,1.3.541,5.209.361C211.8,5.234,214.4,3.61,214.4,3.249c0-.18,1.736-.361,5.643-.361,9.115,0,49.918-.361,52.957-.541,1.3,0,7.813-.18,13.89-.18s11.72-.18,12.154-.361a42.973,42.973,0,0,1,6.077-.18h6.511c.868,0,3.907,0,7.379-.18,3.473,0,10.852-.18,16.495-.361S346.8.9,347.665.9s4.775,0,9.55-.18c8.681-.361,16.061,0,26.478-.18,3.907,0,9.115-.18,11.286-.361,2.6,0,14.324-.18,26.478-.18,21.269,0,22.138-.541,23.874,0s2.17.541,7.813.361c3.473,0,7.379-.18,9.55-.361,1.736,0,4.775,0,6.511.18,4.775.541,10.852.541,9.984,0-.434-.361,5.209-.541,11.72-.361,3.038,0,6.077.18,6.511.18s2.17-.18,3.473-.18a44.532,44.532,0,0,1,6.945,0c2.17.18,5.643.18,8.247.361,3.907.18,4.341,0,5.643-.541S523.9-.9,526.936-.9a32.564,32.564,0,0,1,5.209.361c1.736.361,4.341.541,4.341.18,0-.541,3.039-.541,6.511-.18,3.907.361,10.418.541,12.154.18a8.5,8.5,0,0,1,3.038,0,8.5,8.5,0,0,0,3.039,0,10.82,10.82,0,0,1,3.472,0,17.536,17.536,0,0,0,5.209-.18,14.652,14.652,0,0,1,5.643,0c1.736.18,6.511.361,22.138.18,30.819-.18,134.562-.18,138.9,0,2.17.18,6.077.18,8.681.361,15.627.361,21.7.361,24.308.361h34.292c.434,0,6.945,0,13.89.18s21.27.18,31.253.361c23.006.18,43.407.361,43.841.541,0,0,0,.361-.868.541-1.3.361-7.379.361-25.61,0-3.907,0-21.27-.18-38.632-.361-27.347-.18-43.841-.361-46.88-.361-.434,0-3.473,0-6.077.18-5.209.18-6.511.18-11.72,0a7.262,7.262,0,0,0-3.039.18c0,.18-.868.18-1.3.18-.434-.18-7.813-.18-16.495-.18-14.324,0-15.627.18-17.363.541a14.754,14.754,0,0,1-4.775.541,35.863,35.863,0,0,0-6.511.361,26.907,26.907,0,0,1-3.039-.18c-3.907-.361-59.9-.541-61.2-.18-.868.361-5.643.361-31.687.541-12.588,0-24.308.18-26.044.18-1.3,0-3.906,0-5.643.18a9.885,9.885,0,0,0-3.473.361c-.868,1.082,4.775,1.624,6.511.722,1.3-.541,2.17-.541,5.643-.18a108.775,108.775,0,0,0,13.456.9,25.558,25.558,0,0,1,4.341.18c.868.18,21.7.361,63.375.361,34.292,0,79,.18,100.271.18,20.835,0,44.709.18,53.391.18,8.247,0,15.627.18,16.495.18a28.036,28.036,0,0,0,3.907,0,25.134,25.134,0,0,1,5.209,0c2.6.18,13.456.361,20.835.18h17.363c9.115,0,19.1,0,22.572-.18,10.852-.361,61.2-.541,88.985-.541h19.533c3.473,0,6.945,0,8.247.18a14.069,14.069,0,0,0,3.906,0,22.905,22.905,0,0,1,5.209-.18h49.918s6.945.18,15.627.18h29.083c3.039,0,6.511,0,8.247-.18,1.737,0,5.209,0,7.813.18s6.945.18,9.549.18c13.89-.18,33.424,0,51.221.361,6.077.18,37.764.361,51.22.361,1.737,0,19.968-.361,25.61-.361a22.881,22.881,0,0,0,4.775-.361,1.635,1.635,0,0,1,1.3,0c.434.18,5.209.18,10.417.361,5.643,0,13.457.18,18.231.18,19.967.541,25.61.541,49.05.722H1385.1c.868,0,19.967,0,42.539.18,39.935,0,76.4.361,98.534.541,17.8.18,76.831.18,86.814,0,4.775-.18,36.462.18,36.462.18a42.308,42.308,0,0,0,7.813.722c3.473.18,4.775.361,5.209.541a8.546,8.546,0,0,0,3.039.361c9.116,0,10.418,0,10.418.18,0,.361,4.341,1.443-8.682,1.624-8.681,0-19.1-.722-20.4-.541-1.3.361-1.736.361-2.17,0s-8.682-.541-15.192-.361l-3.907.18,2.171.541c1.736.541,1.736.541.868.722a10.762,10.762,0,0,1-2.171.18c-.868,0-.868,0-.434-.361.868-.541,0-.722-3.907-.541-2.17,0-3.038.18-2.6.361,0,.18-.434.361-.868.541-.868,0-1.3.18-1.3.361s-1.3.18-2.6.361a29.2,29.2,0,0,0-4.341.361c-1.3.18-1.736,0-1.736-.361a3.65,3.65,0,0,0-3.039-.361c-.434.361,1.3,1.082,2.6.9h1.3c.434.361,8.682,0,19.1,0,6.077,0,10.418.541,10.418.722.868.541-17.363.722-26.044.361-4.341-.18-24.308-.361-25.61-.18-2.17.361,0,.541,6.945.722,14.758.541,28.649,1.443,28.649,1.8,0,.18-.434.18-.868.18-6.077.18-9.983.361-9.983.9,0,.361,6.945.9,13.89,1.082,3.038,0,5.643.18,5.643.361s-.868.18-1.736.18-1.736.18-1.3.18c.434.361,4.34.722,9.55.722,2.6,0,6.945.18,10.418.361,3.039.18,7.813.361,10.418.361s5.209.18,5.643.18c3.907.361-4.341.9-15.627.9H1642.5l1.736.722a10.1,10.1,0,0,0,4.775.9c1.736,0,3.472.18,3.907.18.434.18,4.775,0,9.55-.18Zm-62.941-6.495c.868,0,1.736-.18,2.17-.18a2.6,2.6,0,0,0,.868-.18c0-.361-2.17-.361-3.472.18C1608.644,19.667,1608.644,19.667,1610.38,19.486ZM760.9,4.512c.868.361.434.361,3.039,0,2.17-.361,1.736-.722-1.3-.722C760.9,3.791,760.033,3.971,760.9,4.512ZM128.024,38.43c0-.18,0-.18-.434-.18a2.605,2.605,0,0,0-.868.18c0,.18.434.18.434.18A2.537,2.537,0,0,0,128.024,38.43Zm-9.55,12.088c0-.361-5.209-.361-6.077,0-.868.18-.434.361,2.6.18C116.738,50.7,118.475,50.517,118.475,50.517Zm2.6,0c0,.361,3.907.361,4.341,0,0-.18,0-.361-.868-.361C123.249,49.976,121.079,50.156,121.079,50.517ZM111.53,78.3c3.039-.541,2.17-.9-2.6-.9-3.473,0-3.907,0-3.907.541C105.018,78.661,108.057,78.842,111.53,78.3ZM150.6,149.2c.868-.722-2.6-.9-6.945-.9-9.116,0-23.874.9-24.742,1.082-.434,0-2.6.18-5.209.18-6.511,0-14.758.361-14.758.722,0,.18-3.473.9-2.17,1.263,2.6.722,7.813.18,14.758-.361,2.17-.18,4.341-.361,5.209-.361,2.17,0,15.193-.541,20.4-.722,2.17-.18,6.077-.361,8.681-.361C147.992,149.563,149.294,149.924,150.6,149.2Zm21.27-.722c-2.17-.361-4.775-.361-5.643.18-.868.361.868.722,3.907.722C173.6,149.2,174.47,148.841,171.866,148.48Zm-11.286.18c-.868-.541-5.643-.541-6.945.18-.434.18.868.361,3.473.361S161.014,149.022,160.58,148.661Zm-6.511-106.8a39.845,39.845,0,0,0-6.945,0c-3.473.18-7.379.18-9.116.18-3.039-.18-4.775,0-4.775.361,0,.18,1.3.361,5.643.361.434,0,3.907,0,6.945-.18C153.635,42.4,155.371,42.218,154.069,41.857ZM597.69,155.7a24.567,24.567,0,0,0,3.039-.18c0-.361-4.341-.361-5.643,0C595.086,155.7,595.52,155.7,597.69,155.7Zm-6.945,0c1.736,0,2.6-.18,2.6-.361s-.434-.361-1.736-.18C588.14,155.336,587.706,155.7,590.745,155.7Zm-13.456-.18c.434.18,1.3.18,1.3-.18a2.606,2.606,0,0,0-.868-.18C577.289,155.336,576.855,155.336,577.289,155.516Zm-19.1-.18c1.3.361,2.6,0,1.736-.361a2.853,2.853,0,0,0-1.736,0C557.321,154.975,557.321,155.156,558.189,155.336Zm-12.588-.361c0,.18.868.18,1.736.18a9.783,9.783,0,0,0,1.736-.18c0-.18-.868-.18-1.736-.18A5.259,5.259,0,0,0,545.6,154.975ZM792.588,4.332c0-.361-20.835-.361-20.835-.18s-.868.18-1.736.18-1.736.18-1.736.361c-.434.361,0,.361,1.736.18.868-.18,19.967.9,23.44.361C796.929,4.512,792.588,4.332,792.588,4.332Zm803.467,33.376c0-.18,0-.18-.434-.18s-.868.18-1.3.18c0,.18,0,.18.434.18S1595.621,37.708,1596.056,37.708ZM1455.85,149.2c-.434-.18-19.1-.361-19.533-.18a37.273,37.273,0,0,1-4.775,0c-2.17-.18-9.116-.361-15.193-.361s-11.286-.18-12.154-.361c-1.3-.18-36.462-.18-80.737,0-32.99.18-44.275.361-45.143.541a10.761,10.761,0,0,1-2.171-.18,4.324,4.324,0,0,0-2.17,0c0,.18-2.6.18-5.209.18s-6.077.18-7.38.18c-2.17.18-2.6.18-2.6-.18,0-.541-1.736-.722-7.38-.541h-22.138c-3.472.18-6.945,0-7.379,0a11.113,11.113,0,0,0-3.473,0c-1.3.18-5.643.361-9.55.361-6.945,0-6.945,0-6.511.541s.434.541-3.038.541c-3.907-.18-6.946-.361-7.813-.541-2.171-.541-9.116-.361-9.984.361-.434.361-6.077.541-8.681,0-1.736-.18-2.171-.18-3.039.18a10.672,10.672,0,0,1-3.039.361c-6.511,0-8.247,0-8.682.361,0,.18-.868.361-1.3.361s-.868.18-.868.361,3.039.361,15.193.18c8.247,0,17.363-.18,19.967-.18s7.379-.18,11.286-.18c4.341,0,7.38,0,8.682.18a5.949,5.949,0,0,0,2.6,0,10.823,10.823,0,0,1,3.473,0c3.038.18,4.775.18,4.775-.361,0-.18.434-.18.868,0,.868.361,1.736.361,14.324.541h25.177c2.17,0,5.643-.18,7.813-.361,6.945-.722,10.418-.9,11.286-.722.868.361,5.643.361,8.681,0,4.341-.541,12.154-.541,14.325,0a49.358,49.358,0,0,0,6.511.361c7.379,0,15.627-.361,16.929-.541a12.617,12.617,0,0,1,3.907,0,20.739,20.739,0,0,0,4.775,0c3.039-.541,6.077-.541,6.945,0,.868.361,1.736.361,7.379.361,4.775-.18,6.511-.18,7.38-.722,1.3-.541,1.736-.541,9.115-.361,4.341.18,8.247.361,8.682.361.868.18,13.456.18,17.8-.18a10.788,10.788,0,0,1,4.341.18,4.355,4.355,0,0,0,3.039,0,5.691,5.691,0,0,1,1.736-.18c.434,0,5.209.18,11.286.18s13.022.18,15.627.361a100.223,100.223,0,0,0,10.418,0,35.714,35.714,0,0,1,6.511,0c.434,0,1.3,0,1.3-.18s1.736-.18,3.473-.18C1454.548,149.743,1456.718,149.382,1455.85,149.2Zm6.945.361c0-.361-2.6-.541-3.907-.361-.868.18-.868.18.434.361C1461.059,149.743,1462.8,149.743,1462.8,149.563Zm11.286-.18c-1.3-.18-9.549,0-9.549.361,0,.722,4.775.722,8.681.18C1474.515,149.743,1474.515,149.563,1474.081,149.382Zm40.8-132.783c-1.3,0-8.681-.18-15.626-.361-27.781-.722-59.9-1.263-61.638-.722a10.759,10.759,0,0,1-2.17-.18,41.747,41.747,0,0,0-6.077-.361c-2.17,0-6.077-.18-8.248-.361-3.906-.18-4.341-.18-6.077.361a5.223,5.223,0,0,1-2.6.361c-1.736-.541-6.077-.722-9.115-.541a56.072,56.072,0,0,1-7.813,0c-2.6-.18-9.984-.361-16.061-.361-12.588-.18-20.835-.541-23.44-.9-2.17-.361-8.247-.361-9.983.18-.868.18-4.341.18-12.154,0-16.929-.361-28.649-.541-29.083-.18,0,.18.434.18.868.18a2.381,2.381,0,0,1,1.736.541c.434.361.868.541,2.171.541.868,0,6.077.18,11.286.18,5.209.18,14.759.361,21.27.361,16.061.18,27.781.361,29.083.541.434,0,2.17.18,3.472.18s3.907.18,5.643.18c9.116.361,73.358.722,101.139.541,2.6,0,12.154.18,19.533.541,5.643.18,15.627.18,16.495-.18C1517.054,16.6,1516.186,16.6,1514.884,16.6Zm10.852.18a25.038,25.038,0,0,0-5.209,0c-1.3.18-.434.361,2.6.361C1525.736,17.141,1527.038,16.961,1525.736,16.78Zm22.138.361a24.981,24.981,0,0,0-5.209-.361c-2.6,0-5.209-.18-5.643-.18a17.327,17.327,0,0,0-3.472-.18c-1.3,0-3.473.18-4.341.18-4.341.18,2.6.722,9.115.722a58.357,58.357,0,0,1,7.813.361C1547.005,18.224,1549.176,17.5,1547.873,17.141Zm10.418-1.624c2.6,0,4.775.18,5.209.18.868.361,5.209,0,7.379-.361a24.639,24.639,0,0,1,4.341-.361,14.648,14.648,0,0,0,3.473-.361c.868-.361-3.038-.541-12.588-.541-4.341,0-9.116-.18-10.852-.361s-4.775-.18-6.511-.18-5.643,0-8.682-.18c-3.039,0-7.379-.18-9.55-.18h-16.495c-3.473,0-3.907,0-4.775.361-1.3.722.434.9,8.247,1.082,4.34,0,10.852.18,14.324.361C1537.456,15.517,1544.835,15.517,1558.291,15.517Zm29.951,2.526c-1.3-.18-18.665-.9-23.44-.722-1.3,0-5.643.722-9.549.722h-6.946l4.341.361a248.015,248.015,0,0,0,26.912.361c3.907-.18,7.813-.361,8.682-.361C1589.11,18.224,1589.11,18.224,1588.242,18.043Zm1.3.541,2.17.361c2.17.361,4.775.18,5.209-.18,0-.18,1.3-.18,3.039,0,1.736,0,2.6,0,2.17-.18-.868-.361-6.511-.361-9.984-.18ZM1231.869,149.022h-1.3q0,.271,1.3,0Zm81.606.541c-.434,0-.434.18-.434.18,0,.18.434.18.434.18l.434-.18C1313.909,149.563,1313.475,149.563,1313.475,149.563Zm240.476,8.84c0-.541-.869-.18-5.209-.18-8.682.18-10.418.9-6.511,1.082C1545.7,159.485,1553.516,159.125,1553.95,158.4Zm198.8-68.917c-.868-.18-1.736,0-1.736.18-.434.18.434.361,1.3.361C1754.492,90.027,1754.926,89.666,1752.755,89.486Zm-372.434,59.536c-.434,0,0,.541.869.541s1.3-.541.868-.541Zm-124.578-.361c-.434,0-.434.18-.434.18l.434.18c.434,0,.434-.18.434-.18C1256.611,148.841,1256.177,148.661,1255.743,148.661Zm-14.759,1.8a2.607,2.607,0,0,0,.868.18c.434,0,.869-.18.434-.18C1241.852,149.924,1240.984,150.1,1240.984,150.465Zm-8.681-.541c-.434.18-.434.361.868.361s1.3,0,.868-.361A2.76,2.76,0,0,0,1232.3,149.924Zm11.72-1.263-.434.18c0,.18.434.18.434.18.434,0,.434-.18.434-.18Z" transform="translate(1756.284 173.135) rotate(180)" fill="#f2f1ec"/>
</svg>
