<svg xmlns="http://www.w3.org/2000/svg">
  <path id="Path_407" data-name="Path 407" d="M989.582,165.8c0,.18-.473.18-.947.18a3.057,3.057,0,0,1-.947-.18c0-.18.473-.18.947-.18S989.582,165.619,989.582,165.8ZM480.82,161.65c-.473.18.473.361,1.893.361,1.893,0,1.893-.18.946-.361A4.993,4.993,0,0,0,480.82,161.65Zm635.6-.541c2.366,0,1.42-.541-.947-.541-2.84,0-5.206.18-5.206.541C1110.265,161.29,1111.211,161.29,1116.417,161.109ZM985.8,165.619a3.056,3.056,0,0,0-.946.18c0,.18,0,.18.473.18a3.056,3.056,0,0,0,.947-.18C986.269,165.619,985.8,165.619,985.8,165.619Zm123.523-4.51c0-.18-.473-.18-1.42-.18a4.373,4.373,0,0,0-1.42.18c0,.18.946.18,1.42.18S1108.845,161.109,1109.318,161.109Zm-600.575.722c-.947.361.473.541,2.84.361,2.366,0,3.313-.18,1.42-.541A10.842,10.842,0,0,0,508.743,161.831Zm429.726,3.247c-2.84,0-3.313.18-2.366.722a4.632,4.632,0,0,0,3.786-.18C940.835,165.078,940.835,165.078,938.469,165.078Zm38.808.722a25.817,25.817,0,0,0-2.84.18c0,.18.946.18,2.366.18s2.366-.18,2.84-.18A13.943,13.943,0,0,0,977.277,165.8Zm-153.339-.18c0,.18.473.18,1.42.18a11.594,11.594,0,0,0,1.893-.18c0-.18-.473-.18-1.42-.18C824.885,165.259,823.938,165.439,823.938,165.619Zm-374.354-3.789c-.473.18.473.361,1.893.361,1.893,0,1.893-.18.946-.361A7.4,7.4,0,0,0,449.585,161.831Zm638.91,3.969c-.473,0-.473.18-.947.361,0,.18,0,.18.474.18C1088.968,166.161,1089.441,165.8,1088.495,165.8Zm34.549-5.232a20.421,20.421,0,0,0-3.313.18c.473.361,4.259.361,5.679,0C1125.883,160.568,1125.409,160.568,1123.043,160.568Zm-51.113,5.412s0,.18.947.18.947,0,.473-.18A1.93,1.93,0,0,0,1071.93,165.98Zm-24.137-.361c-.473,0-.473.18-.473.18,0,.18.473.18.473.18.473,0,.473-.18.473-.18C1048.267,165.619,1047.794,165.619,1047.794,165.619Zm19.4.541a6.757,6.757,0,0,0,3.786,0c0-.18,0-.361-.473-.361C1069.091,165.619,1066.724,165.8,1067.2,166.161Zm106.485-1.263c-.473-.18-74.776-.18-74.776,0s.473.18.473.18a3.849,3.849,0,0,1,1.42.18,6.747,6.747,0,0,1,1.893.18c.946,0,1.42.18.946.361,0,.18-.474.541,0,.541.473.18,4.733.361,4.733,0l-1.893-.361c-.947-.18-1.893-.361-1.893-.541s41.174-.18,46.853,0c.946,0,3.786,0,6.152-.18,2.366,0,6.626-.18,9.465-.18C1172.736,165.259,1174.156,165.078,1173.682,164.9Zm-35.495,2.165c-.946.18.947.722,3.786.722a12.537,12.537,0,0,0,4.733-.722C1147.179,166.7,1140.081,166.7,1138.188,167.063Zm-22.243-.9c-.947,0-.947.18-.947.18,0,.18.947.18,1.42.18a3.058,3.058,0,0,0,.947-.18C1117.364,166.161,1116.891,166.161,1115.944,166.161Zm5.679,0s0,.18.946.18.947,0,.473-.18Zm282.54.18a3.058,3.058,0,0,0-.946.18c0,.18,0,.18.473.18a3.062,3.062,0,0,0,.947-.18C1405.11,166.521,1404.637,166.341,1404.163,166.341Zm-104.119-7.4-.473-.18c-.473,0-.473.18-.473.18,0,.18.473.18.473.18Zm-30.289.541c.947-.18.473-.18-.947-.18a11.6,11.6,0,0,0-1.893.18C1266.916,159.846,1268.336,159.846,1269.756,159.485Zm64.837,7.577c-.473,0-.473.18-.473.18,0,.18.473.18.473.18.473,0,.473-.18.473-.18C1335.066,167.063,1334.593,167.063,1334.593,167.063Zm-70.516-7.577c0-.18,0-.18-.474-.18s-.947.18-1.42.18c0,.18,0,.18.473.18C1263.13,159.846,1264.076,159.666,1264.076,159.485Zm68.151-.722c0-.18-.474-.18-.947-.18s-.947.18-1.42.18c0,.18,0,.18.946.18C1331.753,159.125,1332.227,158.944,1332.227,158.764Zm-106.485,1.082h-1.42q0,.271,1.42,0Zm129.675,7.036c-6.152,0-8.046.18-7.572.361s5.206.18,9.465.18C1360.149,167.243,1358.73,166.882,1355.417,166.882Zm-102.225-7.036c0-.18-.946-.18-1.893-.18s-1.893.18-1.42.18c0,.18.946.18,1.893.18A4.372,4.372,0,0,0,1253.191,159.846Zm-20.824-.361c-.473-.361-3.313-.361-4.733.18-1.42.361-1.42.361.473.18.947,0,2.367-.18,3.313-.18C1232.367,159.846,1232.841,159.666,1232.367,159.485Zm6.626.361c0-.18-.473-.18-1.42-.18-1.42,0-1.42,0-.473.18S1238.993,160.027,1238.993,159.846Zm8.519,0c0-.18-.946-.18-1.893-.18a4.372,4.372,0,0,0-1.42.18c0,.18.947.18,1.893.18C1247.512,160.027,1247.985,160.027,1247.512,159.846Zm139.613,6.856c-5.679.18-6.152.18-3.312.361a52.575,52.575,0,0,0,7.572,0c.474,0,.474-.18.474-.361A33.056,33.056,0,0,0,1387.125,166.7Zm31.709-.361a25.826,25.826,0,0,0-2.84.18c0,.361,3.313.361,4.733,0C1421.674,166.341,1421.2,166.341,1418.835,166.341Zm7.572-.18a4.368,4.368,0,0,0-1.419.18c0,.18.946.18,1.419.18a4.375,4.375,0,0,0,1.42-.18C1427.827,166.161,1427.354,166.161,1426.407,166.161Zm17.511,0s0,.18.947.18.947,0,.474-.18Zm26.976-.361a8.56,8.56,0,0,0-2.367-.18c-.946,0-3.312.722-2.366.9a33.911,33.911,0,0,0,4.259-.361C1471.367,166.161,1471.84,165.98,1470.894,165.8Zm-13.252,0c-.946,0-.946.18-.946.18,0,.18.946.18,1.42.18a3.059,3.059,0,0,0,.947-.18A4.373,4.373,0,0,0,1457.642,165.8ZM437.753,161.831c-.473.18.473.361,1.893.361,1.893,0,1.893-.18.946-.361A7.4,7.4,0,0,0,437.753,161.831Zm931.388,5.051a3.057,3.057,0,0,0,.947.18c.474,0,.946-.18.474-.18C1370.562,166.521,1369.142,166.7,1369.142,166.882Zm43.54-.541a3.061,3.061,0,0,0-.947.18c0,.18,0,.18.474.18a3.059,3.059,0,0,0,.947-.18C1413.629,166.521,1413.156,166.341,1412.682,166.341Zm-190.253-6.495c0-.18-8.046-.541-7.572.18C1215.33,160.568,1222.9,160.027,1222.429,159.846Zm-58.685.722c0-.18-.473-.18-.473-.18a3.056,3.056,0,0,0-.946.18c0,.18,0,.18.473.18S1163.744,160.748,1163.744,160.568Zm199.718,6.495c-.947.18-.947.18-.473.361,1.419.361,5.206.361,5.206,0S1364.882,166.7,1363.462,167.063Zm44.487-.361s0,.18.947.18.947,0,.473-.18Q1407.95,166.431,1407.949,166.7Zm-159.964.361c-.473,0-.473.18-.473.18,0,.18.473.18.473.18.474,0,.474-.18.474-.18C1248.459,167.063,1248.459,167.063,1247.985,167.063Zm-7.1.361a3.059,3.059,0,0,0,.947.18c.473,0,.947-.18.473-.18C1241.833,167.063,1240.886,167.243,1240.886,167.424Zm9.939-.361a3.058,3.058,0,0,0-.947.18c0,.18.473.18.947.18a3.055,3.055,0,0,0,.946-.18A3.058,3.058,0,0,0,1250.825,167.063Zm-33.129.361c0,.361.473.361,1.893,0,.946-.18.473-.18-.473-.18C1218.169,167.063,1217.7,167.243,1217.7,167.424Zm45.906.18c0,.18,23.19.722,25.083-.18s-16.091,0-19.878,0C1266.443,167.424,1263.6,167.424,1263.6,167.6Zm-1.893-.18c-1.42,0-1.893.18-.947.541.473.18,2.366,0,2.366-.361C1263.13,167.424,1262.656,167.424,1261.71,167.424Zm-112.637-.361s0,.18.946.18.947,0,.473-.18Q1149.073,166.792,1149.073,167.063Zm25.556-6.675c.946-.18.946-.18-1.893-.18-.473,0-.473.18-.947.18A7.061,7.061,0,0,0,1174.629,160.387Zm-21.3,6.856a42.573,42.573,0,0,0,7.1.361c6.152,0,15.144-.361,15.618-.541.947-.18,0-.18-2.366-.18S1151.912,167.063,1153.332,167.243Zm36.442,0c0,.18.473.361.473.18.474,0,.474-.18.474-.361C1190.247,166.7,1189.774,166.7,1189.774,167.243Zm-3.786-.18a6.746,6.746,0,0,0-1.893.18c-.473.18,0,.18,1.42.18C1186.461,167.243,1186.934,167.243,1185.987,167.063Zm4.26-7.036c-.473-.361-.947-.361-.947.18,0,.18.473.361.473.18C1190.247,160.387,1190.72,160.207,1190.247,160.027Zm-4.26.18h0Zm140.087,4.33H1194.033c-14.671,0-15.618,0-17.037.18-2.84.361,1.42.541,14.2.541,7.573,0,13.725,0,14.2.18a12.275,12.275,0,0,0,3.786,0c2.366-.18,63.418-.18,70.517-.18.947,0,6.153,0,11.359-.18,5.206,0,16.091-.18,24.137-.18,8.992,0,15.144-.18,15.144-.18S1328.441,164.537,1326.074,164.537Zm-113.111-4.51c0-.18-.947-.18-1.42-.18q-2.13,0-1.42.541A6.54,6.54,0,0,0,1212.964,160.027Zm-16.564,0c-.473-.18-1.42-.18-1.42.18a3.057,3.057,0,0,0,.946.18C1196.4,160.387,1196.4,160.207,1196.4,160.027Zm8.045,0c0-.18-.473-.18-.473-.18-.473,0-.473.18-.473.18,0,.18.473.18.473.18C1203.971,160.387,1204.445,160.207,1204.445,160.027Zm98.913,7.216c-.473.18-1.893.541-.473.722a41.551,41.551,0,0,0,8.519-.361A53.339,53.339,0,0,0,1303.357,167.243Zm24.61-.18c-.473,0-.473.18-.473.18,0,.18.473.18.947.18s.947-.18.473-.18A3.057,3.057,0,0,1,1327.967,167.063ZM1292,167.6c0,.18.473.18,1.42.18.474,0,1.42-.18,1.893-.18,0-.18-.473-.18-1.419-.18S1292,167.424,1292,167.6Zm30.763,0c0,.18,0,.361,1.419.18.947,0,1.42-.18,1.42-.361C1325.128,167.063,1322.762,167.243,1322.762,167.6Zm-4.733-.541a3.059,3.059,0,0,0-.946.18c0,.18.474.18.946.18a3.058,3.058,0,0,0,.947-.18S1318.976,167.063,1318.029,167.063ZM1253.664,5.775c3.786-.18,3.786-.361,2.84-.722s-6.152,0-6.152.361C1250.825,5.956,1251.3,5.956,1253.664,5.775ZM982.956,3.43c3.786,0,9.465,0,12.778.18,6.626.361,20.824.361,67.2.722,17.038,0,31.236.18,31.236.18a91.363,91.363,0,0,0,9.939-.18c1.42-.361,0-.9-2.366-.722h-41.174c-1.42,0-12.3-.18-25.083-.18-12.3-.18-26.03-.18-29.816-.361-24.137-.361-31.709-.361-30.289.361C976.33,3.43,979.643,3.61,982.956,3.43ZM1060.1,6.5c0,.18.473.18,1.42.18s.947-.18.947-.18c0-.18-.947-.18-1.42-.18S1060.1,6.316,1060.1,6.5Zm-34.075-.722c-2.366,0-4.26-.18-4.733-.18a12.7,12.7,0,0,0-2.84-.18c-1.42,0-3.313-.18-4.259-.18-1.893-.18-2.366-.18-2.366.18s-.947.541-2.366.361a10.61,10.61,0,0,1-2.839-.18c-.947-.18-24.137,0-25.083.18-.473,0-.473.18,0,.361s6.626.361,19.877.361c10.412,0,25.556.18,33.129.361s14.671.18,15.618.18,2.84-.18,3.786-.18c3.313,0,2.366-.361-1.42-.541C1048.74,5.956,1032.176,5.595,1026.023,5.775Zm31.709.541-.473.18c0,.18.473.18.473.18.473,0,.473-.18.473-.18C1058.205,6.316,1057.732,6.316,1057.732,6.316Zm-84.241-.9a24.641,24.641,0,0,1-5.206,0,58.616,58.616,0,0,0-7.1-.361c-6.152-.18-29.816-.18-30.289,0-.947.361,1.893.541,15.618.541,14.671,0,24.61.18,25.083.361s7.1.18,7.572-.18c0-.18,0-.361-.473-.541C977.277,5.234,976.33,5.234,973.491,5.414ZM567.428,1.265c.473-.361,0-.541-1.42-.361-.473,0-.946.18-.473.361A1.791,1.791,0,0,0,567.428,1.265Zm579.751,3.428a16.714,16.714,0,0,0,4.26,0c.946,0,2.366-.18,2.84-.18a3.057,3.057,0,0,0,.946-.18c0-.18-1.42-.18-3.786-.18h-4.733c-.474,0-1.42,0-1.42.18Zm14.672.18h2.366c.947,0,1.893-.18,2.84-.18a4.371,4.371,0,0,0,1.42-.18c0-.361-6.152-.361-7.1,0,0,.18,0,.361.473.361Zm9.938-.361c.947,0,.947-.18,0,0,0-.18-.473-.18-.947-.18A3.058,3.058,0,0,0,1171.789,4.512Zm-61.524-.18c0,.18.946.361,3.786.541h6.152c1.42,0,6.626-.18,11.832-.18,11.358-.18,14.2-.541,5.679-.722-4.259-.18-26.03,0-27.449.18Zm-2.84-.18c.473,0,.473-.18.473-.361s-.473-.361-.473-.18c-.473.18-.473.18-.473.361S1107.425,4.152,1107.425,4.152Zm49.693.541c.946-.18.946-.361-.473-.361-.473,0-.947.18-.473.18C1156.172,4.693,1156.645,4.693,1157.118,4.693ZM363.924,1.445c0-.18-.473-.18-.947-.18s-.946.18-.473.18c0,.18.473.18.947.18C363.45,1.806,363.924,1.626,363.924,1.445ZM95.581,24.538a26.287,26.287,0,0,0,3.786,0c2.366,0,1.893-.722.473-1.082-1.893-.361-6.626,0-5.206.361C95.108,23.816,94.635,24.358,95.581,24.538Zm-11.832.18c1.893,0,2.84-.722,1.893-.9a13.31,13.31,0,0,0-3.786,0C80.91,24,81.383,24.718,83.75,24.718Zm7.1-.361a2.989,2.989,0,0,0,.947-.18c1.42-.18,1.42-.541-.473-.541s-2.84.361-1.42.541A3.057,3.057,0,0,1,90.849,24.358Zm-22.244-.18c7.572.361,8.519.18,8.046-.18-1.42-.722-16.564-1.443-19.877-.9-1.893.361-3.313,1.443,2.366,1.624C61.98,24.718,67.186,24,68.605,24.177ZM81.383,40.595c0-.361-5.206-.541-6.626,0-.947.361,1.42.9,1.893.9A29.025,29.025,0,0,0,81.383,40.595Zm109.8-35.541H199.7c3.313,0,9.939,0,15.145-.18,5.206,0,10.885-.18,12.778-.18,4.733,0,7.1-.18,6.626-.361,0-.361-1.893-.361-6.626-.18-2.366,0-5.679.18-7.572,0H202.54c-15.145-.361-18.931-1.624-22.244-.18s5.206.722,5.206.722A30.044,30.044,0,0,0,191.181,5.054Zm28.4.9c0,.18.473.18.473.18.473,0,.473-.18.473-.18,0-.18-.473-.18-.473-.18ZM106.94,26.342c0,.361,2.366.361,4.733,0,1.42-.18.947-1.082-1.42-1.082A4.768,4.768,0,0,0,106.94,26.342Zm2.366-2.526c1.42-.361.473-.541-2.366-.361-1.893.18-2.366.18-1.893.361A8.515,8.515,0,0,0,109.306,23.816Zm17.511-12.448c.947,0,2.366-1.263,3.313-1.263.947-.18.947-.361-.947-.361-1.42,0-2.84.18-3.313.18C124.924,10.285,125.4,11.368,126.817,11.368ZM37.843,45.826c1.893-.18,5.206.361,6.626.18s1.893-.9,1.893-1.082c-.473-.361-15.145-1.8-11.358,1.082C35,46.187,36.423,46.007,37.843,45.826ZM1189.774,5.054c.473.18,2.839-.361,3.786-.361,1.42,0,1.42,0,.473-.18a10.469,10.469,0,0,0-2.366-.18C1190.247,4.332,1189.3,4.873,1189.774,5.054ZM1398.484,6.5a4.369,4.369,0,0,0,1.42-.18c0-.18-.473-.18-.946-.18s-.947.18-1.419.18S1397.538,6.5,1398.484,6.5Zm-42.594,0c-.474-.18-1.42-.18-1.42.18a3.059,3.059,0,0,0,.947.18C1355.89,6.677,1355.89,6.677,1355.89,6.5Zm-55.372-.361a8.128,8.128,0,0,0-4.26-.361c-.474.18-.474.361-.474.541C1296.258,6.677,1300.991,6.5,1300.518,6.136Zm20.824.18c.473-.18,0-.361-2.366-.361h-5.68c-2.84,0-5.679.361-5.206.541S1320.4,6.5,1321.342,6.316Zm571.706,26.16h-2.366c-.474,0,0,.722,1.419.722C1893.048,33.2,1893.521,32.476,1893.048,32.476Zm12.778,30.309c1.893-.541,1.893-.9-.946-.9q-2.13,0-1.42.541A3.221,3.221,0,0,0,1905.826,62.785Zm4.259,25.618c0-.18,0-.361-.473-.361-1.42-.18-1.893,0-1.42.361A3.376,3.376,0,0,0,1910.085,88.4ZM1885,54.306c-1.42.361-1.42.361.947.361a14.246,14.246,0,0,0,3.786-.361C1890.682,53.765,1887.841,53.765,1885,54.306Zm7.1-.18c.473.361,5.68.18,5.68-.18a5.157,5.157,0,0,0-2.367-.541C1893.521,53.584,1891.628,53.945,1892.1,54.125ZM1293.893,5.956c.473-.361-1.42-.541-2.84-.361a3.267,3.267,0,0,1-1.893,0,1.929,1.929,0,0,0-1.42,0c-.473.18-.473.18,0,.361C1288.686,6.316,1293.419,6.316,1293.893,5.956Zm44.959.361a44.774,44.774,0,0,0,7.1,0c.473-.18-.474-.18-1.893-.18a30.08,30.08,0,0,1-4.259-.18C1337.433,5.595,1336.959,6.136,1338.852,6.316ZM1197.346,5.234c1.42,0,1.42-.541-.473-.722-.473,0-.947,0-.947.361C1195.926,5.054,1196.4,5.234,1197.346,5.234Zm-6.626,1.082a3.058,3.058,0,0,0,.946-.18c0-.18-.473-.18-.473-.18a3.057,3.057,0,0,0-.946.18S1190.247,6.316,1190.72,6.316Zm15.618-.722c.947-.18.947-.18,0-.18a17.442,17.442,0,0,1-2.367-.361c-.946-.361-1.42-.361-1.42.18C1203.025,5.775,1204.445,5.956,1206.338,5.595Zm-19.4-.722c0-.18.947-.18.947,0,.473.18.473,0,.473-.18-.947-.541-6.153-.361-6.153,0S1186.461,5.234,1186.934,4.873Zm-8.519.18c1.42,0,3.313-.361,2.839-.541a11.921,11.921,0,0,0-3.786.361A3.059,3.059,0,0,0,1178.415,5.054Zm101.279,1.082c3.313.18,4.26.18,4.733-.361,0-.18,0-.361-1.42-.361a15.024,15.024,0,0,1-2.84-.18,5.127,5.127,0,0,0-2.366,0C1276.381,5.595,1276.855,5.956,1279.694,6.136Zm-68.623-.9c0-.361-1.893-.9-2.84-.722s-.946.18-.474.541C1208.7,5.595,1211.071,5.595,1211.071,5.234Zm54.9.541a11.6,11.6,0,0,0,1.893-.18c0-.18-.947-.18-1.893-.18a11.59,11.59,0,0,0-1.893.18C1263.6,5.595,1264.55,5.775,1265.969,5.775ZM1473.733,165.98c-.473,0,0,.722,1.42.722s1.893-.722,1.42-.722A7.4,7.4,0,0,0,1473.733,165.98ZM1224.8,5.775a9.749,9.749,0,0,0,3.313,0c1.42,0,3.313-.18,4.259-.18s.947,0,.474-.18a29.646,29.646,0,0,0-5.68-.361c-2.84,0-5.206-.18-5.206-.18a6.745,6.745,0,0,0-1.893.18,7.562,7.562,0,0,1-2.84.18c-1.42-.361-4.732-.18-4.259.18,0,.18,2.84.18,5.679.18C1221.956,5.595,1224.322,5.775,1224.8,5.775Zm23.663-.18c.473-.361,0-.361-2.366-.361-2.84,0-3.313.18-3.313.541S1247.985,5.956,1248.459,5.595ZM269.744,161.47c0,.18,0,.18.473.18a3.057,3.057,0,0,0,.947-.18c0-.18,0-.18-.473-.18A3.057,3.057,0,0,1,269.744,161.47Zm-76.669,2.165c-.473,0-.473.18-.473.18,0,.18.473.18.473.18.473,0,.473-.18.473-.18S193.548,163.635,193.074,163.635Zm118.79-1.443c-.473,0-.473.18-.473.18l.473.18c.473,0,.473-.18.473-.18C312.338,162.192,312.338,162.011,311.864,162.192Zm-141.033.18c-.947.18-.473.18.473.18a4.374,4.374,0,0,0,1.42-.18C172.724,162.011,171.777,162.011,170.831,162.372Zm5.679,1.443c-2.366.9,10.885.18,12.3.18s1.893,0,.947-.18C189.762,163.815,179.35,162.733,176.51,163.815Zm53.006-2.706c-.473,0-.473.18-.473.18,0,.18.473.18.473.18.473,0,.473-.18.473-.18C230.462,161.109,229.989,161.109,229.516,161.109Zm179.841-.541a4.374,4.374,0,0,0-1.42.18c0,.18.473.18,1.42.18a4.374,4.374,0,0,0,1.42-.18A4.374,4.374,0,0,0,409.357,160.568Zm-175.109.541c-.947,0-1.893.18-1.893.361s.473.541,3.313.541c4.733,0,13.725-.722,14.671-1.082S235.668,161.109,234.249,161.109Zm-70.517,2.165c-1.893,0-3.313.18-3.313.361s3.786.361,7.1.361,7.1-.361,7.1-.541C174.617,163.454,167.518,163.274,163.732,163.274Zm-19.4,2.887c0,.361,3.786.361,5.679,0,.947-.18.473-.18-2.366-.18C145.748,165.8,144.328,165.98,144.328,166.161Zm-3.313-2.887c0,.18-.473.541,2.84.541,6.152,0,10.885-.361,6.626-.722C145.748,163.094,141.015,163.094,141.015,163.274Zm17.511,2.706s0,.18.947.18.947,0,.473-.18Q158.526,165.71,158.526,165.98Zm0-2.526H154.74c-.947,0-.947.722.947.722C158.053,164,159.472,163.454,158.526,163.454Zm204.924.18s0,.18.946.18.947,0,.473-.18ZM144.8,169.408a3.259,3.259,0,0,0,2.366,0c.947-.18.947-.18.473-.361C146.694,168.867,144.328,169.047,144.8,169.408Zm222.909-5.773c-1.42.18-.473.361,2.84.361,2.84,0,4.259-.18,2.84-.361A15.032,15.032,0,0,0,367.71,163.635Zm3.313-1.624c-.947.18-.473.18.947.18.947,0,1.893-.18,2.366-.18C374.809,161.65,372.442,161.65,371.023,162.011Zm6.152,1.8c-.946.18-.946.361.947.361,1.42,0,1.893,0,1.42-.18A3.58,3.58,0,0,0,377.175,163.815Zm8.046-1.624a4.373,4.373,0,0,0,1.42.18c.947,0,.947-.18.947-.18A3.477,3.477,0,0,0,385.221,162.192ZM306.185,164c.473-.18-.947-.541-2.84-.541-1.42,0-1.893.361-.473.541A9.748,9.748,0,0,0,306.185,164Zm17.038-.541c.473-.18-2.366-.18-7.1-.18-8.046,0-11.832.9-5.206,1.082A96.529,96.529,0,0,0,323.223,163.454Zm-27.449-.722s-1.893,1.263,1.42,1.082.473-1.082,0-1.082Zm44.96.722a36.114,36.114,0,0,0,7.572.18c0-.18-1.42-.18-4.259-.18A11.979,11.979,0,0,0,340.734,163.454Zm-11.832-.18c-3.786.18-3.786.18-1.893.361,1.42,0,3.313.18,4.733.18h4.733a5.537,5.537,0,0,0,2.366-.361C338.84,163.094,334.581,162.913,328.9,163.274Zm23.663.361c0,.18,1.42.18,2.84.18,2.366,0,2.366,0,1.42-.18C354.932,163.274,352.565,163.274,352.565,163.635ZM57.247,102.3c-2.84-.722-16.091.722-16.564,1.082v.541a4.788,4.788,0,0,0,2.366,0,55.253,55.253,0,0,1,6.152-.18C53.461,103.558,60.087,102.836,57.247,102.3ZM46.362,113.3c0,.18.473.18.473.18.473,0,.473-.18.473-.18,0-.18-.473-.18-.473-.18C46.362,113.12,46.362,113.12,46.362,113.3Zm-15.618-7.758c1.893-.722,0-1.443-1.42-1.443s-4.259.722-4.259,1.263S28.851,106.264,30.744,105.543Zm5.206-1.263c.473.361,2.366,0,2.366-.361,0-.18-.473-.18-.947-.18s-.947.18-1.42.18S35.477,104.1,35.95,104.28Zm-2.84-9.021c-1.893.18-2.84.541-2.366.9a9.4,9.4,0,0,0,3.786-.18C38.316,95.259,37.37,94.9,33.11,95.259Zm.947,9.2c.473,0,.473-.18.473-.18,0-.18-.473-.18-.473-.18-.473,0-.473.18-.473.18C33.584,104.46,34.057,104.46,34.057,104.46Zm0-13.531q.71-.541-1.42-.541a7.2,7.2,0,0,0-3.313.541q-.71.541,1.42.541A7.2,7.2,0,0,0,34.057,90.929ZM70.025,52.141c-.473,0-.473.722.947.722s2.366-.722,1.893-.722A7.4,7.4,0,0,0,70.025,52.141ZM44.469,57.012c-1.893.361,0,1.624.947,1.263s7.572-.722,18.931-1.263a48.2,48.2,0,0,0,5.679-.541V56.11C63.873,56.11,47.782,56.471,44.469,57.012Zm6.152,3.608c-.947,0-2.84-.18-4.259.9-1.42,1.263,4.259.9,4.259.9h3.313c.473,0,2.366-.18,3.786-.361a37.543,37.543,0,0,1,6.626-.18c2.366,0,3.786,0,3.786-.18C67.659,61.161,51.568,60.62,50.621,60.62ZM52.041,87.5q.71-.541-2.84-.541c-1.893,0-4.259.18-4.733.541s.473.541,2.84.541C49.2,88.043,51.568,87.862,52.041,87.5ZM40.209,94.357q0,1.082,4.259,0c1.893-.361,1.42-.541-.947-.541C41.629,93.816,40.209,94,40.209,94.357ZM64.819,164a3.057,3.057,0,0,0,.947.18c.473,0,.947-.18.473-.18C65.766,163.635,64.819,163.635,64.819,164ZM26.011,138.919c-.947,0-1.42.361-.473.541.473.18,1.42,0,1.42-.361A3.056,3.056,0,0,0,26.011,138.919Zm91.34,33.2a3.057,3.057,0,0,1-.947-.18c0-.18-.473-.18-.947-.18-1.42,0-3.786.9-2.366,1.263s5.206-.18,5.206-.541S117.825,172.114,117.352,172.114Zm-8.992-7.577c-1.893.361-2.366.541-3.786.18-1.893-.361-2.366-.18-.947.9.947,1.082,2.84,1.624,5.206.9l1.42-.9-1.893.18c-1.893.18-3.313-.361-1.42-.541,4.259-.541,5.679-.9,4.733-1.082A13.8,13.8,0,0,0,108.36,164.537ZM97,168.686c-.947,0-2.366,0-2.366-.18-.473-.361-2.366-.361-2.366,0,0,.18-3.313.722-.473,1.443C94.162,170.671,97.948,168.686,97,168.686Zm43.067.541c-4.259,0-20.35,1.263-21.77,1.624s-.473,1.082,4.733.722c10.412-.722,16.564-1.985,18.457-1.985a13.943,13.943,0,0,0,2.366-.18C143.855,169.228,141.962,169.228,140.069,169.228Zm-41.174-3.067c-1.893.18-3.786.541-3.786.541-.473.361,1.42,1.082,4.733.541C104.1,166.882,103.627,165.8,98.894,166.161ZM67.659,164c0,.18.473.18,1.42.18s.947-.18.947-.18c0-.18-.947-.18-1.42-.18A3.057,3.057,0,0,0,67.659,164Zm-40.7-24.175s0,.18.947.18.947,0,.473-.18A1.93,1.93,0,0,0,26.958,139.821Zm16.091,9.562a1.974,1.974,0,0,0,1.42.18c.473,0,.473-.18-.473-.361C42.576,148.841,42.1,149.022,43.049,149.382Zm21.3,15.7c.473.18-1.42.541,2.366.9a51.051,51.051,0,0,0,10.412-.9c1.42-.541-10.412-.18-10.412-.18C64.346,164.717,62.926,164.9,64.346,165.078Zm75.249-1.8c.473-.18-8.992-.18-9.939.18-.473.18.947.722,4.259.541A52.639,52.639,0,0,0,139.6,163.274Zm1228.126-5.052c0-.18,0-.18-.473-.18a3.056,3.056,0,0,0-.947.18c0,.18.473.18.473.18C1366.775,158.583,1367.249,158.4,1367.721,158.223Zm-359.209,2.345c0,.18,0,.18.473.18a3.056,3.056,0,0,0,.946-.18c0-.18-.473-.18-.473-.18C1008.986,160.387,1008.513,160.387,1008.513,160.568Zm-71.463,1.985c.947-.18.947-.18,0-.18a10.767,10.767,0,0,0-1.42.18C934.683,162.913,935.629,162.913,937.049,162.552Zm-249.885-9.021c0-.18,0-.361-.473-.361-.947-.18-3.313,0-3.313.361A6.757,6.757,0,0,0,687.165,153.532Zm-615.72-1.443c-.473-.361-.473-.361-1.893,0-.473.18-.947.541-.473.722.947.541,12.3.18,15.618-.541C88.009,151.187,71.918,152.449,71.445,152.089ZM60.56,156.058H59.14q0,.271,1.42,0C61.033,156.238,61.506,156.238,60.56,156.058Zm17.511-6.495c.947,0,3.313-.18,4.733-.361,3.786-.18,2.84-.541-.947-.361-5.206.18-6.626.361-6.152.541C75.7,149.743,76.651,149.743,78.071,149.563Zm583.537,3.247a4.727,4.727,0,0,0-2.366.18c-.947.361-.947.361,1.42.361C663.5,153.532,663.974,153.171,661.608,152.81Zm3.786,2.526h8.519q2.13,0-1.42-.541a64.816,64.816,0,0,0-11.832-.18C656.875,154.975,658.769,155.336,665.394,155.336Zm-11.358-1.985c0,.18.947.18,2.366.18s1.893,0,.947-.18C655.929,152.991,654.036,152.991,654.036,153.351Zm18.457,0c0-.18-.473-.18-.473-.18-.473,0-.473.18-.473.18,0,.18.473.18.473.18Zm295.792,7.4c0,.18.473.18.473.18a3.056,3.056,0,0,0,.947-.18c0-.18,0-.18-.473-.18A3.056,3.056,0,0,0,968.285,160.748ZM61.506,75.594c-3.786,1.443,9.465,1.082,12.778.361s-9.939-.361-9.939-.361A7.06,7.06,0,0,0,61.506,75.594ZM57.72,78.12c.947-.361,1.893-.9,1.42-.9-.473-.18-8.519-.541-4.259,1.624C55.354,79.022,55.827,78.842,57.72,78.12Zm1450.089,87.5a4.372,4.372,0,0,0-1.42.18c0,.18.473.18,1.42.18a4.371,4.371,0,0,0,1.42-.18C1509.228,165.619,1508.282,165.619,1507.809,165.619ZM66.239,77.759c-.473,0-.947.361-.947.541,0,.361,0,.361,1.42,0C68.132,77.759,67.659,77.4,66.239,77.759ZM53.461,95.8c0-.361-.473-.541-.947-.541-1.42,0-1.893.361-.947.722S53.461,96.342,53.461,95.8Zm3.786-1.443c-.947,0-2.366.18-2.84.18a3.057,3.057,0,0,0-.947.18c.473.361,3.786,0,4.733-.361C58.667,94.177,58.667,94.177,57.247,94.357Zm6.152-.18c0-.18-.473-.18-.473-.18-.473,0-.473.18-.473.18l.473.18C62.926,94.537,63.4,94.357,63.4,94.177Zm16.564.18h-1.42a2.849,2.849,0,0,0,1.42,0Zm759.119,60.8.473.18c.473,0,.473-.18.473-.18,0-.18-.473-.18-.473-.18Zm37.861-.18c0,.18-1.893.18-3.313.18-2.366,0-2.84,0-2.84.18s1.893.361,5.206.361c2.84,0,5.206.18,5.206.18.473.18.947.18.947-.18S877.891,154.795,876.945,154.975Zm14.2.361-.473.18c0,.18.473.18.473.18.473,0,.473-.18.473-.18C891.616,155.336,891.142,155.336,891.142,155.336ZM84.7,61.522c2.366-1.263-4.259-.541-4.733-.361s-12.778-.361-6.152,1.082C73.811,62.063,82.33,62.6,84.7,61.522Zm738.3,93.814c0,.18.473.18,1.42.18,1.893,0,3.313-.541,2.366-.9C825.832,154.434,822.992,154.975,822.992,155.336Zm-12.778-1.082c-5.679-.18-10.412.18-8.519.541,1.42.361,17.511.18,18.931-.18,1.42-.18.947-.361-1.893-.361C817.313,154.434,813.527,154.254,810.214,154.254Zm84.715,1.082c-.947,0-1.42.18-1.893.18-.473.18,1.42.18,3.786.18a24.32,24.32,0,0,0,3.786-.18c0-.18-.947-.18-1.42-.18a7.8,7.8,0,0,1-2.366-.541c-1.42-.541-2.84-.361-1.893.361C895.875,155.156,895.4,155.336,894.929,155.336Zm39.754-.722c-1.42.18-1.42.361-.946.541,1.893.541,4.733,0,3.313-.541C936.576,154.254,935.629,154.434,934.683,154.614Zm-6.626.361c0,.18.473.361.946.361,1.42-.18,1.42-.722.473-.722C928.53,154.434,928.057,154.614,928.057,154.975Zm-248.938-1.443c.473-.361-.946-.541-2.366-.361s-1.42.18,0,.361C678.646,153.893,679.119,153.893,679.119,153.532Zm224.8,1.263c0,.18.473.18.946.18a3.057,3.057,0,0,0,.947-.18c0-.18-.473-.18-.947-.18C904.394,154.434,903.921,154.614,903.921,154.795Zm8.519.18c0,.18.947.18,1.893.18,1.893,0,2.84-.361.946-.541A5.509,5.509,0,0,0,912.439,154.975Zm33.129,1.082c0,.18.473.18,1.42.18.473,0,1.42-.18,1.893-.18,0-.18-.473-.18-1.42-.18C946.041,155.7,945.568,155.877,945.568,156.058ZM717.454,155.7c.947,0,1.893-.18,2.366-.18.473-.18-.473-.18-1.893-.18a13.944,13.944,0,0,0-2.366.18C715.087,155.7,716.034,155.7,717.454,155.7Zm-33.6-.18c.473,0,.473,0,.473-.18,0-.361-2.84-.541-5.206-.361-1.42.18-1.42.18.947.361C681.959,155.336,683.378,155.516,683.852,155.516Zm8.992-1.624c4.733.18,7.1,0,7.1-.18s-.947-.18-2.366-.361a23.459,23.459,0,0,1-3.786-.18c-2.366,0-3.313,0-3.313.18C690.477,153.712,691.424,153.712,692.844,153.893Zm35.022,1.8s0,.18.947.18.947,0,.473-.18A1.93,1.93,0,0,0,727.865,155.7Zm-22.717-2.345c-.473,0-.947.18-.473.361.473.361,10.412.361,10.885,0C716.034,153.532,706.568,153.171,705.149,153.351Zm-15.618,2.165a30.084,30.084,0,0,0,4.259.18h7.1a33.25,33.25,0,0,0,3.786-.18c0-.18-2.84-.18-5.679-.18a60.657,60.657,0,0,1-7.1-.18,5.128,5.128,0,0,0-2.367,0C688.111,155.156,688.111,155.336,689.531,155.516Zm41.647-1.8c-2.366.18,5.206.541,18.931.722,6.152,0,18.93.18,27.922.361,8.992,0,16.565.18,16.565.18s1.42.18,2.366.18c1.893,0,3.786-.541,2.366-.9C799.329,153.712,734.018,153.532,731.178,153.712Zm-20.35,1.8c0,.18.473.18.947.18a3.057,3.057,0,0,0,.947-.18c0-.18-.473-.18-.947-.18S710.828,155.336,710.828,155.516Zm11.359-1.8c-1.893-.361-5.206-.361-5.206.18,0,.18,1.42.18,3.313.18C724.079,154.073,724.079,154.073,722.186,153.712ZM1810.226,40.955c0,.18,0,.18.474.18a3.055,3.055,0,0,0,.946-.18c0-.18-.473-.18-.473-.18C1810.7,40.595,1810.226,40.775,1810.226,40.955Zm14.2-3.608c-.473.18,1.42.722,2.839.541a8.559,8.559,0,0,1,2.367.18c.946.361,14.671,1.443,17.984.361C1851.4,37.167,1824.9,37.167,1824.424,37.347Zm-10.885-.361a9.326,9.326,0,0,0,1.42.361c1.893.361,8.045.361,7.572,0A78.977,78.977,0,0,0,1813.539,36.986Zm-19.4,1.263c4.26-.18,5.206-.722,1.893-.722s-4.733.18-4.733.541S1792.242,38.43,1794.135,38.249Zm5.679-.541c-.947.18-.473.18.474.18a30.277,30.277,0,0,0,6.152-.541,30.459,30.459,0,0,0-6.152-.722c-.947,0-.947,0-.474.361C1800.761,37.347,1800.761,37.528,1799.814,37.708Zm50.166,9.562c-.473.18.473.361,1.893.361,1.893,0,1.893-.18.947-.361A7.4,7.4,0,0,0,1849.98,47.27Zm-6.626.18c0,.361,1.42.361,2.839.18a9.171,9.171,0,0,0,2.84-.541,4.944,4.944,0,0,0-2.84-.722C1844.3,46.548,1843.355,47.27,1843.355,47.45Zm32.182,2.165c-.474.18-.474.541,0,.722.946.722,3.786.722,3.786,0A5.247,5.247,0,0,0,1875.537,49.615ZM1772.365,20.208s0,.18.947.18.947,0,.473-.18S1772.365,20.028,1772.365,20.208Zm21.3,16.057a28.823,28.823,0,0,0-5.679,0,6.712,6.712,0,0,0,2.84.361c1.419,0,2.84.18,3.313.18C1795.082,36.986,1794.608,36.445,1793.662,36.265Zm108.851,24.9c0-.18-.473-.18-.947-.18s-.946.18-1.42.18c0,.18,0,.18.947.18S1902.513,61.342,1902.513,61.161Zm8.519,29.587c-1.893,0-7.573.541-6.152,1.443.946.9,9.465,0,9.939-.361C1915.291,91.831,1912.925,90.749,1911.032,90.749Zm-16.564-25.438c-2.367.541-2.367.541,1.42.541,3.313,0,3.786-.18,2.84-.541Q1897.308,64.5,1894.468,65.311Zm6.152,34.1q-1.42,0-1.42.541t1.42.541q1.419,0,1.419-.541C1902.039,99.769,1901.566,99.409,1900.62,99.409Zm-143.4-62.783v.361c.473.361,9.465.361,9.465,0A78.962,78.962,0,0,0,1757.22,36.626ZM1770,14.615c1.893.18,2.366,0,1.893-.361a8.554,8.554,0,0,0-2.366-.18C1767.159,14.074,1767.632,14.435,1770,14.615Zm118.316,59.355c-.473-.361-3.313-.18-3.313.18a11.594,11.594,0,0,0,1.893.18C1888.315,74.331,1888.788,74.151,1888.315,73.971Zm-7.572-5.593c-.473.18-.473.18.473.361a34.575,34.575,0,0,0,6.153,0C1887.841,68.558,1881.689,68.2,1880.743,68.378Zm12.3.361c0,.18.947.18,1.893.18s.947-.18.947-.18c0-.18-.947-.18-1.893-.18A3.058,3.058,0,0,0,1893.048,68.739ZM86.589,58.094H85.17c-.473,0-8.046.18-4.733.9A12.348,12.348,0,0,0,86.589,58.094ZM1888.315,68.739c0,.18.947.18,1.893.18a10.756,10.756,0,0,0,1.42-.18c0-.18-.947-.18-1.893-.18A4.374,4.374,0,0,0,1888.315,68.739ZM106.94,31.574q-2.84-.541-2.84,0c0,.18-2.366.9,1.893.9C110.253,32.656,107.886,31.754,106.94,31.574Zm9.939,15.7h-1.42q0,.271,1.42,0ZM99.841,52.321h-1.42q-.71.271,1.42,0C99.841,52.5,100.314,52.321,99.841,52.321ZM111.2,30.672h-1.893c-.473,0-.473.9.473.9C111.2,31.574,112.146,30.672,111.2,30.672Zm790.828-25.8a7.017,7.017,0,0,0,1.893.361c.946,0,1.42-.18,1.42-.361s-.947-.361-1.893-.361S901.554,4.693,902.028,4.873ZM86.116,48.352a13.31,13.31,0,0,0,3.786,0c0-.18-.473-.361-1.42-.361C86.116,47.811,85.17,47.991,86.116,48.352Zm7.1,13.531c-2.84-.18-4.733.18-1.893.361,15.618,1.082,9.939-1.082,6.152-1.082-1.893,0-2.366,0-1.893.361C95.581,62.063,95.581,62.063,93.215,61.883ZM88.482,45.646c0-.18-.947-.18-.947-.18l-.473.18c0,.18.473.18.947.18C88.956,46.007,88.956,45.826,88.482,45.646Zm-3.786,7.4c-.473.541.473.541,4.259-.18,0,0,5.679.361,6.626-.18,1.42-.541-8.046-.18-8.046-.18C85.643,52.5,85.17,52.682,84.7,53.043ZM1797.921,22.553c-.473.18-.473.361.946.361s1.42,0,.947-.361A3.267,3.267,0,0,0,1797.921,22.553ZM893.035,4.152c-.946.18,0,.9,1.893.9s2.84-.9,1.893-.9A13.311,13.311,0,0,0,893.035,4.152Zm886.9,9.562c0,.18.473.18,1.419.18s1.893-.18,1.42-.18c0-.18-.947-.18-1.42-.18A10.763,10.763,0,0,0,1779.937,13.713Zm29.342,2.345c0-.361-5.679-.9-9.938-.541-1.893,0-2.84.722-2.84.9.473.18,3.313.18,11.358,0C1808.333,16.239,1809.279,16.239,1809.279,16.059Zm-20.351.18c0,.18.947.18,1.42.18s2.366.541,3.786-.18c1.42-.9-3.313-.18-4.259-.18S1788.456,16.239,1788.929,16.239Zm36.442-.9a30.929,30.929,0,0,0-6.626.361c-.947.18-.473.18.947.18C1822.531,15.878,1825.371,15.517,1825.371,15.337ZM808.321,4.332c-2.84.361-2.84.361,7.1.361h9.939c1.42,0,2.366-.18,1.893-.361,0-.361,0-.361-6.153-.361C812.58,3.791,810.214,3.971,808.321,4.332Zm78.089.361c0,.18.473.361.946.361s.947-.18.947-.361-.473-.361-.947-.361S886.41,4.512,886.41,4.693Zm931.862,19.124c.473,0,.473-.18.473-.18,0-.18-.473-.18-.473-.18-.473,0-.473.18-.473.18S1817.8,23.816,1818.272,23.816Zm-7.572-7.938c0,.18,1.893.18,3.786.18a29.167,29.167,0,0,0,3.313-.18c0-.18-1.42-.18-3.786-.18C1811.646,15.517,1810.226,15.7,1810.7,15.878ZM80.437,75.414c-3.313,0-5.679.18-5.679.18,0,.361,8.519.361,9.939,0C85.643,75.414,84.223,75.414,80.437,75.414Zm1458.134,85.334a6.7,6.7,0,0,1-3.786,0c-1.42-.361-1.893-.361-2.84.18a7.015,7.015,0,0,1-1.893.361,12.763,12.763,0,0,0-2.366.18s-4.733-.18-5.206.361c0,.541,5.206.18,5.206.18a20.313,20.313,0,0,0,3.313,0c.946,0,2.84-.18,5.206-.18,3.313,0,3.786,0,3.786-.361s.474-.541,1.894-.541c.946,0,1.893-.18,1.893-.361A10.323,10.323,0,0,0,1538.571,160.748Zm-34.548.722c0,.18,1.42.541,7.572.18,1.42,0,11.359-.361,11.832-.541.947-.361-8.046-.541-9.939-.361a40.159,40.159,0,0,1-6.626,0c-.946-.18-1.419-.18-.946,0s0,.361-.474.361C1504.5,161.109,1504.023,161.29,1504.023,161.47Zm36.914,0,1.42.18a12.274,12.274,0,0,0,3.786,0c0-.361-2.366-.541-3.786-.361Zm-95.6.9c0,.18.946.18,1.42.18a3.06,3.06,0,0,0,.947-.18c0-.18-.474-.18-1.42-.18C1445.811,162.011,1445.338,162.192,1445.338,162.372Zm114.53-1.443c0,.361-3.313.541-4.259.18a38.39,38.39,0,0,0-7.572-.361c0,.18,0,.361-.473.722s0,.361,1.42.541c2.84.18,21.3,0,21.77-.18a11.2,11.2,0,0,0-4.26-1.263c-1.893,0-4.26.18-5.206.18C1560.341,160.568,1559.868,160.748,1559.868,160.929Zm-61.052.541c0-.18-.473-.18-.946-.18s-.473.18-.473.18c0,.18.473.18.947.18C1498.816,161.831,1499.29,161.65,1498.816,161.47Zm-37.388.9c2.366,0,2.366,0,.947-.361a7.562,7.562,0,0,0-2.84-.18c-.947,0-2.367.18-4.26.18-3.313,0-5.679.18-5.206.541a20.777,20.777,0,0,0,4.26.18A65.722,65.722,0,0,1,1461.428,162.372Zm17.511-.361c0-.18,0-.361-.474-.361a10.483,10.483,0,0,0-3.786.361C1474.68,162.372,1478.466,162.372,1478.939,162.011Zm84.715-5.232c.473-.361-1.42-.541-2.366-.361-.473.18-.473.18,0,.361A2.67,2.67,0,0,0,1563.654,156.779Zm-69.1,4.871c-.473-.18-8.519-.722-11.358.18s7.572,0,8.519,0C1493.611,162.011,1495.03,161.831,1494.557,161.65Zm8.992-.541c0-.18-.947-.18-1.42-.18s-.947.18-1.42.18c0,.18.473.18,1.42.18A4.374,4.374,0,0,0,1503.549,161.109Zm133.461-1.8c.947-.18,0-.9-1.42-.9-.947,0-1.893.18-2.366.18C1632.751,158.944,1635.591,159.666,1637.01,159.305Zm-9.465-1.263a7.4,7.4,0,0,1-2.84,0c-1.42-.18-10.885.18-10.412.541a25.323,25.323,0,0,0,4.259.361c4.733,0,10.885-.18,11.358-.18s.946-.541,1.42-.722C1632.278,158.042,1629.911,157.681,1627.545,158.042Zm26.029.541c0-.18-1.893-.18-3.313-.18-2.366,0-11.358-.361-10.885.722S1654.048,158.944,1653.575,158.583Zm-36.914,2.165c-.947.18-.947.18,0,.361a5.126,5.126,0,0,0,2.366,0c1.42-.18,1.42-.361,0-.361A5.126,5.126,0,0,0,1616.66,160.748Zm53.952-3.969c-.473.18,0,1.263,1.42,1.263,5.679.18,1.419-1.082.473-1.263Zm-61.525,1.443a4.372,4.372,0,0,0-1.42.18c0,.18.947.18,1.42.18a4.37,4.37,0,0,0,1.42-.18A4.368,4.368,0,0,0,1609.088,158.223Zm-34.548,2.345c-1.421,0-1.421.541-.474.9s2.366.361,1.42,0c-.474-.18,9.939.361,11.358-.541S1575.486,160.568,1574.54,160.568Zm28.869.722c-2.367-.361-5.206-.361-6.626.18-.946.361.946.722,4.259.722C1605.3,162.011,1606.248,161.65,1603.409,161.29Zm2.839-2.706c0-.18-.946-.18-1.42-.18a10.76,10.76,0,0,0-1.42.18c0,.18.473.18,1.42.18S1606.722,158.764,1606.248,158.583Zm2.84,2.526c0,.18.473.18.473.18a3.056,3.056,0,0,0,.946-.18c0-.18,0-.18-.473-.18C1609.561,160.748,1609.088,160.929,1609.088,161.109Zm-163.75-3.789c-1.893,0-2.84,0-2.84.361,0,.18.946.361,2.84.361C1449.6,158.042,1449.124,157.5,1445.338,157.321Zm354,5.412c-.946.18-.946.18.473.18a11.588,11.588,0,0,0,1.893-.18C1801.707,162.552,1801.234,162.552,1799.341,162.733Zm-4.733.361s0,.18.946.18.947,0,.473-.18Zm11.831-.722a13.946,13.946,0,0,0,2.367.18,12.632,12.632,0,0,0,3.313-.361C1812.119,161.831,1807.386,162.011,1806.44,162.372Zm-106.958,4.871c3.786.18,15.618,0,17.037-.18.947-.18-1.893-1.082-9.465-1.082C1697.115,165.98,1693.8,167.063,1699.482,167.243Zm70.99-2.706c-.473.18,1.42.18,4.26.18,2.366,0,4.732-.18,4.732-.541C1778.99,163.635,1771.891,164,1770.472,164.537Zm-233.794,1.082c-.473,0,0,.541.947.541s1.42-.541.947-.541Zm152.865,1.082a25.818,25.818,0,0,0-2.84.18c0,.9,4.733.18,5.206,0S1691.436,166.7,1689.543,166.7Zm129.2-5.412a12.7,12.7,0,0,0-2.84.18c-.473.18,0,.361,1.893.18C1819.691,161.65,1820.164,161.47,1818.745,161.29Zm-37.861,2.887c-.473.18,4.259.18,7.572-.18s5.206-.722,3.313-.722C1788.456,163.274,1783.25,163.274,1780.883,164.176Zm43.541-3.428a5.607,5.607,0,0,0-2.839.541c0,.18.946.18,2.366.18C1827.263,161.29,1827.737,160.748,1824.424,160.748Zm-401.33-3.247c.473-.541.473-.722,0-.9-.947-.18-17.511.361-17.038.9C1406.529,158.223,1422.621,158.223,1423.094,157.5Zm-30.289.722a34.294,34.294,0,0,1,5.679.18c4.259-.18,4.733-.541,3.313-1.082a27.743,27.743,0,0,0-6.626.18,17.353,17.353,0,0,1-3.786.361c-1.419,0-2.366.18-1.893.361Zm49.219,4.149c0-.18-.473-.18-.946-.18s-.947.18-1.42.18c0,.18,0,.18.947.18A10.761,10.761,0,0,0,1442.024,162.372Zm-7.1.18c2.366,0,2.839-.361.947-.541s-4.733.18-5.206.541c0,.18,0,.361.947.18A15.181,15.181,0,0,1,1434.926,162.552ZM1354,158.223a11.588,11.588,0,0,0-1.893.18c0,.18.473.18,1.42.18a11.591,11.591,0,0,0,1.893-.18A4.372,4.372,0,0,0,1354,158.223Zm26.977.18q3.549-.271,1.42-.541c-1.42-.18-2.84,0-2.84.361C1379.08,158.4,1380.027,158.4,1380.974,158.4Zm448.657-.361c-1.42.18-2.84.541-2.84.9s-.946.361-2.366.361a39.655,39.655,0,0,0-5.679.541c-2.366.18-6.626.541-9.939.541a89.879,89.879,0,0,0-8.992.541c-6.152.722-38.808,1.985-55.845,2.345-6.152,0-11.832.18-13.251.18s-6.152.18-10.412.18c-4.733.18-8.519.361-8.992.361a7.06,7.06,0,0,1-2.839,0c-1.893-.18-21.3-.18-29.342,0a38.656,38.656,0,0,0-5.679.361c-.947.18-5.679.361-10.885.541-9.465.18-9.939.18-16.565.18h-20.823c-2.367,0-7.1,0-10.412.18-8.045.18-26.5.18-32.182,0-14.2-.361-16.564-.361-17.037,0s-.947.361-1.893.18a19.762,19.762,0,0,0-5.206-.18c-3.786.18-13.725.18-15.145.18-1.893.18,0-.541-8.992-.361-6.626,0-8.993.18-9.939.541s-4.26.541-3.786.18c0-.541,0-.541-.947-.361s-.946.18-1.419,0-6.626-.361-26.976-.18c-14.671,0-26.976.18-27.449.18-.947,0-.947.18-.947.361.473.361,0,.361-1.42.361-1.893,0-1.893,0-.473-.361.947-.361.947-.361-.473-.541h-28.4c-23.19.18-64.365.18-74.776,0h-16.091c-6.626,0-9.938,0-9.938-.18,0-.361,0-.361,3.313-.361,2.84-.18,17.511-.18,20.351,0,1.42,0,4.733,0,7.1-.18s16.564-.18,32.182-.361c35.495-.18,76.669-.541,97.019-.722,17.511-.18,40.7-.361,45.907-.361h6.626c.947,0,6.153,0,11.832-.18,5.679,0,12.305-.18,14.672-.18s6.152,0,8.518.18a28.6,28.6,0,0,0,7.1-.18c4.733-.541,8.046-.722,9.465-.361a55.64,55.64,0,0,0,9.938.541,4.6,4.6,0,0,0,1.42-.541c.473-.361.946-.541,5.679-.541,5.679,0,7.572,0,8.992-.361,1.42-.18,13.725-.722,24.137-.722,5.206,0,12.305-.18,16.091-.18,8.519-.18,22.716-.18,23.19-.18a12.769,12.769,0,0,0,2.367-.18,4.727,4.727,0,0,1,2.366.18c.947.18,1.42.18,1.893-.18.947-.541,1.893-.541,11.358-.541.947,0,1.893-.18,2.84-.18a19.166,19.166,0,0,1,4.259-.361c1.42-.18,4.259-.361,6.152-.541a110.5,110.5,0,0,1,12.3-.361,23.465,23.465,0,0,0,3.786-.18c2.366-.361.946.541-1.42.9-1.893.361-1.893.361-.473.541a7.4,7.4,0,0,0,2.84,0,36.376,36.376,0,0,1,5.206-.361c1.893-.18,3.786-.361,4.259-.361a3.378,3.378,0,0,1,1.893,0,37.4,37.4,0,0,0,9.939-.361c1.419-.18,8.992-1.624,4.732-1.443h-2.839c-4.259.18-9.465.18-12.778.18-4.26,0-12.305,0-17.511.18-8.519.18-28.87.361-40.227.361-2.367,0-5.68.18-8.046.18a8.021,8.021,0,0,1-3.312-.722c.473-.18,12.3-.18,27.449-.361,22.243-.18,27.449-.18,31.236-.541s4.733-.361,5.206-.18,1.893.361,6.152.18h8.992c2.84,0,28.869-1.082,31.236-1.263.473,0,3.313-.18,6.626-.361s6.152-.361,7.1-.361c.947-.18,1.419,0,1.419.18s-.473.361-1.419.361-1.42.361-1.42.541.946.361,4.733.18h4.733c0,.361-4.259,1.263-9.939,1.263-6.152,0-31.708,1.082-34.548,1.624q-1.42.271-1.42.541c0,.361,1.893.541,8.519.361,3.313-.18,11.832-.361,18.93-.541s13.252-.361,14.671-.541c.947,0,3.313-.18,5.206-.361,1.893,0,3.313-.18,3.313-.361,0-.361,4.733-.541,5.679-.18a22.214,22.214,0,0,0,5.206,0c6.152-.361,6.626-.361,6.626.18,0,.361.474.541,1.893.361C1832.943,157.14,1832.469,157.5,1829.63,158.042Zm-59.159-1.263c.947,0,1.42-.361.947-.361h-1.893C1769.052,156.418,1769.525,156.779,1770.472,156.779ZM1375.294,158.4a10.762,10.762,0,0,0-1.419-.18c-.947,0-1.419,0-1.419.18s.946.18,1.419.18S1375.294,158.583,1375.294,158.4Zm-379.086-2.526c-4.733-.18-14.2,0-15.618.18s-.947.18,2.366.361c7.1.18,15.618.18,15.144,0A2.76,2.76,0,0,0,996.208,155.877Zm164.7-1.082c0,.18.473.18.947.18a3.056,3.056,0,0,0,.946-.18,3.055,3.055,0,0,0-.946-.18C1161.378,154.614,1160.9,154.614,1160.9,154.795Zm-3.313,0c-.474,0,0,.18.946.18s1.42,0,.947-.18Zm-36.442-.9c-.473,0-.473.18-.473.361s.473.18.947.18.473-.18.473-.361S1121.623,153.893,1121.15,153.893Zm11.359.18c0,.18.473.18.946.18a3.055,3.055,0,0,0,.946-.18c0-.18-.473-.18-.946-.18C1132.982,153.712,1132.508,153.893,1132.508,154.073Zm332.706,7.938c0,.722,7.572-.18,8.519-.18s.947,0,.473-.18C1473.26,161.65,1465.215,161.29,1465.215,162.011Zm-317.562-7.216a5.128,5.128,0,0,0,2.366,0c1.42-.18.947-.361-1.42-.361C1146.706,154.614,1146.233,154.614,1147.653,154.795Zm527.692-1.443c0,.18,0,.18.473.18s.947-.18,1.42-.18c0-.18,0-.18-.473-.18A1.973,1.973,0,0,0,1675.345,153.351Zm214.863-57.19c-.474.361,3.313.9,6.152.722,6.625-.541,4.733-1.263-.947-1.263C1893.048,95.62,1890.682,95.8,1890.208,96.161Zm12.778,0c2.839.722,2.366.722,3.786,0,.473-.361-.473-.541-2.366-.541C1901.093,95.62,1901.093,95.8,1902.986,96.161ZM1678.658,152.81c0,.18.473.18,1.419.18a11.592,11.592,0,0,0,1.893-.18c0-.18-.473-.18-1.42-.18A2.973,2.973,0,0,0,1678.658,152.81Zm168.483-3.969c0,.722,13.251-.361,14.2-.541.473-.18-.947-.722-.947-.722C1859.919,147.4,1847.141,148.12,1847.141,148.841Zm-876.49,7.036c-3.313,0-5.679.18-5.679.18s1.893.18,4.26.361c6.152.18,6.152.18,6.626-.18S975.384,155.7,970.651,155.877Zm29.816-2.165c0-.18-.947-.18-1.893-.18a10.763,10.763,0,0,0-1.42.18c0,.18.946.18,1.893.18C999.994,154.073,1000.467,153.893,1000.467,153.712Zm116.9.541c0,.18.473.18.473.18.474,0,.474-.18.474-.18,0-.18-.474-.18-.474-.18S1117.364,154.073,1117.364,154.254Zm-160.437,2.165h3.313c1.42,0,2.84-.18,3.313-.18,1.893,0-1.42-.361-4.26-.541C955.98,155.7,955.033,156.058,956.927,156.418Zm33.129-2.706c0-.18-.473-.18-.473-.18-.473,0-.473.18-.473.18l.473.18C990.055,154.073,990.055,153.893,990.055,153.712Zm-37.862,2.345c1.42.361,1.42.361.947,0,0-.18-.947-.18-1.42-.18C951.247,155.7,951.247,155.877,952.194,156.058Zm124-1.624s0,.18.947.18.946,0,.473-.18Q1076.19,154.163,1076.19,154.434Zm32.182-.541a23.255,23.255,0,0,1-5.206,0c-2.366-.541-17.511.18-16.564.722.473.18,14.2.18,23.19-.18,4.733-.18,5.679-.18,5.206-.541C1115,153.532,1114.524,153.532,1108.372,153.893Zm-43.541.541c0,.361.947.541,1.42.18,0-.18,0-.361-.473-.361C1065.3,154.073,1064.831,154.254,1064.831,154.434Zm413.635-5.412-.473.18c0,.18.473.18.473.18.474,0,.474-.18.474-.18C1478.939,149.022,1478.466,149.022,1478.466,149.022Zm416-29.046c-2.84,0-7.572.361-5.679.9,2.84.722,8.992.361,8.992-.361C1897.781,120.156,1896.361,119.975,1894.468,119.975ZM1844.3,149.022c0-.18-.947-.361-2.367-.361a6.711,6.711,0,0,0-2.839.361c-.474.18.473.361,2.366.361A6.714,6.714,0,0,0,1844.3,149.022Zm-11.359,11.185c-3.786.361-4.733.361-4.733.722,0,.18,3.786.18,8.046-.18,1.42-.18,3.313-.361,4.259-.361a7.019,7.019,0,0,0,1.893-.361C1842.881,159.846,1837.2,160.027,1832.943,160.207Zm-1721.27-9.381c0,.18.947.18,3.313.18,4.733-.18,4.733-.361.473-.361C113.092,150.465,111.673,150.645,111.673,150.826Zm1707.545,3.608q0-.541-1.42-.541a4.324,4.324,0,0,0-2.366.541q-.71.541,1.42.541C1818.272,155.156,1819.218,154.795,1819.218,154.434Zm8.046,1.443c2.367,0,3.786-.18,3.786-.361,0-.541-11.832-.18-13.251.361-.947.361-.474.361,2.366.18C1822.058,155.877,1824.9,155.877,1827.263,155.877Zm-14.2-.541c1.419-.18.947-.722-1.893-.722-1.893,0-3.786.361-3.786.541C1806.913,155.336,1810.7,155.516,1813.066,155.336Zm-62.471,2.526a27.129,27.129,0,0,0-5.206.18,13.95,13.95,0,0,0,2.367.18Zm-416-8.3c0,.541.473.722,1.893.18.946-.361.946-.722-.474-.722S1334.593,149.2,1334.593,149.563ZM1824.424,25.981c.473.18,14.2-.361,16.091-.541a2.848,2.848,0,0,1,1.42,0c0,.361,2.84,1.443-.473,1.624-4.259.18-13.251,0-13.251.361s1.893.541,8.046.9c12.3.9,15.144,1.082,16.091,1.263a10.613,10.613,0,0,0,2.84.18,94.405,94.405,0,0,1,12.778,1.263c1.42.18,23.191-1.263,20.824,1.443-.473.541-.947.361-5.206.18-6.626-.361-31.708-.361-33.129,0a15.017,15.017,0,0,1-2.839.18c-.947,0-1.42,0-1.42.18s-.946.361-4.733.361c-2.84,0-5.679.18-6.626.18a12.763,12.763,0,0,1-2.366.18,7.017,7.017,0,0,0-1.893.361c-2.366.722-.946.9,7.1,1.082,15.618.361,29.816-.541,35.022.18,5.206.541,2.366,1.263,2.366,1.263l-3.313.18a35.035,35.035,0,0,1-6.152,0c-1.42-.18-8.992-.361-16.091-.361-7.572-.18-17.511-.361-22.717-.541s-11.832-.361-14.671-.361-7.572-.18-10.412-.18c-7.572-.18-19.877-.18-25.557,0-2.839.18-8.991.18-13.251.18a76.964,76.964,0,0,0-8.519.18c-.946.361-.473.722.947.541.473,0,.947,0,.947.18,0,.361-2.839.541-6.152.361a34.194,34.194,0,0,0-3.786.18c-2.84.18-2.84.18-1.42.541s8.046.361,28.4.541h11.358l.474.541c.473.541.947.541,1.893.541,3.786-.18,10.885-.722,15.618-.722,3.786,0,6.153.541,6.153.722a6.712,6.712,0,0,1-2.84.361c-1.42,0-5.206,0-7.572.18-2.84,0-4.733,0-4.733-.18,0-.361-1.893-.18-3.786.18l-1.42.361,2.367.18c.947,0,3.313.18,4.26.18,2.366,0,2.84.18,2.366.541-.473.18-2.84.361-12.779.18-7.1,0-15.145-.18-18.457-.361-2.84-.18-6.626-.18-8.046-.18h-4.259a3.375,3.375,0,0,0-2.367.541c-.473.361-.947.541-8.045.541-5.206,0-7.572.18-8.046.361,0,.18,1.42.361,5.679.361a56.065,56.065,0,0,1,7.573.361c4.26.9,12.778,1.263,26.976,1.624,11.832.18,23.19.541,24.136.9a65.916,65.916,0,0,0,7.573.18c4.259,0,7.572,0,8.519.18a11.524,11.524,0,0,0,1.893.18,1.973,1.973,0,0,1,1.42.18c.947.361,16.565,0,19.877-.18,2.366-.18,3.786,1.082,1.42,1.263-1.42.18-16.091.541-20.824.722-.946,0-.946.18-.473.18.473.18,2.84.18,5.679.361,2.839,0,5.679.18,5.679.361a10.1,10.1,0,0,0,3.313.361,25.639,25.639,0,0,1,4.259.541c.947.18,3.786.361,7.1.541,2.839,0,20.351-.361,25.083-.361a29.027,29.027,0,0,1,4.733.9c.474.361-5.679.541-16.564.722-8.519.18-10.412.18-10.412.722s2.84.9,10.885,1.082a71.676,71.676,0,0,1,10.885.541c1.893.18,4.732.361,7.573.361s4.732.18,4.732.18c0,.18-.473.18-.947.18a18.239,18.239,0,0,1-2.366.541c-.947,0-4.26-.361-7.572-.18-5.679.18-7.572.541-5.679.9.946.18.946.361-2.84.541-2.366.18-3.786.361-16.565.541-10.412.18-10.885.18-12.778.9l-1.893.722s4.259,0,8.992.18c6.152,0,9.465.18,10.885.541a44.329,44.329,0,0,0,5.679.361,60.761,60.761,0,0,1,6.152.361,9.177,9.177,0,0,0,3.313,0c.947-.361,2.367-.361,2.367,0,0,.18-.474.361-1.42.361-1.42.18-.947.18.947.361,1.42.18,5.679.18,8.992.18,6.625,0,7.572,0,7.572.722,0,.361.947.361,6.153.361,11.831,0,11.358,1.8-3.786,2.165-5.206.18-12.306-.541-14.2.18-1.42.541-.474,1.263,1.892,1.624.947.18,2.367.361,2.84.541a12.629,12.629,0,0,0,3.313.361c2.366,0,2.84.361.947.722a30.585,30.585,0,0,0-4.259.722c-1.893.361-4.732.9-6.626,1.082-6.626,1.082-11.358,2.165-11.832,2.526a.677.677,0,0,0,.473.722c.473.361,2.366.361,7.572.18a75.729,75.729,0,0,0,8.519-.361c.947-.18,1.42-.18,1.42.18s1.419.722,4.259.9a11.331,11.331,0,0,1,2.839.361c.474.18,0,.361-1.893.361-2.84,0-3.313,0-2.366.722a1.743,1.743,0,0,1,.946.9c.474.361,8.519,0,10.412,0,3.313-.361,12.305-1.082,10.885.541-1.893,1.624-8.519.722-9.465.722-1.42,0-1.42,0-.474-.18.474-.18.947-.361.474-.361a11.492,11.492,0,0,0-4.733.722c-2.84.9-1.893,1.263,2.367,1.082a16.605,16.605,0,0,1,3.313,0c0,.361-.473,1.263-6.153,1.443-5.205.18-6.152-.722-7.572,0-.947.361-1.42.9-1.42,1.443,0,.361,0,.9-.473,1.082-.947.541-.473,1.082.947,1.082,1.893,0,17.511-.722,15.144.541s-13.725.18-15.144.18c-4.26-.361-5.679,1.263-2.367,2.526l1.893.722,16.091-.361.947.722c.946.722.473,1.263-1.893,1.443-1.42.18-1.894.722-1.42,1.263a27.1,27.1,0,0,0,7.1,1.443c1.893,0,3.786,1.082,1.42,1.263-3.786.361-13.252.18-17.511.361-4.733.18-5.679.722-3.786,1.985,1.419.9,2.84,1.082,5.679,1.082q1.42,0,1.42.541c0,.722,1.419,1.082,3.786.9.947-.18,1.893,0,1.893.18s-.947.361-1.419.361c-1.893.18-1.893.18-.947,1.263.473.541,1.42.722,2.84.722,2.84,0,3.313,0,3.786.361,0,.18-1.893.361-5.206.361-5.679,0-7.1.361-7.1,1.082s2.367,1.082,7.1,1.082c3.786,0,4.733.18,5.206.361,0,.18.946.361,1.42.361a10.751,10.751,0,0,1,2.367.361c.946.361.946.361-4.26.361s-8.992.361-8.992.722c0,0-2.367,1.624-1.893,2.165,4.259,3.067,18.458.18,17.511,2.345s-11.831,1.263-14.2,1.263a11.58,11.58,0,0,1-1.893-.18c0-.541-4.259-.361-5.68.18a5.645,5.645,0,0,1-2.366.541,22.531,22.531,0,0,0-2.84.361c-1.893.361-1.893.541-1.893,1.8-.473,1.8.473,2.165,4.733,1.985h3.313c0,.18,0,.722-.947,1.082-1.419.9-1.419,1.082-1.419,1.624,0,.18-.473.361-1.42.361-1.893.18-3.786,1.443-2.84,1.8,1.419.541.946.722-1.42.722-2.84,0-4.733.361-4.733.9,0,.361.473.361,3.313.18,4.733-.18,3.786,1.443-.946,1.8-3.313.18-10.412.361-8.519.361.473,0,.473.18,0,.361a3.6,3.6,0,0,0-1.42,1.443c-.947.9-.947,1.263,0,1.8s1.42.722,3.786.722c3.313,0,4.259.722,1.893,1.082-.947.18-1.893,0-2.366.361,0,.361-.947.9-1.42,1.082s-.946.722-.473,1.082c.473.541,0,.722-1.893.9s-2.367.541-2.84,1.082c0,.541-.947.9-1.893,1.082-2.366.361-3.313,1.263-2.839,2.165.473.722.946.9,2.366.9s1.893,0,1.893-.18.474-.18.474-.18c.473,0,9.465-1.082,9.465.361s-8.992,1.263-10.412,1.263c-3.313.18-5.206.18-5.206,1.443s.474,1.263-8.519,1.8c-1.893.18-4.259.361-4.732.722-.947.361-3.313.541-8.992.722-4.259.18-9.465.361-11.358.541-3.786.361-3.786.361-3.786,1.443,0,.9-.473,1.082-2.367,1.263a44.328,44.328,0,0,1-5.679.361,23.042,23.042,0,0,0-4.26.541c-.473.361-1.419.361-3.313.18-1.42,0-4.733,0-6.626.18a29.4,29.4,0,0,1-5.679,0,8.96,8.96,0,0,0-3.786.18c-.946.18-3.312.361-5.206.541-1.893,0-19.4.722-19.877.9a12.7,12.7,0,0,1-2.84.18,30.08,30.08,0,0,0-4.259.18,38.662,38.662,0,0,1-5.679.361c-2.367,0-7.573.18-11.358.18a65.916,65.916,0,0,1-7.573-.18c0-.18-3.312-.18-7.1,0-6.626.18-11.832.18-35.968.18-15.144,0-16.091,0-17.984.361a8.645,8.645,0,0,1-1.893.18s-6.152-.18-13.251-.18-14.671-.18-16.564-.361-8.046-.18-15.145,0c-11.359.18-14.2.18-19.4.18-1.42,0-10.412,0-20.824.18-9.939,0-34.548.18-54.9.361-19.877,0-38.335.18-40.7.18-5.206.18-51.113.18-59.631.18-2.84,0-6.626,0-7.573.18a20.761,20.761,0,0,1-4.733,0,54.918,54.918,0,0,0-5.679-.18c-1.42,0-4.733.18-7.1.18s-4.259.18-4.733.18a1.973,1.973,0,0,1-1.419-.18,1.371,1.371,0,0,0-1.42-.18,57.286,57.286,0,0,1-6.626.541c-5.206.18-6.625.18-7.572-.18-1.42-.361-1.893-.361-2.366-.18a6.745,6.745,0,0,1-1.893.18,6.744,6.744,0,0,0-1.893-.18c-2.366.18-22.243.18-22.243,0s-.947-.18-1.42,0-4.733.18-8.992.18c-12.778-.18-31.236,0-32.655.18a54.866,54.866,0,0,1-10.885,0,9.407,9.407,0,0,0-3.786-.18,65.921,65.921,0,0,1-7.573.18c-5.206,0-6.626,0-7.1.361a1.79,1.79,0,0,1-1.893,0c-.947-.361-1.893-.541-8.992-.361-17.984,0-17.51,0-17.984.541a1.974,1.974,0,0,1-1.42.18c-.947-.18-33.129-.541-48.746-.361h-14.671c-1.893.18-9.938.18-16.091.18h-33.6c-3.313,0-8.045,0-9.465-.18-.947-.18-8.519-.18-17.038-.18h-43.541c-.947,0-10.885,0-22.244.18-25.083.18-54.9.18-92.76,0-15.618,0-29.343-.18-29.816-.18H888.3c-3.786,0-8.992-.18-11.358-.18-6.153-.361-50.166-.541-54.426-.18a34.923,34.923,0,0,1-6.153,0c-3.313-.361-60.578-.541-72.41-.18a65.358,65.358,0,0,1-8.992,0,13.2,13.2,0,0,0-3.786,0,7.061,7.061,0,0,1-2.84,0c-.473-.18-16.091-.18-21.3,0H653.563v1.082h-9.939c-5.206,0-10.412.18-10.885.18a6.655,6.655,0,0,1-1.893,0c-.473-.18-7.1-.361-16.091-.361-8.519,0-18.457-.18-22.717-.361-6.152-.18-8.045-.18-8.992.18-1.893.361-.946.9,1.893,1.263a6.532,6.532,0,0,1,2.366.722c.473.722,4.259.541,3.786-.18,0-.361.473-.361,3.313-.361a24.871,24.871,0,0,0,4.733-.361,7.24,7.24,0,0,1,3.313.18c1.42.361,2.84.361,6.153.18a28.007,28.007,0,0,1,5.679,0,18.52,18.52,0,0,0,4.733.18,11.232,11.232,0,0,1,2.84,0c0,.361-1.893.541-5.206.541-4.733,0-3.786.18,1.893.361,4.26.18,4.733.18,5.206-.361.473-.722,1.893-.722,3.786,0,1.42.361,1.42.541.946.18s0-.361,5.206-.541c20.824-.18,26.03,0,24.61.722-.946.361,0,.541,1.893.361.474,0,2.84,0,5.206.18,4.259.18,17.511.361,41.647.541,4.259,0,8.046,0,8.992-.18a7.562,7.562,0,0,1,2.84.18,6.524,6.524,0,0,0,3.313.18c1.893-.18,9.939-.18,22.243,0,3.786,0,8.046,0,8.992-.18a4.78,4.78,0,0,1,2.84.18,5.227,5.227,0,0,0,3.313.18,29.159,29.159,0,0,1,3.313-.18c1.893,0,2.84,0,2.84.361s.473.541,2.84,0c.946-.18,4.259-.361,11.358-.18h15.618c5.679,0,6.153,0,7.1.722a1.726,1.726,0,0,0,2.366.18,8.556,8.556,0,0,1,5.679-.722c1.42.361,3.313.361,7.572.18,7.572-.18,7.572-.18,13.725,0,2.84.18,8.046.18,11.832,0,8.992-.361,10.885-.18,12.305,0a12.7,12.7,0,0,0,2.84.18c.946,0,5.206-.18,9.465-.18,5.206,0,7.1,0,8.046.18a3.806,3.806,0,0,0,2.84,0c.473-.361,7.1-.541,9.465,0a56.159,56.159,0,0,0,9.465.18c.947-.361,13.251-.541,14.2-.18a23.253,23.253,0,0,0,5.206,0c5.679-.18,8.046-.18,8.046.361s1.893.722,2.366.18c.473-.361.947-.361,2.84-.18h2.84c.473-.361,10.412-.361,11.832,0a3.266,3.266,0,0,0,1.893,0c.947-.18,26.5-.18,28.4,0a12.765,12.765,0,0,0,2.366-.18,12.766,12.766,0,0,1,2.366-.18,6.743,6.743,0,0,0,1.893-.18,7.4,7.4,0,0,1,2.84,0,30.087,30.087,0,0,0,4.259.18c4.259-.18,17.511-.361,17.984-.18,0,.18,3.313.18,7.572,0,4.259,0,8.045-.18,9.466-.18,8.045,0,10.412,0,11.358-.361.473-.361.947-.361.947.18.473.722,3.313.722,3.313,0,0-.361.473-.541,4.259-.541a38.652,38.652,0,0,1,5.679.361,3.58,3.58,0,0,0,2.366-.18,3.582,3.582,0,0,1,3.313,0c.474.361,1.893.361,7.573.361,4.733,0,7.1-.18,7.572-.361.947-.361,2.84-.361,2.84,0,0,.541,1.42.361,2.839,0a5.754,5.754,0,0,1,4.259,0,8.546,8.546,0,0,0,3.786.18c2.839-.18,21.3-.361,35.022-.361,8.992,0,10.412,0,10.885-.361s.946-.361,2.367-.18a22.524,22.524,0,0,0,2.839.361c3.313,0,47.8-.361,58.212-.361,6.153,0,17.038-.18,24.136-.18,9.466,0,13.252-.18,13.252-.361.473-.361,5.206-.361,5.679,0a1.929,1.929,0,0,0,1.42,0,3.378,3.378,0,0,1,1.893,0c.473.18,4.733.18,9.939.18,6.626,0,8.992,0,8.992-.361s.947-.361,1.893,0c.473.18,2.366.18,4.259.361,6.152,0,31.236-.361,32.655-.541a4.729,4.729,0,0,1,2.367.18,3.421,3.421,0,0,0,1.893.18c.473,0,4.26-.18,8.046-.18s9.465,0,12.3-.18a81.8,81.8,0,0,1,9.466,0c2.839.18,4.259.18,4.732-.18a8.6,8.6,0,0,1,3.313-.18,49.3,49.3,0,0,0,9.465-.18,37.539,37.539,0,0,1,4.733-.18c3.313.18,27.449.18,36.442,0,3.786,0,13.725-.18,22.716-.18s17.984-.18,19.878-.18c2.366,0,9.939-.18,17.511-.18s14.2-.18,14.671-.361c.947-.18,34.075-.361,41.175-.361h9.465c5.679,0,8.992,0,12.778-.18a28.013,28.013,0,0,1,5.679,0,23.254,23.254,0,0,0,5.206,0c3.313-.18,3.786-.18,4.733.18s2.366.361,10.885.18c.473,0,1.42.18,2.84.18a7.4,7.4,0,0,0,2.839,0,5.129,5.129,0,0,1,2.367,0,41.911,41.911,0,0,0,8.045-.18,53.049,53.049,0,0,1,7.1-.18c.946.18,13.251.361,18.457.361h20.824c2.366,0,5.206,0,7.1-.18,2.366-.18,3.313-.18,3.313.18s2.839.541,10.885.722h7.1c1.42,0,11.832-.18,16.564-.361,11.358-.361,12.778-.361,13.725-.18.947.361,6.152.18,16.091-.18a73.727,73.727,0,0,1,8.992,0c2.366,0,5.206,0,6.626-.18a9.174,9.174,0,0,1,3.313,0c.473.18,3.786.18,10.412-.18,5.206-.18,10.885-.361,12.778-.18,1.893,0,7.1,0,12.3-.18,4.733-.18,9.465-.361,10.412-.18a12.7,12.7,0,0,0,2.84-.18c.946-.18,4.259-.361,7.1-.541,3.313-.18,7.572-.18,9.939-.361,3.313-.18,3.786-.18,3.313.18-.474.18-1.893.18-3.313.361-2.367,0-3.313.361-1.893.541s18.457-.541,25.083-1.082c3.313-.361,7.1-.541,8.046-.541s6.152-.361,11.358-.9c9.465-.9,17.984-1.263,17.984-.9,0,.541-1.893.722-7.1,1.082-3.313.18-6.625.361-8.046.541-2.839.18-9.938.722-24.137,1.624-6.625.361-9.465.722-17.037,1.624-1.42.18-5.206.18-8.992.18-7.573,0-24.61.18-26.03.361-.473,0-4.733.18-8.992.18s-11.358.18-15.145.361c-7.572.361-58.685.361-91.34.18-15.144-.18-16.564-.18-14.671.18s.473.361-13.252.18c-8.519,0-17.511-.18-19.877-.18s-11.832-.18-20.823-.18c-8.992-.18-17.984-.18-19.878-.361-2.366,0-8.992-.18-15.618-.361-8.992-.18-11.832-.18-12.778.18a3.267,3.267,0,0,1-1.893,0,1.929,1.929,0,0,0-1.419,0c-.947.361-4.259.361-4.259,0,0-.18-.473-.18-1.42-.18s-.947,0-.473.18c2.84.361-.473.541-12.305.541-24.137,0-34.075.361-35.5.722a3.423,3.423,0,0,1-1.893-.18c-.946-.361-.946-.361,0-.541a10.149,10.149,0,0,1,2.366,0c.474,0,1.42,0,1.42-.18.473-.18-.946-.18-4.732-.18-2.84,0-5.68.18-5.68.18-1.893.361-3.786.361-4.259,0-.473-.541-2.366-.541-4.733.18a6.176,6.176,0,0,1-2.84.361c-.473,0-.473-.18,0-.18a3.06,3.06,0,0,0,.947-.18c0-.361-2.84-.361-5.206.361-2.366.541-2.839.541-3.313.18s-1.893-.361-4.259-.361a17.873,17.873,0,0,0-3.786.18c-.473.18-29.816.361-48.273.361-5.679,0-9.938,0-9.938.18s-2.366.18-5.206.18c-6.153,0-64.365.361-67.2.361-.946,0-2.84-.18-3.313-.18a10.094,10.094,0,0,0-3.313,0c-2.366.541-16.564.541-18.93.18a3.378,3.378,0,0,0-1.893,0c-.473.18-5.679.361-13.251.18-.947,0-6.152,0-11.359.18-9.465.18-13.725.18-30.763,0a88.727,88.727,0,0,0-8.992.18,27.043,27.043,0,0,1-4.733.18,27.042,27.042,0,0,0-4.733.18c-.947.18-22.243.361-22.717.18s-7.572-.18-15.144-.361c-15.618,0-22.716,0-24.137.361a104.47,104.47,0,0,1-15.618.18,22.654,22.654,0,0,0-5.206.18,7.516,7.516,0,0,1-2.84,0,37.425,37.425,0,0,0-8.992,0c-.947.361-7.1.361-8.046.18-.947-.361-10.885-.361-12.305,0a9.479,9.479,0,0,1-3.313.18c-3.313-.361-17.511-.18-18.457,0-.474.361-7.572.361-25.556.18H1010.88c-2.366,0-11.358,0-19.877.18-16.091.18-30.289.18-65.784.18-33.6-.18-45.434-.18-63.891,0-7.572,0-32.182-.18-37.861-.361a30.571,30.571,0,0,0-5.206.18c-.473.18-.947.18-2.84,0-2.84-.361-12.778,0-12.778.361,0,.18,3.786.361,8.519.361,4.733.18,8.992.18,9.465.18s.947.361.947.541c.473.722,2.84.9,17.984,1.082,6.626,0,16.091.18,20.824.361s9.939.18,10.885.18a11.338,11.338,0,0,1,2.84.361c.946.361,1.893.361,7.572.361,3.786,0,8.992,0,11.358.18,4.259.18,5.206.18,6.626-.18,1.893-.361,12.305-.541,12.305-.18a6.711,6.711,0,0,0,2.839.361,14.8,14.8,0,0,0,4.259-.18c1.42-.361,2.366-.361,5.206-.18,1.893.18,4.733.18,6.153.361,1.42,0,5.206.18,8.992.361,9.465.361,20.824.541,33.129.541,11.358,0,35.495.18,40.7.361a34,34,0,0,0,6.152,0c.947-.18,9.939-.18,20.824,0,10.412,0,28.4.18,39.754.18,23.663.18,21.77,0,20.824.361a8.558,8.558,0,0,1-2.367.18,8.556,8.556,0,0,0-2.366.18c0,.18-1.893.18-4.259.18-3.786-.18-6.626.18-4.26.361a2.461,2.461,0,0,1,1.42.361c0,.18-.474.18-1.893.18a17.722,17.722,0,0,0-2.84-.18,4.122,4.122,0,0,1-1.42-.361c0-.18-.473-.361-.946-.361s-.473.18-.473.18c.946.541-.947.541-1.893.18-1.42-.722-11.359-.9-12.778-.361a5.484,5.484,0,0,1-3.786.18c-.473-.18-3.786-.361-11.359-.361-5.679,0-10.885-.18-11.358-.18a5.127,5.127,0,0,0-2.366,0c-.946,0-4.259.18-8.046.18-6.626,0-7.572.18-7.572.541,0,.18-.946.361-1.893.361-1.893.18-2.366-.18-.473-.541.947-.361.473-.361-5.206-.361-3.313,0-14.671,0-25.083-.18h-21.77a9.748,9.748,0,0,1-3.313,0c-.473-.18-6.626-.361-13.725-.361-18.931-.18-22.243-.18-28.869,0a55.691,55.691,0,0,1-8.046,0,13.925,13.925,0,0,0-4.733.18c-1.893.361-3.313.361-7.1.18-5.679-.361-17.511-.361-18.931,0s-4.732,0-4.259-.361c.473-.541-7.1-.9-8.046-.361,0,.18-1.419.18-2.84.18s-2.366-.18-2.84-.18c-.473-.361-4.733-.361-5.679,0a3.268,3.268,0,0,1-1.893,0,45.018,45.018,0,0,0-8.045-.18c-3.786,0-7.1,0-7.1-.18s-1.42,0-2.366.18c-1.893.361-2.366.361-7.1-.18-4.259-.361-7.1-.361-12.778-.361-8.992.18-16.091.18-22.717,0-11.832-.361-13.725-.361-16.091,0-2.84.541-4.259.541-5.679,0-.946-.361-1.42-.361-3.313-.18-2.366.361-5.206.361-5.206,0,0-.18-3.313-.18-7.572-.18-12.305,0-26.03-.18-29.343-.361a10.424,10.424,0,0,0-3.786.18,12.7,12.7,0,0,1-2.839.18c-.946,0-2.84,0-4.733.18a16.267,16.267,0,0,1-5.206-.18c-2.366-.361-5.206-.361-10.885,0a4.591,4.591,0,0,1-1.893,0c.473-.18-1.42-.361-4.733-.361a11.593,11.593,0,0,0-1.893.18c0,.18-.473.18-.946,0a91.042,91.042,0,0,0-10.885-.361c-5.679,0-9.939-.18-10.412-.18-.473-.18-14.671-.18-17.037.18a8.559,8.559,0,0,1-2.366-.18c-.946-.361-4.259-.361-14.671-.361-6.626,0-10.412,0-28.4-.541-12.3-.361-18.931-.361-20.824,0a39.783,39.783,0,0,1-6.152-.18c-2.84-.18-5.679-.361-5.679-.18-.473.18-16.564.18-23.663,0-20.824-.541-55.372-.722-56.792-.541a49.49,49.49,0,0,1-7.1.18c0-.18-3.786-.361-8.519-.361-7.1,0-18.931.18-20.824.361-1.42.18-1.893,0-1.893-.18s.473-.361.947-.361c.947,0,.473,0-.473-.18a4.727,4.727,0,0,0-2.366.18,6.7,6.7,0,0,1-3.786,0c-1.42-.361-11.832-.361-15.144,0a10.149,10.149,0,0,1-2.366,0c-.473-.361-5.206-.722-5.206-.361,0,.18-1.42.18-3.786,0H421.19a3.378,3.378,0,0,1-1.893,0c-.473,0-.947,0-.947.18s-.473.18-1.42.18-1.42-.18-.947-.361c.473-.361.473-.361-8.519-.361a35.17,35.17,0,0,0-6.626.361c-.946.361-4.733.541-5.206.18,0-.18.473-.361,1.42-.361s0-.18-2.366-.18-6.152,0-8.519.18a26.971,26.971,0,0,1-5.679,0,47.35,47.35,0,0,0-7.572,0c-7.572.18-14.2.541-15.618.541-3.313,0-3.313-.722-2.366-.722.947-.18,4.733-.18,8.519-.18,0,0,6.152-.361,7.1-.9s-2.366-.541-6.152-.541c-11.359,0-35.022,1.263-42.594,1.263-4.259,0-5.206.18-5.206.361s-.473.361-.473.361c-.473,0-.473-.18-.473-.361,0-.361-.473-.9-5.206-.361a23.206,23.206,0,0,1-4.733.18c-.473-.18-.946-.18,0-.18a3.057,3.057,0,0,0,.947-.18c0-.361-6.626-.18-7.572,0a1.93,1.93,0,0,1-1.42,0,9.747,9.747,0,0,0-3.313,0,34.923,34.923,0,0,1-6.153,0,28.613,28.613,0,0,0-5.679.18c-2.366.361-7.572.541-8.045.18-.473-.18.947-.18,2.84-.18,2.366,0,3.313,0,2.84-.361a20.777,20.777,0,0,0-4.259-.18c-2.366.18-5.206.18-6.152.18h-8.519c-8.519,0-18.931.18-20.35.541a71.1,71.1,0,0,1-7.572.18c-3.786,0-6.626,0-6.626.18s.473.361.947.541c.947.361.947.541-.473.541a11.592,11.592,0,0,1-1.893-.18,1.93,1.93,0,0,0-1.42,0c-.947.18-2.366.18-7.1,0-4.733-.361-6.152-.361-7.1,0-1.42.361-7.572.18-7.572-.18,0-.18-9.939-.18-21.77-.18-17.038,0-21.77,0-22.717.361a19.166,19.166,0,0,1-4.259.361c-5.679,0-20.35.541-25.083,1.082-2.84.18-6.626.541-8.519.541s-4.259.18-4.733.18c-1.42.18-4.733.541-9.939.722-1.893,0-3.313.18-3.313.361s-.473.18-.947.18a26.923,26.923,0,0,0-3.786.722c-1.893.361-3.786.722-4.259.722s-1.42.18-1.42.541c-.473.722-.947.541-1.893-.18s-.947-.722.473-1.082a35.207,35.207,0,0,1,3.786-.541c3.786-.18,4.733-.722,3.786-1.624a4.112,4.112,0,0,0-1.893-.722c-1.42-.18-1.893-.722-.473-.9.947-.361.473-.9-.473-.9a4.373,4.373,0,0,1-1.42-.18c0-.18.947-.18,2.366-.18a10.612,10.612,0,0,0,2.84-.18c0-.18,0-.361-1.42-.18-.947,0-6.626.18-12.3.18-6.152,0-11.832.18-13.251.361-3.313.361-3.786.361-3.786-.18q0-.271,2.84-.541c1.42,0,5.206-.18,7.572-.361,2.84-.18,8.519-.18,12.778-.18,8.046.18,9.939,0,5.206-.722a82.773,82.773,0,0,0-8.519-.361c-12.778.18-22.717,1.082-27.923,1.082a11.955,11.955,0,0,1-4.733-.9c-.947-.361,2.366-.541,11.358-.722,5.679,0,12.778-.18,16.091-.18s7.1-.18,8.519-.18c2.366,0,5.679-.9,5.679-1.443s-13.725-.722-24.61-.9c-7.1,0-10.412.722-11.358,1.082-1.893.361-5.679-.722-3.786-1.263a27.863,27.863,0,0,1,8.992-.722c1.893.18,8.992.18,16.564.18l17.984-1.082a17,17,0,0,0,4.259-1.263c0-.361-3.313-.541-5.206-.361a7.4,7.4,0,0,1-2.84,0c-.947-.18-.473-.361.473-.722,2.366-.722.947-1.082-3.313-.722q-7.809.541-8.519,0c0-.18,1.42-.361,3.786-.541,3.313-.361,4.259-.361,4.259-.9q0-1.353-8.519-.541c-2.84.18-5.679.541-6.626.722a19.752,19.752,0,0,1-3.786.541c-1.42.18-16.091,1.985-17.038,2.165-1.42.361-2.84.18-2.84-.361,0-.18.947-1.443,3.313-1.443,3.313,0,13.725-1.082,16.091-1.443,1.42-.18,1.42-.18.473-.361-1.893,0-.473-.541,1.42-.541.947,0,1.893-.18,2.366-.18.947-.541-1.893-.541-5.206-.18s-10.412.9-14.2.9c-1.893,0-3.786-.722-4.259-1.624a2.844,2.844,0,0,0-1.893-.9c-1.42-.18-1.42-.361-1.42-.722.473-.541,0-.541-2.84-.361a12.355,12.355,0,0,1-4.259-.18c-.947-.361-.947-.361,1.893-.361h4.259c1.42,0,2.84-.541,2.84-1.443,0-.541-.473-.722-2.84-.18-1.42.18-1.42.361-.947.541s.473.361-.473.361-1.42-.18-.947-.18c.473-.361-2.366,0-5.206.361a17.706,17.706,0,0,1-5.206.18c-.473-.361,1.42-.722,4.733-1.082a17.313,17.313,0,0,0,3.786-.722c-5.207.18-4.26-.18-3.787-.18.947-.18.947-.9,0-.9a3.057,3.057,0,0,0-.947.18c-.473.361-1.42,0-1.42-.361,0-.18.947-.361,2.84-.361a12.656,12.656,0,0,0,4.259-.541,11.2,11.2,0,0,1,2.366-.541c1.42-.18,2.366-1.263.473-1.263-.473,0-.947.18-.947.361,0,.541-1.42.722-6.152,1.082a34.013,34.013,0,0,0-4.733.722c-1.42.541-3.313.722-3.786.361,0-.18-3.313,1.082-4.733-.18-.947-1.263,3.313-.9,3.313-.9,1.893-.361,4.733-.541,6.152-.722,2.84-.361,3.786-.722,1.42-.541s-2.366-.361,0-.722c.947-.18,1.893-.361,1.893-.541-.473-.541-3.786-.541-8.992,0-2.84.18-4.733.361-5.206.361q-1.42-.541,4.259-1.082c3.313-.361,5.206-.9,3.313-.9-1.42,0-.473-.361.473-.541,2.366-.18,1.893-.722-.473-.9a16.874,16.874,0,0,0-4.259.18c-2.366.541-4.259.541-4.259.18a42.338,42.338,0,0,1,7.572-1.082c1.42,0,1.893-.361.947-.541-.947-.361-9.465.361-11.358.9a9.047,9.047,0,0,1-2.84.361c-.473-.18,0-.361,1.42-.722s1.893-.541,1.42-.9.473-.361,3.786-.361c4.733,0,6.152-.361,5.679-1.263,0-.361,0-.722.473-.9s0-.541-.473-.722c-.947-.361-.947-.361,0-.541,1.42-.18,5.206-1.8,5.206-2.165,0-.541-3.313-.361-10.885.541-5.206.722-6.152.722-8.046.541s-2.366-.18-3.313.18c-1.42.541-2.366.361-1.42-.361.473-.18.473-.722,0-1.263q-.71-1.624-4.259.541a10.428,10.428,0,0,1-3.786,1.263c-.947.18-9.465-1.8-6.626-3.428,1.893-1.082,10.885-.9,11.358-1.082,1.893-.541,16.091-1.263,18.931-1.443,2.366-.18,6.152-1.082,5.206-1.263l-3.786.361c-3.313.541-5.206-.361-4.259-.9.473-.361,6.152-.722,9.465-.722,2.366,0,4.733-.361,4.733-.722a3.151,3.151,0,0,0-2.366-.9c-3.313.18-26.5,3.247-24.61.9.473-.361,2.366-.722,6.626-1.082q3.55-.271,2.84-.541c-.473-.18.947-.361,4.733-.541a140.31,140.31,0,0,0,14.2-.722,34.014,34.014,0,0,0,4.733-.722,7.48,7.48,0,0,1,1.893-.541,4.122,4.122,0,0,0,1.42-.361c.473-.361.473-.361-.947-.361-.947,0-1.893-.18-1.893-.361s.947-.18,2.84-.18a7.36,7.36,0,0,0,4.259-.541c1.42-.541-4.259-1.624-5.206-1.624-.473,0-.947-.18-.947-.361.473-.361-.473-.361-1.42,0a1.93,1.93,0,0,1-1.42,0c-.473-.18-1.42-1.082,0-1.263.947-.18,13.251-1.263,17.984-1.8,6.152-.722,6.626-1.624,1.42-1.624-2.84,0-5.679-.361-5.206-.722a9.171,9.171,0,0,1,2.84-.541c1.42-.18,2.366-.541,2.366-.722s.473-.541,1.42-.9,1.42-.9,1.42-1.443V100.13H66.712a6.711,6.711,0,0,1-2.84-.361c0-.18-2.366-.361-6.152-.361-6.152,0-7.572-.18-4.733-.722q1.42-.271,1.42-.541c-.473-.361-4.733,0-8.992.541-2.366.9-2.366.9-2.366.541s2.84-1.263,5.679-1.8c1.42-.18,7.1-.722,15.618-1.263.947,0,3.313-.18,4.733-.361s5.679-.361,9.465-.722a72.119,72.119,0,0,0,9.465-.9,20.491,20.491,0,0,1,4.259-.541c.473,0,0-.18-.947-.18a30.128,30.128,0,0,0-3.786-.18c-.947,0-3.786.18-7.1.18-5.206.18-5.679.18-7.1.722s-1.893.722-4.733.541q-4.969,0-4.259-1.082c.473-.361-3.313-.541-10.412,0-2.84.18-5.206.18-5.679.18-.473-.18.947-.9,2.366-.9a10.33,10.33,0,0,0,2.84-.541,55.836,55.836,0,0,1,6.626-.9c2.84-.361,23.19-1.263,28.869-1.443,3.313,0,2.366-1.082,2.366-1.263,0-.361-15.618,0-18.931.541-3.313.361-7.572.361-7.572,0,0-.18.947-.18,2.366-.361,2.84,0,3.313-.361,1.42-.9a12.656,12.656,0,0,0-4.259-.541,25.817,25.817,0,0,1-2.84-.18c0-.361,2.366-1.082,4.259-1.263a17.44,17.44,0,0,1,2.366-.361c.473-.361-5.679-.18-12.778.361-3.313.18-5.206.18-6.152.18-2.366-.361-1.893-.9.473-.9,1.893,0,3.313-.722,1.42-.722-1.42,0-1.893-.541-.947-.9a5.782,5.782,0,0,0,1.893-1.263c.947-1.082.947-1.082,5.679-1.443,2.366-.18,6.152-.541,7.572-.722a9.175,9.175,0,0,1,3.313,0c0,.18.947.18,1.42.18s10.412-.18,21.77-.18c12.778,0,21.3-.18,22.244-.361,2.84-.361.947-.722-4.733-.722a34.3,34.3,0,0,1-5.679-.18c-.473-.18-.473-.361-.473-.361s1.42,0,3.313-.18a32.406,32.406,0,0,0,5.206-.541c2.366-.541,2.366-.541.473-.722-.947,0-7.572-.18-14.2-.18-7.1,0-13.251-.18-13.725-.361-1.42-.361-1.42-.361,7.572-.361,3.786,0,8.519-.18,10.412-.361,2.366-.18,8.046-.361,13.725-.361H125.4v-.722c.473-2.165-10.412-.9-14.671-.9-3.313,0-6.626.18-7.572.18a6.9,6.9,0,0,1-2.84-.18,8.557,8.557,0,0,0-2.366-.18,5.242,5.242,0,0,1-1.893-.18,8.557,8.557,0,0,0-2.366-.18,26.61,26.61,0,0,1-3.786-.18c-.947-.18-6.626,0-12.3.18s-12.3.361-14.2.361c-3.313,0-3.313,0-3.313-.722s-3.786.541-11.832,1.082c-3.786.361-3.786-1.082-3.313-1.624,0-.18,1.42-.18,2.366-.18,5.206.18,15.618-1.263,17.038-2.165s.473-.9-4.733-1.082c-4.733-.18-6.152.722-12.778,1.624-1.42.18-3.313-.722-3.786-.722-.947,0-.473-.722,0-.722a41.573,41.573,0,0,0,4.733-.361c1.893-.18,6.626-.361,10.412-.361h7.1l1.893-.9c3.313-1.443-11.832-.722-12.778-.541a1.467,1.467,0,0,1-.947,0c0-.18-2.84-1.985,7.572-1.985,8.046,0,13.251.541,15.618.361,2.84-.361,11.358-.541,26.5-.722,5.679,0,10.885-.18,12.3-.361,3.313-.361,4.259-1.263,3.313-2.526l-7.1-.9h-14.2c-6.152,0-8.046.18-8.519.361-.473.541-2.84.361-2.84-.18s3.313-1.443,16.091-1.624c9.465,0,18.931-1.082,17.984-1.443,0,0-4.259-.18-9.465-.18-7.572,0-9.465,0-11.358-.541-3.313-.541-7.1-.722-7.1-.18,0,.361-1.42,1.263-3.786,1.263-1.42,0-.947-.722.473-1.082a3.613,3.613,0,0,0,1.42-.541c-.473-.18-6.152-.722-11.832-1.082-1.42-.18-1.893-.18-1.893-.541,0-.18,0-.541-.473-.541s-.473-.361-.473-.541c.473-.361.947-.361,6.626-.361H93.688a30.865,30.865,0,0,1,6.152,0c.947.361,27.923.361,27.923.18s-.473-.18-.473-.18c-.473,0-.473-.18-.473-.18,0-.18.473-.18.473-.18.947.18,3.313-.18,3.313-.541,0-.722-2.366-.9-8.992-.722s-9.939-.18-4.733-.541c2.84-.18,2.84-.18,1.42-.541s-4.259-.361-10.412,0c-2.366.18-2.366.18-.947-.18s.947-.361-4.733-.541c-3.313-.18-6.626-.361-7.572-.541s-2.84-.361-3.786-.541c-2.84-.18-1.893-.722,1.42-.541a20.575,20.575,0,0,0,3.786-.18c1.893-.361,20.824-.361,24.137,0a25.1,25.1,0,0,0,5.206,0c1.42-.18,5.206-.361,8.992-.541,11.358-.361,13.251-.541,16.564-1.082s4.259-.9,2.84-.9-20.824-.18-23.663-.18h-5.679c-5.679,0-28.4.541-29.343.722a2.808,2.808,0,0,1-2.366-.361c-.473-.361-.947-.722-.947-1.082.473-.722,0-.722-16.091-.722-15.145,0-23.19.361-25.556.9a5.3,5.3,0,0,1-2.84.18c-1.42-.541-.947-.9.947-1.082.947,0,2.84-.361,4.259-.361,1.42-.18,9.465-.361,20.824-.361,30.289,0,52.533-.361,54.9-.9.947-.18,3.313-.361,5.679-.541,11.358-.9,11.358-1.263-.473-1.263-6.626,0-9.939-.18-12.3-.361a35.082,35.082,0,0,0-6.152-.18c-1.893,0-7.572.18-13.251.361-9.465.18-20.35.361-18.457-.9s7.1,0,7.1,0c11.832,0,12.778,0,12.3-.541-.473-.18,0-.361.947-.18a37.573,37.573,0,0,0,4.259-.18c1.42-.18,5.679-.361,9.465-.361a50.728,50.728,0,0,0,7.572-.361,21.23,21.23,0,0,1,4.733-.361,36.37,36.37,0,0,0,5.206-.361c1.42-.361,1.42-.361-.947-.541a28.569,28.569,0,0,0-3.313-.361,3.785,3.785,0,0,1-1.893-.541c-.473-.361-1.42-.541-3.313-.541-4.259,0-8.519-.361-8.519-.541s.473-.361,1.42-.361c.473,0,2.366-.18,3.786-.361,2.366-.18,2.366-.18,1.893-1.263-.947-1.624-2.366-1.985-4.733-2.165,0,0-8.992,1.082-8.519,0,.473-.9,8.519-.541,8.519-.541.947,0,1.893-1.082,1.42-1.263,0-.18-5.206-.18-12.778-.361-10.412,0-13.251,0-16.564.361-4.259.541-7.572.361-8.992-.18-.473-.361-.473-.361.473-.722.473-.18.947-.541.947-.722,0-.722,1.42-2.345,9.939-2.345,6.626,0,10.412,1.443,8.519,1.624-1.42.18-4.733.18-6.152.18-1.893,0-3.786.18-3.786.18-.473.361,22.717.18,23.663-.18q.71-.271,0-.541a1.507,1.507,0,0,1-.947-1.263,3.835,3.835,0,0,0-.947-1.985c-.473-.541-.947-1.082-.473-1.263,0-.18-.473-.541-1.893-.722-2.366-.361-16.091,0-12.778-1.624s15.618-.18,16.564-.541a6.546,6.546,0,0,0,1.893-1.443c0-.361.473-.9.473-1.082a19.711,19.711,0,0,1,5.206-2.706c2.84-.9-8.992.18-13.251-.722s-.473-1.082.473-1.082c1.893,0,18.457-.541,17.984-.9,0-.18,0-.361.473-.361s.947-.361.947-.722c0-.541,2.366,0,4.259-.18.947-.18,1.42-.18,1.42-.361a23.845,23.845,0,0,1,7.572-2.345c1.893-.361,5.206.361,26.03,0,9.465-.18,16.564-.361,18.931-.722,1.893-.18,7.572-.541,13.251-.541,8.046-.18,12.778-.361,14.2-.9l.947.361c.947.361,1.42.541,5.679.361,8.992-.361,11.832-1.985,11.832-2.345,0-.18,1.893-.361,6.152-.361,9.939,0,54.426-.361,57.738-.541,1.42,0,8.519-.18,15.145-.18s12.778-.18,13.251-.361a51.057,51.057,0,0,1,6.626-.18h7.1c.947,0,4.259,0,8.045-.18,3.786,0,11.832-.18,17.984-.361S378.122.9,379.068.9s5.206,0,10.412-.18c9.465-.361,17.511,0,28.869-.18,4.259,0,9.939-.18,12.3-.361,2.84,0,15.618-.18,28.869-.18,23.19,0,24.136-.541,26.03,0s2.366.541,8.519.361c3.786,0,8.046-.18,10.412-.361,1.893,0,5.206,0,7.1.18,5.206.541,11.832.541,10.885,0-.473-.361,5.679-.541,12.778-.361,3.313,0,6.626.18,7.1.18s2.366-.18,3.786-.18a52.924,52.924,0,0,1,7.572,0c2.366.18,6.152.18,8.992.361,4.259.18,4.733,0,6.152-.541S571.214-.9,574.527-.9a38.651,38.651,0,0,1,5.679.361c1.893.361,4.733.541,4.733.18,0-.541,3.313-.541,7.1-.18C596.3-.178,603.4,0,605.29-.359a10.091,10.091,0,0,1,3.313,0,10.092,10.092,0,0,0,3.313,0,12.849,12.849,0,0,1,3.786,0,20.824,20.824,0,0,0,5.679-.18,17.391,17.391,0,0,1,6.152,0c1.893.18,7.1.361,24.137.18,33.6-.18,146.713-.18,151.445,0,2.366.18,6.626.18,9.465.361,17.038.361,23.663.361,26.5.361h37.388c.474,0,7.572,0,15.145.18s23.19.18,34.075.361c25.083.18,47.327.361,47.8.541,0,0,0,.361-.946.541-1.42.361-8.046.361-27.923,0-4.259,0-23.19-.18-42.121-.361-29.816-.18-47.8-.361-51.113-.361-.473,0-3.786,0-6.626.18-5.679.18-7.1.18-12.778,0a8.606,8.606,0,0,0-3.313.18c0,.18-.946.18-1.42.18-.473-.18-8.519-.18-17.984-.18-15.618,0-17.038.18-18.931.541a17.458,17.458,0,0,1-5.206.541,42.573,42.573,0,0,0-7.1.361,31.961,31.961,0,0,1-3.313-.18c-4.259-.361-65.311-.541-66.731-.18-.947.361-6.152.361-34.549.541-13.724,0-26.5.18-28.4.18-1.42,0-4.259,0-6.152.18a11.692,11.692,0,0,0-3.786.361c-.947,1.082,5.206,1.624,7.1.722,1.42-.541,2.366-.541,6.153-.18a129.159,129.159,0,0,0,14.671.9,30.357,30.357,0,0,1,4.733.18c.947.18,23.663.361,69.1.361,37.388,0,86.135.18,109.325.18,22.716,0,48.746.18,58.212.18,8.992,0,17.037.18,17.984.18a33.32,33.32,0,0,0,4.259,0,29.865,29.865,0,0,1,5.679,0c2.84.18,14.672.361,22.717.18h18.931c9.938,0,20.824,0,24.61-.18,11.832-.361,66.731-.541,97.02-.541h21.3c3.786,0,7.572,0,8.992.18a16.711,16.711,0,0,0,4.259,0,27.205,27.205,0,0,1,5.68-.18h54.425s7.572.18,17.038.18h31.709c3.313,0,7.1,0,8.992-.18,1.893,0,5.679,0,8.519.18s7.572.18,10.412.18c15.145-.18,36.442,0,55.846.361,6.626.18,41.174.361,55.845.361,1.894,0,21.771-.361,27.923-.361a27.141,27.141,0,0,0,5.206-.361,1.93,1.93,0,0,1,1.42,0c.473.18,5.679.18,11.358.361,6.153,0,14.672.18,19.878.18,21.77.541,27.923.541,53.479.722h12.305c.947,0,21.77,0,46.38.18,43.541,0,83.3.361,107.432.541,19.4.18,83.768.18,94.653,0,5.206-.18,39.754.18,39.754.18a50.168,50.168,0,0,0,8.519.722c3.786.18,5.206.361,5.679.541a10.1,10.1,0,0,0,3.313.361c9.939,0,11.358,0,11.358.18,0,.361,4.733,1.443-9.465,1.624-9.465,0-20.824-.722-22.244-.541-1.42.361-1.893.361-2.366,0s-9.465-.541-16.564-.361l-4.26.18,2.366.541c1.893.541,1.893.541.947.722a12.77,12.77,0,0,1-2.367.18c-.947,0-.947,0-.473-.361.947-.541,0-.722-4.259-.541-2.366,0-3.313.18-2.84.361,0,.18-.473.361-.946.541-.947,0-1.42.18-1.42.361s-1.419.18-2.839.361a34.65,34.65,0,0,0-4.733.361c-1.42.18-1.893,0-1.893-.361a4.3,4.3,0,0,0-3.313-.361c-.473.361,1.42,1.082,2.84.9h1.419c.474.361,9.465,0,20.824,0,6.626,0,11.358.541,11.358.722.947.541-18.931.722-28.4.361-4.733-.18-26.5-.361-27.923-.18-2.366.361,0,.541,7.572.722,16.091.541,31.235,1.443,31.235,1.8,0,.18-.473.18-.947.18-6.625.18-10.885.361-10.885.9,0,.361,7.572.9,15.144,1.082,3.313,0,6.152.18,6.152.361s-.946.18-1.893.18-1.893.18-1.419.18c.473.361,4.732.722,10.412.722,2.839,0,7.572.18,11.358.361,3.313.18,8.519.361,11.359.361s5.679.18,6.152.18c4.259.361-4.733.9-17.038.9h-7.1l1.893.722a11.874,11.874,0,0,0,5.206.9c1.893,0,3.786.18,4.259.18.473.18,5.206,0,10.412-.18ZM1755.8,19.486c.947,0,1.893-.18,2.366-.18a3.056,3.056,0,0,0,.947-.18c0-.361-2.366-.361-3.786.18C1753.907,19.667,1753.907,19.667,1755.8,19.486ZM829.618,4.512c.946.361.473.361,3.313,0,2.366-.361,1.893-.722-1.42-.722C829.618,3.791,828.671,3.971,829.618,4.512ZM139.6,38.43c0-.18,0-.18-.473-.18a3.057,3.057,0,0,0-.947.18c0,.18.473.18.473.18A2.989,2.989,0,0,0,139.6,38.43ZM129.183,50.517c0-.361-5.679-.361-6.626,0-.947.18-.473.361,2.84.18C127.29,50.7,129.183,50.517,129.183,50.517Zm2.84,0c0,.361,4.259.361,4.733,0,0-.18,0-.361-.947-.361C134.389,49.976,132.023,50.156,132.023,50.517ZM121.611,78.3c3.313-.541,2.366-.9-2.84-.9-3.786,0-4.259,0-4.259.541C114.512,78.661,117.825,78.842,121.611,78.3Zm42.594,70.9c.947-.722-2.84-.9-7.572-.9-9.939,0-26.03.9-26.976,1.082-.473,0-2.84.18-5.679.18-7.1,0-16.091.361-16.091.722,0,.18-3.786.9-2.366,1.263,2.84.722,8.519.18,16.091-.361,2.366-.18,4.733-.361,5.679-.361,2.366,0,16.564-.541,22.244-.722,2.366-.18,6.626-.361,9.465-.361C161.366,149.563,162.785,149.924,164.205,149.2Zm23.19-.722c-2.366-.361-5.206-.361-6.152.18-.947.361.947.722,4.259.722C189.288,149.2,190.235,148.841,187.4,148.48Zm-12.3.18c-.947-.541-6.152-.541-7.572.18-.473.18.947.361,3.786.361S175.564,149.022,175.09,148.661Zm-7.1-106.8a47.35,47.35,0,0,0-7.572,0c-3.786.18-8.046.18-9.939.18-3.313-.18-5.206,0-5.206.361,0,.18,1.42.361,6.152.361.473,0,4.259,0,7.572-.18C167.518,42.4,169.411,42.218,167.991,41.857ZM651.67,155.7a29.167,29.167,0,0,0,3.313-.18c0-.361-4.733-.361-6.153,0C648.83,155.7,649.3,155.7,651.67,155.7Zm-7.572,0c1.893,0,2.839-.18,2.839-.361s-.473-.361-1.893-.18C641.258,155.336,640.785,155.7,644.1,155.7Zm-14.671-.18c.473.18,1.42.18,1.42-.18a3.058,3.058,0,0,0-.947-.18C629.426,155.336,628.953,155.336,629.426,155.516Zm-20.824-.18c1.42.361,2.84,0,1.893-.361a3.378,3.378,0,0,0-1.893,0C607.656,154.975,607.656,155.156,608.6,155.336Zm-13.725-.361c0,.18.947.18,1.893.18a11.59,11.59,0,0,0,1.893-.18c0-.18-.946-.18-1.893-.18A6.218,6.218,0,0,0,594.878,154.975ZM864.166,4.332c0-.361-22.717-.361-22.717-.18s-.947.18-1.893.18-1.893.18-1.893.361c-.473.361,0,.361,1.893.18.946-.18,21.77.9,25.556.361C868.9,4.512,864.166,4.332,864.166,4.332Zm876.016,33.376c0-.18,0-.18-.474-.18s-.946.18-1.42.18c0,.18,0,.18.473.18S1739.709,37.708,1740.183,37.708ZM1587.317,149.2c-.474-.18-20.824-.361-21.3-.18a44.3,44.3,0,0,1-5.206,0c-2.366-.18-9.939-.361-16.565-.361s-12.3-.18-13.251-.361c-1.42-.18-39.755-.18-88.028,0-35.969.18-48.273.361-49.22.541a12.768,12.768,0,0,1-2.367-.18,5.127,5.127,0,0,0-2.366,0c0,.18-2.84.18-5.679.18s-6.626.18-8.046.18c-2.366.18-2.839.18-2.839-.18,0-.541-1.893-.722-8.046-.541h-24.136c-3.786.18-7.572,0-8.046,0a13.2,13.2,0,0,0-3.786,0c-1.42.18-6.152.361-10.412.361-7.572,0-7.572,0-7.1.541s.473.541-3.313.541c-4.26-.18-7.573-.361-8.519-.541-2.367-.541-9.939-.361-10.885.361-.474.361-6.626.541-9.465,0-1.893-.18-2.366-.18-3.313.18a12.626,12.626,0,0,1-3.313.361c-7.1,0-8.992,0-9.465.361,0,.18-.946.361-1.42.361s-.947.18-.947.361,3.313.361,16.565.18c8.992,0,18.93-.18,21.77-.18s8.046-.18,12.305-.18c4.733,0,8.046,0,9.465.18a7.058,7.058,0,0,0,2.839,0,12.851,12.851,0,0,1,3.786,0c3.313.18,5.206.18,5.206-.361,0-.18.473-.18.946,0,.947.361,1.893.361,15.618.541h27.45c2.366,0,6.152-.18,8.519-.361,7.572-.722,11.358-.9,12.305-.722.946.361,6.152.361,9.465,0,4.733-.541,13.252-.541,15.618,0a58.614,58.614,0,0,0,7.1.361c8.046,0,17.038-.361,18.457-.541a14.983,14.983,0,0,1,4.26,0,24.64,24.64,0,0,0,5.206,0c3.313-.541,6.626-.541,7.572,0,.947.361,1.893.361,8.046.361,5.206-.18,7.1-.18,8.046-.722,1.419-.541,1.893-.541,9.939-.361,4.733.18,8.992.361,9.466.361.946.18,14.671.18,19.4-.18a12.8,12.8,0,0,1,4.733.18,5.151,5.151,0,0,0,3.313,0,6.741,6.741,0,0,1,1.893-.18c.473,0,5.679.18,12.305.18s14.2.18,17.038.361,8.045.18,11.358,0a42.44,42.44,0,0,1,7.1,0c.473,0,1.42,0,1.42-.18s1.893-.18,3.786-.18C1585.9,149.743,1588.264,149.382,1587.317,149.2Zm7.572.361c0-.361-2.839-.541-4.26-.361-.946.18-.946.18.473.361C1593,149.743,1594.89,149.743,1594.89,149.563Zm12.3-.18c-1.419-.18-10.412,0-10.412.361,0,.722,5.206.722,9.465.18C1607.668,149.743,1607.668,149.563,1607.194,149.382ZM1651.682,16.6c-1.42,0-9.465-.18-17.037-.361-30.289-.722-65.311-1.263-67.2-.722a12.766,12.766,0,0,1-2.366-.18,49.567,49.567,0,0,0-6.626-.361c-2.366,0-6.625-.18-8.992-.361-4.259-.18-4.733-.18-6.626.361a6.174,6.174,0,0,1-2.84.361c-1.893-.541-6.626-.722-9.938-.541a66.643,66.643,0,0,1-8.519,0c-2.84-.18-10.885-.361-17.511-.361-13.725-.18-22.717-.541-25.557-.9-2.366-.361-8.992-.361-10.885.18-.946.18-4.733.18-13.251,0-18.457-.361-31.236-.541-31.709-.18,0,.18.474.18.947.18a2.751,2.751,0,0,1,1.893.541,3.375,3.375,0,0,0,2.367.541c.946,0,6.625.18,12.3.18,5.679.18,16.091.361,23.19.361,17.511.18,30.289.361,31.709.541.473,0,2.366.18,3.786.18s4.26.18,6.152.18c9.939.361,79.982.722,110.271.541,2.84,0,13.251.18,21.3.541,6.152.18,17.038.18,17.984-.18C1654.048,16.6,1653.1,16.6,1651.682,16.6Zm11.832.18a29.75,29.75,0,0,0-5.679,0c-1.42.18-.473.361,2.84.361C1663.513,17.141,1664.933,16.961,1663.513,16.78Zm24.136.361a29.637,29.637,0,0,0-5.679-.361c-2.84,0-5.68-.18-6.153-.18a20.572,20.572,0,0,0-3.786-.18c-1.42,0-3.786.18-4.733.18-4.733.18,2.84.722,9.938.722a69.313,69.313,0,0,1,8.519.361C1686.7,18.224,1689.07,17.5,1687.65,17.141Zm11.359-1.624c2.839,0,5.206.18,5.679.18.947.361,5.679,0,8.046-.361a29.225,29.225,0,0,1,4.733-.361,17.353,17.353,0,0,0,3.786-.361c.947-.361-3.313-.541-13.724-.541-4.733,0-9.939-.18-11.832-.361s-5.206-.18-7.1-.18-6.153,0-9.466-.18c-3.313,0-8.045-.18-10.412-.18h-17.984c-3.786,0-4.26,0-5.206.361-1.42.722.473.9,8.992,1.082,4.732,0,11.832.18,15.618.361C1676.292,15.517,1684.337,15.517,1699.008,15.517Zm32.655,2.526c-1.42-.18-20.351-.9-25.557-.722-1.42,0-6.152.722-10.411.722h-7.573l4.733.361c5.679.541,18.931.722,29.342.361,4.259-.18,8.519-.361,9.466-.361C1732.61,18.224,1732.61,18.224,1731.664,18.043Zm1.42.541,2.366.361c2.366.361,5.206.18,5.679-.18,0-.18,1.42-.18,3.313,0,1.893,0,2.84,0,2.366-.18-.947-.361-7.1-.361-10.885-.18ZM1343.112,149.022h-1.42q0,.271,1.42,0Zm88.974.541c-.473,0-.473.18-.473.18,0,.18.473.18.473.18l.473-.18C1432.559,149.563,1432.086,149.563,1432.086,149.563Zm262.189,8.84c0-.541-.947-.18-5.679-.18-9.465.18-11.359.9-7.1,1.082C1685.284,159.485,1693.8,159.125,1694.276,158.4Zm216.756-68.917c-.947-.18-1.893,0-1.893.18-.473.18.473.361,1.42.361C1912.925,90.027,1913.4,89.666,1911.032,89.486Zm-406.063,59.536c-.473,0,0,.541.947.541s1.419-.541.946-.541Zm-135.827-.361c-.473,0-.473.18-.473.18l.473.18c.473,0,.473-.18.473-.18C1370.088,148.841,1369.615,148.661,1369.142,148.661Zm-16.091,1.8a3.058,3.058,0,0,0,.946.18c.474,0,.947-.18.474-.18C1354,149.924,1353.05,150.1,1353.05,150.465Zm-9.465-.541c-.473.18-.473.361.947.361s1.42,0,.947-.361A3.267,3.267,0,0,0,1343.585,149.924Zm12.778-1.263-.473.18c0,.18.473.18.473.18.473,0,.473-.18.473-.18Z" transform="translate(1914.879 173.135) rotate(180)" fill="#fff"/>
</svg>
