<svg xmlns="http://www.w3.org/2000/svg">
  <path id="Path_347" data-name="Path 347" d="M846.892,165.8c0,.18-.405.18-.81.18a2.3,2.3,0,0,1-.81-.18c0-.18.405-.18.81-.18S846.892,165.619,846.892,165.8ZM411.481,161.65c-.405.18.4.361,1.62.361,1.62,0,1.62-.18.81-.361A3.685,3.685,0,0,0,411.481,161.65Zm543.96-.541c2.025,0,1.215-.541-.81-.541-2.43,0-4.455.18-4.455.541C950.175,161.29,950.985,161.29,955.441,161.109Zm-111.789,4.51a2.3,2.3,0,0,0-.81.18c0,.18,0,.18.4.18a2.3,2.3,0,0,0,.81-.18C844.057,165.619,843.651,165.619,843.651,165.619Zm105.714-4.51c0-.18-.405-.18-1.215-.18a3.253,3.253,0,0,0-1.215.18c0,.18.81.18,1.215.18S948.96,161.109,949.365,161.109Zm-513.987.722c-.81.361.405.541,2.43.361,2.025,0,2.835-.18,1.215-.541A7.979,7.979,0,0,0,435.378,161.831Zm367.77,3.247c-2.43,0-2.835.18-2.025.722a3.45,3.45,0,0,0,3.24-.18C805.173,165.078,805.173,165.078,803.148,165.078Zm33.213.722a18.965,18.965,0,0,0-2.43.18c0,.18.81.18,2.025.18s2.025-.18,2.43-.18A10.261,10.261,0,0,0,836.361,165.8Zm-131.231-.18c0,.18.405.18,1.215.18a8.547,8.547,0,0,0,1.62-.18c0-.18-.405-.18-1.215-.18C705.94,165.259,705.13,165.439,705.13,165.619Zm-320.381-3.789c-.405.18.405.361,1.62.361,1.62,0,1.62-.18.81-.361A5.44,5.44,0,0,0,384.749,161.831Zm546.8,3.969c-.4,0-.4.18-.81.361,0,.18,0,.18.405.18C931.949,166.161,932.354,165.8,931.544,165.8Zm29.568-5.232a15.005,15.005,0,0,0-2.835.18c.4.361,3.645.361,4.86,0C963.541,160.568,963.136,160.568,961.111,160.568Zm-43.744,5.412s0,.18.81.18.81,0,.405-.18A1.432,1.432,0,0,0,917.367,165.98Zm-20.657-.361c-.405,0-.405.18-.405.18,0,.18.405.18.405.18.405,0,.405-.18.405-.18C897.116,165.619,896.711,165.619,896.711,165.619Zm16.606.541a4.985,4.985,0,0,0,3.24,0c0-.18,0-.361-.405-.361C914.937,165.619,912.912,165.8,913.317,166.161Zm91.132-1.263c-.405-.18-64-.18-64,0s.405.18.405.18a2.852,2.852,0,0,1,1.215.18,4.973,4.973,0,0,1,1.62.18c.81,0,1.215.18.81.361,0,.18-.405.541,0,.541.405.18,4.05.361,4.05,0l-1.62-.361c-.81-.18-1.62-.361-1.62-.541s35.238-.18,40.1,0c.81,0,3.24,0,5.266-.18,2.025,0,5.67-.18,8.1-.18C1003.64,165.259,1004.855,165.078,1004.45,164.9Zm-30.377,2.165c-.81.18.81.722,3.24.722a9.363,9.363,0,0,0,4.05-.722C981.768,166.7,975.692,166.7,974.072,167.063Zm-19.036-.9c-.81,0-.81.18-.81.18,0,.18.81.18,1.215.18a2.3,2.3,0,0,0,.81-.18C956.251,166.161,955.846,166.161,955.036,166.161Zm4.86,0s0,.18.81.18.81,0,.405-.18Zm241.8.18a2.3,2.3,0,0,0-.81.18c0,.18,0,.18.405.18a2.3,2.3,0,0,0,.81-.18C1202.511,166.521,1202.106,166.341,1201.7,166.341Zm-89.107-7.4-.4-.18c-.405,0-.405.18-.405.18,0,.18.405.18.405.18Zm-25.922.541c.81-.18.405-.18-.81-.18a8.549,8.549,0,0,0-1.62.18C1084.241,159.846,1085.456,159.846,1086.672,159.485Zm55.489,7.577c-.4,0-.4.18-.4.18,0,.18.4.18.4.18.405,0,.405-.18.405-.18C1142.566,167.063,1142.161,167.063,1142.161,167.063Zm-60.35-7.577c0-.18,0-.18-.405-.18s-.81.18-1.215.18c0,.18,0,.18.405.18C1081,159.846,1081.811,159.666,1081.811,159.485Zm58.325-.722c0-.18-.405-.18-.81-.18s-.81.18-1.215.18c0,.18,0,.18.81.18C1139.731,159.125,1140.136,158.944,1140.136,158.764ZM1049,159.846h-1.215q0,.271,1.215,0Zm110.979,7.036c-5.265,0-6.886.18-6.481.361a78.946,78.946,0,0,0,8.1.18C1164.033,167.243,1162.818,166.882,1159.983,166.882Zm-87.487-7.036c0-.18-.81-.18-1.62-.18s-1.62.18-1.215.18c0,.18.81.18,1.62.18A3.251,3.251,0,0,0,1072.5,159.846Zm-17.822-.361c-.4-.361-2.835-.361-4.05.18-1.215.361-1.215.361.405.18.81,0,2.025-.18,2.835-.18C1054.674,159.846,1055.079,159.666,1054.674,159.485Zm5.671.361c0-.18-.405-.18-1.215-.18-1.215,0-1.215,0-.4.18S1060.344,160.027,1060.344,159.846Zm7.29,0c0-.18-.81-.18-1.62-.18a3.252,3.252,0,0,0-1.215.18c0,.18.81.18,1.62.18C1067.635,160.027,1068.04,160.027,1067.635,159.846ZM1187.12,166.7c-4.86.18-5.265.18-2.835.361a38.528,38.528,0,0,0,6.48,0c.405,0,.405-.18.405-.361A24.226,24.226,0,0,0,1187.12,166.7Zm27.138-.361a18.97,18.97,0,0,0-2.43.18c0,.361,2.835.361,4.051,0C1216.687,166.341,1216.282,166.341,1214.257,166.341Zm6.48-.18a3.249,3.249,0,0,0-1.215.18c0,.18.81.18,1.215.18a3.252,3.252,0,0,0,1.215-.18C1221.953,166.161,1221.548,166.161,1220.738,166.161Zm14.986,0s0,.18.81.18.81,0,.405-.18Zm23.087-.361a6.3,6.3,0,0,0-2.025-.18c-.81,0-2.835.722-2.025.9a24.949,24.949,0,0,0,3.645-.361C1259.216,166.161,1259.621,165.98,1258.811,165.8Zm-11.341,0c-.81,0-.81.18-.81.18,0,.18.81.18,1.215.18a2.3,2.3,0,0,0,.81-.18A3.251,3.251,0,0,0,1247.47,165.8Zm-872.847-3.969c-.405.18.4.361,1.62.361,1.62,0,1.62-.18.81-.361A5.44,5.44,0,0,0,374.623,161.831Zm797.106,5.051a2.3,2.3,0,0,0,.81.18c.405,0,.81-.18.405-.18C1172.944,166.521,1171.729,166.7,1171.729,166.882Zm37.263-.541a2.3,2.3,0,0,0-.81.18c0,.18,0,.18.405.18a2.3,2.3,0,0,0,.81-.18C1209.8,166.521,1209.4,166.341,1208.992,166.341Zm-162.823-6.495c0-.18-6.885-.541-6.481.18C1040.093,160.568,1046.573,160.027,1046.168,159.846Zm-50.224.722c0-.18-.405-.18-.405-.18a2.3,2.3,0,0,0-.81.18c0,.18,0,.18.405.18S995.944,160.748,995.944,160.568Zm170.924,6.495c-.81.18-.81.18-.4.361,1.215.361,4.455.361,4.455,0S1168.083,166.7,1166.868,167.063Zm38.073-.361s0,.18.81.18.81,0,.4-.18Q1204.941,166.431,1204.941,166.7Zm-136.9.361c-.405,0-.405.18-.405.18,0,.18.405.18.405.18.405,0,.405-.18.405-.18C1068.445,167.063,1068.445,167.063,1068.04,167.063Zm-6.076.361a2.3,2.3,0,0,0,.81.18c.4,0,.81-.18.4-.18C1062.775,167.063,1061.964,167.243,1061.964,167.424Zm8.506-.361a2.3,2.3,0,0,0-.81.18c0,.18.405.18.81.18a2.3,2.3,0,0,0,.81-.18A2.3,2.3,0,0,0,1070.47,167.063Zm-28.352.361c0,.361.4.361,1.62,0,.81-.18.4-.18-.405-.18C1042.523,167.063,1042.118,167.243,1042.118,167.424Zm39.288.18c0,.18,19.847.722,21.467-.18s-13.771,0-17.011,0C1083.836,167.424,1081.406,167.424,1081.406,167.6Zm-1.62-.18c-1.215,0-1.62.18-.81.541.405.18,2.025,0,2.025-.361C1081,167.424,1080.6,167.424,1079.786,167.424Zm-96.4-.361s0,.18.81.18.81,0,.4-.18Q983.388,166.792,983.388,167.063Zm21.872-6.675c.81-.18.81-.18-1.62-.18-.405,0-.405.18-.81.18A5.192,5.192,0,0,0,1005.26,160.387Zm-18.226,6.856a31.262,31.262,0,0,0,6.075.361c5.265,0,12.961-.361,13.366-.541.81-.18,0-.18-2.025-.18S985.818,167.063,987.033,167.243Zm31.187,0c0,.18.405.361.405.18.405,0,.405-.18.405-.361C1018.626,166.7,1018.221,166.7,1018.221,167.243Zm-3.24-.18a4.974,4.974,0,0,0-1.62.18c-.405.18,0,.18,1.215.18C1015.386,167.243,1015.791,167.243,1014.981,167.063Zm3.645-7.036c-.405-.361-.81-.361-.81.18,0,.18.405.361.405.18C1018.626,160.387,1019.031,160.207,1018.626,160.027Zm-3.645.18h0Zm119.89,4.33h-113c-12.556,0-13.366,0-14.581.18-2.43.361,1.215.541,12.151.541,6.481,0,11.746,0,12.151.18a9.012,9.012,0,0,0,3.24,0c2.025-.18,54.275-.18,60.35-.18.81,0,5.266,0,9.721-.18,4.455,0,13.771-.18,20.657-.18,7.7,0,12.961-.18,12.961-.18S1136.9,164.537,1134.871,164.537Zm-96.8-4.51c0-.18-.81-.18-1.215-.18q-1.823,0-1.215.541A4.857,4.857,0,0,0,1038.067,160.027Zm-14.176,0c-.405-.18-1.215-.18-1.215.18a2.3,2.3,0,0,0,.81.18C1023.891,160.387,1023.891,160.207,1023.891,160.027Zm6.885,0c0-.18-.4-.18-.4-.18-.405,0-.405.18-.405.18,0,.18.405.18.405.18C1030.372,160.387,1030.777,160.207,1030.777,160.027Zm84.652,7.216c-.405.18-1.62.541-.405.722a30.511,30.511,0,0,0,7.291-.361A39.135,39.135,0,0,0,1115.429,167.243Zm21.062-.18c-.405,0-.405.18-.405.18,0,.18.405.18.81.18s.81-.18.405-.18A2.3,2.3,0,0,1,1136.491,167.063Zm-30.783.541c0,.18.405.18,1.215.18.405,0,1.215-.18,1.62-.18,0-.18-.4-.18-1.215-.18S1105.708,167.424,1105.708,167.6Zm26.327,0c0,.18,0,.361,1.215.18.81,0,1.215-.18,1.215-.361C1134.06,167.063,1132.035,167.243,1132.035,167.6Zm-4.051-.541a2.3,2.3,0,0,0-.81.18c0,.18.405.18.81.18a2.3,2.3,0,0,0,.81-.18S1128.8,167.063,1127.985,167.063ZM1072.9,5.775c3.24-.18,3.24-.361,2.43-.722s-5.265,0-5.265.361C1070.47,5.956,1070.875,5.956,1072.9,5.775ZM841.221,3.43c3.24,0,8.1,0,10.936.18,5.671.361,17.821.361,57.515.722,14.581,0,26.732.18,26.732.18a66.949,66.949,0,0,0,8.506-.18c1.215-.361,0-.9-2.025-.722H907.647c-1.215,0-10.531-.18-21.467-.18-10.531-.18-22.277-.18-25.517-.361-20.657-.361-27.137-.361-25.922.361C835.551,3.43,838.386,3.61,841.221,3.43ZM907.242,6.5c0,.18.405.18,1.215.18s.81-.18.81-.18c0-.18-.81-.18-1.215-.18S907.242,6.316,907.242,6.5Zm-29.162-.722c-2.025,0-3.645-.18-4.05-.18a9.335,9.335,0,0,0-2.43-.18c-1.215,0-2.835-.18-3.645-.18-1.62-.18-2.025-.18-2.025.18s-.81.541-2.025.361a7.809,7.809,0,0,1-2.43-.18c-.81-.18-20.657,0-21.467.18-.405,0-.405.18,0,.361s5.67.361,17.011.361c8.911,0,21.872.18,28.352.361s12.556.18,13.366.18,2.43-.18,3.24-.18c2.835,0,2.025-.361-1.215-.541C897.521,5.956,883.345,5.595,878.079,5.775Zm27.137.541-.405.18c0,.18.405.18.405.18.405,0,.405-.18.405-.18C905.622,6.316,905.217,6.316,905.217,6.316Zm-72.1-.9a18.067,18.067,0,0,1-4.455,0,43.017,43.017,0,0,0-6.076-.361c-5.265-.18-25.517-.18-25.922,0-.81.361,1.62.541,13.366.541,12.556,0,21.062.18,21.467.361s6.076.18,6.481-.18c0-.18,0-.361-.405-.541C836.361,5.234,835.551,5.234,833.121,5.414ZM485.6,1.265c.4-.361,0-.541-1.215-.361-.405,0-.81.18-.405.361A1.348,1.348,0,0,0,485.6,1.265ZM981.768,4.693a12.259,12.259,0,0,0,3.645,0c.81,0,2.025-.18,2.43-.18a2.3,2.3,0,0,0,.81-.18c0-.18-1.215-.18-3.24-.18h-4.05c-.405,0-1.215,0-1.215.18Zm12.556.18h2.025c.81,0,1.62-.18,2.43-.18a3.252,3.252,0,0,0,1.215-.18c0-.361-5.266-.361-6.075,0,0,.18,0,.361.405.361Zm8.506-.361c.81,0,.81-.18,0,0,0-.18-.405-.18-.81-.18A2.3,2.3,0,0,0,1002.83,4.512Zm-52.654-.18c0,.18.81.361,3.24.541h5.265c1.215,0,5.671-.18,10.126-.18,9.721-.18,12.151-.541,4.86-.722-3.645-.18-22.277,0-23.492.18Zm-2.43-.18c.405,0,.405-.18.405-.361s-.405-.361-.405-.18c-.4.18-.4.18-.4.361S947.745,4.152,947.745,4.152Zm42.528.541c.81-.18.81-.361-.4-.361-.405,0-.81.18-.405.18C989.464,4.693,989.869,4.693,990.273,4.693ZM311.438,1.445c0-.18-.405-.18-.81-.18s-.81.18-.4.18c0,.18.4.18.81.18C311.032,1.806,311.438,1.626,311.438,1.445ZM81.783,24.538a19.263,19.263,0,0,0,3.24,0c2.025,0,1.62-.722.405-1.082-1.62-.361-5.67,0-4.455.361C81.378,23.816,80.973,24.358,81.783,24.538Zm-10.126.18c1.62,0,2.43-.722,1.62-.9a9.767,9.767,0,0,0-3.24,0C69.227,24,69.632,24.718,71.658,24.718Zm6.076-.361a2.228,2.228,0,0,0,.81-.18c1.215-.18,1.215-.541-.405-.541s-2.43.361-1.215.541A2.3,2.3,0,0,1,77.733,24.358ZM58.7,24.177c6.481.361,7.291.18,6.886-.18-1.215-.722-14.176-1.443-17.011-.9-1.62.361-2.835,1.443,2.025,1.624C53.026,24.718,57.481,24,58.7,24.177ZM69.632,40.595c0-.361-4.455-.541-5.67,0-.81.361,1.215.9,1.62.9A21.689,21.689,0,0,0,69.632,40.595ZM163.6,5.054h7.291c2.835,0,8.506,0,12.961-.18,4.455,0,9.316-.18,10.936-.18,4.05,0,6.075-.18,5.67-.361,0-.361-1.62-.361-5.67-.18-2.025,0-4.86.18-6.481,0H173.321c-12.961-.361-16.2-1.624-19.037-.18s4.455.722,4.455.722A22.071,22.071,0,0,0,163.6,5.054Zm24.3.9c0,.18.405.18.405.18.405,0,.405-.18.405-.18,0-.18-.405-.18-.405-.18ZM91.5,26.342c0,.361,2.025.361,4.05,0,1.215-.18.81-1.082-1.215-1.082A3.765,3.765,0,0,0,91.5,26.342Zm2.025-2.526c1.215-.361.405-.541-2.025-.361-1.62.18-2.025.18-1.62.361A6.273,6.273,0,0,0,93.529,23.816Zm14.986-12.448c.81,0,2.025-1.263,2.835-1.263.81-.18.81-.361-.81-.361-1.215,0-2.43.18-2.835.18C106.9,10.285,107.3,11.368,108.516,11.368ZM32.369,45.826c1.62-.18,4.455.361,5.67.18s1.62-.9,1.62-1.082c-.405-.361-12.961-1.8-9.721,1.082C29.939,46.187,31.154,46.007,32.369,45.826ZM1018.221,5.054c.405.18,2.43-.361,3.24-.361,1.215,0,1.215,0,.405-.18a7.7,7.7,0,0,0-2.025-.18C1018.626,4.332,1017.816,4.873,1018.221,5.054ZM1196.841,6.5a3.249,3.249,0,0,0,1.215-.18c0-.18-.4-.18-.81-.18s-.81.18-1.215.18S1196.031,6.5,1196.841,6.5Zm-36.453,0c-.405-.18-1.215-.18-1.215.18a2.3,2.3,0,0,0,.81.18C1160.388,6.677,1160.388,6.677,1160.388,6.5ZM1113,6.136a6.017,6.017,0,0,0-3.645-.361c-.405.18-.405.361-.405.541C1109.353,6.677,1113.4,6.5,1113,6.136Zm17.821.18c.405-.18,0-.361-2.025-.361h-4.861c-2.43,0-4.86.361-4.455.541S1130.01,6.5,1130.82,6.316ZM1620.1,32.476h-2.025c-.405,0,0,.722,1.215.722C1620.1,33.2,1620.506,32.476,1620.1,32.476Zm10.936,30.309c1.62-.541,1.62-.9-.81-.9q-1.823,0-1.215.541A2.423,2.423,0,0,0,1631.036,62.785Zm3.645,25.618c0-.18,0-.361-.4-.361-1.215-.18-1.62,0-1.215.361A2.491,2.491,0,0,0,1634.682,88.4Zm-21.467-34.1c-1.215.361-1.215.361.81.361a10.518,10.518,0,0,0,3.24-.361C1618.075,53.765,1615.645,53.765,1613.215,54.306Zm6.075-.18c.405.361,4.861.18,4.861-.18a3.931,3.931,0,0,0-2.025-.541C1620.506,53.584,1618.886,53.945,1619.29,54.125ZM1107.328,5.956c.4-.361-1.215-.541-2.431-.361a2.413,2.413,0,0,1-1.62,0,1.431,1.431,0,0,0-1.215,0c-.405.18-.405.18,0,.361C1102.873,6.316,1106.923,6.316,1107.328,5.956Zm38.478.361a32.811,32.811,0,0,0,6.076,0c.4-.18-.405-.18-1.62-.18a22.066,22.066,0,0,1-3.645-.18C1144.591,5.595,1144.186,6.136,1145.806,6.316ZM1024.7,5.234c1.215,0,1.215-.541-.405-.722-.405,0-.81,0-.81.361C1023.486,5.054,1023.891,5.234,1024.7,5.234Zm-5.67,1.082a2.3,2.3,0,0,0,.81-.18c0-.18-.405-.18-.405-.18a2.3,2.3,0,0,0-.81.18S1018.626,6.316,1019.031,6.316Zm13.366-.722c.81-.18.81-.18,0-.18a12.931,12.931,0,0,1-2.025-.361c-.81-.361-1.215-.361-1.215.18C1029.562,5.775,1030.777,5.956,1032.4,5.595Zm-16.607-.722c0-.18.81-.18.81,0,.4.18.4,0,.4-.18-.81-.541-5.265-.361-5.265,0S1015.386,5.234,1015.791,4.873Zm-7.291.18c1.215,0,2.835-.361,2.43-.541a8.8,8.8,0,0,0-3.24.361A2.3,2.3,0,0,0,1008.5,5.054Zm86.677,1.082c2.835.18,3.645.18,4.05-.361,0-.18,0-.361-1.215-.361a11.036,11.036,0,0,1-2.43-.18,3.775,3.775,0,0,0-2.025,0C1092.342,5.595,1092.747,5.956,1095.177,6.136Zm-58.73-.9c0-.361-1.62-.9-2.43-.722s-.81.18-.405.541C1034.422,5.595,1036.447,5.595,1036.447,5.234Zm46.984.541a8.548,8.548,0,0,0,1.62-.18c0-.18-.81-.18-1.62-.18a8.547,8.547,0,0,0-1.62.18C1081.406,5.595,1082.216,5.775,1083.431,5.775Zm177.81,160.205c-.405,0,0,.722,1.215.722s1.62-.722,1.215-.722A5.441,5.441,0,0,0,1261.241,165.98ZM1048.193,5.775a7.16,7.16,0,0,0,2.835,0c1.215,0,2.835-.18,3.645-.18s.81,0,.405-.18a21.8,21.8,0,0,0-4.861-.361c-2.43,0-4.455-.18-4.455-.18a4.974,4.974,0,0,0-1.62.18,5.569,5.569,0,0,1-2.43.18c-1.215-.361-4.05-.18-3.645.18,0,.18,2.43.18,4.861.18C1045.763,5.595,1047.788,5.775,1048.193,5.775Zm20.252-.18c.4-.361,0-.361-2.025-.361-2.43,0-2.835.18-2.835.541S1068.04,5.956,1068.445,5.595ZM230.836,161.47c0,.18,0,.18.405.18a2.3,2.3,0,0,0,.81-.18c0-.18,0-.18-.405-.18A2.3,2.3,0,0,1,230.836,161.47Zm-65.615,2.165c-.405,0-.405.18-.405.18,0,.18.405.18.405.18.405,0,.405-.18.405-.18S165.625,163.635,165.22,163.635Zm101.663-1.443c-.4,0-.4.18-.4.18l.4.18c.405,0,.405-.18.405-.18C267.289,162.192,267.289,162.011,266.884,162.192Zm-120.7.18c-.81.18-.405.18.405.18a3.252,3.252,0,0,0,1.215-.18C147.8,162.011,146.994,162.011,146.184,162.372Zm4.86,1.443c-2.025.9,9.316.18,10.531.18s1.62,0,.81-.18C162.385,163.815,153.474,162.733,151.044,163.815Zm45.364-2.706c-.405,0-.405.18-.405.18,0,.18.405.18.405.18.405,0,.405-.18.405-.18C197.218,161.109,196.813,161.109,196.408,161.109Zm153.913-.541a3.252,3.252,0,0,0-1.215.18c0,.18.405.18,1.215.18a3.252,3.252,0,0,0,1.215-.18A3.253,3.253,0,0,0,350.321,160.568Zm-149.862.541c-.81,0-1.62.18-1.62.361s.405.541,2.835.541c4.05,0,11.746-.722,12.556-1.082S201.673,161.109,200.458,161.109Zm-60.35,2.165c-1.62,0-2.835.18-2.835.361s3.24.361,6.075.361,6.076-.361,6.076-.541C149.424,163.454,143.349,163.274,140.108,163.274ZM123.5,166.161c0,.361,3.24.361,4.86,0,.81-.18.405-.18-2.025-.18C124.717,165.8,123.5,165.98,123.5,166.161Zm-2.835-2.887c0,.18-.405.541,2.43.541,5.265,0,9.316-.361,5.67-.722C124.717,163.094,120.667,163.094,120.667,163.274Zm14.986,2.706s0,.18.81.18.81,0,.4-.18Q135.653,165.71,135.653,165.98Zm0-2.526h-3.24c-.81,0-.81.722.81.722C135.248,164,136.463,163.454,135.653,163.454Zm175.38.18s0,.18.81.18.81,0,.405-.18Zm-187.125,5.773a2.419,2.419,0,0,0,2.025,0c.81-.18.81-.18.405-.361C125.527,168.867,123.5,169.047,123.907,169.408Zm190.771-5.773c-1.215.18-.405.361,2.43.361,2.43,0,3.645-.18,2.43-.361A11.046,11.046,0,0,0,314.678,163.635Zm2.835-1.624c-.81.18-.4.18.81.18.81,0,1.62-.18,2.025-.18C320.753,161.65,318.728,161.65,317.513,162.011Zm5.265,1.8c-.81.18-.81.361.81.361,1.215,0,1.62,0,1.215-.18A2.657,2.657,0,0,0,322.778,163.815Zm6.886-1.624a3.252,3.252,0,0,0,1.215.18c.81,0,.81-.18.81-.18A2.575,2.575,0,0,0,329.664,162.192ZM262.023,164c.405-.18-.81-.541-2.43-.541-1.215,0-1.62.361-.405.541A7.16,7.16,0,0,0,262.023,164Zm14.581-.541c.4-.18-2.025-.18-6.076-.18-6.886,0-10.126.9-4.455,1.082A70.967,70.967,0,0,0,276.6,163.454Zm-23.492-.722s-1.62,1.263,1.215,1.082.4-1.082,0-1.082Zm38.478.722a26.485,26.485,0,0,0,6.481.18c0-.18-1.215-.18-3.645-.18A8.8,8.8,0,0,0,291.591,163.454Zm-10.126-.18c-3.24.18-3.24.18-1.62.361,1.215,0,2.835.18,4.05.18h4.05c.81,0,2.025-.18,2.025-.361C289.971,163.094,286.325,162.913,281.465,163.274Zm20.252.361c0,.18,1.215.18,2.43.18,2.025,0,2.025,0,1.215-.18C303.742,163.274,301.717,163.274,301.717,163.635ZM48.976,102.3c-2.43-.722-13.771.722-14.176,1.082v.541c.405.18.81.18,2.025,0a40.5,40.5,0,0,1,5.265-.18C45.736,103.558,51.406,102.836,48.976,102.3ZM39.66,113.3c0,.18.405.18.405.18.405,0,.405-.18.405-.18,0-.18-.405-.18-.405-.18C39.66,113.12,39.66,113.12,39.66,113.3Zm-13.366-7.758c1.62-.722,0-1.443-1.215-1.443s-3.645.722-3.645,1.263S24.674,106.264,26.294,105.543Zm4.455-1.263c.405.361,2.025,0,2.025-.361,0-.18-.405-.18-.81-.18s-.81.18-1.215.18S30.344,104.1,30.749,104.28Zm-2.43-9.021c-1.62.18-2.43.541-2.025.9a6.916,6.916,0,0,0,3.24-.18C32.774,95.259,31.964,94.9,28.319,95.259Zm.81,9.2c.405,0,.405-.18.405-.18,0-.18-.405-.18-.405-.18-.405,0-.405.18-.405.18C28.724,104.46,29.129,104.46,29.129,104.46Zm0-13.531q.608-.541-1.215-.541a5.391,5.391,0,0,0-2.835.541q-.608.541,1.215.541A5.391,5.391,0,0,0,29.129,90.929ZM59.912,52.141c-.405,0-.405.722.81.722s2.025-.722,1.62-.722A5.441,5.441,0,0,0,59.912,52.141ZM38.04,57.012c-1.62.361,0,1.624.81,1.263s6.481-.722,16.2-1.263a35.49,35.49,0,0,0,4.86-.541V56.11C54.646,56.11,40.875,56.471,38.04,57.012Zm5.265,3.608a5.031,5.031,0,0,0-3.645.9c-1.215,1.263,3.645.9,3.645.9h2.835c.405,0,2.025-.18,3.24-.361a27.531,27.531,0,0,1,5.67-.18c2.025,0,3.24,0,3.24-.18C57.887,61.161,44.115,60.62,43.305,60.62ZM44.52,87.5q.608-.541-2.43-.541c-1.62,0-3.645.18-4.05.541s.405.541,2.43.541C42.09,88.043,44.115,87.862,44.52,87.5ZM34.395,94.357q0,1.082,3.645,0c1.62-.361,1.215-.541-.81-.541C35.61,93.816,34.395,94,34.395,94.357ZM55.456,164a2.3,2.3,0,0,0,.81.18c.405,0,.81-.18.405-.18C56.266,163.635,55.456,163.635,55.456,164ZM22.244,138.919c-.81,0-1.215.361-.405.541.405.18,1.215,0,1.215-.361A2.3,2.3,0,0,0,22.244,138.919Zm78.171,33.2a2.3,2.3,0,0,1-.81-.18c0-.18-.405-.18-.81-.18-1.215,0-3.24.9-2.025,1.263s4.455-.18,4.455-.541S100.82,172.114,100.415,172.114Zm-7.7-7.577c-1.62.361-2.025.541-3.24.18-1.62-.361-2.025-.18-.81.9.81,1.082,2.43,1.624,4.455.9l1.215-.9-1.62.18c-1.62.18-2.835-.361-1.215-.541,3.645-.541,4.86-.9,4.05-1.082A10.174,10.174,0,0,0,92.719,164.537ZM83,168.686c-.81,0-2.025,0-2.025-.18-.405-.361-2.025-.361-2.025,0,0,.18-2.835.722-.405,1.443C80.568,170.671,83.809,168.686,83,168.686Zm36.858.541c-3.645,0-17.416,1.263-18.632,1.624s-.405,1.082,4.05.722c8.911-.722,14.176-1.985,15.8-1.985a10.263,10.263,0,0,0,2.025-.18C123.1,169.228,121.477,169.228,119.857,169.228Zm-35.238-3.067c-1.62.18-3.24.541-3.24.541-.405.361,1.215,1.082,4.05.541C89.074,166.882,88.669,165.8,84.619,166.161ZM57.887,164c0,.18.405.18,1.215.18s.81-.18.81-.18c0-.18-.81-.18-1.215-.18A2.3,2.3,0,0,0,57.887,164ZM23.054,139.821s0,.18.81.18.81,0,.405-.18A1.432,1.432,0,0,0,23.054,139.821Zm13.771,9.562a1.475,1.475,0,0,0,1.215.18c.405,0,.405-.18-.405-.361C36.42,148.841,36.015,149.022,36.825,149.382Zm18.227,15.7c.405.18-1.215.541,2.025.9a37.6,37.6,0,0,0,8.911-.9c1.215-.541-8.911-.18-8.911-.18C55.051,164.717,53.836,164.9,55.051,165.078Zm64.4-1.8c.405-.18-7.7-.18-8.506.18-.405.18.81.722,3.645.541A38.938,38.938,0,0,0,119.452,163.274Zm1051.062-5.052c0-.18,0-.18-.4-.18a2.3,2.3,0,0,0-.81.18c0,.18.4.18.4.18C1169.7,158.583,1170.108,158.4,1170.513,158.223Zm-307.42,2.345c0,.18,0,.18.405.18a2.3,2.3,0,0,0,.81-.18c0-.18-.405-.18-.405-.18C863.5,160.387,863.093,160.387,863.093,160.568Zm-61.16,1.985c.81-.18.81-.18,0-.18a7.964,7.964,0,0,0-1.215.18C799.908,162.913,800.718,162.913,801.933,162.552Zm-213.858-9.021c0-.18,0-.361-.405-.361-.81-.18-2.835,0-2.835.361A4.985,4.985,0,0,0,588.075,153.532ZM61.127,152.089c-.405-.361-.405-.361-1.62,0-.405.18-.81.541-.405.722.81.541,10.531.18,13.366-.541C75.3,151.187,61.532,152.449,61.127,152.089Zm-9.316,3.969H50.6q0,.271,1.215,0C52.216,156.238,52.621,156.238,51.811,156.058ZM66.8,149.563a38.139,38.139,0,0,0,4.05-.361c3.24-.18,2.43-.541-.81-.361-4.455.18-5.67.361-5.265.541C64.772,149.743,65.582,149.743,66.8,149.563ZM566.2,152.81a3.5,3.5,0,0,0-2.025.18c-.81.361-.81.361,1.215.361C567.824,153.532,568.229,153.171,566.2,152.81Zm3.24,2.526h7.291q1.823,0-1.215-.541a47.517,47.517,0,0,0-10.126-.18C562.153,154.975,563.773,155.336,569.444,155.336Zm-9.721-1.985c0,.18.81.18,2.025.18s1.62,0,.81-.18C561.343,152.991,559.723,152.991,559.723,153.351Zm15.8,0c0-.18-.405-.18-.405-.18-.405,0-.405.18-.405.18,0,.18.405.18.405.18Zm253.146,7.4c0,.18.405.18.405.18a2.3,2.3,0,0,0,.81-.18c0-.18,0-.18-.405-.18A2.3,2.3,0,0,0,828.665,160.748ZM52.621,75.594c-3.24,1.443,8.1,1.082,10.936.361s-8.506-.361-8.506-.361A5.192,5.192,0,0,0,52.621,75.594Zm-3.24,2.526c.81-.361,1.62-.9,1.215-.9-.405-.18-7.291-.541-3.645,1.624C47.356,79.022,47.761,78.842,49.381,78.12Zm1241.023,87.5a3.25,3.25,0,0,0-1.215.18c0,.18.4.18,1.215.18a3.251,3.251,0,0,0,1.215-.18C1291.618,165.619,1290.808,165.619,1290.4,165.619ZM56.671,77.759c-.405,0-.81.361-.81.541,0,.361,0,.361,1.215,0C58.292,77.759,57.887,77.4,56.671,77.759ZM45.736,95.8c0-.361-.405-.541-.81-.541-1.215,0-1.62.361-.81.722S45.736,96.342,45.736,95.8Zm3.24-1.443c-.81,0-2.025.18-2.43.18a2.3,2.3,0,0,0-.81.18c.405.361,3.24,0,4.05-.361C50.191,94.177,50.191,94.177,48.976,94.357Zm5.265-.18c0-.18-.405-.18-.405-.18-.405,0-.405.18-.405.18l.405.18C53.836,94.537,54.241,94.357,54.241,94.177Zm14.176.18H67.2a2.1,2.1,0,0,0,1.215,0Zm649.674,60.8.405.18c.4,0,.4-.18.4-.18,0-.18-.4-.18-.4-.18Zm32.4-.18c0,.18-1.62.18-2.835.18-2.025,0-2.43,0-2.43.18s1.62.361,4.455.361c2.43,0,4.455.18,4.455.18.405.18.81.18.81-.18S751.3,154.795,750.494,154.975Zm12.151.361-.4.18c0,.18.4.18.4.18.405,0,.405-.18.405-.18C763.05,155.336,762.645,155.336,762.645,155.336ZM72.468,61.522c2.025-1.263-3.645-.541-4.05-.361s-10.936-.361-5.265,1.082C63.152,62.063,70.443,62.6,72.468,61.522ZM704.32,155.336c0,.18.405.18,1.215.18,1.62,0,2.835-.541,2.025-.9C706.75,154.434,704.32,154.975,704.32,155.336Zm-10.936-1.082c-4.86-.18-8.911.18-7.291.541,1.215.361,14.986.18,16.2-.18,1.215-.18.81-.361-1.62-.361C699.46,154.434,696.219,154.254,693.384,154.254Zm72.5,1.082c-.81,0-1.215.18-1.62.18-.405.18,1.215.18,3.24.18a17.862,17.862,0,0,0,3.24-.18c0-.18-.81-.18-1.215-.18a5.871,5.871,0,0,1-2.025-.541c-1.215-.541-2.43-.361-1.62.361C766.7,155.156,766.29,155.336,765.885,155.336Zm34.023-.722c-1.215.18-1.215.361-.81.541,1.62.541,4.05,0,2.835-.541C801.528,154.254,800.718,154.434,799.908,154.614Zm-5.67.361c0,.18.405.361.81.361,1.215-.18,1.215-.722.405-.722C794.642,154.434,794.237,154.614,794.237,154.975ZM581.19,153.532c.405-.361-.81-.541-2.025-.361s-1.215.18,0,.361C580.785,153.893,581.19,153.893,581.19,153.532Zm192.391,1.263c0,.18.405.18.81.18a2.3,2.3,0,0,0,.81-.18c0-.18-.405-.18-.81-.18C773.986,154.434,773.581,154.614,773.581,154.795Zm7.291.18c0,.18.81.18,1.62.18,1.62,0,2.43-.361.81-.541A4.106,4.106,0,0,0,780.871,154.975Zm28.352,1.082c0,.18.405.18,1.215.18.4,0,1.215-.18,1.62-.18,0-.18-.405-.18-1.215-.18C809.629,155.7,809.224,155.877,809.224,156.058ZM614,155.7c.81,0,1.62-.18,2.025-.18.405-.18-.405-.18-1.62-.18a10.265,10.265,0,0,0-2.025.18C611.972,155.7,612.782,155.7,614,155.7Zm-28.757-.18c.405,0,.405,0,.405-.18,0-.361-2.43-.541-4.455-.361-1.215.18-1.215.18.81.361C583.62,155.336,584.835,155.516,585.24,155.516Zm7.7-1.624c4.05.18,6.076,0,6.076-.18s-.81-.18-2.025-.361a17.217,17.217,0,0,1-3.24-.18c-2.025,0-2.835,0-2.835.18C590.911,153.712,591.721,153.712,592.936,153.893Zm29.972,1.8s0,.18.81.18.81,0,.405-.18A1.432,1.432,0,0,0,622.908,155.7Zm-19.442-2.345c-.4,0-.81.18-.4.361.4.361,8.911.361,9.316,0C612.782,153.532,604.682,153.171,603.467,153.351ZM590.1,155.516a22.069,22.069,0,0,0,3.645.18h6.076a24.406,24.406,0,0,0,3.24-.18c0-.18-2.43-.18-4.86-.18a44.469,44.469,0,0,1-6.075-.18,3.775,3.775,0,0,0-2.025,0C588.885,155.156,588.885,155.336,590.1,155.516Zm35.643-1.8c-2.025.18,4.455.541,16.2.722,5.265,0,16.2.18,23.9.361,7.7,0,14.176.18,14.176.18a17.49,17.49,0,0,0,2.025.18c1.62,0,3.24-.541,2.025-.9C684.068,153.712,628.174,153.532,625.743,153.712Zm-17.416,1.8c0,.18.4.18.81.18a2.3,2.3,0,0,0,.81-.18c0-.18-.405-.18-.81-.18S608.327,155.336,608.327,155.516Zm9.721-1.8c-1.62-.361-4.455-.361-4.455.18,0,.18,1.215.18,2.835.18C619.668,154.073,619.668,154.073,618.048,153.712ZM1549.22,40.955c0,.18,0,.18.405.18a2.3,2.3,0,0,0,.81-.18c0-.18-.405-.18-.405-.18C1549.625,40.595,1549.22,40.775,1549.22,40.955Zm12.151-3.608c-.4.18,1.215.722,2.43.541a6.3,6.3,0,0,1,2.025.18c.81.361,12.556,1.443,15.391.361C1584.458,37.167,1561.776,37.167,1561.371,37.347Zm-9.316-.361a7.083,7.083,0,0,0,1.215.361c1.62.361,6.886.361,6.481,0A57.909,57.909,0,0,0,1552.055,36.986Zm-16.606,1.263c3.645-.18,4.455-.722,1.62-.722s-4.05.18-4.05.541S1533.828,38.43,1535.449,38.249Zm4.86-.541c-.81.18-.405.18.405.18a22.313,22.313,0,0,0,5.265-.541,22.52,22.52,0,0,0-5.265-.722c-.81,0-.81,0-.405.361C1541.119,37.347,1541.119,37.528,1540.309,37.708Zm42.933,9.562c-.4.18.405.361,1.62.361,1.62,0,1.62-.18.81-.361A5.442,5.442,0,0,0,1583.242,47.27Zm-5.67.18c0,.361,1.215.361,2.43.18a6.887,6.887,0,0,0,2.43-.541,3.8,3.8,0,0,0-2.43-.722C1578.382,46.548,1577.572,47.27,1577.572,47.45Zm27.542,2.165c-.405.18-.405.541,0,.722.81.722,3.24.722,3.24,0A3.967,3.967,0,0,0,1605.115,49.615Zm-88.3-29.407s0,.18.81.18.81,0,.405-.18S1516.817,20.028,1516.817,20.208Zm18.227,16.057a21.132,21.132,0,0,0-4.861,0c0,.18,1.215.361,2.43.361s2.43.18,2.835.18C1536.259,36.986,1535.854,36.445,1535.044,36.265Zm93.158,24.9c0-.18-.405-.18-.81-.18s-.81.18-1.215.18c0,.18,0,.18.81.18S1628.2,61.342,1628.2,61.161Zm7.291,29.587c-1.62,0-6.481.541-5.265,1.443.81.9,8.1,0,8.506-.361C1639.137,91.831,1637.112,90.749,1635.492,90.749Zm-14.176-25.438c-2.025.541-2.025.541,1.215.541,2.835,0,3.24-.18,2.43-.541Q1623.746,64.5,1621.316,65.311Zm5.265,34.1q-1.215,0-1.215.541t1.215.541q1.215,0,1.215-.541C1627.8,99.769,1627.391,99.409,1626.581,99.409ZM1503.856,36.626v.361c.405.361,8.1.361,8.1,0A57.9,57.9,0,0,0,1503.856,36.626Zm10.936-22.01c1.62.18,2.025,0,1.62-.361a6.3,6.3,0,0,0-2.025-.18C1512.362,14.074,1512.767,14.435,1514.792,14.615ZM1616.05,73.971c-.405-.361-2.835-.18-2.835.18a8.546,8.546,0,0,0,1.62.18C1616.05,74.331,1616.455,74.151,1616.05,73.971Zm-6.48-5.593c-.405.18-.405.18.4.361a25.344,25.344,0,0,0,5.266,0C1615.645,68.558,1610.38,68.2,1609.57,68.378Zm10.531.361c0,.18.81.18,1.62.18s.81-.18.81-.18c0-.18-.81-.18-1.62-.18A2.3,2.3,0,0,0,1620.1,68.739ZM74.088,58.094H72.873c-.405,0-6.886.18-4.05.9A9.242,9.242,0,0,0,74.088,58.094ZM1616.05,68.739c0,.18.81.18,1.62.18a7.963,7.963,0,0,0,1.215-.18c0-.18-.81-.18-1.62-.18A3.253,3.253,0,0,0,1616.05,68.739ZM91.5,31.574q-2.43-.541-2.43,0c0,.18-2.025.9,1.62.9C94.34,32.656,92.314,31.754,91.5,31.574Zm8.506,15.7H98.795q0,.271,1.215,0ZM85.429,52.321H84.214q-.608.271,1.215,0C85.429,52.5,85.834,52.321,85.429,52.321ZM95.15,30.672h-1.62c-.405,0-.405.9.405.9C95.15,31.574,95.96,30.672,95.15,30.672Zm676.811-25.8a5.247,5.247,0,0,0,1.62.361c.81,0,1.215-.18,1.215-.361s-.81-.361-1.62-.361S771.555,4.693,771.961,4.873ZM73.683,48.352a9.767,9.767,0,0,0,3.24,0c0-.18-.405-.361-1.215-.361C73.683,47.811,72.873,47.991,73.683,48.352Zm6.076,13.531c-2.43-.18-4.05.18-1.62.361,13.366,1.082,8.506-1.082,5.265-1.082-1.62,0-2.025,0-1.62.361C81.783,62.063,81.783,62.063,79.758,61.883Zm-4.05-16.237c0-.18-.81-.18-.81-.18l-.405.18c0,.18.405.18.81.18C76.113,46.007,76.113,45.826,75.708,45.646Zm-3.24,7.4c-.405.541.405.541,3.645-.18,0,0,4.86.361,5.67-.18C83,52.141,74.9,52.5,74.9,52.5,73.278,52.5,72.873,52.682,72.468,53.043ZM1538.689,22.553c-.405.18-.405.361.81.361s1.215,0,.81-.361A2.412,2.412,0,0,0,1538.689,22.553ZM764.265,4.152c-.81.18,0,.9,1.62.9s2.43-.9,1.62-.9A9.767,9.767,0,0,0,764.265,4.152ZM1523.3,13.713c0,.18.4.18,1.215.18s1.62-.18,1.215-.18c0-.18-.81-.18-1.215-.18A7.963,7.963,0,0,0,1523.3,13.713Zm25.112,2.345c0-.361-4.86-.9-8.506-.541-1.62,0-2.43.722-2.43.9.405.18,2.835.18,9.721,0C1547.6,16.239,1548.41,16.239,1548.41,16.059Zm-17.417.18c0,.18.81.18,1.215.18s2.025.541,3.24-.18c1.215-.9-2.835-.18-3.645-.18S1530.588,16.239,1530.993,16.239Zm31.188-.9a22.707,22.707,0,0,0-5.671.361c-.81.18-.4.18.81.18C1559.751,15.878,1562.181,15.517,1562.181,15.337ZM691.764,4.332c-2.43.361-2.43.361,6.075.361h8.506c1.215,0,2.025-.18,1.62-.361,0-.361,0-.361-5.265-.361C695.409,3.791,693.384,3.971,691.764,4.332Zm66.831.361c0,.18.405.361.81.361s.81-.18.81-.361-.405-.361-.81-.361S758.594,4.512,758.594,4.693Zm797.511,19.124c.4,0,.4-.18.4-.18,0-.18-.4-.18-.4-.18-.405,0-.405.18-.405.18S1555.7,23.816,1556.105,23.816Zm-6.481-7.938c0,.18,1.62.18,3.24.18a21.414,21.414,0,0,0,2.835-.18c0-.18-1.215-.18-3.24-.18C1550.435,15.517,1549.22,15.7,1549.625,15.878ZM68.822,75.414c-2.835,0-4.86.18-4.86.18,0,.361,7.291.361,8.506,0C73.278,75.414,72.063,75.414,68.822,75.414ZM1316.73,160.748a4.944,4.944,0,0,1-3.24,0c-1.215-.361-1.62-.361-2.43.18a5.247,5.247,0,0,1-1.62.361,9.383,9.383,0,0,0-2.025.18s-4.05-.18-4.456.361c0,.541,4.456.18,4.456.18a14.888,14.888,0,0,0,2.835,0c.81,0,2.43-.18,4.455-.18,2.835,0,3.24,0,3.24-.361s.405-.541,1.62-.541c.81,0,1.62-.18,1.62-.361A7.608,7.608,0,0,0,1316.73,160.748Zm-29.567.722c0,.18,1.215.541,6.48.18,1.215,0,9.721-.361,10.126-.541.81-.361-6.886-.541-8.506-.361a29.432,29.432,0,0,1-5.671,0c-.81-.18-1.215-.18-.81,0s0,.361-.405.361C1287.568,161.109,1287.163,161.29,1287.163,161.47Zm31.593,0,1.215.18a9.012,9.012,0,0,0,3.24,0c0-.361-2.025-.541-3.24-.361Zm-81.817.9c0,.18.81.18,1.215.18a2.3,2.3,0,0,0,.81-.18c0-.18-.405-.18-1.215-.18C1237.344,162.011,1236.939,162.192,1236.939,162.372Zm98.018-1.443c0,.361-2.835.541-3.645.18a28.175,28.175,0,0,0-6.48-.361c0,.18,0,.361-.405.722s0,.361,1.215.541c2.43.18,18.227,0,18.631-.18a8.644,8.644,0,0,0-3.645-1.263c-1.62,0-3.645.18-4.455.18C1335.362,160.568,1334.957,160.748,1334.957,160.929Zm-52.249.541c0-.18-.4-.18-.81-.18s-.405.18-.405.18c0,.18.405.18.81.18C1282.708,161.831,1283.113,161.65,1282.708,161.47Zm-32,.9c2.025,0,2.025,0,.81-.361a5.569,5.569,0,0,0-2.43-.18c-.81,0-2.025.18-3.645.18-2.835,0-4.86.18-4.455.541a15.254,15.254,0,0,0,3.645.18A48.208,48.208,0,0,1,1250.71,162.372Zm14.986-.361c0-.18,0-.361-.405-.361a7.748,7.748,0,0,0-3.24.361C1262.051,162.372,1265.291,162.372,1265.7,162.011Zm72.5-5.232c.405-.361-1.215-.541-2.025-.361-.4.18-.4.18,0,.361A1.993,1.993,0,0,0,1338.2,156.779Zm-59.135,4.871c-.405-.18-7.291-.722-9.721.18s6.481,0,7.291,0C1278.252,162.011,1279.467,161.831,1279.062,161.65Zm7.7-.541c0-.18-.81-.18-1.215-.18s-.81.18-1.215.18c0,.18.405.18,1.215.18A3.253,3.253,0,0,0,1286.758,161.109Zm114.219-1.8c.81-.18,0-.9-1.215-.9-.81,0-1.62.18-2.025.18C1397.332,158.944,1399.762,159.666,1400.977,159.305Zm-8.1-1.263a5.441,5.441,0,0,1-2.43,0c-1.215-.18-9.316.18-8.911.541a18.655,18.655,0,0,0,3.645.361c4.05,0,9.316-.18,9.721-.18s.81-.541,1.215-.722C1396.927,158.042,1394.9,157.681,1392.877,158.042Zm22.277.541c0-.18-1.62-.18-2.835-.18-2.025,0-9.721-.361-9.316.722S1415.559,158.944,1415.154,158.583Zm-31.592,2.165c-.81.18-.81.18,0,.361a3.774,3.774,0,0,0,2.025,0c1.215-.18,1.215-.361,0-.361A3.774,3.774,0,0,0,1383.561,160.748Zm46.174-3.969c-.4.18,0,1.263,1.215,1.263,4.86.18,1.215-1.082.4-1.263Zm-52.654,1.443a3.25,3.25,0,0,0-1.215.18c0,.18.81.18,1.215.18a3.249,3.249,0,0,0,1.215-.18A3.247,3.247,0,0,0,1377.08,158.223Zm-29.567,2.345c-1.215,0-1.215.541-.405.9s2.025.361,1.215,0c-.405-.18,8.506.361,9.721-.541S1348.323,160.568,1347.513,160.568Zm24.707.722a11.624,11.624,0,0,0-5.671.18c-.81.361.81.722,3.645.722C1373.84,162.011,1374.65,161.65,1372.22,161.29Zm2.43-2.706c0-.18-.81-.18-1.215-.18a7.96,7.96,0,0,0-1.215.18c0,.18.4.18,1.215.18S1375.055,158.764,1374.65,158.583Zm2.43,2.526c0,.18.405.18.405.18a2.294,2.294,0,0,0,.81-.18c0-.18,0-.18-.4-.18C1377.486,160.748,1377.08,160.929,1377.08,161.109Zm-140.141-3.789c-1.62,0-2.43,0-2.43.361,0,.18.81.361,2.43.361C1240.584,158.042,1240.179,157.5,1236.939,157.321Zm302.965,5.412c-.81.18-.81.18.405.18a8.545,8.545,0,0,0,1.62-.18C1541.929,162.552,1541.524,162.552,1539.9,162.733Zm-4.05.361s0,.18.81.18.81,0,.405-.18Zm10.126-.722a10.265,10.265,0,0,0,2.025.18,9.335,9.335,0,0,0,2.835-.361C1550.84,161.831,1546.79,162.011,1545.979,162.372Zm-91.538,4.871c3.24.18,13.366,0,14.581-.18.81-.18-1.62-1.082-8.1-1.082C1452.417,165.98,1449.581,167.063,1454.442,167.243Zm60.755-2.706c-.405.18,1.215.18,3.645.18,2.025,0,4.05-.18,4.05-.541C1522.487,163.635,1516.412,164,1515.2,164.537Zm-200.087,1.082c-.405,0,0,.541.81.541s1.215-.541.81-.541Zm130.826,1.082a18.97,18.97,0,0,0-2.43.18c0,.9,4.051.18,4.455,0S1447.556,166.7,1445.936,166.7Zm110.574-5.412a9.337,9.337,0,0,0-2.43.18c-.4.18,0,.361,1.62.18C1557.32,161.65,1557.725,161.47,1556.51,161.29Zm-32.4,2.887c-.405.18,3.645.18,6.48-.18s4.456-.722,2.835-.722C1530.588,163.274,1526.133,163.274,1524.108,164.176Zm37.263-3.428a4.237,4.237,0,0,0-2.43.541c0,.18.81.18,2.025.18C1563.8,161.29,1564.206,160.748,1561.371,160.748ZM1217.9,157.5c.405-.541.405-.722,0-.9-.81-.18-14.986.361-14.581.9C1203.726,158.223,1217.5,158.223,1217.9,157.5Zm-25.922.722a25.16,25.16,0,0,1,4.86.18c3.645-.18,4.05-.541,2.835-1.082a20.353,20.353,0,0,0-5.671.18,12.8,12.8,0,0,1-3.24.361c-1.215,0-2.025.18-1.62.361Zm42.123,4.149c0-.18-.4-.18-.81-.18s-.81.18-1.215.18c0,.18,0,.18.81.18A7.958,7.958,0,0,0,1234.1,162.372Zm-6.075.18c2.025,0,2.43-.361.81-.541s-4.051.18-4.455.541c0,.18,0,.361.81.18A11.154,11.154,0,0,1,1228.028,162.552Zm-69.261-4.33a8.544,8.544,0,0,0-1.62.18c0,.18.405.18,1.215.18a8.545,8.545,0,0,0,1.62-.18A3.252,3.252,0,0,0,1158.767,158.223Zm23.087.18q3.038-.271,1.215-.541c-1.215-.18-2.43,0-2.43.361C1180.234,158.4,1181.044,158.4,1181.854,158.4Zm383.972-.361c-1.215.18-2.43.541-2.43.9s-.81.361-2.025.361a29.194,29.194,0,0,0-4.86.541c-2.025.18-5.67.541-8.506.541a65.983,65.983,0,0,0-7.7.541c-5.265.722-33.213,1.985-47.794,2.345-5.265,0-10.126.18-11.341.18s-5.265.18-8.911.18c-4.051.18-7.291.361-7.7.361a5.191,5.191,0,0,1-2.43,0c-1.62-.18-18.226-.18-25.112,0a28.4,28.4,0,0,0-4.86.361c-.81.18-4.86.361-9.316.541-8.1.18-8.506.18-14.176.18h-17.822c-2.025,0-6.076,0-8.911.18-6.885.18-22.682.18-27.542,0-12.151-.361-14.176-.361-14.581,0s-.81.361-1.62.18a14.515,14.515,0,0,0-4.455-.18c-3.24.18-11.746.18-12.961.18-1.62.18,0-.541-7.7-.361-5.671,0-7.7.18-8.506.541s-3.645.541-3.24.18c0-.541,0-.541-.81-.361s-.81.18-1.215,0-5.671-.361-23.087-.18c-12.556,0-23.087.18-23.492.18-.81,0-.81.18-.81.361.4.361,0,.361-1.215.361-1.62,0-1.62,0-.405-.361.81-.361.81-.361-.405-.541h-24.3c-19.847.18-55.085.18-64,0h-13.771c-5.671,0-8.506,0-8.506-.18,0-.361,0-.361,2.835-.361,2.43-.18,14.986-.18,17.417,0,1.215,0,4.05,0,6.075-.18s14.176-.18,27.542-.361c30.377-.18,65.615-.541,83.032-.722,14.986-.18,34.833-.361,39.288-.361h5.671c.81,0,5.266,0,10.126-.18,4.86,0,10.531-.18,12.556-.18s5.265,0,7.291.18a20.985,20.985,0,0,0,6.075-.18c4.05-.541,6.886-.722,8.1-.361a40.854,40.854,0,0,0,8.506.541c.405,0,.81-.361,1.215-.541.4-.361.81-.541,4.86-.541,4.86,0,6.48,0,7.7-.361,1.215-.18,11.746-.722,20.657-.722,4.455,0,10.531-.18,13.771-.18,7.291-.18,19.441-.18,19.846-.18a9.385,9.385,0,0,0,2.026-.18,3.5,3.5,0,0,1,2.025.18c.81.18,1.215.18,1.62-.18.81-.541,1.62-.541,9.721-.541.81,0,1.62-.18,2.43-.18a14.121,14.121,0,0,1,3.645-.361c1.215-.18,3.645-.361,5.266-.541a81.007,81.007,0,0,1,10.531-.361,17.221,17.221,0,0,0,3.24-.18c2.025-.361.81.541-1.215.9-1.62.361-1.62.361-.405.541a5.441,5.441,0,0,0,2.43,0,26.732,26.732,0,0,1,4.456-.361c1.62-.18,3.24-.361,3.645-.361a2.493,2.493,0,0,1,1.62,0,27.452,27.452,0,0,0,8.506-.361c1.215-.18,7.7-1.624,4.05-1.443h-2.43c-3.645.18-8.1.18-10.936.18-3.645,0-10.531,0-14.986.18-7.291.18-24.707.361-34.428.361-2.025,0-4.861.18-6.886.18a6.085,6.085,0,0,1-2.835-.722c.4-.18,10.531-.18,23.492-.361,19.037-.18,23.492-.18,26.732-.541s4.05-.361,4.455-.18,1.62.361,5.265.18h7.7c2.43,0,24.707-1.082,26.732-1.263.405,0,2.835-.18,5.671-.361s5.265-.361,6.075-.361c.81-.18,1.215,0,1.215.18s-.405.361-1.215.361-1.215.361-1.215.541.81.361,4.05.18h4.05c0,.361-3.645,1.263-8.506,1.263-5.265,0-27.137,1.082-29.567,1.624q-1.215.271-1.215.541c0,.361,1.62.541,7.291.361,2.835-.18,10.126-.361,16.2-.541s11.341-.361,12.556-.541c.81,0,2.835-.18,4.455-.361,1.62,0,2.835-.18,2.835-.361,0-.361,4.05-.541,4.86-.18a16.292,16.292,0,0,0,4.455,0c5.265-.361,5.67-.361,5.67.18,0,.361.405.541,1.62.361C1568.661,157.14,1568.256,157.5,1565.826,158.042Zm-50.629-1.263c.81,0,1.215-.361.81-.361h-1.62C1513.982,156.418,1514.387,156.779,1515.2,156.779Zm-338.2,1.624a7.965,7.965,0,0,0-1.215-.18c-.81,0-1.215,0-1.215.18s.81.18,1.215.18S1176.994,158.583,1176.994,158.4Zm-324.432-2.526c-4.05-.18-12.151,0-13.366.18s-.81.18,2.025.361c6.076.18,13.366.18,12.961,0A2.149,2.149,0,0,0,852.562,155.877Zm140.952-1.082c0,.18.4.18.81.18a2.3,2.3,0,0,0,.81-.18,2.3,2.3,0,0,0-.81-.18C993.919,154.614,993.514,154.614,993.514,154.795Zm-2.835,0c-.405,0,0,.18.81.18s1.215,0,.81-.18Zm-31.188-.9c-.405,0-.405.18-.405.361s.405.18.81.18.405-.18.405-.361S959.9,153.893,959.491,153.893Zm9.721.18c0,.18.4.18.81.18a2.3,2.3,0,0,0,.81-.18c0-.18-.405-.18-.81-.18C969.617,153.712,969.212,153.893,969.212,154.073Zm284.738,7.938c0,.722,6.48-.18,7.291-.18s.81,0,.405-.18C1260.836,161.65,1253.95,161.29,1253.95,162.011Zm-271.777-7.216a3.775,3.775,0,0,0,2.025,0c1.215-.18.81-.361-1.215-.361C981.363,154.614,980.958,154.614,982.173,154.795Zm451.612-1.443c0,.18,0,.18.4.18s.81-.18,1.215-.18c0-.18,0-.18-.4-.18A1.475,1.475,0,0,0,1433.785,153.351Zm183.885-57.19c-.405.361,2.835.9,5.265.722,5.671-.541,4.05-1.263-.81-1.263C1620.1,95.62,1618.075,95.8,1617.67,96.161Zm10.936,0c2.43.722,2.025.722,3.24,0,.405-.361-.405-.541-2.025-.541C1626.986,95.62,1626.986,95.8,1628.606,96.161ZM1436.621,152.81c0,.18.4.18,1.215.18a8.547,8.547,0,0,0,1.62-.18c0-.18-.405-.18-1.215-.18A2.213,2.213,0,0,0,1436.621,152.81Zm144.192-3.969c0,.722,11.341-.361,12.151-.541.4-.18-.81-.722-.81-.722C1591.748,147.4,1580.813,148.12,1580.813,148.841ZM830.69,155.877c-2.835,0-4.861.18-4.861.18s1.62.18,3.645.361c5.265.18,5.265.18,5.67-.18S834.741,155.7,830.69,155.877Zm25.517-2.165c0-.18-.81-.18-1.62-.18a7.962,7.962,0,0,0-1.215.18c0,.18.81.18,1.62.18C855.8,154.073,856.208,153.893,856.208,153.712Zm100.043.541c0,.18.405.18.405.18.405,0,.405-.18.405-.18,0-.18-.405-.18-.405-.18S956.251,154.073,956.251,154.254Zm-137.306,2.165h2.835c1.215,0,2.43-.18,2.835-.18,1.62,0-1.215-.361-3.645-.541C818.134,155.7,817.324,156.058,818.944,156.418Zm28.352-2.706c0-.18-.405-.18-.405-.18-.405,0-.405.18-.405.18l.405.18C847.3,154.073,847.3,153.893,847.3,153.712Zm-32.4,2.345c1.215.361,1.215.361.81,0,0-.18-.81-.18-1.215-.18C814.084,155.7,814.084,155.877,814.894,156.058Zm106.119-1.624s0,.18.81.18.81,0,.4-.18Q921.013,154.163,921.013,154.434Zm27.542-.541a17.052,17.052,0,0,1-4.455,0c-2.025-.541-14.986.18-14.176.722.405.18,12.151.18,19.847-.18,4.05-.18,4.86-.18,4.455-.541C954.226,153.532,953.821,153.532,948.555,153.893Zm-37.263.541c0,.361.81.541,1.215.18,0-.18,0-.361-.405-.361C911.7,154.073,911.292,154.254,911.292,154.434Zm354-5.412-.405.18c0,.18.405.18.405.18.405,0,.405-.18.405-.18C1265.7,149.022,1265.291,149.022,1265.291,149.022Zm356.025-29.046c-2.43,0-6.48.361-4.86.9,2.43.722,7.7.361,7.7-.361C1624.151,120.156,1622.936,119.975,1621.316,119.975Zm-42.933,29.046c0-.18-.81-.361-2.025-.361s-2.43.18-2.43.361c-.405.18.405.361,2.025.361C1577.167,149.382,1578.382,149.2,1578.382,149.022Zm-9.721,11.185c-3.24.361-4.05.361-4.05.722,0,.18,3.24.18,6.886-.18a31.812,31.812,0,0,1,3.645-.361,5.245,5.245,0,0,0,1.62-.361C1577.167,159.846,1572.307,160.027,1568.661,160.207ZM95.555,150.826c0,.18.81.18,2.835.18,4.05-.18,4.05-.361.405-.361C96.77,150.465,95.555,150.645,95.555,150.826Zm1461.361,3.608q0-.541-1.215-.541a3.282,3.282,0,0,0-2.025.541q-.608.541,1.215.541C1556.105,155.156,1556.915,154.795,1556.915,154.434Zm6.886,1.443c2.025,0,3.24-.18,3.24-.361,0-.541-10.126-.18-11.341.361-.81.361-.405.361,2.025.18C1559.346,155.877,1561.776,155.877,1563.8,155.877Zm-12.151-.541c1.215-.18.81-.722-1.62-.722a7.157,7.157,0,0,0-3.24.541C1546.385,155.336,1549.625,155.516,1551.65,155.336Zm-53.465,2.526a19.9,19.9,0,0,0-4.455.18,10.265,10.265,0,0,0,2.025.18Zm-356.025-8.3c0,.541.405.722,1.62.18.81-.361.81-.722-.405-.722S1142.161,149.2,1142.161,149.563Zm419.21-123.582c.405.18,12.151-.361,13.771-.541a2.1,2.1,0,0,1,1.215,0c0,.361,2.43,1.443-.405,1.624-3.645.18-11.341,0-11.341.361s1.62.541,6.886.9c10.531.9,12.961,1.082,13.771,1.263a7.811,7.811,0,0,0,2.43.18,69.525,69.525,0,0,1,10.936,1.263c1.215.18,19.847-1.263,17.822,1.443-.405.541-.81.361-4.456.18-5.67-.361-27.137-.361-28.352,0a11.033,11.033,0,0,1-2.43.18c-.81,0-1.215,0-1.215.18s-.81.361-4.05.361c-2.43,0-4.86.18-5.67.18a9.384,9.384,0,0,1-2.025.18,5.245,5.245,0,0,0-1.62.361c-2.025.722-.81.9,6.076,1.082,13.366.361,25.517-.541,29.972.18,4.456.541,2.025,1.263,2.025,1.263l-2.835.18a25.68,25.68,0,0,1-5.265,0c-1.215-.18-7.7-.361-13.771-.361-6.481-.18-14.986-.361-19.442-.541s-10.126-.361-12.556-.361-6.481-.18-8.911-.18c-6.48-.18-17.011-.18-21.872,0-2.43.18-7.7.18-11.341.18a56.411,56.411,0,0,0-7.291.18c-.81.361-.405.722.81.541.4,0,.81,0,.81.18,0,.361-2.43.541-5.266.361a25.083,25.083,0,0,0-3.24.18c-2.43.18-2.43.18-1.215.541s6.886.361,24.3.541h9.721l.405.541c.4.541.81.541,1.62.541,3.24-.18,9.316-.722,13.366-.722,3.24,0,5.266.541,5.266.722s-1.215.361-2.43.361-4.455,0-6.481.18c-2.43,0-4.05,0-4.05-.18,0-.361-1.62-.18-3.24.18l-1.215.361,2.025.18c.81,0,2.835.18,3.645.18,2.025,0,2.43.18,2.025.541-.4.18-2.43.361-10.936.18-6.075,0-12.961-.18-15.8-.361-2.431-.18-5.671-.18-6.886-.18h-3.645c-1.215,0-1.62.18-2.025.541s-.81.541-6.885.541c-4.455,0-6.48.18-6.886.361,0,.18,1.215.361,4.86.361a41.145,41.145,0,0,1,6.481.361c3.645.9,10.936,1.263,23.087,1.624,10.126.18,19.846.541,20.657.9a48.315,48.315,0,0,0,6.481.18,64.833,64.833,0,0,1,7.291.18,8.479,8.479,0,0,0,1.62.18,1.475,1.475,0,0,1,1.215.18c.81.361,14.176,0,17.011-.18,2.025-.18,3.24,1.082,1.215,1.263-1.215.18-13.771.541-17.822.722-.81,0-.81.18-.405.18a47.75,47.75,0,0,0,4.861.361c2.43,0,4.86.18,4.86.361a7.48,7.48,0,0,0,2.835.361,18.961,18.961,0,0,1,3.645.541c.81.18,3.24.361,6.076.541,2.43,0,17.417-.361,21.467-.361a21.69,21.69,0,0,1,4.05.9c.405.361-4.86.541-14.176.722-7.291.18-8.911.18-8.911.722s2.43.9,9.316,1.082a52.613,52.613,0,0,1,9.316.541,61.874,61.874,0,0,0,6.481.361,40.474,40.474,0,0,1,4.05.18c0,.18-.4.18-.81.18s-1.215.541-2.025.541a56.009,56.009,0,0,0-6.481-.18c-4.86.18-6.481.541-4.86.9.81.18.81.361-2.43.541-2.025.18-3.24.361-14.176.541-8.911.18-9.316.18-10.936.9l-1.62.722s3.645,0,7.7.18c5.265,0,8.1.18,9.316.541a32.557,32.557,0,0,0,4.86.361,44.6,44.6,0,0,1,5.265.361,6.742,6.742,0,0,0,2.835,0c.81-.361,2.026-.361,2.026,0,0,.18-.405.361-1.215.361-1.215.18-.81.18.81.361,1.215.18,4.861.18,7.7.18,5.67,0,6.48,0,6.48.722,0,.361.81.361,5.266.361,10.126,0,9.721,1.8-3.24,2.165-4.456.18-10.531-.541-12.151.18-1.215.541-.405,1.263,1.62,1.624a23.143,23.143,0,0,1,2.43.541,9.333,9.333,0,0,0,2.835.361c2.025,0,2.43.361.81.722a22.733,22.733,0,0,0-3.645.722c-1.62.361-4.05.9-5.671,1.082-5.67,1.082-9.721,2.165-10.126,2.526a.7.7,0,0,0,.405.722c.405.361,2.025.361,6.481.18a55.554,55.554,0,0,0,7.291-.361c.81-.18,1.215-.18,1.215.18s1.215.722,3.645.9a8.391,8.391,0,0,1,2.43.361c.405.18,0,.361-1.62.361-2.43,0-2.835,0-2.025.722a1.639,1.639,0,0,1,.81.9c.405.361,7.291,0,8.911,0,2.835-.361,10.531-1.082,9.316.541-1.62,1.624-7.291.722-8.1.722-1.215,0-1.215,0-.405-.18.405-.18.81-.361.405-.361a8.527,8.527,0,0,0-4.05.722c-2.43.9-1.62,1.263,2.025,1.082a12.175,12.175,0,0,1,2.835,0c0,.361-.405,1.263-5.266,1.443-4.455.18-5.265-.722-6.48,0-.81.361-1.215.9-1.215,1.443,0,.361,0,.9-.405,1.082-.81.541-.405,1.082.81,1.082,1.62,0,14.986-.722,12.961.541s-11.746.18-12.961.18c-3.645-.361-4.86,1.263-2.025,2.526l1.62.722,13.771-.361.81.722c.81.722.405,1.263-1.62,1.443-1.215.18-1.62.722-1.215,1.263a20.337,20.337,0,0,0,6.076,1.443c1.62,0,3.24,1.082,1.215,1.263-3.24.361-11.341.18-14.986.361-4.05.18-4.86.722-3.24,1.985,1.215.9,2.43,1.082,4.86,1.082q1.215,0,1.215.541c0,.722,1.215,1.082,3.24.9.81-.18,1.62,0,1.62.18s-.81.361-1.215.361c-1.62.18-1.62.18-.81,1.263.4.541,1.215.722,2.43.722,2.43,0,2.835,0,3.24.361,0,.18-1.62.361-4.455.361-4.86,0-6.076.361-6.076,1.082s2.025,1.082,6.076,1.082c3.24,0,4.05.18,4.455.361,0,.18.81.361,1.215.361a7.978,7.978,0,0,1,2.025.361c.81.361.81.361-3.645.361s-7.7.361-7.7.722c0,0-2.025,1.624-1.62,2.165,3.645,3.067,15.8.18,14.986,2.345s-10.126,1.263-12.151,1.263a8.541,8.541,0,0,1-1.62-.18c0-.541-3.645-.361-4.861.18a4.261,4.261,0,0,1-2.025.541,16.644,16.644,0,0,0-2.43.361c-1.62.361-1.62.541-1.62,1.8-.405,1.8.4,2.165,4.05,1.985h2.835c0,.18,0,.722-.81,1.082-1.215.9-1.215,1.082-1.215,1.624,0,.18-.405.361-1.215.361-1.62.18-3.24,1.443-2.43,1.8,1.215.541.81.722-1.215.722-2.43,0-4.05.361-4.05.9,0,.361.4.361,2.835.18,4.05-.18,3.24,1.443-.81,1.8-2.835.18-8.911.361-7.291.361.405,0,.405.18,0,.361a3.381,3.381,0,0,0-1.215,1.443c-.81.9-.81,1.263,0,1.8s1.215.722,3.24.722c2.835,0,3.645.722,1.62,1.082-.81.18-1.62,0-2.025.361,0,.361-.81.9-1.215,1.082s-.81.722-.405,1.082c.405.541,0,.722-1.62.9s-2.026.541-2.43,1.082c0,.541-.81.9-1.62,1.082-2.025.361-2.835,1.263-2.43,2.165.405.722.81.9,2.025.9s1.62,0,1.62-.18.405-.18.405-.18c.4,0,8.1-1.082,8.1.361s-7.7,1.263-8.911,1.263c-2.835.18-4.455.18-4.455,1.443s.405,1.263-7.291,1.8c-1.62.18-3.645.361-4.05.722-.81.361-2.835.541-7.7.722-3.645.18-8.1.361-9.721.541-3.24.361-3.24.361-3.24,1.443,0,.9-.4,1.082-2.025,1.263a32.559,32.559,0,0,1-4.86.361,17.061,17.061,0,0,0-3.645.541c-.4.361-1.215.361-2.835.18-1.215,0-4.051,0-5.671.18a21.555,21.555,0,0,1-4.861,0,6.6,6.6,0,0,0-3.24.18c-.81.18-2.835.361-4.455.541-1.62,0-16.606.722-17.011.9a9.335,9.335,0,0,1-2.43.18,22.067,22.067,0,0,0-3.645.18,28.4,28.4,0,0,1-4.861.361c-2.025,0-6.481.18-9.721.18a48.318,48.318,0,0,1-6.481-.18c0-.18-2.835-.18-6.076,0-5.67.18-10.126.18-30.782.18-12.961,0-13.771,0-15.391.361a6.365,6.365,0,0,1-1.62.18s-5.265-.18-11.341-.18-12.556-.18-14.176-.361-6.886-.18-12.961,0c-9.721.18-12.151.18-16.606.18-1.215,0-8.911,0-17.822.18-8.506,0-29.567.18-46.984.361-17.012,0-32.808.18-34.833.18-4.455.18-43.743.18-51.034.18a60.028,60.028,0,0,0-6.481.18,15.225,15.225,0,0,1-4.051,0,40.259,40.259,0,0,0-4.86-.18c-1.215,0-4.05.18-6.075.18s-3.645.18-4.05.18a1.475,1.475,0,0,1-1.215-.18,1.038,1.038,0,0,0-1.215-.18,42.154,42.154,0,0,1-5.671.541c-4.455.18-5.67.18-6.481-.18-1.215-.361-1.62-.361-2.025-.18a4.974,4.974,0,0,1-1.62.18,4.973,4.973,0,0,0-1.62-.18c-2.025.18-19.036.18-19.036,0s-.81-.18-1.215,0a69.47,69.47,0,0,1-7.7.18c-10.936-.18-26.732,0-27.947.18a40.222,40.222,0,0,1-9.316,0,6.921,6.921,0,0,0-3.24-.18,48.318,48.318,0,0,1-6.481.18c-4.455,0-5.67,0-6.076.361-.81.361-.81.361-1.62,0s-1.62-.541-7.7-.361c-15.391,0-14.986,0-15.391.541a1.475,1.475,0,0,1-1.215.18c-.81-.18-28.352-.541-41.718-.361h-12.556c-1.62.18-8.505.18-13.771.18H968.808c-2.835,0-6.886,0-8.1-.18-.81-.18-7.291-.18-14.581-.18H908.863c-.81,0-9.316,0-19.037.18-21.467.18-46.984.18-79.387,0-13.366,0-25.112-.18-25.517-.18H760.215c-3.24,0-7.7-.18-9.721-.18-5.266-.361-42.934-.541-46.579-.18a25.6,25.6,0,0,1-5.266,0c-2.835-.361-51.844-.541-61.97-.18a47.894,47.894,0,0,1-7.7,0,9.684,9.684,0,0,0-3.24,0,5.192,5.192,0,0,1-2.43,0c-.405-.18-13.771-.18-18.227,0H559.318v1.082h-8.506c-4.455,0-8.911.18-9.316.18a4.883,4.883,0,0,1-1.62,0c-.405-.18-6.076-.361-13.771-.361-7.291,0-15.8-.18-19.442-.361-5.265-.18-6.886-.18-7.7.18-1.62.361-.81.9,1.62,1.263a5.033,5.033,0,0,1,2.025.722c.405.722,3.645.541,3.24-.18,0-.361.405-.361,2.835-.361a18.3,18.3,0,0,0,4.05-.361,5.333,5.333,0,0,1,2.835.18c1.215.361,2.43.361,5.266.18a20.535,20.535,0,0,1,4.86,0,13.6,13.6,0,0,0,4.05.18,8.241,8.241,0,0,1,2.43,0c0,.361-1.62.541-4.455.541-4.05,0-3.24.18,1.62.361,3.645.18,4.05.18,4.455-.361.405-.722,1.62-.722,3.24,0,1.215.361,1.215.541.81.18s0-.361,4.455-.541c17.821-.18,22.277,0,21.062.722-.81.361,0,.541,1.62.361.405,0,2.43,0,4.455.18,3.645.18,14.986.361,35.643.541a74,74,0,0,0,7.7-.18,5.568,5.568,0,0,1,2.43.18,4.817,4.817,0,0,0,2.835.18c1.62-.18,8.506-.18,19.036,0,3.24,0,6.886,0,7.7-.18a3.541,3.541,0,0,1,2.43.18,3.87,3.87,0,0,0,2.835.18,21.41,21.41,0,0,1,2.835-.18c1.62,0,2.43,0,2.43.361s.4.541,2.43,0c.81-.18,3.645-.361,9.721-.18h13.366c4.86,0,5.265,0,6.076.722s1.215.722,2.025.18a6.389,6.389,0,0,1,4.86-.722c1.215.361,2.835.361,6.481.18,6.481-.18,6.481-.18,11.746,0a94.451,94.451,0,0,0,10.126,0c7.7-.361,9.316-.18,10.531,0a9.334,9.334,0,0,0,2.43.18c.81,0,4.455-.18,8.1-.18,4.455,0,6.075,0,6.885.18a2.825,2.825,0,0,0,2.43,0c.405-.361,6.076-.541,8.1,0a41.168,41.168,0,0,0,8.1.18c.81-.361,11.341-.541,12.151-.18a17.053,17.053,0,0,0,4.455,0c4.86-.18,6.886-.18,6.886.361s1.62.722,2.025.18c.405-.361.81-.361,2.43-.18h2.43c.4-.361,8.911-.361,10.126,0a2.412,2.412,0,0,0,1.62,0c.81-.18,22.682-.18,24.3,0a9.383,9.383,0,0,0,2.025-.18,9.384,9.384,0,0,1,2.025-.18,4.973,4.973,0,0,0,1.62-.18,5.441,5.441,0,0,1,2.43,0,22.07,22.07,0,0,0,3.645.18c3.645-.18,14.986-.361,15.391-.18,0,.18,2.835.18,6.48,0,3.645,0,6.885-.18,8.1-.18,6.886,0,8.911,0,9.721-.361.405-.361.81-.361.81.18.4.722,2.835.722,2.835,0,0-.361.405-.541,3.645-.541a28.4,28.4,0,0,1,4.86.361,2.657,2.657,0,0,0,2.025-.18,2.678,2.678,0,0,1,2.835,0c.405.361,1.62.361,6.481.361,4.05,0,6.076-.18,6.481-.361.81-.361,2.43-.361,2.43,0,0,.541,1.215.361,2.43,0a4.269,4.269,0,0,1,3.645,0,6.3,6.3,0,0,0,3.24.18c2.43-.18,18.226-.361,29.972-.361,7.7,0,8.911,0,9.316-.361s.81-.361,2.025-.18a16.645,16.645,0,0,0,2.43.361c2.835,0,40.908-.361,49.819-.361,5.265,0,14.581-.18,20.656-.18,8.1,0,11.341-.18,11.341-.361.405-.361,4.455-.361,4.861,0a1.431,1.431,0,0,0,1.215,0,2.492,2.492,0,0,1,1.62,0,79.15,79.15,0,0,0,8.506.18c5.67,0,7.7,0,7.7-.361s.81-.361,1.62,0a35.109,35.109,0,0,0,3.645.361c5.265,0,26.732-.361,27.947-.541a3.5,3.5,0,0,1,2.025.18,2.536,2.536,0,0,0,1.62.18c.405,0,3.645-.18,6.886-.18s8.1,0,10.531-.18a59.928,59.928,0,0,1,8.1,0c2.43.18,3.645.18,4.05-.18a6.34,6.34,0,0,1,2.835-.18,36.154,36.154,0,0,0,8.1-.18,27.53,27.53,0,0,1,4.051-.18c2.835.18,23.492.18,31.188,0,3.24,0,11.746-.18,19.441-.18s15.391-.18,17.012-.18c2.025,0,8.506-.18,14.986-.18s12.151-.18,12.556-.361c.81-.18,29.162-.361,35.238-.361h8.1c4.86,0,7.7,0,10.936-.18a20.538,20.538,0,0,1,4.86,0,17.053,17.053,0,0,0,4.455,0c2.835-.18,3.24-.18,4.051.18s2.025.361,9.316.18c.4,0,1.215.18,2.43.18a5.439,5.439,0,0,0,2.43,0,3.775,3.775,0,0,1,2.025,0,30.728,30.728,0,0,0,6.886-.18,38.879,38.879,0,0,1,6.076-.18c.81.18,11.341.361,15.8.361h17.822c2.025,0,4.455,0,6.075-.18,2.025-.18,2.835-.18,2.835.18s2.43.541,9.316.722h6.075c1.215,0,10.126-.18,14.176-.361,9.721-.361,10.936-.361,11.746-.18.81.361,5.265.18,13.771-.18a54.019,54.019,0,0,1,7.7,0,51.521,51.521,0,0,0,5.671-.18,6.742,6.742,0,0,1,2.835,0c.405.18,3.24.18,8.911-.18,4.456-.18,9.316-.361,10.936-.18,1.62,0,6.075,0,10.531-.18a83.078,83.078,0,0,1,8.911-.18,9.338,9.338,0,0,0,2.43-.18c.81-.18,3.645-.361,6.075-.541,2.835-.18,6.481-.18,8.506-.361,2.835-.18,3.24-.18,2.835.18a25.488,25.488,0,0,1-2.835.361c-2.025,0-2.836.361-1.62.541s15.8-.541,21.467-1.082c2.835-.361,6.076-.541,6.886-.541s5.265-.361,9.721-.9c8.1-.9,15.391-1.263,15.391-.9,0,.541-1.62.722-6.076,1.082-2.835.18-5.67.361-6.886.541-2.43.18-8.506.722-20.657,1.624-5.67.361-8.1.722-14.581,1.624-1.215.18-4.456.18-7.7.18-6.481,0-21.062.18-22.277.361-.405,0-4.051.18-7.7.18s-9.721.18-12.961.361c-6.481.361-50.224.361-78.171.18-12.961-.18-14.176-.18-12.556.18s.405.361-11.341.18c-7.29,0-14.986-.18-17.011-.18s-10.126-.18-17.821-.18c-7.7-.18-15.391-.18-17.012-.361-2.025,0-7.7-.18-13.366-.361-7.7-.18-10.126-.18-10.936.18a2.412,2.412,0,0,1-1.62,0,1.431,1.431,0,0,0-1.215,0c-.81.361-3.645.361-3.645,0,0-.18-.405-.18-1.215-.18s-.81,0-.405.18c2.43.361-.405.541-10.531.541-20.656,0-29.162.361-30.377.722a2.536,2.536,0,0,1-1.62-.18c-.81-.361-.81-.361,0-.541a7.443,7.443,0,0,1,2.025,0c.405,0,1.215,0,1.215-.18.405-.18-.81-.18-4.05-.18-2.43,0-4.861.18-4.861.18-1.62.361-3.24.361-3.645,0-.405-.541-2.025-.541-4.05.18a4.573,4.573,0,0,1-2.43.361c-.4,0-.4-.18,0-.18a2.3,2.3,0,0,0,.81-.18c0-.361-2.43-.361-4.455.361-2.025.541-2.43.541-2.835.18s-1.62-.361-3.645-.361a13.129,13.129,0,0,0-3.24.18c-.405.18-25.517.361-41.314.361-4.86,0-8.506,0-8.506.18s-2.025.18-4.455.18c-5.266,0-55.085.361-57.515.361-.81,0-2.43-.18-2.835-.18a7.411,7.411,0,0,0-2.835,0c-2.025.541-14.176.541-16.2.18a2.493,2.493,0,0,0-1.62,0c-.405.18-4.86.361-11.341.18-.81,0-5.265,0-9.721.18-8.1.18-11.746.18-26.327,0a65.022,65.022,0,0,0-7.7.18,19.848,19.848,0,0,1-4.05.18,19.844,19.844,0,0,0-4.05.18c-.81.18-19.037.361-19.442.18s-6.48-.18-12.961-.361c-13.366,0-19.441,0-20.657.361a76.567,76.567,0,0,1-13.366.18,16.627,16.627,0,0,0-4.455.18,5.524,5.524,0,0,1-2.43,0,27.449,27.449,0,0,0-7.7,0c-.81.361-6.076.361-6.886.18-.81-.361-9.316-.361-10.531,0a6.976,6.976,0,0,1-2.835.18,152.35,152.35,0,0,0-15.8,0c-.405.361-6.481.361-21.872.18H865.119c-2.025,0-9.721,0-17.011.18-13.771.18-25.922.18-56.3.18-28.758-.18-38.883-.18-54.68,0-6.481,0-27.542-.18-32.4-.361a22.43,22.43,0,0,0-4.455.18c-.405.18-.81.18-2.43,0-2.43-.361-10.936,0-10.936.361,0,.18,3.24.361,7.291.361,4.05.18,7.7.18,8.1.18s.81.361.81.541c.405.722,2.43.9,15.391,1.082,5.671,0,13.771.18,17.822.361s8.506.18,9.316.18a8.393,8.393,0,0,1,2.43.361c.81.361,1.62.361,6.481.361,3.24,0,7.7,0,9.721.18,3.645.18,4.456.18,5.67-.18,1.62-.361,10.531-.541,10.531-.18,0,.18,1.215.361,2.43.361a10.874,10.874,0,0,0,3.645-.18c1.215-.361,2.025-.361,4.455-.18,1.62.18,4.05.18,5.266.361,1.215,0,4.455.18,7.7.361,8.1.361,17.822.541,28.352.541,9.721,0,30.378.18,34.833.361a24.92,24.92,0,0,0,5.265,0c.81-.18,8.506-.18,17.822,0,8.911,0,24.3.18,34.023.18,20.252.18,18.632,0,17.821.361a6.3,6.3,0,0,1-2.025.18,6.3,6.3,0,0,0-2.025.18c0,.18-1.62.18-3.645.18-3.24-.18-5.67.18-3.645.361a1.9,1.9,0,0,1,1.215.361c0,.18-.405.18-1.62.18a13.013,13.013,0,0,0-2.43-.18,3.126,3.126,0,0,1-1.215-.361c0-.18-.405-.361-.81-.361s-.405.18-.405.18c.81.541-.81.541-1.62.18-1.215-.722-9.721-.9-10.936-.361a4.066,4.066,0,0,1-3.24.18c-.405-.18-3.24-.361-9.721-.361-4.86,0-9.316-.18-9.721-.18a3.774,3.774,0,0,0-2.025,0c-.81,0-3.645.18-6.886.18-5.67,0-6.481.18-6.481.541,0,.18-.81.361-1.62.361-1.62.18-2.025-.18-.405-.541.81-.361.405-.361-4.455-.361-2.835,0-12.556,0-21.467-.18H828.261a7.159,7.159,0,0,1-2.835,0,113.01,113.01,0,0,0-11.746-.361c-16.2-.18-19.036-.18-24.707,0a40.809,40.809,0,0,1-6.886,0,10.235,10.235,0,0,0-4.05.18c-1.62.361-2.835.361-6.076.18-4.86-.361-14.986-.361-16.2,0s-4.05,0-3.645-.361c.405-.541-6.076-.9-6.886-.361,0,.18-1.215.18-2.43.18s-2.025-.18-2.43-.18c-.405-.361-4.05-.361-4.86,0a2.412,2.412,0,0,1-1.62,0,33.015,33.015,0,0,0-6.885-.18c-3.24,0-6.076,0-6.076-.18s-1.215,0-2.025.18c-1.62.361-2.025.361-6.076-.18a99,99,0,0,0-10.936-.361c-7.7.18-13.771.18-19.442,0-10.126-.361-11.746-.361-13.771,0-2.43.541-3.645.541-4.86,0-.81-.361-1.215-.361-2.835-.18-2.025.361-4.455.361-4.455,0,0-.18-2.835-.18-6.481-.18-10.531,0-22.277-.18-25.112-.361a7.676,7.676,0,0,0-3.24.18,9.335,9.335,0,0,1-2.43.18,37.163,37.163,0,0,0-4.05.18,11.952,11.952,0,0,1-4.455-.18c-2.025-.361-4.455-.361-9.316,0a3.38,3.38,0,0,1-1.62,0c.405-.18-1.215-.361-4.05-.361a8.547,8.547,0,0,0-1.62.18c0,.18-.405.18-.81,0a66.764,66.764,0,0,0-9.316-.361c-4.86,0-8.506-.18-8.911-.18a135.154,135.154,0,0,0-14.581.18,6.3,6.3,0,0,1-2.025-.18c-.81-.361-3.645-.361-12.556-.361-5.67,0-8.911,0-24.3-.541-10.531-.361-16.2-.361-17.821,0a29.163,29.163,0,0,1-5.265-.18c-2.43-.18-4.86-.361-4.86-.18-.405.18-14.176.18-20.252,0-17.821-.541-47.389-.722-48.6-.541a36.275,36.275,0,0,1-6.076.18c0-.18-3.24-.361-7.291-.361-6.075,0-16.2.18-17.821.361-1.215.18-1.62,0-1.62-.18s.405-.361.81-.361c.81,0,.4,0-.405-.18a3.5,3.5,0,0,0-2.025.18,4.945,4.945,0,0,1-3.24,0c-1.215-.361-10.126-.361-12.961,0a7.443,7.443,0,0,1-2.025,0c-.405-.361-4.455-.722-4.455-.361,0,.18-1.215.18-3.24,0h-4.05a2.492,2.492,0,0,1-1.62,0c-.405,0-.81,0-.81.18s-.405.18-1.215.18-1.215-.18-.81-.361c.405-.361.405-.361-7.291-.361a25.843,25.843,0,0,0-5.671.361c-.81.361-4.05.541-4.455.18,0-.18.4-.361,1.215-.361s0-.18-2.025-.18-5.265,0-7.291.18a19.777,19.777,0,0,1-4.86,0,34.7,34.7,0,0,0-6.481,0c-6.481.18-12.151.541-13.366.541-2.835,0-2.835-.722-2.025-.722a69.193,69.193,0,0,1,7.291-.18s5.265-.361,6.076-.9-2.025-.541-5.265-.541c-9.721,0-29.972,1.263-36.453,1.263-3.645,0-4.455.18-4.455.361s-.405.361-.405.361c-.405,0-.405-.18-.405-.361,0-.361-.4-.9-4.455-.361a17.022,17.022,0,0,1-4.05.18c-.405-.18-.81-.18,0-.18a2.3,2.3,0,0,0,.81-.18c0-.361-5.67-.18-6.481,0a1.432,1.432,0,0,1-1.215,0,7.159,7.159,0,0,0-2.835,0,25.6,25.6,0,0,1-5.265,0,20.989,20.989,0,0,0-4.86.18c-2.025.361-6.48.541-6.886.18-.405-.18.81-.18,2.43-.18,2.025,0,2.835,0,2.43-.361a15.257,15.257,0,0,0-3.645-.18c-2.025.18-4.455.18-5.265.18h-7.291c-7.291,0-16.2.18-17.416.541a52.111,52.111,0,0,1-6.481.18c-3.24,0-5.671,0-5.671.18s.405.361.81.541c.81.361.81.541-.4.541a8.547,8.547,0,0,1-1.62-.18,1.432,1.432,0,0,0-1.215,0c-.81.18-2.025.18-6.076,0-4.05-.361-5.265-.361-6.076,0-1.215.361-6.48.18-6.48-.18,0-.18-8.506-.18-18.632-.18-14.581,0-18.632,0-19.442.361a14.121,14.121,0,0,1-3.645.361c-4.86,0-17.416.541-21.467,1.082-2.43.18-5.67.541-7.291.541s-3.645.18-4.05.18a81.591,81.591,0,0,1-8.506.722c-1.62,0-2.835.18-2.835.361s-.405.18-.81.18a20.089,20.089,0,0,0-3.24.722,36.511,36.511,0,0,1-3.645.722c-.405,0-1.215.18-1.215.541-.405.722-.81.541-1.62-.18s-.81-.722.405-1.082a26.091,26.091,0,0,1,3.24-.541c3.24-.18,4.05-.722,3.24-1.624a3.231,3.231,0,0,0-1.62-.722c-1.215-.18-1.62-.722-.405-.9.81-.361.405-.9-.405-.9a3.252,3.252,0,0,1-1.215-.18c0-.18.81-.18,2.025-.18a7.809,7.809,0,0,0,2.43-.18c0-.18,0-.361-1.215-.18-.81,0-5.67.18-10.531.18-5.265,0-10.126.18-11.341.361-2.835.361-3.24.361-3.24-.18q0-.271,2.43-.541c1.215,0,4.455-.18,6.481-.361,2.43-.18,7.291-.18,10.936-.18,6.886.18,8.506,0,4.455-.722a60.711,60.711,0,0,0-7.291-.361c-10.936.18-19.442,1.082-23.9,1.082a9.011,9.011,0,0,1-4.05-.9c-.81-.361,2.025-.541,9.721-.722,4.86,0,10.936-.18,13.771-.18s6.076-.18,7.291-.18c2.025,0,4.86-.9,4.86-1.443s-11.746-.722-21.062-.9c-6.076,0-8.911.722-9.721,1.082-1.62.361-4.86-.722-3.24-1.263a20.535,20.535,0,0,1,7.7-.722c1.62.18,7.7.18,14.176.18l15.391-1.082a13.087,13.087,0,0,0,3.645-1.263c0-.361-2.835-.541-4.455-.361a5.44,5.44,0,0,1-2.43,0c-.81-.18-.405-.361.405-.722,2.025-.722.81-1.082-2.835-.722q-6.683.541-7.291,0c0-.18,1.215-.361,3.24-.541,2.835-.361,3.645-.361,3.645-.9q0-1.353-7.291-.541a50.926,50.926,0,0,0-5.67.722,14.644,14.644,0,0,1-3.24.541c-1.215.18-13.771,1.985-14.581,2.165-1.215.361-2.43.18-2.43-.361,0-.18.81-1.443,2.835-1.443,2.835,0,11.746-1.082,13.771-1.443,1.215-.18,1.215-.18.405-.361-1.62,0-.405-.541,1.215-.541.81,0,1.62-.18,2.025-.18.81-.541-1.62-.541-4.455-.18s-8.911.9-12.151.9c-1.62,0-3.24-.722-3.645-1.624a2.323,2.323,0,0,0-1.62-.9c-1.215-.18-1.215-.361-1.215-.722.405-.541,0-.541-2.43-.361a9.093,9.093,0,0,1-3.645-.18c-.81-.361-.81-.361,1.62-.361H42.9c1.215,0,2.43-.541,2.43-1.443,0-.541-.405-.722-2.43-.18-1.215.18-1.215.361-.81.541s.405.361-.405.361-1.215-.18-.81-.18c.405-.361-2.025,0-4.455.361a13,13,0,0,1-4.455.18c-.405-.361,1.215-.722,4.05-1.082a12.965,12.965,0,0,0,3.24-.722c-4.456.18-3.646-.18-3.241-.18.81-.18.81-.9,0-.9a2.3,2.3,0,0,0-.81.18c-.405.361-1.215,0-1.215-.361,0-.18.81-.361,2.43-.361a9.386,9.386,0,0,0,3.645-.541,8.434,8.434,0,0,1,2.025-.541c1.215-.18,2.025-1.263.405-1.263-.405,0-.81.18-.81.361,0,.541-1.215.722-5.265,1.082a25.255,25.255,0,0,0-4.05.722c-1.215.541-2.835.722-3.24.361,0-.18-2.835,1.082-4.05-.18-.81-1.263,2.835-.9,2.835-.9,1.62-.361,4.05-.541,5.265-.722,2.43-.361,3.24-.722,1.215-.541s-2.025-.361,0-.722c.81-.18,1.62-.361,1.62-.541-.405-.541-3.24-.541-7.7,0-2.43.18-4.05.361-4.455.361q-1.215-.541,3.645-1.082c2.835-.361,4.455-.9,2.835-.9-1.215,0-.405-.361.405-.541,2.025-.18,1.62-.722-.405-.9a12.389,12.389,0,0,0-3.645.18c-2.025.541-3.645.541-3.645.18a31.4,31.4,0,0,1,6.481-1.082c1.215,0,1.62-.361.81-.541-.81-.361-8.1.361-9.721.9a6.693,6.693,0,0,1-2.43.361c-.405-.18,0-.361,1.215-.722s1.62-.541,1.215-.9.405-.361,3.24-.361c4.05,0,5.265-.361,4.86-1.263,0-.361,0-.722.405-.9s0-.541-.405-.722c-.81-.361-.81-.361,0-.541,1.215-.18,4.455-1.8,4.455-2.165,0-.541-2.835-.361-9.316.541-4.455.722-5.265.722-6.886.541s-2.025-.18-2.835.18c-1.215.541-2.025.361-1.215-.361.405-.18.405-.722,0-1.263q-.608-1.624-3.645.541a8.075,8.075,0,0,1-3.24,1.263c-.81.18-8.1-1.8-5.67-3.428,1.62-1.082,9.316-.9,9.721-1.082,1.62-.541,13.771-1.263,16.2-1.443,2.025-.18,5.265-1.082,4.455-1.263l-3.24.361c-2.835.541-4.455-.361-3.645-.9.405-.361,5.265-.722,8.1-.722,2.025,0,4.05-.361,4.05-.722a2.519,2.519,0,0,0-2.025-.9c-2.835.18-22.682,3.247-21.062.9.405-.361,2.025-.722,5.67-1.082q3.038-.271,2.43-.541c-.405-.18.81-.361,4.05-.541a102.965,102.965,0,0,0,12.151-.722,25.256,25.256,0,0,0,4.05-.722,5.713,5.713,0,0,1,1.62-.541,3.126,3.126,0,0,0,1.215-.361c.405-.361.405-.361-.81-.361-.81,0-1.62-.18-1.62-.361s.81-.18,2.43-.18a5.49,5.49,0,0,0,3.645-.541c1.215-.541-3.645-1.624-4.455-1.624-.405,0-.81-.18-.81-.361.405-.361-.405-.361-1.215,0a1.432,1.432,0,0,1-1.215,0c-.405-.18-1.215-1.082,0-1.263.81-.18,11.341-1.263,15.391-1.8,5.265-.722,5.67-1.624,1.215-1.624-2.43,0-4.86-.361-4.455-.722a6.888,6.888,0,0,1,2.43-.541c1.215-.18,2.025-.541,2.025-.722s.405-.541,1.215-.9,1.215-.9,1.215-1.443V100.13H57.076c-1.215,0-2.43-.18-2.43-.361s-2.025-.361-5.265-.361c-5.265,0-6.481-.18-4.05-.722q1.215-.271,1.215-.541c-.405-.361-4.05,0-7.7.541-2.025.9-2.025.9-2.025.541s2.43-1.263,4.86-1.8c1.215-.18,6.076-.722,13.366-1.263A38.138,38.138,0,0,0,59.1,95.8c1.215-.18,4.86-.361,8.1-.722a53.127,53.127,0,0,0,8.1-.9,15.148,15.148,0,0,1,3.645-.541c.405,0,0-.18-.81-.18a22.1,22.1,0,0,0-3.24-.18c-.81,0-3.24.18-6.076.18-4.455.18-4.86.18-6.076.722s-1.62.722-4.05.541q-4.253,0-3.645-1.082c.405-.361-2.835-.541-8.911,0-2.43.18-4.455.18-4.86.18-.405-.18.81-.9,2.025-.9a7.715,7.715,0,0,0,2.43-.541,41.343,41.343,0,0,1,5.67-.9c2.43-.361,19.847-1.263,24.707-1.443,2.835,0,2.025-1.082,2.025-1.263,0-.361-13.366,0-16.2.541-2.835.361-6.481.361-6.481,0,0-.18.81-.18,2.025-.361,2.43,0,2.835-.361,1.215-.9a9.386,9.386,0,0,0-3.645-.541,18.966,18.966,0,0,1-2.43-.18c0-.361,2.025-1.082,3.645-1.263a12.931,12.931,0,0,1,2.025-.361c.405-.361-4.86-.18-10.936.361-2.835.18-4.455.18-5.265.18-2.025-.361-1.62-.9.405-.9,1.62,0,2.835-.722,1.215-.722-1.215,0-1.62-.541-.81-.9a4.964,4.964,0,0,0,1.62-1.263c.81-1.082.81-1.082,4.86-1.443,2.025-.18,5.265-.541,6.481-.722a6.742,6.742,0,0,1,2.835,0c0,.18.81.18,1.215.18s8.911-.18,18.632-.18c10.936,0,18.227-.18,19.037-.361,2.43-.361.81-.722-4.05-.722a25.16,25.16,0,0,1-4.86-.18c-.405-.18-.405-.361-.405-.361s1.215,0,2.835-.18a23.9,23.9,0,0,0,4.455-.541c2.025-.541,2.025-.541.405-.722-.81,0-6.481-.18-12.151-.18a113,113,0,0,1-11.746-.361c-1.215-.361-1.215-.361,6.481-.361,3.24,0,7.291-.18,8.911-.361,2.025-.18,6.886-.361,11.746-.361h8.1v-.722c.405-2.165-8.911-.9-12.556-.9-2.835,0-5.67.18-6.481.18a5.085,5.085,0,0,1-2.43-.18,6.3,6.3,0,0,0-2.025-.18,3.874,3.874,0,0,1-1.62-.18,6.3,6.3,0,0,0-2.025-.18,19.523,19.523,0,0,1-3.24-.18c-.81-.18-5.67,0-10.531.18s-10.531.361-12.151.361c-2.835,0-2.835,0-2.835-.722s-3.24.541-10.126,1.082c-3.24.361-3.24-1.082-2.835-1.624,0-.18,1.215-.18,2.025-.18,4.455.18,13.366-1.263,14.581-2.165s.405-.9-4.05-1.082c-4.05-.18-5.265.722-10.936,1.624C38.85,70.9,37.23,70,36.825,70c-.81,0-.405-.722,0-.722a30.535,30.535,0,0,0,4.05-.361c1.62-.18,5.67-.361,8.911-.361h6.076l1.62-.9c2.835-1.443-10.126-.722-10.936-.541a1.086,1.086,0,0,1-.81,0c0-.18-2.43-1.985,6.481-1.985,6.886,0,11.341.541,13.366.361,2.43-.361,9.721-.541,22.682-.722,4.86,0,9.316-.18,10.531-.361,2.835-.361,3.645-1.263,2.835-2.526l-6.076-.9H83.4c-5.265,0-6.886.18-7.291.361-.405.541-2.43.361-2.43-.18s2.835-1.443,13.771-1.624c8.1,0,16.2-1.082,15.391-1.443,0,0-3.645-.18-8.1-.18-6.481,0-8.1,0-9.721-.541-2.835-.541-6.075-.722-6.075-.18,0,.361-1.215,1.263-3.24,1.263-1.215,0-.81-.722.405-1.082a2.873,2.873,0,0,0,1.215-.541c-.405-.18-5.265-.722-10.126-1.082-1.215-.18-1.62-.18-1.62-.541,0-.18,0-.541-.405-.541s-.405-.361-.405-.541c.405-.361.81-.361,5.67-.361h9.721a22.629,22.629,0,0,1,5.265,0c.81.361,23.9.361,23.9.18s-.405-.18-.405-.18c-.405,0-.405-.18-.405-.18,0-.18.405-.18.405-.18.81.18,2.835-.18,2.835-.541,0-.722-2.025-.9-7.7-.722s-8.506-.18-4.05-.541c2.43-.18,2.43-.18,1.215-.541s-3.645-.361-8.911,0c-2.025.18-2.025.18-.81-.18s.81-.361-4.05-.541c-2.835-.18-5.67-.361-6.481-.541s-2.43-.361-3.24-.541c-2.43-.18-1.62-.722,1.215-.541a15.105,15.105,0,0,0,3.24-.18c1.62-.361,17.821-.361,20.657,0a18.406,18.406,0,0,0,4.455,0c1.215-.18,4.455-.361,7.7-.541,9.721-.361,11.341-.541,14.176-1.082s3.645-.9,2.43-.9-17.822-.18-20.252-.18h-4.86c-4.86,0-24.3.541-25.112.722a2.115,2.115,0,0,1-2.025-.361c-.405-.361-.81-.722-.81-1.082.405-.722,0-.722-13.771-.722-12.961,0-19.847.361-21.872.9a3.91,3.91,0,0,1-2.43.18c-1.215-.541-.81-.9.81-1.082.81,0,2.43-.361,3.645-.361,1.215-.18,8.1-.361,17.821-.361,25.922,0,44.959-.361,46.984-.9.81-.18,2.835-.361,4.86-.541,9.721-.9,9.721-1.263-.405-1.263-5.67,0-8.506-.18-10.531-.361a25.725,25.725,0,0,0-5.265-.18c-1.62,0-6.481.18-11.341.361-8.1.18-17.416.361-15.8-.9s6.075,0,6.075,0c10.126,0,10.936,0,10.531-.541-.405-.18,0-.361.81-.18a27.553,27.553,0,0,0,3.645-.18,78.307,78.307,0,0,1,8.1-.361,37.238,37.238,0,0,0,6.481-.361,15.632,15.632,0,0,1,4.05-.361,26.728,26.728,0,0,0,4.455-.361c1.215-.361,1.215-.361-.81-.541a21.06,21.06,0,0,0-2.835-.361,2.9,2.9,0,0,1-1.62-.541c-.405-.361-1.215-.541-2.835-.541-3.645,0-7.291-.361-7.291-.541s.405-.361,1.215-.361c.405,0,2.025-.18,3.24-.361,2.025-.18,2.025-.18,1.62-1.263-.81-1.624-2.025-1.985-4.05-2.165,0,0-7.7,1.082-7.291,0,.405-.9,7.291-.541,7.291-.541.81,0,1.62-1.082,1.215-1.263,0-.18-4.455-.18-10.936-.361-8.911,0-11.341,0-14.176.361-3.645.541-6.481.361-7.7-.18-.405-.361-.405-.361.405-.722.405-.18.81-.541.81-.722,0-.722,1.215-2.345,8.506-2.345,5.67,0,8.911,1.443,7.291,1.624a51.349,51.349,0,0,1-5.265.18c-1.62,0-3.24.18-3.24.18-.405.361,19.442.18,20.252-.18q.608-.271,0-.541a1.5,1.5,0,0,1-.81-1.263,4.143,4.143,0,0,0-.81-1.985c-.405-.541-.81-1.082-.405-1.263,0-.18-.405-.541-1.62-.722-2.025-.361-13.771,0-10.936-1.624s13.366-.18,14.176-.541a5.813,5.813,0,0,0,1.62-1.443c0-.361.405-.9.405-1.082a16.245,16.245,0,0,1,4.455-2.706c2.43-.9-7.7.18-11.341-.722s-.405-1.082.405-1.082c1.62,0,15.8-.541,15.391-.9,0-.18,0-.361.405-.361a.828.828,0,0,0,.81-.722c0-.541,2.025,0,3.645-.18.81-.18,1.215-.18,1.215-.361a18.454,18.454,0,0,1,6.481-2.345c1.62-.361,4.455.361,22.277,0,8.1-.18,14.176-.361,16.2-.722,1.62-.18,6.481-.541,11.341-.541,6.886-.18,10.936-.361,12.151-.9l.81.361c.81.361,1.215.541,4.86.361,7.7-.361,10.126-1.985,10.126-2.345,0-.18,1.62-.361,5.265-.361,8.506,0,46.579-.361,49.414-.541,1.215,0,7.291-.18,12.961-.18a108.588,108.588,0,0,0,11.341-.361,37.436,37.436,0,0,1,5.671-.18h6.076c.81,0,3.645,0,6.886-.18,3.24,0,10.126-.18,15.391-.361S323.589.9,324.4.9s4.455,0,8.911-.18c8.1-.361,14.986,0,24.707-.18,3.645,0,8.506-.18,10.531-.361,2.43,0,13.366-.18,24.707-.18,19.847,0,20.657-.541,22.277,0s2.025.541,7.291.361c3.24,0,6.886-.18,8.911-.361,1.62,0,4.455,0,6.076.18,4.455.541,10.126.541,9.316,0-.405-.361,4.86-.541,10.936-.361,2.835,0,5.67.18,6.076.18s2.025-.18,3.24-.18a38.781,38.781,0,0,1,6.481,0c2.025.18,5.265.18,7.7.361,3.645.18,4.05,0,5.265-.541s2.025-.541,4.86-.541a28.4,28.4,0,0,1,4.86.361c1.62.361,4.05.541,4.05.18,0-.541,2.835-.541,6.076-.18,3.645.361,9.721.541,11.341.18a7.41,7.41,0,0,1,2.835,0,7.41,7.41,0,0,0,2.835,0,9.431,9.431,0,0,1,3.24,0,15.283,15.283,0,0,0,4.86-.18,12.775,12.775,0,0,1,5.266,0c1.62.18,6.075.361,20.657.18,28.757-.18,125.56-.18,129.611,0,2.025.18,5.67.18,8.1.361,14.581.361,20.252.361,22.682.361h32c.405,0,6.481,0,12.961.18S782.9.724,792.212.9c21.467.18,40.5.361,40.908.541,0,0,0,.361-.81.541-1.215.361-6.886.361-23.9,0-3.645,0-19.847-.18-36.048-.361-25.517-.18-40.908-.361-43.744-.361-.405,0-3.24,0-5.67.18-4.86.18-6.075.18-10.936,0a6.34,6.34,0,0,0-2.835.18c0,.18-.81.18-1.215.18-.405-.18-7.291-.18-15.391-.18-13.366,0-14.581.18-16.2.541a12.9,12.9,0,0,1-4.455.541,31.264,31.264,0,0,0-6.076.361,23.445,23.445,0,0,1-2.835-.18c-3.645-.361-55.895-.541-57.11-.18-.81.361-5.265.361-29.568.541-11.746,0-22.682.18-24.3.18-1.215,0-3.645,0-5.265.18a8.646,8.646,0,0,0-3.24.361c-.81,1.082,4.455,1.624,6.075.722,1.215-.541,2.025-.541,5.266-.18a94.808,94.808,0,0,0,12.556.9,22.271,22.271,0,0,1,4.05.18c.81.18,20.252.361,59.135.361,32,0,73.716.18,93.563.18,19.441,0,41.718.18,49.819.18,7.7,0,14.581.18,15.391.18a24.415,24.415,0,0,0,3.645,0,21.892,21.892,0,0,1,4.86,0c2.43.18,12.556.361,19.442.18h16.2c8.506,0,17.821,0,21.062-.18,10.126-.361,57.11-.541,83.032-.541h18.227c3.24,0,6.481,0,7.7.18a12.258,12.258,0,0,0,3.645,0,19.959,19.959,0,0,1,4.861-.18h46.579s6.481.18,14.581.18h27.137c2.835,0,6.075,0,7.7-.18,1.62,0,4.86,0,7.291.18s6.48.18,8.911.18c12.961-.18,31.188,0,47.794.361,5.67.18,35.238.361,47.794.361,1.62,0,18.632-.361,23.9-.361a19.962,19.962,0,0,0,4.455-.361,1.432,1.432,0,0,1,1.215,0c.405.18,4.861.18,9.721.361,5.266,0,12.556.18,17.012.18,18.631.541,23.9.541,45.769.722h10.531c.81,0,18.631,0,39.693.18,37.263,0,71.286.361,91.943.541,16.606.18,71.691.18,81.007,0,4.455-.18,34.023.18,34.023.18a36.922,36.922,0,0,0,7.291.722,20.748,20.748,0,0,1,4.86.541,7.479,7.479,0,0,0,2.835.361c8.506,0,9.721,0,9.721.18,0,.361,4.05,1.443-8.1,1.624-8.1,0-17.821-.722-19.037-.541-1.215.361-1.62.361-2.025,0s-8.1-.541-14.176-.361l-3.645.18,2.025.541c1.62.541,1.62.541.81.722a9.386,9.386,0,0,1-2.025.18c-.81,0-.81,0-.405-.361.81-.541,0-.722-3.645-.541-2.025,0-2.835.18-2.43.361,0,.18-.405.361-.81.541-.81,0-1.215.18-1.215.361s-1.215.18-2.43.361a25.472,25.472,0,0,0-4.051.361c-1.215.18-1.62,0-1.62-.361a3.208,3.208,0,0,0-2.835-.361c-.405.361,1.215,1.082,2.43.9h1.215c.405.361,8.1,0,17.822,0,5.67,0,9.721.541,9.721.722.81.541-16.2.722-24.3.361-4.05-.18-22.682-.361-23.9-.18-2.025.361,0,.541,6.481.722,13.771.541,26.732,1.443,26.732,1.8,0,.18-.405.18-.81.18-5.67.18-9.316.361-9.316.9,0,.361,6.48.9,12.961,1.082,2.835,0,5.265.18,5.265.361s-.81.18-1.62.18-1.62.18-1.215.18c.4.361,4.05.722,8.911.722,2.43,0,6.481.18,9.721.361,2.835.18,7.291.361,9.721.361s4.86.18,5.265.18c3.645.361-4.05.9-14.581.9h-6.075l1.62.722a8.878,8.878,0,0,0,4.455.9c1.62,0,3.24.18,3.645.18a83.981,83.981,0,0,0,8.911-.18Zm-58.73-6.495c.81,0,1.62-.18,2.025-.18a2.294,2.294,0,0,0,.81-.18c0-.361-2.025-.361-3.24.18C1501.021,19.667,1501.021,19.667,1502.641,19.486ZM709.99,4.512c.81.361.405.361,2.835,0,2.025-.361,1.62-.722-1.215-.722C709.99,3.791,709.18,3.971,709.99,4.512ZM119.452,38.43c0-.18,0-.18-.405-.18a2.3,2.3,0,0,0-.81.18c0,.18.405.18.405.18A2.228,2.228,0,0,0,119.452,38.43Zm-8.911,12.088c0-.361-4.86-.361-5.67,0-.81.18-.405.361,2.43.18C108.921,50.7,110.541,50.517,110.541,50.517Zm2.43,0c0,.361,3.645.361,4.05,0,0-.18,0-.361-.81-.361C115,49.976,112.971,50.156,112.971,50.517ZM104.06,78.3c2.835-.541,2.025-.9-2.43-.9-3.24,0-3.645,0-3.645.541C97.985,78.661,100.82,78.842,104.06,78.3Zm36.453,70.9c.81-.722-2.43-.9-6.481-.9-8.506,0-22.277.9-23.087,1.082-.405,0-2.43.18-4.86.18-6.076,0-13.771.361-13.771.722,0,.18-3.24.9-2.025,1.263,2.43.722,7.291.18,13.771-.361,2.025-.18,4.05-.361,4.86-.361,2.025,0,14.176-.541,19.037-.722,2.025-.18,5.67-.361,8.1-.361C138.083,149.563,139.3,149.924,140.513,149.2Zm19.847-.722c-2.025-.361-4.455-.361-5.265.18-.81.361.81.722,3.645.722C161.98,149.2,162.79,148.841,160.36,148.48Zm-10.531.18c-.81-.541-5.265-.541-6.481.18-.405.18.81.361,3.24.361S150.234,149.022,149.829,148.661Zm-6.076-106.8a34.7,34.7,0,0,0-6.48,0c-3.24.18-6.886.18-8.506.18-2.835-.18-4.455,0-4.455.361,0,.18,1.215.361,5.265.361.405,0,3.645,0,6.481-.18C143.349,42.4,144.969,42.218,143.754,41.857ZM557.7,155.7a21.414,21.414,0,0,0,2.835-.18c0-.361-4.05-.361-5.265,0C555.268,155.7,555.673,155.7,557.7,155.7Zm-6.481,0c1.62,0,2.43-.18,2.43-.361s-.405-.361-1.62-.18C548.787,155.336,548.382,155.7,551.217,155.7Zm-12.556-.18c.405.18,1.215.18,1.215-.18a2.3,2.3,0,0,0-.81-.18C538.661,155.336,538.256,155.336,538.661,155.516Zm-17.821-.18c1.215.361,2.43,0,1.62-.361a2.492,2.492,0,0,0-1.62,0C520.03,154.975,520.03,155.156,520.84,155.336Zm-11.746-.361c0,.18.81.18,1.62.18a8.546,8.546,0,0,0,1.62-.18c0-.18-.81-.18-1.62-.18A4.6,4.6,0,0,0,509.094,154.975ZM739.558,4.332c0-.361-19.442-.361-19.442-.18s-.81.18-1.62.18-1.62.18-1.62.361c-.405.361,0,.361,1.62.18.81-.18,18.632.9,21.872.361C743.608,4.512,739.558,4.332,739.558,4.332Zm749.717,33.376c0-.18,0-.18-.405-.18s-.81.18-1.215.18c0,.18,0,.18.405.18S1488.87,37.708,1489.275,37.708ZM1358.449,149.2c-.405-.18-17.822-.361-18.227-.18a32.457,32.457,0,0,1-4.455,0c-2.025-.18-8.506-.361-14.176-.361s-10.531-.18-11.341-.361c-1.215-.18-34.023-.18-75.336,0-30.783.18-41.313.361-42.123.541a9.386,9.386,0,0,1-2.025-.18,3.774,3.774,0,0,0-2.025,0c0,.18-2.43.18-4.86.18s-5.671.18-6.886.18c-2.025.18-2.43.18-2.43-.18,0-.541-1.62-.722-6.886-.541h-20.657c-3.24.18-6.481,0-6.886,0a9.684,9.684,0,0,0-3.24,0c-1.215.18-5.265.361-8.911.361-6.48,0-6.48,0-6.075.541s.405.541-2.835.541c-3.645-.18-6.481-.361-7.291-.541-2.025-.541-8.506-.361-9.316.361-.405.361-5.67.541-8.1,0-1.62-.18-2.025-.18-2.835.18a9.333,9.333,0,0,1-2.835.361c-6.076,0-7.7,0-8.1.361,0,.18-.81.361-1.215.361s-.81.18-.81.361,2.835.361,14.177.18c7.7,0,16.2-.18,18.631-.18s6.886-.18,10.531-.18c4.05,0,6.886,0,8.1.18a5.191,5.191,0,0,0,2.43,0,9.432,9.432,0,0,1,3.24,0c2.835.18,4.455.18,4.455-.361,0-.18.405-.18.81,0,.81.361,1.62.361,13.366.541H1177.8c2.025,0,5.265-.18,7.291-.361,6.48-.722,9.721-.9,10.531-.722.81.361,5.265.361,8.1,0,4.05-.541,11.341-.541,13.366,0a43.02,43.02,0,0,0,6.076.361c6.885,0,14.581-.361,15.8-.541a11,11,0,0,1,3.645,0,18.066,18.066,0,0,0,4.455,0c2.835-.541,5.671-.541,6.481,0,.81.361,1.62.361,6.885.361,4.456-.18,6.076-.18,6.886-.722,1.215-.541,1.62-.541,8.505-.361,4.05.18,7.7.361,8.1.361.81.18,12.556.18,16.606-.18a9.413,9.413,0,0,1,4.05.18,3.809,3.809,0,0,0,2.835,0,4.972,4.972,0,0,1,1.62-.18c.405,0,4.861.18,10.531.18s12.151.18,14.581.361a87.274,87.274,0,0,0,9.721,0,31.106,31.106,0,0,1,6.075,0c.405,0,1.215,0,1.215-.18s1.62-.18,3.24-.18C1357.234,149.743,1359.259,149.382,1358.449,149.2Zm6.48.361c0-.361-2.43-.541-3.645-.361-.81.18-.81.18.4.361C1363.309,149.743,1364.929,149.743,1364.929,149.563Zm10.531-.18c-1.215-.18-8.911,0-8.911.361,0,.722,4.455.722,8.1.18C1375.865,149.743,1375.865,149.563,1375.46,149.382ZM1413.533,16.6c-1.215,0-8.1-.18-14.581-.361-25.922-.722-55.895-1.263-57.515-.722a9.384,9.384,0,0,1-2.025-.18,36.387,36.387,0,0,0-5.67-.361c-2.025,0-5.67-.18-7.7-.361-3.645-.18-4.05-.18-5.67.361a4.573,4.573,0,0,1-2.43.361c-1.62-.541-5.67-.722-8.505-.541a48.832,48.832,0,0,1-7.291,0c-2.43-.18-9.316-.361-14.986-.361-11.746-.18-19.441-.541-21.872-.9-2.025-.361-7.7-.361-9.316.18-.81.18-4.05.18-11.341,0-15.8-.361-26.732-.541-27.137-.18,0,.18.405.18.81.18a2.128,2.128,0,0,1,1.62.541c.405.361.81.541,2.025.541.81,0,5.67.18,10.531.18,4.861.18,13.771.361,19.847.361,14.986.18,25.922.361,27.137.541.405,0,2.025.18,3.24.18s3.645.18,5.265.18c8.506.361,68.451.722,94.373.541,2.43,0,11.341.18,18.226.541,5.266.18,14.581.18,15.391-.18C1415.559,16.6,1414.749,16.6,1413.533,16.6Zm10.126.18a21.808,21.808,0,0,0-4.861,0c-1.215.18-.4.361,2.43.361C1423.659,17.141,1424.875,16.961,1423.659,16.78Zm20.657.361a21.791,21.791,0,0,0-4.86-.361c-2.43,0-4.861-.18-5.266-.18a15.1,15.1,0,0,0-3.24-.18c-1.215,0-3.24.18-4.05.18-4.05.18,2.43.722,8.506.722a50.848,50.848,0,0,1,7.291.361C1443.506,18.224,1445.531,17.5,1444.316,17.141Zm9.721-1.624c2.43,0,4.455.18,4.86.18.81.361,4.86,0,6.886-.361a21.5,21.5,0,0,1,4.05-.361,12.8,12.8,0,0,0,3.24-.361c.81-.361-2.835-.541-11.746-.541-4.05,0-8.506-.18-10.126-.361s-4.456-.18-6.076-.18-5.266,0-8.1-.18c-2.835,0-6.885-.18-8.911-.18h-15.391c-3.24,0-3.645,0-4.455.361-1.215.722.405.9,7.7,1.082,4.05,0,10.126.18,13.366.361C1434.6,15.517,1441.481,15.517,1454.037,15.517Zm27.947,2.526c-1.215-.18-17.417-.9-21.872-.722-1.215,0-5.265.722-8.911.722h-6.481l4.05.361a215.978,215.978,0,0,0,25.112.361c3.645-.18,7.291-.361,8.1-.361C1482.794,18.224,1482.794,18.224,1481.984,18.043Zm1.215.541,2.025.361c2.025.361,4.455.18,4.86-.18,0-.18,1.215-.18,2.835,0,1.62,0,2.43,0,2.025-.18-.81-.361-6.076-.361-9.316-.18ZM1149.452,149.022h-1.215q0,.271,1.215,0Zm76.146.541c-.405,0-.405.18-.405.18,0,.18.405.18.405.18l.405-.18C1226,149.563,1225.6,149.563,1225.6,149.563Zm224.389,8.84c0-.541-.81-.18-4.86-.18-8.1.18-9.721.9-6.076,1.082C1442.291,159.485,1449.581,159.125,1449.987,158.4Zm185.505-68.917c-.81-.18-1.62,0-1.62.18-.405.18.405.361,1.215.361C1637.112,90.027,1637.517,89.666,1635.492,89.486Zm-347.519,59.536c-.4,0,0,.541.81.541s1.215-.541.81-.541Zm-116.245-.361c-.4,0-.4.18-.4.18l.4.18c.405,0,.405-.18.405-.18C1172.538,148.841,1172.134,148.661,1171.729,148.661Zm-13.771,1.8a2.3,2.3,0,0,0,.81.18c.405,0,.81-.18.405-.18C1158.767,149.924,1157.957,150.1,1157.957,150.465Zm-8.1-.541c-.405.18-.405.361.81.361s1.215,0,.81-.361A2.412,2.412,0,0,0,1149.857,149.924Zm10.936-1.263-.405.18c0,.18.405.18.405.18.405,0,.405-.18.405-.18Z" transform="translate(0.122 0.9)" fill="#fff"/>
</svg>
