<svg clip-rule="evenodd" fill-rule="evenodd" stroke-linejoin="round" stroke-miterlimit="2" viewBox="0 0 347 317" xmlns="http://www.w3.org/2000/svg"><path d="m6.558 206.249-.292-.817c-1.657-14.714-7.31-30.791-3.7-45.233-9.162-32.7 8.285-62.309 19.785-89.285 8.278-6.45 17.053-21.982 27.478-29.702 7.5-5.631 19.688-11.989 27.29-6.449 24.464-9.9 43.859-20.527 69.883-29.61l.877-.272c29.629-5.541 58.577-6.54 81.286-2.089 8.479 1.453 13.938 8.356 24.366 6.449 1.949 5.541 9.747 6.721 15.4 9.991 13.84 7.811 28.362 17.076 37.134 30.064 1.17 1.817 1.072 4.814 2.144 6.267 2.339 3 6.53 4.36 7.992 7.085 1.852 3.361 2.534 15.168-1.559 16.8-5.75 2.271-10.136-10.9-17.154-4.269.39 11.354 11.6 13.534 14.133 24.978 3.216 2.725 8.577 1.272 11.014 5.268 7.018 13.261-7.31 21.072 3.216 35.968-1.363 10.55-1.396 21.23-.1 31.79-.877 3.27-4.386 7.176-2.047 10.082-2.729 6.9-7.407 12.9-7.407 21.163-3.8 2.907-6.238 6.54-4 12.353 13.84-7.085 11.5-21.8 21.637-30.609-1.072-10.9 1.559-20.073 2.534-29.974-1.072-5.177-2.632-11.263 3.216-14.714 10.039 5.722 6.433 17.893 5.263 25.886-5.361 39.147-26.413 70.3-49.22 94.644-6.076 6.443-12.625 12.424-19.591 17.893-8.869 3-9.649 4.814-17.836 7.085-24.659 23.161-64.717 25.251-97.66 29.338-9.552-3.815-23.977 1.362-28.168-12.171-21.053-4.451-45.809-9.628-64.132-22.8-11.6-1.09-19.591-8.992-27-16.8-12.462-13.259-26.302-36.42-34.782-58.31zm261.792 56.132c2.047-2.089 2.729-5.631 4-7.175.585-.727 2.729-.363 3.314-1 1.559-1.726.877-4.451 1.754-5.631 1.657-2.543 4.971-3.906 6.14-6.176 2.989-5.489 5.626-11.162 7.895-16.985 1.559-4.36 1.365-8.265 2.924-12.9.39-1.181 2.729-2.089 3.411-3.633 2.437-5.541 1.17-17.621 4.581-18.529 1.657-16.713.682-40.328 2.534-59.13-12.865-4.36-14.815-32.244-24.269-43.416-10.039-10.536-19.4-19.892-27.193-30.519-4.483-2.362-8.869-5-10.721-12.262-18.031-21.981-59.844-12.807-89.181-15.259-15.107 6.267-40.351 1.181-56.14 8.265-7.5 3.361-9.162 10.809-15.107 14.9.682 2.089 1.852 4.36 1.072 5.722-2.047-.091-3.509-1.181-6.335.182-2.339 1.453-1.462 4.451-3.411 6.176-27.684 23.069-33.239 56.762-47.372 86.377-4.581-11.717-1.559-19.8-3.021-29.974 1.462-7.085 7.895-11.808 4.678-21.163-6.238 1.362-6.823 5.359-10.039 8.175 2.827 11.807-10.721 21.347-9.259 34.515.195 2.089 2.339 3.906 3.021 5.995 2.437 7.539 3.509 19.8 4.386 28.7 1.268 12.354 5.751 25.437 10.137 37.337 3.314 8.9 5.361 20.709 9.747 27.975 4.483 7.448 14.62 13.261 21.735 17.53 7.018 4.178 13.255 9.719 19.883 12.08 1.949-5.45-17.446-18.348-10.916-20.8 1.559-.545 5.458 1.362 6.335 5 7.407 1.272 13.938 4.178 19.006 9.719 15.789 4.269 27.778 14.442 42.495 18.983 20.76 6.358 46.394 6.358 64.425 15.8.487-.091 1.072-.182 1.072.545 22.515-7.357 34.99-12.625 53.8-23.071.098-9.177 9.649-11.175 14.62-16.353z" fill="#4da083" fill-opacity=".47"/></svg>