<svg xmlns="http://www.w3.org/2000/svg" width="354.306" height="353.962" viewBox="0 0 354.306 353.962">
  <g id="Group_1202" data-name="Group 1202" transform="translate(-0.364 305.642) rotate(-81)" opacity="0.408">
    <path id="Path_370" data-name="Path 370" d="M298.752,174.419c-.259-.345-.345-1.294,0-1.207-.086-.6.862-1.725.6-2.242-.431,0-1.035-.949-.776-1.207-.259-.345.517-1.466.949-1.725,0-.431-.259-1.466-.259-1.725a8.135,8.135,0,0,0,.259-.776c.086-.345.6-1.38.259-1.466.086-.517-.862-3.1-.259-4.657.086-.345.776-.345.776-.862a5.254,5.254,0,0,1,.259-1.466c-.431-.086-.086-.517-.259-1.121-.172-.259-.517-1.552-.345-1.725,0-.431,0-1.207.517-1.38-.431-.776-.431-3.536.086-3.794-.086-.69-.431-1.552,0-2.07-.345-.431-1.294-1.466-1.207-1.983.086-.259.431-.259.6-.517-.172-.517-1.207-2.5-.862-2.932.431-.086,1.38.345,1.207-.345.517-.086-.259-.776-.862-1.121-.172-.345.086-.431,0-.949.431-.172.776-.345.862-.862a9.021,9.021,0,0,0-1.121-1.983c-.517-.086-.431-2.156,0-3.363a7.94,7.94,0,0,1,.259-.776c-.086-.6-.6-.776-.776-1.38-.776,0-1.294-1.725-1.639-2.242-.431-.086-.517-3.1-.6-4.053-.259,0,.517-1.466.517-2.07-.259-.949-1.638-.69-1.725-1.811-.345.086-.259-1.466-.086-1.725a2.006,2.006,0,0,1,.949-1.811c-.259-.69-.949-2.328-.6-2.673-.6-1.466.086-3.622-1.638-3.794-.172.517-2.156.172-1.38-.259-.172-.6-.6-.862-.776-1.466-.949-.345-.6-3.018-.259-2.932-.086-.431.172-.431.086-.862-.086-.259-1.466-1.294-1.207-2.328-1.466-.517-1.725-3.018-1.811-3.708-.949-.431-1.639-2.242-2.328-3.191-.431.086-.086-.69,0-1.207-.172-.259-.862-.086-1.207-.086-.172-.431-.517-.69-.517-1.207-.6.086-.6-.69-.6-1.38a6.455,6.455,0,0,1-.862-3.1,1.711,1.711,0,0,1-.949-2.07c0-.345-.172-.345-.259-.6h-.949a.891.891,0,0,0-.6-1.207c-.431,0-1.207-.949-.517-1.121v-.517c-.431-.776-2.328-1.639-2.07-1.639.086-.776-.259-1.121-.345-1.725-.949-.086-1.725.345-1.811-.086-.6-.517-1.121-.6-1.38-1.207-.086-.259.69-1.035.862-1.207a.519.519,0,0,0-.345-.6c.086-.259.6-.172.6-.6-.431-.949-1.811-.517-2.932-.517-.086-.69-.259-1.207-.949-1.207.431-.949-.345-1.38-.6-1.983a.708.708,0,0,1,.6-.086c0-.949-.776-.431-1.466-.517-.172-.345-.345-.776-.776-.862.172-.172.345-.259.259-.6-.086-.259-.69-.086-.949-.086-.517-.431-.69-1.207-1.38-1.466,0-.431.259-.6.259-.949-.172-.345-.517.086-.862,0-1.38-1.121-1.983-3.018-3.449-4.053-.086-.431.086-.6.086-.862a1.509,1.509,0,0,0-1.207-.6c-.086-.862-.949-.949-1.38-1.639.172-.345-.6-.862-.949-1.38-.086-.345-.69-.776-.949-.949-.086-.431-.517-1.121-.862-1.121,0-.6-6.554-6.813-6.554-6.985a6.035,6.035,0,0,1-2.07-2.328,7,7,0,0,1-2.932-1.207,1.279,1.279,0,0,0-.086-.6c-1.38-1.121-2.5-2.415-3.967-3.449.172-.949-1.035-1.294-1.639-1.466-.69-.6-.862-1.725-2.07-1.725v-.6c-.69-.172-1.38-.345-1.466-1.121-.172.086-.6-.172-.6.086-1.552-2.07-4.571-2.673-6.813-4.053a3,3,0,0,0-2.673-1.38c-.172-.431-1.207-.776-1.725-.862-1.725-2.846-6.468-2.587-7.848-5.778-1.035-.172-1.811,0-2.07-.862-.431-.086-.431.259-.862.086-.776-.949-4.053-3.449-4.657-3.191,0-.345.086-.69-.086-.862-.6-.172-.69.259-.949.517-.776-.086-3.018-1.552-3.708-1.38-.862-.259-1.035-1.38-2.5-1.121a3.751,3.751,0,0,0-.345-.6,7.17,7.17,0,0,1-2.5-2.587c-.259.086-1.035-.172-.949-.6-.086-.345-.6-.259-.776-.517-1.983.949-2.156-1.552-4.053-1.466,0-.517.6-.431.6-.949-.345-.69-1.207-1.466-2.07-.862-.172.949-3.881,1.466-4.312,1.207a2.885,2.885,0,0,1-3.1.086.708.708,0,0,0,.086-.6c.086-.259-.6.086-.345-.345-1.121.172-2.76-.086-2.846-.517-.6-.69-1.811.172-2.07.086-.431,0-.345-.517-.6-.776a5.976,5.976,0,0,0-1.725-.259c-.172-.6.172-1.466-.259-1.983,0-.6.862-.431.776-1.121,0-.086-.086-.086-.086-.259-.517.086-.776.345-1.466.259a1.1,1.1,0,0,0-1.466-.862c-.172.172-.776-.6-.6-1.466-.517-.517-2.328-.086-2.242-.776-.862-1.035-3.794.172-3.794-.259a1.527,1.527,0,0,0-1.207-.949c-.172.172-.517.776-.259.949-.431.259-1.294,0-1.639.345,0,.259-2.156,1.38-3.449,1.639-.172,1.294-1.811,1.035-2.5,1.811-.949-.172-2.156-.172-2.5.6-1.639,0-2.07-1.725-1.639-1.983.259-.172,1.294.259.949-.6l-.776-.517a.708.708,0,0,0,.086-.6c-.172-.172-.172-1.725,1.207-.862.086.259-.259.172-.259.345.259,1.035,1.294,0,1.983,0,.172-.086,1.121-.517,1.639-.086.431,0,4.571-.431,5.692-1.121V2.03c.949-.862,2.242-2.587,3.794-1.121.086,1.035-.862,1.121-.862,2.07,0,.086.086.086.086.259a5.1,5.1,0,0,0,1.725-.345c0-.259.517-.69.345-1.38,1.466-.086,2.846-1.035,2.846-.776.259.345.949,0,1.38,0,0,.259.172.431.086.862.949-.259,2.673,1.38,1.725,1.38,0,.776.259.69.086,1.466.345.086.259,0,.345.345.431.6,1.121.172,1.639-.086,1.207,0,3.277.517,3.794-.6-.259-.172,4.4.6,4.571.949.086.259.517.345.862.345.086.345-.345.259-.259.6.6.862,1.207.431,1.207.6.69.431,2.415.776,2.673-.259-.345-.517-.086-.776.949-1.121a.778.778,0,0,0,.345-.949c1.725-.345,3.536-.69,4.829.517.431,0,.6-.172,1.121-.086.259.69,2.587,1.294,2.328,1.38.172,1.035,1.552.862,2.587.949-.086.259-.6,0-.345.517.086.172.949.172.949,0,.259.172.086.776.259.949.6,0,1.38-.086,1.466.517a11.192,11.192,0,0,0,1.639.517,1.477,1.477,0,0,0,.776,1.38,11.151,11.151,0,0,0,1.811-.6c0,.517.6.345,1.121.345,0,.776,1.207.431,1.38.949.086.431-.517.172-.345.776.345,1.207,2.07,1.035,2.932.776.259.259-.345.517-.086,1.121.172.345.6.259.862.517.431-.345.517-1.207,1.207-1.207.172.345.517.431.517.949.6.086.69-.259,1.207-.259v.862c1.466-.345,1.725.776,2.587,1.38.431-.259,2.242-.431,2.5,0,.172.517-.517,0-.517.345.086,1.38,1.639.259,2.5.6.086,1.811,2.5.431,3.536,1.207,0,.862.517,1.121,1.38,1.121a1.483,1.483,0,0,0,1.811.6c.259.086.431.345.345.776a3.1,3.1,0,0,1,1.725.949c1.552-.517,2.07.862,3.363,1.121-.259.949,1.121.862,1.983,1.121a4.186,4.186,0,0,1,0,1.466c.431.345,1.811-.086,1.725.517.862,0,1.38-.259,1.811.259-.086.345-.6.259-.6.6-.086.259.172.259.345.259-.259.431-.431.776-.949.862.345,1.552,3.708,1.207,3.536,1.639.259.862,1.552.69,2.242,1.121,0,.345-.431.259-.345.776.259.431,1.121.345.949,1.121,1.121-.172,1.035.776,1.983.776a2.95,2.95,0,0,0,.086.949c.69.172.776,0,.862.517.6.517,1.9.431,2.242,1.207-.517.172-.517.69-.345,1.207,1.207-.086,3.622,1.38,3.536,1.983,1.294-.69,1.9,1.725,1.983,1.466.776.6,2.242.6,1.983.949.086.517.69.6.345,1.121.086.172.776.172.776,1.207,1.035.517,1.725.517,1.983,1.38a2.2,2.2,0,0,1,.6.862c.517.431,1.9.69,1.983.949.517.345,1.725,1.207,1.207,1.121-.259.776.517.6.345,1.38.517.431,1.035.517,1.207,1.38.862.086,1.639,1.639,1.725,2.07.69.086,5.26,6.813,5.26,7.416a1.605,1.605,0,0,1,.776.949,1.9,1.9,0,0,0,1.207.949c0,.345-.259.345-.517.345-.086,1.121.345,1.466-.086,2.242.69.172,1.38-.6,1.207.259a7.962,7.962,0,0,1,1.207,1.725,18.065,18.065,0,0,1,1.121,1.983c.431.259.345,3.1.345,3.794.345.949,3.708,1.725,3.794,2.07.172.172.517.086.345.6a1.215,1.215,0,0,1,.862,1.121c.086.259.086.431-.259.517-.345,2.5,1.811,1.811,1.639,3.191-.086.259.172.345.345.776.431.431,1.725.776,1.38.862,0,.776.172,1.121-.259,1.639.776,1.035-.172,1.811.259,3.363a.671.671,0,0,0,.6.259c-.172,1.207,2.07.517,1.983.949.259,0,.431.862.345,1.725.259,0,.345.259.259.345a1.864,1.864,0,0,1,.086.949c.517.517.949,1.121,1.466,1.639-.776,1.38,4.829,5.088,3.967,7.071a9.4,9.4,0,0,0,.086,1.466c1.207-.345,2.415.259,2.07,1.466.172.345,1.983,3.881.259,4.312.259.862-.69,1.121-.862,1.811a5.789,5.789,0,0,1,.259,1.983c-.259.172-.6.259-.776.6-.086.6-.086.776-.949.862-.259,1.552,1.983,1.811,3.191,2.328-.086.776.345,1.466-.086,1.466.086,1.207,1.294,1.552.949,2.673.259.259,1.035.69.862.949.086.345-.259.431-.6.345-.086.862-1.121-.517-2.587.517-.6.431,1.38,2.587,1.639,3.1,0,.517-.6.517-.776.862-.086.431.431.345.345.776,1.035.172,2.932.086,3.1.949.431.259,1.811,1.552,1.207,1.725.172.69.431,1.639.259,1.207-.172.345-.776.172-.6.862,1.294.517.431,1.725-.345,1.811,0,1.207.69,2.156.259,2.07.345.69-.259,1.983-.862,2.846.862.259,2.156.431,1.466,1.121.086.776,1.38.345,1.983.6a5.025,5.025,0,0,1-.259,2.673c-.086.345.776,1.38.345,1.811.345.172.259.431.345.776.086.259,0,1.035-.259.949a5.347,5.347,0,0,0-.345,1.983c.086.6-.69,1.466-1.207,2.328.345.431.6.949-.086.949a12.54,12.54,0,0,0-1.639,1.983c.431.949,2.156,2.328,2.242,2.673.086.517-.172.6.086,1.639.259.431,1.207.345,1.466,1.121.776.086.259,1.983-.086,1.983.086.517.086,2.673-.6,2.846-.086.69.345.345.086.949.345.259.172,2.846.259,3.363a6.738,6.738,0,0,0-.345,1.639c.345.172.517.69.345.776a.913.913,0,0,0,.517.949,11.644,11.644,0,0,0-.517,2.932c-.259.517-1.035.517-.949,1.38.172.172-.172.259-.345.6,1.207.776,1.466,2.156,1.207,4.053-1.121.431-.6,1.639-1.638,2.07a.7.7,0,0,1-.259,1.207,8.9,8.9,0,0,1-.345,2.328c-.517-.431-.517.431-1.121.259.086.69.259.6.086,1.466h-.517c-.259,1.466.949.949,1.38,1.639a1.525,1.525,0,0,1-.6.949,5.266,5.266,0,0,0,.259,1.121c-.6.259-.6,1.207-1.466.862-.086.345-.345.6-.949.517a1.279,1.279,0,0,0,.086.6c.345,0,.259,2.673.086,2.673.172,1.207.172,2.415-.862,2.846.172.69.345,1.207-.259,1.639a4.945,4.945,0,0,0,.345,1.207,7.622,7.622,0,0,0-.862,3.794,12.783,12.783,0,0,0-1.811,3.191c-.259.086-.69-.086-.949.259a1.1,1.1,0,0,1-.6,1.466c-.086.431.172.431.086.862a2.429,2.429,0,0,0-.862,1.811c-.345.69-.862,1.035-.776,2.242-.69-.086-.259.776-.949.345.345.69-.086,1.466,0,1.811-.6.172-.6,1.035-1.38,1.121a1.143,1.143,0,0,1-.776,1.121c-.517.517-1.466.172-2.673.517-.172,0-3.794.6-4.053.949.086.517.086.949.6.949a.708.708,0,0,0-.086.6c.259.431,1.035.345,1.38.776,1.121-.086,1.035-1.294,2.242-1.207.086-.431,1.466.259,1.121,1.639-.259-.086-.259.259-.6.086a6.238,6.238,0,0,0-.086,1.811.732.732,0,0,0-.517,1.207c-.949.345-1.035,1.552-1.725,2.07,0,.431-1.38,1.38-1.983,1.38-.086.862-.431,1.294-1.121,1.38,0,.69.6.6.517,1.38.259,0-.6,1.9-1.38,2.846-.517.086-.6-.172-1.121-.086,0-.172-1.035-.517-1.121-.086.345.862-.949,2.76-.949,2.932a5.7,5.7,0,0,1,.862,2.673,1.85,1.85,0,0,0-.949,1.811c-.345,0-.345.345-.862.259-.259.776-.172,1.983-.949,2.328a1.635,1.635,0,0,1-1.121,1.811c.431.776-.172,1.294-.517,1.983-1.035-.345-.517.862-1.466.6a8.453,8.453,0,0,1-2.07,2.5c-.086.517-.345,1.466-.776,1.38a1.787,1.787,0,0,1-.776,1.121c-.086.172-4.829,6.9-4.657,6.9-.776.345-1.121,1.294-1.638,1.983a1.368,1.368,0,0,0-1.207,1.638,2.7,2.7,0,0,0-2.07,1.466,1.484,1.484,0,0,0-.949.949c-1.035.172-1.035,1.38-2.242,1.38-.431,1.725-3.277,3.708-3.449,3.794-.345.69-.69.776-1.638.6.086-.431-2.673,4.743-3.967,4.4-.517.6-1.294,1.38-2.07,1.38-1.207,1.207-6.727,5.692-8.106,5.95-.345.949-3.536,2.932-4.829,2.932-.862.69-4.4,3.1-4.657,3.449a5.408,5.408,0,0,1-2.587,1.121,3.009,3.009,0,0,0-1.983,1.207c-.776-.259-6.209,3.708-7.848,3.1a6.05,6.05,0,0,0-.517.776,6.114,6.114,0,0,1-1.466-.345c-.086-.431-.431-.69-.517-.517-.862-.172-2.76-.259-2.846,0-1.38.172-1.725,1.38-2.5,2.07,0,.517-.517,2.07-1.983,1.983-1.466.862-7.675,2.587-8.02,3.191a8.183,8.183,0,0,1-2.673.517c-.6,1.121-2.242,1.207-3.967,1.207-.431.259-1.207.776-1.811.345a5.891,5.891,0,0,1-2.587.345,1.747,1.747,0,0,1-1.207.517c-.345-.086-.431-.431-.776-.517-1.035.259-2.156.259-2.242-.086q-.129-.259-.776-.259a.577.577,0,0,0-.345.6c-.086.345-.172,1.38-.862,1.466-.517.086-1.38-.086-1.38-.862h-.517c-.345.086-.259.6-.345.949-.6,0-1.207.259-1.466-.345a5.219,5.219,0,0,1-2.07.345c0,.345-2.07.949-3.449.776-.259.517-4.829,1.035-4.829.862-.431.172-2.328-.69-3.1-.259v-.6h-.6c-.431.086-.949.6-1.466.776-.172.345-4.4,0-4.657,0a14.541,14.541,0,0,0-3.363.517c-.172-.862-1.983.086-2.328-.6-.345.345-1.725,0-1.983-.086-.862.6-4.916-.431-6.123-.517a4.55,4.55,0,0,1-2.932-.259c-.431.431-2.5-.345-3.1-1.207-.259.172-1.38-1.294-1.466-.949-.517,0-4.312-1.639-5.174-1.466.086,1.035-4.312,1.466-4.312,1.121-1.38-.69-6.554-.776-7.416-.6a4.67,4.67,0,0,1-2.07-1.207c-.172-.345-1.121-.259-1.121-.345-1.9-.517-3.191,2.673-4.571.517-.345.086-.431-.086-.776-.086-.345.259-.517.172-1.121.086,0-.949-1.38-.862-1.38-.949-.431,0-2.328-1.811-2.328-2.587a9.39,9.39,0,0,1-1.639.086c-.259.086-9.831-1.9-11.383-2.07-.345-1.035-2.07-.517-2.328-1.639-2.846-.69-11.47-5.519-12.936-5.433-.776-.259-1.207-.776-2.07-.862.086-.259-3.1-1.725-3.1-2.242-2.242-.259-8.71-4.053-8.8-4.571-.69,0-8.279-5.433-8.279-5.692-.949-.6-6.727-5.088-6.985-5.088-.517-.776-3.536-4.226-3.536-4.4-.259-.345-7.158-5.95-6.985-7.244-.517-.086-3.1-1.207-2.328-2.328-.086-.517-3.018-1.9-2.328-2.846.086-.345-.259-.259-.259-.517-.6-.086-1.639-2.846-1.639-3.45-.431-.431-.259-1.121-.259-1.38-.345-.949-3.708-3.794-3.449-4.657-.431-.431-1.983-2.673-1.725-2.932-.345-.259-.345-1.121-.086-1.639-.517-.431-1.811-1.466-1.811-1.811.172-.6-.086-1.035.345-.949.086-.776.6-1.294.086-2.07-.69-.259-1.9-.345-1.466-.862,0-.431-.517-.431-.517-.949-.431.086-4.226.259-3.967-.086a4.186,4.186,0,0,1,0-1.466c1.035,0,1.38-.69,1.725-1.38-1.38-1.121-4.571-3.794-3.794-3.794-.517-1.294.862-1.639,2.242-1.466.345-.172.431-.6.6-.949-.69-.776-2.07-.259-1.725-.517-.431-.776.172-.949-.086-1.725.172-.172.431-.172.6-.345-.172-.517-1.38-.517-1.725-.517-.345-.431.517-.776.259-1.466-.776-.259-.259-1.035-.949-1.38.172-.949,1.121-1.121,1.121-2.328-1.294-1.294-2.76.086-4.053,0a1.189,1.189,0,0,1-.862-1.207,1.162,1.162,0,0,1,1.121-1.207c.086-.345.431-.431.6-.6a2.308,2.308,0,0,1-.086-1.983c-.086-.172.6-.172.6,0,1.466.086,1.38-1.38,1.725-2.328-.345-.6-1.38-3.1-.949-4.312a3.716,3.716,0,0,0-1.639-1.38c-.6.172-1.294.259-1.207-.517,0-.172-1.207-2.5-1.207-2.846-.862-.259-2.156-2.5-1.811-3.363-.431-.259-1.38-.69-1.466-.949,0-.431-.172-.69,0-.862a17.6,17.6,0,0,0,.259-2.932c-.086-.431-.69-.517-.949-.776v-.776c.172,0-.086-.6-.6-.6-.259-.6.172-.517.086-1.207a20.057,20.057,0,0,1-.345-4.657c-.6-.69-4.743-5.088-5.174-6.3-.431.086-1.466-1.552-1.207-1.639a6.639,6.639,0,0,0-.6-2.5c-.776-.172-1.035,0-1.207-.517-.086-.431-.345-1.38.086-1.466v-.517a5.517,5.517,0,0,1-.776-3.1c-.259-.086-.172-.862.086-.862,0-1.121-.086-2.673,0-2.846,0-.431-.69-4.312-.345-4.312,0-.431-.172-1.035.086-1.121-.345-.949.69-1.207,1.121-1.811,0-.69-1.121-1.552-.949-1.983,0-.517.172-.949.776-.949-.086-.69-.6-2.415.086-2.587-.69-.259.6-2.673.776-3.449-.086-.086-.086-.172-.086-.345-.345-.172.6-4.829,1.466-4.916,0-1.035-.431-2.07.6-2.5v-.949c.517-.172.776-2.587,1.639-2.673-.69-.862.517-.776.517-1.725-.259-.259,1.035-.345.949-1.725-.517-.345,3.018-1.207,2.932-2.07-.086-.259-.949-.431-1.121-.086-.517-.345,0-.862.259-1.121.69.172,2.328.259,1.725-.776.086-.345.69-1.38.949-.949.517,0,1.121.69.862.949.086.259.086.6.517.6-.431.431-.086,1.552-.776,1.725.345,1.294-1.121,6.382-1.466,6.382-.172.862-.172.949-.862,1.207-.086,1.552,1.983,1.38,1.639,2.846a.909.909,0,0,1-.776.345c-.172.69.345.6.259,1.207.431-.086.6.086.862.086a6.126,6.126,0,0,1-.345,2.242c0,.259.345.259.6.259-.259,2.673.517,5.519.345,8.279,0,.345.259.431.345.6a84.921,84.921,0,0,0,.949,16.73c-.172.259,1.121,5.864.517,8.537a7.245,7.245,0,0,1,.345,1.207c1.552,4.4,2.242,8.882,4.312,12.677,0,.517-.431.69-.259,1.38.172.431.6,1.035.517,1.38.172.6.69.69.345,1.466.086.259.431.345.6.517-.172,1.38,2.76,5,2.242,6.3a8.877,8.877,0,0,1,2.242,5.088c0,.259.345.259.6.259-.086.517-.517.776-.345,1.466.517.086.69.431.862.862a8.147,8.147,0,0,0,1.983,2.673c.172.776-.259.949-.345,1.38.086.345.69.172.949.345.086.776,2.587,3.536,1.725,4.571.259,1.035,1.38,1.207,1.38,2.587a7.189,7.189,0,0,1,2.846,4.226c.431.517,1.035.69,1.121,1.639,0,.172,3.536,3.967,3.449,4.312,1.121.949,1.552,2.415,2.5,3.536-.6,1.466,2.242,2.156,1.983,3.708.172.517.517,0,.862.259a.708.708,0,0,1,.086.6c1.38.086,2.587,3.277,2.673,3.708,1.639.431,2.328,1.9,3.536,2.846-.172.862,4.139,3.708,5.95,4.657v.517c.776-.086.862.6,1.639.517.776,1.38,2.328,1.983,3.191,3.191,2.415.862,3.277,3.363,5.692,4.312,1.207,1.294,2.846,2.156,3.794,3.708a37.76,37.76,0,0,1,6.037,4.226h.862c1.121,2.07,4.484,1.983,5.174,4.4.69,1.466,3.1,1.207,3.967,2.587,3.277-.086,4.4,1.983,7.158,2.5,2.242.517,3.708,1.9,5.692,2.673v.517c1.294.949,4.657,3.449,5.433,3.363-.259.259.517.517.862.6.345.345,8.451,2.76,8.969,3.967a4.523,4.523,0,0,1,2.328,1.121c1.121-.431,3.363-1.035,4.312.086.69-.259,9.745,3.018,9.4,3.708.172.69.69.862.517,1.639,1.552.259.517,2.328,2.5,2.242-.086.086.862.259.949-.259,0-.517-.69-.345-.6-.862s.862-.345,1.121-.776c-.517-.776-1.983-.517-1.983-1.639.086-1.552,2.932.086,3.967-.949.431.086.862.172.862.776.862-.259,1.121.6,1.466,1.207h.862c-.172-.776.862-.6,1.38-.259.431-.345,1.639.431,2.328.345.345,0,.172-.6.345-.776a1.679,1.679,0,0,0,1.639-.517,5.77,5.77,0,0,1,2.673.949c.086.431-.259.431-.086.862.086.259.6.086.862.086.259-.345.6-.6.862-.949.345.086.172.6.776.517.6-.6,4.4,0,4.4.259.431-.086,1.38.086,1.38.259.6.086,1.466,1.639,1.983,2.07.776.086,1.38-.086,1.207-.949-.086-.172,1.9-.517,1.811.345,1.035.517,1.552-.517,1.983-.949.086-.517,2.156-.259,2.07.086.6.086,1.466.345,1.725-.259.517.259,1.38.6,1.639-.086.172-.517,2.156-2.07,2.328-1.725.431-.086,1.121-.517.776-.949a7.473,7.473,0,0,1,3.191-1.207c.259-.69,1.639-.69,2.328-.6.259,0,1.38-.431,1.983-.086.345-.086,2.156-.776,2.242-.259.517,0,.69.259,1.207.086.6-.69.949-2.07,2.328-1.638.517-.862,5.347-1.121,6.382-.862.172-.172.172-.69.345-.862a3.988,3.988,0,0,0,2.242-.345c.086-.345.949-.259,1.725-.345.086-.345,2.07-.431,2.846-1.121-.086-.259,16.816-8.106,17.506-8.02a8.356,8.356,0,0,0,.949-.259c.776-.517,4.657-1.121,5.519-1.725.086-.345.517-.345.517-.259.862.172,2.07-2.415,3.536-2.328.6,0,2.932-1.121,2.932-.862,1.207.172,2.242-1.639,1.983-1.725,1.121-.69,2.328-2.415,3.967-1.725.6-.086,5.347-3.794,5.95-3.794.69-.259,4.053-5.433,4.053-5.692a5.277,5.277,0,0,1,2.932-1.466c.172-.517.862-.431.862-1.121.6.086.862-.172.862-.6.776,0,.6-.345,1.38-.086.431-.6.776-1.207,1.466-1.466.6.172,1.639,1.466,1.983.086a.828.828,0,0,0,.862-.345c.172-.776-.431-.862-.259-1.639.862-.345.6-1.9,1.983-1.725.086-.862.862-1.035,1.639-1.207a2.316,2.316,0,0,1,1.725-2.5c-.259-.6,7.848-10.262,8.624-10.262a8.02,8.02,0,0,1,1.811-1.983c.086-.345.259-1.552.949-1.725-.086-.517,0-.345.086-.776,0-.345.517-2.328,1.466-2.673,0-1.121.69-1.552.862-2.5,1.121-.431,1.466-1.639,2.5-2.242,0-.259.086-1.035.6-.949-.172-.69,1.466-1.466,1.725-1.811-.086-.345-.345-.517-.517-.776.949-.69,1.121-2.07,1.725-3.1a11.575,11.575,0,0,1,1.811.086c.517-.345.086-.862.949-.862-.172-.517,0-.431.086-.862-.6-.6-.086-2.587.086-2.587a1.68,1.68,0,0,1,.776-2.07,3.326,3.326,0,0,1,.259-1.811c.086-.517.086-1.207.776-1.121,0-.345.086-.69.086-.862,0-.6-.345-.431-.086-.949.431-.086,2.673-1.983,2.673-1.811,1.207.086,2.415,0,1.811-.259-.086-.345.345-.862-.345-.949.517-.776,0-1.552-1.121-1.466-.259.259-.69-.517-.086-1.121,0-.172.259-.172.517-.259-.172-.776-.172-1.466.862-1.38-.259-.949,1.725-2.328,2.328-2.673.086-.431-.172-.431-.086-.862-.431.086-.69-2.5.086-3.363.862.172.862-.431,1.638-.345.086-.345-.172-.345-.086-.776-.431.172-.776-.345-.949,0-.345-.517.172-2.587.776-2.5-.086-.431-.259-3.191.949-3.363-.086-.431,1.121-.69,1.811-.776.259-.431.69-1.639.862-1.38,1.035-.086,1.9-.345,2.242-1.121-.431-.69.172-.6.086-1.466-1.121-.345-2.5-2.932-2.328-2.932-.086-.69-.517-1.725-.517-1.983.086-.517.086-1.207.6-1.38,0-.517,0-2.156.345-2.242-.345-.69,0-.6.086-1.38C298.925,175.367,299.1,174.246,298.752,174.419Z" transform="translate(0 0)" fill="#e0dacb" fill-rule="evenodd"/>
    <path id="Path_371" data-name="Path 371" d="M147.4,4.984c-.086.6.69.345,1.121.345.431-.862,1.552-.949,2.5-1.38.345-.259.69-.517.776-.086.259.345,1.035.259,1.638.259-.086.259.086.345.086.517.776,0,1.552-.6,1.725-.517,1.9.086,5.778.862,6.123,1.207a2.125,2.125,0,0,1,1.811.259,3.285,3.285,0,0,0-.259.862c.69.172.862.862,1.725.862,0-.259,1.035,1.121,0,1.207-.431,1.9.69,3.018,0,3.363-.431.086-.172-.431-.517-.345-.6.172-.517.862-.6,1.38-.086.259.6-.086.345.345.345-.086.776-.086.949-.259.259.172-.086.776-.086.949-.862-.172-.949.345-1.121.862-.259.172-.517-.086-.862.086a2.335,2.335,0,0,1-2.07,1.811,8.14,8.14,0,0,0,.259-.776c-.69-.862-2.07.086-2.932-.259-.172-1.035-1.294-1.035-1.121-2.328h-.6c-.259,0,0,.517-.345.517a3.125,3.125,0,0,0-1.983-.517c-.172-1.466-3.277-1.207-3.708-.086-.949.086-1.207.086-1.725-.345-.345,0-1.121.431-1.121-.259,0-.345.345-.345.776-.345.086-.6-.172-.949-.6-.949-.6.086-.776.69-.949,1.121-.6-.259-1.38-.431-1.38-1.38h-.517a15.694,15.694,0,0,1-2.5.862c-.259.69.086.6-.259.517a2.062,2.062,0,0,0-1.638.862c-.69-.345-1.294.172-1.811.259-.086.431.259.517,0,.776-1.207.172-1.38-.776-2.242-.949-.086-.345.172-.345.086-.6-.862-.69.776-1.121.949-.6-.086.345.259.259.345.345a18.339,18.339,0,0,0,2.587-.259c.172-1.035.517-3.1,1.121-3.363,0-.345,1.294-.69,1.811-1.121V6.709C144.725,5.76,147.485,4.726,147.4,4.984Z" transform="translate(-18.707 -0.453)" fill="#e3decd" fill-rule="evenodd"/>
    <path id="Path_372" data-name="Path 372" d="M119.133,25.644c-.172.517-.259,1.466-.862,1.466-.086-.172-.172-.259-.345-.259,0-.345.517-.172.517-.517a.676.676,0,0,0-.517-.862c-.431-.086-.6.259-.862.345-2.07.431-3.708-.431-5.692-.517-.517.776-1.639,1.121-2.07,1.983-1.38-.086-2.156-1.294-3.794-.776-.431-.345,0-1.9.259-2.5-.259-.6-1.121,0-1.466.086a10.329,10.329,0,0,0,0-1.639c.431,0,.431-.345.949-.259a2.531,2.531,0,0,0,.259-.862c-.69-.949,3.363-1.035,2.587-2.07a3.084,3.084,0,0,1,2.5-.345c.172,0,.086-.345.086-.517a4.1,4.1,0,0,1,2.673,1.38,2.213,2.213,0,0,1,2.328,1.811c0,.259.517.086.776.086.345-.086.345-.345.345-.086.086,1.121,1.466.69,1.725,0,.345,0,.345.259.345.6.345,0-.949,2.846.776,2.5C119.737,24.954,119.65,25.9,119.133,25.644Z" transform="translate(-14.329 -2.486)" fill="#e3decd" fill-rule="evenodd"/>
    <path id="Path_373" data-name="Path 373" d="M64.811,43.405c.69,1.035,2.07.776,3.45,1.121-.086-.6-.259-1.035-.862-1.121,1.035-.345,1.294-1.552,2.5-1.725.086-.345.259.086.259.776.172.345.431-.172.776,0-.259.69-1.639.431-1.983,1.121.345,1.466,2.328.259,2.846.259-.69.69.259,1.639,1.38,1.38.086-.345-.345-.69,0-.862.431.172.259.949.6,1.121,0,.431-.345.431-.345.862,0,.345.431.345.6.6.6.086.6-.517.949-.6.431,0,.259.517.6.517a1.44,1.44,0,0,0-.6,1.121c0,.345.345.517.6.6-.345.6.086,1.035.776.949-.345.949-1.9.431-2.846.6-.259,0-.086.431-.086.6-.431.086-.431-.259-.862-.086-.259,0-.086.517-.086.776-.259,0-.345,0-.345.259-1.035-.6-1.725.345-2.673,0-1.121,2.328-4.829.086-6.037,1.983a3.491,3.491,0,0,0-1.38.086c.259.69-.086,1.38.345,1.725-.259.517-.517,1.035-1.121,1.207.345.69-.172.949-.259,1.639h-.6c-.345.69-.949,1.035-.949,2.07-.949.172-.949,1.294-1.983,1.38,0,.172-.172-.517-.6-.517a2.052,2.052,0,0,1,.776-1.121c.086-.862-1.38-1.035-.776-1.725A1.36,1.36,0,0,0,58,58.669v-.517c0-.259-.517-.086-.776-.086,0-1.121,1.035-1.294,1.639-1.811-.172-.517-.949-.431-1.207-.862.172-.6,1.207-.345,1.466-.862,0-.431-.172-.6-.6-.6a1.122,1.122,0,0,1,.776-.949c0-.6,1.38-2.415.949-3.536-.6-.086-.862-.431-.345-.517a1.3,1.3,0,0,1,1.207-.862c.172-.949-.862-1.121-1.466-.862,0-.431.345-.431.259-.949,1.552-.259,1.811-1.811,2.932-2.5a3.094,3.094,0,0,0,.862-1.207c.517.259.172.517.086,1.121C64.552,43.923,64.9,42.974,64.811,43.405Z" transform="translate(-7.782 -5.673)" fill="#e3decd" fill-rule="evenodd"/>
    <path id="Path_374" data-name="Path 374" d="M13.608,130.743c1.38.517,1.121-1.552,2.328-1.638v-.776c-.69-.172-.776.345-1.38.259-.172-.6.345-.517.259-.949-.517-.259-1.811-.6-2.242.086-1.121-.345-2.587-.431-2.673-1.811.345-.862,1.811.431,2.5-.345.345.172.345.6.517.949h.517c.172-.6.6-.949.776-1.639-.086-.431-.345-.69-.345-.862.086-1.121-1.38-1.811-1.38-1.983-.431-.6-.431-2.07-.086-2.07.862-.517.345-1.207.6-1.983-.6-.345-.431-1.466.776-1.466-.862-1.035-1.121-1.38-.259-2.673-.172-.69-.172-2.932.949-3.536,0-.259-1.207-.862-1.38-1.38,0-.345.172-.517.6-.517a5.5,5.5,0,0,1-.086-2.07c.345-.086.6-.172.949-.259,0-.6,1.38-1.552,2.07-1.725.6-.776-.345-2.328.862-2.846A6.545,6.545,0,0,1,19.3,99.526c-.345-1.38,1.725-4.053,2.07-4.053,0-.345.69-.949.776-1.466.6.086.431-.517.949-.345v-.517c0-.259-1.552-2.846-1.639-3.363s1.207-1.035,1.466-1.121c.776-.431,0-1.552.086-1.983.431-.172.776.6,1.38,0-1.035-1.207,10.09-.69,10-.517.345.862-.949,1.725-.949,1.207h-.776c-.172.6.431.431.259.949.431.086.431.517.345.862.086.259.345.431.259.949-.259,0-.345.172-.776.086.517.6-.172.776-.517,1.38s-.345,1.38-.862,1.983a4.3,4.3,0,0,1-1.466.949c-.6,1.207-.431,3.1-1.639,3.708v.517c-.431,0-.6.259-.949.259-.172.69.172,1.207,0,1.207.172.776-.517,1.207-1.207,1.38-.345,1.9-.517,4.743-1.725,6.123.086.172-.431,1.639-.345,1.811-.776,3.449-2.673,6.468-3.449,9.831-.086.172.086.517,0,.776-.259.776-.949,1.38-1.121,2.242-.345,1.552-.172,3.191-1.207,4.4-.086,1.9-1.121,2.5-1.466,3.967,0,.517.6.517.6.949a1.174,1.174,0,0,1-1.207.517c0,.949.776,1.207.6,2.328-.69.6-1.466,2.415-1.207,2.5-.086.259-.172.431-.6.345,0,.431-.086,1.035-.259,1.121-.086.345-1.38-.172-.949-.345.086-.517.517-.517.6-.949-.172-.259-.69-.259-.949-.345a1.16,1.16,0,0,1-.776-.776c.517.086.345-.517.949-.345,0-.345.259-3.881-.949-2.242.086.259-.776.259-.862,0C11.021,133.676,13.522,131.951,13.608,130.743Z" transform="translate(-1.337 -11.775)" fill="#f7cea8" fill-rule="evenodd"/>
    <path id="Path_375" data-name="Path 375" d="M262.147,22.248c.776.776,15.178,8.538,15.005,9.486.69-.172.776.086.949.6a.842.842,0,0,1,.69,1.121c.086.259.69,0,.69.259-.259.259-.259.776-.345,1.207.949.431,2.587.862,2.415,1.207,0,.431,1.035.949,1.121,1.121.345,0-.172.517,0,1.121-.431-.086.259.6.517.259,1.552,0,2.328.6,3.881.345.172.345,0,.345,0,.862,1.121,0-.517,2.415-.517,2.932,0,.345.6.172.949.259.345-.172.431-.517.517-.949.776-.259.6.517,1.121.6,0,.345,1.294.776,1.38,1.121.69-.172-.259.6-.086,1.552.086.259.6.086.862.086-.431.517,2.242,1.035,2.932,1.725-.172.431.086,1.207.259,1.207a7.457,7.457,0,0,1,.862.6,7.506,7.506,0,0,0,.949,2.673c.259.172.949.6,1.207.345.259.776,2.932,1.811,2.328,1.811a2.383,2.383,0,0,0,1.38,1.983c.172-.086,1.121.345.862.6,0,.69.345,1.207-.259,1.466a.851.851,0,0,0,.862.776,11.575,11.575,0,0,0,.086,1.811c.6.517,1.294-.086,1.552-.517a2.138,2.138,0,0,1,0-1.466c-.172-.345.862-.431.6.086.086.517.69.6,1.38.6.172.949.431,1.811,1.466,1.811-.345,1.035.173,2.242,1.38,2.07.431.776.69,3.708.345,2.587.345.086-.086,1.38-.086,1.466.086.69,1.38.69,1.38.862.776-.086.949,1.811,1.983,1.38.69.776.172,2.07,1.121,2.587-.259.431-.862.431-.949.949.949,1.294,1.121,2.07,2.07,3.363-.172.345,4.312,3.881,4.139,4.484.69.345.6,1.725.259,1.725-.086.6.431.6.862.776a4.773,4.773,0,0,0,1.121,2.07c-.776,1.811.517,4.139.172,4.312-.086.517,1.207.517,1.207,1.121.172.6,6.468,7.848,6.209,8.882,1.207.6,3.1,6.468,2.932,7.33-.086.345-.086,2.846-.862,3.881-.517,0-.6-.431-1.207-.259-.949,1.552,1.639,9.486,1.552,10.952.345.517.862,1.466,1.294,1.639.172.862.172.69-.086,1.207a14.369,14.369,0,0,0,.776,2.673c.517,0,2.156.431,2.242.776.517.6,1.466.69,1.121.69,0,.517.259.862,0,1.38-1.035.259-.862-.69-1.466-.862.086-.172-2.242.086-1.552,0-1.035.345-.259,1.811.259,2.07-.259.259.776,2.587.517,4.053-.086.345.172,1.035-.259,1.121-.172.949.517,1.121.862,1.552-.172.6-.862.69-1.207,1.121.259.345-.517,1.035-.6.69-.69-.172-.431-1.207.259-1.552-.172-.862-1.811-5.26-1.9-5.433.69-.259-.776-1.552-.69-2.328-.776-.086-.69-1.121-1.552-1.121.086-1.207.086-1.639-.6-2.07.259-1.035.172-1.983.431-2.673-.172-.345.517-1.035,0-1.035-.086-.6-1.207-.259-1.207-.776.517.259,1.121.086.949-.69-.69-.69-1.035-2.846-.345-2.932v-.69a2.179,2.179,0,0,1-.517-1.466c-.431-.6-1.294-4.226-.862-5.347a10.171,10.171,0,0,0-1.121-1.552c-.69,0-.862.172-1.38-.086.086-.345.172-.6.259-.949-.69-.517-.862-.345-1.121-1.552,1.035-.862-.776-2.76.172-3.536.086-.517-.431-.345-.862-.345.172-.6-.6-.345-.517-.949-.086-.431.69-.086.517-.6-.086-.345-3.449-3.1-5.605-6.468a25.2,25.2,0,0,1-3.277-8.8,23.5,23.5,0,0,1-1.983-2.156c-.345,0-.345-.259-.345-.69-.345-.345-.6-.862-.949-1.207-.69,0-.345.517-1.121.259-.259-.69.517-.517.69-.69.086-.431-1.983-2.846-1.811-3.018-.259-.69-4.226-4.139-4.657-4.312-.172-.949.259-1.294.259-2.07-.6-.086-.345-.345-.517-.6-.517-.862-1.38.259-2.328-.517,0-.259.345-.172.345-.345-.172-1.035-1.466-.862-2.07-1.466.172-.517-.517-1.207-.6-1.983-2.587-.345-2.156-3.018-4.053-4.053-.086-.345.172-.345.086-.69-.086-.172-.431-.949-.949-.862a1.706,1.706,0,0,0-.6-.862c-.259-.69-1.38-1.983-1.207-2.07.086-.517-.517-.431-.345-.949-.776.086-1.121-.259-.949-.949a3.733,3.733,0,0,1-1.38-.086c-.086-.431.259-.431.345-.6-.172,0-.345-.69-.345-.69-.345-.345-.6-.172-1.121-.345a4.736,4.736,0,0,1-1.811-2.415c-.172-.345-2.07-2.328-1.983-2.415-.172-.776-8.451-6.123-8.8-6.209a17.121,17.121,0,0,0-1.725-1.811c-.086-.345.086-.431.086-.776-.172-.431-.862-.862-.949-1.207-.086-.172-.172-.172-.259-.345-1.207.345-1.9.086-2.156-1.121-1.552-1.121-10.521-6.9-10.866-6.468-.172-.259-10.262-5.174-10.78-6.727-1.811.172-2.932-1.466-4.139-2.328-.259.086-.776.259-.949,0-.259-.172.086-.431,0-.862-.345-.6-2.328-1.207-2.328-1.466-.69-.259-1.9-.6-2.415,0-.517-1.035-1.725-1.466-3.277-1.466,0-.69-.776-.431-1.207-.345-.431-.259-.6-.69-1.121-.862,0-.259.345-.172.259-.517-.259-.259-1.035-.086-1.466-.086-.172-.776-.69-1.035-.345-1.983-1.121-.259-2.156-4.484-.517-4.484.259-.259,3.277-1.725,4.053-.949.69-.345,1.121.776,1.207,1.38.776,0,0,1.552.6,1.725.776-.69,8.8,1.466,8.882,1.811.259.345,3.191,1.9,3.45,2.156a1.356,1.356,0,0,1,1.552,1.38c.172.172.517.172.776.345a6.971,6.971,0,0,1,.086,1.38,4.629,4.629,0,0,0,1.725.259C254.386,21.213,262.147,21.989,262.147,22.248Z" transform="translate(-31.781 -1.418)" fill="#d6ceb5" fill-rule="evenodd"/>
    <path id="Path_376" data-name="Path 376" d="M18.091,122.195c1.207.431-.517-3.1-.862-2.5-.949-.345-2.242-.345-2.328-1.552.345-.69,1.552.345,2.07-.345.259.172,1.38,0,1.466-.517-.086-.345-.345-.6-.345-.776.086-.949-1.121-1.466-1.121-1.639-.345-.517-.345-1.811-.086-1.811.69-.431.345-1.035.517-1.639-.517-.259-.345-2.415.431-3.536-.172-.6-.086-2.5.862-3.018v-.776c-.6.086-1.035,0-1.121-.431,0-.259.172-.431.517-.431-.086-.776.431-1.9.776-1.983,0-.517,1.121-.6,1.121-.949-.172-.259,0-.345.6-.517.517-.69-.259-1.983.776-2.415A4.711,4.711,0,0,1,22.92,95.72c-.172-.6,1.38-2.156,2.932-2.328,0-.259-.086-3.191-.345-3.277.086-.776-.776-1.639-.517-1.639.172-.517.259-.259.172-.6-.086-.431,1.121-.776,1.38-.776.6-.345,7.158,3.277,6.727,3.708a8.4,8.4,0,0,1-1.294.862c-.517,1.035-.345,2.673-1.38,3.191,0,.172-.517.6-.862.6-.172.6.172,1.035,0,1.035.172.6-.431,1.035-1.035,1.121a27.488,27.488,0,0,1-2.673,5.347,11.009,11.009,0,0,0-.172,1.466c-.69,2.932-1.725,3.967-2.415,6.813a8.714,8.714,0,0,1-.259,1.466,20.182,20.182,0,0,0-.776,2.07,8.769,8.769,0,0,1-1.294,3.536,9.158,9.158,0,0,1-.431,2.932c0,.431-.6.6-.517,1.035-.172.345.086,1.121-.431,1.035a3.812,3.812,0,0,1-.172,1.294c-.6.517-.345,1.38-.172,1.38-.086.259-.517.862-.949.776,0,.345-.6,1.035-.517.69-.172-.259-.776-.345-1.121-.517-.345-.086.172-1.466-.172-1.466.086-.431-.172-.517-.345-.776C15.762,124.7,17.918,123.316,18.091,122.195Z" transform="translate(-2.025 -11.937)" fill="#e3decd" fill-rule="evenodd"/>
    <path id="Path_377" data-name="Path 377" d="M46.259,279.663c.172.259.6.345.6.6a2.292,2.292,0,0,1,1.38,1.725c.172.345.69.345,1.207.345.086.517.776.517.69,1.121.69-.172.862.086.949.69-.69.6-2.07-.086-2.07,1.38,2.156-.949,4.571,1.639,4.657,1.983.431.172.776.345.6,1.121.172.6,1.466.172,1.207,1.207,1.294,0,1.725.862,2.587,1.207.086.345,2.242,1.207,2.587,2.328a7.241,7.241,0,0,1,3.794,2.932c1.121.345,1.639,1.294,2.846,1.552.431,1.207,1.9,1.466,2.328,2.846,3.794,1.725,12.936,12.159,13.194,12.159.086.086,2.156,1.552,2.587,1.811,1.983,1.38,6.727,5.174,6.985,5.174-.086.259,11.556,4.571,11.642,4.139a7.6,7.6,0,0,1,2.156,1.9c0,1.121,1.207.431,1.207.259,1.035-.172,3.191,4.743,2.673,4.916-.259,0-.259.345-.259.6-.6-.69-1.207,3.536-1.207,4.053-.086.431-1.811,1.466-2.156,1.552-.086-.172-2.587-.517-4.139-1.207A3.7,3.7,0,0,0,99.64,334.6a20.009,20.009,0,0,0-3.191-3.622,1.944,1.944,0,0,0-1.983-1.121c0,.517-.6.345-.69.69-.172-.259-.949-.69-.6-.69a.521.521,0,0,0,.259-.517c-.259-.431-2.242-.6-2.328-1.38a10.554,10.554,0,0,0-1.983.862c-.517-.431-1.207-1.121-.949-1.811a6.738,6.738,0,0,1-3.191-.517c-.086-.6-1.552-1.294-1.725-1.207,0,.345-1.207.431-1.725.086-.172-.69-.259-1.294-.517-1.38-.6-.862-1.811-1.121-2.932-1.466v-.69c0-.259-.345-.259-.517-.345a16.889,16.889,0,0,0-1.725.259,1.537,1.537,0,0,1-.517-1.121c-.776.086-2.328-.69-2.328-1.121-.862.172-.776-.6-1.725-.345-.345,0-1.725.431-1.811-.517-.345.086-1.207-1.207-1.811-1.38-.086-.345.345-.259.259-.6-.172-.949-2.328-.69-2.328-1.38.086-.517-3.018-2.5-3.45-2.415,0-.69-1.121-1.38-1.121-1.725,0-.6-1.38-.862-1.725-.69-1.38,0-1.725-1.035-2.846-1.552,0-.431-.345-.6-.345-.949a.941.941,0,0,1-.862-.69c.086.086-.6-1.035-.949-.69-.517-.172-.517-.949-.862-.949,0-.345-1.121-1.639-1.121-2.328a3.024,3.024,0,0,0-1.207-.517c0-.259-.259-1.121-.6-1.121-.345.345-1.639-1.466-1.552-1.811,0-.172-.862-.69-.949-.949-.862-.6-.6-1.725-.6-1.983.172-.517-.345-.517-.259-.949-.949-.086-3.967-4.571-3.881-5.088s-.6-.259-.517-.776c-.345.086-.776.086-.949.259-.172,0-.086-.345-.086-.517-.949-.086.517-1.725,1.38-1.811v-.6c-.345-.431-1.294-.345-1.38-1.121a.714.714,0,0,0,.862-.345c-.259-.69-1.466-.345-2.156-.517-.345.431-.431-.345-.259-.862,0-.345-.086-.517-.345-.517.259-.6-.776-2.415-.6-3.622-.172-.6.259-1.121-.086-1.811.172-.259.69-.172.69-.517-.086-.949-2.5-1.38-1.811-2.07-.086-.345,2.328-1.207,2.415-.949,1.035.172,1.725.862.862,1.725.086.776,1.207.517,1.207,1.38C43.413,277.852,46.173,279.318,46.259,279.663Z" transform="translate(-5.184 -37.807)" fill="#d6ceb5" fill-rule="evenodd"/>
    <path id="Path_378" data-name="Path 378" d="M183.837,341.14c-.259.517-1.035-.172-1.466-.345a2.95,2.95,0,0,0-.086-.949c-.431.172-.431.69-1.207.517-.345-.517-5.95,2.5-5.778,3.018.172,1.38,5.95,1.811,6.727.862.345-.086.6.517.862.086a8.952,8.952,0,0,1-.345-1.121c.259-.345,1.466-.6,1.811-.086.086.431,2.673.69,2.846.259.949-.345,1.983.431,2.587.862.345-.776,1.294-.345,1.811-.086.69-.345,1.121-.949,1.983-1.207.517.172.517.862,1.466.6.086-.776,1.035-.6,1.207-1.207.431.172.862-.345,1.121,0,0,.6.431,2.328.776,2.328a14.062,14.062,0,0,0,3.794-.086c.172.517.345,1.121.517,1.725,1.9.086,3.449-1.121,4.743-1.983.431.086,1.121.431,1.466.259.776-.086.776.6,1.552.517a3.56,3.56,0,0,0,.6-.949c-.345-.431-.862-.69-.949-1.38.086-.431.949-.172,1.207-.517-.086-.172-.431,0-.345-.345.69-1.121,2.156-.517,3.191-.259.086,1.035-.259,1.552.259,1.811a3.688,3.688,0,0,1,2.415-.776c-.086.431.862.517.862.259-.6-1.38,2.932-3.363,2.587-1.38.6.69.776-.431,1.552-.259a36.762,36.762,0,0,0,3.881-2.07c.086-.431,2.5-3.363,3.622-3.45.431.172.6.69.6,1.38,1.294.086.69-1.639,1.552-1.983a1.349,1.349,0,0,0,1.121.345c.259-.69-.431-.517-.345-1.121.69,0,1.38-.517,1.983,0,.259-.345.776-.431.949-.862,0-.517-.345-.6-.345-1.121.69-.172,1.466.776,1.466,1.121,1.207-.345,1.639.517,2.932.259.086-.517-.776-.086-.6-.69.259-.345,1.466,0,1.466.086.776,0,1.38-.259,2.156-.259a12.076,12.076,0,0,1,.862-1.38c.345.086,2.846,0,3.449-.862,1.38.345,1.811,0,3.018-.259,0-.345-.431-.259-.259-.69,1.207.172,1.466-.776,2.673-.6.259.259.776.431.862,0a8.373,8.373,0,0,0,2.846-2.415c.776-.345,1.9-1.725,2.07-1.725.259,0,2.156-.862,2.328-1.38a3.024,3.024,0,0,1,1.38-.259c.172-.776,1.121-.6,1.725-.949a4.121,4.121,0,0,1-.517-1.552c.862-.086.862-1.207,1.983-.69.6-1.207,2.587-.6,3.536-.086.69-.517,1.035-1.294,1.725-1.811.345,0,.172-.431-.086-.517-.086-.6-.69-.69-.949-1.121,0-.345-.086-.69.259-.69a3.685,3.685,0,0,1,1.725.517c.6-.862,1.466.086,2.328.086.172-.431.259-.172.086-.69,1.207-.172,4.053-3.45,4.4-4.053,1.035.172,1.639-.431,1.983-1.38.517,0,.431-.69.6-1.811a21.059,21.059,0,0,0,2.07-.862c.431.086,2.07-1.466,3.191-1.121a1.242,1.242,0,0,1,.862-.517v-.69h-.862c.172-.6-.431-.345-.6-.6a3.616,3.616,0,0,1,.345-1.38c.345-.259,1.035,0,1.121-.517-.086-.345-.431-.6-.345-1.121,1.121-.431,2.328-1.639,3.536-1.466-.172,1.207.949,1.207,2.156,1.38.086-.345.345-.517.345-.862a1.537,1.537,0,0,1-.517-1.121c.259-.259.862-.086,1.38-.086v-.517a3.029,3.029,0,0,1-1.466-1.466c.172-.345,1.121-.345,1.466-.086,0-.862.776-1.035,1.552-.862.517-.172.69-.776,1.207-1.207.69-.517,1.552-.517,1.121-1.207-.517-.776-1.466-1.035-1.466-2.328.345-.086.431-.345.345-.517-.345-1.552,1.9-1.207,2.07-.345-.259.431-.086.949.345.949.259-.259-.086-.517,0-.949h.862c0-.517.086-.776.345-.949-.862-.172-.259-.949-.086-1.466-.6.086-1.035-.086-1.207-.517.345-.69-.259-.69-.259-1.38.862-.172,1.38.345,1.983.345-.086-.431-.6-.431-.345-1.121h.69c-.517-1.035-2.156.345-2.415-1.121a3,3,0,0,1,1.121-.949c.776,0,.69.862,1.466.862.345-1.121,2.5,0,2.846-.949.086-.259-.517.086-.345-.345.517-.517-1.552-.172-3.277-.862,0-.259.172-.259.086-.517-1.207-.431-.517-1.9-1.552-1.466-1.207.517-2.673.776-2.415.949-.259.776-1.207.6-1.811.517,0,.6,0,1.035.517,1.121.431,1.121,2.156.259,2.932,1.121-.086.345-.517.431-.949.345.172,1.294-.776,1.207-.345,2.415-.776.259-1.552-.172-2.415-.259-.431.345-.517,1.035-.862,1.466-1.035-.086-1.725.6-2.415-.086.086.345-.259.259-.259.517.345,0,.517.086.517.345,0,1.38-1.639,1.207-1.725,1.725,0,.259-.345.259-.6.259,0,.949-.6,1.294-.259,2.328a2.692,2.692,0,0,1-2.328.6c-.345.862-1.294,1.035-2.415,1.121,0,1.207-.949,1.811-.69,2.846-.517.086-1.035.259-1.552.345-.086,1.207-1.983,1.639-1.983,2.156-.517.517-.776,1.294-1.552,1.466a13.225,13.225,0,0,0-1.811-1.207c0,.259-.086.259-.345.259.086.431-.259.6-.086,1.121a3.392,3.392,0,0,1-2.07,0,2.4,2.4,0,0,0-.086,1.38c-.259,0-.431.172-.862.086v.69c-.431-.086-.6.259-1.121.086.086.862-1.38,3.191-1.466,3.794-.345.517-1.9.517-1.983-.259-.431,0-.6.345-1.121.259.172.345.431.6-.086.69.086.431-1.121.69-1.725.345-.259.259-.949,1.121-.862,1.38-.259.086-.259.431-.69.345.086,1.9-8.02,4.657-8.538,4.657-.086.345.345.259.259.776a4.972,4.972,0,0,1-2.328.259c-.431.862-7.5,2.415-7.675,3.191a12.837,12.837,0,0,1-3.018,1.983c-.086.776-.862.086-1.38.086-.862.517-1.121,1.552-2.328,1.725a1.128,1.128,0,0,1-1.207,1.38c0-.6-.517-.776-.862-.949-.172.431-.949.259-1.38.517,0,.345,0,.6-.259.69-1.294-.086-2.76.086-3.277,1.121-1.811.086-4.743,3.536-5,3.536-1.035.086-1.466-.69-1.552-.259-.776.431-1.294,1.725-2.07,1.811-1.121-.345-1.552-1.38-2.846-1.552a1.372,1.372,0,0,1-1.983.949c0,.517-.345.69-.517.949a7.89,7.89,0,0,1-1.466.086c-.172-.431-1.38.172-1.725.6-1.207.086-1.725-.431-2.846-.517-.259.431-7.761,1.811-8.451,2.587-.517.086-.345-.431-.862-.345a2.058,2.058,0,0,1-1.552.862,1.474,1.474,0,0,1-.862,1.207,4.858,4.858,0,0,0,0,1.121c-.776.431-1.294-.172-1.811-.345a1.075,1.075,0,0,1-.345.949c-.949-.345-1.725.69-2.673.345.259.086.172,1.035-.086.949-.431-.086.259.6.086,1.38-.259.6-1.466.431-1.38-.345-.517-.172-1.121-.259-1.207-.862-.517-.172-.517.345-.949.259-.259-.345.949-1.207.259-1.38,0-.259-1.294,1.121-2.415.69-.086.345-.862.345-.862.259C187.2,339.329,184.872,339.329,183.837,341.14Z" transform="translate(-24.099 -38.572)" fill="#e0dbcb" fill-rule="evenodd"/>
  </g>
</svg>
