<svg preserveAspectRatio="none" clip-rule="evenodd" fill-rule="evenodd" stroke-linejoin="round" stroke-miterlimit="2" viewBox="0 0 1648 117" xmlns="http://www.w3.org/2000/svg"><path d="m1167.81 115.143c.354.001.421.658-.033.907h-.648c-.329-.249-.55-.906-.195-.907zm22.013.907c-.059-.111-.107-.244-.141-.401-.437-2 3.5-1 3.5-1l.002-.006c1.75 0 3.5-.501 3.936.006.875.5.875.5 0 1-.203.181-.44.317-.694.401h-.992c-.881-.222-1.782-.357-2.689-.401 0 0-.255.194-.618.401zm10.511 0c-.935-.071-1.465-.193-1.465-.401.003-.502.377-.93.875-1l.002-.006c1.313-.501 15.75-.501 16.186.506 0 .5-.437.5-.875.5-.313 0-2.406.255-5.169.401zm56.732-.904c.706.001.556.653.011.904h-8.983c-.581-.149-1.113-.46-1.529-.904zm-37.037-.501c1.591.03 1.578.504 1.155.504-.192 0-.383.096-.574.204l-.165.093c-.191.108-.382.203-.573.203-.494.064-.987-.124-1.312-.5-.438-.5 0-.5 1.312-.5l-.001-.006zm3.781.004c-.875.5.438.5 3.063.5 6.125.5 8.75.5 7.875-.5-.002-.006-9.627-.507-10.94-.006zm-39.375 0c-1.312 0-7-1-10.5-1s-3.5 1.5-2.625 1.5c3.056.273 6.13.273 9.187 0 8.75 0 8.312 0 7.438-1-.439.494-1.751.494-3.501.494zm56.874-.5c-1.613.07-3.22.237-4.812.5-.437 0 1.312.5 3.5.5h4.813c.436-.006-1.314-1.007-3.502-1.007zm157.06-3.01c-28.875 0-63.437-.5-75.687-1-14.437-.5-160.123-1-160.561-.5-.437 1 6.562 1 45.5 1.5 21 0 40.249.5 42.437.5 7 .5 14.875.5 27.125.5h57.751c.902-.041 1.801.13 2.625.5 1.312 0 13.562.5 27.562.5s25.375.5 25.375.5h31.938c29.75 0 33.687 0 32.375-1.5-.003.001-26.253-1-56.44-1zm-1173.8.5c.437.5 8.75 2.5 10.062 1.5 1.223-.617 2.567-.958 3.937-1v-1c-3.934-.5-15.312-1.501-13.999.501zm1232.86.499c-.437.5.438 1 2.188 1s2.187-.5.875-1c-.367-.471-.932-.748-1.53-.748s-1.164.277-1.53.75zm-1217.11-.995c0 .5.438 1 1.313 1s14.875 2 15.75-.5c1.311-2.005-16.627-1.004-17.064-.504zm-34.126-.004c.437 1 6.125 1 6.125 0 0-.5-1.312-1-3.5-1-1.75-.501-3.062.5-2.625 1zm16.188.01c-1.113-.5-2.388-.5-3.5 0-.875.5 0 .5 2.187.5 1.75-.009 2.187-.51 1.312-.51zm-22.748-.51c1.414-.503 2.959-.503 4.374 0 .875.5 0 1-2.187 1s-3.499-.5-2.187-1zm14 .5c-.437.5.437.5 1.312.5 1.312 0 1.75-.5.875-1-.44 0-1.752 0-2.187.5zm-206.214-111.139h1639.66v37.177c-.733-.039-1.53-.078-2.402-.122-2.05-.048-4.095-.215-6.125-.5-.875-.5-7-.5-8.75.5-.875.5-.875.5.438 1 .875 0 2.625.5 3.937 0 1.313 0 2.625 0 3.063.5 1.251.477 2.504.499 9.839.935v4.245c-2.39-1.204-3.557-1.29-7.65-1.68-3.233-.039-6.454-.373-9.625-1-4.375-.5-19.687-.5-19.687 0-.405.242-.849.411-1.312.5-.875 0-1.75 0-1.75.5s-7 .5-17.5.5c-15.312 0-19.25 0-16.187 1 .438 0 3.937.5 7.437.5 3.956.047 7.904.381 11.813 1 3.629.417 7.284.584 10.937.5h9.187c3.937 0 18.375.5 20.125 1 .574.219 1.232.342 1.9.453l.574.094c.668.112 1.327.235 1.901.453 1.392.265 5.736.952 9.837 1.614v2.276c-2.498-.496-4.922-.863-6.338-.863-.877.492-.439 2.492.436 2.992l.001.008c1.313 1 3.063.5 4.375 1 .53.101 1.042.141 1.526.144v1.973c-.863.039-1.57.163-1.964.388-.875.5-.875.5.875.5.364.034.728.08 1.089.138v11.332c-7 .013-7.862.12-9.398.998-1.312 1-1.75 1.5-.875 2 .869.687 1.955 1.041 3.062 1 1.407.202 2.752.715 3.938 1.5.192.11 1.423.196 3.273.268v25.103c-4.461.361-11.48.447-18.147.129-16.187-.5-16.187-.5-15.75.5s-.438 1-.875 0-3.062-1-22.312-1c-27.125-.5-47.687-.5-52.062-1s-55.994-.5-61.249 0h-3.937c0-.5-6.562-.5-14.875-.5s-21.875 0-30.187-.5c-28.437-.5-34.125-.5-35 0-.437.5-1.312.5-2.187 0s-10.062-1-33.25-1c-17.5 0-32.812-.5-33.25-1-.875-.5-1.75 0-2.625 0-.959.5-2.104.5-3.062 0-2.188-.5-5.687.5-5.687 1 0 2 1.749 1.5-56.875 1h-39.817c-.876.001-1.312.5-.875 1 0 .5 0 1-.875 1s-.875-.5-.875-1 0-1-.875-1-1.312 0-.875 1c0 .5-.438 1-2.625 1-3.062 0-3.937.5-3.937 2s.875 1.5-13.125 1.5c-7 0-11.375.5-11.812.5 0 .5-2.187.5-5.687.5s-5.687 0-5.687.5 0 .5-.437 0c-1.312-1-24.5-.5-26.687.5-.103.059-.23.111-.378.156.375.474.355.926-.061.926-.244-.005-.441-.207-.441-.451 0-.016.001-.032.003-.049l-.001-.004c0-.115.005-.217.016-.307.18-.033.342-.071.484-.115-.02-.025-.04-.049-.061-.074-.001-.446-.344-.498-.423.189-1.24.229-3.34.229-5.7.229-6.562 0-50.312 1-63.437 1-21 0-72.186 2-100.186 2h-110.253c-47.643-.495-100.002-.01-98.498-2.911.023-.028.043-.057.062-.089-.027.03-.047.06-.062.089-.143.18-.362.287-.594.287-.27 0-.52-.143-.656-.376-.875-.5-3.062.5-2.625 1v.5c-.438 0-.438-.5-.875-1 0-.5-.875-1-3.062-1-1.312 0-7.875 0-8.312-.5s-2.187 0-2.187 1c0 .5.438 1 1.313 1 2.187 0 7.875.5 7.875 1.5-.34.644-1.024 1.035-1.75 1-2.187 0-5.687-.5-8.75-.5s-7 0-8.312.5c-1.312 0-4.812.5-7.875.5s-14-.5-24.937 0c-30.625.5-33.25-4-34.562-3.5-1.75.5-1.312 2 .875 3 3.062 1.5 2.625 2-1.75 2-1.613-.069-3.221-.236-4.813-.5-1.082-.103-2.128-.444-3.062-1-1.75-1-3.062-1-4.375.5-.437.5-36.749.5-52.5.5h-33.25c-5.25 0-74.812-1-101.5-1.5l-13.125-.5-1.313 1.5c-1.312 1.5-1.75 1.5-6.562 1.5-2.625 0-5.25 0-5.25-.5s-20.125-.5-36.75-1c-5.687 0-15.312-.5-21.437-.5s-13.562-.5-17.062-.5-9.187-.5-12.687-.5-15.312-.5-25.812-.5-19.687-.5-20.125-.5-17.937-.5-23.625 0c-1.762-.005-3.519-.173-5.25-.5-2.625 0-12.687-.5-22.312-.5-31.5-.5-61.249-1-66.5-1.5-3.062 0-6.562-1-8.75-1.5-2.44-.578-4.932-.913-7.437-1-2.625 0-3.937 0-3.937-1 0-.5-19.687-.5-20.562-.5-16.625 0-16.625 1.5-20.562 1-1.591-.505-2.773-1.856-3.062-3.5 0-2.5 23.625-1 23.625-1 1.75-1 15.312.5 14.437-3s-15.75-1-16.187-1.5c-.875-.5-1.75-1.5-2.625-1.5-1.75 0-4.375-1-4.375-1.5 0-1 1.312-1.5 3.5-2s3.062-1.5 1.75-1.5c-1.052-.23-2.078-.565-3.062-1-2.625-1-15.75-1.5-37.187-2-10.062 0-13.125 0-13.125.5-.437 1-6.562 1-11.812 0-2.187-.5-8.75-.5-14.875-1-19.25-.5-25.375-1-28.437-1.5-1.75-.5-3.062 0-3.062-.5l-5.25-1c-12.687 0-25.812 0-28-1-.047-.024-.092-.049-.137-.075v-4.313c1.518-1.316 3.394-2.779 2.324-4.619-.154-.175-1.119-.475-2.324-.832v-12.342c3.645.595 8.279 1.003 8.012-.831-.483-1.654-4.426-2.701-8.012-3.306v-8.664c.24-.833.432-1.679.575-2.535.279-.638.201-.869-.575-.952v-1.857c.893-.055 1.287-.505 1.887-1.191 1.218-1.585 1.389-3.748.437-5.506-.35-.464-.644-.967-.875-1.5 0-1 3.5-2.5 5.687-2.5h2.187s10.5 2 8.75-1-16.187-3.5-17.5-3.5c-.209 0-.4 0-.573-.001v-3.599c.475.066.961.1 1.448.1 2.625 0 3.062-1.5 2.187-4.5-.437-1.5-.875-3-1.75-3.5-1.312-1.5-.875-2.5 1.312-2.5 1.352-.147 2.678-.483 3.937-1 1.258-.516 10.5 2 10.062.5-.875-2-9.625-2-9.625-2-.437-2-2.187-2-3.062-2-.614-.033-1.212-.204-1.75-.5 0-.5-1.312-1-2.625-1.5-.045-.01-.09-.021-.134-.032v-2.835c2.264.953 6.278 1.845 6.697 1.367.154-.176.473-.79.723-1.532zm176.027 110.139c-2.187 0-4.375-1.5-5.687-1.5-1.024.178-1.953.709-2.625 1.5-.437.5-.437.5 7 1 11.375.5 11.375.5 11.812 0 .253-.274.407-.627.437-1-3.642.275-7.299.275-10.94-.001zm1377.23-3.505c-1.741.255-3.493.422-5.25.5-1.472.024-2.937.191-4.375.5 3.148.828 6.373 1.331 9.625 1.5 4.375 0 42.874 3 42.437-.5-.875-3.001-40.683-2.5-42.437-2zm-402.058 3.003c-.437.5-.437.5.438.5.487.019.961-.161 1.313-.5.436-.5-.877-.5-1.751.001zm-402.495-.994c-.342.06-.651.237-.875.5 0 .5.438.5.875.5.341-.059.65-.236.875-.5-.439-.507-.439-.507-.876-.507zm714.429-3.511c.438.5-3.5 1.5-7 2-1.75 0-6.125.5-9.187.5-4.375 0-6.125.5-6.125 1-.437.5-.875.5-1.75.5-3.062-1-5.687-1.5-5.687-1 0 0-1.312.5-3.062 1-2.625.5-3.062 0-3.937-.5-.87-.686-1.956-1.041-3.062-1-3.5 0-3.938-1-.438-2 2.188-1 4.375-1 10.937-.5 15.312.5 19.687.5 21.875 0 1.314-1 6.998-.5 7.436.001zm-716.18 1.502c-.437 0-.437.5-.437 1-.002.017-.003.033-.003.049 0 .244.197.446.441.451.438 0 .438-.5.438-1 .436-.5-.002-.5-.439-.5zm787.054-1.002c-2.625-.5-8.75 1-21.875 1-10.937 0-21.437-1-22.75-1.5-2.188-.5-11.813.5-16.625.5-.437 0 0 .5.875 1 1.313.5 1.75.5 2.625 0 .957-.505 2.105-.505 3.063 0 .875.5 3.5.5 5.687.5 5.25 0 11.375.5 11.813.5 0 0 8.312-.5 17.937 0 21 1 21.875 0 21.437-.5.001.503-.875-1.499-2.183-1.499zm-143.936-1.5c-1.765.063-3.53-.105-5.25-.5-2.187-.5-10.5-1-14.875-1-.875 0-1.312 0-1.312.5s-.875 0-1.75-.5c-1.312-1-1.75-1-2.625 0-.438.5-.875.5-.875 0s-2.187-.5-4.812 0c-6.125.5-6.562.5-8.75-.5-2.187-.5-20.562-.5-28.875.5-1.046-.079-2.096.092-3.062.5-.875 0-1.312.5-.875.5 0 .5 2.187.5 4.813.5 2.188 0 7 .5 10.5.5 4.813.5 24.937 1 58.187 1 .626.072 1.256-.108 1.75-.5.875-.5.875 0 .875.5s0 1 .875 1c2.187.501 3.062.501 2.625 0 0-.5-.875-.5-1.312-.5-.875 0-.875-.5-.875-1s-.877-1-4.377-1zm77.874.498c-3.062-.5-4.375.5-2.187 1.5 2.625 1 5.25 1 5.687 0 .111-.109.174-.26.174-.416 0-.321-.263-.584-.584-.584-.009 0-.018 0-.027 0-1.008-.238-2.032-.405-3.063-.498zm-68.25.502c0-.5-1.312-.5-2.625-.5s-2.625 0-2.187.5 4.813 3.504 4.813.001zm18.376 1c.001-.016.002-.032.002-.049 0-.243-.196-.445-.439-.451l-.438.5.438.5c.437.002.437.002.437-.498zm-5.687-1.002c0-.5-.438-1-1.312-1-.437 0-1.312.5-1.312 1s.438 1 1.313 1 1.31-.497 1.31-.997zm3.5 0c0-.5-.438-.5-.875-.5-.342.06-.651.237-.875.5 0 .5.438.5.875.5s.874.003.874-.497zm-8.313 0c0-.5-.875-.5-1.312-.5-.342.06-.651.237-.875.5 0 .5.438.5 1.313.5s.874.003.874-.497zm-3.501.002.001.001c.44.5 0 .5-.001-.001-.875.5-1.312.5-.875 0zm-120.311-1.5c.046-.005 9.206-1 16.625-1 5.25 0 10.063 1 9.625 1.5-.875 1.5-26.25 0-26.25 0-2.601.504-5.274.504-7.874 0-.875 0-1.749-.499-1.313-.5zm-58.623-1.5c.243.007.439.208.439.451l-.002.047c.437.502-.001 1.001-.875.502-.487.019-.962-.162-1.312-.5.224-.263.533-.44.875-.5zm.437.498v.002zm-16.188-4.005c.001-.016.002-.032.002-.049 0-.243-.197-.445-.44-.451-.437 0-.437.5-.437.5l.438.5c0 .502.437.001.437-.499zm421.747-42.043c.001.5.875.5 1.75.5s1.313 0 .438-.5c-.877-1.001-2.627-1.002-2.189 0zm-78.75-15.017c0-1-5.687-1.5-19.687-1.5-7.875 0-9.625 0-9.187.5s8.312 1 21.875 1.5c5.686.001 6.999.001 6.999-.499zm-34.125-4c0-.5-3.5-.5-8.312-.5-3.5 0-4.812 2-2.625 2.5 3.063 1 10.938.5 10.938 0zm72.625 1.998c0-.5-1.312-.5-2.625-.5h-3.937c-5.687-1-10.062-1-10.937 0-.875.5-.437 1 1.75 1 4.811.001 15.748.001 15.748-.499zm-38.062-1.498c0-.5-.875-.5-2.625-.5-1.312 0-7 0-12.687-.5-10.062-.5-18.812 0-16.187 1 .875 0 4.812.5 9.625.5 4.375 0 8.313 0 8.313.5.435.499 13.56-.502 13.56-1.003zm18.812.498c0-.5-10.5-1-11.812-.5-1.75.5.875 1 6.125 1 3.937 0 6.124 0 5.687-.5zm-72.187-.998-1.312-.5c-2.187-.5-10.062-.5-10.062 0s3.063 1.5 6.125 1.5c1.369-.041 2.713-.382 3.937-1zm-59.501.499c0-.499-.438-.499-.874-.499-.487-.018-.962.162-1.312.5 0 .5.438.5.875.5.877-.002 1.311-.002 1.311-.501zm-6.124.001h-1.309c-.438.001 0 .5.438.5 1.309-.503 1.309-.503.871-.503zm-7 0c0-.5-.438-.5-.875-.5-.342.06-.651.237-.875.5 0 .5.438.5.875.5s.876-.002.876-.503zm59.937-1c-.875-1-14-1.5-14-.5s.875 1.5 7.875 1.5c5.688-.504 7.001-.504 6.125-1.004zm-46.813.999.001.001v-.003zm31.937-1.502c-.019-.502-3.939-1.494-4.811-.497-.437.5-1.75.5-3.5.5-3.5-.5-3.063.5.438 1 3.062.501 5.25.501 6.562 0 .485-.266.927-.604 1.311-1.003zm-10.937.003c-.439-.5-3.5-.5-3.936-.5-.437.5.875 1.5 1.75 1 .438 0 1.312-.5 1.75-.5.002.495.434.496.436 0zm10.937-.003.001.003.001-.005zm-10.937.003h.001v-.005zm164.938-34.041c-12.25-1-17.062-1-16.625 0 .875 1 3.063 1.5 14.875 2 6.125 0 10.937.5 11.375.5 1.029-.107 2.051-.273 3.062-.5 2.187-.998 1.312-.998-12.688-1.999z" fill="#56B799" fill-rule="nonzero"/></svg>