<svg preserveAspectRatio="none" clip-rule="evenodd" fill-rule="evenodd" stroke-linejoin="round" stroke-miterlimit="2" viewBox="0 0 1485 45" xmlns="http://www.w3.org/2000/svg"><path d="m109.394 4.938c.794-.342 1.121-.638 1.121-.768 0-.18 1.664-.361 5.409-.361 8.737 0 47.845-.361 50.757-.541 1.248 0 7.489-.18 13.313-.18 3.887.077 7.775-.043 11.649-.361 1.935-.203 3.882-.264 5.825-.18h6.241c.832 0 3.744 0 7.073-.18 3.328 0 10.4-.18 15.81-.361s10.815-.204 11.647-.204 4.576 0 9.153-.18c8.321-.361 15.393 0 25.378-.18 3.744 0 8.737-.18 10.817-.361 2.5 0 13.729-.18 25.379-.18 20.386 0 21.218-.541 22.882 0s2.08.541 7.489.361c3.328 0 7.073-.18 9.153-.361 1.664 0 4.576 0 6.241.18 4.576.541 10.4.541 9.569 0-.416-.361 4.992-.541 11.233-.361 2.912 0 5.824.18 6.241.18s2.08-.18 3.328-.18c2.216-.181 4.442-.181 6.657 0 2.08.18 5.409.18 7.9.361 3.744.18 4.16 0 5.409-.541s2.083-.538 4.995-.538c1.672-.019 3.341.102 4.992.361 1.664.361 4.16.541 4.16.18 0-.541 2.912-.541 6.241-.18 3.744.361 9.985.541 11.649.18.962-.182 1.95-.182 2.912 0s1.95.182 2.912 0c1.102-.187 2.227-.187 3.328 0 1.664.2 3.349.139 4.993-.18 1.785-.366 3.625-.366 5.409 0 1.664.18 6.24.361 21.218.18 29.539-.18 128.973-.18 133.133 0 2.08.18 5.824.18 8.321.361 14.978.361 20.8.361 23.3.361h32.867c.421 0 6.66 0 13.313.18 6.656.18 20.386.18 29.955.361 22.05.18 41.6.361 42.02.541 0 0 0 .361-.832.541-1.248.361-7.073.361-24.546 0-3.744 0-20.386-.18-37.028-.361-26.211-.18-42.02-.361-44.932-.361-.416 0-3.328 0-5.825.18-4.992.18-6.24.18-11.233 0-.972-.155-1.966-.094-2.912.18 0 .18-.832.18-1.248.18-.416-.18-7.489-.18-15.81-.18-13.729 0-14.977.18-16.642.541-1.483.439-3.031.622-4.576.541-2.087-.078-4.176.043-6.241.361-.973-.003-1.945-.063-2.912-.18-3.744-.361-57.414-.541-58.662-.18-.832.361-5.409.361-30.371.541-12.065 0-23.3.18-24.962.18-1.248 0-3.744 0-5.408.18-1.122-.086-2.25.036-3.328.361-.832 1.082 4.576 1.624 6.241.722 1.248-.541 2.08-.541 5.409-.18 4.276.578 8.586.879 12.9.9 1.39-.063 2.782-.003 4.16.18.832.18 20.8.361 60.742.361 32.867 0 75.719.18 96.106.18 19.97 0 42.852.18 51.173.18 7.9 0 14.977.18 15.81.18 1.247.091 2.498.091 3.744 0 1.66-.18 3.334-.18 4.993 0 2.5.18 12.9.361 19.97.18h16.642c8.643 0 18.099 0 21.524-.174-9.863-.025-14.496-.191-14.88-.358-.416-.181-.416-.361 0-.361.832-.18 21.218-.36 22.05-.18.82.187 1.663.248 2.5.18 1.248.18 2.08-.001 2.08-.361s.416-.36 2.08-.18c.832 0 2.496.18 3.744.18.838-.047 1.678.014 2.5.18.416 0 2.08.18 4.16.18v-.003c4.042-.135 13.192.033 18.947.279-19.285.088-37.203.234-43.071.438l-.11.006c.828.002 1.692.003 2.594.003 9.153 0 22.466.18 29.123.361s12.9.18 13.729.18 2.5-.18 3.328-.18c2.912 0 2.08-.361-1.248-.541-.839-.092-2.398-.184-4.345-.267 14.898-.069 30.613-.103 42.217-.103h18.722c3.328 0 6.657 0 7.9.18 1.242.182 2.503.182 3.744 0 1.652-.258 3.328-.318 4.993-.18h47.844s.236.006.674.016c-.233.024-.462.081-.679.17-.264.109.004.179.42.179l-.004.001c.286-.01.568-.071.832-.18 0-.096-.118-.141-.229-.162l-.34-.008c.051-.005.102-.008.153-.01 0 0 .091 0 .187.018 2.167.05 7.575.156 13.964.156h27.875c2.912 0 6.24 0 7.9-.18 1.664 0 4.993 0 7.489.18s6.657.18 9.153.18c4.078-.055 8.663-.077 13.553-.069.072.001.14.001.207 0h-.207c-.575-.005-1.325-.046-2.317-.107l-.001.001c-2.495-.18-2.912-.541-1.666-.903.681-.184 1.399-.184 2.08 0 .825.15 1.663.21 2.5.18 1.248 0 1.248.181 1.248.361-.256.334-.672.462-1.637.468 3.729.006 7.633.029 11.621.066v.011c.32.278 2.904.233 3.847.029-1.289-.015-2.572-.028-3.847-.04.001-.176.009-.354.416-.53 1.256-.262 2.563-.136 3.745.361v-.003c.093.081-.042.153-.314.212 2.298.026 4.614.056 6.932.091-.015.021-.003.042.039.06.217.094 3.141.09 6.012.039-2.011-.036-4.032-.069-6.051-.099.131-.19 2.37-.481 4.615-.481h4.993c2.08 0 2.496.181 2.08.361l-.001-.003c-.398.088-2.995.175-5.636.222 2.312.041 4.612.086 6.882.134 5.824.18 36.2.361 49.092.361 1.665 0 19.138-.361 24.547-.361 1.534.047 3.069-.074 4.576-.361.397-.18.852-.18 1.248 0 .416.18 4.993.18 9.985.361 5.409 0 12.9.18 17.474.18 19.138.541 24.546.541 47.012.722h10.817c.838 0 19.141 0 40.772.18 38.276 0 73.223.361 94.441.541 17.058.18 73.639.18 83.208 0 3.898-.153 26.5.085 33.124.159v2.879c-.313.001-.541.01-.673.029-1.248.361-1.664.361-2.08 0s-8.321-.541-14.561-.361l-3.745.18 2.08.541c1.664.541 1.664.541.832.722-.685.133-1.382.193-2.08.18-.832 0-.832 0-.416-.361.832-.541 0-.722-3.744-.541-2.08 0-2.912.18-2.5.361 0 .18-.416.361-.832.541-.832 0-1.248.18-1.248.361s-1.248.18-2.5.361c-1.394.012-2.785.133-4.161.361-1.248.18-1.664 0-1.664-.361-.864-.558-1.937-.691-2.912-.361-.416.361 1.248 1.082 2.5.9h1.248c.416.361 8.321 0 18.306 0 5.825 0 9.985.541 9.985.722.832.541-16.642.722-24.962.361-4.16-.18-23.3-.361-24.547-.18-2.08.361 0 .541 6.657.722 14.145.541 27.459 1.443 27.459 1.8 0 .18-.416.18-.832.18-5.824.18-9.569.361-9.569.9 0 .361 6.656.9 13.313 1.082 2.912 0 5.408.18 5.408.361s-.832.18-1.664.18-1.664.18-1.248.18c.416.361 4.16.722 9.153.722 2.258 0 5.867.147 8.997.309v1.493h-4.836l1.664.722c1 .479 2.075.775 3.172.876v10.951c-6.275-.081-13.804-.051-17.73.091-2.5.18-7.9.18-11.649.18-2.497-.097-4.999-.037-7.489.18-.832.361-.416.722.832.541.416 0 .832 0 .832.18 0 .361-2.5.541-5.409.361-1.112-.01-2.223.05-3.328.18-2.5.18-2.5.18-1.248.541s7.073.361 24.963.541h9.985l.416.541c.416.541.832.541 1.664.541 2.02-.109 5.112-.352 8.161-.525v1.062c-1.453-.009-2.34-.044-2.34-.176 0-.361-1.664-.18-3.328.18l-1.248.361 2.08.18c.832 0 2.912.18 3.744.18.434 0 .795.008 1.092.024v.672c-1.319.102-4.177.151-10.245.025-6.24 0-13.313-.18-16.225-.361-2.499-.18-5.824-.18-7.073-.18h-3.744c-1.249 0-1.664.18-2.08.541s-.832.541-7.073.541c-4.577 0-6.657.18-7.073.361 0 .18 1.248.361 4.992.361 2.225-.051 4.451.07 6.657.361 3.338.802-1184.77 1.192-1442.25 1.267v-.547c10.087-.158 16.586-.402 17.737-.7.832-.18 2.912-.361 4.992-.541 9.985-.9 9.985-1.263-.416-1.263-5.825 0-8.737-.18-10.817-.361-1.792-.24-3.604-.3-5.409-.18-1.025 0-3.313.068-6.087.163v-1.617c2.715-.251 5.441-.366 8.167-.347 2.226.069 4.453-.052 6.657-.361 1.366-.296 2.764-.418 4.16-.361 1.533.004 3.063-.116 4.576-.361 1.248-.361 1.248-.361-.832-.541-.961-.184-1.934-.305-2.912-.361-.595-.013-1.174-.201-1.664-.541-.416-.361-1.248-.541-2.912-.541-3.744 0-7.489-.361-7.489-.541s.416-.361 1.248-.361c.416 0 2.08-.18 3.328-.361 2.08-.18 2.08-.18 1.664-1.263-.832-1.624-2.08-1.985-4.16-2.165 0 0-5.487.752-7.077.375.409-.256.496-.569.006-.569h-.194c-.113.057-.19.121-.224.194-.068.18.094.3.412.375-.286.18-.729.332-1.243.331-.831 0-.832-.899-.416-.9h1.471c1.288-.65 7.265-.347 7.265-.347.832 0 1.664-1.082 1.248-1.263 0-.179-4.505-.18-11.079-.357v-1.5c3.623-.066 6.615-.175 6.922-.308.416-.181.416-.361 0-.541-.484-.24-.802-.723-.832-1.263-.094-.724-.382-1.41-.832-1.985-.416-.541-.832-1.082-.416-1.263 0-.18-.416-.541-1.664-.722-.537-.093-1.739-.138-3.178-.182v-2.186c3.175.112 6.09.384 6.506.203.64-.373 1.205-.862 1.664-1.443 0-.361.416-.9.416-1.082 1.372-1.14 2.917-2.053 4.576-2.706 2.5-.9-7.9.18-11.649-.722-.787-.189-1.262-.347-1.513-.478v-.4c.467-.159 1.512-.204 1.929-.204 1.278 0 10.164-.319 14.03-.63-.819-.251-1.005-1.065-.302-1.369.412 0 1.664-.18 2.912-.18.221 0 .412.003.576.009-.101.038-.158.098-.158.187-.014.101-.047.197-.094.282-.263.106-.545.271-.83.444-.208.016-.282.091-.309.186-.198.119-.395.233-.584.323-.304.039-.716.078-1.211.118.155.048.332.075.53.075.206 0 .437-.077.681-.193.413-.053.625-.104.569-.152 0-.059 0-.118.015-.171l.309-.186c.028-.003.059-.004.092-.004.314-.001.594-.176.738-.44.181-.072.352-.117.508-.117.722-.156.818-.313-.256-.352.515-.196 2.196.157 3.586.007.832-.18 1.248-.18 1.248-.361 2.056-1.185 4.313-1.98 6.657-2.345 1.664-.361 4.576.361 22.882 0 8.321-.18 14.561-.361 16.642-.722 1.664-.18 6.657-.541 11.649-.541 7.073-.18 11.233-.361 12.481-.9l.832.361c.832.361 1.248.541 4.993.361 3.332-.152 5.704-.529 7.332-.941 2.583-.054 3.813-.196 3.484-.339 0-.192-.47-.282-1.537-.297zm-56.709 37.822c-2.214-.202-4.442-.202-6.657 0-3.328.18-7.073.18-8.737.18-2.912-.18-4.576 0-4.576.361 0 .18 1.248.361 5.409.361.416 0 3.744 0 6.657-.18 7.487-.18 9.152-.362 7.904-.723zm-24.964-3.428c0-.18 0-.18-.416-.18-.285.01-.567.071-.832.18 0 .18.416.18.416.18.286-.009.568-.07.832-.18zm1456.4-.328c-.514.059-1.156.11-1.918.147h.001c-1.665.181-2.497.18-2.497-.181s1.248-.541 4.16-.541l.254.001zm-49.346-.394c0-.18 0-.18-.416-.18s-.832.18-1.248.18c0 .18 0 .18.416.18s.832-.18 1.248-.18zm16.802-1.1c2.171.012 4.339.139 6.497.381 0 .361-7.905.361-8.321 0v-.363c.521-.013 1.042-.019 1.563-.019zm30.208-.343c-1.659-.187-3.334-.187-4.993 0 .792.322 1.65.446 2.5.361 1.248 0 2.5.18 2.912.18.832.18.416-.361-.416-.541zm-1481.78-4.338c.369.193.543.408 0 .51zm0-6.272c.593-.291 1.256-.43 1.927-.395 2.08 0 2.496.902 1.248 1.082-1.187.206-2.375.295-3.175.265zm0-2.256c1.71-.068 2.161.109 1.095.417-.359.106-.726.181-1.095.225zm1463.06-3.191s0 .18.832.18.832 0 .416-.18-1.245-.18-1.245 0zm-14.56-.723c.832 0 1.664-.18 2.08-.18.286-.01.568-.071.832-.18 0-.361-2.08-.361-3.328.18-1.247.362-1.247.362.417.181zm-19.97-.901 2.08.361c2.08.361 4.577.18 4.992-.18 0-.18 1.248-.18 2.913 0 1.664 0 2.5 0 2.08-.18-.832-.361-6.241-.361-9.569-.18zm-39.524-.541 4.161.361c8.585.607 17.196.728 25.794.361 3.744-.18 7.489-.361 8.321-.361.833-.18.833-.18.001-.361h-.001c-1.248-.18-17.89-.9-22.466-.722-1.248 0-5.407.722-9.153.722zm-.416-.902c-1.645-.302-3.319-.423-4.992-.361-2.5 0-4.993-.18-5.409-.18-1.1-.176-2.215-.237-3.328-.18-1.248 0-3.328.18-4.161.18-4.16.18 2.5.722 8.737.722 2.502-.055 5.005.066 7.489.361.833.541 2.914-.183 1.666-.542zm-31.618-.541c-1.248 0-8.321-.18-14.977-.361-26.627-.722-57.414-1.263-59.078-.722-.697.014-1.395-.047-2.08-.18-1.929-.268-3.877-.389-5.825-.361-2.08 0-5.824-.18-7.905-.361-3.744-.18-4.16-.18-5.825.361-.786.341-1.649.465-2.5.361-1.664-.541-5.825-.722-8.737-.541-2.493.182-4.996.182-7.489 0-2.5-.18-9.569-.361-15.394-.361-12.065-.18-19.97-.541-22.466-.9-2.08-.361-7.9-.361-9.569.18-.832.18-4.16.18-11.649 0-16.225-.361-27.459-.541-27.875-.18 0 .18.416.18.832.18.605-.055 1.207.141 1.664.541.416.361.832.541 2.08.541.832 0 5.824.18 10.817.18 4.993.18 14.146.361 20.386.361 15.394.18 26.627.361 27.875.541.416 0 2.08.18 3.328.18s3.744.18 5.408.18c8.737.361 70.311.722 96.938.541 2.5 0 11.649.18 18.722.541 5.408.18 14.977.18 15.81-.18-.41-.541-1.241-.541-2.491-.541zm10.4.18c-1.659-.181-3.333-.181-4.993 0-1.248.18-.416.361 2.5.361 2.495 0 3.743-.18 2.495-.361zm110.252-.541c0 .18.833.18 1.248.18s2.08.541 3.328-.18c1.248-.9-2.912-.18-3.744-.18s-1.248.18-.834.18zm-105.676-3.067h-15.809c-3.328 0-3.744 0-4.577.361-1.248.722.416.9 7.9 1.082 4.16 0 10.4.18 13.729.361 5.415.541 12.488.541 25.386.541h-.002c2.5 0 4.576.18 4.992.18.832.361 4.992 0 7.073-.361 1.373-.248 2.766-.369 4.16-.361 1.12.018 2.238-.103 3.328-.361.832-.361-2.912-.541-12.065-.541-4.16 0-8.737-.18-10.4-.361s-4.577-.18-6.241-.18-5.409 0-8.321-.18c-2.911 0-7.072-.18-9.153-.18zm89.035 1.446c1.664.18 2.08 0 1.664-.361-.679-.169-1.381-.23-2.08-.18-2.08-.003-1.665.358.416.538zm8.737-.904c0 .18.416.18 1.248.18s1.664-.18 1.248-.18c0-.18-.832-.18-1.248-.18-.419.028-.835.088-1.246.179zm-372.772-7.214c-.416-.18-1.248-.18-1.248.18.265.109.547.17.832.18.415-.183.415-.183.415-.36zm-260.026 0c0 .18.416.18 1.248.18s.832-.18.832-.18c0-.18-.832-.18-1.248-.18s-.832-.004-.832.18zm-2.08-.181-.416.18c0 .18.416.18.416.18.416 0 .416-.18.416-.18 0-.183-.416-.183-.416-.183zm299.549.181c.424.018.847-.043 1.248-.18 0-.18-.416-.18-.832-.18s-.832.18-1.248.18 0 .18.832.18zm-52.422-.183c2.077.188 4.165.188 6.241 0 .416-.18-.416-.18-1.664-.18-1.25.041-2.502-.019-3.744-.18-2.08-.362-2.497.179-.833.359zm-39.523-.361c.416-.361-1.248-.541-2.5-.361-.538.187-1.125.187-1.664 0-.396-.18-.851-.18-1.248 0-.416.18-.416.18 0 .361.836.36 4.996.36 5.412 0zm-944.412-.002c0 .18.416.18.416.18.416 0 .416-.18.416-.18 0-.18-.416-.18-.416-.18zm662.753-.535c-1.519.184-3.056.184-4.576 0-2.069-.264-4.154-.384-6.241-.361-5.408-.18-26.211-.18-26.627 0-.832.361 1.664.541 13.729.541 12.9 0 21.634.18 22.05.361s6.241.18 6.657-.18c0-.18 0-.361-.416-.541-1.248-.005-2.08-.005-4.576.175zm241.717.176c.416-.361 0-.361-2.08-.361-2.5 0-2.912.18-2.912.541s4.578.181 4.994-.18zm-20.8.18c.962.189 1.951.189 2.912 0 1.248 0 2.912-.18 3.744-.18s.832 0 .416-.18c-1.646-.302-3.32-.423-4.993-.361-2.5 0-4.576-.18-4.576-.18-.56-.03-1.122.031-1.664.18-.81.239-1.663.301-2.5.18-1.248-.361-4.16-.18-3.745.18 0 .18 2.5.18 4.993.18 2.917.001 4.997.181 5.413.181zm25.378 0c3.328-.18 3.328-.361 2.5-.722s-5.408 0-5.408.361c.412.542.828.542 2.908.361zm-41.608-.18c.832-.18.832-.18 0-.18-.701-.066-1.397-.187-2.08-.361-.832-.361-1.248-.361-1.248.18.42.541 1.668.722 3.332.361zm52.426.181c.559-.008 1.117-.069 1.664-.18 0-.18-.832-.18-1.664-.18-.559.008-1.116.068-1.664.18-.414-.001.415.179 1.664.179zm-48.261-.541c-.002.36-2.081.36-2.916-.181-.416-.361-.42-.363.416-.541s2.499.361 2.5.722zm-304.958-.903c0-.361-19.97-.361-19.97-.18s-.832.18-1.664.18-1.664.18-1.664.361c-.416.361 0 .361 1.664.18.832-.18 19.138.9 22.466.361 3.328-.722-.832-.902-.832-.902zm292.888.903c1.248 0 1.248-.541-.416-.722-.416 0-.832 0-.832.361.001.18.42.36 1.253.36zm12.07 0v-.001zm-271.678-.363c.533.206 1.094.328 1.664.361.832 0 1.248-.18 1.248-.361s-.832-.361-1.664-.361-1.661.182-1.245.362zm252.956.182c.416.18 2.5-.361 3.328-.361 1.248 0 1.248 0 .416-.18-.682-.149-1.381-.21-2.08-.18-1.248-.001-2.08.54-1.664.721zm-2.495-.181c0-.18.832-.18.832 0 .416.18.416 0 .416-.18-.832-.541-5.409-.361-5.409 0s3.744.541 4.161.18zm-875.35.181c-1.672.06-3.346-.06-4.993-.359 0 0-7.488.722-4.576-.722s6.241-.181 19.554.18h15.393c1.665.18 4.577 0 6.657 0 1.948-.085 3.349-.13 4.288-.117-.473.204-1.113.425-1.947.636-.686.014-1.467.022-2.341.022-1.664 0-6.657.18-11.233.18-4.576.18-10.401.18-13.313.18zm867.861-.001c1.248 0 2.912-.361 2.5-.541-1.122-.083-2.249.04-3.328.361.263.109.543.17.827.181zm-256.698-.36c0 .18.416.361.832.361s.832-.18.832-.361-.416-.361-.832-.361-.832.18-.832.361zm5.825-.541c1.103-.18 2.227-.18 3.328 0 .836 0 0 .9-1.664.9-1.663 0-2.495-.72-1.664-.9zm236.312.721h2.08c.832 0 1.664-.18 2.5-.18.424.018.847-.043 1.248-.18 0-.361-5.409-.361-6.241 0 0 .18 0 .361.416.361zm-45.35-.541c0 .18.832.361 3.328.541h5.408c1.248 0 5.825-.18 10.4-.18 9.985-.18 12.481-.541 4.992-.722-3.744-.18-22.882 0-24.13.18zm36.198-.179c2.081 0 3.328 0 3.328.18-.264.109-.546.17-.832.18-.42 0-1.668.18-2.5.18-1.241.182-2.502.182-3.744 0l-1.661-.36c0-.18.832-.18 1.248-.18zm-282.91.359c.832.361.416.361 2.912 0 2.08-.361 1.664-.722-1.248-.722-1.664.001-2.496.181-1.664.722zm287.896.181c-.414 0-.828-.001-.832-.181-.416 0 0-.18.416-.18 1.248 0 1.248.181.416.361h.004zm-306.618-.361c-2.5.361-2.5.361 6.241.361h8.737c1.248 0 2.08-.18 1.664-.361 0-.361 0-.361-5.408-.361-7.489-.18-9.569 0-11.234.361zm257.946-.722c2.081-.178 3.328.361 2.08.722-2.905.24-5.823.3-8.737.18 0 0-12.481-.18-27.459-.18-40.772-.361-53.253-.361-59.078-.722-2.912-.18-7.905-.18-11.233-.18-2.912.18-5.824 0-6.661 0-1.248-.722 5.409-.722 26.627-.361 3.329.181 15.394.181 26.211.361 11.233 0 20.802.18 22.05.18zm61.575.902c.832 0 .832-.18 0 0 0-.18-.416-.18-.832-.18.264.109.545.17.83.18zm-56.587-.36c.416 0 .416-.18.416-.361s-.416-.361-.416-.18c-.416.18-.416.18-.416.361s.416.18.416.18zm-653.6-2.707c0-.18-.416-.18-.832-.18s-.832.18-.416.18c0 .18.416.18.832.18.004.181.416.001.416-.18zm178.9-.18c.416-.361 0-.541-1.248-.361-.416 0-.832.18-.416.361.495.36 1.17.36 1.664 0z" fill="#2DB88E" fill-rule="nonzero"/></svg>