<svg clip-rule="evenodd" fill-rule="evenodd" stroke-linejoin="round" stroke-miterlimit="2" viewBox="0 0 262 207" xmlns="http://www.w3.org/2000/svg"><g fill-rule="nonzero"><path d="m204.797 63.741c-2.103 0-4.18.115-6.223.339 4.928 12.039 7.644 25.217 7.644 39.029 0 14.851-3.141 28.971-8.793 41.727 10.231 6.561 16.133 18.778 14.054 31.514 28.054-3.306 49.818-27.166 49.818-56.109 0-31.204-25.296-56.5-56.5-56.5z" fill="#fcda14"/><path d="m103.108 0c-56.946 0-103.108 46.164-103.108 103.109s46.162 103.108 103.108 103.108c19.485 0 37.707-5.405 53.25-14.797-5.671-6.803-8.447-15.951-6.852-25.369 1.022-6.044 3.706-11.388 7.507-15.648-5.521-8.728-8.716-19.072-8.716-30.162 0-29.101 22.001-53.064 50.277-56.161-15.386-37.595-52.334-64.08-95.466-64.08z" fill="#22c4f4"/><path d="m198.574 64.08c-28.276 3.097-50.277 27.06-50.277 56.161 0 11.09 3.195 21.434 8.716 30.162 5.84-6.546 14.31-10.527 23.425-10.527 1.74 0 3.507.146 5.281.447 4.302.728 8.251 2.298 11.706 4.513 5.652-12.756 8.793-26.876 8.793-41.727 0-13.812-2.716-26.99-7.644-39.029z" fill="#21a84a"/><path d="m180.486 171.258c-6.95 7.885-15.084 14.698-24.128 20.162 4.629 5.554 11.189 9.545 18.875 10.846 1.774.3 3.538.445 5.279.445 15.047 0 28.342-10.843 30.935-26.174.011-.063.021-.124.032-.187-2.192.258-4.421.391-6.682.391-8.704 0-16.946-1.968-24.311-5.483z" fill="#f7942d"/><path d="m197.425 144.836c-4.29 9.682-10.029 18.582-16.939 26.422 7.365 3.515 15.607 5.483 24.311 5.483 2.261 0 4.49-.133 6.682-.391 2.079-12.736-3.823-24.953-14.054-31.514z" fill="#f57f1f"/><path d="m157.013 150.403c-3.801 4.26-6.485 9.604-7.507 15.648-1.595 9.418 1.181 18.566 6.852 25.369 9.044-5.464 17.178-12.277 24.128-20.162-9.653-4.609-17.795-11.877-23.473-20.855z" fill="#207339"/><path d="m180.438 139.876c-9.115 0-17.585 3.981-23.425 10.527 5.678 8.978 13.82 16.246 23.473 20.855 6.91-7.84 12.649-16.74 16.939-26.422-3.455-2.215-7.404-3.785-11.706-4.513-1.774-.301-3.541-.447-5.281-.447z" fill="#256331"/><g fill="#fff"><path d="m25.964 89.42h4.47l6.856-29.563h-5.065l1.071-4.828h15.617l-1.133 4.828h-5.066l-6.915 29.622h12.22l1.371-5.781h5.186l-2.444 10.55h-27.298z"/><path d="m61.49 60.752c0-1.907 1.549-3.458 3.458-3.458 1.846 0 3.456 1.551 3.456 3.458s-1.61 3.457-3.456 3.457c-1.909 0-3.458-1.55-3.458-3.457zm-5.007 28.727c0-.772.18-1.905.418-2.799l3.576-13.709h-4.828l1.133-4.411h10.073l-4.769 18.178c-.297 1.015-.418 2.028-.418 2.623 0 1.133.597 1.789 1.55 1.789 1.192 0 2.267-.894 3.518-4.172l2.323.834c-1.548 5.126-4.053 6.855-7.211 6.855-3.459 0-5.365-2.086-5.365-5.188z"/><path d="m73.112 72.971h-4.469l1.132-4.411h7.868l2.98 20.444c4.587-4.947 7.928-10.014 8.94-13.946-1.311-.479-2.503-1.611-2.503-3.398 0-1.967 1.551-3.577 3.577-3.577 2.264 0 3.932 1.729 3.932 4.589 0 5.425-5.601 14.008-13.946 22.293h-3.399z"/><path d="m102.617 60.752c0-1.907 1.551-3.458 3.456-3.458 1.85 0 3.458 1.551 3.458 3.458s-1.608 3.457-3.458 3.457c-1.905 0-3.456-1.55-3.456-3.457zm-5.006 28.727c0-.772.177-1.905.416-2.799l3.577-13.709h-4.826l1.129-4.411h10.074l-4.768 18.178c-.297 1.015-.417 2.028-.417 2.623 0 1.133.597 1.789 1.551 1.789 1.191 0 2.263-.894 3.515-4.172l2.326.834c-1.549 5.126-4.053 6.855-7.213 6.855-3.458 0-5.364-2.086-5.364-5.188z"/><path d="m127.889 89.54c0-.833.18-1.966.419-2.921l2.203-7.747c.299-1.014.418-1.789.418-2.624 0-2.265-1.55-3.754-3.874-3.754-3.16 0-6.139 2.682-7.451 7.809l-3.457 13.945h-5.246l5.366-21.277h-4.769l1.132-4.411h9.181l-1.373 6.019c2.027-3.576 5.366-6.436 8.882-6.436 3.932 0 6.974 2.682 6.974 7.272 0 1.252-.239 2.682-.656 4.172l-2.205 7.569c-.181.776-.359 1.61-.359 2.086 0 1.193.598 1.908 1.61 1.908 1.013 0 2.146-.894 3.337-4.172l2.326.834c-1.37 4.649-3.815 6.855-6.974 6.855-3.517 0-5.484-2.148-5.484-5.127z"/><path d="m160.852 78.811c0-3.813-2.503-6.139-6.201-6.139-5.005 0-8.819 4.769-8.819 10.61 0 3.815 2.504 6.197 6.078 6.197 5.127 0 8.942-5.125 8.942-10.668zm-20.802 24.377c-1.133-1.13-1.49-2.084-1.49-3.335 0-2.087 1.429-3.518 3.278-3.518 1.848 0 3.159 1.491 3.159 3.22 0 .534-.12 1.131-.358 1.549.775.476 2.325.954 4.291.954 2.444 0 4.174-.656 5.662-2.147 1.372-1.31 2.205-3.397 2.861-6.198l1.134-4.829c-2.206 3.101-5.306 5.067-8.821 5.067-5.784 0-9.36-4.114-9.36-10.311 0-8.344 5.783-15.557 13.591-15.557 4.412 0 7.033 2.979 7.927 5.84l1.609-5.482h4.827l-6.138 26.463c-.774 3.458-1.848 6.021-3.754 7.987-2.266 2.207-5.246 3.278-9.419 3.278-3.575 0-7.449-1.43-8.999-2.981z"/><path d="m58.867 104.664h-4.232l1.132-4.827h14.425l-1.073 4.827h-4.947l1.192 24.676 14.543-25.212h2.563l4.351 25.33 12.041-24.794h-4.769l1.072-4.827h14.484l-1.132 4.827h-3.755l-17.822 34.809h-2.921l-4.707-24.974-15.08 24.974-2.862.061z"/><path d="m119.068 123.797c0-3.814-1.907-6.319-5.839-6.319-5.008 0-8.762 5.425-8.762 11.207 0 3.754 1.846 6.378 5.424 6.378 5.244 0 9.177-5.662 9.177-11.266zm-20.025 5.485c0-8.763 6.078-16.392 13.529-16.392 3.874 0 6.795 2.802 7.69 6.079l1.668-5.722h4.886l-4.528 18.298c-.3 1.075-.477 2.028-.477 2.623 0 1.132.537 1.788 1.548 1.788.955 0 2.147-.893 3.339-4.172l2.324.836c-1.549 5.125-4.232 6.853-7.092 6.853-3.04 0-4.947-2.086-4.947-5.184v-.3c-2.206 3.041-5.304 5.545-9.179 5.545-5.127 0-8.761-3.994-8.761-10.252z"/><path d="m150.423 123.62c0-3.817-2.505-6.142-6.2-6.142-5.008 0-8.822 4.769-8.822 10.61 0 3.815 2.502 6.201 6.079 6.201 5.126 0 8.943-5.126 8.943-10.669zm-20.804 24.377c-1.132-1.133-1.49-2.085-1.49-3.338 0-2.086 1.432-3.518 3.279-3.518s3.158 1.491 3.158 3.219c0 .538-.118 1.134-.358 1.552.776.475 2.325.952 4.292.952 2.444 0 4.172-.656 5.663-2.147 1.37-1.311 2.205-3.396 2.861-6.197l1.132-4.829c-2.206 3.101-5.304 5.067-8.821 5.067-5.781 0-9.358-4.113-9.358-10.31 0-8.346 5.782-15.558 13.589-15.558 4.412 0 7.035 2.98 7.927 5.843l1.611-5.486h4.828l-6.14 26.464c-.774 3.457-1.847 6.022-3.755 7.988-2.266 2.204-5.245 3.277-9.418 3.277-3.574 0-7.449-1.429-9-2.979z"/><path d="m163.714 124.096h13.35c.238-.715.359-1.492.359-2.207 0-2.681-1.79-4.648-5.485-4.648s-6.855 2.801-8.224 6.855zm-.716 3.756v.892c0 3.876 3.1 6.438 7.747 6.438 2.742 0 5.246-.596 8.466-2.324l-1.014 4.887c-2.681 1.311-4.888 1.789-8.524 1.789-6.139 0-11.801-3.876-11.801-10.909 0-8.702 6.436-15.735 14.066-15.735 6.259 0 10.373 3.577 10.373 9.595 0 1.611-.299 3.398-.957 5.367z"/><path d="m88.904 173.791h2.415l3.754-16.238h-2.706l.349-1.454h13.735l-1.018 4.335h-1.601l.669-2.881h-7.769l-1.659 7.188h6.344l-.32 1.455h-6.344l-1.775 7.595h7.77l.669-2.881h1.601l-.99 4.336h-13.473z"/><path d="m107.962 164.363h-2.328l.349-1.339h3.754l-.785 2.939c1.193-1.921 2.706-3.171 4.364-3.171 1.892 0 3.114 1.134 3.172 3.055 1.193-1.862 2.794-3.055 4.394-3.055 1.921 0 3.229 1.367 3.229 3.171 0 .612-.174 1.281-.348 1.92l-1.251 4.279c-.117.407-.204.96-.204 1.192 0 .582.378.961.902.961.64 0 1.135-.582 1.687-1.921l.902.291c-.582 1.717-1.454 2.735-2.793 2.735-1.28 0-2.211-.843-2.211-2.066 0-.32.116-.931.232-1.338l1.251-4.336c.175-.64.291-1.135.291-1.659 0-1.105-.727-1.92-1.92-1.92-1.746 0-3.928 1.892-4.83 5.354l-1.513 5.791h-1.514l1.95-7.566c.175-.64.291-1.135.291-1.659 0-1.105-.756-1.92-1.95-1.92-1.716 0-4.044 1.92-4.888 5.325l-1.455 5.82h-1.513z"/><path d="m138.163 168.117c0-2.415-1.251-3.958-3.346-3.958-2.91 0-5.209 3.433-5.209 6.286 0 2.124 1.368 3.666 3.638 3.666 2.88 0 4.917-2.968 4.917-5.994zm-14.2 11.494h1.891l3.667-15.248h-2.328l.321-1.339h3.753l-.553 2.357c.989-1.396 2.444-2.589 4.365-2.589 2.648 0 4.714 2.007 4.714 5.15 0 4.277-3.172 7.536-6.519 7.536-2.036 0-3.696-1.135-4.218-2.938l-1.66 7.071h2.678l-.32 1.338h-6.11z"/><path d="m141.595 173.354c0-.32.116-.785.203-1.222l3.929-16.848h-2.299l.32-1.338h3.812l-4.248 18.186c-.088.437-.205.99-.205 1.222 0 .582.379.961.903.961.639 0 1.135-.582 1.687-1.921l.903.291c-.582 1.717-1.455 2.735-2.794 2.735-1.281 0-2.211-.843-2.211-2.066z"/><path d="m158.354 168c0-2.328-1.571-3.841-3.666-3.841-2.968 0-5.296 2.851-5.296 6.111 0 2.327 1.571 3.841 3.667 3.841 2.967 0 5.295-2.852 5.295-6.111zm-10.504 2.241c0-3.87 2.997-7.449 6.925-7.449 3.23 0 5.121 2.385 5.121 5.237 0 3.87-2.997 7.449-6.925 7.449-3.23 0-5.121-2.386-5.121-5.237z"/><path d="m157.479 179.611c0-.67.495-1.31 1.222-1.31.728 0 1.164.524 1.223 1.338h.145c.699 0 2.27-1.105 4.976-4.423l-2.183-10.853h-2.269l.32-1.339h3.317l1.95 10.737c2.328-3.026 4.656-6.314 5.063-8.263-.582-.175-1.193-.669-1.193-1.456 0-.639.553-1.25 1.309-1.25.786 0 1.426.582 1.426 1.716 0 2.124-1.775 4.976-6.256 10.679-3.667 4.686-5.587 5.878-7.303 5.878-.873 0-1.747-.61-1.747-1.454z"/><path d="m175.198 168.262h7.799c.146-.436.232-.931.232-1.396 0-1.368-.93-2.707-3.142-2.707-2.153 0-4.132 1.746-4.889 4.103zm-.291 1.28c-.028.262-.028.524-.028.786 0 2.532 2.065 3.812 4.132 3.812 1.426 0 2.444-.291 4.015-1.135l-.349 1.572c-1.281.639-2.327.901-3.928.901-2.823 0-5.384-1.833-5.384-5.121 0-4.132 3.231-7.565 6.839-7.565 2.764 0 4.451 1.746 4.451 4.335 0 .756-.174 1.542-.494 2.415z"/><path d="m188.757 164.363h-2.327l.348-1.339h3.754l-.814 3.317c1.629-2.24 2.997-3.549 4.132-3.549.96 0 1.483.552 1.483 1.28 0 .786-.64 1.426-1.367 1.426-.669 0-1.135-.408-1.28-.99-.99.582-3.114 2.502-3.812 5.383l-1.339 5.355h-1.514z"/><path d="m55.215 31.711h-2.037l.35-1.455h5.878l-.35 1.455h-2.386l.408 15.015 7.944-13.997h.698l1.6 14.026 7.915-15.044h-2.328l.349-1.455h5.849l-.349 1.455h-1.921l-9.573 18.012h-.931l-1.688-13.589-7.856 13.589h-.931z"/><path d="m76.861 42.419h7.799c.145-.436.233-.931.233-1.397 0-1.367-.932-2.706-3.143-2.706-2.153 0-4.132 1.746-4.889 4.103zm-.291 1.281c-.029.261-.029.523-.029.785 0 2.532 2.066 3.812 4.132 3.812 1.426 0 2.445-.291 4.016-1.135l-.349 1.571c-1.281.64-2.328.903-3.929.903-2.822 0-5.383-1.834-5.383-5.122 0-4.132 3.23-7.565 6.838-7.565 2.764 0 4.452 1.745 4.452 4.335 0 .757-.174 1.543-.494 2.416z"/><path d="m102.582 41.983c0-2.183-1.164-3.667-3.376-3.667-2.939 0-4.976 3.056-4.976 6.227 0 2.27 1.106 3.725 3.201 3.725 3.172 0 5.151-3.55 5.151-6.285zm-9.981 2.589c0-4.16 3.026-7.623 6.546-7.623 2.212 0 3.667 1.222 4.017 3.172l.727-3.085h1.513l-2.269 9.312c-.117.465-.204.931-.204 1.163 0 .582.378.961.902.961.64 0 1.135-.582 1.688-1.921l.902.291c-.582 1.717-1.455 2.736-2.794 2.736-1.28 0-2.153-.815-2.153-1.95v-.495c-1.077 1.426-2.59 2.503-4.365 2.503-2.648 0-4.51-1.921-4.51-5.064z"/><path d="m110.32 38.52h-2.328l.349-1.338h3.754l-.815 3.316c1.63-2.24 2.997-3.549 4.132-3.549.96 0 1.484.552 1.484 1.28 0 .786-.64 1.426-1.368 1.426-.669 0-1.134-.407-1.28-.99-.989.583-3.114 2.503-3.812 5.384l-1.338 5.354h-1.514z"/><path d="m118.146 42.419h7.798c.146-.436.233-.931.233-1.397 0-1.367-.931-2.706-3.143-2.706-2.153 0-4.132 1.746-4.888 4.103zm-.292 1.281c-.028.261-.028.523-.028.785 0 2.532 2.066 3.812 4.132 3.812 1.426 0 2.444-.291 4.016-1.135l-.35 1.571c-1.28.64-2.327.903-3.928.903-2.823 0-5.383-1.834-5.383-5.122 0-4.132 3.23-7.565 6.838-7.565 2.764 0 4.452 1.745 4.452 4.335 0 .757-.174 1.543-.495 2.416z"/><path d="m143.866 41.983c0-2.183-1.164-3.667-3.375-3.667-2.939 0-4.976 3.056-4.976 6.227 0 2.27 1.106 3.725 3.201 3.725 3.172 0 5.15-3.55 5.15-6.285zm-9.98 2.589c0-4.16 3.026-7.623 6.547-7.623 2.212 0 3.667 1.222 4.015 3.172l.728-3.085h1.512l-2.269 9.312c-.116.465-.203.931-.203 1.163 0 .582.378.961.901.961.641 0 1.136-.582 1.689-1.921l.901.291c-.582 1.717-1.454 2.736-2.793 2.736-1.28 0-2.153-.815-2.153-1.95v-.495c-1.077 1.426-2.59 2.503-4.365 2.503-2.648 0-4.51-1.921-4.51-5.064z"/></g></g></svg>