<svg xmlns="http://www.w3.org/2000/svg" width="101.597" height="71.44" viewBox="0 0 101.597 71.44">
  <g id="Group_1339" data-name="Group 1339" transform="translate(0 0)">
    <path id="Path_498" data-name="Path 498" d="M15.167,8.215,10.238,9.479c-.253-2.907-.885-3.792-2.022-3.792-1.517,0-2.022,1.138-2.022,3.792V25.531c0,2.149.506,3.413,1.9,3.413,1.264,0,1.769-.885,2.149-4.044l4.929,1.264c-.632,5.94-3.16,8.342-7.583,8.342C2.781,34.5,0,31.092,0,25.531V9.606C0,3.539,3.033,0,7.71,0,11.754,0,14.661,3.16,15.167,8.215Z" fill="#181f27"/>
    <path id="Path_499" data-name="Path 499" d="M29.483,9.985V24.52c0,6.572-2.781,9.985-8.342,9.985S12.8,31.092,12.8,24.52V9.985C12.8,3.413,15.454,0,21.142,0S29.483,3.539,29.483,9.985Zm-6.193,0c0-3.539-.506-4.3-2.022-4.3s-2.149.758-2.149,4.3V24.52c0,3.539.632,4.424,2.149,4.424s2.022-.885,2.022-4.424Z" transform="translate(2.889)" fill="#181f27"/>
    <path id="Path_500" data-name="Path 500" d="M41.3.4V6.214h-7.2v7.963h6.193v5.561H34.093V33.893H27.9V.4Z" transform="translate(6.335 0.106)" fill="#181f27"/>
    <path id="Path_501" data-name="Path 501" d="M65.171.4V6.214H58.22V13.8H63.4v5.182H58.22v9.1h7.2v5.814H51.9V.4Z" transform="translate(11.782 0.106)" fill="#181f27"/>
    <g id="Group_1338" data-name="Group 1338" transform="translate(48.96 0.506)">
      <path id="Path_502" data-name="Path 502" d="M40,28.51h6.067V20.8a44.289,44.289,0,0,0-4.929,5.814A6.861,6.861,0,0,1,40,28.51Z" transform="translate(-39.874 4.984)" fill="#181f27"/>
      <path id="Path_503" data-name="Path 503" d="M39.9.4V26.057c.632-.758,1.138-1.517,1.769-2.149a16.511,16.511,0,0,1,2.907-2.528,8.495,8.495,0,0,1,1.517-.758v-.758h6.193V14.3H46.093V6.214h7.2V.4Z" transform="translate(-39.9 -0.4)" fill="#181f27"/>
    </g>
    <path id="Path_504" data-name="Path 504" d="M76.386,31.618a4.017,4.017,0,0,1,1.138-.379V28.206h-7.2v-9.1H75.5V13.924H70.32V6.214h6.951V.4H64V34.02h8.847A19.228,19.228,0,0,1,76.386,31.618Z" transform="translate(14.242 0.106)" fill="#181f27"/>
    <path id="Path_505" data-name="Path 505" d="M49.09,34.907l-.506.253c-.126,0-.126-.126-.253-.253s-.126-.126-.253-.126v-.253a5.583,5.583,0,0,0,.379-1.011,33.9,33.9,0,0,0,3.16-10.364,7.545,7.545,0,0,0-.253-3.792,2.212,2.212,0,0,1-.632.126,10.1,10.1,0,0,0-2.528,1.9A49.444,49.444,0,0,0,43.15,27.45,68.5,68.5,0,0,0,36.2,40.342a51.579,51.579,0,0,0-3.033,8.721,25.131,25.131,0,0,0-.758,5.561,4.957,4.957,0,0,0,.506,2.275A1.37,1.37,0,0,0,34.3,57.91a10.358,10.358,0,0,0,3.918-.379,20.828,20.828,0,0,0,6.7-3.665q.569-.379,1.517-1.138a9.624,9.624,0,0,0,1.517-1.264A12.816,12.816,0,0,1,49.975,50.2v.379a7.011,7.011,0,0,1-1.769,2.781,20.017,20.017,0,0,1-8.215,5.308,12.307,12.307,0,0,1-5.308.506A5.805,5.805,0,0,1,30.638,56.9a2.883,2.883,0,0,1-.758-1.517A12.9,12.9,0,0,1,29.5,51.59a41.25,41.25,0,0,1,2.275-9.1,79.468,79.468,0,0,1,6.7-14.029,41.277,41.277,0,0,1,6.446-8.595,14.941,14.941,0,0,1,2.781-2.4,6.754,6.754,0,0,1,1.769-.758A3.636,3.636,0,0,1,52,17.339a5.591,5.591,0,0,1,2.4,4.424,9.765,9.765,0,0,1-.379,3.16,25.364,25.364,0,0,1-2.907,7.2A8.231,8.231,0,0,1,49.09,34.907Z" transform="translate(6.541 4.126)" fill="#2db88e"/>
    <path id="Path_506" data-name="Path 506" d="M58.845,36.965a1.368,1.368,0,0,1,.506.632.749.749,0,0,1-.885.126c-.253-.126-.632-.253-1.138-.506a3.821,3.821,0,0,1-1.138-.758,2.337,2.337,0,0,0-1.138.885,29.584,29.584,0,0,0-2.907,4.424c-.632,1.011-1.138,1.9-1.643,2.781,0,0-.253.379-.758,1.011H48.481a2.806,2.806,0,0,1-1.264-1.011,2.211,2.211,0,0,1,.126-1.517c.126-.506.379-1.643.885-3.286.506-2.022,1.011-3.665,1.39-4.8a10.537,10.537,0,0,1,.506-1.517.889.889,0,0,1,1.264-.506,1.359,1.359,0,0,1,1.138,1.011,10.834,10.834,0,0,0-.379,1.643,6.205,6.205,0,0,0-.379,1.517.124.124,0,0,1,.126.126l.126-.126a.124.124,0,0,1,.126-.126l.126-.126a4.509,4.509,0,0,1,.885-.885,3.179,3.179,0,0,1,1.517-.885,3.214,3.214,0,0,1,1.769.379l.758.506A7.624,7.624,0,0,1,58.845,36.965Z" transform="translate(10.725 8.469)" fill="#2db88e"/>
    <path id="Path_507" data-name="Path 507" d="M68.523,47.536a.554.554,0,0,1,.126.379,1.229,1.229,0,0,1-1.138-.126,4.238,4.238,0,0,1-1.9-2.275,26.208,26.208,0,0,1-.758-3.286,2.224,2.224,0,0,0-.126-.758h-.253a.124.124,0,0,0-.126.126l-.126.126a.124.124,0,0,1-.126.126,27.374,27.374,0,0,1-2.4,2.907A7,7,0,0,1,59.928,46.4a2.81,2.81,0,0,1-2.022.379,2.482,2.482,0,0,1-1.643-1.138A1.134,1.134,0,0,1,56.01,44.5a13.431,13.431,0,0,1,.379-1.769A27.356,27.356,0,0,1,60.56,34.9a29.936,29.936,0,0,1,2.275-2.4,7.01,7.01,0,0,1,1.011-.758,1.133,1.133,0,0,1,1.39.126,1.631,1.631,0,0,1,.632,1.39l.253.253h-.379a.272.272,0,0,1-.253-.253c-.126-.126-.126-.253-.253-.253a24.487,24.487,0,0,0-3.413,5.056c-1.264,2.4-1.9,3.918-1.9,4.8a18.113,18.113,0,0,0,2.781-3.792c.126-.126.758-1.517,2.149-3.918a2.515,2.515,0,0,1,1.643.126c.506.253,1.011.506,1.138,1.011a1.038,1.038,0,0,1,.126.885,5.235,5.235,0,0,1-.126,1.264,5.235,5.235,0,0,0-.126,1.264,20.5,20.5,0,0,0,.253,5.688A4.264,4.264,0,0,0,68.523,47.536Z" transform="translate(12.723 8.131)" fill="#2db88e"/>
    <path id="Path_508" data-name="Path 508" d="M73.907,45.858a1.7,1.7,0,0,1,1.011-.253v.506a.464.464,0,0,1-.126.379,6.7,6.7,0,0,1-1.9,1.9,4.328,4.328,0,0,1-2.781.632,3.98,3.98,0,0,1-3.16-2.654,4.631,4.631,0,0,1-.126-2.654,24.168,24.168,0,0,1,1.39-4.424,25.245,25.245,0,0,1,2.275-4.55A7.482,7.482,0,0,1,71,33.978a2.644,2.644,0,0,1,.758-.506,1.066,1.066,0,0,1,.885.253,1.262,1.262,0,0,1,.506.632.556.556,0,0,1-.126.632.958.958,0,0,0-.253.506c-.126.253-.126.379-.253.506a2.136,2.136,0,0,1-.253.632c-.126.253-.126.379-.253.506a47.247,47.247,0,0,0-2.149,6.825,13.057,13.057,0,0,0-.379,2.781,1.232,1.232,0,0,0,.506,1.138,3.686,3.686,0,0,0,1.9-.758A15.318,15.318,0,0,1,73.907,45.858ZM77.7,25.51c.253,0,.379.126.506.379s.126.379-.126.632l-.506.506a7.009,7.009,0,0,1-1.011.758c-.379.379-.758.632-.885.758-.379.379-.632.506-.758.758-.126.126-.379.506-1.011,1.264a1.691,1.691,0,0,1,.126.632v.126a2.51,2.51,0,0,1-1.39-.126,2.587,2.587,0,0,1-1.011-1.011,1.069,1.069,0,0,1,0-.885,2.757,2.757,0,0,1,.506-.632,13.3,13.3,0,0,1,3.918-2.654A1.656,1.656,0,0,1,77.7,25.51Z" transform="translate(14.952 6.537)" fill="#2db88e"/>
    <path id="Path_509" data-name="Path 509" d="M86.587,44.245c.253.506,0,.885-.506,1.264a1.744,1.744,0,0,1-.506.379c-.253.126-.379.253-.506.253a3.821,3.821,0,0,0-1.138.758,25.135,25.135,0,0,0-.506,3.16,5.562,5.562,0,0,1-.253,1.264c-1.264,4.929-4.424,8.595-9.353,11a5.19,5.19,0,0,1-1.138.506,4.879,4.879,0,0,1-4.171-.379,3.585,3.585,0,0,1-1.264-1.138,2.662,2.662,0,0,1-.632-1.643,2.844,2.844,0,0,1,.126-1.769,7.267,7.267,0,0,1,1.643-2.781,22.588,22.588,0,0,1,3.539-3.286,77.359,77.359,0,0,1,9.1-6.193l.758-.506a1.874,1.874,0,0,0,.126-.885V43.107a2.173,2.173,0,0,1,.126-1.011l-.758.379a15.6,15.6,0,0,1-1.9,1.011,2.9,2.9,0,0,1-2.275-.126,4.264,4.264,0,0,1-2.275-2.4,3.466,3.466,0,0,1-.126-2.528,8.431,8.431,0,0,1,1.643-3.16,8.862,8.862,0,0,1,4.044-2.528,2.711,2.711,0,0,1,2.907.506,1.685,1.685,0,0,1,.632.758,5.235,5.235,0,0,1-.126,1.264,5.351,5.351,0,0,0-.632-.885,7.6,7.6,0,0,0-3.792,2.528,7.4,7.4,0,0,0-2.275,4.044,3.5,3.5,0,0,0,1.517-.632,20.967,20.967,0,0,0,3.413-2.907.441.441,0,0,0,.126-.253l.253-.253a.441.441,0,0,1,.253-.126.464.464,0,0,1,.379-.126,1.564,1.564,0,0,0,.379.253c.126.126.379.253.506.379l.379.379a2.726,2.726,0,0,1,.632,2.4,19.29,19.29,0,0,0-.379,3.792h1.517C86.081,43.992,86.334,44.118,86.587,44.245Zm-7.331,8.847a12.672,12.672,0,0,0,1.517-3.918l-.379.126a53.8,53.8,0,0,0-9.1,7.963,19.384,19.384,0,0,0-1.9,2.4,2.017,2.017,0,0,0-.379,1.011,3.5,3.5,0,0,0,1.138.126,2.826,2.826,0,0,0,1.264-.379A19.9,19.9,0,0,0,79.256,53.092Z" transform="translate(14.911 8.312)" fill="#2db88e"/>
    <path id="Path_510" data-name="Path 510" d="M29.163,30.485,28.4,34.908a.965.965,0,0,0,.632.253.955.955,0,0,1,.506.126c.253,0,.379,0,.506.126.506.126.758.253.885.632a2.212,2.212,0,0,0-.126.632c-.126.253-.253.379-.506.379a2.224,2.224,0,0,1-.758-.126c-.506-.126-1.011-.253-1.39-.379a48.39,48.39,0,0,1-.758,5.182.554.554,0,0,1-.126.379c0,.253-.253.379-.758.253-.126,0-.253-.126-.506-.126a.272.272,0,0,1-.253-.253v-.506c.126-.885.253-1.769.379-2.528a18.706,18.706,0,0,0,.126-2.528c-1.011,0-2.528-.126-4.424-.126a.958.958,0,0,1-.506-.253.76.76,0,0,1-.126-.506c.126-.379.632-.758,1.138-1.264a5.94,5.94,0,0,0,1.264-1.39,10.551,10.551,0,0,0,1.138-3.16c.126-.126.253-.126.506-.126a.958.958,0,0,1,.506.253,1.576,1.576,0,0,1,.379,1.517c-.126.379-.253.758-.506,1.39-.253.379-.379.758-.632,1.138a7.566,7.566,0,0,0-.758.885,4.642,4.642,0,0,0,2.275.126l1.011-5.056a.708.708,0,0,1,.758-.126c.253,0,.379.126.632.379C29.036,30.106,29.163,30.358,29.163,30.485Z" transform="translate(4.844 7.637)" fill="#181f27"/>
  </g>
</svg>
