<svg clip-rule="evenodd" fill-rule="evenodd" stroke-linejoin="round" stroke-miterlimit="2" viewBox="0 0 52 130" xmlns="http://www.w3.org/2000/svg"><path d="m16.575.701c.036-.015.099-.015.17-.015.194 0 1.491-.063 1.881-.063.622 0 2.14-.126 2.97-.126h3.269c1.427.032 2.996 0 2.918.189.013-.032.026-.032.039 0 .026.032.091-.031.078-.063v-.031c.013 0 .013.031.026.063 0 .031.026.063.091.063.039 0 .233 0 .246.031s.065 0 .065-.063c0-.031-.013-.063-.039-.063-.065 0-.233-.031-.233-.094 0 0 .012-.063.051-.063.065 0 .168.031.26.031.083.009.168-.002.246-.031.039 0 .143-.032.234-.032.246.017.493.017.739 0 .908-.031.986.252 1.025.221.052-.032.039-.126-.026-.189-.091-.095-.078-.126.052-.126.049.004.097.015.143.031.036.01.069.032.09.063.052.063.091.063.13-.031.013-.032 1.09-.032 1.557-.032h.986c.156 0 2.218.063 3.009.095l.39.031.038-.094c.039-.095.052-.095.195-.095.078 0 .156 0 .156.032 0 .031.596.031 1.089.062.168 0 .454.032.636.032.181 0 .402.031.506.031s.272.032.376.032.454.031.765.031c.312 0 .584.032.597.032.233.016.467.016.7 0 .054 0 .107.011.156.031.078 0 .376.032.662.032.934.031 1.816.062 1.971.094.092.013.181.045.26.095.068.035.143.056.22.063.078 0 .117 0 .117.062.202.027.406.038.61.032.492 0 .492-.095.609-.063.065.031.091.189.091.22 0 .158-.701.063-.701.063-.052.063-.454-.031-.428.189s.467.063.48.095c.026.031.052.094.078.094.052 0 .129.063.129.095 0 .063-.038.094-.103.126-.065.031-.091.094-.052.094.033.016.064.037.091.063.077.063.467.095 1.102.126.299 0 .389 0 .389-.031.013-.063.195-.063.35 0 .028.005.055.01.082.015-.007-.137.03-.277.205-.189.073.036.114.122.133.235l.022.002c.283-.001.566.03.843.094.052.032.09 0 .09.032l.156.062c.376 0 .766 0 .83.063.029.037.046.08.052.126.013.126-.168.252-.116.441.012.032.22.126.233.189.037.102.063.208.078.316 0 .126.312 0 .324.252.013.252-.441.126-.441.126s-.376-.189-.363 0c.026.189.389.252.415.252.013 0 .013.031.013.031s.013 0 .013.032c0 .031 0 .031-.013.031-.013.063.065.158.026.315-.039.126-.207.032-.207.032-.013.094-.026.188-.026.22-.013.063 0 .063.077.063.133-.008.266.014.39.062.039.031.078.063.078.095 0 .031-.013.062-.026.062s-.052.126-.091.126c-.135-.049-.258-.124-.364-.22-.064-.032-.077 0-.103.063-.037.112-.041.232-.013.346.011.031.019.063.026.095-.021.08-.086.142-.168.157h-.065s-.312-.126-.26.063c.053.189.48.22.519.22.052 0 .065 0 .065.063s.337-.062.337.252c0 .095-.221.158-.247.063-.019-.086-.093-.15-.182-.157-.077 0-.09.094-.064.283.003.076.021.151.051.221.039.094.026.157-.038.157-.044.011-.084.033-.117.063s-.312-.126-.298-.032c.026.126.285.126.285.126.013.126.065.126.091.126s.052.032.052.032c0 .031.038.063.077.094.064.04.092.119.065.189-.013.032-.026.032-.052 0-.065-.063-.194-.126-.207-.094-.013.031-.065.283 0 .315.052.031.259 0 .259.126 0 .063-.052.126-.039.22.016.105.012.212-.013.315-.013.063-.052.031-.077.063-.036.056-.054.122-.052.189 0 .094 0 .094-.052.094s-.065 0-.078.095c-.013.094-.026.094-.091.094-.064 0-.064 0-.064.063 0 .026-.054.118-.118.13-.01.073-.021.15-.031.232.07.013.123.016.123.016.013.063.039.095.051.095.013 0 .026.031.026.063 0 .031.013.062.026.062s.013.095.039.158c.028.048.037.103.026.157-.013.041-.013.085 0 .126.013.032-.013.284-.052.284-.077-.032-.181-.063-.194.031-.013.126.285.252.285.284.014.167.014.336 0 .504-.012.076-.033.15-.065.22l-.065.157-.09-.031c-.052 0-.104-.063-.13-.095-.012-.019-.039-.042-.073-.063-.007.107-.013.209-.018.302.032.001.066.014.091.014l.064.031-.013.126c-.013.158.104.158.168.22.208.158-.051.315-.064.252 0-.031-.039-.031-.091-.031-.047.019-.094.015-.173-.012-.01.337-.041.876-.037 1.164.003.131.017.223.036.285.042.005.08.01.11.01l.016.001c.001-.024 0-.049 0-.07-.005-.262-.007-.392.055-.426.116-.019.148.197.142.549.098.072.097.08.085.166 0 .03-.047.067-.096.109-.003.061-.007.126-.011.192.128.011.35-.035.354.167-.001.002-.001.004 0 .006v-.006c.01-.037.217-.136.156.163-.065.315-.506 0-.519.032-.007.026-.014.045-.023.058l-.026.326c-.024.456-.077 1.046-.073 1.274.004.227-.023.49-.022.588.002.098-.022.522-.046.98-.024.425-.001 3.623.003 3.884.005.262-.017.817-.01 1.241-.026.446-.019.893.023 1.338l.065 3.851c-.003.197.011.393.042.587l.008.522c-.03.14-.028.286.008.425.032.064.065.129.064.096 0-.032.027-.261.022-.555s.021-.653.018-.817c-.003-.163.015-.947.002-1.73s.001-1.763.026-2.187c.024-.425.044-1.078.037-1.47-.006-.392.017-.849.014-1.045-.003-.163-.014-.816.007-1.436-.032-1.893-.002-1.992.095-1.863.129.226.189.486.171.746.006.36-.106 1.178-.095 1.829-.004 1.633-.059 2.123-.074 3.07-.054 1.491-.028 2.983.076 4.471.045.653.046 1.307.002 1.959-.026.361-.043 1.209-.029 1.992.011.653-.008 1.371-.029 1.992.003.196-.021.653-.013 1.077-.02.719.012.751.075.75.095.03.096.063.002.098-.063.001-.062.066-.09.295-.014.131-.012.262.007.392.002.131.021 3.101-.004 3.46.002.131-.013 1.078.005 2.122.017 1.012.002 1.992.005 2.155-.024.239-.03.479-.02.718.004.229-.023.457-.022.523-.032.14-.03.286.007.425l.001.065c-.036.161-.044.326-.023.49.015.196.008.393-.021.588-.008.057.004.114.034.163.033.049.034.113.003.163-.015.086-.013.175.004.261.034.072.036.155.004.228-.031.039-.03.094.002.131.033.065.057 1.468.052 3.035.009.555-.011 1.208-.008 1.404.005.261.007.392-.025.392-.031.001-.066-.195-.037-.359-.002-.131-.035-.196-.097-.162-.063.034-.062.066-.028.229l.005.294c-.031.062-.03.135.003.196l.006.326c-.027.294-.045 1.045-.036 1.568l.01.587c.006.36.037 4.081.069 5.94l.017.976-.001.004.001.001.023 1.359c-.001.003-.001.007-.001.011s.001.008.001.012l.004.19c-.001.008-.001.018-.001.027v.001c0 .002.001.005.001.007l.007.384c.017.017.028.04.031.065.001.032.001.032-.03.033l.002.118c.018.006.032.03.033.075v.001c-.003.024-.014.046-.03.064l.006.362c.017.017.028.039.032.063 0 .033 0 .033-.031.034l.004.185c.027.014.05.124.036.304.001.086-.009.172-.028.255.002.157.004.287.004.395l.003.004-.003.003c0 .453-.021.509-.081.552-.062.066-.061.131-.046.98l.144 8.513v.005.003l.032 1.853v.037.001c0 .002 0 .004.001.006l.003.187-.001.002c-.028.164-.027.229.004.229h.001l-.004-.231c.029-.129.061-.096.063.034-.02.052-.03.108-.029.163.001.033.001.033-.03.034l.007.423c.03.003.035.258.006.358l.005.295c.001.048.002.114.002.197-.017.099-.011.173.002.209l.003.241c.004.016.004.04.005.072l.002.131v.001c0 .006-.002.012-.006.018l.004.408.001.118c-.007.006-.014.02-.02.042-.022.089-.013.182.022.265l.002.164c.026.008.045.032.047.06 0 .033 0 .033-.031.033-.005-.003-.011-.006-.015-.009l-.001-.084c-.006-.002-.011-.004-.017-.004-.058 0-.036.055.018.088v.017l.002.225c.01.005.017.015.017.027v.001c.001.027.001.054-.016.063v.065l.001.056c.049.081.068.178.054.272-.027.029-.03.033-.051.033.004.396.009.818.014 1.254.016.011.027.03.029.051 0 .031 0 .033-.028.033v.009l.002.09c.015.002.028.015.029.031l-.029.03.005.298c.019.016.03.039.03.064.001.024-.01.048-.029.064l.001.032-.002.003c-.026.085-.035.174-.027.262.003.163.003.163.033.064l.001-.004v-.009l-.005-.316c.029-.055.032.164.005.325l.003.202c.033.127.035.261.006.389l-.001.001.003.255.002.007c.067.227.068.26.005.261v-.001h-.004l-.003-.267.002.007c-.033-.097-.033-.097-.03.033-.028.191-.028.227.031.227l.003.321c-.015.032-.023.068-.024.104l.001.001c.001.051.011.077.024.078l.002.165-.02.115c-.031.066-.061.164-.029.196h.001c.02.042.04.003.05-.072l-.001-.175-.001-.064.008-.049.003.131c.001.059-.003.114-.009.157l.004.4.005.457c.02.022.031.05.018.065-.007.007-.012.012-.017.017l.005.396v.023c.011.041.013.071.002.077l.001.133-.012.007c-.093.032-.061.097.002.096v.002c.004-.001.008-.001.012-.003l-.002-.102c.051-.027.051-.022.052.038-.001.031-.022.056-.05.064.017 1.169.035 1.338.074 1.337.063-.001.097.097.066.162-.031.034-.031.034-.063.001-.031-.031-.061.032-.054.503.014.04.02.097.002.118.006.373.012.458.07.457.032-.001.064.031.067.194l.004.229c-.001 0-.001 0-.001 0-.017 0-.031-.014-.031-.031v-.003c-.001-.017-.015-.031-.032-.03-.032 0-.031.033-.031.065.002.035.03.062.064.065.032-.001.032.032.033.064-.004.046.008.092.033.13.002.066.002.066-.061.067s-.062.066-.048.882c.021.316.016.633-.016.947-.03.066-.022 2.384.023 5.027.003.195.005.389.006.576.002.004.003.008.003.012v.002c0 .011-.001.022-.002.031.001.293 0 .568-.003.805.003.012.005.029-.001.052-.004.269-.011.485-.02.614.021.006.022.034.022.063.001.069-.014.09-.035.073.001-.016.003-.03.004-.04.003-.022.006-.055.009-.096-.003-.001-.006-.002-.01-.002-.025.027-.036.063-.031.099h.001c.009.018.019.032.027.039-.009.115-.011.37-.012.714.014.011.022.028.022.046s-.008.036-.022.048c0 .487.003 1.128-.002 1.797.029 1.697.008 2.317-.022 2.416-.031.118-.028.243.007.36.068.325.116 1.27.022 1.338-.061.066-.026.294.04.489.066.162.036.26-.059.229-.063-.031-.063.001-.052.622.002.219.016.437.042.655-.001.009-.001.018 0 .028 0 .02.003.03.008.034.008.065.018.13.028.195.036.261.093 3.622.077 4.504.004.229-.009 1.339-.02 2.514.006 2.253-.041 3.2-.102 3.299-.08.151-.121.321-.117.492.001.098-.027.262-.026.36-.03.099-.027.262-.057.362.003.13-.028.163-.06.164-.063-.032-.122.23-.145.721-.006.177-.035.353-.086.523-.051.106-.091.216-.12.329-.03.098-.279.266-.307.461-.087.458.018 1.077-.011 1.208s-.122.231-.186.199c-.127-.063-.081-1.108-.051-1.175.061-.132.059-.197.024-.457-.03-.183-.043-.368-.041-.554l-.007-.424-.035-.163c-.034 0-.067.013-.094.034-.062.034-.061.099-.092.132-.052.622-.051 2.548-.082 2.581-.061.099-.126.035-.129-.161-.004-.101-.027-.2-.068-.293-.064-.097-.127-.096-.121.263s-.182.428-.216.298c-.018-.108-.02-.218-.005-.327-.003-.163-.004-.228-.036-.227-.095-.031-.062.033-.09.262-.029.131-.123.166-.155.134-.014-.043-.007-.242.002-.461l.009-.189c.009-.219.016-.418.002-.461-.034-.13-.035-.195-.066-.162.001.033-.125.035-.125.068-.028.217-.024.437.011.653.011.131.002.263-.025.392-.03.066-.023.49-.046.947.007.456-.018.817-.017.849-.031.033-.342.267-.359-.745-.014-.783.218-1.995.185-2.027-.032-.032-.034-.162-.039-.455.007-.175-.006-.35-.04-.522-.041-.237-.045-.479-.012-.718.05-.752.098-1.634-.059-1.599-.188.036-.096 1.765-.125 1.896-.021.122-.051.243-.089.362-.03.065.078.847-.08.85-.157.003-.041-.554-.042-.652-.002-.131-.037-.294-.037-.326-.033-.098-.033-.098-.095-.031-.093.132-.149.525-.19 1.831.013.224-.026.449-.115.655-.048.08-.078.17-.09.263.023.207.016.416-.021.62-.035.068-.117.098-.187.069-.055-.037-.091-.096-.098-.162-.032-.064-.005-.326.048-.915.03-.184.027-.372-.01-.555-.045-.335-.061-.673-.048-1.011-.008-.456.015-.947.013-1.045l-.004-.261c-.033-.064-.033-.064-.094.034-.062.067-.061.099-.094.035l-.006-.327c.03-.129.028-.263-.006-.391-.033-.098-.034-.13-.033-.098.005.036-.006.072-.03.099l.002.13c-.005.034-.015.068-.03.099-.031 0-.033-.13-.037-.36-.005-.261-.006-.36-.038-.391-.064-.031-.068-.26-.01-.555.062-.607.083-1.218.064-1.829-.004-.228.027-.229.063-.001.004.261.066.227.061-.066.011-.146.04-.289.088-.426.064-.739.083-1.48.056-2.221-.044-.75-.061-1.762-.039-2.317 0-.033-.009-.555.012-1.177-.023-.393-.008-.787.042-1.177.031-.033.03-.098-.001-.098-.032-.032-.033-.065-.001-.065.038-.489.04-.98.006-1.469l-.009-.555c-.013-.751-.065-1.958-.099-2.12-.034-.163-.099-3.949-.116-6.789.001-1.828-.016-4.668-.019-4.864l-.062-3.622c-.003-.196.004-.392.021-.588-.005-.294.021-.653.018-.816l-.079-4.635c.003-.153-.01-.306-.039-.456-.061-.333-.077-.673-.049-1.011.029-.15.037-.304.024-.457-.002-.098-.003-.163.028-.196s.019-.719-.001-1.926l-.033-1.926c0-.032-.009-.522.013-1.077-.009-.555 0-1.893-.019-2.97-.048-4.668-.067-5.777-.099-5.842-.039-.171-.052-.347-.04-.522-.007-.36-.008-.456-.072-.488l-.063.001c-.014.185-.011.37.01.555l.009.522c-.023.5-.015 1.002.025 1.501.032.032.032.032.001.065-.03.033-.028.164-.024.392.011.164.003.329-.023.491-.03.131-.033 1.796-.027 2.122l.006.36c.003.163-.023.49-.02.686.002.142-.006.284-.024.425l.001.098c.032.032.039.391.039 2.252-.012 1.142-.012 1.176.052 1.207.031-.001.032.032.001.065 0 .033-.03.098-.029.131.001.098-.008 3.232.037 5.908.016.914.008 2.285.021 3.068l.162 9.53c-.016.371.001.742.05 1.109.064.032.066.162.003.163-.031.001-.031.033-.03.099-.006.055-.016.109-.028.163-.031.034-.031.066.033.098.095.064.097.161.034.195-.062.034-.061.067-.023.49.046.816.047.913.016.947-.031 0-.031.033.001.065l.002.065c-.063.034-.024.49.039.489.032 0 .033.032.002.098-.034.084-.054.172-.058.262-.03.099.002.131.033.13.063-.001.064.065.034.163-.03.066-.029.098.003.131.032.032.032.032.031-.034l-.002-.097c.062-.034.034.13.003.195-.031.034-.031.034.001.066.032-.001.033.097.035.162.001.098.002.131-.03.131-.031.001-.031.034-.06.132-.009.132-.027.264-.057.393-.042.728-.04 1.459.006 2.187l.015.881c.007.077.019.153.035.228.033.049.035.113.003.163-.029.173-.037.349-.022.523l.057 3.394c-.031.001-.028.164.007.36.003.196.046.881.056 1.501.018 1.011.02 1.176.083 1.175.032-.001.064.031.033.097-.028.164-.049.817-.049 2.678.009.091-.011.183-.058.262-.031.033-.061.132-.057.361.024.254-.004.51-.082.753-.047.17-.065.347-.054.523 0 .284-.016.568-.048.85-.036.237-.043.479-.019.718.002.131.036.293.037.326.002.121-.006.241-.026.361-.024.304-.029.609-.016.914l.013.751c.004.228-.049.784-.044 1.11.003.148-.001.493-.011.789-.043.215-.062.343-.016.356-.004.061-.009.106-.014.128-.029.131-.026.327-.056.426.005.08-.016.161-.059.229-.039.046-.06.104-.06.164-.007.057-.042.106-.092.133-.125.067-.249.2-.274.559-.002.11-.011.219-.026.327-.031.033-.022.588-.272.658-.251.069-.13-.194-.161-.193-.032 0-.036-.261-.044-.75-.013-.719.113-.753.049-.818l-.064-.064c.022-.282.027-.566.017-.849-.025-.024-.061-.036-.095-.031-.095.002-.096-.031-.066-.129.03-.099-.002-.164-.065-.163-.032.001.112 1.011-.08.851-.193-.193.01-1.241.029-1.992.023-.49.016-.915.015-.947-.018-.086-.03-.173-.036-.261-.003-.196-.007-.424-.038-.391-.069.367-.105.739-.107 1.112.005.326-.121.328-.121.328-.021-.119-.023-.24-.006-.36-.003-.196.02-.718.012-1.143-.007-.424.015-.979.011-1.24-.005-.261.015-.98.005-1.535.012-3.003.007-3.265.039-3.265.032-.001.031-.033.061-.099-.001-.065-.001-.098-.032-.065-.062.067-.129-.194-.102-.423-.002-.097.022-.555.015-.979-.007-.425.017-.817.017-.849.031-.034.03-.099-.002-.098 0 0-.037-.326-.043-.685-.008-.49-.043-.685-.012-.686.032 0 .032.032.033.065l.002.098.029-.099c.031-.129.029-.263-.006-.391.023-.228.029-.457.02-.686-.039-.424-.165-.389-.125.1.004.196.005.294-.026.294-.032.001-.033-.097-.036-.26l-.015-.849c-.006-.36-.028-1.664-.075-2.578-.008-.489.019-.751.018-.816-.003-.036.008-.071.03-.099.063.032.059-.197.025-.327l-.031.001c-.001.045-.011.089-.029.131-.032 0-.034-.13-.037-.293-.004-.229-.005-.294.059-.263.031 0 .063-.001.062-.066.029-.131.027-.262-.036-.26-.063.001-.067-.228-.022-1.272l-.008-.49c-.045-.203-.059-.412-.042-.62.02-.686.021-2.449.019-2.546-.003-.186-.017-.371-.041-.555-.007-.219.011-.438.052-.654.014-.119.012-.24-.006-.36-.025-.12-.016-.245.025-.36.03-.131.029-.164-.002-.163-.032-.033-.032-.033-.002-.098.031-.033.03-.066-.001-.066-.038-.379-.045-.761-.019-1.142.003-.046-.008-.092-.034-.13-.03-.072-.042-.15-.035-.228.013-.217.009-.436-.012-.653-.009-.273.007-.546.049-.817.014-.141.011-.283-.007-.424-.009-.056.001-.114.029-.164.015-.012.023-.03.023-.049-.001-.019-.01-.037-.025-.049-.052-.1-.065-.216-.037-.325.001-.057-.01-.112-.034-.163-.033-.065-.034-.097-.002-.098.063-.034.057-.361-.006-.36-.017 0-.031-.014-.032-.031v-.001c.011-.188-.013-.376-.072-.554-.032.001-.159-.095-.112.818.007.425.137.683.075.75-.061.099-.061.099-.029.131.008.24.002.48-.019.719.007.391.028 1.632.06 1.696.01.056-.001.114-.028.164-.062.099-.057.361-.066 1.731.01.588-.006 1.469.002 1.926.003 2.057.008 4.179.034 5.713.044 1.52.067 3.029.08 4.097-.011.005-.01.042-.009.11.001.065.002.116.012.142.007.676.01 1.131.012 1.232-.028.229-.011 3.036.027 5.288.009.522-.013 1.077-.011 1.208-.046.543-.058 1.088-.035 1.633l.014.816c.004.228-.017.849-.008 1.371.033.763.015 1.526-.056 2.286-.029.164.079.946-.108 1.079-.187.134-.161-.225-.161-.225l.061-.099c.065-.19.094-.39.085-.59-.01-.199-.097-.096-.187.134-.152.329-.078.981-.102 1.438-.005.143-.024.286-.055.426-.031.065-.221.003-.222-.095-.002-.06-.026-.117-.066-.162-.041-.057-.064-.124-.066-.194-.002-.131.044-1.078-.108-.782-.123.198-.381-.19-.376.137.004.196-.047.915-.047.915-.062.033-.124.1-.124.132-.031.033.192.16.065.13-.189.003.021 1.24.022 1.272-.448-.287-.695-.023-.731-.283l-.002-.098c0-.032 0-.032-.032-.032-.031.001-.033-.097-.037-.359.02-.621.067-1.568.035-1.6 0-.033-.031.033-.093.099-.024.048-.055.093-.092.132-.063.001-.063.001.09-.262.122-.264.179-.591.115-.655h-.031c0 .033-.062.099-.155.199-.123.132-.154.166-.152.296.004.086-.029.17-.091.23-.053.039-.087.099-.091.165.002.131-.093.1-.127-.03-.005-.155.014-.309.055-.457.121-.47.176-.955.165-1.44-.004-.228.024-.424.023-.456.032-.218.018-.44-.042-.652-.033-.065-.033-.065-.063.033-.014.098-.012.197.005.294.012.078.003.157-.027.229-.042.27-.059.544-.049.817-.02.498-.096.992-.227 1.473-.09.295-.312.169-.252.037.065-.145.105-.3.119-.458.014-.124.044-.245.088-.362.119-.394.053-.588-.099-.259-.03.098-.092.164-.123.165-.032-.032-.033-.065.149-.492.125-.231.186-.492.176-.754-.002-.241.015-.481.051-.719.024-.49.015-.98-.025-1.469-.016-.03-.027-.063-.033-.097-.001-.066-.003-.131-.034-.13-.049-.433-.067-.869-.054-1.305-.019-1.142-.024-1.436-.083-1.207.001.033-.026.295-.022.556.002.295-.014.589-.048.882-.022.272-.027.545-.018.817l.012.685c.005.294-.008 1.371-.037 1.503-.03.098-.028.229-.058.327-.028.196-.137 1.179-.166 1.341-.084.222-.144.453-.177.689-.057.361.012.718-.018.784 0 .115-.031.228-.089.328-.093.099-.22.003-.23-.584-.001-.077-.013-.154-.036-.228-.031.001-.032-.065-.033-.13-.003-.131-.066-.162-.096-.064 0 0-.091.23-.155.166-.063-.031-.012 1.11-.265 1.082-.252-.029-.106-.684-.109-.88-.002-.131-.015-.262-.038-.391-.032.001-.033-.065.028-.164.055-.312.071-.631.047-.947-.013-.751-.014-.816-.079-.946-.065-.096-.097-.128-.127-.063-.043.069-.064.149-.059.23-.01.103-.041.204-.09.295-.03.066-.002 1.73-.028 2.057.004.153-.004.306-.023.457-.027.294-.218.134-.218.134-.064-.064.028-.196.049-.817.013-.24-.002-.481-.044-.717-.096-.064-.185.231-.208.721-.027.295-.025.361-.12.363-.095.001-.159-.063-.192-.193-.001-.065-.033-.097-.065-.097-.013.286-.05.571-.111.851 0 .033-.064-.064-.067-.195-.008-.489.067-1.633.063-1.862.008-.097-.029-.192-.099-.259-.096-.097-.096-.097-.19-.062-.062.033-.124.067-.124.1.001.065-.123.165-.155.133-.064-.064-.11-.912-.092-1.696.011-1.208.011-1.208-.051-1.175-.063.032-.064-.032-.001-.066.062-.033.059-.229.034-1.665-.003-2.024-.029-3.558-.003-3.885s-.04-4.178-.078-4.569l-.005-.294c.034-.369.038-.74.013-1.11-.011-.62-.028-1.632-.007-2.252-.005-2.122-.012-2.547-.044-2.611-.033-.049-.034-.113-.003-.164.03-.065.05-.751.021-2.481-.023-1.305-.011-2.449.02-2.481.031-.066-.002-.131-.003-.196-.033-.073-.034-.155-.004-.229.023-.145-.001-.293-.07-.423-.126.002-.092.132-.135-4.242l-.05-2.97c-.002-.065-.034-.097-.064-.064-.032.001-.063.001-.064-.064-.001-.057.023-.065.05-.066l.023-.001c.027-.001.051-.009.05-.066-.001-.065-.002-.098-.064-.064-.031.001-.063-.032-.066-.195-.004-.228-.036-.293-.131-.291-.095.001-.094.067-.111-.978-.009-.522-.046-.848-.047-.88-.027 0-.033-.125-.037-.331l-.003-.186c-.004-.207-.009-.332-.037-.331-.031 0-.031 0-.001-.033.041-.664.019-1.331-.065-1.991l-.005-.026.005-.005c.027-.001.03-.026-.012-.031-.026-.141-.035-.284-.028-.427-.008-.49-.126-3.752-.143-4.731-.027-1.567-.217-5.383-.253-7.472l-.14-8.223c-.029-3.569-.127-7.492.061-7.35l.003.003c-.001-.001-.002-.002-.003-.003-.013-.011-.021-.028-.021-.045 0-.019.008-.038.023-.05.03-.066-.036-.228-.067-.194h-.031c-.001-.033.031-.033.062-.066.031-.001.061-.067.059-.23-.011-.207-.004-.415.021-.621.03-.033-.003-.163-.066-.162-.031.001-.062.034-.061.099.003.164-.022.588-.085.589-.043-.028-.068-.077-.065-.129-.003-.163.024-.425.02-.653.006-.208-.008-.415-.042-.62-.001-.098-.037-.359-.041-.587s.014-1.045-.032-1.86c-.07-2.284.21-2.485.177-2.582-.034-.13-.128-.096-.188.068-.091.23-.123.198-.128-.128.002-.121.011-.241.025-.361.005-.079.025-.157.059-.229.069-.103.053-.241-.037-.326-.032-.032-.078-2.741-.098-3.916l-.042-2.478c-.007-.392-.032-5.582-.034-7.573l.015-.98-.097-.096c-.096-.096-.096-.129-.102-.488-.004-.196-.007-.392.024-.392.032-.001.006-1.502.017-2.743-.008-.424.012-1.143.004-1.6s.014-1.012.01-1.272c-.005-.261.02-.686.015-.947-.004-.261.012-1.143-.001-1.926-.014-.784.006-1.469.006-1.502-.001-.033.008-1.339-.03-1.762-.002-.131.006-.263.025-.393-.004-.195.015-.947.003-1.664-.009-2.351-.015-4.571.01-4.963.007-.22.035-.439.083-.654.016-.086.028-.173.037-.26-.081-.005-.217-.013-.38-.02.012.028.02.058.025.088.002.098-.09.263-.087.426-.013.272-.009.545.013.816-.024-.002-.047-.013-.063-.032-.032-.032-.032-.032-.015-.881.008-.21.013-.341.018-.42-.088-.003-.183-.005-.279-.005-.402 0-.792-.031-.856-.031-.093-.028-.19-.038-.286-.032-.07-.005-.139-.015-.207-.031-.091-.031-.143-.031-.168 0h-.026c0-.031-.091-.031-.195-.031s-.208 0-.234-.032c-.025 0-.051 0-.064.032-.013.031-.039.031-.065 0-.026-.032-.078 0-.104 0-.039.031-.078.031-.091 0-.012-.032-.038-.032-.051 0-.402.036-.805.036-1.207 0-.22 0-.48-.032-.557-.032-.104 0-.156 0-.156-.031 0-.032.078-.063.143-.032.052 0 .077-.031.064-.094-.012-.063-.025-.063-.09-.032h-.117c-.013-.031-.052-.031-.078 0h-.129c-.205-.041-.414-.062-.623-.063h-.233c-.143 0-1.622-.031-2.361-.031h-.388c-.001 0-.002-.001-.003-.001v.001h.003c.012.004.023.031.023.031 0 .063-.026.063-.039.031h.001c-.002-.021.002-.043.012-.062h-.541c-.001 0-.002-.001-.003-.001s-.002.001-.003.001h.006c.012.004.023.031.023.031s-.013.031-.026.031-.026-.031-.026-.031.011-.027.023-.031h-.078c-.003-.001-.007-.001-.01-.001-.001 0-.001.001-.002.001h.012c.009.001.016.007.016.031 0 0 0 .031-.013.031s-.026 0-.026-.031c0 0 0-.027.011-.031h-.154l.001-.001c0-.031 0-.031-.013-.031s-.013.031-.026.031v.001h.038c-.002.005-.014.031-.025.031-.013 0-.013 0-.013-.031h-.048c.003-.021-.003-.047-.017-.064-.026-.031-.039 0-.039.063v.001h.056c-.003.017-.012.031-.03.031-.012 0-.024-.026-.026-.031h-.143v-.001c0-.031 0-.031-.013-.031s-.026.031-.026.031v.001h.014.025c-.002.005-.014.031-.026.031-.013 0-.013 0-.013-.031h-.073c.004-.023-.017-.05-.069-.064v.001h-.143c-.026 0-.052 0-.052.031.013.012.027.022.042.031.062.001.135.001.222.001-.006.027-.05.048-.121.031-.036-.003-.071-.014-.101-.032-.063 0-.114-.001-.157-.003l.011-.028-.013-.031-.013.031.012.028h.003l-.002.003-.001-.003c-.179-.008-.202-.03-.218-.091-.026-.063-.052-.063-.389-.063h-3.387-.002-.001.003c.141.032.14.063-.002.063-.077 0-.362.031-.363-.032h.002c0-.062.295 0 .36-.031h-.735c-.003 0-.008 0-.014 0h-.002c-.001 0-.002 0-.003 0h.003-.003-.072-.001c-.065-.031-.091-.031-.091 0h.092c.051.032.038.063-.014.063-.017-.019-.04-.03-.065-.032-.013 0-.013 0-.013-.031h-.171c0-.032-.039-.032-.091-.032-.062 0-.075 0-.049.032h-.003.001.142c-.002.031-.103.031-.142 0h-.115c-.019 0-.045 0-.078 0-.039-.019-.069-.015-.083-.002l.053.001.03.001h.001c.033.001.064.012.091.031 0 .032-.013.032-.117.032-.026 0-.065 0-.065-.032-.005-.012-.002-.024.007-.033l-.096-.002c.007-.004.011-.012.011-.028 0 0-.026-.031-.052-.031-.039 0-.052 0-.052.031 0 .014.002.022.005.026l.065.002h.023c-.006.004-.015.004-.028.004h-.052s-.004 0-.008-.006l-.162-.003-.048-.001c-.002-.007-.008-.014-.016-.021-.013-.008-.028-.012-.043-.012-.025 0-.048.011-.064.03l.123.003c.009.023-.018.042-.068.042-.025-.002-.048-.013-.065-.032h.001c.002-.005.005-.009.009-.013l-.062-.001c.001-.006.001-.012.001-.018 0-.057-.022-.036-.036.017l.035.001c-.004.024-.014.045-.025.045-.013 0-.013 0-.013-.031.001-.005.002-.01.003-.015h-.006l-.089-.002c.002-.007.002-.015.002-.015s-.014-.031-.027-.031h.001-.001c-.012 0-.012.031-.012.031 0 .006 0 .011.001.014l.036.001c-.001.008-.005.017-.011.017-.011 0-.022 0-.025-.018h-.027-.018c.002-.005.004-.009.004-.013-.026-.032-.13-.032-.13-.001v.001.01l.126.003c-.017.032-.09.077-.113.05-.009-.016-.013-.034-.013-.053-.158-.002-.325-.005-.498-.007.003-.01.005-.022.005-.035.001-.063-.025-.032-.038.031l-.001.001v.003h.034c-.005.017-.013.028-.021.028-.013 0-.013 0-.013-.028h-.003-.036v-.003s.001-.032-.012-.032h-.001c-.013 0-.013.032-.013.032l.001.002.025.001c0 .007-.002.028-.013.028l-.012-.029-.118-.001v-.001s-.012-.032-.025-.032h-.001c-.013 0-.026.032-.026.032l.001.001h.048.003c-.003.007-.015.03-.026.03s-.022-.024-.025-.03h-.013l-.001-.001c-.027-.026-.065-.038-.103-.032-.065 0-.065 0-.026.032h.001.005l.124.001c.023.03-.065.03-.129-.001h-.079c-.012-.032-.025-.032-.025-.032h-.001-.13c-.013 0-.013 0 0 .031l.053.001h.103c-.001.031-.143.031-.156 0v-.001l-.101-.002c.036-.029.035-.029-.016-.029-.075-.031-.089-.032-.089.027l.105.002-.003.003c-.091.063-.104.063-.104 0l.001-.001.001-.004-.127-.002c-.012-.015-.027-.025-.042-.025h-.001c-.02 0-.03.01-.031.024l.074.001c.009.011.017.025.022.038.026.032.013.063-.026.032-.047-.019-.07-.05-.07-.071l-.065-.002-.046-.022c-.026-.032-.065-.063-.078-.032v.001c-.016.02-.001.04.029.052l.069.001h.026l.019.01h-.052c-.024 0-.045-.005-.062-.011l-.159-.003-.182-.003c.011-.024.02-.061.013-.078-.025-.063-.051 0-.051.031h-.001c-.001.016.001.032.006.047h.015.018c-.009.019-.02.03-.026.016-.003-.005-.005-.011-.007-.016l-.157-.002h-.01c.006-.004.012-.008.018-.013.013 0 .013-.032.013-.032-.012-.062-.037-.062-.05 0h-.002c-.009.022-.011.036-.01.044l.031.001c-.016.01-.028.011-.031-.001h-.052l-.002-.012c-.012-.094-.038-.063-.038 0h-.001v.012h.041c.01.051.009.051-.015.051-.012 0-.023-.024-.026-.051-.464-.003-.531.012-.531.051 0 .063-.039.095-.065.063-.013-.019-.013-.044 0-.063.013-.03-.012-.061-.199-.062.01-.009.017-.021.017-.033 0-.062-.038-.062-.064-.031h-.001v.063l.001.001c-.149 0-.182.004-.182.062 0 .032-.013.063-.078.063h-.091s0-.031.013-.031.013-.032.013-.032c0-.031-.013-.031-.026-.031s-.026.031-.026.063c0 .031-.013.031-.025.031-.023-.003-.045.01-.052.032-.026 0-.026 0-.026-.063s-.026-.063-.35-.063c-.195 0-.364 0-.376-.031-.587-.052-1.175-.074-1.764-.067-.005.002-.01.003-.015.003-.017 0-.031 0-.042-.003h.057c.021-.008.039-.029.05-.029.001.001-.011-.031-.064-.031h-.001c-.039 0-.065 0-.065.031 0 .018.009.026.023.029l-.052.001-.022.001-.001.001s-.001 0-.003-.001h.004c.013-.031 0-.062-.013-.03l-.001-.001c0 .022.006.028.01.031l-.099.002c-.189.005-.379-.002-.567-.021.006-.004.009-.011.009-.011 0-.032-.013-.064-.026-.064v.001c-.065-.031-.182-.031-.208 0-.013.032 0 .032.065.032.052 0 .104 0 .13.031.003.004.005.007.008.009l.022.002c-.005.004-.012.006-.022-.002-.081-.009-.162-.02-.242-.034 0-.002 0-.004 0-.006-.013-.033-.026-.033-.039-.033v.001c-.007.01-.012.019-.015.027.006.002.012.003.016.005l.038.006c-.002.025-.014.025-.026.025-.027 0-.035-.016-.028-.036-.046-.011-.148-.018-.284-.024l.001-.003c.013-.031.001-.031-.026-.031-.026 0-.026 0-.013.031l.001.002.037.001c-.012.028-.025.028-.037-.001-.194-.009-.448-.017-.714-.033-.674 0-.921-.031-.96-.063-.039-.031-.065-.031-.143 0-.129.063-.505.095-.531 0-.026-.063-.117-.031-.195.032-.065.062-.104.031-.091-.063.013-.063 0-.063-.246-.063-.089-.001-.177.009-.262.031.008.002.013.009.013.03h.002c.013 0 0 .032-.015.032-.017-.022-.029-.043-.026-.055l.013-.004.013-.003c-.004-.001-.008-.001-.013-.001-.008 0-.012.003-.013.008-.026.007-.051.015-.075.025-.597.031-1.194.031-1.791 0-.09 0-.531-.032-.998-.063-.895-.032-1.272-.095-1.311-.158-.041-.07-.113-.117-.194-.126-.039 0-.104-.031-.143-.031-.039-.032-.104-.032-.143-.063-.003 0-.005.001-.008.001-.031 0-.057-.026-.057-.057 0-.002 0-.005 0-.007.013-.063-.09-.126-.285-.157-.076-.013-.148-.045-.208-.095-.036-.048-.08-.091-.129-.126-.039-.031-.104-.283-.182-.315-.182-.094-.428 0-.48-.031-.057-.045-.087-.118-.077-.19.026-.126.441-.063.467-.031.052.062.078.062.182.031.07-.026.145-.037.22-.031h.168l.065-.032c0-.032-.004-.064-.013-.094-.013-.063-.039-.063-.052-.095-.246-.063-1.011-.095-1.024-.126-.039-.063-.013-.126.064-.126.046-.005.088-.028.117-.063.039-.063.039-.126-.104-.126-.142 0-.168-.189-.116-.22.026 0 .077-.032.129 0 .065 0 .091 0 .091-.032.013-.094-.013-.063-.104-.094-.045-.039-.065-.1-.051-.158.038-.031.402.063.441.032.051-.032.077-.032.064-.063-.013 0-.013-.126-.025-.126-.091-.063-.195 0-.26 0-.052 0-.13 0-.156-.032-.122-.034-.248-.055-.376-.062-.113-.002-.226-.012-.337-.032-.013-.031-.104-.346.298-.346.312 0 .792.252.805.22.012-.032.064-.031.181-.031.071.009.143-.002.208-.032.039-.031.104-.031.285 0 .299.063.648.126.636-.031-.013-.189-.701-.126-.753-.158-.051-.025-.099-.057-.142-.094-.026-.032-.338.063-.338-.095 0-.157.221-.031.26-.031.044-.006.087-.017.129-.032.039-.031.039-.031.013-.094-.051-.095-.207-.158-.726-.221-.143-.031-.195-.031-.26-.126-.022-.042-.059-.076-.103-.094-.013 0-.195.031-.247-.032-.03-.058-.039-.124-.026-.188.013-.063.052-.095.065-.095.026-.031.13 0 .363.063.13.031.168.031.221 0 .052-.032.129-.032.402-.032.182 0 .376.032.415.032h.104c.026-.032.026-.032-.013-.095-.026-.063-.039-.063-.013-.094h.129c.047.032.109.032.156 0 .039-.032.052-.032.039-.032s-.026 0-.039-.031h-.052c-.013 0-.039-.032-.039-.032 0-.031.052-.031.143-.031.104 0 .143 0 .156-.031.013-.063.103-.063.22 0 .236.071.481.103.727.094.091 0 .091.032 0 .063-.104 0-.091.063.026.063.063.016.121.049.168.094.287.077.585.109.882.095.306-.032.614-.032.921 0 .156.001.312.012.467.031.158-.014.318.007.467.063.013.032.039.032.039 0 .013-.031.025-.031.025 0 .191.047.389.058.584.032h.221c.282.004.564-.017.843-.063.065-.032 1.569-.032 2.698 0 .726.031 1.854.063 1.933.063h1.44c.079.001.157.011.233.031.117 0 .259.032.324.032h1.843c.062.005.125-.006.182-.032.127-.055.268-.066.402-.031.026.031.103.031.181.031.039 0 .065 0 .078.032.253.042.51.053.766.031h.765c.143.001.286.012.428.032.22 0 .752.031 1.18.031 1.855.031 2.296.031 2.322 0 .013-.031.104-.031.208-.031.142 0 .181 0 .194-.063v-.063c-.072-.018-.148-.018-.22 0h-.208c-.198-.032-.399-.032-.597 0-.013.031-.013.031-.026 0-.012-.032-.064-.032-.155-.032-.067.009-.134-.002-.195-.031-.279-.04-.561-.061-.843-.063h-.143c-.065 0-.194-.031-.272-.031-.058-.001-.114-.012-.168-.032h-.039c-.013.032-.157.032-.895 0-.454-.031-.467-.031-.48.032 0 .031-.013.031-.026 0-.013 0-.039-.032-.052-.032-.039 0-1.284-.063-2.348-.063-.363 0-.908-.031-1.219-.031h-3.788c-.285 0-.428 0-.441.031-.013.063-.065.063-.065 0 0-.031-.013-.031-.038-.031-.026 0-.052-.032-.065-.032-.013-.031-.026-.031-.039.032-.026.094-.065.094-.078.031s-.026-.063-.195-.031c-.324.031-.363.031-.376 0 0-.032-.013-.032-.026 0h-.025c-.013-.063-.195-.032-.195.031 0 .032-.013.032-.039 0-.027-.032-.063-.054-.104-.063-.039-.031-.051 0-.051.032 0 .063-.026.063-.065.031-.026-.031-.039-.031-.052 0-.013.032-.013.032.013.032h.039c.013.063-.052.031-.078 0-.013-.032-.013-.032-.026 0 0 .031-.039.031-.065.031-.039 0-.052 0-.052-.031 0-.032-.013-.032-.051-.063-.056-.012-.108-.033-.156-.063-.287-.054-.58-.065-.869-.031h-.35c-.039 0-.078.031-.091.031-.013.031-.039.031-.065 0s-.117-.031-.208-.031h-1.349c0-.032-.064-.032-.142 0-.078 0-.351.031-.597.031-.402 0-.467 0-.467.063 0 .031-.013.063-.039.031-.35-.069-.707-.101-1.064-.094-.043.001-.084-.024-.103-.063-.013-.032-.052-.063-.143-.063-.109.015-.218-.02-.298-.095-.059-.046-.133-.069-.208-.062-.115-.006-.228-.027-.337-.063-.09-.04-.189-.051-.286-.032-.044.006-.087.017-.129.032-.049 0-.098-.011-.143-.032-.119-.029-.241-.04-.363-.031h-.299c-.091 0-.312-.063-.441-.063-.108-.001-.216-.01-.323-.027-.077-.043-.125-.062-.134-.025.045.01.089.018.134.025.03.016.064.036.102.058.078.031.168.062.168.062l.001.001c.039.094-.35.157-.402-.095-.005-.023-.006-.04-.003-.051-.016-.003-.033-.007-.049-.011-.052-.031-.13-.031-.168-.063-.039-.003-.074-.027-.091-.063-.013-.031-.039-.063-.064-.063-.013 0-.039-.031-.052-.094-.026-.126-.078-.252-.221-.284-.044-.004-.088-.014-.129-.031-.013-.032-.234-.032-.26-.284s.078-.126.078-.157.104-.031.298-.031c.286 0 .299.126.324.062l.026-.062s.325.062.338.031c.01-.03.015-.062.013-.095 0-.094.012-.094.051-.062.039.031.065 0 .065-.063 0-.032-.402.094-.337-.095.078-.189.493.032.792.063.124.02.25.03.376.031.033-.016.068-.026.104-.031.077 0 .168 0 .155-.031-.136-.073-.286-.115-.441-.126-.001 0-.003 0-.005 0-.068 0-.124-.057-.124-.125v-.001c.045-.019.097-.019.143 0 .077 0 .285.031.454.031.168 0 .389.031.493.031s.389.032.609.032c1.193.063 1.296.063 1.296.094 0 .032.013.032.039.063.026 0 .039 0 .026-.031-.026-.063.078-.126.168-.095.039 0 .221.032.389.032.113.002.226.013.337.031.013.032.039.032.039 0 .09-.02.181-.03.273-.031.194 0 .272-.032.272 0 0 .031-.013.031-.026.031h-.039l.039.032c.026.031.091.031.156 0 .065 0 .194.063.272.031.168-.031.156-.157-.039-.126-.077 0-.116 0-.116-.031 0-.032.039-.032.103-.032h.338c.142 0 .661 0 1.024-.031.109.001.218.011.325.031.025 0 .038.032.038.032-.013.063.078.063.13.031v-.031c-.026 0-.052-.032-.052-.032 0-.031.052-.031.117-.031.091 0 .116 0 .104.063 0 .031 0 .063.025.063.052.031.104.031.104-.032s.091-.063.506 0h.195c0-.031.103-.031.246-.031.273.031.973.063 1.012.063.075-.001.149-.011.221-.032.09-.002.18.02.259.063.039 0 .104.031.143 0 .049-.022.107-.009.143.031.051.032.064.032.064 0 .013-.031.013-.031.039 0 .013.032.026.032.026 0 .15-.031.305-.031.454 0 .023.004.045-.01.052-.031.026-.031.052-.031.091-.031.026.031.143 0 .259 0 .234.031.299.031.325.062.038.032.129 0 .168 0 .025 0 .051 0 .064.032.013.031.026.031.039 0 .017-.029.047-.046.08-.046.018 0 .035.005.05.014.026.002.05-.01.065-.031.026-.032.039-.032.039 0 .013.063.143.063.143 0 0-.031.012-.031.012-.031.026.031.221-.032.221-.063 0-.032.039-.158-.324-.126-.168 0-.273.126-.299.063-.038-.063-.038-.063-.051-.032-.013.032-.247-.031-.286-.031-.225-.009-.451.002-.674.031-.026 0-.052 0-.065-.031-.039-.063-.143-.063-.688-.095-.233 0-.583-.031-.765-.031-.816-.032-1.66-.063-2.27-.063-.604.018-1.205.015-1.63.01-.002-.01-.017-.01-.043-.01-.025 0-.044 0-.055.008l.098.002c.002.004 0 .011-.004.021-.026.031-.117.031-.104 0 0-.011.004-.018.01-.023-.269-.004-.45-.008-.49-.008-.091-.032-1.206-.063-2.101-.063-.208 0-.428-.032-.48-.032-.212-.054-.43-.075-.648-.062h-.325c-.09 0-.337-.032-.544-.032-.306.02-.613-.011-.908-.094-.065-.032-.376.062-.428-.126-.053-.189.09-.158.09-.158l.039.063c.039.063.247.126.234.095.021-.068 0-.142-.052-.189-.13-.158-.389-.095-.571-.126-.078-.032-.156-.032-.168-.063-.026-.032 0-.22.039-.22.026 0 .052-.032.065-.063.014-.033.043-.056.078-.063.051 0 .428.063.312-.095-.078-.126.077-.378-.052-.378-.122-.014-.244-.035-.363-.062-.013-.063-.039-.126-.052-.126-.013-.032-.065.188-.052.062 0-.188-.493 0-.506 0 .115-.441.012-.693.115-.725h.039c.013 0 .013 0 .013-.031 0-.032.039-.032.143-.032.209.043.422.064.636.063.013 0-.013-.031-.039-.094-.021-.03-.039-.062-.052-.095 0-.063 0-.063.104.095.103.126.233.188.259.126v-.032c-.013 0-.039-.063-.078-.157-.052-.126-.065-.158-.116-.158-.039 0-.065-.031-.091-.094-.013-.063-.052-.095-.065-.095-.052 0-.039-.094.013-.126.065 0 .065 0 .182.063.165.122.365.188.57.189.062.003.123.014.182.031.086.036.185.024.26-.031.025-.032.025-.032-.013-.063-.026 0-.078-.031-.117 0-.039 0-.078 0-.091-.031-.039-.032-.078-.032-.324-.063-.213-.034-.413-.121-.584-.252-.116-.095-.064-.315-.013-.252.047.059.11.103.182.126.054.02.103.052.143.094.156.126.233.063.104-.094-.037-.033-.06-.078-.065-.126.013-.032.026-.032.194.157.13.158.143.158.299.189.098.003.195.024.285.063.193.032.391.032.584 0s.026-.032.039-.032c.026 0 .051 0 .051-.031s.208-.031.519-.031c.454 0 .571 0 .48-.063-.072-.018-.146-.028-.22-.032-.119-.003-.237-.024-.35-.063-.106-.026-.216-.036-.325-.031h-.272c-.2-.002-.4-.023-.597-.063-.039-.031-.09-.031-.129-.063-.078-.031-.467-.157-.532-.189-.013 0-.143-.157-.273-.189-.142-.062-.285 0-.312-.031-.056-.008-.104-.044-.129-.095-.039-.094 0-.22.233-.22.033-.001.065-.012.091-.031 0-.032.026-.032.052-.032.027-.001.05-.024.05-.051 0-.018-.009-.034-.024-.043-.015-.01-.091-.095-.065-.158.013-.063-.441-.031-.428-.283s.272-.095.35-.095c.054.001.107-.01.156-.031 0-.032.026-.032.065.031.039.032.129.063.376.063.298 0 .324 0 .376-.063.039-.063.052-.094.026-.126-.017-.036-.052-.06-.091-.063-.039 0-.091-.063-.117-.094-.026-.032-.687-.032-.816-.063-.062.001-.123-.01-.181-.032-.117-.031-.052-.22-.052-.22.026-.063.078.032.324.063.156 0 .272 0 .285-.031.026-.095-.09-.189-.285-.221-.117-.031-.142-.031-.142-.126-.01-.072.019-.144.077-.189.026 0 .039-.031.039-.062 0 0-.298-.063-.337-.126-.013 0 .026-.063.078-.063.194 0 .648.094.739.094.052 0 .078-.031.104-.094.034-.057.043-.125.026-.189-.013-.063-.026-.126-.039-.126-.026 0-.065-.126-.052-.158.026-.063.363-.094.675-.063.48.032.48.032.467-.031s.013-.063.026 0 .09.063.661.063c.804.031 1.414.031 1.544.063.605.031 1.211.031 1.816 0h.116c0 .031.195.031.442.031.298-.005.597.005.895.032.843.031 1.011.031 1.037 0 .013-.032.039-.032.065 0 .026.031.298.063.986.063.33-.017.661.004.986.062.026.032.052 0 .078 0 .01-.014.027-.023.045-.023s.035.009.045.023c.065.032.168-.031.168-.062 0-.126-.051-.095 1.687-.063h1.18c.026 0 .039-.032.026-.063 0-.032 0-.063.026-.063.023 0 .025.024.026.051v.024c0 .027.003.051.026.051.026 0 .039 0 .026-.063 0-.032.013-.063.077-.063.091 0 .117-.032.117-.126 0-.095-.026-.095.389-.095.117 0 .235-.01.35-.031 0-.032.065-.032.168-.032s.168 0 .168-.031 0-.031.013 0c.263.052.534.041.792-.031.003-.004.006-.007.01-.009-.01-.029-.009-.055.003-.055 0 0 .013 0 .013.032l-.001-.001v.016c-.006.002-.011.005-.015.008.001.002.002.005.003.008 0 .029.01.031.012-.016zm23.428 127.087c-.001-.033-.126.002-.126.035.001.032-.088.361.07.39.126.031.056-.392.056-.425zm3.003-1.225c-.093.132-.015.979.047.946.08-.244.129-.498.145-.754-.003-.164-.193-.193-.193-.193zm-3.284-.435c.029-.164.028-.196-.033-.097-.062.066-.088.393-.026.327.043-.069.064-.149.059-.23zm.292-1.344c-.061.099-.027.229-.057.328-.028.196.038.359.007.392-.031.038-.03.093.002.13.005.036-.006.072-.03.099-.031 0-.062.066-.06.131-.029.164.034.196.063.032.03-.066.03-.099.062-.067.005.294.207-.754.202-1.08-.033-.065-.158-.03-.189.035zm1.499 1.085c.032-.001.03-.099.029-.164s-.002-.13-.033-.097c-.032 0-.03.098-.029.163.001.066.002.131.033.098zm-1.796-.035c.094-.034.147-.623.082-.752-.032-.065-.032-.065-.03.066-.007.111-.026.221-.058.327-.058.262-.056.393.006.359zm6.014-.644c.015-.071.032-.153.05-.243.028-.196.056-.425.056-.425.093-.099.172.879-.077 1.013-.019.011-.034.014-.045.011.006-.092.012-.218.016-.356zm-2.515-1.048c.048-.915.042-1.273-.021-1.24-.062.067-.09.23-.107 1.112.008.456-.017.816-.017.849 0 0 .001.033.035.228.066.162.065.096.11-.949zm-3.394.45c-.031 0-.03.066-.029.131s.002.098.032.032c.062-.066.059-.197-.003-.163zm6.04-.462c.001.065-.029.164-.028.196 0 .033.001.065.032.065.032.032.06-.164.058-.295-.003-.163-.065-.129-.062.034zm2.053-1.504c-.023.096-.032.196-.027.294-.006.056-.016.11-.028.164-.031.033-.029.131.041.555.034.195.065.129.091-.165.003-.187.021-.373.054-.556-.008-.457-.074-.619-.131-.292zm-2.039.524c0-.032-.062.034-.061.067.001.065.063.031.063.031zm-.006-.359s-.062.034-.061.067c0 .032.032.032.063-.001zm4.725-.015c.024-.073.034-.151.027-.229-.006-.077.027-.261-.036-.26-.062.001-.09.262-.09.262-.027.262.069.358.099.227zm-4.736-.67c-.062.156-.081.325-.055.49.007.05.03.095.065.13.032.032.031-.066.027-.294-.004-.229-.006-.359-.037-.326zm2.997.276c.002.163.161.225.191.127.03-.096.028-.199-.005-.294-.033-.065-.189.003-.186.167zm1.664-.323c-.031.033.001.098.002.131.001.065.001.065.032.032.024-.039.035-.085.029-.131.03-.098-.033-.097-.063-.032zm-2.49-.088c-.032.001-.062.067-.061.132s.002.13.034.13c.031-.001.062-.066.06-.132.031-.066-.002-.13-.033-.13zm-11.455-3.135c-.001-.032-.036-.228-.038-.391-.004-.109-.016-.218-.037-.326-.049.237-.076.478-.083.72.006.326-.134 3.201.085 3.165.188-.068.106-3.038.073-3.168zm14.006 3.059-.003-.131c0-.032-.062.001-.061.067.001.065.063.097.063.064zm-9.739-.324c.031-.001.03-.098.028-.196l-.005-.294c.056-.426.05-.752-.014-.816-.033-.065-.063-.032-.061.132-.004.392.013.784.052 1.174zm9.701-.036c.063-.001.092-.164.028-.229-.032-.032-.064-.031-.063.002-.031.099-.029.23.034.229zm.057-11.392.011.62c.01.62.038 4.08.019 4.799-.023.522-.016.946-.009 1.338.008.456-.057 2.221-.085 2.417-.004.046.008.092.034.13.032.032.033.097.003.196.002.098-.024.425-.019.751-.02.654-.019.719.012.719.063-.002.091-.263.085-.59-.015-.109-.007-.221.026-.326-.001-.033.027-.262.022-.556s.019-.719.015-.947.019-.751.012-1.143c-.006-.391.014-1.044.008-1.404-.006-.359.004-1.599-.015-2.709.012-1.143-.011-2.514-.02-3.068-.018-1.044-.025-1.469-.088-1.468-.037.172-.045.349-.023.523zm-9.72 9.991c.039-.292.045-.588.017-.882-.034-.13-.062.067-.055.457.005.295.007.458.038.425zm4.834-.996c-.03.131-.027.261.004.261.032-.001.03-.066.029-.164-.002-.163-.002-.163-.033-.097zm-4.826-.408c.031 0 .03-.065.028-.196-.002-.098-.009-.522.015-.947.019-.751-.024-1.403-.083-1.206.001.065-.025.36-.019.718.021.207.014.416-.021.621-.006.338.021.677.08 1.01zm-.221-.028c.063-.002.087-.426.07-1.471-.01-.587-.013-.718-.044-.685-.057.543-.079 1.089-.066 1.634.007.424.009.522.04.521zm5.039-.053c.031 0 .031-.033.03-.066-.031 0-.031.033-.03.065zm.218-.102-.001-.066c-.031.001-.031.001-.03.066s.001.098.031 0zm-.038-.392c.002.131.004.229.035.196.031-.001.03-.099.028-.197-.003-.066-.014-.132-.035-.195-.031.001-.03.066-.028.196zm4.946.047c.03-.096.049-.195.058-.295.008-.1.087-.458-.008-.456s-.024.425-.024.425c-.089.327-.088.392-.026.326zm-14.219-.802c.028-.196-.074-.652-.09-1.631-.018-.567.004-1.134.065-1.698.029-.164-.046-.881-.052-1.24-.001-.033-.032.001-.062.066-.031.062-.03.135.003.196.033.072.035.155.004.229-.028.139-.036.282-.024.425.007.391-.017.849-.017.881 0 0 .042.62.023 1.338-.036 1.568.028 1.632.059 1.599-.032-.001.093-.069.091-.165zm14.263-.276c-.001.045-.011.09-.029.131.003.025.014.048.033.065.032.032.031-.001.029-.131-.002-.131-.003-.164-.033-.065zm.059-.262-.001-.098c-.001-.033-.032 0-.031.033 0 .033.033.097.032.065zm-.003-.196-.002-.098c0-.033-.031 0-.03.033 0 .066.032.098.032.065zm-5.042-.11s-.031 0-.03.066c.001.032.001.065.032.032.015-.012.023-.031.023-.05s-.009-.037-.025-.048zm-5.014-.404c.037-.205.044-.414.021-.621-.005-.261-.133-.358-.161-.193-.045.27-.04.547.014.816zm5.033-.38c-.032 0-.031.066-.029.131.001.065.001.098.032.065.032-.001.03-.066.029-.131-.001-.066-.002-.098-.032-.065zm5.007-.053-.002-.098c0-.033-.031 0-.03.065 0 .034.032.066.032.033zm-5.012-.24c-.031.066-.028.196.003.163.031 0 .03-.066.029-.131s-.002-.066-.032-.033zm.027-.229s-.031 0-.03.066c.001.032.001.065.032.032zm4.977.013-.001-.098c-.001-.033-.032 0-.031.033.001.065.033.097.032.065zm-5.011-.176c-.031.001-.031.033-.03.066 0 .032.032.032.032.065.032-.001.032-.001.031-.066-.001-.066-.002-.066-.033-.065zm.029-.164c-.018.001-.031.015-.031.032v.001c0 .033.001.066.032.033zm4.977.046-.001-.098c-.001-.033-.032 0-.031.033.032.065.033.097.032.065zm-10.051-.221.03-.098c.028-.25.023-.502-.013-.751-.071.142-.101.3-.087.458.004.101.027.2.068.292zm5.086-.967c-.001-.033-.063.001-.062.066s-.055.457.039.424c.063.031.023-.458.023-.491zm-5.071.02c.062-.066.077-1.046.014-1.045-.063.002-.094.067-.085.59.039.423.041.521.071.455zm5.054-1.032c-.001-.065-.095.002-.093.099.001.098.097.129.096.097zm-9.329-.298c.028-.229-.037-.326-.097-.161-.059.196-.056.392.007.424.032.032.063-.001.063-.034.014-.076.023-.153.027-.23zm4.288.22c.031 0 .089-.295.025-.36-.032-.032-.034-.13-.036-.261.027-.262-.035-.228-.062.034-.03.162-.027.328.008.489.017.036.039.069.065.098zm5.028-.64c0-.033-.062.001-.061.066.001.098-.023.49.038.424.062-.066.024-.458.023-.491zm-9.353.062c-.031.033-.099-.26-.135-.52-.002-.131-.039-.456-.043-.685-.006-.327-.039-.456-.071-.455-.032-.032-.032-.065-.034-.13.059-.23.088-.426.056-.426 0 0-.033-.097-.067-.227-.033-.097-.024-.205.027-.294.043-.069.063-.149.059-.23-.005-.261.058-.295.125-.035.066.162.069.326.046.816-.012 1.142-.007 1.469.027 1.632.051.18.054.37.01.552zm4.311-.238c.024-.096.033-.195.026-.294-.032-.032-.093.067-.06.131 0 .033.033.098.033.131-.031 0-.031.032.001.032zm2.809-.354c.004-.002.011.002.021.012h-.001c.032.065.036.293.005.261-.011 0-.018-.007-.022-.021zm7.172.119c.001.065.032.065 0 0 .017 0 .031-.015.031-.032 0-.001 0-.001 0-.001-.001-.033-.032 0-.032.033zm-14.75-.499c-.032-.032-.062.034-.06.164.003.131.035.163.064.065.03-.031.047-.073.046-.116s-.018-.084-.05-.114zm14.707-.186c.001.033.032.032 0 0 .031 0 .031-.033.03-.066-.032.001-.032.001-.031.066zm-14.719-4.222c-.036-2.154-.049-4.733-.033-5.647.013-1.077-.14-11.946-.172-11.978-.063-.032-.054.491-.037 3.396.027 1.566.02 3.003.023 3.166-.023.523-.013 1.11.003 2.024l.073 4.308c.004.066-.006.133-.028.196.001.098-.015 1.012.003 2.057.018 1.044.001 1.893.001 1.893l.04 2.383c.038 2.219.043 2.513.136 2.413 0 0 .03-1.959-.009-4.211zm11.939 3.812c-.031.001-.03.034-.03.066.004.025.015.047.033.065.031-.001.031-.033.03-.066-.004-.024-.015-.047-.033-.065zm-.068-.325c.002.131.004.229.035.228.063-.001.061-.164.058-.295-.034-.195-.097-.161-.093.067zm2.458.028c.002-.021.008-.037.03-.038-.001-.032.032 0 .032.033-.021.046-.043.076-.054.067l-.004-.032zm-9.669.062c.031 0 .031-.033.03-.066.001-.035-.011-.07-.033-.097-.031.001-.031.033-.03.066.001.065.001.098.033.097zm9.982-.137c.003.025.015.047.032.065.032-.001.032-.001.031-.066-.004-.024-.015-.047-.033-.065zm-9.99-.319-.002-.098c0-.032-.031.001-.031.034.034.096.034.096.033.063zm7.271-.255c-.031 0-.03.066-.029.131-.001.035.011.07.033.097.032 0 .031-.065.03-.131.001-.035-.011-.07-.034-.097zm2.393-.041c-.031.001-.03.033.002.065.003.025.015.048.032.065l-.001-.065c-.004-.025-.015-.047-.033-.065zm-.099-.259c-.031 0-.03.066-.029.098.003.025.015.048.032.065.022-.028.032-.063.03-.098 0-.033-.001-.066-.032-.065zm-9.574.033c.032 0 .031-.033.03-.066-.003-.024-.015-.047-.032-.065-.032.001-.031.034-.03.066 0 .033.001.064.032.064zm7.21-.156c.001.065.003.13.034.13.031-.001.029-.164-.004-.229 0-.032-.031.001-.03.099zm-2.11.037h-.031c-.017.001-.031.015-.031.032v.001l.032.033c.031-.035.031-.035.03-.066h.001l-.001-.001zm-2.112-.129s-.031.001-.03.066c0 .033.001.065.032.032zm4.01-8.719h-.001.001c-.063.005-.024 2.319.043 2.578.024.074.036.151.036.228l.087 5.157c.008.456.041.554.072.521 0 0 .023-.49.014-1.045l-.063-3.688c-.022-1.305-.051-3.035-.092-3.589.004-.013.006-.027.006-.041-.001-.06-.045-.111-.103-.121zm2.914 8.406c.031-.001.03-.066.03-.099-.001-.032-.033-.064-.033-.097-.032 0-.031.033-.03.098-.031.066.002.131.033.098zm-14.205-.019c.017 0 .031-.015.031-.032v-.001l-.032-.032-.031.033c0 .032 0 .032.032.031zm.06-.164c.031-.001.031-.033.03-.066-.003-.024-.015-.047-.032-.065-.032.001-.031.034-.031.066.001.033.001.064.033.064zm7.178-.189s-.031.001-.03.066c0 .033.001.066.032.032zm6.896-.149c.015.053.026.107.034.162.002.098.002.098.032.032.015-.075.014-.153-.004-.228-.002-.131-.033-.13-.032-.065-.021.029-.031.063-.031.099zm-14.078.077c.031-.001.062-.034.061-.099-.001-.033-.033-.097-.065-.097-.031.001-.062.034-.061.099s.033.096.065.096zm7.161-1.135c-.017 0-.031.015-.03.032v.001c0 .033-.016.947.047.946s.015-.947.015-.947c0-.032 0-.032-.032-.032zm-7.168.776c.032-.001.031-.066.03-.099-.003-.024-.015-.047-.032-.064-.032 0-.031.033-.03.098s.001.065.032.065zm-.004-.263-.001-.065c-.032-.032-.032.001.001.065-.032.001-.031.034 0 .001zm-.006-.326c.032-.001.03-.099.029-.196-.002-.098-.004-.196-.035-.163s-.214.363.006.359zm9.24-1.234s-.038-.424-.061.099c.003.163.04.489.046.848.001.098.002.131.033.097.025-.348.019-.697-.019-1.044zm-9.189.515c-.006-.131.002-.263.025-.392.035-.369.05-.74.044-1.111-.001-.065-.002-.098-.033-.097-.032 0-.001-.065.029-.131.061-.099.061-.132-.003-.196-.032-.032-.033-.065-.001-.065.031-.001.028-.164-.007-.36-.039-.456-.039-.489.021-.654.022-.718-.001-1.438-.068-2.153.004-.078-.008-.155-.036-.228-.001-.065-.033-.098-.032-.065-.032.001-.029.164-.025.361.002.163-.023.522-.019.784-.025.36-.031 1.861.011 4.341-.004.046.008.092.034.13.033.065.001.066-.03.066-.032.001-.063.001-.062.066-.029.164-.028.229.003.196.032 0 .031-.066.03-.098-.001-.065.03-.066.062-.067.031 0 .062-.066.057-.327zm9.148-1.037c-.001-.031-.031.002-.03.035.001.065.001.065.031.032.032-.002.031-.035-.001-.067zm0 0v.001zm.028-.195c-.031.001-.03.033-.03.066.001.065.032.032.062-.034.001-.001.001-.002.001-.002-.001-.017-.015-.031-.032-.031h-.001zm4.751-.343c0-.033.029-.098.031-.066 0 0 .003.196-.028.196zm-4.77-.832c-.002-.098-.034-.13-.065-.097l.016.947c.097.16.083-.656.048-.851zm4.967-.543-.001-.064c-.03.098-.03.13 0 .064zm-.211-1.462-.002-.003c-.032-.032-.032.001-.031.066s.001.065.032.032l.001-.001zm-2.685-.284.032.032.03-.033v-.001c0-.017-.014-.031-.031-.031 0 0 0 0-.001 0zm2.731-1.232c-.005-.015-.012-.022-.012-.022-.034.003-.061.032-.062.067h.001c-.03.173-.027.35.008.522.032.032.032-.001.029-.164-.01-.11-.002-.22.026-.327.004-.009.007-.017.009-.024zm-14.094-2.002c-.035-.195-.038-.393-.009-.588-.002-.065.029-.131.029-.099l.012.686s.075.684.084 1.239c.007.392-.05.752-.082.72-.095-.064-.034-1.936-.034-1.958zm14.046 1.687c.031-.001.031-.033.03-.098-.001-.066-.003-.131-.034-.131-.031.001-.029.197.003.229zm.05-.535c-.004-.011-.016-.019-.029-.019-.031-.001-.031.032-.03.065v.001c.026.053.052.041.06-.002zm-.062-.083c.032-.001.031-.066.03-.131-.001-.066-.003-.131-.033-.098-.032.001-.031.066-.03.131 0 .035.011.069.033.096zm.156-.101.032.032c.018 0 .031-.015.031-.032v-.001c0-.033-.032-.032-.031.001zm-.136-.618c.017 0 .031-.015.031-.032 0 0 0 0 0-.001-.032-.034-.063-.001-.031.031zm-.037-.325c.001.097.002.163.034.162.031 0 .03-.066.029-.164-.009-.054-.02-.109-.035-.162-.014-.054-.031.031-.028.161zm.191.127c.031-.001.031-.033.03-.066-.003-.024-.015-.047-.032-.065-.032.001-.031.033-.031.066.004.024.016.046.033.063zm-14.208-.152v-.001zm14.008-.465c-.031 0-.03.033-.03.066.033.064.064.031.062-.034.031-.035-.001-.067-.032-.034zm.215-.33-.001-.098c-.001-.033-.032 0-.031.033.001.063.033.095.032.063zm-.223-.192c.031-.001.03-.066.029-.131-.001-.066-.002-.131-.033-.098-.032.001-.031.066-.03.131 0 .035.011.069.033.096zm.186-.167c.031 0 .031-.033.03-.066-.031-.001-.031.032-.03.065zm-.195-.355c-.03.131-.029.196.003.196.031-.001.03-.066.029-.132-.002-.132-.002-.132-.032-.066zm.217-.169c-.03.033-.031 0-.032-.063-.001-.033.03-.066.031-.033zm0 0v.001zm-.255-.191c.004.025.015.047.033.065.031-.001.031-.001.03-.066-.004-.024-.015-.047-.033-.065-.016.018-.027.041-.03.065zm.057-.393c.031 0 .03-.033.03-.065-.032-.001-.063.032-.03.064zm-.038-.359c.002.131.004.228.035.195.029-.14.027-.285-.007-.424-.02.075-.03.152-.028.229zm-14.721-.696c-.039.046-.06.104-.06.164-.013.196-.01.392.01.587.001.066.065.097.063.032zm9.982-.169s-.031 0-.03.066c0 .032.001.065.032.032zm-9.926-.224c.003.163-.058.295-.058.262l-.006-.36c-.008-.088.001-.177.027-.261.018.119.031.239.037.359zm14.678.012c.032.032.061-.099.06-.197-.004-.025-.015-.047-.033-.065-.063.001-.059.229-.027.262zm-14.731-1.317c-.033-.065-.031.033-.028.229-.024.457-.02.653.042.587.011-.272.006-.544-.014-.816zm.767.674c.017-.001.031-.015.031-.033 0 0 0 0 0-.001l-.001-.065c-.004-.024-.015-.047-.033-.065-.021.029-.032.064-.03.099-.03.064.002.097.033.063zm13.946-.401c.032.032.034.13.035.195s.002.098.034.13c.031-.001.031-.033.028-.164.008-.081-.016-.163-.066-.227-.032-.033-.063 0-.031.065zm.027-.295c.027-.26.022-.523-.014-.783-.031 0-.029.098-.027.262.005.293.01.554.041.521zm-14.798-.234c-.005-.012-.01-.024-.01-.036-.005-.036.006-.072.03-.099.03-.033.031 0 .033.097.002.131-.03.132-.03.099 0-.012-.005-.024-.011-.037zm.053-.038v.001zm7.724-.109c.049-.055.087-.119.113-.187.028-.229-.041-.555-.104-.553-.108-.027-.046.494-.025.686-.014.003-.026.016-.025.031v.002l.032.032zm-.016-.054h.005c.03-.001.033.028.007.059l-.005.006c-.001-.01-.003-.033-.007-.065zm-6.705-.081c.018-.001.032-.015.031-.033 0 0 0 0 0-.001 0 0 0 0 0-.001 0-.017-.014-.031-.031-.031-.001 0-.001 0-.001 0l-.031.034c-.031-.001.001.032.032.032zm-1.029-1.257c-.002-.034-.03-.062-.064-.064-.038.183-.045.37-.022.555.006.327.042.62.043.653 0 .032.001.065.032.064.063-.034.044-1.111.011-1.208zm14.721.698c.032.032.094-.001.062-.066-.001-.033-.032-.032-.064-.032-.031.001-.03.064.002.096zm-4.766-.574c-.031.001-.031.001-.031.034.001.032.032.032.033.064.031 0 .031 0 .031-.033-.001-.032-.001-.065-.033-.065zm4.689-.275c.001.065.001.065.032.032l-.002-.098c-.017.018-.028.041-.03.066zm-14.652-.338s.058-.295-.067-.261c-.126.035.003.229.003.229-.001.077-.011.154-.027.229 0 .035.012.069.033.097.033.065.033.065.063-.001.031-.033-.003-.162-.005-.293zm14.799-.306c-.009-.025-.021-.044-.033-.043-.063.001-.061.099-.029.163l.063-.001.001-.001-.002-.097zm-14.81-.347c.002.13.004.228.035.261-.061.066-.061.099-.072-.554-.021-.228-.025-.457-.012-.686-.001-.065.094-.067.098.195.005.261-.051.686-.049.784zm14.74.012c.003.131.066.13.063-.001-.001-.065-.001-.098-.033-.097-.032-.034-.031.031-.03.096zm-4.727-.181c-.001-.033-.031 0-.031.033.001.065.001.065.032.032zm4.716-.506c.017-.001.031-.015.031-.033 0 0 0 0 0-.001-.001-.032-.032-.032-.064-.031-.031.033-.03.066.033.065zm-14.782-.63c0-.033-.063.001-.062.034.001.065.064.064.063.031zm14.802-.054c.032.065.032.065.029-.131l-.032-.032c-.064-.034-.061.097.003.161zm-14.466-.572c-.032-.032-.032-.032-.031.033-.001.035.011.07.033.097.031.032.029-.065-.003-.13zm14.499-.037c-.003-.014-.008-.029-.013-.045 0-.001 0-.001 0-.002 0-.017-.015-.031-.032-.03-.028.01-.046.036-.046.065.001.03.02.056.048.065.022.022.037.029.045.024zm-.006-.501c-.024-.029-.061-.05-.078-.032-.016.015-.025.035-.025.057.001.034.025.064.058.071v.002c.025 0 .03 0 .046-.016v-.038zm-.079-.413c-.006.001-.005.017-.005.054-.004.045.008.091.034.129v.001c.032.032.032.032.031-.033 0-.013-.005-.029-.011-.047l-.012-.036c-.006-.018-.011-.035-.011-.047-.013-.013-.021-.021-.025-.021zm-14.185-.391h.01l.01.001c.002.012.004.024.007.036-.029.028-.057.026-.058-.004 0-.001 0-.001 0-.001 0-.017.014-.032.031-.032h-.001zm14.25-.64c.009-.022.022-.041.037-.059.03-.066.062-.034.033.065-.018.119-.047.178-.069.177zm-.014-1.233-.001-.003c-.018.018-.029.042-.03.067v-.001l.006.327c0 .032 0 .032.03 0l-.001-.131zm-.01-.687-.002-.001c-.018.018-.028.042-.031.067v-.001c.004.024.015.047.033.064l.001-.001-.001-.118zm-.005-.359h-.003c-.018.001-.032.015-.031.032v.002c0 .017.014.031.031.03h.001l.002-.003zm-.003-.183c-.01-.008-.022-.012-.035-.013-.063.002-.031.066.033.098v-.001h.003zm-.073-.37v.001c0 .018.015.031.032.031.031 0 .031-.033.03-.066v-.001c0-.017-.014-.031-.031-.031h-.001c-.031 0-.031.033-.03.065zm-.011-.653v.002c0 .017.015.031.032.03.017 0 .031-.015.031-.032v-.001l-.032.001c-.032-.033-.031-.001-.031-.001zm.067-.536c-.004-.007-.009-.014-.014-.021-.03.066-.026.327.006.327.004 0 .008 0 .011-.001zm-.002-.212c-.005-.002-.009-.004-.015-.004-.017.018-.028.042-.03.066v.002c0 .017.014.031.031.03h.001c.005 0 .01-.001.014-.003zm-.007-.797c.023-.022.042.045.045.172.001.056-.008.111-.029.163-.005-.009-.009-.019-.014-.028zm-.006-.748c-.005-.017-.013-.026-.029-.025-.018.041-.028.086-.029.131.002.098.002.13.034.13.011 0 .02-.006.025-.014l-.001-.164zm-.005-.45.001-.001c-.002-.077.007-.154.027-.229.032 0 .032.032.037.293.001.066.002.164-.029.164-.012.013-.025.006-.034-.018l-.001-.134zm-.013-.85h-.001c-.031.001-.03.098-.027.229.002.164.003.197.034.131h-.001l.001-.002zm-.015-.885c.001-.026.007-.02.031.004v.001c0 .017-.013.032-.03.032v.007-.006h-.001l.001-.001zm.06-.16-.003-.13c0-.033-.031.001-.03.066.033.064.033.097.033.064zm-.005-.293c-.028-.107-.041-.217-.037-.327.03-.066.03-.033.033.13zm-.087-1.408c.025-.355.057-.354.063.004.003.196.047.914-.016.915s-.013-.743-.047-.911zm-4.697-.274c-.001-.033-.063.001-.062.066.001.066.064.065.063.032zm4.721-.145c.002.097.033.097.064.031.03-.066-.004-.196-.035-.163-.031.001-.03.066-.029.131zm.054-.556c.031-.001.029-.099.028-.197-.003-.066-.015-.132-.035-.195-.018.064-.028.13-.028.197.001.097.003.195.035.195zm-.05-1.044c.032-.001.029-.164.026-.361-.004-.196-.006-.326-.037-.326-.032.001-.03.132-.026.361.001.11.013.219.037.326zm.306-.56c-.03.14-.028.285.007.424.066.162.096.097.06-.164-.005-.326-.039-.456-.067-.26zm-5.046-.371c-.001-.033-.063.001-.061.099.001.098.064.096.064.064zm4.723-.113c-.032 0-.031.033-.031.065.004.025.015.048.033.065.017-.018.027-.041.03-.066.031-.033-.001-.065-.032-.064zm.28-.201c.014.054.026.108.034.163.006.034.017.066.033.097.018-.064.028-.13.028-.196-.003-.164-.035-.228-.097-.162zm-.254-.094-.002-.098c0-.032-.063.002-.061.067.032.032.064.064.063.031zm-4.79-.179c.001.065.033.13.032.064l-.002-.098c0-.032-.031-.032-.03.034zm5.103.043c.027-.26.023-.523-.014-.783-.036-.26-.032-.032-.031.001-.032.261-.017.526.045.782zm-.382-.221c-.001.035.01.07.033.097.041-.059.039-.138-.003-.196-.015.031-.025.064-.03.098zm.026-.295c-.031.001-.031.034-.03.066.004.025.015.047.032.065.017-.018.028-.041.031-.066.031-.033-.001-.065-.033-.065zm-.002-.13c.031-.001.03-.066.029-.131-.001-.066-.002-.131-.033-.098-.031.001-.03.066-.029.131.006.034.017.067.033.097zm-4.73-.312s-.031.001-.03.066c.001.033.001.065.032.032zm4.786-.113c-.031 0-.031.033-.03.065l.001.066c.017-.018.027-.041.03-.066zm.186-.167c.003.163.005.294.036.293.032 0 .03-.131.027-.294-.002-.099-.014-.197-.036-.293-.023.096-.032.195-.027.294zm-.266-.811c-.027.249-.023.502.013.75.034.13.034.163.065.13s.048-.883-.078-.881zm.321.32c.032.032.032.032.031-.033-.001-.033-.002-.098-.033-.097-.063.001-.062.066.002.13zm-.101-.39c0 .033.032.033.032.065.032 0 .032 0 .031-.033-.004-.024-.015-.047-.032-.065zm.061-.099-.002-.097c0-.033-.031 0-.03.065.032.032.033.065.032.032zm-.296-.713c-.028.197-.021.588.042.587.031 0 .031-.033.03-.098-.003-.099.006-.198.026-.295-.003-.195-.069-.39-.098-.194zm.259.42.002.098c.032 0 .028-.196.028-.196 0-.033-.03.033-.029.098zm.058-.327c-.032 0-.063-.032-.033-.065-.001-.065-.001-.098.03-.098.018.017.029.04.033.064 0 .033.001.098-.03.099zm-.353-.353c-.032-.065-.032-.065.062-.066.095.031.129.193.035.195-.032 0-.063.001-.064-.032 0-.012-.004-.024-.01-.036l-.012-.025c-.006-.012-.01-.024-.011-.036zm.316.027c.033.097.033.097.031-.033-.001-.066-.002-.098-.033-.065zm-.316-.027.001.001zm.345-.137c.031 0 .031-.033.03-.066-.004-.024-.015-.047-.033-.064-.031 0-.03.033-.03.065-.031.034.001.066.033.065zm-.257-.257c-.031.001-.031.034-.03.066 0 .033.032.032.063-.001.062-.034-.002-.098-.033-.065zm.176-.786.009.522c-.001.088.011.176.036.261.036-.227.043-.458.019-.686-.013-.784-.046-.848-.072-.554zm-.152.328c.001-.035-.01-.07-.033-.097-.029.151-.027.306.008.456.031.001.029-.097.025-.358zm-.069-.324c-.031 0-.062.033-.061.099.002.097.096.096.095-.002.03-.066-.002-.098-.034-.097zm-.033-.13c.032.064.062-.034.06-.132-.001-.065-.001-.098-.033-.097-.031 0-.06.131-.027.228zm-4.727-.148c.031-.001.06-.132.056-.362-.003-.195-.035-.26-.097-.194-.003.186.01.371.041.554zm4.779-.473c.018.017.029.04.033.064.032.032.032.065.001.066-.017-.018-.029-.041-.033-.065zm.187-.134c0 .056.012.111.034.162.032 0 .031-.033.029-.131 0-.056-.011-.111-.034-.162-.025.039-.035.085-.029.131zm-4.887-.276c-.034-.163-.097-.162-.126.002-.029.131-.028.196.035.195.095.031.126-.035.091-.197zm4.849-.082c.001.033.032.032.033.065.031-.001.031-.001.03-.066-.003-.025-.015-.047-.032-.065 0 .033-.031.033-.031.065zm.058-.328-.003-.163c0-.033-.094.001-.093.099.002.065.096.096.096.064zm-.072-.521c0 .056.012.112.034.163.04-.105.038-.222-.005-.326-.021.052-.031.107-.029.163zm-.131-.099-.029-.029-.031.034.032.032.028-.03zm.157-.228c-.043-.193-.057-.391-.041-.587.028-.196.025-.327.057-.328.031 0 .032.065.035.196-.023.107-.032.217-.026.327l.004.261c.006.046-.004.092-.029.131zm-.169-.726c-.023-.011-.049.042-.061.175l.006.36c.001.065.003.13.034.13.012-.035.021-.07.029-.106-.002-.157-.005-.342-.008-.559zm-.005-.282-.001-.001c-.031 0-.031 0-.031.033.004.024.015.047.033.065v-.033zm.173-.886c.017.132.008.265-.025.393-.03.033-.026.294.005.261.031-.001.03-.066.03-.099-.006-.045.004-.092.029-.131.018-.24.003-.481-.044-.717-.022.097-.02.197.005.293zm-.182.384c-.02-.008-.046.009-.063.044-.03.066.002.098.065.097l.001-.001zm-.003-.216-.001-.001v.001c-.032.001-.032.001-.031.033 0 .033.032.032.032.065h.001zm-.007-.419c.001-.022.007-.039.03-.039v-.001c.017 0 .031.014.032.031v.002c0 .033.001.065-.031.066-.015 0-.028-.01-.031-.024zm.147-.53c-.031.062-.03.135.003.196.009.055.02.109.035.163.003.024.015.047.032.064.031-.15.029-.306-.008-.456-.031-.034-.031-.034-.062.032zm-.151.317c.002-.021.013-.041.03-.055.017.018.029.041.032.065-.002.024-.013.048-.03.066-.017-.013-.028-.032-.032-.053zm.117-.447c.017.017.04.028.064.032.031-.001.062-.067.062-.067v-.001c-.001-.017-.015-.031-.032-.031-.001 0-.124.066-.093.066zm.092-.231c.032-.001.031-.066.03-.099 0-.033-.032-.065-.033-.097-.031 0-.031.033-.03.098-.031.066.001.131.032.098zm-.072-.489c.004.025.015.047.033.065.031-.001.031-.001.03-.033 0-.033-.032-.033-.032-.065-.017 0-.031.014-.031.032zm-.097-.162-.001.001zm-.063-.035c.003-.023.013-.045.029-.062.063-.001.064.064.034.097-.031.001-.032.001-.063-.03zm.154-.129c-.019-.041-.031-.085-.033-.13-.002-.065-.002-.098.029-.099.02.041.031.085.034.13.001.066.002.098-.03.099h.001zm-.043-.718c-.002-.098.061-.131.092-.099.032-.001.032.032.033.065-.029.084-.038.173-.027.261.001.098.003.196-.028.197-.032 0-.033-.065-.033-.098-.001-.032-.036-.228-.037-.326zm.091-.197c.031 0 .029-.098.028-.196-.003-.163-.035-.196-.066-.162-.062.033.006.358.038.358zm-.045-.75c-.031 0-.03.033-.03.066.004.024.015.047.033.064.031 0 .031-.033.03-.065-.004-.025-.015-.048-.032-.065zm-.062-.032c.001.033.063-.033.061-.131.016-.098.014-.197-.005-.294l-.002-.131c-.001-.065-.033-.097-.064-.064-.013.207-.01.414.009.62zm-.044-.75c.004.025.015.047.033.065.031-.001.031-.001.03-.033 0-.033-.032-.032-.032-.065-.001-.033-.032.001-.031.033zm.029-.131c.036-.02.059-.058.061-.099.006-.251-.009-.502-.044-.75-.032-.032-.063-.032-.063.001-.001.283.014.566.045.848zm-.018-1.044c.032-.001.031-.033.031-.066v-.001c-.001-.018-.015-.031-.032-.031-.032 0-.031.033-.031.066.001.032.032.064.031.032zm-.035-.228v.001c0 .017.015.031.032.031.017 0 .031-.015.031-.032 0-.001 0-.001 0-.001 0-.017-.015-.031-.032-.031s-.031.015-.031.032zm-14.746-.239c-.003-.025-.015-.047-.032-.065-.032.001-.031.033-.031.066.004.024.015.047.033.065.031-.034.031-.034.03-.066zm14.742-.022c.032.064.063.031.062-.034v-.001c0-.018-.015-.031-.032-.031-.064.001-.064.034-.03.066zm-14.617-.111c0-.033-.032-.032-.063-.031-.017 0-.031.014-.031.032v.001c.001.032.032.032.063.031.031.032.031 0 .03-.033zm14.676-.054-.002-.097c-.001-.033-.063.001-.062.066.002.033.064.064.064.031zm-.082-1.173c.001.065.001.065.032.032.015-.013.023-.031.023-.05-.001-.019-.01-.037-.025-.048-.032-.032-.031 0-.03.066zm.027-.165c-.055-.466-.063-.936-.023-1.403.031-.001.035.229.043.685.022.239.016.48-.02.718zm-.025-1.534c.031 0 .029-.131.026-.294-.004-.229-.005-.294-.035-.228-.061.133-.055.524.008.523zm.017-.816c.059-.23.049-.817-.013-.784-.036.161-.044.327-.023.49.005.328.038.425.036.295zm-.015-.914c.031-.001.029-.131.027-.262 0-.088-.012-.176-.036-.26-.032 0-.03.131-.027.261-.001.088.011.176.036.261zm-.207-23.272c-.034-.13-.097-.161-.097-.129-.019.121-.006.245.038.36.032.031.062-.068.059-.231zm-.007-.424c.06-.164.051-.687-.011-.62-.123.165-.124.133-.089.328.031.073.053.149.067.227.002.098.002.131.033.065zm-15.32-9.99c-.032 0-.063.033-.061.099.001.065-.108 1.111.051 1.175.128.095.042-1.242.01-1.274zm11.539.652c.029-.107.028-.22-.006-.326-.033-.097-.157.003-.154.166.002.163.129.226.16.16zm-.01-.587c.031-.073.03-.157-.004-.229-.032-.032-.062.034-.06.165.002.13.003.163.064.064zm-11.581-1.24c-.031.033-.146.656-.081.753.04.092.063.191.067.292l.063-.001c.027-.294.076-1.144-.049-1.044zm11.445-3.591.001.097c.042.006.065.02.073.06.004.066-.022.103-.072.121.002.159.002.317.002.474-.001 1.796-.123 2.059-.076 2.939.014.849.298.877.38.157.028-.229-.102-.454-.071-.488.01-.068.03-.135.06-.197.007-.143.026-.285.055-.426.058-.235.064-.48.02-.718.003-.078-.009-.155-.036-.228-.031 0-.031 0-.063-.032-.037-.314-.042-.631-.016-.946.025-.283.025-.567-.003-.849-.095-.015-.19-.027-.255-.028zm-11.416 3.428c.03-.085.029-.178-.004-.261-.033-.065-.032 0-.029.163.002.131.034.163.033.098zm-.011-.653c-.032-.032-.031.033-.03.098.002.098.034.13.064.065 0-.033-.002-.131-.034-.163zm-.009-.554c-.063.034-.055.457.008.456.031 0 .061-.099.058-.262.029-.131-.036-.228-.066-.195zm.023-.492c-.033-.097-.063.001-.06.164.002.163.035.228.065.162.03-.106.028-.219-.005-.325zm11.778-.068c.032-.001.03-.099.029-.164-.005-.056-.016-.11-.034-.163-.032.001-.031.066-.029.164s.003.163.034.162zm2.637-.535c.002.131.16.16.19.062.032-.073.03-.156-.004-.228-.064-.065-.22.037-.186.166zm-.334-1.552c-.026.039-.068.092-.114.11-.068.024-.156-.005-.25-.021.1 1.357.253 1.114.282 1.113.051-.001.09-.763.082-1.202zm.311-.781c-.012.583.002 1.166.044 1.747.003.196.225.29.254.127.027-.262-.114-1.108-.062-1.795-.001-.019-.001-.038-.001-.057-.083-.007-.16-.014-.235-.022zm-27.328.986c-.078-.032-.13-.032-.168 0-.065.063-.039.094.065.063.129 0 .181-.032.103-.063zm.272-.032c-.013 0-.039.032-.065.032-.013 0-.039.031-.039.031.023.018.05.029.078.032.065 0 .091-.032.065-.095zm.09.063c-.013.032.285.032.312 0 0 0 .013-.031 0-.031-.013-.032-.298-.032-.312.031zm3.923-.075c.007 0 .014.004.021.014.026 0 .039 0 .039.031-.005 0-.01.004-.014.01l-.01.011c-.005.006-.01.01-.015.01-.013 0-.039 0-.039-.031v-.001c-.009-.022.001-.043.016-.044zm-2.6.044c0 .031.013.031.026.031s.026-.031.026-.031c0-.031-.013-.031-.026-.031-.012-.032-.025-.001-.025.031zm-.635 0c-.013.031-.013.031.013.031.013 0 .039 0 .039-.031.001-.063-.026-.063-.052 0zm3.826-.095c-.044.008-.087.018-.129.032-.013 0-.039 0-.039.031 0 .032.039.032.078.032.038 0 .09 0 .103.031.013 0 .026 0 .026-.031.014-.032.001-.095-.038-.095zm.079.095c0-.032.13-.095.142-.032.013.032 0 .063-.065.063-.039 0-.078 0-.078-.031zm-3.466 0c0 .031.026.031.039.031s.026-.031.026-.031c0-.032-.013-.032-.039-.032-.01-.031-.023 0-.023.032zm2.688-.095c-.008.02-.013.042-.013.063.002.023.011.045.026.063.013 0 .013-.031.013-.031s-.026-.125-.026-.095zm-.052.032c-.013-.032-.052-.032-.078 0-.026 0-.052.031-.065.031s-.026.032-.026.032c0 .031.117.031.182 0 .013-.032.013-.032-.013-.063zm-.312.031c.077-.031.13 0 .117 0-.089.042-.189.053-.285.032-.008-.022-.03-.035-.052-.032-.013 0-.039 0-.039-.031-.013-.032.091-.032.104 0 .013.031.078.031.155.031h.001zm-1.362-.031c-.025.001-.048.013-.064.031 0 .032.012.032.051.032.025-.002.049-.013.065-.032-.009-.019-.03-.032-.052-.031zm2.801.031c0-.031-.013-.031-.026-.031s-.025.031-.025.031c0 .032.012.032.025.032s.027-.032.027-.032zm-3.358-.031h.389c.116.031.091.063-.221.063-.155 0-.272 0-.272-.032.028-.02.062-.03.097-.031zm1.167 0c.01.02.03.032.052.031h.104c.045-.003.09.008.129.032.052 0 .078 0 .078-.032 0-.031-.052-.031-.13-.063-.142 0-.22 0-.233.032zm1.401 0c-.013 0-.026.031-.026.031 0 .032 0 .032.013.032s.013-.032.026-.032c0 0 0-.031-.013-.031zm-2.804.031c.013.032 0 .032-.026.032-.052 0-.052 0-.013-.032zm-.804-.031c-.065 0-.117 0-.117.031 0 .032.052.032.117.032.041-.001.081-.012.117-.032-.034-.022-.074-.033-.115-.031zm6.903 0c.09.063.324.063.312 0 0-.032-.091-.032-.195-.032-.13 0-.169.032-.117.032zm-2.491-.031c-.013 0 .013.063.052.063.037.018.08.018.117 0h.051c.026 0 .039-.031.026-.063-.013-.031-.22-.001-.246-.001zm.35 0s.013.063.039.063c.101.01.202 0 .299-.031.013-.032.013-.063 0-.063-.114-.006-.227.005-.338.03zm2.504.031c0 .031.052.031.104.031.037.001.073-.01.103-.031 0-.032-.052-.032-.103-.032-.037 0-.074.011-.104.032zm-6.877.031h.039c.013 0 0-.031-.026-.031-.011.031-.024.031-.011.031zm1.51-.094c.037.006.048.094.036.094h-.065c-.013 0 0-.093.026-.094zm1.839.063c0-.001.025-.032.051-.032s.039 0 .039.032c0 0-.026.031-.052.031s-.039 0-.039-.031zm-1.66-.032c-.025.002-.049.013-.065.032.015.02.039.031.065.031.025 0 .049-.011.064-.031-.016-.019-.04-.03-.065-.032zm-.336.001c.011.003.012.031.024.031 0 0-.013.031-.026.031-.026 0-.026 0-.026-.031.005 0 .008-.005.011-.01l.005-.012c.002-.005.005-.01.01-.01zm-1.236.031h.002c.026 0 .052.031.037.031 0 0-.078 0-.078-.031zm-.156-.032c-.013 0-.013.032-.026.032 0 .031 0 .031.013.031s.026-.031.026-.031zm4.827.001c0 .032.013.032.026.032s.013-.032.013-.032c0-.031-.013-.031-.026-.031s-.025.03-.012.03zm.091-.031c-.013 0-.013.031-.013.031 0 .032.013.032.013.032.013 0 .013-.032.013-.032s0-.031-.013-.031zm-.555 0c.012.004.023.031.011.031-.005 0-.008.005-.011.01l-.005.012c-.002.005-.005.01-.01.01-.013 0-.013 0-.013-.032 0 0 .013-.031.026-.031zm.659 0c.013-.033.026-.033.026.031 0 0 0 .032-.013.032-.026 0-.039-.032-.013-.063zm.064.062h.039c.013 0 0-.063-.026-.063-.013.001-.025.063-.013.063zm1.143-.032c0 .032.051.032.116.032.091 0 .117 0 .091-.032-.052-.063-.207-.063-.207 0zm-.61 0c0 .032.129.032.285.032.182 0 .272 0 .272-.032-.025-.063-.557-.03-.557 0zm-.065-.03c-.026 0-.026 0-.013.031.013.032.026.032.039 0 .013-.031 0-.031-.026-.031zm17.82-.459c-.052.023-.146.044-.242.057.002.11.004.222.006.334l.007.004c.077.042.156.08.238.112zm-22.789.332c0-.031-.013-.031-.026-.031s-.013.031 0 .062c.015.063.039 0 .027-.031zm-.157-.095c-.013 0-.025.032-.038.032s-.013.031-.013.063c0 .094.064.062.077-.032.002-.094.002-.094-.024-.063zm.767.095c-.001.003-.013.031-.025.031-.013.032-.026.032-.026 0 0 0 .013-.031.026-.031zm-.428.032c.026 0 .039-.032.039-.032-.013-.031-.195-.031-.182 0 .001.031.04.031.144.031zm-.442-.095c-.078-.032-.234-.032-.234.031 0 .032.013.032.039.032.041-.001.081.01.117.031.079 0 .157-.063.079-.094zm-.351 0c0-.032-.273-.032-.298 0-.052.031-.065.031-.052.063.013.031.352.063.352-.063zm.923.031c0 .032-.013.063-.039.032-.039 0-.039-.094 0-.094.026 0 .039.031.039.062zm.052-.031c-.026.032.012.063.051.063.026 0 .039 0 .039-.031-.005-.026-.028-.045-.054-.045-.013 0-.026.005-.036.013zm-2.789.031c0 .032.039.032.078.032.028-.003.055-.014.078-.032-.023-.017-.05-.028-.078-.031-.04 0-.078 0-.078.031zm1.399 0c.013 0 .026 0 .026.032h-.026c-.012 0-.025-.03-.026-.032zm25.849-.775c.002.148.006.302.012.462.005.107.011.207.017.3l.132.014c.082-.001.163.008.243.024-.002-.075-.006-.137-.011-.181-.024-.107-.036-.216-.037-.326 0-.015.005-.11.013-.254-.067-.006-.135-.013-.208-.019-.053-.008-.107-.015-.161-.02zm-27.468.712c.026 0 .052.001.051.032.013.031-.039.063-.065.031-.025-.031-.025-.062.013-.063zm1.05.032c0-.032-.013-.032-.026-.032s-.026.032-.026.032.013.031.026.031c.013.032.026 0 .026-.031zm.374 0c0-.032-.013-.032-.026-.032s-.026.032-.026.032.013.031.026.031c.016.032.029 0 .029-.031zm1.533.031v.001zm-1.775-.062c.024.003.036.062.024.062h-.039c-.013 0 0-.031.013-.063zm-.547.031c.04-.021.085-.032.13-.032.09 0 .142 0 .142.032 0 .031-.051.031-.129.031s-.143 0-.143-.031zm.841 0c0 .031.026.031.052.031s.052 0 .039-.031c0-.032-.026-.032-.052-.032-.011 0-.036.032-.036.032zm-.168-.032c-.026 0-.039.032-.039.032s.013.031.039.031.039-.031.039-.031-.024-.032-.037-.032zm-15.226.001c-.026 0-.026.031 0 0 0 .031.013.031.013.031.012 0-.001-.032-.014-.032zm13.323.005c.02.026.005.026-.056.026h-.075c.012-.032.116-.032.127-.032zm-.218-.005c.023.003.033.031.021.031h-.051c-.013 0 0 0 .025-.032zm-12.833-.031c-.013 0-.013.031 0 0 0 .031.013.031.026.031 0-.032 0-.032-.026-.032zm-1.894.031h.039c.013 0 0-.032-.026-.032-.013 0-.026.031-.013.031zm-.376 0h.039c.013 0 0-.032-.013-.032-.026 0-.039.031-.026.031zm.558 0h.039c.013 0 0-.032-.013-.032-.026 0-.039.031-.026.031zm.116 0h.039c.013 0 0-.032-.013-.032-.026.031-.039.031-.026.031zm-.752 0h.039c.013 0 0-.032-.013-.032s-.039.031-.026.031zm15.071-.032h.016c.011.002.008.008-.003.031 0 0-.013 0-.013-.031zm-7.549.031h.039c.013 0 0-.031-.013-.031-.025 0-.038.031-.025.031zm.352 0c-.013-.031 0-.031.024-.031.013 0 .026.031.013.031h-.037-.002zm-.209-.031c0 .031.013.031.026.031.001-.031-.012-.031-.025-.031zm-.843-.032-.013.032c0 .031.013.031.013.031.013 0 .013-.031 0-.031zm.324.032c0 .031.013.031.026.031s.026-.031.026-.031c0-.032-.013-.032-.026-.032s-.025.032-.025.032zm-7.677-.093c.013.031.064.031.116.063 0 0 .182.094.182 0 0-.095-.168-.032-.168-.032-.131-.095-.157-.095-.131-.033zm.428.063c-.026 0-.052-.032-.052-.032s-.013 0-.026.032c-.013.031 0 .031.052.031s.064-.001.025-.033zm2.76-.033c-.013 0-.026.031-.026.031 0 .032 0 .032.026.032.013 0 .026-.032.026-.032zm2.57.032h.026c-.038-.032-.051-.032-.026-.001zm8.082-.064c-.013 0-.013.032-.013.032 0 .031.013.031.013.031v-.031c.012-.03.001-.032 0-.032zm-.26 0c-.013 0-.013.032-.013.032 0 .031.013.031.026.031s.013-.031.013-.031c0-.032-.013-.032-.026-.032zm-2.819.033c-.016.013-.039.018-.047 0h.038zm-1.137-.095c-.013.031-.052.031-.078.031s-.039 0-.052.031c0 .032.013.032.065.032.041.001.077-.025.091-.063.013-.031 0-.063-.026-.031zm2.347.062c-.013.032-.013.032.013.032.013 0 .039-.032.052-.032.013-.031.013-.031-.013-.031-.022-.003-.044.01-.051.031zm-.532 0c-.026.032-.026.032.052.032l.013-.032c.014-.062-.038-.062-.064 0zm-.544-.031h-.001c-.052 0-.052.063 0 .063.026 0 .039 0 .039-.032.014-.031-.012-.031-.038-.031zm-.727-.032c-.013.032 0 .095.025.063.013 0 .013-.031.013-.063 0-.031-.024-.031-.037.001zm-.96.001c-.012.031.039.062.078.062.013 0 .026-.031.026-.031.001-.063-.09-.063-.103-.031zm1.959.031c0 .031.013.031.013.031.013 0 .013-.031.013-.062-.012-.032-.026-.032-.026.031zm-12.263-.307c.042.002.111.01.224.023.1.006.2.016.299.032.038.032.064.032.077 0 .008-.022.03-.035.052-.032.317.065.638.107.96.126.178-.003.356.007.532.032.285.031 1.66.063 1.907.063h.531c.117 0 .208 0 .208.031 0 .063-.168.063-.584.063-.22 0-.765 0-1.219-.031-.441 0-.934-.032-1.077-.032-.142 0-.402-.031-.557-.031-.156 0-.364-.032-.454-.032-.091 0-.26-.031-.376-.031-.075-.002-.149-.013-.221-.032-.013-.031-.065-.031-.13-.031-.129 0-.233-.032-.233-.095 0-.015.006-.023.045-.023zm4.842.307c0 .031.026.031.039.031s.026-.031.039-.031c0-.032-.013-.032-.039-.032-.024-.031-.05.001-.037.032zm5.994 0c.014.031.312.031.312 0s-.039-.031-.103-.031c-.117 0-.222 0-.208.031zm-5.785-.062c-.013 0-.039.031-.064.031-.039 0-.039 0-.013.032.013 0 .064.031.09 0 .052 0 .052-.032.026-.032-.005-.017-.02-.03-.039-.032zm4.683.031c0 .031.013.031.026.031 0-.031-.013-.063-.026-.031zm-1.375-.032h-.001c-.026.031-.013.063.013.063.013 0 .013-.032.013-.032.001-.031-.012-.031-.025-.031zm1.518 0c-.052 0-.091 0-.078.032.013.031.143.031.168 0-.026-.02-.058-.031-.09-.032zm-.858 0c0-.032-.013-.032-.026-.032-.026.032-.013.063.013.063.015.032.028.001.015-.031zm-.855.001c0 .031.013.031.039.031s.052 0 .052-.031c0-.032-.077-.033-.09-.001zm1.271-.001c-.052-.032-.078-.032-.078 0 0 .031.026.031.052.031.053.001.053.001.027-.031zm-.208 0c0 .031.026.031.052.031s.052 0 .039-.031c0-.032-.026-.032-.052-.032s-.037.031-.038.032zm-.817 0c0 .031.026.031.052.031.025 0 .051 0 .038-.031 0-.032-.026-.032-.051-.032-.026 0-.037.031-.038.032zm1.168-.032c-.014.001-.026.032-.026.032 0 .031 0 .031.026.031.012 0 .025-.031.025-.031s-.011-.031-.025-.032zm2.024 0c-.026 0-.026 0-.013.032h.039s-.013-.032-.026-.032zm-5.292-.03c.013 0 .039.03.025.031 0 0-.077 0-.077-.031zm-1.779-.127c0-.032-.013-.032-.026 0-.013 0-.026.031-.026.031h.026c.015 0 .027-.031.027-.031zm-5.252-.031c.024.024.057.035.091.031.033-.004.104.031.104-.031 0-.063-.104-.095-.104-.095-.104-.031-.143.063-.091.095zm.493-.031c0 .063.065.095.091.032.013-.032.013-.063 0-.063-.039-.033-.091-.033-.091.03zm-.208-.032c-.012-.032-.038 0-.051 0-.026 0-.026 0-.013.031.007.022.029.035.052.032.039.031.039-.032.012-.063zm.065.064h.052c.013 0 0-.063-.026-.063s-.039.062-.026.062zm5.005-.065c0-.031-.025-.031-.038-.031s-.026.031-.026.031.013.032.039.032c.014 0 .027 0 .027-.031zm38.163-.375.009.377c.088-.006.174-.021.244-.03l-.005-.311c-.082-.014-.165-.026-.248-.036zm3.521-2.178c-.214-.089-.449-.121-.68-.091-.169.029-.34.048-.512.058-.002.28.007.381.029.423.015.016-.01.258-.034.664.074.011.147.028.219.051.044.024.09.042.139.053-.028-.456-.077-.847-.011-.871.062-.034.222.127.257.322.031.105.066.421.088.735l.034.012c.083.017.162.049.233.094.009.006.018.012.028.017.011-.071.024-.142.038-.212.08-.4.136-.804.168-1.211zm-46.871.885h.001-.001c-.064 0-.09.157-.051.189.032.031.084.031.116 0 .027-.032.001-.189-.065-.189zm43.704-1.006c.014.068.026.136.036.205.022.004.043.008.064.014.117.031.221.094.182.126-.069.034-.142.061-.217.078.009.072.015.145.021.217v.013c.065.008.131.011.197.01.011-.19.016-.379.016-.569-.102-.02-.202-.052-.299-.094zm-.148.46c-.035.011-.069.025-.102.042-.028.017-.061.028-.094.031l-.004.031-.002.011c.023.013.048.021.074.021.031 0 .076.012.121.021.002-.053.004-.105.007-.157zm-38.471-.084c0-.031-.025-.031-.051-.031s-.039.031-.039.031c0 .031.026.031.052.031.025 0 .038-.03.038-.031zm-.246-.063c-.052 0-.091 0-.091.032 0 .062.065.062.117.062.078-.031.065-.094-.026-.094zm-.13.063c0-.031-.013-.031-.026-.031-.012 0-.025.031-.025.031 0 .031.013.031.025.031.013 0 .026-.031.026-.031zm4.047-.126c0-.063-.921-.063-1.025 0-.026.021-.058.032-.091.032h-2.048c-.182 0-.22.031-.207.063.137.02.276.03.415.031h1.465c.519 0 1.207 0 1.427-.031.026.031.065-.032.065-.095zm-3.502.063h-.001c-.026 0-.051 0-.051.032 0 .031.064.031.09 0 .014 0 .001-.032-.038-.032zm2.867-.063-.013.032.013.031c.013 0 .013-.031.013-.031zm-7.952-.063c0-.031-.022-.057-.052-.063-.026 0-.052 0-.052.032-.001.03.021.057.052.063.027.031.052 0 .052-.032zm43.254-.217c-.007.087-.015.173-.024.259.011-.002.021-.006.029-.01.051-.013.102-.021.153-.023.011-.083.024-.156.037-.213-.054-.007-.12-.011-.195-.013zm-43.513.091c-.034-.023-.075-.034-.117-.031-.026 0-.052-.032-.065-.032-.013-.031-.051-.031-.22.032-.078.031-.052.063.065.094.077.006.152.028.22.063.182 0 .247-.063.117-.126zm46.983-.819h-.026c0-.031-.013-.031-.039-.031s-.052 0-.052-.031c-.013-.032-.065-.032-.143 0-.103.031-.129.031-.155.094-.011.031-.02.063-.026.095 0 .063.051.094.194.094.082.003.162.024.234.063.01.006.021.013.032.019.005-.094.01-.197.014-.309-.013 0-.024.002-.033.006zm-1.038-.031c.054.02.11.031.168.031.07-.002.139.021.194.063.026.032.078.032.117.032.065 0 .078-.032.078-.095.013-.126-.039-.126-.286-.157-.168 0-.233 0-.259.031-.007.031-.011.063-.012.095zm-24.231-.63c.029-.007.049-.033.049-.063 0-.029-.02-.055-.049-.063-.052-.031-.078-.031-.078.032-.013.094.013.126.078.094zm-.35-.094c0 .031.052.063.143.063.078 0 .103-.032.078-.095-.014.001-.221.001-.221.032zm-1.829-.032c-.026 0-.052.032-.026.032h.039c.013 0 .013-.031-.013-.031zm.363.032s0-.032-.026-.032c-.013 0-.026 0-.013.032zm-.597 0c.013 0 0-.063-.038-.063-.039 0-.039.063-.026.063zm-1.063-.031c.013 0 0-.063-.026-.063s-.026.063-.013.063zm-5.5-.158c.013 0 0-.032-.013-.032-.026 0-.026 0-.013.032zm-.571-.063c0-.032 0-.032-.013-.032s-.013.032-.026.032c0 .031 0 .031.013.031s.026 0 .026-.031zm-8.64 0c.013 0 0-.063-.026-.063-.025 0-.181-.063-.168.031-.012.063.182.032.195.032zm.688 0c.013 0 0-.063-.026-.063-.039 0-.195-.031-.168.031.027.063.182.032.195.032zm6.681 0s0-.032-.026-.032c-.013 0-.026 0-.013.032zm-6.966 0c.026 0 0-.095-.039-.095s-.052.095-.039.095zm-1.193-.063c0-.031-.026-.031-.052-.031s-.039 0-.026.031c0 .031.026.031.052.031s.039 0 .026-.031zm.207.031s0-.031-.026-.031c-.013 0-.026 0-.013.031zm-.091-.031c-.026-.031-.078-.031-.065 0 0 .031.026.031.052.031s.027 0 .014-.031zm2.491.031v-.031c0-.031-.013-.031-.013-.031l-.013.031c.013.031.013.031.026.031zm-2.271 0s0-.031-.013-.031-.026 0-.013.031zm-.064-.031c0-.031-.013-.031-.026-.031s-.013.031-.026.031c0 .031 0 .031.026.031s.026 0 .026-.031zm-1.219-.063h-.001c-.052 0-.09 0-.077.031 0 .032.038.032.077.032.029-.003.056-.014.078-.032.001-.031-.025-.031-.077-.031zm5.059.031c0-.031-.013-.031-.026-.031-.026 0-.013.031.013.063.013 0 .013-.032.013-.032zm-.286.001s.168-.031-.038-.063c-.065 0-.195.032-.338.032-.039 0-.052 0-.039.031.137.031.279.031.416-.001zm-4.137-.001s0-.031-.026-.031c-.013 0-.026 0-.013.031.013.032.026.032.039 0zm4.929-.062h-.377c-.064.094.26.094.338.062v.001c.039 0 .052-.032.039-.063zm-5.73.031c-.02 0-.025.004.009.031h.025c0-.031 0-.031-.025-.031zm5.146 0c.013 0 0-.032-.013-.032-.026 0-.026 0-.013.032 0 .031.013.031.026 0zm-7.355-.126c-.026 0-.065-.032-.078-.032s-.025 0-.025.032c-.013.031.064.063.116.063.065 0 .052-.063-.013-.063zm.804.031c-.046-.057-.123-.082-.194-.063-.026 0-.052.063-.052.063-.013.032.026.032.117.032.09 0 .143 0 .129-.032zm-.272 0s-.013-.063-.026-.063-.013.032 0 .063zm-.143 0c.013 0-.013-.063-.026-.063-.026 0-.013.063-.013.063zm1.791-.094h-.001.001c0 .031.013.031.026.031-.001-.031-.013-.031-.026-.031zm-.195 0c-.052-.032-.104-.032-.104 0 0 .031.026.031.065.031.065.001.065.001.039-.031zm45.643-.89c-.069-.006-.12.011-.113.071.004.067.05.116.114.153zm.431.071c0 .032 0 .032.013.032s.013-.032.026-.032c0-.031 0-.031-.013-.031s-.026 0-.026.031zm-35.801-1.102c.018.046.045.089.078.126.091.032.221-.031.221-.094.011-.108-.197-.055-.273-.037v.005c0 .032-.013.032-.026 0 .004 0 .013-.002.026-.005-.001-.009-.003-.026-.013-.026zm-5.513.063c0-.031-.013-.031-.013-.031-.013 0-.376-.032-.376.031s.376.032.376.032c.014 0 .014 0 .014-.032zm-.752.032s0-.032-.026-.032c-.013 0-.026 0-.013.032zm.272-.032s0-.031-.026-.031c-.012 0-.025 0-.012.031zm42.352-.441c-.039-.063-.026.189-.039.189 0 .032 0 .032.013.032s.026-.032.026-.032c.028-.06.028-.129 0-.189zm-.039-.22c0 .031 0 .031.013.031s.013-.031.026-.031c0-.032 0-.032-.013-.032s-.026.001-.026.032zm-48.565-.063c.363.063.506.063.493 0-.026-.063-.091-.094-.441-.126-.113-.001-.226-.012-.337-.031-.032.007-.062.017-.091.031-.065.063-.039.063.376.126zm-.96-.252c-.051-.094-.389-.031-.376.032.085.077.187.131.299.157.064 0 .077-.186.077-.189zm49.408-.062c-.012.031.039.063.065.063.013 0 .117.094.091-.126-.026-.221-.143.031-.156.063zm-49.122-1.418c0 .032.039.032.065.032.025 0 .051 0 .038-.032 0-.031-.038-.031-.064-.031s-.052 0-.039.031zm5.24-.409c0 .031.117.094.143.031.013-.031.052-.031.104-.031.103.031.09-.032-.013-.063-.091-.032-.156-.032-.195 0-.016.019-.029.04-.039.063zm-.441-.032c.026.063.415.095.415.032s-.026-.095-.233-.095c-.169.032-.208.032-.182.063zm.765.032c.013.031.104.031.117.031.013-.031-.026-.094-.052-.063-.013 0-.039.032-.052.032 0-.032-.013-.032-.013 0zm44.155 0v-.063c-.013-.031-.052 0-.052.063 0 .031.039.031.052 0zm-45.296-.063.039.031c.065.032.298.032.298 0 0-.031-.091-.094-.182-.094-.045.005-.087.028-.116.063zm-1.583-.032c0 .032.026.032.078.032.126-.001.252.01.376.031.299.032.558 0 .48-.063-.094-.017-.189-.028-.285-.031-.13 0-.247 0-.247-.032-.137-.011-.274.011-.402.063zm1.025.032c0 .031.104.031.247.031.103 0 .142-.126.077-.157-.09-.063-.324-.031-.324 0zm2.322-.032c0 .032.013.032.026.032.026 0 .039-.032.039-.032 0-.031-.013-.031-.026-.031-.026 0-.039 0-.039.031zm.389 0c0 .032.013.032.026.032s.026-.032.026-.032c0-.031-.013-.031-.026-.031s-.026 0-.026.031zm-4.293-.031c.111.043.232.054.35.031.052-.031-.026-.063-.182-.063-.117 0-.181 0-.168.032zm4.086.031h.039c.012 0 0-.031-.013-.031-.039.031-.039.031-.026.031zm-4.657-.094c0 .031.039.031.078.031h.116c.168.063.299.063.325 0 .025-.031.013-.062-.052-.062-.157-.012-.314-.001-.467.031zm1.141-.126c0 .063.168.095.584.095.234 0 .285 0 .272-.032-.209-.066-.428-.097-.648-.094-.168 0-.208 0-.208.031zm-2.412-.756c-.039-.063-.091-.031-.13-.063-.077-.031-.143.032-.155 0-.013-.031-.039-.031-.052 0-.013 0-.026 0-.039-.031 0-.031-.022-.058-.052-.063-.065-.031-.078.031-.013.063.026.031.039.031.026.063-.117 0 .298.22.428.22.022-.062.017-.13-.013-.189zm-1.194-.063c.013 0 0-.126-.013-.126s-.143-.094-.156.063c-.012.126.156.063.169.063zm1.272-.126c0-.031-.026-.031-.052-.031s-.039 0-.013.031c.026.063.078.063.065 0zm-.493-.126c.013.095.246.158.298.095.026-.032.026-.032-.026-.032-.048-.01-.092-.031-.13-.062-.103-.064-.155-.064-.142-.001zm-.117 0c.065.032.078.032.039-.031-.026-.063-.156-.095-.13-.032.017.036.052.061.091.063zm13.114-2.519c0 .032.013.032.013.032.013 0 .013-.032.013-.032l-.013-.031c0-.032-.013 0-.013.031zm-5.357-.346c.054-.004.107.007.156.031.143.041.291.063.441.063.026 0 .039 0 .039-.031 0-.032.026 0 .051.031.039.063.052.063.078 0 .013-.031.026-.031.026 0 0 .032.065.032.143 0 .182-.031.195-.031.259.032.286.034.575.024.856-.032.034.004.067-.007.091-.031.026 0 .039-.032.026-.032 0-.031-.065-.031-.143-.031-.065 0-.207-.031-.312-.031-.573-.057-1.149-.078-1.725-.063-.022-.003-.044.01-.052.031-.026.032-.026 0-.026-.031 0-.032 0-.063-.026-.063-.064-.032-.09-.032-.077 0 0 .031.026.031.039.031.026 0 .026.032.026.063 0 .032.026.063.13.063zm4.877.094c0 .032.013.032.013.032h.026c.013 0 .026-.032.026-.032s-.013-.031-.039-.031c-.026-.032-.039 0-.026.032zm-1.725-.094s-.752-.095-.778 0c-.013.031.129.095.285.095.166-.006.331-.027.493-.063h.272c.013 0-.013-.032-.038-.032-.075-.032-.159-.032-.234 0zm-3.814-.063c0 .032.013.063.039.063.013 0 .039-.031.039-.063 0-.031-.013-.063-.039-.063s-.039.031-.039.063zm-1.647.032c-.038-.001-.077-.032-.09-.032s-.026-.032-.013-.063c.012-.063.09-.063.168 0 .065.063.026.126-.065.095zm.143-.032c-.013-.032.103-.095.207-.126.052 0 .182-.032.273-.032.129 0 .181-.031.181-.062.013-.032.026-.032.052-.032.091.063.168.095.168.063.029-.023.059-.044.091-.063.078-.031.091 0 .116.032.017.036.052.06.091.062.104 0 .117.063.013.126-.065.063-.129.063-.324.032-.454-.032-.584-.032-.648 0-.039.063-.207.032-.22 0zm1.4 0c.001-.032.014-.031.027-.031s.026 0 .026.031c0 0-.013.032-.026.032s-.026 0-.026-.032zm.247 0c0-.032 0-.031.026-.031s.039 0 .039.031c0 0-.013.032-.026.032s-.039 0-.039-.032zm.233 0c0 .032.039.032.078.032s.078 0 .065-.032c-.013-.031-.143-.22-.143 0zm-3.981-.032c.078.032.26-.062.648-.062.229-.008.457.024.675.094.164.003.329-.007.492-.031.013 0 0-.032-.025-.063-.039-.032-.052-.032-.078 0-.026.031-.052.031-.091 0-.026-.032-.104-.032-.168-.032-.117-.003-.234-.014-.35-.031-.177.019-.355.019-.532 0-.622-.063-.648 0-.635.031-.002-.031.024.094.064.094zm3.852.032c-.013-.032 0-.032 0 0zm.029-.023c.003.002.002.009-.003.023h-.026c.013-.016.023-.023.027-.023zm-.444-.04c0 .031.013.031.013.031l.013-.031-.013-.031c-.013 0-.013 0-.013.031zm-4.009-.032c.051-.016.103-.026.156-.031.045-.002.089-.013.13-.032-.088-.05-.185-.082-.286-.094-.129 0-1.272-.189-1.258.031.026.189 1.206.158 1.258.127zm23.907.001c.013 0 .013-.032.013-.063 0-.032-.013-.032-.013-.032-.013 0-.013.032-.013.063-.013.032 0 .032.013.032zm-.052-.126c-.013 0-.013-.001-.026-.032 0 0 .013-.031.026-.031s.026 0 .026.031c0 0-.013.032-.026.032zm16.98-.095c.064 0 .129.095.168.095.038 0 .077-.095.077-.095.013-.031.013-.031-.207-.063-.338-.031-.338-.031-.35 0-.008.02-.013.041-.013.063.107-.017.217-.017.325 0zm-28.914.032c-.026.031-.065.031-.052 0 0 0 .013-.032.039-.032s.026 0 .013.032zm-6.874-.252c.004 0 .341.031.753.031.414 0 .777.032.816.032.019.021.048.033.078.031h1.712c.268-.009.537.002.804.031.065 0 .636.032 1.258.032 1.155.032 1.362.032 1.349.094-.013.032-4.332 0-4.76-.031-.363-.031-1.388-.063-2.244-.063-.895 0-1.673-.063-1.673-.063-.039-.094.078-.094.96-.094zm35.113.158c-.013-.063-.182-.063-.182 0 0 .031.039.062.104.062.052.032.09-.031.078-.063zm.195.031c.038-.032 0-.063-.065-.063s-.091.031-.065.063c.037.031.092.031.13 0zm-1.207-.032c0-.031-.013-.063-.039-.063s-.441-.126-.467.032c-.039.126.493.063.506.031zm.467-.031c-.013-.032-.259-.158-.298-.095-.03.035-.071.058-.117.063v.063c.117.032.454.095.415-.031zm.325.031c.013-.031-.013-.031-.039-.031-.039 0-.052.031-.026.063.012 0 .051 0 .065-.032zm-.26 0c.013.015.032.024.052.024s.039-.009.052-.024c.026-.031 0-.031-.065-.031-.051 0-.065.031-.039.031zm-36.618-.063c-.026.063-.066.063-.091 0-.039-.031-.026-.063.026-.063s.078.032.065.063zm8.094-.157c-.052 0-.091 0-.103.031-.026-.063-.039-.063.22-.063.09-.017.183-.017.273 0 .026 0 .026.095-.078.095-.105-.015-.209-.036-.312-.063zm-1.647-.032c.065 0 .116.032.103.032-.046.016-.094.027-.142.031-.066 0-.117-.062-.104-.063zm1.193.032c.013 0 .026-.032.026-.063 0-.032-.091-.032-.221-.032-.087.003-.174.014-.259.032-.013 0-.026 0-.026.031.013.063.441.063.48.032zm.195 0s.116.063.103-.063-.09 0-.09 0c-.033-.004-.063-.015-.091-.032-.018.002-.033.015-.039.032-.026.031-.026.031 0 .063.013.031.064 0 .116 0zm-.908 0c-.108.016-.217.016-.325 0-.026-.063.052-.063.234-.032.078 0 .116 0 .091.032zm.116 0c-.052 0-.052-.032-.039-.032s.026-.031.039-.031.026 0 .039.031c.013.032 0 .032-.039.032zm-.791-.031s-.026-.063-.065-.063c-.077-.016-.156-.016-.233 0-.026 0-.039.063-.013.063zm2.361-.001c.013 0 0-.063-.013-.063-.026 0-.026.063-.013.063z" fill="#4d9f83" fill-rule="nonzero"/></svg>