<?xml version="1.0" encoding="UTF-8" standalone="no"?><!DOCTYPE svg PUBLIC "-//W3C//DTD SVG 1.1//EN" "http://www.w3.org/Graphics/SVG/1.1/DTD/svg11.dtd"><svg width="100%" height="100%" viewBox="0 0 84 99" version="1.1" xmlns="http://www.w3.org/2000/svg" xmlns:xlink="http://www.w3.org/1999/xlink" xml:space="preserve" xmlns:serif="http://www.serif.com/" style="fill-rule:evenodd;clip-rule:evenodd;stroke-linejoin:round;stroke-miterlimit:2;"><path d="M74.98,24.944c1.198,-7.638 -0.008,-12.834 -4.139,-17.542c-4.548,-5.182 -12.764,-7.402 -23.276,-7.402l-30.514,0c-2.148,0 -3.978,1.563 -4.312,3.686l-12.707,80.572c-0.25,1.59 0.979,3.027 2.587,3.027l18.838,0l-1.3,8.245c-0.219,1.391 0.855,2.648 2.263,2.648l15.879,0c1.879,0 3.479,-1.367 3.772,-3.224l0.156,-0.808l2.991,-18.968l0.193,-1.048c0.293,-1.856 1.893,-3.225 3.772,-3.225l2.375,0c15.383,0 27.428,-6.249 30.947,-24.323c1.471,-7.552 0.71,-13.856 -3.179,-18.288c-1.175,-1.338 -2.639,-2.446 -4.346,-3.35" style="fill:#fff;fill-opacity:0.68;fill-rule:nonzero;"/><path d="M74.98,24.944c1.198,-7.638 -0.008,-12.834 -4.139,-17.542c-4.548,-5.182 -12.764,-7.402 -23.276,-7.402l-30.514,0c-2.148,0 -3.978,1.563 -4.312,3.686l-12.707,80.572c-0.25,1.59 0.979,3.027 2.587,3.027l18.838,0l4.732,-30.007l-0.147,0.941c0.335,-2.122 2.148,-3.686 4.297,-3.686l8.954,0c17.584,0 31.353,-7.144 35.375,-27.804c0.12,-0.61 0.221,-1.203 0.312,-1.785" style="fill:#fff;fill-opacity:0.7;fill-rule:nonzero;"/><path d="M31.273,25.045c0.201,-1.276 1.021,-2.322 2.124,-2.85c0.501,-0.24 1.062,-0.374 1.649,-0.374l23.919,0c2.834,0 5.476,0.186 7.891,0.575c0.69,0.111 1.362,0.239 2.015,0.384c0.652,0.145 1.286,0.306 1.899,0.486c0.307,0.089 0.608,0.184 0.905,0.282c1.186,0.394 2.291,0.858 3.307,1.397c1.198,-7.638 -0.008,-12.834 -4.139,-17.542c-4.55,-5.183 -12.766,-7.403 -23.278,-7.403l-30.514,0c-2.148,0 -3.978,1.563 -4.312,3.686l-12.707,80.572c-0.25,1.59 0.979,3.027 2.587,3.027l18.838,0l4.732,-30.007l5.084,-32.233Z" style="fill:#fff;fill-rule:nonzero;"/></svg>