<?xml version="1.0" encoding="UTF-8" standalone="no"?><!DOCTYPE svg PUBLIC "-//W3C//DTD SVG 1.1//EN" "http://www.w3.org/Graphics/SVG/1.1/DTD/svg11.dtd"><svg width="100%" height="100%" viewBox="0 0 1485 45" version="1.1" xmlns="http://www.w3.org/2000/svg" xmlns:xlink="http://www.w3.org/1999/xlink" xml:space="preserve" xmlns:serif="http://www.serif.com/" style="fill-rule:evenodd;clip-rule:evenodd;stroke-linejoin:round;stroke-miterlimit:2;"><path d="M109.391,4.938c0.794,-0.342 1.121,-0.638 1.121,-0.768c0,-0.18 1.664,-0.361 5.409,-0.361c8.737,0 47.845,-0.361 50.757,-0.541c1.248,0 7.489,-0.18 13.313,-0.18c3.887,0.077 7.775,-0.043 11.649,-0.361c1.935,-0.203 3.882,-0.264 5.825,-0.18l6.241,0c0.832,0 3.744,0 7.073,-0.18c3.328,0 10.4,-0.18 15.81,-0.361c5.41,-0.181 10.815,-0.204 11.647,-0.204c0.832,0 4.576,0 9.153,-0.18c8.321,-0.361 15.393,0 25.378,-0.18c3.744,0 8.737,-0.18 10.817,-0.361c2.5,0 13.729,-0.18 25.379,-0.18c20.386,0 21.218,-0.541 22.882,0c1.664,0.541 2.08,0.541 7.489,0.361c3.328,0 7.073,-0.18 9.153,-0.361c1.664,0 4.576,0 6.241,0.18c4.576,0.541 10.4,0.541 9.569,0c-0.416,-0.361 4.992,-0.541 11.233,-0.361c2.912,0 5.824,0.18 6.241,0.18c0.417,0 2.08,-0.18 3.328,-0.18c2.216,-0.181 4.442,-0.181 6.657,0c2.08,0.18 5.409,0.18 7.9,0.361c3.744,0.18 4.16,0 5.409,-0.541c1.249,-0.541 2.083,-0.538 4.995,-0.538c1.672,-0.019 3.341,0.102 4.992,0.361c1.664,0.361 4.16,0.541 4.16,0.18c0,-0.541 2.912,-0.541 6.241,-0.18c3.744,0.361 9.985,0.541 11.649,0.18c0.962,-0.182 1.95,-0.182 2.912,0c0.962,0.182 1.95,0.182 2.912,0c1.102,-0.187 2.227,-0.187 3.328,0c1.664,0.2 3.349,0.139 4.993,-0.18c1.785,-0.366 3.625,-0.366 5.409,0c1.664,0.18 6.24,0.361 21.218,0.18c29.539,-0.18 128.973,-0.18 133.133,0c2.08,0.18 5.824,0.18 8.321,0.361c14.978,0.361 20.8,0.361 23.3,0.361l32.867,0c0.421,0 6.66,0 13.313,0.18c6.656,0.18 20.386,0.18 29.955,0.361c22.05,0.18 41.6,0.361 42.02,0.541c0,0 0,0.361 -0.832,0.541c-1.248,0.361 -7.073,0.361 -24.546,0c-3.744,0 -20.386,-0.18 -37.028,-0.361c-26.211,-0.18 -42.02,-0.361 -44.932,-0.361c-0.416,0 -3.328,0 -5.825,0.18c-4.992,0.18 -6.24,0.18 -11.233,0c-0.972,-0.155 -1.966,-0.094 -2.912,0.18c0,0.18 -0.832,0.18 -1.248,0.18c-0.416,-0.18 -7.489,-0.18 -15.81,-0.18c-13.729,0 -14.977,0.18 -16.642,0.541c-1.483,0.439 -3.031,0.622 -4.576,0.541c-2.087,-0.078 -4.176,0.043 -6.241,0.361c-0.973,-0.003 -1.945,-0.063 -2.912,-0.18c-3.744,-0.361 -57.414,-0.541 -58.662,-0.18c-0.832,0.361 -5.409,0.361 -30.371,0.541c-12.065,0 -23.3,0.18 -24.962,0.18c-1.248,0 -3.744,0 -5.408,0.18c-1.122,-0.086 -2.25,0.036 -3.328,0.361c-0.832,1.082 4.576,1.624 6.241,0.722c1.248,-0.541 2.08,-0.541 5.409,-0.18c4.276,0.578 8.586,0.879 12.9,0.9c1.39,-0.063 2.782,-0.003 4.16,0.18c0.832,0.18 20.8,0.361 60.742,0.361c32.867,0 75.719,0.18 96.106,0.18c19.97,0 42.852,0.18 51.173,0.18c7.9,0 14.977,0.18 15.81,0.18c1.247,0.091 2.498,0.091 3.744,0c1.66,-0.18 3.334,-0.18 4.993,0c2.5,0.18 12.9,0.361 19.97,0.18l16.642,0c8.643,0 18.099,0 21.524,-0.174c-9.863,-0.025 -14.496,-0.191 -14.88,-0.358c-0.416,-0.181 -0.416,-0.361 0,-0.361c0.832,-0.18 21.218,-0.36 22.05,-0.18c0.82,0.187 1.663,0.248 2.5,0.18c1.248,0.18 2.08,-0.001 2.08,-0.361c0,-0.36 0.416,-0.36 2.08,-0.18c0.832,0 2.496,0.18 3.744,0.18c0.838,-0.047 1.678,0.014 2.5,0.18c0.416,0 2.08,0.18 4.16,0.18l0,-0.003c4.042,-0.135 13.192,0.033 18.947,0.279c-19.285,0.088 -37.203,0.234 -43.071,0.438l-0.11,0.006c0.828,0.002 1.692,0.003 2.594,0.003c9.153,0 22.466,0.18 29.123,0.361c6.657,0.181 12.9,0.18 13.729,0.18c0.829,0 2.5,-0.18 3.328,-0.18c2.912,0 2.08,-0.361 -1.248,-0.541c-0.839,-0.092 -2.398,-0.184 -4.345,-0.267c14.898,-0.069 30.613,-0.103 42.217,-0.103l18.722,0c3.328,0 6.657,0 7.9,0.18c1.242,0.182 2.503,0.182 3.744,0c1.652,-0.258 3.328,-0.318 4.993,-0.18l47.844,0c0,0 0.236,0.006 0.674,0.016c-0.233,0.024 -0.462,0.081 -0.679,0.17c-0.264,0.109 0.004,0.179 0.42,0.179l-0.004,0.001c0.286,-0.01 0.568,-0.071 0.832,-0.18c0,-0.096 -0.118,-0.141 -0.229,-0.162l-0.34,-0.008c0.051,-0.005 0.102,-0.008 0.153,-0.01c0,0 0.091,0 0.187,0.018c2.167,0.05 7.575,0.156 13.964,0.156l27.875,0c2.912,0 6.24,0 7.9,-0.18c1.664,0 4.993,0 7.489,0.18c2.496,0.18 6.657,0.18 9.153,0.18c4.078,-0.055 8.663,-0.077 13.553,-0.069c0.072,0.001 0.14,0.001 0.207,0l-0.207,0c-0.575,-0.005 -1.325,-0.046 -2.317,-0.107l-0.001,0.001c-2.495,-0.18 -2.912,-0.541 -1.666,-0.903c0.681,-0.184 1.399,-0.184 2.08,0c0.825,0.15 1.663,0.21 2.5,0.18c1.248,0 1.248,0.181 1.248,0.361c-0.256,0.334 -0.672,0.462 -1.637,0.468c3.729,0.006 7.633,0.029 11.621,0.066l0,0.011c0.32,0.278 2.904,0.233 3.847,0.029c-1.289,-0.015 -2.572,-0.028 -3.847,-0.04c0.001,-0.176 0.009,-0.354 0.416,-0.53c1.256,-0.262 2.563,-0.136 3.745,0.361l0,-0.003c0.093,0.081 -0.042,0.153 -0.314,0.212c2.298,0.026 4.614,0.056 6.932,0.091c-0.015,0.021 -0.003,0.042 0.039,0.06c0.217,0.094 3.141,0.09 6.012,0.039c-2.011,-0.036 -4.032,-0.069 -6.051,-0.099c0.131,-0.19 2.37,-0.481 4.615,-0.481l4.993,0c2.08,0 2.496,0.181 2.08,0.361l-0.001,-0.003c-0.398,0.088 -2.995,0.175 -5.636,0.222c2.312,0.041 4.612,0.086 6.882,0.134c5.824,0.18 36.2,0.361 49.092,0.361c1.665,0 19.138,-0.361 24.547,-0.361c1.534,0.047 3.069,-0.074 4.576,-0.361c0.397,-0.18 0.852,-0.18 1.248,0c0.416,0.18 4.993,0.18 9.985,0.361c5.409,0 12.9,0.18 17.474,0.18c19.138,0.541 24.546,0.541 47.012,0.722l10.817,0c0.838,0 19.141,0 40.772,0.18c38.276,0 73.223,0.361 94.441,0.541c17.058,0.18 73.639,0.18 83.208,0c3.898,-0.153 26.5,0.085 33.124,0.159l0,2.879c-0.313,0.001 -0.541,0.01 -0.673,0.029c-1.248,0.361 -1.664,0.361 -2.08,0c-0.416,-0.361 -8.321,-0.541 -14.561,-0.361l-3.745,0.18l2.08,0.541c1.664,0.541 1.664,0.541 0.832,0.722c-0.685,0.133 -1.382,0.193 -2.08,0.18c-0.832,0 -0.832,0 -0.416,-0.361c0.832,-0.541 0,-0.722 -3.744,-0.541c-2.08,0 -2.912,0.18 -2.5,0.361c0,0.18 -0.416,0.361 -0.832,0.541c-0.832,0 -1.248,0.18 -1.248,0.361c0,0.181 -1.248,0.18 -2.5,0.361c-1.394,0.012 -2.785,0.133 -4.161,0.361c-1.248,0.18 -1.664,0 -1.664,-0.361c-0.864,-0.558 -1.937,-0.691 -2.912,-0.361c-0.416,0.361 1.248,1.082 2.5,0.9l1.248,0c0.416,0.361 8.321,0 18.306,0c5.825,0 9.985,0.541 9.985,0.722c0.832,0.541 -16.642,0.722 -24.962,0.361c-4.16,-0.18 -23.3,-0.361 -24.547,-0.18c-2.08,0.361 0,0.541 6.657,0.722c14.145,0.541 27.459,1.443 27.459,1.8c0,0.18 -0.416,0.18 -0.832,0.18c-5.824,0.18 -9.569,0.361 -9.569,0.9c0,0.361 6.656,0.9 13.313,1.082c2.912,0 5.408,0.18 5.408,0.361c0,0.181 -0.832,0.18 -1.664,0.18c-0.832,0 -1.664,0.18 -1.248,0.18c0.416,0.361 4.16,0.722 9.153,0.722c2.258,0 5.867,0.147 8.997,0.309l0,1.493l-4.836,0l1.664,0.722c1,0.479 2.075,0.775 3.172,0.876l0,10.951c-6.275,-0.081 -13.804,-0.051 -17.73,0.091c-2.5,0.18 -7.9,0.18 -11.649,0.18c-2.497,-0.097 -4.999,-0.037 -7.489,0.18c-0.832,0.361 -0.416,0.722 0.832,0.541c0.416,0 0.832,0 0.832,0.18c0,0.361 -2.5,0.541 -5.409,0.361c-1.112,-0.01 -2.223,0.05 -3.328,0.18c-2.5,0.18 -2.5,0.18 -1.248,0.541c1.252,0.361 7.073,0.361 24.963,0.541l9.985,0l0.416,0.541c0.416,0.541 0.832,0.541 1.664,0.541c2.02,-0.109 5.112,-0.352 8.161,-0.525l0,1.062c-1.453,-0.009 -2.34,-0.044 -2.34,-0.176c0,-0.361 -1.664,-0.18 -3.328,0.18l-1.248,0.361l2.08,0.18c0.832,0 2.912,0.18 3.744,0.18c0.434,0 0.795,0.008 1.092,0.024l0,0.672c-1.319,0.102 -4.177,0.151 -10.245,0.025c-6.24,0 -13.313,-0.18 -16.225,-0.361c-2.499,-0.18 -5.824,-0.18 -7.073,-0.18l-3.744,0c-1.249,0 -1.664,0.18 -2.08,0.541c-0.416,0.361 -0.832,0.541 -7.073,0.541c-4.577,0 -6.657,0.18 -7.073,0.361c0,0.18 1.248,0.361 4.992,0.361c2.225,-0.051 4.451,0.07 6.657,0.361c3.338,0.802 -1184.77,1.192 -1442.25,1.267l0,-0.547c10.087,-0.158 16.586,-0.402 17.737,-0.7c0.832,-0.18 2.912,-0.361 4.992,-0.541c9.985,-0.9 9.985,-1.263 -0.416,-1.263c-5.825,0 -8.737,-0.18 -10.817,-0.361c-1.792,-0.24 -3.604,-0.3 -5.409,-0.18c-1.025,0 -3.313,0.068 -6.087,0.163l0,-1.617c2.715,-0.251 5.441,-0.366 8.167,-0.347c2.226,0.069 4.453,-0.052 6.657,-0.361c1.366,-0.296 2.764,-0.418 4.16,-0.361c1.533,0.004 3.063,-0.116 4.576,-0.361c1.248,-0.361 1.248,-0.361 -0.832,-0.541c-0.961,-0.184 -1.934,-0.305 -2.912,-0.361c-0.595,-0.013 -1.174,-0.201 -1.664,-0.541c-0.416,-0.361 -1.248,-0.541 -2.912,-0.541c-3.744,0 -7.489,-0.361 -7.489,-0.541c0,-0.18 0.416,-0.361 1.248,-0.361c0.416,0 2.08,-0.18 3.328,-0.361c2.08,-0.18 2.08,-0.18 1.664,-1.263c-0.832,-1.624 -2.08,-1.985 -4.16,-2.165c0,0 -5.487,0.752 -7.077,0.375c0.409,-0.256 0.496,-0.569 0.006,-0.569l-0.194,0c-0.113,0.057 -0.19,0.121 -0.224,0.194c-0.068,0.18 0.094,0.3 0.412,0.375c-0.286,0.18 -0.729,0.332 -1.243,0.331c-0.831,0 -0.832,-0.899 -0.416,-0.9l1.471,0c1.288,-0.65 7.265,-0.347 7.265,-0.347c0.832,0 1.664,-1.082 1.248,-1.263c0,-0.179 -4.505,-0.18 -11.079,-0.357l0,-1.5c3.623,-0.066 6.615,-0.175 6.922,-0.308c0.416,-0.181 0.416,-0.361 0,-0.541c-0.484,-0.24 -0.802,-0.723 -0.832,-1.263c-0.094,-0.724 -0.382,-1.41 -0.832,-1.985c-0.416,-0.541 -0.832,-1.082 -0.416,-1.263c0,-0.18 -0.416,-0.541 -1.664,-0.722c-0.537,-0.093 -1.739,-0.138 -3.178,-0.182l0,-2.186c3.175,0.112 6.09,0.384 6.506,0.203c0.64,-0.373 1.205,-0.862 1.664,-1.443c0,-0.361 0.416,-0.9 0.416,-1.082c1.372,-1.14 2.917,-2.053 4.576,-2.706c2.5,-0.9 -7.9,0.18 -11.649,-0.722c-0.787,-0.189 -1.262,-0.347 -1.513,-0.478l0,-0.4c0.467,-0.159 1.512,-0.204 1.929,-0.204c1.278,0 10.164,-0.319 14.03,-0.63c-0.819,-0.251 -1.005,-1.065 -0.302,-1.369c0.412,0 1.664,-0.18 2.912,-0.18c0.221,0 0.412,0.003 0.576,0.009c-0.101,0.038 -0.158,0.098 -0.158,0.187c-0.014,0.101 -0.047,0.197 -0.094,0.282c-0.263,0.106 -0.545,0.271 -0.83,0.444c-0.208,0.016 -0.282,0.091 -0.309,0.186c-0.198,0.119 -0.395,0.233 -0.584,0.323c-0.304,0.039 -0.716,0.078 -1.211,0.118c0.155,0.048 0.332,0.075 0.53,0.075c0.206,0 0.437,-0.077 0.681,-0.193c0.413,-0.053 0.625,-0.104 0.569,-0.152c0,-0.059 0,-0.118 0.015,-0.171l0.309,-0.186c0.028,-0.003 0.059,-0.004 0.092,-0.004c0.314,-0.001 0.594,-0.176 0.738,-0.44c0.181,-0.072 0.352,-0.117 0.508,-0.117c0.722,-0.156 0.818,-0.313 -0.256,-0.352c0.515,-0.196 2.196,0.157 3.586,0.007c0.832,-0.18 1.248,-0.18 1.248,-0.361c2.056,-1.185 4.313,-1.98 6.657,-2.345c1.664,-0.361 4.576,0.361 22.882,0c8.321,-0.18 14.561,-0.361 16.642,-0.722c1.664,-0.18 6.657,-0.541 11.649,-0.541c7.073,-0.18 11.233,-0.361 12.481,-0.9l0.832,0.361c0.832,0.361 1.248,0.541 4.993,0.361c3.332,-0.152 5.704,-0.529 7.332,-0.941c2.583,-0.054 3.813,-0.196 3.484,-0.339c0,-0.192 -0.47,-0.282 -1.537,-0.297l-0.003,0Zm-56.709,37.822c-2.214,-0.202 -4.442,-0.202 -6.657,0c-3.328,0.18 -7.073,0.18 -8.737,0.18c-2.912,-0.18 -4.576,0 -4.576,0.361c0,0.18 1.248,0.361 5.409,0.361c0.416,0 3.744,0 6.657,-0.18c7.487,-0.18 9.152,-0.362 7.904,-0.723l0,0.001Zm-24.964,-3.428c0,-0.18 0,-0.18 -0.416,-0.18c-0.285,0.01 -0.567,0.071 -0.832,0.18c0,0.18 0.416,0.18 0.416,0.18c0.286,-0.009 0.568,-0.07 0.832,-0.18Zm1456.4,-0.328c-0.514,0.059 -1.156,0.11 -1.918,0.147l0.001,0c-1.665,0.181 -2.497,0.18 -2.497,-0.181c0,-0.361 1.248,-0.541 4.16,-0.541l0.254,0.001l0,0.574Zm-49.346,-0.394c0,-0.18 0,-0.18 -0.416,-0.18c-0.416,0 -0.832,0.18 -1.248,0.18c0,0.18 0,0.18 0.416,0.18c0.416,0 0.832,-0.18 1.248,-0.18Zm16.802,-1.1c2.171,0.012 4.339,0.139 6.497,0.381c0,0.361 -7.905,0.361 -8.321,0l0,-0.363c0.521,-0.013 1.042,-0.019 1.563,-0.019l0.261,0.001Zm30.208,-0.343c-1.659,-0.187 -3.334,-0.187 -4.993,0c0.792,0.322 1.65,0.446 2.5,0.361c1.248,0 2.5,0.18 2.912,0.18c0.832,0.18 0.416,-0.361 -0.416,-0.541l-0.003,0Zm-1481.78,-4.338c0.369,0.193 0.543,0.408 0,0.51l0,-0.51Zm0,-6.272c0.593,-0.291 1.256,-0.43 1.927,-0.395c2.08,0 2.496,0.902 1.248,1.082c-1.187,0.206 -2.375,0.295 -3.175,0.265l0,-0.952Zm0,-2.256c1.71,-0.068 2.161,0.109 1.095,0.417c-0.359,0.106 -0.726,0.181 -1.095,0.225l0,-0.642Zm1463.06,-3.191c0,0 0,0.18 0.832,0.18c0.832,0 0.832,0 0.416,-0.18c-0.416,-0.18 -1.245,-0.18 -1.245,0l-0.003,0Zm-14.56,-0.723c0.832,0 1.664,-0.18 2.08,-0.18c0.286,-0.01 0.568,-0.071 0.832,-0.18c0,-0.361 -2.08,-0.361 -3.328,0.18c-1.247,0.362 -1.247,0.362 0.417,0.181l-0.001,-0.001Zm-19.97,-0.901l2.08,0.361c2.08,0.361 4.577,0.18 4.992,-0.18c0,-0.18 1.248,-0.18 2.913,0c1.664,0 2.5,0 2.08,-0.18c-0.832,-0.361 -6.241,-0.361 -9.569,-0.18l-2.496,0.179Zm-39.524,-0.541l4.161,0.361c8.585,0.607 17.196,0.728 25.794,0.361c3.744,-0.18 7.489,-0.361 8.321,-0.361c0.833,-0.18 0.833,-0.18 0.001,-0.361l-0.001,0c-1.248,-0.18 -17.89,-0.9 -22.466,-0.722c-1.248,0 -5.407,0.722 -9.153,0.722l-6.657,0Zm-0.416,-0.902c-1.645,-0.302 -3.319,-0.423 -4.992,-0.361c-2.5,0 -4.993,-0.18 -5.409,-0.18c-1.1,-0.176 -2.215,-0.237 -3.328,-0.18c-1.248,0 -3.328,0.18 -4.161,0.18c-4.16,0.18 2.5,0.722 8.737,0.722c2.502,-0.055 5.005,0.066 7.489,0.361c0.833,0.541 2.914,-0.183 1.666,-0.542l-0.002,0Zm-31.618,-0.541c-1.248,0 -8.321,-0.18 -14.977,-0.361c-26.627,-0.722 -57.414,-1.263 -59.078,-0.722c-0.697,0.014 -1.395,-0.047 -2.08,-0.18c-1.929,-0.268 -3.877,-0.389 -5.825,-0.361c-2.08,0 -5.824,-0.18 -7.905,-0.361c-3.744,-0.18 -4.16,-0.18 -5.825,0.361c-0.786,0.341 -1.649,0.465 -2.5,0.361c-1.664,-0.541 -5.825,-0.722 -8.737,-0.541c-2.493,0.182 -4.996,0.182 -7.489,0c-2.5,-0.18 -9.569,-0.361 -15.394,-0.361c-12.065,-0.18 -19.97,-0.541 -22.466,-0.9c-2.08,-0.361 -7.9,-0.361 -9.569,0.18c-0.832,0.18 -4.16,0.18 -11.649,0c-16.225,-0.361 -27.459,-0.541 -27.875,-0.18c0,0.18 0.416,0.18 0.832,0.18c0.605,-0.055 1.207,0.141 1.664,0.541c0.416,0.361 0.832,0.541 2.08,0.541c0.832,0 5.824,0.18 10.817,0.18c4.993,0.18 14.146,0.361 20.386,0.361c15.394,0.18 26.627,0.361 27.875,0.541c0.416,0 2.08,0.18 3.328,0.18c1.248,0 3.744,0.18 5.408,0.18c8.737,0.361 70.311,0.722 96.938,0.541c2.5,0 11.649,0.18 18.722,0.541c5.408,0.18 14.977,0.18 15.81,-0.18c-0.41,-0.541 -1.241,-0.541 -2.491,-0.541Zm10.4,0.18c-1.659,-0.181 -3.333,-0.181 -4.993,0c-1.248,0.18 -0.416,0.361 2.5,0.361c2.495,0 3.743,-0.18 2.495,-0.361l-0.002,0Zm110.252,-0.541c0,0.18 0.833,0.18 1.248,0.18c0.415,0 2.08,0.541 3.328,-0.18c1.248,-0.9 -2.912,-0.18 -3.744,-0.18c-0.832,0 -1.248,0.18 -0.834,0.18l0.002,0Zm-105.676,-3.067l-15.809,0c-3.328,0 -3.744,0 -4.577,0.361c-1.248,0.722 0.416,0.9 7.9,1.082c4.16,0 10.4,0.18 13.729,0.361c5.415,0.541 12.488,0.541 25.386,0.541l-0.002,0c2.5,0 4.576,0.18 4.992,0.18c0.832,0.361 4.992,0 7.073,-0.361c1.373,-0.248 2.766,-0.369 4.16,-0.361c1.12,0.018 2.238,-0.103 3.328,-0.361c0.832,-0.361 -2.912,-0.541 -12.065,-0.541c-4.16,0 -8.737,-0.18 -10.4,-0.361c-1.663,-0.181 -4.577,-0.18 -6.241,-0.18c-1.664,0 -5.409,0 -8.321,-0.18c-2.911,0 -7.072,-0.18 -9.153,-0.18Zm89.035,1.446c1.664,0.18 2.08,0 1.664,-0.361c-0.679,-0.169 -1.381,-0.23 -2.08,-0.18c-2.08,-0.003 -1.665,0.358 0.416,0.538l0,0.003Zm8.737,-0.904c0,0.18 0.416,0.18 1.248,0.18c0.832,0 1.664,-0.18 1.248,-0.18c0,-0.18 -0.832,-0.18 -1.248,-0.18c-0.419,0.028 -0.835,0.088 -1.246,0.179l-0.002,0.001Zm-372.772,-7.214c-0.416,-0.18 -1.248,-0.18 -1.248,0.18c0.265,0.109 0.547,0.17 0.832,0.18c0.415,-0.183 0.415,-0.183 0.415,-0.36l0.001,0Zm-260.026,0c0,0.18 0.416,0.18 1.248,0.18c0.832,0 0.832,-0.18 0.832,-0.18c0,-0.18 -0.832,-0.18 -1.248,-0.18c-0.416,0 -0.832,-0.004 -0.832,0.18Zm-2.08,-0.181l-0.416,0.18c0,0.18 0.416,0.18 0.416,0.18c0.416,0 0.416,-0.18 0.416,-0.18c0,-0.183 -0.416,-0.183 -0.416,-0.183l0,0.003Zm299.549,0.181c0.424,0.018 0.847,-0.043 1.248,-0.18c0,-0.18 -0.416,-0.18 -0.832,-0.18c-0.416,0 -0.832,0.18 -1.248,0.18c-0.416,0 0,0.18 0.832,0.18Zm-52.422,-0.183c2.077,0.188 4.165,0.188 6.241,0c0.416,-0.18 -0.416,-0.18 -1.664,-0.18c-1.25,0.041 -2.502,-0.019 -3.744,-0.18c-2.08,-0.362 -2.497,0.179 -0.833,0.359l0,0.001Zm-39.523,-0.361c0.416,-0.361 -1.248,-0.541 -2.5,-0.361c-0.538,0.187 -1.125,0.187 -1.664,0c-0.396,-0.18 -0.851,-0.18 -1.248,0c-0.416,0.18 -0.416,0.18 0,0.361c0.836,0.36 4.996,0.36 5.412,0Zm-944.412,-0.002c0,0.18 0.416,0.18 0.416,0.18c0.416,0 0.416,-0.18 0.416,-0.18c0,-0.18 -0.416,-0.18 -0.416,-0.18l-0.416,0.18Zm662.753,-0.535c-1.519,0.184 -3.056,0.184 -4.576,0c-2.069,-0.264 -4.154,-0.384 -6.241,-0.361c-5.408,-0.18 -26.211,-0.18 -26.627,0c-0.832,0.361 1.664,0.541 13.729,0.541c12.9,0 21.634,0.18 22.05,0.361c0.416,0.181 6.241,0.18 6.657,-0.18c0,-0.18 0,-0.361 -0.416,-0.541c-1.248,-0.005 -2.08,-0.005 -4.576,0.175l0,0.005Zm241.717,0.176c0.416,-0.361 0,-0.361 -2.08,-0.361c-2.5,0 -2.912,0.18 -2.912,0.541c0,0.361 4.578,0.181 4.994,-0.18l-0.002,0Zm-20.8,0.18c0.962,0.189 1.951,0.189 2.912,0c1.248,0 2.912,-0.18 3.744,-0.18c0.832,0 0.832,0 0.416,-0.18c-1.646,-0.302 -3.32,-0.423 -4.993,-0.361c-2.5,0 -4.576,-0.18 -4.576,-0.18c-0.56,-0.03 -1.122,0.031 -1.664,0.18c-0.81,0.239 -1.663,0.301 -2.5,0.18c-1.248,-0.361 -4.16,-0.18 -3.745,0.18c0,0.18 2.5,0.18 4.993,0.18c2.917,0.001 4.997,0.181 5.413,0.181Zm25.378,0c3.328,-0.18 3.328,-0.361 2.5,-0.722c-0.828,-0.361 -5.408,0 -5.408,0.361c0.412,0.542 0.828,0.542 2.908,0.361Zm-41.608,-0.18c0.832,-0.18 0.832,-0.18 0,-0.18c-0.701,-0.066 -1.397,-0.187 -2.08,-0.361c-0.832,-0.361 -1.248,-0.361 -1.248,0.18c0.42,0.541 1.668,0.722 3.332,0.361l-0.004,0Zm52.426,0.181c0.559,-0.008 1.117,-0.069 1.664,-0.18c0,-0.18 -0.832,-0.18 -1.664,-0.18c-0.559,0.008 -1.116,0.068 -1.664,0.18c-0.414,-0.001 0.415,0.179 1.664,0.179l0,0.001Zm-48.261,-0.541c-0.002,0.36 -2.081,0.36 -2.916,-0.181c-0.416,-0.361 -0.42,-0.363 0.416,-0.541c0.836,-0.178 2.499,0.361 2.5,0.722Zm-304.958,-0.903c0,-0.361 -19.97,-0.361 -19.97,-0.18c0,0.181 -0.832,0.18 -1.664,0.18c-0.832,0 -1.664,0.18 -1.664,0.361c-0.416,0.361 0,0.361 1.664,0.18c0.832,-0.18 19.138,0.9 22.466,0.361c3.328,-0.722 -0.832,-0.902 -0.832,-0.902Zm292.888,0.903c1.248,0 1.248,-0.541 -0.416,-0.722c-0.416,0 -0.832,0 -0.832,0.361c0.001,0.18 0.42,0.36 1.253,0.36l-0.005,0.001Zm12.07,0l0,-0.001l0,0.001Zm-271.678,-0.363c0.533,0.206 1.094,0.328 1.664,0.361c0.832,0 1.248,-0.18 1.248,-0.361c0,-0.181 -0.832,-0.361 -1.664,-0.361c-0.832,0 -1.661,0.182 -1.245,0.362l-0.003,-0.001Zm252.956,0.182c0.416,0.18 2.5,-0.361 3.328,-0.361c1.248,0 1.248,0 0.416,-0.18c-0.682,-0.149 -1.381,-0.21 -2.08,-0.18c-1.248,-0.001 -2.08,0.54 -1.664,0.721Zm-2.495,-0.181c0,-0.18 0.832,-0.18 0.832,0c0.416,0.18 0.416,0 0.416,-0.18c-0.832,-0.541 -5.409,-0.361 -5.409,0c0,0.361 3.744,0.541 4.161,0.18Zm-875.35,0.181c-1.672,0.06 -3.346,-0.06 -4.993,-0.359c0,0 -7.488,0.722 -4.576,-0.722c2.912,-1.444 6.241,-0.181 19.554,0.18l15.393,0c1.665,0.18 4.577,0 6.657,0c1.948,-0.085 3.349,-0.13 4.288,-0.117c-0.473,0.204 -1.113,0.425 -1.947,0.636c-0.686,0.014 -1.467,0.022 -2.341,0.022c-1.664,0 -6.657,0.18 -11.233,0.18c-4.576,0.18 -10.401,0.18 -13.313,0.18l-7.489,0Zm867.861,-0.001c1.248,0 2.912,-0.361 2.5,-0.541c-1.122,-0.083 -2.249,0.04 -3.328,0.361c0.263,0.109 0.543,0.17 0.827,0.181l0.001,-0.001Zm-256.698,-0.36c0,0.18 0.416,0.361 0.832,0.361c0.416,0 0.832,-0.18 0.832,-0.361c0,-0.181 -0.416,-0.361 -0.832,-0.361c-0.416,0 -0.832,0.18 -0.832,0.361Zm5.825,-0.541c1.103,-0.18 2.227,-0.18 3.328,0c0.836,0 0,0.9 -1.664,0.9c-1.663,0 -2.495,-0.72 -1.664,-0.9Zm236.312,0.721l2.08,0c0.832,0 1.664,-0.18 2.5,-0.18c0.424,0.018 0.847,-0.043 1.248,-0.18c0,-0.361 -5.409,-0.361 -6.241,0c0,0.18 0,0.361 0.416,0.361l-0.003,-0.001Zm-45.35,-0.541c0,0.18 0.832,0.361 3.328,0.541l5.408,0c1.248,0 5.825,-0.18 10.4,-0.18c9.985,-0.18 12.481,-0.541 4.992,-0.722c-3.744,-0.18 -22.882,0 -24.13,0.18l0.002,0.181Zm36.198,-0.179c2.081,0 3.328,0 3.328,0.18c-0.264,0.109 -0.546,0.17 -0.832,0.18c-0.42,0 -1.668,0.18 -2.5,0.18c-1.241,0.182 -2.502,0.182 -3.744,0l-1.661,-0.36c0,-0.18 0.832,-0.18 1.248,-0.18l4.161,0Zm-282.91,0.359c0.832,0.361 0.416,0.361 2.912,0c2.08,-0.361 1.664,-0.722 -1.248,-0.722c-1.664,0.001 -2.496,0.181 -1.664,0.722Zm287.896,0.181c-0.414,0 -0.828,-0.001 -0.832,-0.181c-0.416,0 0,-0.18 0.416,-0.18c1.248,0 1.248,0.181 0.416,0.361l0.004,0l-0.004,0Zm-306.618,-0.361c-2.5,0.361 -2.5,0.361 6.241,0.361l8.737,0c1.248,0 2.08,-0.18 1.664,-0.361c0,-0.361 0,-0.361 -5.408,-0.361c-7.489,-0.18 -9.569,0 -11.234,0.361Zm257.946,-0.722c2.081,-0.178 3.328,0.361 2.08,0.722c-2.905,0.24 -5.823,0.3 -8.737,0.18c0,0 -12.481,-0.18 -27.459,-0.18c-40.772,-0.361 -53.253,-0.361 -59.078,-0.722c-2.912,-0.18 -7.905,-0.18 -11.233,-0.18c-2.912,0.18 -5.824,0 -6.661,0c-1.248,-0.722 5.409,-0.722 26.627,-0.361c3.329,0.181 15.394,0.181 26.211,0.361c11.233,0 20.802,0.18 22.05,0.18l36.2,0Zm61.575,0.902c0.832,0 0.832,-0.18 0,0c0,-0.18 -0.416,-0.18 -0.832,-0.18c0.264,0.109 0.545,0.17 0.83,0.18l0.002,0Zm-56.587,-0.36c0.416,0 0.416,-0.18 0.416,-0.361c0,-0.181 -0.416,-0.361 -0.416,-0.18c-0.416,0.18 -0.416,0.18 -0.416,0.361c0,0.181 0.416,0.18 0.416,0.18Zm-653.6,-2.707c0,-0.18 -0.416,-0.18 -0.832,-0.18c-0.416,0 -0.832,0.18 -0.416,0.18c0,0.18 0.416,0.18 0.832,0.18c0.004,0.181 0.416,0.001 0.416,-0.18Zm178.9,-0.18c0.416,-0.361 0,-0.541 -1.248,-0.361c-0.416,0 -0.832,0.18 -0.416,0.361c0.495,0.36 1.17,0.36 1.664,0Z" style="fill:#fff;fill-rule:nonzero;"/></svg>