<svg xmlns="http://www.w3.org/2000/svg" width="50" height="23.185" viewBox="0 0 50 23.185">
  <path id="Path_423" data-name="Path 423" d="M25.719,22.31s-.012-23-.025-23h0C25.707-.69,25.719,22.31,25.719,22.31ZM12.435-.584h0Zm16.6,0c.062,0,.037.026-.025.026s-.136,0-.136-.026ZM25.62-.69h0Zm3.225.106c0,.026-.012.026-.037.026a.046.046,0,0,1-.037-.026h.074Zm-15.681,0c-.025-.026.012-.026.074-.026s.086.026.037.026Zm11.22-.079c-.074,0-.086-.026-.062-.026.025-.026.074,0,.1,0C24.446-.663,24.446-.663,24.384-.663ZM25.4-.69h0Zm-4,0h0ZM11.62-.584c-.012,0,.012-.026.049-.026s.049.026.025.026ZM28.3-.69h-.025c0-.026,0-.026.012-.026C28.314-.69,28.326-.69,28.3-.69Zm.9.132h-.086c.012-.026.111-.026.148,0ZM27.869-.69h0Zm-.63,0h0Zm.507,0c.012-.026.086-.026.1,0h-.1Zm2.78.026h-1.94c.012,0,.025,0,.037-.026H28.7s-.012-.026,0-.026h.124a.085.085,0,0,1-.049.026h1.335c.062,0,.173.026.247.026C30.5-.69,30.538-.663,30.526-.663ZM29.6-.716c-.025-.026.025-.026.1-.026s.111,0,.124.026Zm-.581.026c-.025,0-.025-.026-.025-.026h.062C29.055-.69,29.043-.69,29.018-.69Zm.148,0s0-.026.025-.026.025,0,.012.026Zm7.377-.026h0Zm-2.719.185L33.813-.5C33.8-.5,33.8-.531,33.8-.531h.025Zm-.791,0h0Zm1.693-.185c-.012,0-.012-.026-.012-.026h.025C34.739-.716,34.727-.716,34.727-.716Zm-1.841.185h0ZM34.665-.5H34.6c0-.026,0-.026.025-.026S34.665-.531,34.665-.5Zm-2.78-.026h-.037q0-.04.037,0Zm3.386-.185c-.161,0-.21,0-.2-.026h.247C35.394-.743,35.357-.716,35.271-.716ZM32.6-.531h-.086c0-.026.025-.026.049-.026A.046.046,0,0,1,32.6-.531Zm-.544,0h-.124c-.037-.026-.037-.026.012,0h.111Zm.173,0h-.049C32.206-.557,32.231-.557,32.231-.531Zm.222,0h-.086c0-.026.025-.026.049-.026S32.466-.557,32.453-.531ZM36.1-.716h-.086a.254.254,0,0,1,.2,0H36.1Zm.828,0h0Zm.2.026a.046.046,0,0,1-.037-.026h.074C37.161-.69,37.149-.69,37.124-.69Zm.457,0s0-.026.025-.026.025,0,.012.026Zm.7,0h-.062c-.025,0-.086-.026-.062-.026s.1.026.111.026Zm-.346,0h0ZM11.311-.584c-.012,0,.012-.026.049-.026s.049.026.025.026ZM35.629-.716h0Zm1.137,0h0ZM31.8-.531s-.21,0-.2-.026C31.613-.557,31.811-.557,31.8-.531ZM30.266-.557h0Zm5.215-.159c-.025-.026-.025-.026-.012-.026H35.6C35.6-.716,35.518-.716,35.481-.716Zm1.162,0h0Zm-4.177,0c-.012,0-.012-.026-.012-.026h.025C32.478-.716,32.478-.716,32.466-.716ZM32.28-.743h.037C32.305-.716,32.28-.743,32.28-.743Zm.259.026c-.012,0-.025-.026-.025-.026h.049S32.552-.716,32.54-.716Zm-.865-.026h.037C31.687-.716,31.675-.743,31.675-.743Zm1.2,0a5.389,5.389,0,0,1,.655,0,3.241,3.241,0,0,1-.519,0Zm-.049,0h0Zm-2.941.026s0-.026.025-.026.025,0,.012.026Zm.667.159h0Zm-.556-.185h.185a1.442,1.442,0,0,1,.408.026h-.062A2.958,2.958,0,0,1,29.994-.743Zm.951,0h.012c.012,0,.012,0,.012.026C30.958-.716,30.946-.716,30.946-.743Zm-.1.026A.048.048,0,0,1,30.8-.743h.037C30.859-.743,30.872-.743,30.847-.716Zm.111.159c-.012.026-.025.026-.025,0h.025Zm-.111,0h0ZM34.5-.663H30.612c-.074,0,.037-.026.371-.026h2.311a1.651,1.651,0,0,1,.3.026H34.5Zm-2.953.106c0,.026-.025.026-.037.026-.037,0-.049-.026-.037-.026Zm-.432,0c-.012.026-.037.026-.037,0h.037Zm.21,0c0,.026-.012.026-.012.026S31.3-.557,31.3-.557h.025Zm2.583-.185h.21S33.936-.716,33.912-.743Zm.643.026c-.012,0-.012-.026-.012-.026h.037C34.566-.743,34.554-.716,34.554-.716Zm-.939-.026h0Zm.8,0h.074C34.48-.716,34.418-.743,34.418-.743Zm-.124.026c-.012,0-.025-.026-.025-.026h.049S34.319-.716,34.295-.716ZM32.614,3.44c.1,0,.1,0,.074.026-.025,0-.161,0-.161-.026Zm-7.068.053h2.088c.445,0,.816-.026.816-.026s.247,0,.259.026H26.918c-.321.026-.68.026-.778.026-.63,0-.828,0-.791-.026Zm2.014-.079h.062c0,.026-.025.026-.037.026S27.56,3.44,27.56,3.413Zm-.89.026h-.2c-.037,0-.086.026-.111.026-.049,0-.062,0-.062-.026h-.791a4.077,4.077,0,0,1,.519-.026H27.4c.086,0,.062,0-.037.026Zm.828,0-.012-.026h.025C27.511,3.44,27.5,3.44,27.5,3.44Zm-2.2,0h-.136c-.025.026-.111.026-.185.026h-.791c-.025-.026.049-.026.408-.026h.853l-.012.026A.325.325,0,0,1,25.3,3.44Zm-10.6.106c.012.026,0,.026-.037.026-.012,0-.025,0-.012-.026Zm15.137-.079h.185c.012,0,.025.026.025.026h-.259A.085.085,0,0,1,29.834,3.466Zm.383,0h.173c0,.026-.161.026-.185,0Zm.259,0c.025,0,.025.026,0,0,0,.026-.012.026-.025.026S30.464,3.466,30.476,3.466Zm-1.606.026c0-.026.025-.026.1-.026h.47c.3,0,.371.026.148.026Zm-.074,0h0Zm1.3-.026c.025,0,.025.026-.012.026-.012,0-.025-.026-.012-.026Zm-20.71.079h0ZM2.377,2.963h.1c.062,0,.049.026.012.026H2.352C2.365,2.99,2.352,2.963,2.377,2.963Zm-.309,0c.049,0,.074.026.049.026h-.1C1.994,2.99,2.006,2.963,2.068,2.963Zm.185,0h.025c.037.026.037.026-.012.026s-.074,0-.037-.026Zm-.581,0c.2,0,.222,0,.21.026a3.379,3.379,0,0,1-.519,0c-.049,0-.086-.026.062-.026C1.5,2.963,1.636,2.99,1.673,2.963Zm.334-.424H1.833c-.025-.026.037-.026.049-.026S2.006,2.513,2.006,2.54Zm2.867.926h.951c.124,0,.185,0,.173.026H5.17a3.578,3.578,0,0,1-.581,0c-.086-.053.136-.026.136-.026Zm.741-.026h0ZM2.673,2.91H2.8c.037,0,.025.026-.037.026A.163.163,0,0,1,2.673,2.91Zm.062.079H2.624A.088.088,0,0,1,2.735,2.99Zm.457.318c.025,0,.062.026.086.026H3.168C3.143,3.334,3.155,3.307,3.192,3.307Zm-2.323-.9c.049,0,.136-.026.173-.026.037.026.049.026.049.026-.012.026-.4.053-.3-.026A.14.14,0,0,1,.869,2.407ZM30.946,3.466h.111c-.012.026-.049.026-.062.026C30.958,3.493,30.934,3.466,30.946,3.466ZM36.4,3.413a.046.046,0,0,1,.037.026h-.062C36.358,3.44,36.371,3.413,36.4,3.413Zm-1.112,0c-.012.026-.037.026-.037,0h.037Zm-1.446.026h-.124C33.726,3.413,33.85,3.413,33.837,3.44Zm.544,0h-.21c-.074,0-.148,0-.136-.026A1.58,1.58,0,0,1,34.381,3.44Zm14.927-.688h0Zm.334-.794c.049.026.049.026-.025.026H49.58C49.592,1.957,49.617,1.957,49.642,1.957Zm.111-.662c0,.026,0,.026-.012.026-.037,0-.049,0-.037-.026Zm-.655.874h.124C49.246,2.2,49.172,2.2,49.1,2.169Zm.185.026c.012-.026.148-.026.148,0h-.148ZM33.664,3.44h0Zm1.174,0c.062-.026.173-.026.185,0h-.185Zm-3.695.026h0Zm-.173-.026h0Zm.408,0h0c-.012,0-.037.026-.062.026H31.28C31.292,3.44,31.329,3.44,31.378,3.44Zm-.507.026h.037c-.025.026-.161.026-.161,0Zm-.222,0h.074c-.012.026-.1,0-.1,0Zm2.644-.026h.086a.087.087,0,0,0-.074.026h-.062C33.207,3.44,33.22,3.44,33.294,3.44ZM31.5,3.466s-.049.026-.074,0h-.012C31.44,3.44,31.5,3.44,31.5,3.466Zm1.433-.026h0ZM38.36-.69c-.012,0,0-.026.037-.026s.049.026.037.026ZM31.86,3.44h.21c-.012.026-.074.026-.148.026h-.185c-.025,0-.049-.026-.074,0-.037,0-.124,0-.111-.026h.309Zm.618,0c.012.026,0,.026-.062.026s-.086-.026-.086-.026ZM6.924-.584h0Zm-2-.053h0Zm3.1.026h.012S8.036-.584,8.024-.61Zm-3.682,0h.049C4.391-.584,4.366-.584,4.342-.61ZM4.49-.637c-.062-.026.284,0,.321,0h.025A1.474,1.474,0,0,1,4.49-.637Zm1.384.053h0Zm4.7.026h0ZM6-.584h.037a1.433,1.433,0,0,1,.383.026C6.442-.557,6.035-.584,6-.584ZM4.156-.637h0ZM3.65-.69c0-.026.1-.026.148,0H3.65Zm-.086.053h0ZM4.02-.69h0Zm0,.053h-.1c-.025,0-.025-.026.025-.026C4.008-.637,4.045-.637,4.02-.637Zm5.351,0h0ZM3.662-.8h.062c.025.026.025.026.012.026S3.65-.769,3.662-.8Zm5.82.159h0Zm.086.053C9.544-.61,9.556-.61,9.593-.61s.049.026.062.026Zm.161-.053c-.025,0-.025-.026.025-.026s.049,0,.037.026Zm.21.026H10C9.989-.584,9.939-.584,9.939-.61ZM7.876-.637H7.789C7.826-.663,7.863-.663,7.876-.637Zm.445,0H8.135c-.21,0-.309-.026-.136-.026C8.123-.663,8.308-.637,8.321-.637ZM7.6-.61s-.049-.026.037-.026.012.026,0,.026ZM8.778-.637h0Zm-.309,0h.259A.7.7,0,0,1,8.469-.637Zm.618,0h0ZM1.376.951A2.056,2.056,0,0,1,.944.925h0C.956.9.968.9,1.005.925h.161C1.277.925,1.45.951,1.376.951ZM1.092.66h.025c0,.026-.012.026-.012.026S1.092.687,1.092.66ZM.684.872C.733.9.684.9.647.9S.536.9.536.872A.265.265,0,0,1,.684.872ZM.82.9C.832.9.882.9.882.925H.82C.808.925.808.9.82.9Zm-.074.238C.7,1.137.672,1.11.684,1.11h.1C.882,1.137.857,1.137.746,1.137ZM.771.9h0Zm0,.344c.012,0,0,.026-.037.026S.659,1.243.647,1.243H.771Zm.939.979h.074C1.759,2.249,1.722,2.249,1.71,2.222Zm-.667-.106c-.049-.026,0-.053.025-.026.025,0,.2,0,.494.026H1.71v.026C1.549,2.143,1.129,2.116,1.042,2.116ZM1.2,2.01a.192.192,0,0,1-.111-.026c-.037-.026.111,0,.111,0H1.66A2.58,2.58,0,0,1,1.2,2.01Zm.037-.688c.012.026-.012.026-.074.026s-.111,0-.124-.026h.2ZM.931,1.163q0-.04.111,0H.931Zm.643-1.8s.012-.026.025-.026.025.026.012.026ZM.56.025C.536.025.523,0,.548,0S.585,0,.585.025ZM2.945-.849H2.9c-.037,0-.1-.026-.062-.026H2.97C2.97-.849,2.958-.849,2.945-.849Zm-.235.185h-.1c-.049,0-.062,0-.025-.026a.118.118,0,0,1,.136-.026L2.76-.69H2.673c.111.026.148.026.124.026C2.785-.637,2.748-.663,2.711-.663Zm-.3-.106H2.352c-.012.026-.062.026-.062,0,0,0-.086,0-.012-.026S2.439-.769,2.414-.769Zm1.124,0c-.111,0-.531-.053-.568-.053s-.012-.026.124-.026c.272.026.432.053.482.053h.062C3.637-.769,3.588-.769,3.538-.769ZM2.463-.69a.233.233,0,0,0-.1-.026c-.012,0,.037-.026.124-.026C2.6-.716,2.587-.69,2.463-.69Zm-.816.053c0-.026.012-.026.037-.026s.025.026.025.026H1.648ZM.585,0h0Zm.42-.265c.012,0,.025-.026.037,0H1.005Zm.556-.4c.012-.026-.037-.026.062-.026a.792.792,0,0,1,.272.026H1.561Zm1.965.026H3.267c-.012,0,.025-.026.111,0ZM35.592-.5h0ZM26.213-.557h0ZM24.347-.61Zm-6.524.238h-.1C17.736-.4,17.811-.4,17.823-.372ZM1.747-.346H1.7c-.012,0-.025,0-.012-.026a2.454,2.454,0,0,1,.408.026C2.179-.319,1.759-.346,1.747-.346ZM1.463-.451h0Zm.457.185H1.858C1.858-.293,1.883-.293,1.92-.266ZM17.156-.372c-.025.026-.049,0-.062,0h.062Zm.1-.053h.185a1.22,1.22,0,0,1-.309.026C17.032-.425,17.082-.425,17.255-.425Zm-.3.053h0Zm.482,0h0Zm7.723-.185h0ZM1.487,1.64c-.1-.053.247-.026.334-.026.086.026-.259.026-.259.026Zm-.1-.079c.025.026.049.026.037.026s-.222.026-.111-.026ZM39.25-.69h0ZM1.611,1.587c-.012,0-.025-.026-.025-.026h.037C1.66,1.587,1.648,1.587,1.611,1.587ZM1.277,1.11c0,.026-.012.026-.025.026-.037,0-.049,0-.025-.026Zm.1.053H1.3c-.012,0-.025-.026-.025-.026s.1,0,.124.026Zm.161,0h0Zm.432,0h0ZM21.789-.425h0Zm.989,0h-.025a.385.385,0,0,0,.136-.026c.012,0,.025,0,.025.026Zm.371,0h0ZM2.093,1.984c.062.053-.111.026-.124.026s-.334,0-.161-.026A1,1,0,0,1,2.093,1.984ZM21.369-.425h.037c.049,0,.086,0,.062.026A.531.531,0,0,1,21.369-.425ZM21.036-.4c-.148,0-.272,0-.222-.026a3.1,3.1,0,0,1,.494.026h-.272Zm2.212-.026H23.3c-.037.026-.074.026-.049,0ZM24.286-.4c-.037-.026-.037-.026-.025-.026.049,0,.124,0,.086.026Zm-.173-.026h.025c.037,0,.037.026.012.026S24.113-.4,24.113-.425Zm-6.5.053h-.062C17.6-.4,17.613-.4,17.613-.372Zm5.869-.053h.049c0,.026-.012.026-.025.026S23.482-.4,23.482-.425Zm.222,0h.049c.049,0,.074,0,.025.026A.238.238,0,0,1,23.7-.425Zm.865-.026h.049C24.582-.425,24.57-.451,24.57-.451Zm-5.956.026h0Zm-.877,0h0Zm.235.026c.124,0,.185,0,.185.026h-.247A.12.12,0,0,0,17.971-.4Zm.914-.026s0-.026.025-.026.025,0,.012.026Zm-.593.053H18.28a.518.518,0,0,1,.284,0Zm-.408-.053h0Zm1.087.053C18.91-.4,19.108-.4,19.466-.4c.161,0,.494,0,.729-.026h.494c.049,0,.1.026.062.026C20.752-.372,19.046-.372,18.972-.372Zm-.531-.053h0Zm.3.053c-.049,0-.136,0-.136-.026h.086C18.787-.4,18.787-.4,18.737-.372ZM47.146,2.513h.025C47.158,2.54,47.146,2.513,47.146,2.513Zm.371.132c-.012,0,.037-.053.074-.053h.062a2.754,2.754,0,0,1,.47,0C48.221,2.646,47.529,2.646,47.516,2.646Zm-.284,0h.037c.049-.053.21-.053.2,0Zm-.507-.053c.111,0,.136.053.049.053a.151.151,0,0,1-.124-.053Zm.148,0h.012a.464.464,0,0,1,.161.053h-.173C46.9,2.646,46.9,2.646,46.874,2.593Zm1.31-.238h0Zm-.173,0h.148a.15.15,0,0,1-.074.026A.1.1,0,0,1,48.011,2.354Zm.84-.053c-.012,0-.012-.026,0-.026.025-.026.1-.026.1,0S48.876,2.3,48.851,2.3Zm-2.694.768h0Zm.556-.4h-.148a.15.15,0,0,1,.074-.026h.086C46.75,2.646,46.738,2.672,46.713,2.672Zm2.842-.662h0Zm.222-.768c-.049,0-.2,0-.161-.026s.247,0,.259,0A.181.181,0,0,1,49.778,1.243Zm-.432.662c-.062-.026-.062-.026.037-.026s.1,0,.074.026Zm.161-.874c-.025,0-.037,0-.037-.026h.074C49.543,1.031,49.531,1.031,49.506,1.031ZM45.762,2.646h.247S45.774,2.672,45.762,2.646Zm.334.582c.049-.026.062,0,.049,0H46.1Zm3.089-1.562c-.012.026-.086.026-.086,0h.086Zm-.2.159c-.012,0-.012,0,.012-.026h.161C49.172,1.825,49.012,1.825,48.987,1.825Zm.321-.026h.074c0,.026-.025.026-.049.026S49.308,1.8,49.308,1.8ZM2.142,2.09H2.105c-.012,0-.21,0-.124-.026A.217.217,0,0,1,2.142,2.09ZM49.185,1.8h.087c0,.026-.025.026-.049.026A.046.046,0,0,1,49.185,1.8ZM2.673,2.778q-.074.04-.074,0s-.062-.026.049-.026S2.7,2.778,2.673,2.778Zm.259-.424h0Zm-.445-.132h0Zm.3.582H2.735c-.012,0-.012-.026.012-.026S2.809,2.8,2.785,2.8Zm20.648.662h0ZM2.13,2.328h.062C2.13,2.354,2.105,2.328,2.13,2.328Zm.185-.344H2.266c.408-.026.259.026.161.026-.049,0-.062,0-.049-.026Zm-.124.424H2.179C2.2,2.381,2.2,2.407,2.192,2.407Zm-.1-.185c-.012-.026.012-.026.111,0,0,0,.148-.026.173,0H2.093Zm44.732.794h0ZM23.2,3.493c-.025,0,0-.026.049-.026s.074.026.049.026Zm23.157-.265h.074c0,.026-.025.026-.037.026S46.355,3.228,46.355,3.228Zm.766-.053c0,.026-.148.026-.259.026a.1.1,0,0,1-.074-.026h.334Zm-.531,0h.037c.012,0,.062-.026.1,0s-.086,0-.111,0Zm.951.026h-.173c-.025-.026-.012-.026.025-.026A.507.507,0,0,1,47.541,3.2Zm-26.555.291c-.074-.026-.074-.026.185-.026h.259c.037,0,.062,0,.049.026h-.494Zm2.039-.026h.049s-.012.026-.025.026S23.025,3.466,23.025,3.466ZM47.356,2.99h0Zm-.2.185h.185c0,.026-.037.026-.1.026S47.146,3.2,47.158,3.175ZM1.981,1.64H1.833c0-.026.222-.026.259,0Zm38.071-2.2c-.037-.026-.049-.026-.1,0H39.88a.048.048,0,0,0-.049-.026h-.2c0-.026.136,0,.136,0,.025,0,.062-.026.086,0h.235a.053.053,0,0,0,.049.026h-.086Zm-.9-.026h.507c.025.026-.21.026-.259.026h-.2c.012,0,0-.026-.012-.026Zm.964,0h0Zm-2.5-.026h.025C37.631-.584,37.619-.61,37.619-.61Zm2.99.053c0-.026-.086-.026-.111-.026-.025.026-.2.026-.2.026s0-.026-.012-.026h.037a4.047,4.047,0,0,1,.568,0,.345.345,0,0,1-.111.026h-.173ZM39.015-.584h0ZM38.039-.61c.062,0,.062,0,.025.026h-.185a.251.251,0,0,1-.136-.026h.3Zm.457.026h-.111C38.385-.61,38.484-.61,38.5-.584Zm2.212.132h-.062C40.671-.478,40.7-.478,40.708-.451ZM38.9-.584a1.086,1.086,0,0,1-.3,0c-.074-.026.2,0,.222,0Zm.235,0c0,.026-.025.026-.037.026s-.025-.026-.037-.026h.074Zm3.485.053c.025,0,0,.026-.037.026h-.062C42.512-.531,42.586-.531,42.623-.531ZM42.376-.5H42.3a.918.918,0,0,1-.272,0,.261.261,0,0,1,.111-.026,2.758,2.758,0,0,1,.3.026h.037C42.5-.5,42.438-.478,42.376-.5Zm.68,0h-.087c-.062,0-.3,0-.284-.026A.853.853,0,0,1,43.056-.5Zm-.964-.053c-.025,0-.025,0,0-.026h.062c.037.026.037.026,0,.026ZM43.5-.451c-.012-.026,0-.053.037-.053.148,0,.037.026.012.053ZM41.894-.5h0Zm-.9-.053c-.037,0-.037-.026-.012-.026h.037a1.326,1.326,0,0,1,.3.026Zm.754-.026a.2.2,0,0,1-.173,0c-.025,0,.025-.026.111-.026C41.8-.584,41.82-.584,41.746-.584ZM41.82-.5h0Zm.074-.079h.037c0,.026,0,.026-.012.026S41.894-.557,41.894-.584Zm-4.275.106h-.074A.1.1,0,0,1,37.619-.5C37.73-.5,37.717-.478,37.619-.478ZM46.861-.61h0Zm-.124-.026h0Zm.309.026H47.2C47.2-.584,47.072-.584,47.047-.61ZM44.254-.743a2.183,2.183,0,0,1,.445.026c.025,0-.049.026-.247.026C44.192-.69,44.106-.716,44.254-.743Zm1.854.079h.235A.355.355,0,0,1,46.108-.663ZM40-.69h0Zm3.991-.026h-.074c0-.026.124,0,.136,0Zm3.373.132h0ZM46.38-.663a.867.867,0,0,1,.2.026h.087A.95.95,0,0,1,46.38-.663Zm1.137.106a.15.15,0,0,1-.074-.026H47.5C47.591-.584,47.6-.557,47.516-.557ZM37.038-.478c.012,0,.012.026,0,.026s-.457-.026-.445-.026A1.256,1.256,0,0,1,37.038-.478ZM36.247-.5H36.4c.111,0,.124.026.086.026H36.21c-.037,0-.062-.026-.049-.026ZM37.532-.61h0Zm-.185,0c.062,0,.074,0,.025.026a.869.869,0,0,1-.136-.026h.111ZM35.234-.5h0Zm.7,0c.062,0,.074,0,.037.026-.037,0-.074,0-.074-.026Zm11.714,0c-.037,0-.074,0-.074-.026h-.21a.789.789,0,0,0-.259-.026h-.235c-.161-.026-1.013-.053-1.458-.079h-.853q-.019-.04-.074,0h-.766a1.124,1.124,0,0,1-.148-.026h-1.26a1.037,1.037,0,0,1-.272-.026H41.2c-.371.026-.432.026-.445,0h-.049a.221.221,0,0,1-.136,0h-.4a.6.6,0,0,1-.235.026,1.24,1.24,0,0,1-.26-.026h-.161a4.348,4.348,0,0,1-.7,0H34.9c-.173,0-.259,0-.259.026h1.643c.927.026,2,.026,2.533.026h1.372A1.842,1.842,0,0,1,40.5-.61H41.1a.222.222,0,0,1,.185,0c.124,0,.21.026.247,0a.849.849,0,0,1,.26,0h.037c.012.026.025.026.148.026h.235c.037,0,.358.026.63.026h1.2c.025.026.049.026.3.026h.185c.037,0,.111.026.161.026h.42c.062.026.025,0-.037-.026h.2a.481.481,0,0,1,.111.026h.049a.433.433,0,0,1,.259,0c.037,0,.235.053.124.026H43.6c.012,0,.321,0,.717.026h1.347c.074,0,.754.026.816.026a.611.611,0,0,1,.173.026h.222a.046.046,0,0,0-.037-.026h.21c0-.026-.111-.026-.26-.026a8.6,8.6,0,0,1-.9-.053c-.025,0-.037,0-.037-.026h.222a3.777,3.777,0,0,1,.494.026h.383a.3.3,0,0,1,.136.026h.544s.012-.026.049,0C47.739-.478,47.726-.478,47.652-.5Zm-1.545.053h0ZM35.79-.5h0Zm-9.9.053a2.046,2.046,0,0,1-.408,0h.408Zm4.3.026h.049s-.012.026-.025.026S30.192-.4,30.192-.425Zm-.086,0h0ZM29.154-.4h0Zm.3,0h.025C29.463-.372,29.451-.4,29.451-.4Zm8.687-.185c0-.026.2,0,.222,0h-.222Zm-8.291.159h.062c.037.026.025.026-.037.026S29.809-.4,29.846-.425Zm13.778.053h0Zm5.61,1.482a.535.535,0,0,1,.161-.026c.173.026.124.053-.025.053A.632.632,0,0,1,49.234,1.11Zm.334,0c.074-.026.062-.026.1,0,.012,0-.012.026-.062.026C49.518,1.137,49.518,1.11,49.568,1.11ZM43.71-.372H43.8c0,.026-.012.026-.037.026S43.723-.346,43.71-.372Zm4.4.106s.346.026.371.026h-.025C48.443-.187,48.109-.24,48.109-.266ZM25.225-.451h.136C25.373-.451,25.348-.425,25.225-.451ZM26-.372h-.086c0-.026.025-.026.049-.026S26-.4,26-.372ZM29.055-.4h0ZM24.866-.451h.173c.049,0-.037,0-.111.026C24.842-.425,24.817-.451,24.866-.451Zm.865.079h-.025L25.719-.4C25.731-.4,25.731-.4,25.731-.372Zm-.989-.079H24.73C24.718-.425,24.718-.451,24.743-.451ZM27.98-.4h0Zm.84,0h-.136a2.308,2.308,0,0,1-.432,0,2.145,2.145,0,0,1,.605,0h.136C28.994-.372,28.981-.372,28.82-.4Zm-1.137,0c0-.026.025-.026.037,0h-.037Zm10.8.132h0ZM49.345.5c-.074,0-.2,0-.148-.026.074-.026.235,0,.235.026Zm-1.31-.768h0Zm-.3-.291h-.124c0-.026.1-.026.21,0h.161C48-.531,47.85-.557,47.739-.557ZM2.8-.319h.1A.1.1,0,0,1,2.8-.319ZM47.38-.4h-.1c-.012-.026,0-.026.037-.026S47.38-.425,47.38-.4Zm.21-.053a.181.181,0,0,1,.1.026,1.7,1.7,0,0,1-.346-.026h.247Zm-.371.026c.037,0,.025.026-.049.026a.243.243,0,0,1-.1-.026ZM45.589-.478s-.111,0-.136-.026h.062A.15.15,0,0,1,45.589-.478ZM34.727-.266c0-.026.012-.026.049-.026.025.026.025.026-.012.026Zm12.789,3.2a2.218,2.218,0,0,1,.42,0h.037s.074-.026-.012-.026c-.111-.026-.346,0-.346-.026a1.617,1.617,0,0,0,.21-.026,2.293,2.293,0,0,0,.42-.026h.074c.062,0,.235-.026.334-.026.037,0,.605.026.544-.053h-.136a4.656,4.656,0,0,1-.865,0h-.235a1.307,1.307,0,0,1-.173-.026h-.111c-.062-.026-.025-.026.185-.026.408-.026.778,0,.914,0,.136-.026.062-.053.062-.053h-.247c-.037,0-.235.026-.42.026H47.2c-.074,0-.2.026-.272.026h-.667a1.371,1.371,0,0,0-.346-.026h-.173c0-.026-.074-.026-.161-.026H45.44c.037-.053.21-.053.741-.053h.3l.012-.026h.049c.1,0,.284.026.408.026a.443.443,0,0,0,.161-.026h-.074a.576.576,0,0,1-.2-.026c-.074,0-.124,0-.124.026a.233.233,0,0,1-.1-.026h.136c.062,0,.074,0,.062-.026H46a.681.681,0,0,1-.21.026h-.111c-.037,0-.049-.026-.062-.026H45.4a.789.789,0,0,1-.21-.026h.148c.1,0,.173,0,.2-.026.111,0,.334-.026.7-.026.309,0,.605-.026.63-.026h.47c.012,0,.025,0,.037-.026a3.838,3.838,0,0,1,.519.026c.062,0,.1-.053.037-.053h-.544c-.025,0-.025-.026-.012-.026h.3a.232.232,0,0,1,.087-.026h.111a.627.627,0,0,0,.185-.026c.074,0,.531.026.655.026.025,0,.111-.026.124-.026.012-.026-.148-.026-.432-.026-.222,0-.272,0-.272-.026a2.731,2.731,0,0,0,.284-.026H48.9a.284.284,0,0,0,.124-.026H48.74c-.148,0-.2-.026-.148-.026.025,0,.025,0-.074-.026h-.432c-.272,0-.284,0-.334-.026a.085.085,0,0,1-.049-.026h.519c.025-.026.1-.026.148-.026h.272c-.037-.026-.025-.026.025-.026H48.9c.173,0,.2,0,.2-.026h.161c.309,0,.3-.053-.1-.053h-.371c-.037-.026-.012-.026.049-.053h.074c.012,0,.049-.026.087-.026h.025a.744.744,0,0,0-.111-.026c-.049,0-.124-.026-.173-.026a.744.744,0,0,1-.309-.079h.012c.012-.026.062-.026.2,0H48.9c0-.026.037-.026.111-.026h.074c.012-.026,0-.026-.049-.026h-.062C48.987,1.64,49,1.64,49,1.64c.012-.026.222,0,.272,0,.086,0,.321.026.284-.026a.868.868,0,0,0-.247-.026c-.037,0-.037,0-.012.026h.012a.311.311,0,0,1-.124-.026c-.074-.026-.049-.026.062-.026h.086s-.012-.026-.161-.026-.161.026-.2,0-.037-.026-.037-.053l-.012-.026c-.025,0-.012-.026.025-.026s.457.026.4,0a1.97,1.97,0,0,0-.4,0c-.111,0-.148-.053-.062-.079h.47l.025-.026c.025-.026.012-.026-.049-.026-.037,0-.049-.026-.037-.026.012-.026.136-.053.185-.053s.1-.026.037-.026h-.457c-.124-.026-.148-.026-.1-.053a.233.233,0,0,1,.148-.026.046.046,0,0,0,.037-.026c0-.026.037-.026.1-.026h.012c-.049,0-.049,0-.025-.026S49.271,1,49.308,1c.074,0,.086,0,.1-.026h-.136c-.148,0-.185,0-.185-.026s.062-.026.185-.026h.136S49.432.9,49.444.9h-.049A1,1,0,0,1,49.16.872S49.1.819,49.11.819c.111-.079.482,0,.457-.053S49.259.713,49.2.713a.085.085,0,0,0-.049.026A.375.375,0,0,1,49,.713h-.136c-.049-.026-.049-.026-.049-.053-.012-.053.012-.053.124-.053h.087s0-.026-.025-.026c-.037-.026-.037-.026-.037-.053h-.037c-.049,0-.1-.026-.074-.053.037,0,.025-.026-.037-.026H48.69c0-.026.012-.026.086-.026.124.026.1-.026-.025-.026A.833.833,0,0,1,48.53.369h0c-.012,0-.025-.026-.037-.026-.025-.026-.025-.053,0-.053.025-.026.037-.026.1-.026.087,0,.111-.026.049-.026h-.062c0-.026-.025-.026-.037-.026S48.517.184,48.53.184c.012-.026,0-.026-.049-.026s-.062-.026-.074-.026C48.406.1,48.381.1,48.357.1c-.062-.026-.087-.026-.074-.053s.025-.026.062-.026h.062c.012,0,.247.026.247,0,0-.053-.235-.026-.272-.026-.087-.026-.136-.026-.136-.053s.012-.026-.222-.053H47.9c-.025-.026-.087-.026-.235-.026h-.3c-.1-.026-.1-.026-.1-.053,0-.053-.012-.053-.062-.053h-.148a.269.269,0,0,0-.111-.026h-.507c-.025-.026-.086-.026-.136-.026s-.507-.026-.519-.026H45.6a1.124,1.124,0,0,0-.148-.026h-.494c0,.026-.086.026-.185,0H39.657c-.519,0-1-.026-1.063-.026H33.949a.518.518,0,0,0-.284,0h-.3c-.136,0-.173,0-.185-.026h-.049c-.025.026-.049.026-.235.026-.47,0-.457,0-.47-.026h-.037c-.025,0-.865.026-1.273,0H29.191a1.555,1.555,0,0,1-.445.026H27.61c-.025,0-.284,0-.581-.026H24.607c-.408,0-.766.026-.778.026H16.946V-.4H15.932a3.676,3.676,0,0,0-.593.026c-.161,0-.21,0-.235-.026-.049,0-.025-.026.049-.026.025,0,.049,0,.062-.026.012,0,.111,0,.1.026h.8c0-.026-.049-.026-.136-.026h.185c.012.026.049.026.1,0h.025a.908.908,0,0,0,.136.026c.544,0,.68,0,.643-.026-.025,0,0-.026.049,0a.358.358,0,0,0,.136-.026h2.373a.057.057,0,0,1,.086,0H19.8c.049,0,.074,0,.074-.026h.074c.025.026.111.026.3.026h.408c.148,0,.161,0,.185-.026s.037-.026.062,0a.148.148,0,0,0,.148,0h.865a1.031,1.031,0,0,0,.321,0h.605a.757.757,0,0,0,.247,0h.964c0-.026.049-.026.062-.026.012.026.025.026.074.026h.383c.025-.026.037-.026.049,0h2.014c.21,0,.272,0,.3.026h.025c.012-.026.086-.026.086,0h.877c0-.026.037,0,.074,0H29.4c.012.026.025.026.062.026a.1.1,0,0,1,.074-.026c.087,0,1.248.026,1.52.026h1.705c0,.026.025.026.049,0h.964c.025.026.049,0,.062,0h.581a.39.39,0,0,0,.247,0c.074,0,.111,0,.124.026H37.31c.062,0,.259.026.457.026h1.705a1.224,1.224,0,0,1,.334.026h.148c.025-.026.062-.026.136,0,.087,0,.1,0,.124-.026h.7c.086,0,.173.026.185,0h1.3a.98.98,0,0,1,.284-.026h.185A2.9,2.9,0,0,1,43.3-.4h.358a1.839,1.839,0,0,1,.42,0h.766a1.839,1.839,0,0,0,.334.026h.667a.585.585,0,0,1,.185.026h.346a.144.144,0,0,1-.086-.026h-.049c.037,0,.482,0,.655.026h.21a2.758,2.758,0,0,0,.3.026,1.6,1.6,0,0,0,.47.026.438.438,0,0,0-.185-.026h-.21a4.716,4.716,0,0,0-.63-.053A2.861,2.861,0,0,1,46.4-.425H45.255a1.927,1.927,0,0,1-.4-.026H40.683a2.34,2.34,0,0,0-.519.026h-.828c-.025-.026-.111-.026-.111,0h-.049c.074-.026-.012-.026-.321-.026h-.927c-.012-.026-.037,0-.049,0h.1c.012.026-.025.026-.124.026a.507.507,0,0,1-.148-.026h-.111c-.012.026-.062.026-.124,0h-.049c0,.026-.074.026-.136,0s-.074-.026-.086,0h-1.47c-.148,0-.259,0-.259-.026h-3.25a3.934,3.934,0,0,0-.8,0c-.124,0-.222,0-.235-.026H29.315a1.031,1.031,0,0,0-.408,0,.212.212,0,0,1-.136-.026H28.7a.356.356,0,0,1-.235,0h-.21a.659.659,0,0,1-.321,0H21.172c-.074,0-.334,0-.334-.026h.47c.012,0,.025,0,.025-.026.012,0,.074,0,.47-.026h.828c.025,0,.062,0,.074-.026h.667c.049,0,.321.026.321,0h.717c.247-.026.544-.026.865-.026h2.8c.618-.026.568,0,.544-.026h-.235c-.1,0-.173,0-.111-.026h-.124c0,.026-.012.026-.025.026h-.012c.025-.026-.025-.026-.049-.026a1.42,1.42,0,0,1-.334.026.071.071,0,0,0-.1,0h-.865c-.173,0-.2,0-.2-.026h-.049c-.049,0-.062,0-.012.026h-1.8a3.224,3.224,0,0,1-.754,0h-.21a.106.106,0,0,1-.124,0h-.791c.012.026-.185.026-.21.026H20.7c-.309.026-.358.026-.42,0h-.148c-.025.026-.037.026-.086.026-.062-.026-.136-.026-.136,0h-1.26a.126.126,0,0,0-.136,0H17.428a1.247,1.247,0,0,1-.445,0h-.062c-.025.026-.111.026-.383.026H15.8a1.613,1.613,0,0,1-.544,0,.5.5,0,0,0-.161.026h-3.25s.012.026.025.026h-.074a.071.071,0,0,0-.1,0h-.4c-.025-.026-.049,0-.062,0h-.89c-.025,0-.124-.026-.136,0h-.84s.161.026.185.026C9.581-.5,9.494-.5,9.4-.5c-.3,0-.914-.026-1.112-.026-.111,0-.136-.026-.136-.026H8.123c0,.026-.012.026-.136.026a.28.28,0,0,0-.124-.026c-.012.026-.025.026,0,.026H7.258a.722.722,0,0,0-.21-.026c-.012.026.025.026.074.026H6.7A2.476,2.476,0,0,1,6.17-.557H5.824c.025-.026.025-.026-.012-.026H5.54c-.124.026-.161.026-.185,0h-.2a2.221,2.221,0,0,1-.568.026c-.445,0-.568,0-.593-.026H3.884c-.148,0-.531-.026-.655-.026-.074,0-.173-.026-.222-.026H2.884a1.277,1.277,0,0,1-.259-.026H2.513a.177.177,0,0,1-.1-.026H2.3c-.012,0-.037-.026-.037-.026-.012-.026-.025-.026-.049,0s-.025.026.012.026a.531.531,0,0,0,.1.026c.1,0,.124,0,.1.026a.048.048,0,0,1-.049.026c-.037,0-.049.026-.012.026s.012.026-.012.026h.1s0,.026-.037,0H1.648a.182.182,0,0,1,.074.026h.531c.21,0,.259,0,.136.026H2.167c-.334,0-.593-.026-.729-.026A.284.284,0,0,0,1.314-.5c-.025,0,.062.026.3.026h.643A.635.635,0,0,1,2.4-.451a3.23,3.23,0,0,1-.643.026c-.185,0-.272,0-.3-.026-.049,0-.148.026-.1.026A.643.643,0,0,0,1.6-.4h.432l.47.026a.312.312,0,0,0,.111.026c0,.026-.086.026-.136.026-.025-.026-.062-.026-.074,0h.012c.062.026.025.026-.086.026H2.105a.28.28,0,0,1,.1.026h.111c0,.026-.074.026-.222.026A1.307,1.307,0,0,1,1.92-.266h-.1c-.037,0-.42-.053-.445-.053-.037-.026-.074-.026-.074,0a.12.12,0,0,0,.086.026,2.039,2.039,0,0,1,.42.053h.012c-.049,0-.012.053.037.053H1.784c-.086,0-.272-.053-.371-.053A.152.152,0,0,0,1.3-.16c-.012,0-.025,0-.049.026H1.215c.012.026,0,.026-.074.026a.145.145,0,0,0-.111,0h.161a.15.15,0,0,1,.074.026c0,.026-.012.026-.074.026-.037-.026-.037-.026-.025-.026H.993A.325.325,0,0,0,.857-.107c-.012.026.037.026.124.026a.2.2,0,0,0,.1.026h-.1c.025.026.025.026,0,.026H.919C.919,0,.944,0,.993,0H1.1c.012,0,.049.026.062.026.037,0,.062.026.012.026H1.154c0-.026-.037-.026-.161-.026A.28.28,0,0,0,.869,0C.832-.028.783-.028.771,0c0,0-.086-.026-.124,0S.733.025.733.025H.894c.074.026.1.026.037.026s-.062,0,0,.026H.981C.968.1.882.1.746.078H.61C.585.078.622.078.721.1.808.1.857.131.808.131H.82C.882.131.869.157.808.157H.7C.635.131.585.131.585.157a1.955,1.955,0,0,0,.2.026H.808a.591.591,0,0,1-.3-.026H.437c-.012,0,0,0,.037.026.037,0,.049,0,.037.026h.1C.733.21.771.21.758.237c0,0,0,.026.012.026S.771.29.758.29h0A.513.513,0,0,1,.894.343c0,.026-.086.026-.284,0A.874.874,0,0,0,.4.316H.276c.012.026.012.026,0,.053S.227.4.165.343C.14.343.091.316.066.316S-.181.369-.107.4a1.273,1.273,0,0,0,.3.026C.239.449.61.449.684.475.746.475.845.5.82.5h-.1C.635.475.585.5.61.5.622.528.771.528.857.528c.062,0,.124,0,.124.026A.147.147,0,0,1,.919.581C.832.554.227.5.276.554A.74.74,0,0,1,.449.581H.523C.511.607.548.607.647.607a1.191,1.191,0,0,1,.371.026h.124c.012,0,.037.026.049.026H1.2a.085.085,0,0,0-.049.026h.074c.062,0,.074,0,.111.026.037,0-.111.026-.136.026H1.178c.012.026-.012.026-.037,0H1.1c-.012.026-.037.026,0,.053.025,0,.346.026.47.026.161.026.173.053.037.053-.074,0-.148,0-.136.026h.074a.092.092,0,0,1,.062.026s.012,0,.037.026a.046.046,0,0,1,.037.026V1H1.623c-.037,0-.074,0-.074.026H1.388c-.161,0-.2,0-.124.026h-.2l-.062-.026.148.053a3.413,3.413,0,0,1,.408.026h.124a.613.613,0,0,0,.247.026c.1,0,.21.026.247.026H2.29c.012,0,0,.026-.025.026H1.981A.8.8,0,0,0,1.8,1.163c-.037-.026-.049-.026-.124-.026s-.124.026-.111.026c.012.026-.086.026-.272,0H1.141c-.012,0,.025.026.062.026a.1.1,0,0,1,.074.026.522.522,0,0,1,.173.026c.074,0,.605.026.754.026.086,0,.062.026.062.026H1.771c-.086-.026-.2-.026-.2,0h.062c.074,0,.086,0,.037.026H1.561a.15.15,0,0,0-.074.026.345.345,0,0,0,.111.026h-.42c.049,0,.086.026.037.026s-.049.026-.025.026.037.026.049.026c.025.026.025.026.148.053h.89a2.354,2.354,0,0,1,.581.026H2.735c-.086,0-.136,0-.148.026h.074c.049,0,.111,0,.136.026H2.439a2.942,2.942,0,0,0-.358.026h.47a1.279,1.279,0,0,0,.358.026h.247v.026c.012.053-.272,0-.383,0H2.5c-.012.026-.037.026-.062.026H1.45c0,.026-.1,0-.309-.026-.1,0-.1.026-.086.053h.062a1.725,1.725,0,0,1,.445.053c.037.026.012.026-.124.026s-.161-.026-.334-.026c-.037-.026-.086,0-.1,0s-.012.026,0,.026h.124c.049,0,.173.026.272.026h.235c.086.053-.309.026-.334.026H1.277s-.074.053.2.053a1.944,1.944,0,0,1,.408,0h.692a.921.921,0,0,1,.321.026c.086,0,.111.026.086.053L2.8,2.01H2.2c-.012-.026-.074-.026-.074,0a1.833,1.833,0,0,0,.42.026c.247,0,.494.026.47.053H2.476a.732.732,0,0,1-.185.026c0-.026-.037-.053-.1-.053-.037,0-.025.026.012.026.025.026.037.026.037.026a2.468,2.468,0,0,1-.309.026H1.883c0,.026,0,.026-.012.026s-.012,0-.012.026H3.2c.025,0,.086,0,.086.026a.491.491,0,0,1-.235,0c-.173,0-.259.026-.124.026H2.97c-.037.026-.111.026-.272,0-.062,0-.062,0-.025.026H2.55a1.534,1.534,0,0,0-.2.026h-.1c-.074,0-.049.026.037.026h1.1a3.993,3.993,0,0,0,.432.026c.086.026.111.026.074.026s-.544.026-.618.026H3.131c-.148,0-.741-.026-.766-.026H2.3c-.012.026-.025.026-.025.026.012.026,0,.026-.42.026a3.235,3.235,0,0,1-.667-.026H1.117c-.037,0-.025.026.025.026h.111c.037,0,.247.026.544.026H3.23c.025.026.086.026.148.026.3.026.3.026-.012.026a.921.921,0,0,0-.321.026H2.884a2.032,2.032,0,0,1-.346-.026c-.247,0-.531,0-.482.026a.421.421,0,0,0,.185,0c.309,0,.334,0,.321.026h.383a1.038,1.038,0,0,1,.2.026h.124c.049,0,.111,0,.136.053H3.291c-.012,0-.037.026-.049.026H3.155a1.1,1.1,0,0,0-.222.026H2.97a.177.177,0,0,1,.1.026c.062,0,.062,0,.049.026a.16.16,0,0,1-.124.053s-.235-.026-.222,0,.222,0,.222,0c.025,0,.049.053.037.053H2.266a.339.339,0,0,0-.235,0c-.012,0-.012,0,.012.026h.025c0,.026.037.079.259.079.173,0,.272-.053.222-.053H2.29a2.409,2.409,0,0,1,.618,0h0c-.012,0-.025.026-.025.053,0,0-.012.026-.025.026-.012.026-.025.026-.012.053H2.8c-.062.026-.42,0-.334.053a2.333,2.333,0,0,0,.432,0c.025.026.037.026.049.053l.012.026c.012,0,.074.053.136.053.074.026-.235,0-.346.026s-.012.026.012.026c.049,0,.482.026.47.026h.012c.012,0,.025.026.025.026,0,.026.062,0,.111,0,.025,0,.037,0,.037.026l.2.053h.68a2.081,2.081,0,0,1,.494.026h.346a1.057,1.057,0,0,1,.371.026h.025c.025-.026.037-.026.148-.026.235.026.309.053.309.079H7.653c.037,0,.222.026.4.026h.914a3.184,3.184,0,0,1,.47.026H10.8a1.13,1.13,0,0,1,.321.026h1.433c.049-.026.062-.026.222-.026.1,0,.21.026.272.026h.185c.136-.026.309-.026.284,0h1.05a.292.292,0,0,1,.161,0c.037.026.062.026.148.026A1.124,1.124,0,0,0,15.03,3.6h.124c0,.026.087.026.185,0h.766c.086.026.1.026.161,0H21.1c.445-.026.618-.026.692-.026h2.261c.655,0,1.236-.026,1.248-.026h-.025a2.54,2.54,0,0,0-.729,0H20.517c-.025-.026-.074-.026-.136-.026H17.465c-.358,0-.692-.026-.741-.026h-.259c-.025-.026.136-.053.185-.026s.062.026.161,0c.161,0,.3-.026.383-.026h6.3c.235,0,.445-.026.47-.026h.111a.148.148,0,0,0,.148,0h1.73c.309.026,1.742.026,2.533.026H32.96c.4,0,.951,0,1.458-.026h2.187c.062,0,.124,0,.136.026h.037c.012-.026.148-.026.3-.026h.519c.568,0,.729,0,1.4-.026h7.847a.544.544,0,0,1,.222-.026.412.412,0,0,0,.148-.026h.383c0-.026.124-.053-.247-.053-.247,0-.544.026-.581.026-.037-.026-.049-.026-.062,0h-.544l.062-.026h-.049c.025,0,0,.026-.111,0h-.1a.046.046,0,0,1-.037-.026h-.074c-.037,0-.1,0-.124-.026-.037,0-.049,0-.049.026-.012,0-.074.026-.086,0-.012,0,.037-.026.074-.026h.877A4.7,4.7,0,0,0,45.8,3.2a6.645,6.645,0,0,1-.729,0h.2l.816-.053h-.025a1.351,1.351,0,0,1-.284-.026,3.415,3.415,0,0,1,.4-.026h.161c0-.026-.025-.026-.049-.026h.235c.074,0,.2-.026.3-.026h.457c.111-.026-.124-.026-.445-.026h-.185l.049-.026a.23.23,0,0,1,.136-.026h.383ZM45.725,3.1h.086c0,.026-.062.026-.1,0Zm-24.182.371h.086c.062.026.049.026-.037.026C21.542,3.493,21.518,3.493,21.542,3.466ZM3.526,2.593H3.489c0-.026.012-.026.012-.026S3.514,2.566,3.526,2.593Zm-.272-.318h0Zm.074,0h.1C3.39,2.3,3.328,2.275,3.328,2.275ZM3.057,1.56c.086.026.062.026-.074.026H2.871C2.871,1.56,2.958,1.56,3.057,1.56ZM4.169-.266c.025.026-.074.026-.2.026-.259,0-.68-.026-.7-.026H3.118c-.185,0-.42-.026-.42-.026s-.1-.026-.062-.026a1.068,1.068,0,0,1,.42,0H3.2c.062,0,.432.026.581.026h.247C4.095-.266,4.132-.293,4.169-.266Zm.605.026c-.062,0-.136,0-.161-.026h.111C4.824-.266,4.848-.266,4.774-.24ZM4.453-.266a.256.256,0,0,1-.2,0h.2ZM4.268,2.487c-.012.026-.1.026-.2,0h-.4a.308.308,0,0,1,.161-.026.745.745,0,0,1,.2.026ZM16.9-.425h0Zm-.2,0h0Zm-.383,0h0Zm-.544,0h0Zm-.358,0h0Zm7.031,3.918H21.8a.085.085,0,0,1-.049-.026H21.8a5.573,5.573,0,0,1,.667,0C22.568,3.466,22.444,3.493,22.444,3.493Zm22.872-.9c0,.053,0,.053-.012.053s-.025-.053-.037-.053h.049ZM41.326-.266H40.2a3.188,3.188,0,0,0-.346.026h-2.3c-.939,0-1.26-.026-1.285-.026H36.21c-.025.026-.049.026-.062,0h-.432c0,.026-.049.026-.21.026h-.939c-.037,0-.161-.026-.272-.026h-.185c.012-.026.012-.026-.086-.026a.952.952,0,0,1-.222.026h-.284c-.012-.026-.173-.026-.247,0-.049,0-.062,0-.087-.026h-.334c0-.026-.025-.026-.037-.026h3.225a2.379,2.379,0,0,0,.321.026.382.382,0,0,1,.247,0h.408A1.609,1.609,0,0,1,37.2-.319c.21,0,.445.026.482.026h.247c.086.026.173.026.2,0h.42c.037.026.049.026.259.026a1.548,1.548,0,0,0,.247-.026,3.948,3.948,0,0,1,.507.026.175.175,0,0,0,.124-.026h.087a.048.048,0,0,0,.049.026,2.265,2.265,0,0,1,.321-.026H41.2C41.289-.293,41.35-.266,41.326-.266Zm.2,0h-.1C41.474-.293,41.523-.293,41.523-.266Zm.321,0c-.037,0-.272,0-.272-.026h.247C41.857-.293,41.857-.266,41.845-.266Zm1.162,3.441h-.445c-.791.026-1.705.026-1.755.026h-.235a.712.712,0,0,0-.235.026c-.111,0-.124,0-.173-.026H40.09a.843.843,0,0,1-.259,0h-.222a2.126,2.126,0,0,1-.457.026,3.552,3.552,0,0,0-.667.026.992.992,0,0,1-.284-.026h-.346c-.482.026-.816.026-.828.026,0-.026.012-.026.025-.026H37.1c.012,0,.025-.026.062-.026h.927a4.919,4.919,0,0,0,.828-.026h.259c.259,0,2.088-.026,2.879,0,.074,0,.346-.026.556-.026h.47C43.068,3.175,43.043,3.175,43.006,3.175Zm.309,0h-.148c-.037-.026-.012-.026.074-.026S43.352,3.149,43.315,3.175Zm.63-.026a.635.635,0,0,1-.148.026h-.383c-.124,0,.074-.026.259-.026H43.9C43.921,3.122,43.982,3.149,43.945,3.149Zm.3.053h.148c.025-.026.148,0,.21,0h.124c.037,0,.087,0,.1.026h-.667a.451.451,0,0,1-.185.026H42.845c-.037-.026.012-.026.235-.026.124,0,.309-.026.408-.026Zm.853-.079c-.037,0-.531.026-.667.026-.037,0-.161-.026-.272-.026h-.074a3.652,3.652,0,0,1,.766,0Zm.037,0,.062-.026c.062,0,.136,0,.148.026h-.21ZM34.949-.266h0Zm2.323,0c-.012,0-.012-.026-.012-.026h.025C37.285-.266,37.273-.266,37.273-.266ZM44.118-.5c0,.026-.025,0-.148,0-.247,0-.3-.026-.185-.026A1.09,1.09,0,0,1,44.118-.5Zm5.659,1.774a.033.033,0,0,1-.049,0h.049ZM39.176-.266h0Zm-3.546,0h0Zm-.42-.026s.012-.026.025-.026.025.026.012.026Zm-.247,0h0Zm.334.026h0Z" transform="translate(0.122 0.875)" fill="#ffd23b"/>
</svg>
